<?xml version="1.0" encoding="UTF-8"?>
<svg width="88px" height="88px" viewBox="0 0 88 88" version="1.1" xmlns="http://www.w3.org/2000/svg" xmlns:xlink="http://www.w3.org/1999/xlink">
    <!-- Generator: Sketch 54.1 (76490) - https://sketchapp.com -->
    <title>work (1)</title>
    <desc>Created with Sketch.</desc>
    <g id="Page-1" stroke="none" stroke-width="1" fill="none" fill-rule="evenodd">
        <g id="Desktop" transform="translate(-487.000000, -763.000000)" fill="#173CF2" fill-rule="nonzero">
            <g id="work-(1)" transform="translate(487.000000, 763.000000)">
                <path d="M22.7947733,18.7193544 C21.2014331,16.9749712 19.0059442,15.9930995 16.7145221,16.0000365 L16.2783979,16.0000365 C13.9892768,15.9951618 11.7969739,16.9768461 10.2052267,18.7193544 C8.70781973,20.3501201 7.91274264,22.5634094 8.00761382,24.8359447 L8.17328438,28.8736742 C8.4242682,33.4941148 12.0741535,37.0803746 16.4426525,36.99863 L16.5502676,36.99863 C20.9187666,37.0803746 24.5686519,33.4941148 24.8196357,28.8736742 L24.9923862,24.8359447 C25.0872574,22.5634094 24.2921803,20.3501201 22.7947733,18.7193544 Z M21.9904923,28.7491826 C21.7986259,31.7607934 19.3988808,34.0764508 16.5502676,33.998831 L16.4426525,33.998831 C13.5940393,34.0764508 11.1942941,31.7607934 11.0024278,28.7491826 L10.9528682,27.5237647 C13.6520948,27.3964607 16.2438832,26.3662172 18.3556519,24.5809618 C19.2264843,25.9451204 20.5410519,26.9217425 22.0485478,27.324278 L21.9904923,28.7491826 Z M20.2148437,21.6591575 C20.1360794,21.0194503 19.6797774,20.5047973 19.0820536,20.3812431 C18.4864537,20.2507518 17.879349,20.5413573 17.5782746,21.1011948 C17.5598668,21.1326927 15.8026261,24.0769955 10.8438372,24.5269654 C10.8316243,23.1373085 11.3362469,21.7984606 12.248497,20.799715 C13.3057088,19.6457298 14.7602821,18.9960858 16.2783979,18.9998356 L16.7145221,18.9998356 C18.2326379,18.9960858 19.6872113,19.6457298 20.7444231,20.799715 C21.5704749,21.7114665 22.0607607,22.9066989 22.1264271,24.1684894 C21.1465636,23.7046455 20.4357378,22.7717079 20.2148437,21.6591575 Z" id="Shape"></path>
                <path d="M78.7947766,53.7193544 C77.2014388,51.9749712 75.0059532,50.9930995 72.7145346,51.0000365 L72.278411,51.0000365 C69.9892933,50.9951618 67.7969937,51.9768461 66.2052489,53.7193544 C64.7078442,55.3501201 63.9125913,57.5634094 64.0076393,59.8359447 L64.1733096,63.8736742 C64.4242931,68.4941148 68.0741729,72.0803746 72.4426653,71.99863 L72.5502802,71.99863 C76.9187727,72.0803746 80.5686525,68.4941148 80.819636,63.8736742 L80.9923862,59.8359447 C81.0872572,57.5634094 80.2921813,55.3501201 78.7947766,53.7193544 Z M78.1604151,59.7144528 L77.9904968,63.7491826 C77.7986307,66.7607934 75.3988892,69.0764508 72.5502802,68.998831 L72.4426653,68.998831 C69.5940564,69.0764508 67.1943148,66.7607934 67.0024488,63.7491826 L66.8325305,59.7069533 C66.7778381,58.2537382 67.2898939,56.8408328 68.2485161,55.799715 C69.3057263,54.6457298 70.7602975,53.9960858 72.278411,53.9998356 L72.7145346,53.9998356 C74.2326481,53.9960858 75.6872193,54.6457298 76.7444295,55.799715 C77.7048217,56.8427077 78.2170545,58.2588003 78.1604151,59.7144528 Z" id="Shape"></path>
                <path d="M45.7505311,21.1600239 C44.1614233,19.6133254 41.6396589,19.6133254 40.0505511,21.1600239 L23.5167215,37.7972322 C23.2386647,38.0770276 22.8613812,38.2342495 22.468177,38.2338769 L7.40497561,38.2338769 C3.31742907,38.2387202 0.00481323415,41.5720484 0,45.6851526 L0,66.5487244 C0,69.0178908 1.98916157,71.0194897 4.44298537,71.0194897 C4.94744933,71.0194897 5.44821081,70.9332412 5.92398049,70.7646561 L5.92398049,72.5097449 C5.92398049,73.3327383 6.58709605,74 7.40497561,74 L25.1769171,74 C25.9947966,74 26.6579122,73.3327383 26.6579122,72.5097449 L26.6579122,48.3467482 C26.6577271,47.9697137 26.7995324,47.606464 27.0548189,47.3303942 L45.847166,26.9928825 C47.4212787,25.3554647 47.3779596,22.7439788 45.7505311,21.1600239 Z M43.7321198,24.908947 C43.7267512,24.9141629 43.7213826,24.9193787 43.716014,24.9244084 L24.880718,45.302157 C24.1180056,46.13018 23.6946261,47.2176937 23.695922,48.3467482 L23.695922,71.0194897 L8.88597073,71.0194897 L8.88597073,48.6656628 C8.88597073,47.8426694 8.22285517,47.1754077 7.40497561,47.1754077 C6.58709605,47.1754077 5.92398049,47.8426694 5.92398049,48.6656628 L5.92398049,66.5487244 C5.92398049,67.3717178 5.26086492,68.0389795 4.44298537,68.0389795 C3.62510581,68.0389795 2.96199024,67.3717178 2.96199024,66.5487244 L2.96199024,45.6851526 C2.96199024,43.2159861 4.95115182,41.2143872 7.40497561,41.2143872 L22.468177,41.2143872 C23.6476045,41.2181128 24.779455,40.7464471 25.6108486,39.9044529 L42.1446782,23.2672447 C42.5954561,22.8369335 43.302261,22.8369335 43.7530389,23.2672447 C44.1977077,23.7264295 44.1884515,24.4614979 43.7321198,24.908947 Z" id="Shape"></path>
                <path d="M15.5,42 C14.671625,42 14,42.671625 14,43.5 L14,61.5 C14,62.328375 14.671625,63 15.5,63 C16.328375,63 17,62.328375 17,61.5 L17,43.5 C17,42.671625 16.328375,42 15.5,42 Z" id="Path"></path>
                <path d="M47.7938356,53.7193383 C46.20143,51.9768285 44.0082203,50.9951434 41.7181523,51.0000181 L41.2818477,51.0000181 C38.9917797,50.9951434 36.79857,51.9768285 35.2061644,53.7193383 C33.708138,55.3501055 32.912555,57.5633967 33.0076425,59.835934 L33.1733816,63.8736671 C33.4244692,68.4941117 37.0758642,72.0803746 41.4461702,71.99863 L41.5538298,71.99863 C45.9241358,72.0803746 49.5755308,68.4941117 49.8266184,63.8736671 L49.9923575,59.835934 C50.087445,57.5633967 49.291862,55.3501055 47.7938356,53.7193383 Z M47.1662936,59.714442 L46.9963048,63.7491753 C46.8043591,66.7607888 44.4036213,69.0764482 41.5538298,68.9988283 L41.4461702,68.9988283 C38.5963787,69.0764482 36.1956409,66.7607888 36.0036952,63.7491753 L35.8337064,59.7069425 C35.7789913,58.2537261 36.2912596,56.8408195 37.2502798,55.7997008 C38.3079289,54.6457146 39.7631039,53.99607 41.2818477,53.9998198 L41.7181523,53.9998198 C43.2368961,53.99607 44.6920711,54.6457146 45.7497202,55.7997008 C46.7105111,56.8426944 47.2229565,58.2587883 47.1662936,59.714442 Z" id="Shape"></path>
                <path d="M47.99215,74 L33.00785,74 C29.13925,74.00385 26.0039875,77.031 26,80.7662 L26,86.6 C26,87.37315 26.6492375,88 27.45,88 C28.2507625,88 28.9,87.37315 28.9,86.6 L28.9,80.7662 C28.9023563,78.5766 30.7402312,76.802275 33.00785,76.8 L47.99215,76.8 C50.25995,76.802275 52.0976438,78.5766 52.1,80.7662 L52.1,86.6 C52.1,87.37315 52.7492375,88 53.55,88 C54.3507625,88 55,87.37315 55,86.6 L55,80.7662 C54.9960125,77.031 51.86075,74.00385 47.99215,74 Z" id="Path"></path>
                <path d="M80.99215,74 L66.00785,74 C62.13925,74.00385 59.0039875,77.031 59,80.7662 L59,86.6 C59,87.37315 59.6492375,88 60.45,88 C61.2507625,88 61.9,87.37315 61.9,86.6 L61.9,80.7662 C61.9023562,78.5766 63.7402313,76.802275 66.00785,76.8 L80.99215,76.8 C83.25995,76.802275 85.0976438,78.5766 85.1,80.7662 L85.1,86.6 C85.1,87.37315 85.7492375,88 86.55,88 C87.3507625,88 88,87.37315 88,86.6 L88,80.7662 C87.9960125,77.031 84.86075,74.00385 80.99215,74 Z" id="Path"></path>
                <path d="M83.6828313,0 L32.3171687,0 C29.9140678,0.0237575758 27.9830994,2.01623864 28.0001116,4.45454545 L28.0001116,26.7272727 C28.0001116,27.5472803 28.655353,28.2121212 29.4635207,28.2121212 C30.2716885,28.2121212 30.9269299,27.5472803 30.9269299,26.7272727 L30.9269299,8.90909091 L85.0730701,8.90909091 L85.0730701,44.5454545 C85.0919115,45.3444886 84.4703284,46.0084015 83.6828313,46.030303 L33.7439926,46.030303 C32.9358249,46.030303 32.2805834,46.6951439 32.2805834,47.5151515 C32.2805834,48.3351591 32.9358249,49 33.7439926,49 L83.6828313,49 C86.0859322,48.9762424 88.0169006,46.9837614 87.9998884,44.5454545 L87.9998884,4.45454545 C88.0169006,2.01623864 86.0859322,0.0237575758 83.6828313,0 Z M85.0734873,5.93939394 L30.9265127,5.93939394 L30.9269299,4.45454545 C30.9080885,3.65551136 31.5296716,2.99159848 32.3171687,2.96969697 L83.6828313,2.96969697 C84.4703284,2.99159848 85.0919115,3.65551136 85.0730701,4.45454545 L85.0734873,5.93939394 Z" id="Shape"></path>
                <path d="M81.5,18 C80.671625,18 80,18.6612923 80,19.4769231 L80,40.5230769 C80,41.3387077 80.671625,42 81.5,42 C82.328375,42 83,41.3387077 83,40.5230769 L83,19.4769231 C83,18.6612923 82.328375,18 81.5,18 Z" id="Path"></path>
                <path d="M74.5,28 C73.671625,28 73,28.62685 73,29.4 L73,40.6 C73,41.37315 73.671625,42 74.5,42 C75.328375,42 76,41.37315 76,40.6 L76,29.4 C76,28.62685 75.328375,28 74.5,28 Z" id="Path"></path>
                <path d="M68.5,25 C67.671625,25 67,25.6343125 67,26.4166667 L67,40.5833333 C67,41.3656875 67.671625,42 68.5,42 C69.328375,42 70,41.3656875 70,40.5833333 L70,26.4166667 C70,25.6343125 69.328375,25 68.5,25 Z" id="Path"></path>
                <path d="M63.5,34 C62.671625,34 62,34.671625 62,35.5 L62,41.5 C62,42.328375 62.671625,43 63.5,43 C64.328375,43 65,42.328375 65,41.5 L65,35.5 C65,34.671625 64.328375,34 63.5,34 Z" id="Path"></path>
                <path d="M80.3569117,12.2523288 C79.6932004,11.7925874 78.7962152,11.9785839 78.3535003,12.6678211 L73.4222483,20.3476786 L68.8665456,16.8002444 C68.23082,16.2998162 67.3248072,16.4295638 66.8429123,17.0897391 C66.7880244,17.1649252 66.7401779,17.2451737 66.6999147,17.3297346 L61.0753408,29.0130178 L55.5778759,33.2999383 C54.9396226,33.7969916 54.8103469,34.7370991 55.2889918,35.3998993 C55.7676367,36.0626995 56.6729273,36.196947 57.3111807,35.6998937 L63.0888632,31.1999772 C63.2708602,31.0608548 63.4192744,30.8795457 63.5221893,30.6704871 L68.5242179,20.2786799 L72.9109234,23.7001164 C73.5489962,24.1971697 74.4544674,24.0631097 74.9331122,23.4003095 C74.9491814,23.3781849 74.9645284,23.3554978 74.9793337,23.3326232 L80.7570162,14.3327902 C81.1997311,13.643553 81.0206229,12.7120703 80.3569117,12.2523288 Z" id="Path"></path>
                <path d="M53.5,12 L35.5,12 C34.671625,12 34,12.671625 34,13.5 C34,14.328375 34.671625,15 35.5,15 L53.5,15 C54.328375,15 55,14.328375 55,13.5 C55,12.671625 54.328375,12 53.5,12 Z" id="Path"></path>
                <path d="M61.75,12 L59.25,12 C58.5596875,12 58,12.671625 58,13.5 C58,14.328375 58.5596875,15 59.25,15 L61.75,15 C62.4403125,15 63,14.328375 63,13.5 C63,12.671625 62.4403125,12 61.75,12 Z" id="Path"></path>
            </g>
        </g>
    </g>
</svg>