<?xml version="1.0" encoding="utf-8"?>
<!-- Generator: Adobe Illustrator 27.2.0, SVG Export Plug-In . SVG Version: 6.00 Build 0)  -->
<svg version="1.1" id="Layer_1" xmlns="http://www.w3.org/2000/svg" xmlns:xlink="http://www.w3.org/1999/xlink" x="0px" y="0px"
	 viewBox="0 0 2880 1800" style="enable-background:new 0 0 2880 1800;" xml:space="preserve">
<style type="text/css">
	.st0{fill:#DCDFDF;}
	.st1{fill:#FBF9F7;}
	.st2{fill:#E7EAEA;}
	.st3{fill:#383632;}
	.st4{fill:#FBF9F7;stroke:#05203A;stroke-width:0.5;stroke-miterlimit:10;}
	.st5{fill:#646463;}
	.st6{fill:#8AAEDC;}
	.st7{fill:#3C63AD;}
	.st8{opacity:0.3;}
	.st9{fill:#84AFCB;}
	.st10{fill:#FFFFFF;}
	.st11{fill:#70C9CB;}
	.st12{fill:#FBF9F7;stroke:#000000;stroke-width:0.5;stroke-miterlimit:10;}
	.st13{fill:#F1F4F5;}
	.st14{fill:#D29C78;}
	.st15{fill:#C58C6A;}
	.st16{fill:#2E180C;}
	.st17{fill:#13192F;}
	.st18{opacity:0.4;}
	.st19{fill:#28387C;}
</style>
<g>
	<g>
		<g>
			<g>
				<g>
					<g>
						
							<rect x="1865.82" y="989.04" transform="matrix(6.123234e-17 -1 1 6.123234e-17 802.7498 2951.7324)" class="st0" width="22.83" height="170.91"/>
					</g>
				</g>
			</g>
			<g>
				<g>
					<g>
						<g>
							<path class="st1" d="M1815.07,1064.02c0.59,0,1.08,4.79,1.08,10.7c0,5.91-0.48,10.7-1.08,10.7c-0.59,0-1.08-4.79-1.08-10.7
								C1813.99,1068.81,1814.48,1064.02,1815.07,1064.02z"/>
						</g>
					</g>
				</g>
			</g>
			<g>
				<g>
					<g>
						<g>
							<path class="st1" d="M1811.35,1063.56c0.59,0,1.07,4.79,1.07,10.7c0,5.91-0.48,10.7-1.07,10.7c-0.59,0-1.08-4.79-1.08-10.7
								C1810.27,1068.35,1810.76,1063.56,1811.35,1063.56z"/>
						</g>
					</g>
				</g>
			</g>
			<g>
				<g>
					<g>
						<g>
							<path class="st1" d="M1949.48,1064.02c0.59,0,1.08,4.79,1.08,10.7c0,5.91-0.48,10.7-1.08,10.7c-0.59,0-1.07-4.79-1.07-10.7
								C1948.41,1068.81,1948.89,1064.02,1949.48,1064.02z"/>
						</g>
					</g>
				</g>
			</g>
			<g>
				<g>
					<g>
						<g>
							<ellipse class="st1" cx="1945.76" cy="1074.25" rx="1.07" ry="10.7"/>
						</g>
					</g>
				</g>
			</g>
			<g>
				<g>
					<g>
						<g>
							<path class="st1" d="M1923.44,1075.18c0,0.59-19.58,1.08-43.72,1.08c-24.15,0-43.72-0.48-43.72-1.08
								c0-0.59,19.57-1.07,43.72-1.07C1903.86,1074.11,1923.44,1074.59,1923.44,1075.18z"/>
						</g>
					</g>
				</g>
			</g>
		</g>
		<g>
			<g>
				<g>
					<g>
						
							<rect x="1853.67" y="1103.25" transform="matrix(6.123234e-17 -1 1 6.123234e-17 687.7924 3065.2097)" class="st0" width="45.66" height="170.91"/>
					</g>
				</g>
			</g>
			<g>
				<g>
					<g>
						<g>
							<path class="st1" d="M1964.15,1198.7c0.02,0.03-0.3,0.21-0.93,0.53c-0.63,0.33-1.58,0.76-2.85,1.3
								c-2.54,1.04-6.38,2.51-11.59,3.32c-5.12,0.73-12,0.94-18.8-2.67c-3.34-1.79-6.52-4.49-8.93-8.09
								c-2.36-3.59-3.88-8.28-3.11-13.15c0.41-2.43,1.42-4.82,3.14-6.8c1.67-1.98,4.35-3.44,7.21-3.27
								c2.86,0.13,5.45,1.77,7.24,3.91c1.81,2.14,3.05,4.89,3.31,7.79c0.68,5.79-1.76,11.79-5.89,16.18
								c-4.06,4.55-10.14,7.32-16.42,8.03c-6.32,0.75-12.86-0.25-19.07-2.37c-6.2-2.14-12.33-5.62-16.66-11.19
								c-2.12-2.77-3.66-6.21-3.88-9.86c-0.32-3.64,0.85-7.55,3.64-10.26c1.39-1.35,3.33-2.26,5.35-2.34
								c2.02-0.1,3.96,0.56,5.59,1.57c3.3,2.05,5.4,5.55,6.29,9.21c1.61,7.47-1.35,15.25-6.74,20.12
								c-5.41,4.92-12.49,7.1-19.24,7.83c-6.8,0.68-13.64,0.18-19.95-1.96c-6.28-2.09-11.93-6.22-15.17-11.8
								c-3.31-5.45-4.39-12.35-1.9-18.14c1.17-2.87,3.81-5.41,6.97-5.9c3.08-0.58,6.23,0.27,8.61,2.08
								c4.82,3.83,5.63,10.39,4.07,15.39c-1.58,5.14-5.04,9.07-8.62,12.13c-7.31,6.17-15.95,8.84-23.44,9.1
								c-7.56,0.27-13.92-1.82-18.57-4.22c-4.69-2.44-7.77-5.2-9.68-7.18c-0.94-1.01-1.63-1.8-2.05-2.38
								c-0.43-0.56-0.63-0.86-0.6-0.88c0.22-0.3,3.42,4.99,12.71,9.69c4.61,2.24,10.84,4.14,18.14,3.77
								c7.24-0.37,15.56-3.07,22.5-9.06c3.42-2.97,6.63-6.77,8.02-11.45c1.4-4.53,0.49-10.38-3.56-13.49
								c-1.98-1.49-4.69-2.19-7.18-1.69c-2.54,0.42-4.54,2.35-5.59,4.85c-2.16,5.07-1.21,11.36,1.87,16.36
								c3.02,5.12,8.2,8.9,14.14,10.87c5.94,2,12.54,2.48,19.06,1.81c6.47-0.71,13.11-2.82,18.03-7.32
								c4.86-4.36,7.51-11.51,6.08-18.05c-0.77-3.2-2.61-6.19-5.33-7.87c-2.67-1.77-6.16-1.71-8.33,0.51
								c-2.21,2.13-3.28,5.44-2.98,8.56c0.19,3.17,1.52,6.2,3.44,8.73c3.92,5.09,9.74,8.48,15.64,10.52
								c5.97,2.06,12.23,3.02,18.17,2.34c5.93-0.66,11.49-3.17,15.28-7.35c3.85-4.04,6.08-9.53,5.5-14.7
								c-0.42-5.02-4.25-9.92-8.86-10.23c-2.28-0.15-4.46,0.97-5.93,2.67c-1.5,1.69-2.45,3.84-2.83,6
								c-0.74,4.41,0.58,8.75,2.76,12.16c2.23,3.41,5.21,6.04,8.36,7.79c6.38,3.52,13.08,3.49,18.11,2.89
								c5.13-0.66,8.97-1.99,11.55-2.89C1962.79,1199.19,1964.11,1198.61,1964.15,1198.7z"/>
						</g>
					</g>
				</g>
			</g>
		</g>
		<g>
			<g>
				<g>
					<g>
						
							<rect x="1844.52" y="1048.36" transform="matrix(6.123234e-17 -1 1 6.123234e-17 757.9505 3010.3149)" class="st2" width="79.23" height="155.65"/>
					</g>
				</g>
			</g>
			<g>
				<g>
					<g>
						<g>
							<path class="st0" d="M1832.17,1089.29c0.59,0,1.07,17.17,1.07,38.34c0,21.18-0.48,38.35-1.07,38.35
								c-0.59,0-1.07-17.17-1.07-38.35C1831.1,1106.46,1831.58,1089.29,1832.17,1089.29z"/>
						</g>
					</g>
				</g>
			</g>
			<g>
				<g>
					<g>
						<g>
							<path class="st0" d="M1843.97,1088.3c0.59,0,1.08,16.95,1.08,37.85c0,20.91-0.48,37.86-1.08,37.86
								c-0.59,0-1.07-16.95-1.07-37.86C1842.89,1105.25,1843.38,1088.3,1843.97,1088.3z"/>
						</g>
					</g>
				</g>
			</g>
			<g>
				<g>
					<g>
						<g>
							<path class="st0" d="M1944.36,1085.76c0.59,0,1.08,17.85,1.08,39.86c0,22.02-0.48,39.87-1.08,39.87
								c-0.59,0-1.07-17.85-1.07-39.87C1943.29,1103.61,1943.77,1085.76,1944.36,1085.76z"/>
						</g>
					</g>
				</g>
			</g>
			<g>
				<g>
					<g>
						<g>
							<path class="st0" d="M1930.49,1086.83c0.59,0,1.08,17.39,1.08,38.84c0,21.45-0.48,38.84-1.08,38.84s-1.07-17.39-1.07-38.84
								C1929.42,1104.22,1929.9,1086.83,1930.49,1086.83z"/>
						</g>
					</g>
				</g>
			</g>
		</g>
	</g>
	<rect x="879.6" y="184.53" class="st0" width="1049.3" height="696.02"/>
	<g>
		<g>
			<g>
				<path class="st3" d="M2763.21,1691.94c0,0.58-602.04,1.06-1344.51,1.06c-742.73,0-1344.64-0.47-1344.64-1.06
					c0-0.58,601.91-1.06,1344.64-1.06C2161.18,1690.88,2763.21,1691.36,2763.21,1691.94z"/>
			</g>
		</g>
	</g>
	<g>
		<g>
			<g>
				<g>
					<rect x="820.54" y="209.89" class="st4" width="1086.67" height="712.77"/>
				</g>
			</g>
		</g>
		<g>
			<g>
				<g>
					<g>
						<path class="st5" d="M1148.8,595.6l106.88,1.47c-0.82,56.96-48.81,103.38-106.88,103.38c-0.21,0-0.42,0-0.63,0L1148.8,595.6z"
							/>
					</g>
				</g>
				<g>
					<g>
						<g>
							<path class="st3" d="M1325.53,740.32c0,0.06-0.79,0.13-2.29,0.18c-1.69,0.04-3.86,0.1-6.54,0.17
								c-5.89,0.07-14.01,0.16-23.88,0.28l-0.3,0l-0.19-0.24c-9.54-12.01-21.84-27.52-35.26-44.42
								c-10.42-13.29-20.17-25.72-28.42-36.24l0.55,0.27c-12.87-0.12-23.65-0.22-31.46-0.29c-3.63-0.08-6.56-0.14-8.8-0.19
								c-2.03-0.07-3.11-0.14-3.11-0.22c0-0.07,1.08-0.15,3.11-0.21c2.23-0.05,5.17-0.11,8.8-0.19c7.81-0.07,18.59-0.17,31.46-0.29
								l0.34,0l0.21,0.27c8.31,10.48,18.12,22.86,28.61,36.1c13.31,17,25.51,32.58,34.97,44.66l-0.5-0.24
								c9.87,0.11,17.99,0.21,23.88,0.28c2.68,0.07,4.85,0.13,6.54,0.17C1324.74,740.2,1325.53,740.26,1325.53,740.32z"/>
						</g>
					</g>
				</g>
				<g>
					<g>
						<g>
							<path class="st3" d="M1363.87,752.64c0,0.45-15.48,0.82-34.58,0.82c-19.1,0-34.58-0.37-34.58-0.82
								c0-0.45,15.48-0.82,34.58-0.82C1348.39,751.83,1363.87,752.19,1363.87,752.64z"/>
						</g>
					</g>
				</g>
				<g>
					<g>
						<g>
							<path class="st3" d="M1363.87,765.45c0,0.45-15.48,0.82-34.58,0.82c-19.1,0-34.58-0.37-34.58-0.82
								c0-0.45,15.48-0.82,34.58-0.82C1348.39,764.63,1363.87,765,1363.87,765.45z"/>
						</g>
					</g>
				</g>
			</g>
			<g>
				<g>
					<g>
						<path class="st6" d="M1131.9,580.39l-1.5,104.84c-58.07-0.8-105.39-47.88-105.39-104.84c0-57.52,48.25-104.86,106.89-104.86
							c58.64,0,106.89,47.33,106.89,104.86H1131.9z"/>
					</g>
				</g>
				<g>
					<g>
						<g>
							<path class="st3" d="M1090.16,546.1c0.01,0.07-0.64,0.22-1.86,0.43c-1.45,0.23-3.21,0.51-5.32,0.85
								c-4.91,0.69-11.43,1.6-19.2,2.69l-0.32,0.04l-0.24-0.23c-7.31-7.11-16.11-15.67-25.61-24.91
								c-12.3-12.07-23.37-23.06-31.33-31.07c-3.8-3.87-6.95-7.09-9.36-9.55c-2.19-2.28-3.36-3.58-3.28-3.66
								c0.08-0.08,1.4,1.07,3.72,3.21c2.51,2.37,5.78,5.46,9.73,9.18c8.16,7.8,19.37,18.66,31.67,30.73
								c9.42,9.32,18.15,17.96,25.4,25.13l-0.55-0.19c7.8-0.86,14.35-1.58,19.27-2.12c2.12-0.19,3.9-0.35,5.36-0.49
								C1089.49,546.05,1090.15,546.03,1090.16,546.1z"/>
						</g>
					</g>
				</g>
				<g>
					<g>
						<g>
							<path class="st3" d="M966.58,476.08c0,0.45-15.48,0.82-34.58,0.82c-19.1,0-34.58-0.37-34.58-0.82
								c0-0.45,15.48-0.82,34.58-0.82C951.1,475.26,966.58,475.63,966.58,476.08z"/>
						</g>
					</g>
				</g>
				<g>
					<g>
						<g>
							<path class="st3" d="M966.58,488.89c0,0.45-15.48,0.82-34.58,0.82c-19.1,0-34.58-0.37-34.58-0.82
								c0-0.45,15.48-0.82,34.58-0.82C951.1,488.07,966.58,488.44,966.58,488.89z"/>
						</g>
					</g>
				</g>
			</g>
		</g>
		<g>
			<g>
				<g>
					<g>
						<g>
							<path class="st7" d="M1505.83,373.24l-0.42-65.16c-19.19,0.11-38.75,7.7-53.75,20.96c-17.67,15.62-28.99,39.1-25.9,67.48
								c0.34,3.1,0.83,6.25,1.52,9.47c0.02,0.08,0.03,0.15,0.04,0.23l0.01,0l78.51-17.67V373.24z"/>
						</g>
					</g>
					<g class="st8">
						<g>
							<path class="st7" d="M1505.83,373.24l-0.42-65.16c-19.19,0.11-38.75,7.7-53.75,20.96c-17.67,15.62-28.99,39.1-25.9,67.48
								c0.34,3.1,0.83,6.25,1.52,9.47c0.02,0.08,0.03,0.15,0.04,0.23l0.01,0l78.51-17.67V373.24z"/>
						</g>
					</g>
					<g>
						<g>
							<path class="st7" d="M1586.75,353.19c-10.97-22.92-32.59-41.27-63.36-44.36c-0.82-0.08-1.65-0.16-2.49-0.22
								c-0.53-0.04-1.05-0.09-1.58-0.12c-1.55-0.08-3.13-0.13-4.73-0.14c-0.07,0-0.14-0.01-0.22-0.01c0,0-0.01,0-0.01,0
								c-0.07,0-0.13-0.01-0.2-0.01v0.01v0l0.42,65.16l0.1,15.31l78.53,17.13l0.1,0.02v0c1.2-5.5,1.77-11.18,1.74-16.89
								C1595,376.87,1592.16,364.48,1586.75,353.19z"/>
						</g>
					</g>
					<g>
						<g>
							<path class="st5" d="M1586.75,353.19c-10.97-22.92-32.59-41.27-63.36-44.36c-0.82-0.08-1.65-0.16-2.49-0.22
								c-0.53-0.04-1.05-0.09-1.58-0.12c-1.55-0.08-3.13-0.13-4.73-0.14c-0.07,0-0.14-0.01-0.22-0.01c0,0-0.01,0-0.01,0
								c-0.07,0-0.13-0.01-0.2-0.01v0.01v0l0.42,65.16l0.1,15.31l78.53,17.13l0.1,0.02v0c1.2-5.5,1.77-11.18,1.74-16.89
								C1595,376.87,1592.16,364.48,1586.75,353.19z"/>
						</g>
					</g>
				</g>
				<g>
					<g>
						<path class="st6" d="M1510.04,396.69l-78.51,17.67c8.05,35.94,40.13,62.81,78.51,62.81c38.56,0,70.77-27.13,78.63-63.34
							l-78.53-17.13"/>
					</g>
				</g>
			</g>
			<g>
				<g>
					<g>
						<path class="st3" d="M1815.64,384.96c0,0.58-40.59,1.06-90.65,1.06c-50.08,0-90.66-0.47-90.66-1.06
							c0-0.58,40.58-1.06,90.66-1.06C1775.05,383.9,1815.64,384.38,1815.64,384.96z"/>
					</g>
				</g>
			</g>
			<g>
				<g>
					<g>
						<path class="st3" d="M1815.64,364.29c0,0.58-40.59,1.06-90.65,1.06c-50.08,0-90.66-0.47-90.66-1.06
							c0-0.58,40.58-1.06,90.66-1.06C1775.05,363.23,1815.64,363.71,1815.64,364.29z"/>
					</g>
				</g>
			</g>
			<g>
				<g>
					<g>
						<path class="st3" d="M1815.64,343.63c0,0.58-40.59,1.06-90.65,1.06c-50.08,0-90.66-0.47-90.66-1.06
							c0-0.58,40.58-1.06,90.66-1.06C1775.05,342.57,1815.64,343.04,1815.64,343.63z"/>
					</g>
				</g>
			</g>
			<g>
				<g>
					<g>
						<path class="st3" d="M1815.64,404.19c0,0.58-40.59,1.06-90.65,1.06c-50.08,0-90.66-0.47-90.66-1.06
							c0-0.58,40.58-1.06,90.66-1.06C1775.05,403.13,1815.64,403.6,1815.64,404.19z"/>
					</g>
				</g>
			</g>
			<g>
				<g>
					<g>
						<path class="st3" d="M1759.5,425.11c0,0.58-27.88,1.06-62.26,1.06c-34.39,0-62.27-0.47-62.27-1.06
							c0-0.58,27.87-1.06,62.27-1.06C1731.62,424.05,1759.5,424.53,1759.5,425.11z"/>
					</g>
				</g>
			</g>
		</g>
		<g>
			<g>
				<g>
					<g>
						<rect x="1444.19" y="574.71" class="st9" width="18.68" height="208.57"/>
					</g>
				</g>
			</g>
			<g>
				<g>
					<g>
						<rect x="1480.24" y="645.55" class="st9" width="18.68" height="137.73"/>
					</g>
				</g>
			</g>
			<g>
				<g>
					<g>
						<rect x="1516.3" y="600.63" class="st9" width="18.68" height="183.7"/>
					</g>
				</g>
			</g>
			<g>
				<g>
					<g>
						<rect x="1552.35" y="582.76" class="st9" width="18.68" height="200.51"/>
					</g>
				</g>
			</g>
			<g>
				<g>
					<g>
						<rect x="1588.41" y="649.79" class="st9" width="18.68" height="133.49"/>
					</g>
				</g>
			</g>
			<g>
				<g>
					<g>
						<rect x="1624.46" y="675.97" class="st9" width="18.68" height="107.31"/>
					</g>
				</g>
			</g>
			<g>
				<g>
					<g>
						<rect x="1660.51" y="596.12" class="st9" width="18.68" height="187.16"/>
					</g>
				</g>
			</g>
			<g>
				<g>
					<g>
						<rect x="1696.57" y="629.86" class="st9" width="18.68" height="153.42"/>
					</g>
				</g>
			</g>
			<g>
				<g>
					<g>
						<rect x="1732.62" y="602.9" class="st9" width="18.68" height="180.38"/>
					</g>
				</g>
			</g>
			<g>
				<g>
					<g>
						<rect x="1768.68" y="660.39" class="st9" width="18.68" height="122.89"/>
					</g>
				</g>
			</g>
			<g>
				<g>
					<g>
						<rect x="1804.73" y="637" class="st9" width="18.68" height="146.27"/>
					</g>
				</g>
			</g>
			<g>
				<g>
					<g>
						<g>
							<path class="st3" d="M1831.03,797.8c0,0.42-88.58,0.77-197.83,0.77c-109.29,0-197.85-0.34-197.85-0.77
								c0-0.42,88.57-0.77,197.85-0.77C1742.45,797.04,1831.03,797.38,1831.03,797.8z"/>
						</g>
					</g>
				</g>
			</g>
			<g>
				<g>
					<g>
						<g>
							<path class="st3" d="M1470.83,814.22c0,0.42-6.21,0.77-13.86,0.77c-7.66,0-13.86-0.34-13.86-0.77c0-0.42,6.2-0.77,13.86-0.77
								C1464.62,813.45,1470.83,813.79,1470.83,814.22z"/>
						</g>
					</g>
				</g>
			</g>
			<g>
				<g>
					<g>
						<g>
							<path class="st3" d="M1516.8,815.05c0,0.42-7.42,0.77-16.56,0.77c-9.15,0-16.56-0.34-16.56-0.77c0-0.42,7.41-0.77,16.56-0.77
								C1509.38,814.29,1516.8,814.63,1516.8,815.05z"/>
						</g>
					</g>
				</g>
			</g>
			<g>
				<g>
					<g>
						<g>
							<path class="st3" d="M1556.01,815.05c0,0.42-7.42,0.77-16.56,0.77c-9.15,0-16.56-0.34-16.56-0.77
								c0-0.42,7.41-0.77,16.56-0.77C1548.59,814.29,1556.01,814.63,1556.01,815.05z"/>
						</g>
					</g>
				</g>
			</g>
			<g>
				<g>
					<g>
						<g>
							<path class="st3" d="M1595.22,815.05c0,0.42-7.42,0.77-16.56,0.77c-9.15,0-16.56-0.34-16.56-0.77
								c0-0.42,7.41-0.77,16.56-0.77C1587.8,814.29,1595.22,814.63,1595.22,815.05z"/>
						</g>
					</g>
				</g>
			</g>
			<g>
				<g>
					<g>
						<g>
							<path class="st3" d="M1634.43,815.05c0,0.42-7.42,0.77-16.56,0.77c-9.15,0-16.56-0.34-16.56-0.77
								c0-0.42,7.41-0.77,16.56-0.77C1627.01,814.29,1634.43,814.63,1634.43,815.05z"/>
						</g>
					</g>
				</g>
			</g>
			<g>
				<g>
					<g>
						<g>
							<path class="st3" d="M1673.64,815.05c0,0.42-7.42,0.77-16.56,0.77c-9.15,0-16.56-0.34-16.56-0.77
								c0-0.42,7.41-0.77,16.56-0.77C1666.23,814.29,1673.64,814.63,1673.64,815.05z"/>
						</g>
					</g>
				</g>
			</g>
			<g>
				<g>
					<g>
						<g>
							<path class="st3" d="M1712.85,815.05c0,0.42-7.42,0.77-16.56,0.77c-9.15,0-16.56-0.34-16.56-0.77
								c0-0.42,7.41-0.77,16.56-0.77C1705.44,814.29,1712.85,814.63,1712.85,815.05z"/>
						</g>
					</g>
				</g>
			</g>
			<g>
				<g>
					<g>
						<g>
							<path class="st3" d="M1752.06,815.05c0,0.42-7.42,0.77-16.56,0.77c-9.15,0-16.56-0.34-16.56-0.77
								c0-0.42,7.41-0.77,16.56-0.77C1744.65,814.29,1752.06,814.63,1752.06,815.05z"/>
						</g>
					</g>
				</g>
			</g>
			<g>
				<g>
					<g>
						<g>
							<path class="st3" d="M1791.27,815.05c0,0.42-7.42,0.77-16.56,0.77c-9.15,0-16.56-0.34-16.56-0.77
								c0-0.42,7.41-0.77,16.56-0.77C1783.86,814.29,1791.27,814.63,1791.27,815.05z"/>
						</g>
					</g>
				</g>
			</g>
			<g>
				<g>
					<g>
						<g>
							<path class="st3" d="M1830.49,815.05c0,0.42-7.42,0.77-16.56,0.77c-9.15,0-16.56-0.34-16.56-0.77
								c0-0.42,7.41-0.77,16.56-0.77C1823.07,814.29,1830.49,814.63,1830.49,815.05z"/>
						</g>
					</g>
				</g>
			</g>
			<g class="st8">
				<g>
					<g>
						<rect x="1480.24" y="645.55" class="st10" width="18.68" height="137.73"/>
					</g>
				</g>
			</g>
			<g class="st8">
				<g>
					<g>
						<rect x="1552.35" y="582.76" class="st10" width="18.68" height="200.51"/>
					</g>
				</g>
			</g>
			<g class="st8">
				<g>
					<g>
						<rect x="1624.46" y="675.97" class="st10" width="18.68" height="107.31"/>
					</g>
				</g>
			</g>
			<g class="st8">
				<g>
					<g>
						<rect x="1696.57" y="629.86" class="st10" width="18.68" height="153.42"/>
					</g>
				</g>
			</g>
			<g class="st8">
				<g>
					<g>
						<rect x="1768.68" y="660.39" class="st10" width="18.68" height="122.89"/>
					</g>
				</g>
			</g>
		</g>
		<g>
			<g>
				<path class="st11" d="M948.73,335.96c0,9.93-8.05,17.98-17.98,17.98c-9.93,0-17.98-8.05-17.98-17.98
					c0-9.93,8.05-17.98,17.98-17.98C940.68,317.99,948.73,326.04,948.73,335.96z"/>
			</g>
		</g>
		<g>
			<g>
				<g>
					<path class="st11" d="M1257.78,321.79c0,0.58-60.61,1.06-135.36,1.06c-74.78,0-135.37-0.47-135.37-1.06
						c0-0.58,60.6-1.06,135.37-1.06C1197.17,320.73,1257.78,321.2,1257.78,321.79z"/>
				</g>
			</g>
		</g>
		<g>
			<g>
				<g>
					<path class="st11" d="M1095.73,343.52c0,0.15-1.49,0.29-4.19,0.41c-2.7,0.13-6.61,0.24-11.43,0.34
						c-9.66,0.19-22.99,0.31-37.73,0.31c-14.74,0-28.08-0.12-37.73-0.31c-4.83-0.1-8.73-0.21-11.43-0.34
						c-2.7-0.13-4.19-0.27-4.19-0.41c0-0.15,1.49-0.29,4.19-0.41c2.7-0.13,6.61-0.24,11.43-0.34c9.66-0.19,23-0.31,37.73-0.31
						c14.73,0,28.07,0.12,37.73,0.31c4.83,0.1,8.74,0.21,11.43,0.34C1094.24,343.24,1095.73,343.38,1095.73,343.52z"/>
				</g>
			</g>
		</g>
	</g>
	<g>
		<g>
			<g>
				<g>
					<rect x="224.99" y="251.97" class="st12" width="568.73" height="649.08"/>
				</g>
			</g>
		</g>
		<g>
			<g>
				<g>
					<g>
						<path class="st7" d="M745.68,597.94c-0.19,0.39-6.3-3.16-18.29-6.95c-11.9-3.69-30.25-7.25-52.45-3.89
							c-11.01,1.76-22.94,5.1-34.59,11.12c-11.73,5.88-22.91,14.6-34.01,24.46c-11.15,9.84-22.22,21.02-34.99,31.35
							c-12.77,10.17-27.43,19.78-44.67,24.17c-8.56,2.2-17.51,2.78-26.08,1.57c-8.58-1.17-16.69-3.98-24.16-7.46
							c-14.98-7.06-27.79-16.34-40.48-24.07c-12.6-7.89-25.26-14.15-38.07-17.07c-12.73-3.1-25.09-3.72-36.22-2.78
							c-22.38,1.95-39.32,9.88-49.99,16.28c-10.73,6.56-15.79,11.49-16.07,11.14c-0.09-0.1,1.16-1.32,3.63-3.57
							c2.43-2.29,6.31-5.37,11.64-8.85c10.57-6.88,27.65-15.37,50.54-17.73c11.37-1.15,24.07-0.68,37.23,2.38
							c13.23,2.86,26.45,9.27,39.19,17.14c12.86,7.74,25.67,16.89,40.21,23.67c14.39,6.93,31.32,10.02,47.69,5.58
							c16.38-4.16,30.67-13.43,43.24-23.38c12.57-10.1,23.69-21.2,35.01-31.06c11.27-9.88,22.77-18.71,34.93-24.65
							c12.06-6.07,24.35-9.33,35.65-10.96c22.78-3.09,41.4,1,53.31,5.17c6.01,2.08,10.49,4.21,13.43,5.78
							C744.24,596.93,745.74,597.83,745.68,597.94z"/>
					</g>
				</g>
			</g>
			<g>
				<g>
					<g>
						<rect x="382.38" y="685.12" class="st7" width="48.35" height="130.77"/>
					</g>
				</g>
				<g>
					<g>
						<rect x="587.55" y="685.12" class="st7" width="48.35" height="130.77"/>
					</g>
				</g>
				<g>
					<g>
						<rect x="655.94" y="608.33" class="st7" width="48.35" height="207.56"/>
					</g>
				</g>
				<g>
					<g>
						<rect x="319.81" y="774.72" class="st7" width="48.35" height="44.01"/>
					</g>
				</g>
				<g>
					<g>
						<rect x="450.77" y="744.17" class="st7" width="48.35" height="71.72"/>
					</g>
				</g>
				<g>
					<g>
						<rect x="519.16" y="727.71" class="st7" width="48.35" height="88.18"/>
					</g>
				</g>
			</g>
			<g>
				<g>
					<g>
						<g>
							<path class="st3" d="M432.68,831.3c0,1.07-11.7,1.94-26.12,1.94c-14.43,0-26.12-0.87-26.12-1.94
								c0-1.07,11.69-1.94,26.12-1.94C420.98,829.36,432.68,830.23,432.68,831.3z"/>
						</g>
					</g>
				</g>
				<g>
					<g>
						<g>
							<path class="st3" d="M372.51,831.3c0,1.07-11.7,1.94-26.12,1.94c-14.43,0-26.12-0.87-26.12-1.94
								c0-1.07,11.69-1.94,26.12-1.94C360.81,829.36,372.51,830.23,372.51,831.3z"/>
						</g>
					</g>
				</g>
				<g>
					<g>
						<g>
							<path class="st3" d="M713.82,831.3c0,1.07-13.22,1.94-29.53,1.94c-16.31,0-29.53-0.87-29.53-1.94
								c0-1.07,13.22-1.94,29.53-1.94C700.6,829.36,713.82,830.23,713.82,831.3z"/>
						</g>
					</g>
				</g>
				<g>
					<g>
						<g>
							<ellipse class="st3" cx="612.46" cy="831.3" rx="29.53" ry="1.94"/>
						</g>
					</g>
				</g>
				<g>
					<g>
						<g>
							<path class="st3" d="M567.51,831.3c0,1.07-11.7,1.95-26.12,1.95c-14.43,0-26.12-0.87-26.12-1.95
								c0-1.07,11.69-1.94,26.12-1.94C555.81,829.35,567.51,830.23,567.51,831.3z"/>
						</g>
					</g>
				</g>
				<g>
					<g>
						<g>
							<path class="st3" d="M496.85,831.3c0,1.07-11.7,1.95-26.12,1.95c-14.43,0-26.12-0.87-26.12-1.95c0-1.07,11.7-1.94,26.12-1.94
								C485.15,829.35,496.85,830.23,496.85,831.3z"/>
						</g>
					</g>
				</g>
			</g>
		</g>
		<g>
			<g>
				<g>
					<rect x="318.67" y="361.14" class="st0" width="395.15" height="164.1"/>
				</g>
			</g>
			<g>
				<g>
					<g>
						<path class="st3" d="M400.76,413.01c0,10.17-8.25,18.42-18.42,18.42c-10.17,0-18.42-8.25-18.42-18.42
							c0-10.17,8.25-18.42,18.42-18.42C392.52,394.58,400.76,402.83,400.76,413.01z"/>
					</g>
				</g>
				<g>
					<g>
						<rect x="419.18" y="400.28" class="st3" width="128.36" height="7.13"/>
					</g>
				</g>
				<g>
					<g>
						<rect x="419.18" y="416.48" class="st10" width="249.69" height="7.13"/>
					</g>
				</g>
			</g>
			<g>
				<g>
					<g>
						<path class="st11" d="M400.76,469.64c0,10.17-8.25,18.42-18.42,18.42c-10.17,0-18.42-8.25-18.42-18.42
							c0-10.17,8.25-18.42,18.42-18.42C392.52,451.22,400.76,459.47,400.76,469.64z"/>
					</g>
				</g>
				<g>
					<g>
						<rect x="419.18" y="456.92" class="st11" width="65.55" height="7.13"/>
					</g>
				</g>
				<g>
					<g>
						<rect x="419.18" y="473.11" class="st10" width="249.69" height="7.13"/>
					</g>
				</g>
			</g>
		</g>
	</g>
	<g>
		<g>
			<g>
				<g>
					<rect x="1956.69" y="150" class="st12" width="624.54" height="712.77"/>
				</g>
			</g>
		</g>
		<g>
			<g>
				<g>
					<rect x="2006.65" y="206.99" class="st0" width="505.94" height="405.86"/>
				</g>
			</g>
			<g>
				<g>
					<g>
						<g>
							<rect x="2042.01" y="540.69" class="st3" width="16.6" height="4.78"/>
						</g>
					</g>
					<g>
						<g>
							<rect x="2079.57" y="566.27" class="st3" width="21.23" height="4.78"/>
						</g>
					</g>
					<g>
						<g>
							<rect x="2153.49" y="566.27" class="st3" width="21.23" height="4.78"/>
						</g>
					</g>
					<g>
						<g>
							<rect x="2227.42" y="566.27" class="st3" width="21.23" height="4.78"/>
						</g>
					</g>
					<g>
						<g>
							<rect x="2301.34" y="566.27" class="st3" width="21.23" height="4.78"/>
						</g>
					</g>
					<g>
						<g>
							<rect x="2375.26" y="566.27" class="st3" width="21.23" height="4.78"/>
						</g>
					</g>
					<g>
						<g>
							<rect x="2449.18" y="566.27" class="st3" width="21.23" height="4.78"/>
						</g>
					</g>
					<g>
						<g>
							<rect x="2042.01" y="476.79" class="st3" width="16.6" height="4.78"/>
						</g>
					</g>
					<g>
						<g>
							<rect x="2042.01" y="356.51" class="st3" width="16.6" height="4.78"/>
						</g>
					</g>
					<g>
						<g>
							<rect x="2042.01" y="296.06" class="st3" width="16.6" height="4.78"/>
						</g>
					</g>
					<g>
						<g>
							<rect x="2042.85" y="416.65" class="st3" width="16.6" height="4.78"/>
						</g>
					</g>
					<g>
						<g>
							<g>
								<path class="st3" d="M2469.82,545.48c0,0.04-0.6,0.07-1.78,0.11c-1.27,0.03-3.01,0.06-5.22,0.11
									c-4.7,0.05-11.45,0.11-20.09,0.2c-17.55,0.08-42.77,0.19-73.89,0.34c-62.48,0.08-148.63,0.19-243.78,0.31
									c-19.79,0-39.19-0.01-57.77-0.02h-1.05l0-1.04c0.14-81.49,0.27-153.21,0.36-204.68c0.13-25.61,0.24-46.17,0.31-60.44
									c0.08-7,0.14-12.46,0.18-16.27c0.04-1.78,0.07-3.17,0.09-4.21c0.03-0.95,0.06-1.43,0.1-1.43c0.03,0,0.06,0.48,0.1,1.43
									c0.02,1.04,0.05,2.43,0.09,4.21c0.04,3.81,0.1,9.27,0.18,16.27c0.07,14.27,0.18,34.84,0.31,60.44
									c0.09,51.47,0.22,123.19,0.36,204.68l-1.04-1.04c18.58,0,37.98-0.01,57.77-0.02c95.15,0.12,181.3,0.23,243.78,0.31
									c31.12,0.14,56.34,0.26,73.89,0.34c8.64,0.09,15.39,0.15,20.09,0.2c2.22,0.04,3.95,0.08,5.22,0.11
									C2469.22,545.4,2469.82,545.44,2469.82,545.48z"/>
							</g>
						</g>
					</g>
					<g>
						<g>
							<g>
								<path class="st3" d="M2474.5,419.04c0,0.58-87.57,1.06-195.57,1.06c-108.04,0-195.59-0.47-195.59-1.06
									c0-0.58,87.55-1.06,195.59-1.06C2386.93,417.98,2474.5,418.45,2474.5,419.04z"/>
							</g>
						</g>
					</g>
					<g>
						<g>
							<g>
								<path class="st3" d="M2474.5,358.9c0,0.58-87.57,1.06-195.57,1.06c-108.04,0-195.59-0.47-195.59-1.06
									s87.55-1.06,195.59-1.06C2386.93,357.84,2474.5,358.31,2474.5,358.9z"/>
							</g>
						</g>
					</g>
					<g>
						<g>
							<g>
								<path class="st3" d="M2474.5,298.45c0,0.58-87.57,1.06-195.57,1.06c-108.04,0-195.59-0.47-195.59-1.06
									c0-0.58,87.55-1.06,195.59-1.06C2386.93,297.4,2474.5,297.87,2474.5,298.45z"/>
							</g>
						</g>
					</g>
					<g>
						<g>
							<g>
								<path class="st3" d="M2474.5,479.18c0,0.58-87.57,1.06-195.57,1.06c-108.04,0-195.59-0.47-195.59-1.06
									s87.55-1.06,195.59-1.06C2386.93,478.12,2474.5,478.59,2474.5,479.18z"/>
							</g>
						</g>
					</g>
					<g>
						<g>
							<path class="st5" d="M2087.37,532.54c0-10.07,0-53.36,0-53.36l33.26-51.63l22.57,17.32l46.32-71.95l27.32,19.24l38.01-66.38
								l30.88,25.16l46.32-88.05l49.89,98.42l40.38-49.24l47.51-13.59v234.08H2087.37z"/>
						</g>
					</g>
				</g>
				<g>
					<g>
						<g>
							<path class="st11" d="M2474.5,279.51c0,0.03-0.28,0.05-0.84,0.08c-0.65,0.02-1.46,0.05-2.48,0.08
								c-2.3,0.04-5.52,0.09-9.64,0.15c-8.56,0.06-20.88,0.16-36.46,0.28l0.47-0.23c-10.62,13.91-23.83,31.21-39.01,51.1l-0.25,0.33
								l-0.42,0c-28.4,0.05-61.66,0.11-97.81,0.18l0.87-0.49c-12.87,21.43-26.76,44.56-41.11,68.47
								c-14.01,23.28-27.57,45.82-40.38,67.1l-0.79,1.32l-0.9-1.24c-19.31-26.57-37.16-51.15-52.95-72.88l1.42-0.04
								c-20.13,31.29-36.75,57.13-48.41,75.25c-5.79,8.9-10.35,15.9-13.53,20.78c-1.53,2.3-2.73,4.1-3.6,5.42
								c-0.83,1.22-1.31,1.81-1.31,1.81s0.33-0.68,1.09-1.95c0.83-1.35,1.95-3.2,3.39-5.55c3.09-4.95,7.51-12.03,13.13-21.04
								c11.51-18.22,27.92-44.19,47.79-75.65l0.68-1.07l0.75,1.02c15.86,21.67,33.8,46.19,53.2,72.69l-1.7,0.08
								c12.79-21.3,26.33-43.84,40.32-67.14c14.38-23.89,28.29-47,41.18-68.42l0.3-0.49l0.58,0c36.15,0.07,69.41,0.13,97.81,0.18
								l-0.66,0.33c15.34-19.77,28.68-36.97,39.41-50.8l0.18-0.23l0.29,0c15.57,0.12,27.89,0.21,36.46,0.28
								c4.12,0.07,7.34,0.12,9.64,0.15c1.02,0.03,1.83,0.06,2.48,0.08C2474.21,279.46,2474.5,279.48,2474.5,279.51z"/>
						</g>
					</g>
				</g>
				<g>
					<g>
						<path class="st11" d="M2169.53,410.34c0,2-1.68,3.61-3.75,3.61c-2.07,0-3.75-1.62-3.75-3.61c0-2,1.68-3.61,3.75-3.61
							C2167.85,406.73,2169.53,408.34,2169.53,410.34z"/>
					</g>
				</g>
				<g>
					<g>
						<path class="st11" d="M2282.35,346.22c0,2-1.68,3.61-3.75,3.61c-2.07,0-3.75-1.62-3.75-3.61c0-2,1.68-3.61,3.75-3.61
							C2280.67,342.6,2282.35,344.22,2282.35,346.22z"/>
					</g>
				</g>
				<g>
					<g>
						<path class="st11" d="M2370.05,330.46c0,2-1.68,3.61-3.75,3.61c-2.07,0-3.75-1.62-3.75-3.61c0-2,1.68-3.61,3.75-3.61
							C2368.37,326.85,2370.05,328.46,2370.05,330.46z"/>
					</g>
				</g>
			</g>
		</g>
		<g>
			<g>
				<g>
					<path class="st3" d="M2489.79,673.19c0,0.58-106.76,1.06-238.42,1.06c-131.71,0-238.45-0.47-238.45-1.06
						c0-0.58,106.74-1.06,238.45-1.06C2383.03,672.13,2489.79,672.61,2489.79,673.19z"/>
				</g>
			</g>
		</g>
		<g>
			<g>
				<g>
					<path class="st3" d="M2489.79,698.97c0,0.58-106.76,1.06-238.42,1.06c-131.71,0-238.45-0.47-238.45-1.06
						s106.74-1.06,238.45-1.06C2383.03,697.91,2489.79,698.39,2489.79,698.97z"/>
				</g>
			</g>
		</g>
		<g>
			<g>
				<g>
					<path class="st3" d="M2489.79,724.75c0,0.58-106.76,1.06-238.42,1.06c-131.71,0-238.45-0.47-238.45-1.06
						s106.74-1.06,238.45-1.06C2383.03,723.69,2489.79,724.17,2489.79,724.75z"/>
				</g>
			</g>
		</g>
		<g>
			<g>
				<g>
					<path class="st3" d="M2489.79,750.53c0,0.58-106.76,1.06-238.42,1.06c-131.71,0-238.45-0.47-238.45-1.06
						s106.74-1.06,238.45-1.06C2383.03,749.47,2489.79,749.95,2489.79,750.53z"/>
				</g>
			</g>
		</g>
	</g>
	<g>
		<g>
			<g>
				<g>
					<g>
						<g>
							<g>
								<g>
									<g>
										<rect x="1293.96" y="1202.65" class="st3" width="242.21" height="11.78"/>
									</g>
								</g>
							</g>
						</g>
						<g>
							<g>
								<g>
									<g>
										<polygon class="st3" points="1256.42,1214.44 1210.99,1044.18 1400.11,1044.18 1441.25,1214.44 										"/>
									</g>
								</g>
							</g>
						</g>
					</g>
					<g>
						<g>
							<g>
								<g>
									<polygon class="st13" points="1429.92,1201.55 1260.96,1201.55 1221.64,1052.05 1391.46,1052.05 									"/>
								</g>
							</g>
						</g>
					</g>
				</g>
				<g>
					<g>
						<g>
							<path class="st2" d="M1224.46,1062.8c57.21,0,112.64,0,169.85,0l-2.86-10.75h-169.82L1224.46,1062.8z"/>
						</g>
					</g>
				</g>
				<g>
					<g>
						<g>
							<g>
								<path class="st1" d="M1242.81,1057.42c0,1.02,0.83,1.86,1.86,1.86c1.02,0,1.86-0.83,1.86-1.86c0-1.02-0.83-1.86-1.86-1.86
									C1243.64,1055.57,1242.81,1056.4,1242.81,1057.42z"/>
							</g>
						</g>
					</g>
					<g>
						<g>
							<g>
								<path class="st1" d="M1236.42,1057.42c0,1.02,0.83,1.86,1.86,1.86c1.02,0,1.86-0.83,1.86-1.86c0-1.02-0.83-1.86-1.86-1.86
									C1237.25,1055.57,1236.42,1056.4,1236.42,1057.42z"/>
							</g>
						</g>
					</g>
					<g>
						<g>
							<g>
								<path class="st1" d="M1230.03,1057.42c0,1.02,0.83,1.86,1.86,1.86c1.02,0,1.86-0.83,1.86-1.86c0-1.02-0.83-1.86-1.86-1.86
									C1230.86,1055.57,1230.03,1056.4,1230.03,1057.42z"/>
							</g>
						</g>
					</g>
				</g>
			</g>
			<g>
				<g>
					<g>
						<path class="st6" d="M1352.11,1128.3l18.6,21.28c7.24-5.17,11.45-13.07,11.42-21.4c-0.06-14.88-13.66-27.07-30.13-27.01
							c-16.47,0.07-29.97,12.36-29.91,27.24L1352.11,1128.3z"/>
					</g>
				</g>
				<g>
					<g>
						<g>
							<path class="st3" d="M1349.75,1131.71c0.08-0.17,1.98,1.76,5.31,5.32c3.32,3.56,8.07,8.76,13.75,15.12l0.64,0.72l-0.8,0.6
								c-7.53,5.66-20.09,8.05-31.36,3.08c-5.36-2.26-9.81-6.05-12.9-10.37c-3.06-4.38-4.61-9.37-4.78-13.97l-0.04-0.95l0.93,0
								c8.9-0.05,16.27-0.01,21.38,0.07C1346.98,1131.41,1349.83,1131.53,1349.75,1131.71c-0.08,0.18-3.07,0.39-8.19,0.63
								c-5.12,0.24-12.37,0.5-21.03,0.73l0.89-0.95c0.26,4.26,1.75,8.83,4.63,12.87c2.92,3.99,7.06,7.5,12.08,9.61
								c10.53,4.65,22.3,2.54,29.48-2.6l-0.16,1.32c-5.39-6.31-9.83-11.62-12.93-15.41
								C1351.42,1134.14,1349.67,1131.88,1349.75,1131.71z"/>
						</g>
					</g>
				</g>
				<g>
					<g>
						<path class="st3" d="M1337.6,1112.24c0,0.93,0.76,1.68,1.69,1.68c0.93,0,1.68-0.76,1.68-1.69c0-0.93-0.76-1.68-1.69-1.68
							C1338.34,1110.56,1337.59,1111.32,1337.6,1112.24z"/>
					</g>
				</g>
				<g>
					<g>
						<g>
							<path class="st3" d="M1304.14,1100.06c0-0.58,8.99-1.09,20.09-1.14c0.92,0,1.81,0,2.68,0h0.44l0.3,0.3
								c6.94,6.99,12,12.63,11.63,13.01c-0.38,0.38-6.06-4.64-13.1-11.52l0.74,0.3c-0.87,0.01-1.76,0.01-2.68,0.02
								C1313.14,1101.08,1304.14,1100.65,1304.14,1100.06z"/>
						</g>
					</g>
				</g>
				<g>
					<g>
						<g>
							<path class="st3" d="M1266.1,1121.36c-0.11,0.14-0.78-2.68-1.92-7.85c-1.14-5.16-2.75-12.71-4.6-21.94l-0.2-1.01l1.05-0.01
								c11.96-0.1,26.42-0.23,42.03-0.36c-0.22-0.19,1.98,1.63,1.05,0.87l0,0.01l0,0.02l0.01,0.03l0.01,0.06l0.02,0.13l0.05,0.25
								l0.1,0.5l0.19,1l0.38,1.99c0.25,1.32,0.5,2.64,0.74,3.94c0.49,2.61,0.97,5.17,1.44,7.68c0.92,5.01,1.81,9.81,2.65,14.35
								l0.21,1.14l-1.15,0c-12.63-0.03-23.25-0.19-30.63-0.33c-3.38-0.09-6.21-0.16-8.53-0.23
								C1267.04,1121.51,1266.04,1121.44,1266.1,1121.36c0.07-0.08,1.21-0.17,3.25-0.26c2.37-0.08,5.26-0.18,8.72-0.29
								c7.42-0.21,17.82-0.44,30.07-0.57l-0.94,1.14c-0.88-4.53-1.82-9.32-2.79-14.32c-0.48-2.51-0.97-5.07-1.47-7.67
								c-0.25-1.3-0.5-2.62-0.75-3.94l-0.38-1.99l-0.19-1l-0.1-0.5l-0.05-0.25l-0.02-0.13l-0.01-0.06l-0.01-0.03l0-0.02l0-0.01
								c-0.93-0.77,1.27,1.04,1.04,0.86c-15.62-0.01-30.08-0.02-42.04-0.03l0.84-1.02c1.6,8.93,2.82,16.36,3.66,21.63
								C1265.77,1118.14,1266.22,1121.22,1266.1,1121.36z"/>
						</g>
					</g>
				</g>
				<g>
					<g>
						<g>
							<path class="st3" d="M1335.1,1146.09c0,0.93,0.76,1.68,1.69,1.68c0.93,0,1.68-0.76,1.68-1.69c0-0.93-0.76-1.68-1.69-1.68
								C1335.84,1144.41,1335.09,1145.16,1335.1,1146.09z"/>
						</g>
					</g>
					<g>
						<g>
							<g>
								<path class="st3" d="M1306.24,1146.21c0-0.58,6.83-1.09,15.26-1.12c8.43-0.03,15.27,0.41,15.27,1
									c0,0.58-6.83,1.09-15.27,1.12C1313.08,1147.24,1306.24,1146.79,1306.24,1146.21z"/>
							</g>
						</g>
					</g>
				</g>
				<g>
					<g>
						<g>
							<path class="st3" d="M1266.25,1159.47c-0.1,0.13-0.73-1.87-1.85-5.62c-1.11-3.75-2.7-9.28-4.57-16.18l-0.26-0.98l1.03-0.02
								c11.44-0.21,26.67-0.37,43.35-0.43c-0.92-0.71,1.26,0.97,1.03,0.8l0,0.01l0,0.01l0.01,0.02l0.01,0.05l0.02,0.09l0.05,0.18
								l0.09,0.36l0.19,0.72l0.37,1.44l0.73,2.86c0.48,1.9,0.96,3.77,1.43,5.61c0.93,3.68,1.82,7.24,2.68,10.65l0.31,1.24l-1.27,0
								c-12.86-0.02-23.82-0.17-31.46-0.33c-3.49-0.09-6.44-0.17-8.87-0.24C1267.24,1159.65,1266.18,1159.56,1266.25,1159.47
								c0.07-0.09,1.26-0.18,3.4-0.28c2.48-0.09,5.49-0.19,9.05-0.31c7.69-0.22,18.41-0.45,30.89-0.57l-0.96,1.24
								c-0.89-3.4-1.82-6.95-2.78-10.62c-0.48-1.84-0.96-3.71-1.45-5.6l-0.74-2.86l-0.37-1.44l-0.19-0.73l-0.09-0.36l-0.05-0.18
								l-0.02-0.09l-0.01-0.05l-0.01-0.02l0-0.01l0-0.01c-0.22-0.18,1.95,1.5,1.03,0.79c-16.67,0.07-31.9,0.03-43.35-0.09l0.77-0.99
								c1.61,6.65,2.84,12.12,3.68,15.98C1265.9,1157.12,1266.35,1159.35,1266.25,1159.47z"/>
						</g>
					</g>
				</g>
				<g>
					<g>
						<g>
							<path class="st3" d="M1269.44,1100.58c0-0.58,6.43-1.08,14.38-1.12c7.94-0.03,14.38,0.42,14.39,1
								c0,0.58-6.43,1.08-14.38,1.11C1275.88,1101.62,1269.44,1101.17,1269.44,1100.58z"/>
						</g>
					</g>
				</g>
				<g>
					<g>
						<g>
							<path class="st3" d="M1269.79,1105.29c0-0.58,6.47-1.08,14.46-1.12c7.99-0.03,14.47,0.42,14.47,1
								c0,0.58-6.47,1.08-14.46,1.12C1276.27,1106.33,1269.79,1105.88,1269.79,1105.29z"/>
						</g>
					</g>
				</g>
				<g>
					<g>
						<g>
							<path class="st3" d="M1270.65,1109.83c0-0.58,6.25-1.08,13.95-1.11c7.71-0.03,13.96,0.42,13.96,1
								c0,0.58-6.24,1.08-13.96,1.11C1276.9,1110.86,1270.65,1110.41,1270.65,1109.83z"/>
						</g>
					</g>
				</g>
				<g>
					<g>
						<g>
							<path class="st3" d="M1270.29,1145.83c0-0.58,6.13-1.08,13.7-1.11c7.57-0.03,13.71,0.42,13.71,1c0,0.58-6.13,1.08-13.7,1.11
								C1276.43,1146.86,1270.29,1146.41,1270.29,1145.83z"/>
						</g>
					</g>
				</g>
				<g>
					<g>
						<g>
							<path class="st3" d="M1271.99,1151.03c0-0.58,5.23-1.08,11.68-1.1c6.46-0.03,11.69,0.43,11.69,1.01
								c0,0.58-5.23,1.08-11.69,1.1C1277.23,1152.07,1271.99,1151.62,1271.99,1151.03z"/>
						</g>
					</g>
				</g>
			</g>
		</g>
		<g>
			<g>
				<polygon class="st3" points="1007.12,1213.88 1007.12,1236.21 1021.74,1236.21 1021.74,1688.27 1051.74,1688.27 
					1051.74,1236.21 1210.97,1236.21 1210.97,1688.27 1240.97,1688.27 1240.97,1236.21 1931.72,1236.21 1931.72,1688.16 
					1961.73,1688.16 1961.73,1236.21 1974.71,1236.21 1974.71,1213.88 				"/>
			</g>
		</g>
		<g>
			<g>
				<g>
					<g>
						<path class="st3" d="M1657.65,1382.32c0,0.45,8.74,0.82,19.51,0.82c10.78,0,19.51-0.37,19.51-0.82
							c0-0.45-8.73-0.82-19.51-0.82C1666.39,1381.5,1657.65,1381.87,1657.65,1382.32z"/>
					</g>
				</g>
			</g>
		</g>
		<g>
			<g>
				<g>
					<ellipse class="st5" cx="1373.49" cy="1386.41" rx="1.06" ry="0.52"/>
				</g>
			</g>
		</g>
		<g>
			<g>
				<g>
					<g>
						<path class="st14" d="M1564.66,984.56L1452.6,870.71l-2.42-12.32c-0.47-2.26-0.93-4.77-1.37-7.63
							c-0.51-3.34-0.43-6.73,0.18-10.03c0.74-4,1.93-9.26,3.45-11.93c1.89-3.3-1.13-7.27-4.26-5.91
							c-3.12,1.36-8.54,10.32-9.71,22.61c-1.17,12.3-11.66-4.02-15.59-9.9c-3.93-5.88-16.9-23.48-19.61-23.69
							c-3.97-0.31-4.98,3.99-0.93,9.77c4.1,5.85,15.03,23.97,11.92,25.91c0,0-0.04-0.01-0.12-0.02c-6.32-1.07-12.55,2.05-15.48,7.68
							c-2.83,5.43-5.98,13.14-3.4,16.69c4.87,6.69,17.87,18.93,17.87,18.93l3.75,3.23c0.01,0.01,96.95,140.48,118.08,145.04
							c13.14,2.84,216.31,19.69,216.31,19.69l15.32-55.97L1564.66,984.56z"/>
					</g>
				</g>
				<g>
					<g>
						<g>
							<path class="st14" d="M1394.41,869.57c3.46,3.32,6.91,6.64,10.37,9.96c1.17,1.13,2.39,2.28,3.9,2.86
								c1.52,0.58,3.43,0.46,4.53-0.73c1-1.08,1.09-2.77,0.61-4.16s-1.44-2.56-2.39-3.69c-3.36-4.04-6.72-8.07-10.07-12.11"/>
						</g>
					</g>
					<g>
						<g>
							<g>
								<path class="st14" d="M1401.36,861.7c0.22-0.19,2.17,1.74,5.14,5c1.66,1.88,3.36,3.81,5.12,5.8
									c0.92,1.1,2.05,2.23,2.86,3.87c0.79,1.6,1.12,3.89-0.28,5.76c-1.53,1.85-3.95,1.91-5.67,1.3c-1.78-0.65-3.01-1.84-4.06-2.86
									c-1.87-1.9-3.67-3.74-5.43-5.53c-3.04-3.19-4.83-5.27-4.62-5.48c0.2-0.21,2.35,1.49,5.66,4.4c1.86,1.68,3.76,3.41,5.74,5.19
									c1.05,0.96,2.15,1.9,3.39,2.31c1.19,0.41,2.69,0.22,3.34-0.65c0.69-0.87,0.66-2.38,0.07-3.56
									c-0.57-1.24-1.58-2.36-2.48-3.51c-1.64-2.1-3.23-4.12-4.77-6.09C1402.67,864.15,1401.13,861.89,1401.36,861.7z"/>
							</g>
						</g>
					</g>
				</g>
				<g>
					<g>
						<g>
							<path class="st14" d="M1401.77,862.32c3.46,3.32,6.91,6.64,10.37,9.96c1.17,1.13,2.39,2.28,3.9,2.86s3.43,0.46,4.53-0.73
								c1-1.08,1.09-2.77,0.61-4.16s-1.44-2.56-2.39-3.69c-3.36-4.04-6.72-8.07-10.07-12.11"/>
						</g>
					</g>
					<g>
						<g>
							<g>
								<path class="st14" d="M1408.72,854.45c0.22-0.19,2.17,1.74,5.14,5c1.66,1.88,3.36,3.81,5.12,5.8
									c0.92,1.1,2.05,2.23,2.86,3.87c0.79,1.6,1.12,3.89-0.28,5.76c-1.53,1.85-3.95,1.91-5.67,1.3c-1.78-0.65-3.01-1.84-4.06-2.86
									c-1.87-1.9-3.67-3.74-5.43-5.53c-3.04-3.19-4.83-5.27-4.62-5.48c0.2-0.21,2.35,1.49,5.66,4.4c1.86,1.68,3.76,3.41,5.74,5.19
									c1.05,0.96,2.15,1.9,3.39,2.31c1.19,0.41,2.69,0.22,3.34-0.65c0.69-0.87,0.66-2.38,0.07-3.56
									c-0.57-1.24-1.58-2.36-2.48-3.51c-1.64-2.1-3.23-4.12-4.77-6.09C1410.03,856.91,1408.49,854.64,1408.72,854.45z"/>
							</g>
						</g>
					</g>
				</g>
				<g>
					<g>
						<g>
							<path class="st14" d="M1409.84,856.39c3.46,3.32,6.91,6.64,10.37,9.96c1.17,1.13,2.39,2.28,3.9,2.86
								c1.52,0.58,3.43,0.46,4.53-0.73c1-1.08,1.09-2.77,0.61-4.16c-0.48-1.39-1.44-2.56-2.39-3.69
								c-3.36-4.04-6.72-8.07-10.07-12.11"/>
						</g>
					</g>
					<g>
						<g>
							<g>
								<path class="st14" d="M1416.79,848.52c0.22-0.19,2.17,1.74,5.14,5c1.66,1.88,3.36,3.81,5.12,5.8
									c0.92,1.1,2.05,2.23,2.86,3.87c0.79,1.6,1.12,3.89-0.28,5.76c-1.53,1.85-3.95,1.91-5.67,1.3c-1.78-0.65-3.01-1.84-4.06-2.86
									c-1.87-1.9-3.67-3.74-5.43-5.53c-3.04-3.19-4.83-5.27-4.62-5.48c0.2-0.21,2.35,1.49,5.66,4.4c1.86,1.68,3.76,3.41,5.74,5.19
									c1.05,0.96,2.15,1.9,3.39,2.31c1.19,0.41,2.69,0.22,3.34-0.65c0.69-0.87,0.66-2.38,0.07-3.56
									c-0.57-1.24-1.58-2.36-2.48-3.51c-1.64-2.1-3.23-4.12-4.77-6.09C1418.1,850.97,1416.56,848.7,1416.79,848.52z"/>
							</g>
						</g>
					</g>
				</g>
				<g>
					<g>
						<g>
							<path class="st15" d="M1426.22,873.61c-0.03-0.33,2.57-0.86,6.32,0.3l-1.19,1.02c-0.49-2-0.72-4.51-0.27-7.12
								c0.59-3.74,2.31-6.81,3.88-8.66c1.6-1.86,2.95-2.6,3.12-2.4c0.45,0.4-3.87,4.56-4.91,11.4c-0.41,2.34-0.31,4.58-0.06,6.43
								l0.22,1.62l-1.41-0.6C1428.67,874.21,1426.21,874.03,1426.22,873.61z"/>
						</g>
					</g>
				</g>
			</g>
			<g>
				<g>
					<g>
						<g>
							<path class="st14" d="M1711.45,813.88l0.48,155.95l-60.81,2.9l-2.46-37.38c0,0-29.33,4.46-35.47-17.61
								c-3.92-14.1-2.94-123.05-2.94-123.05L1711.45,813.88z"/>
						</g>
					</g>
					<g>
						<g>
							<path class="st16" d="M1595.15,810.07c4.51,9.32,25.97,26.37,25.97,26.37l9.69,25.98c8.42-6.59,19.73-6.21,21.87,8.58
								c1.55,10.69-11.75,12.85-11.75,12.85c7.74,13.17,12.99,23.82,24.26,36.35c12.2,13.56,19.03,14.93,32.26,15.15h14.58
								c0,0,29.85-24.94,23.95-90.63c-5.9-65.69-64.95-46.52-79.05-62.93C1633.97,755.06,1580.1,778.96,1595.15,810.07z"/>
						</g>
					</g>
				</g>
				<g>
					<g>
						<g>
							<path class="st16" d="M1732.65,899.65c0,0-2.6,0.52-7.22-0.33c-4.58-0.82-11.1-3.43-17.42-8.97
								c-6.39-5.48-12.01-13.86-17.61-23.29c-5.68-9.28-11.89-20.11-22.35-27.33c-10.58-7.07-23.01-8.52-33.69-10.7
								c-10.78-2.02-20.55-5.1-27.2-10.35c-6.66-5.18-9.93-11.6-10.9-16.15c-1-4.62-0.3-7.21-0.3-7.21
								c0.15-0.01-0.47,2.61,0.62,7.13c1.05,4.45,4.35,10.71,10.94,15.75c6.58,5.09,16.23,8.08,26.99,10.06
								c10.65,2.15,23.19,3.54,34.01,10.77c10.67,7.38,16.89,18.33,22.54,27.63c5.57,9.45,11.08,17.77,17.34,23.24
								c6.19,5.53,12.58,8.18,17.09,9.09c2.26,0.51,4.07,0.56,5.29,0.63C1732.01,899.61,1732.65,899.65,1732.65,899.65z"/>
						</g>
					</g>
				</g>
				<g>
					<g>
						<g>
							<path class="st16" d="M1736.1,846.22c0,0-1.09-0.32-3.14-0.95c-2.06-0.61-5.1-1.61-9.15-2.04
								c-3.97-0.41-9.31-0.17-14.08,3.15c-2.32,1.64-4.37,4.19-4.9,7.4c-0.55,3.12,0.19,6.9,2.84,9.31c1.3,1.19,3.08,1.86,4.92,1.95
								c1.85,0.08,3.72-0.53,5.41-1.48c3.37-1.97,6.1-5.34,7.35-9.39c2.74-7.97,0.81-18.35-6.5-24.68
								c-3.54-3.17-8.17-5.35-13.12-5.85c-4.98-0.53-10.08,0.57-15.11,1.99c-5.04,1.42-10.2,3.08-15.64,3.76
								c-5.42,0.73-11.02,0.76-16.59,0.04c-5.56-0.77-11.01-2.07-16-4.43c-4.91-2.32-9.47-6.21-10.95-11.54
								c-1.45-5.2-0.08-11.08,3.72-14.73c3.83-3.73,9.81-4.19,14.29-2.11c2.26,1.03,4.22,2.78,5.29,4.98
								c1.14,2.17,1.41,4.67,1.12,6.99c-0.63,4.68-3.41,8.79-7.12,11.14c-3.71,2.39-8,3.27-12.01,3.34
								c-4.04,0.09-7.89-0.66-11.39-1.76c-7.05-2.21-12.65-6.19-16.74-10.32c-4.15-4.13-6.81-8.49-8.55-12.2
								c-1.79-3.71-2.49-6.85-3.03-8.93c-0.36-2.13-0.51-3.25-0.51-3.25s0.26,1.1,0.68,3.21c0.59,2.06,1.34,5.17,3.16,8.82
								c1.77,3.66,4.45,7.95,8.59,12c4.07,4.06,9.63,7.95,16.59,10.08c3.46,1.06,7.24,1.78,11.2,1.67
								c3.93-0.09,8.09-0.97,11.65-3.28c3.53-2.26,6.18-6.21,6.76-10.65c0.7-4.42-1.59-9.32-6.01-11.18
								c-4.22-1.96-9.86-1.49-13.4,1.98c-3.55,3.41-4.86,9.01-3.48,13.92c1.38,5.01,5.72,8.74,10.51,11.01
								c4.86,2.3,10.26,3.6,15.74,4.35c5.5,0.71,11.02,0.68,16.37-0.04c5.37-0.67,10.46-2.3,15.53-3.72
								c5.06-1.41,10.27-2.54,15.42-1.99c5.14,0.53,9.91,2.79,13.55,6.07c7.55,6.56,9.5,17.29,6.65,25.48
								c-1.31,4.18-4.16,7.69-7.69,9.73c-1.78,0.99-3.77,1.63-5.76,1.54c-1.97-0.1-3.9-0.84-5.29-2.13
								c-2.83-2.62-3.55-6.58-2.97-9.84c0.58-3.37,2.75-6.03,5.15-7.69c4.94-3.38,10.39-3.55,14.39-3.09
								c4.09,0.49,7.13,1.54,9.17,2.2C1735.05,845.8,1736.1,846.22,1736.1,846.22z"/>
						</g>
					</g>
				</g>
			</g>
			<g>
				<g>
					<g>
						<g>
							<g>
								<g>
									<g>
										<g>
											<g>
												<path class="st17" d="M1658.81,1650.2l-19.88-25.5l47.53-37.54l29.47,37l-2.8,2.52
													c-12.54,11.09-64.54,55.48-75.41,59.75C1625.61,1691.18,1658.81,1650.2,1658.81,1650.2z"/>
											</g>
										</g>
									</g>
								</g>
							</g>
						</g>
						<g class="st18">
							<g>
								<g>
									<g>
										<g>
											<path class="st17" d="M1643.14,1670.92c0,0-10.93,15.26-7.32,16.2c3.61,0.94,57.85-41.95,80.12-62.96l-0.92-1
												l-62.84,50.57C1652.18,1673.72,1646,1668.86,1643.14,1670.92z"/>
										</g>
									</g>
								</g>
							</g>
						</g>
						<g>
							<g>
								<g>
									<g>
										<g>
											<g>
												<path class="st17" d="M1715.74,1622.54c0.02,0.02-0.24,0.27-0.75,0.73c-0.67,0.6-1.41,1.26-2.23,2
													c-2.27,1.96-5.05,4.36-8.34,7.2c-7.09,6.03-16.98,14.23-28.11,23.04c-11.13,8.81-21.38,16.57-28.88,22.09
													c-3.52,2.55-6.5,4.71-8.92,6.47c-0.91,0.64-1.72,1.2-2.46,1.72c-0.57,0.39-0.87,0.58-0.88,0.56
													c-0.02-0.02,0.26-0.25,0.8-0.68c0.71-0.55,1.49-1.15,2.37-1.83c2.38-1.81,5.32-4.03,8.78-6.65
													c7.41-5.62,17.6-13.44,28.73-22.25c11.12-8.81,21.07-16.94,28.23-22.87c3.35-2.77,6.18-5.11,8.49-7.02
													c0.86-0.7,1.63-1.32,2.32-1.89C1715.44,1622.73,1715.73,1622.52,1715.74,1622.54z"/>
											</g>
										</g>
									</g>
								</g>
							</g>
						</g>
						<g>
							<g>
								<g>
									<g>
										<g>
											<g>
												<path class="st17" d="M1652.78,1674.45c-0.16,0.16-1.92-1.79-4.87-2.85c-2.93-1.1-5.54-0.75-5.56-0.98
													c-0.08-0.17,2.67-0.88,5.81,0.29C1651.32,1672.05,1652.95,1674.37,1652.78,1674.45z"/>
											</g>
										</g>
									</g>
								</g>
							</g>
						</g>
						<g>
							<g>
								<g>
									<g>
										<g>
											<g>
												<path class="st17" d="M1661.17,1656.26c-0.07,0.19-1.38-0.09-2.94-0.64c-1.56-0.54-2.76-1.14-2.7-1.33
													c0.07-0.19,1.38,0.09,2.94,0.64C1660.03,1655.47,1661.24,1656.06,1661.17,1656.26z"/>
											</g>
										</g>
									</g>
								</g>
							</g>
						</g>
						<g>
							<g>
								<g>
									<g>
										<g>
											<g>
												<path class="st17" d="M1663.41,1651.18c-0.01,0.2-1.16,0.3-2.56,0.21c-1.4-0.09-2.52-0.32-2.51-0.53
													c0.01-0.2,1.16-0.3,2.56-0.21C1662.3,1650.74,1663.42,1650.98,1663.41,1651.18z"/>
											</g>
										</g>
									</g>
								</g>
							</g>
						</g>
						<g>
							<g>
								<g>
									<g>
										<g>
											<g>
												<path class="st17" d="M1662.3,1644.77c0.13,0.16-0.87,1.18-2.23,2.28c-1.36,1.1-2.56,1.86-2.69,1.7
													c-0.13-0.16,0.87-1.18,2.23-2.28C1660.96,1645.38,1662.17,1644.62,1662.3,1644.77z"/>
											</g>
										</g>
									</g>
								</g>
							</g>
						</g>
						<g>
							<g>
								<g>
									<g>
										<g>
											<g>
												<path class="st17" d="M1660.63,1640.95c0.17,0.1-0.61,1.6-2.13,2.99c-1.51,1.4-3.07,2.05-3.16,1.88
													c-0.1-0.18,1.23-1.09,2.66-2.42C1659.45,1642.08,1660.45,1640.83,1660.63,1640.95z"/>
											</g>
										</g>
									</g>
								</g>
							</g>
						</g>
						<g>
							<g>
								<g>
									<g>
										<g>
											<g>
												<path class="st17" d="M1656.28,1653.39c0.05,0.06-1,1.13-3.07,2.4c-1.03,0.63-2.32,1.29-3.82,1.85
													c-0.76,0.26-1.51,0.59-2.47,0.7c-0.46,0.04-1.02,0.02-1.51-0.35c-0.49-0.36-0.65-1.06-0.5-1.59
													c1.72-3.82,5.94-4.49,8.22-3.84c1.21,0.3,2.07,0.83,2.61,1.25c0.54,0.43,0.76,0.73,0.73,0.76
													c-0.08,0.12-1.16-1.04-3.45-1.5c-1.13-0.23-2.54-0.2-3.95,0.37c-1.33,0.53-2.93,1.66-3.44,3.12
													c-0.2,0.74,0.44,1.16,1.23,1.06c0.76-0.07,1.56-0.39,2.3-0.62c1.47-0.52,2.75-1.11,3.79-1.67
													C1655.04,1654.21,1656.21,1653.29,1656.28,1653.39z"/>
											</g>
										</g>
									</g>
								</g>
							</g>
						</g>
						<g>
							<g>
								<g>
									<g>
										<g>
											<g>
												<path class="st17" d="M1655.61,1654.16c-0.02,0.07-1.08-0.36-2.03-1.84c-0.46-0.73-0.84-1.73-0.93-2.89
													c0-1.1-0.04-2.59,1.31-3.57c0.78-0.47,1.76,0.06,2.06,0.67c0.37,0.58,0.49,1.23,0.56,1.77
													c0.15,1.12,0.12,2.14,0.02,2.99c-0.22,1.69-0.69,2.65-0.77,2.62c-0.11-0.03,0.18-1.03,0.25-2.66
													c0.04-0.81,0.01-1.79-0.17-2.84c-0.09-0.98-0.72-2.36-1.6-1.9c-0.82,0.53-1,1.91-0.99,2.89
													c0.04,1.04,0.34,1.96,0.71,2.67C1654.78,1653.49,1655.69,1654.06,1655.61,1654.16z"/>
											</g>
										</g>
									</g>
								</g>
							</g>
						</g>
						<g>
							<g>
								<g>
									<g>
										<g>
											<g>
												<path class="st17" d="M1704.5,1610.31c0.07,0.12-1.46,0.95-3.41,2.9c-1.94,1.92-4.21,5.13-5.16,9.21
													c-0.95,4.08-0.33,7.97,0.56,10.55c0.89,2.61,1.9,4.03,1.78,4.11c-0.04,0.03-0.32-0.3-0.76-0.96
													c-0.44-0.65-0.99-1.66-1.51-2.97c-1.04-2.6-1.78-6.63-0.79-10.89c0.99-4.26,3.43-7.55,5.52-9.42
													c1.04-0.95,1.98-1.61,2.67-2C1704.07,1610.44,1704.47,1610.27,1704.5,1610.31z"/>
											</g>
										</g>
									</g>
								</g>
							</g>
						</g>
						<g>
							<g>
								<g>
									<g>
										<g>
											<g>
												<path class="st17" d="M1683.94,1594.43c0.16-0.13,3.8,4.09,8.13,9.43c4.33,5.34,7.72,9.77,7.56,9.9
													c-0.16,0.13-3.8-4.1-8.13-9.43C1687.17,1598.99,1683.78,1594.56,1683.94,1594.43z"/>
											</g>
										</g>
									</g>
								</g>
							</g>
						</g>
						<g>
							<g>
								<g>
									<g>
										<g>
											<g>
												<path class="st17" d="M1688.77,1637.49c0.14,0.13-2.56,3.09-6.39,6.17c-3.83,3.1-7.29,5.1-7.39,4.94
													c-0.12-0.18,3.14-2.44,6.93-5.51C1685.72,1640.04,1688.62,1637.34,1688.77,1637.49z"/>
											</g>
										</g>
									</g>
								</g>
							</g>
						</g>
						<g>
							<g>
								<g>
									<g>
										<g>
											<g>
												<path class="st17" d="M1640.7,1613.96c0.19,0.02,0.25,0.79,0.47,1.68c0.21,0.89,0.53,1.6,0.37,1.71
													c-0.14,0.11-0.78-0.52-1.03-1.55C1640.25,1614.78,1640.52,1613.93,1640.7,1613.96z"/>
											</g>
										</g>
									</g>
								</g>
							</g>
						</g>
						<g>
							<g>
								<g>
									<g>
										<g>
											<g>
												<path class="st17" d="M1698.12,1622.97c0.2,0.02,0.29,0.76,0.19,1.65c-0.1,0.89-0.34,1.59-0.54,1.57
													c-0.2-0.02-0.29-0.76-0.19-1.65C1697.68,1623.65,1697.92,1622.95,1698.12,1622.97z"/>
											</g>
										</g>
									</g>
								</g>
							</g>
						</g>
						<g>
							<g>
								<g>
									<g>
										<g>
											<g>
												<path class="st17" d="M1701.57,1617.01c0.09,0.19-0.54,0.68-1.04,1.48c-0.52,0.78-0.71,1.57-0.92,1.56
													c-0.2,0.01-0.33-0.98,0.31-1.96C1700.54,1617.11,1701.5,1616.82,1701.57,1617.01z"/>
											</g>
										</g>
									</g>
								</g>
							</g>
						</g>
						<g>
							<g>
								<g>
									<g>
										<g>
											<g>
												<path class="st17" d="M1704.4,1613.24c0.17,0.1,0.09,0.56-0.18,1.03c-0.27,0.46-0.64,0.76-0.81,0.66
													s-0.09-0.56,0.18-1.03C1703.86,1613.43,1704.22,1613.14,1704.4,1613.24z"/>
											</g>
										</g>
									</g>
								</g>
							</g>
						</g>
					</g>
				</g>
				<g class="st8">
					<g>
						<g>
							<polygon points="1703.43,1609.08 1655.34,1645.82 1650.9,1640.04 1701.43,1605.78 							"/>
						</g>
					</g>
				</g>
			</g>
			<g>
				<g>
					<g>
						<g>
							<g>
								<g>
									<g>
										<g>
											<g>
												<path class="st17" d="M1440.24,1675.8l0.09-32.33l60.56-0.22l0.37,47.3l-3.75,0.25c-16.71,0.99-85.03,3.85-96.21,0.51
													C1388.83,1687.57,1440.24,1675.8,1440.24,1675.8z"/>
											</g>
										</g>
									</g>
								</g>
							</g>
						</g>
						<g class="st18">
							<g>
								<g>
									<g>
										<g>
											<path class="st17" d="M1415.12,1682.45c0,0-18.02,5.27-15.76,8.23c2.26,2.96,71.41,2.67,101.9-0.13l-0.1-1.35
												l-80.65,1.03C1420.51,1690.23,1418.65,1682.58,1415.12,1682.45z"/>
										</g>
									</g>
								</g>
							</g>
						</g>
						<g>
							<g>
								<g>
									<g>
										<g>
											<g>
												<path class="st17" d="M1502.11,1689.15c0,0.03-0.36,0.07-1.04,0.12c-0.9,0.06-1.88,0.12-2.99,0.19
													c-2.99,0.14-6.67,0.32-11.01,0.52c-9.3,0.37-22.14,0.72-36.34,0.79c-14.2,0.07-27.05-0.15-36.35-0.43
													c-4.34-0.16-8.02-0.3-11.01-0.41c-1.11-0.06-2.09-0.11-2.99-0.16c-0.68-0.05-1.04-0.08-1.04-0.11
													c0-0.03,0.36-0.04,1.05-0.04c0.9,0.01,1.88,0.02,3,0.03c2.99,0.05,6.67,0.11,11.01,0.18c9.3,0.15,22.15,0.28,36.34,0.21
													c14.19-0.07,27.03-0.34,36.33-0.58c4.34-0.11,8.02-0.21,11.01-0.29c1.11-0.02,2.1-0.04,3-0.05
													C1501.75,1689.12,1502.11,1689.13,1502.11,1689.15z"/>
											</g>
										</g>
									</g>
								</g>
							</g>
						</g>
						<g>
							<g>
								<g>
									<g>
										<g>
											<g>
												<path class="st17" d="M1420.53,1691.17c-0.22,0.03-0.41-2.6-2.08-5.25c-1.63-2.68-3.9-4.01-3.77-4.2
													c0.04-0.18,2.64,0.95,4.39,3.81C1420.86,1688.38,1420.71,1691.21,1420.53,1691.17z"/>
											</g>
										</g>
									</g>
								</g>
							</g>
						</g>
						<g>
							<g>
								<g>
									<g>
										<g>
											<g>
												<path class="st17" d="M1438.36,1682.03c-0.17,0.11-1.03-0.93-1.92-2.32c-0.89-1.39-1.47-2.6-1.3-2.71
													c0.17-0.11,1.03,0.93,1.92,2.31C1437.95,1680.7,1438.53,1681.92,1438.36,1682.03z"/>
											</g>
										</g>
									</g>
								</g>
							</g>
						</g>
						<g>
							<g>
								<g>
									<g>
										<g>
											<g>
												<path class="st17" d="M1443.25,1679.41c-0.14,0.15-1.09-0.48-2.14-1.42c-1.05-0.93-1.79-1.81-1.65-1.96
													c0.14-0.15,1.09,0.48,2.14,1.42C1442.65,1678.38,1443.39,1679.26,1443.25,1679.41z"/>
											</g>
										</g>
									</g>
								</g>
							</g>
						</g>
						<g>
							<g>
								<g>
									<g>
										<g>
											<g>
												<path class="st17" d="M1446.33,1673.68c0,0.2-1.41,0.39-3.16,0.42c-1.75,0.03-3.17-0.12-3.17-0.32
													c0-0.2,1.41-0.39,3.16-0.42C1444.91,1673.34,1446.33,1673.48,1446.33,1673.68z"/>
											</g>
										</g>
									</g>
								</g>
							</g>
						</g>
						<g>
							<g>
								<g>
									<g>
										<g>
											<g>
												<path class="st17" d="M1447.38,1669.65c0.07,0.18-1.47,0.88-3.52,1.04c-2.05,0.17-3.68-0.28-3.64-0.47
													c0.03-0.21,1.64-0.1,3.58-0.26C1445.75,1669.81,1447.31,1669.44,1447.38,1669.65z"/>
											</g>
										</g>
									</g>
								</g>
							</g>
						</g>
						<g>
							<g>
								<g>
									<g>
										<g>
											<g>
												<path class="st17" d="M1436.28,1676.75c0,0.08-1.49,0.27-3.89-0.01c-1.2-0.14-2.62-0.42-4.15-0.9
													c-0.76-0.27-1.55-0.47-2.38-0.97c-0.39-0.26-0.81-0.61-0.97-1.21c-0.16-0.58,0.15-1.24,0.58-1.56
													c3.71-1.94,7.45,0.13,8.83,2.05c0.77,0.98,1.12,1.93,1.28,2.59c0.16,0.67,0.15,1.05,0.1,1.05
													c-0.14,0.05-0.27-1.53-1.79-3.31c-0.75-0.87-1.88-1.72-3.33-2.15c-1.38-0.4-3.33-0.5-4.64,0.34
													c-0.62,0.46-0.37,1.19,0.32,1.59c0.64,0.41,1.47,0.66,2.19,0.92c1.48,0.5,2.85,0.82,4.01,1.03
													C1434.8,1676.63,1436.28,1676.63,1436.28,1676.75z"/>
											</g>
										</g>
									</g>
								</g>
							</g>
						</g>
						<g>
							<g>
								<g>
									<g>
										<g>
											<g>
												<path class="st17" d="M1435.28,1676.95c-0.06,0.04-0.63-0.95-0.46-2.7c0.09-0.86,0.4-1.88,1.05-2.85
													c0.68-0.87,1.56-2.06,3.23-2c0.9,0.11,1.35,1.14,1.21,1.79c-0.07,0.68-0.37,1.27-0.65,1.74
													c-0.57,0.97-1.23,1.76-1.83,2.36c-1.22,1.2-2.18,1.66-2.22,1.58c-0.07-0.09,0.77-0.7,1.84-1.94
													c0.53-0.62,1.11-1.4,1.62-2.34c0.53-0.83,0.89-2.3-0.09-2.48c-0.97-0.09-1.97,0.88-2.56,1.66
													c-0.61,0.84-0.94,1.75-1.09,2.53C1435.04,1675.91,1435.41,1676.92,1435.28,1676.95z"/>
											</g>
										</g>
									</g>
								</g>
							</g>
						</g>
						<g>
							<g>
								<g>
									<g>
										<g>
											<g>
												<path class="st17" d="M1500.81,1672.59c-0.01,0.14-1.73-0.16-4.47,0.18c-2.71,0.31-6.48,1.44-9.74,4.06
													c-3.27,2.63-5.18,6.07-6.06,8.65c-0.91,2.6-0.99,4.34-1.13,4.33c-0.04,0-0.07-0.44-0.01-1.22
													c0.06-0.78,0.24-1.92,0.65-3.27c0.78-2.69,2.69-6.31,6.1-9.06c3.41-2.74,7.36-3.82,10.15-4.01
													c1.41-0.1,2.55-0.04,3.33,0.07C1500.39,1672.43,1500.81,1672.54,1500.81,1672.59z"/>
											</g>
										</g>
									</g>
								</g>
							</g>
						</g>
						<g>
							<g>
								<g>
									<g>
										<g>
											<g>
												<path class="st17" d="M1494.42,1647.41c0.2,0,0.46,5.56,0.58,12.44c0.12,6.87,0.05,12.45-0.16,12.45
													c-0.2,0-0.46-5.56-0.58-12.44C1494.15,1652.99,1494.22,1647.42,1494.42,1647.41z"/>
											</g>
										</g>
									</g>
								</g>
							</g>
						</g>
						<g>
							<g>
								<g>
									<g>
										<g>
											<g>
												<path class="st17" d="M1471.66,1684.28c0.03,0.19-3.92,0.85-8.84,0.92c-4.92,0.07-8.88-0.48-8.86-0.67
													c0.02-0.21,3.97,0.01,8.85-0.06C1467.68,1684.4,1471.63,1684.07,1471.66,1684.28z"/>
											</g>
										</g>
									</g>
								</g>
							</g>
						</g>
						<g>
							<g>
								<g>
									<g>
										<g>
											<g>
												<path class="st17" d="M1483.53,1684.21c0.15,0.15-0.32,0.84-0.72,1.75c-0.41,0.9-0.62,1.71-0.83,1.7
													c-0.2,0-0.32-0.96,0.16-2C1482.6,1684.61,1483.4,1684.07,1483.53,1684.21z"/>
											</g>
										</g>
									</g>
								</g>
							</g>
						</g>
						<g>
							<g>
								<g>
									<g>
										<g>
											<g>
												<path class="st17" d="M1487.98,1678.63c0.14,0.14-0.24,0.77-0.87,1.41c-0.62,0.64-1.25,1.04-1.39,0.9
													c-0.14-0.14,0.24-0.77,0.87-1.41C1487.21,1678.89,1487.83,1678.48,1487.98,1678.63z"/>
											</g>
										</g>
									</g>
								</g>
							</g>
						</g>
						<g>
							<g>
								<g>
									<g>
										<g>
											<g>
												<path class="st17" d="M1494.37,1676.06c-0.04,0.21-0.85,0.2-1.73,0.52c-0.9,0.3-1.53,0.79-1.69,0.66
													c-0.16-0.11,0.34-0.97,1.45-1.35C1493.5,1675.5,1494.43,1675.87,1494.37,1676.06z"/>
											</g>
										</g>
									</g>
								</g>
							</g>
						</g>
						<g>
							<g>
								<g>
									<g>
										<g>
											<g>
												<path class="st17" d="M1498.92,1674.84c0.07,0.19-0.27,0.5-0.77,0.7c-0.5,0.2-0.97,0.2-1.04,0.02
													c-0.07-0.19,0.27-0.5,0.77-0.7C1498.38,1674.65,1498.84,1674.65,1498.92,1674.84z"/>
											</g>
										</g>
									</g>
								</g>
							</g>
						</g>
					</g>
				</g>
				<g class="st8">
					<g>
						<g>
							<polygon class="st17" points="1501.26,1670.16 1440.21,1670.22 1440.28,1662.92 1501.04,1662.53 							"/>
						</g>
					</g>
				</g>
			</g>
			<g>
				<g>
					<g>
						<g>
							<path class="st14" d="M1589.74,1117.75l-24.25,73.03c-6.55,19.72-23.78,23.1-44.56,23.1h-134.9v-30.26l123.24-17.6
								l29.37-75.03L1589.74,1117.75z"/>
						</g>
					</g>
				</g>
				<g>
					<g>
						<g>
							<g>
								<path class="st14" d="M1371.19,1177.33l-10.7-5.07c0,0-11.53-22.3-14.19-21.41c-2.66,0.89-3.42,7.46,1.21,17.7l-14.22-4.06
									c0,0-30.83,14.24-29.46,16.16c1.36,1.92,3.89,6.46,10.6,3.03c6.72-3.43,15.51-7.46,15.51-7.46l16.61,4.74l-21.42,2.72
									l-20.14,18.33c0,0,6.61,4.95,12.32-0.3l52.32,11.24l16.39,0.93v-30.26L1371.19,1177.33z"/>
							</g>
						</g>
					</g>
					<g>
						<g>
							<g>
								<g>
									<path class="st14" d="M1317.31,1201.71c0.22,0.15,1.2-1.4,3.08-3.46c0.95-1.01,2.23-2.06,3.81-2.94
										c1.52-0.85,3.5-1.22,5.65-1.48c8.72-1.03,15.76-2.23,15.7-2.68c-0.06-0.45-7.17,0.02-15.9,1.05
										c-2.19,0.26-4.42,0.7-6.21,1.8c-1.7,1.05-3.02,2.31-3.93,3.5C1317.73,1199.9,1317.16,1201.61,1317.31,1201.71z"/>
								</g>
							</g>
						</g>
					</g>
					<g>
						<g>
							<g>
								<g>
									<path class="st14" d="M1325.5,1203.81c0.2,0,0.36-1.08,1.83-1.4c1.49-0.27,3.88-0.55,6.36-0.81
										c5.03-0.51,9.16-0.47,9.2-0.94c0.05-0.43-4.15-1.22-9.36-0.69c-2.62,0.28-4.85,0.7-6.58,1.35c-0.9,0.37-1.48,1.1-1.59,1.65
										C1325.21,1203.53,1325.4,1203.83,1325.5,1203.81z"/>
								</g>
							</g>
						</g>
					</g>
				</g>
			</g>
			<g>
				<g>
					<g>
						<g>
							<g>
								<g>
									<g>
										<g>
											<g>
												<path class="st19" d="M1601.17,1101.83l-10.37,35.14l-65.84-29.81c2.37-7.36,13.26-40.13,34.1-92.14
													c11.62-28.98,37.45-49.89,68.25-55.01c21.55-3.58,44.99-6.38,63.05-6.18c36.92,0.41,91.27,23.49,98.58,59.68
													c5.57,27.63,0.2,76.4,0.2,135.67l-4.82,113.24l-189.2,6.42L1601.17,1101.83z"/>
											</g>
										</g>
									</g>
								</g>
							</g>
						</g>
					</g>
					<g class="st8">
						<g>
							<g>
								<g>
									<path class="st19" d="M1788.93,1122.97c-23.02,4.71-46.66-0.04-70.12-1.43c-14.22-0.84-30-2.38-41.25,6.36
										c-8.92,6.93-12.51,18.59-15.09,29.59c-9.81,41.93-11.6,70.04-13.8,113.05l113.89,6.91L1788.93,1122.97z"/>
								</g>
							</g>
						</g>
					</g>
				</g>
				<g>
					<g>
						<g>
							<g>
								<path class="st19" d="M1596.31,978.93c-0.03,0.17,1.9,0.28,5.03,1.51c3.09,1.27,7.34,3.96,10.9,8.82
									c3.61,4.8,6.04,11.76,6.51,19.71c0.55,7.96-0.62,16.77-1.99,25.94c-2.92,18.34-7.39,34.62-10.57,46.38
									c-1.56,5.68-2.85,10.37-3.82,13.93c-0.88,3.3-1.32,5.13-1.21,5.17c0.11,0.03,0.75-1.74,1.83-4.98
									c1.07-3.24,2.57-7.95,4.33-13.8c3.47-11.69,8.13-27.98,11.08-46.44c1.37-9.22,2.53-18.12,1.88-26.3
									c-0.55-8.15-3.21-15.41-7.09-20.3c-3.82-4.95-8.34-7.6-11.6-8.72c-1.65-0.54-2.97-0.8-3.87-0.88
									C1596.79,978.89,1596.32,978.87,1596.31,978.93z"/>
							</g>
						</g>
					</g>
				</g>
				<g>
					<g>
						<g>
							<g>
								<path class="st19" d="M1527.01,1098.2c-0.1,0.19,3.43,2.26,9.28,5.32c5.85,3.06,14.03,7.1,23.21,11.24
									c9.19,4.14,17.63,7.6,23.8,9.96c6.17,2.36,10.05,3.63,10.13,3.43c0.08-0.22-3.64-1.88-9.69-4.5
									c-6.05-2.63-14.39-6.25-23.56-10.38c-9.16-4.13-17.4-7.99-23.37-10.79C1530.82,1099.69,1527.11,1097.99,1527.01,1098.2z"/>
							</g>
						</g>
					</g>
				</g>
			</g>
			<g>
				<g>
					<g>
						<g>
							<path class="st3" d="M1496.84,1277.44c-32.24,17.58-44.48,57.73-27.54,90.31l164.68,282.74l75.98-45.89l-127.88-255.28
								l92.68-60.5"/>
						</g>
					</g>
				</g>
				<g>
					<g>
						<g>
							<g>
								<path class="st3" d="M1697.35,1263.42l-226.06,8c-36.7,1.3-65.61,31.72-65.04,68.44l9.39,322.88l95.07-0.21l-3.17-305.28
									l189.81-4.99V1263.42z"/>
							</g>
						</g>
					</g>
					<g>
						<g>
							<g>
								<path class="st5" d="M1507.54,1368.29c0.07,0,0.16,1.03,0.27,2.98c0.09,2.17,0.22,5.01,0.37,8.57
									c0.28,7.44,0.57,18.21,0.85,31.53c0.57,26.62,0.95,63.41,1.15,104.03c0.21,40.53,0.4,77.21,0.53,104.04
									c0.07,13.14,0.13,23.85,0.18,31.53c-0.01,3.56-0.02,6.41-0.03,8.57c-0.03,1.96-0.08,2.99-0.15,2.99
									c-0.07,0-0.16-1.03-0.27-2.98c-0.09-2.17-0.22-5.01-0.37-8.57c-0.28-7.44-0.57-18.21-0.85-31.52
									c-0.57-26.62-0.95-63.41-1.15-104.05c-0.21-40.52-0.4-77.19-0.53-104.02c-0.07-13.14-0.13-23.85-0.18-31.53
									c0.01-3.56,0.02-6.41,0.03-8.58C1507.41,1369.32,1507.46,1368.29,1507.54,1368.29z"/>
							</g>
						</g>
					</g>
				</g>
			</g>
		</g>
		<g>
			<g>
				<g>
					<path class="st5" d="M1795.28,1058.52h-68.39c-27.53,0-49.85,22.32-49.85,49.85v238.61h-136.64
						c-19.07,0-34.52,15.45-34.52,34.52h312c0-0.07-0.01-0.13-0.01-0.2c15.16-0.65,27.27-13.11,27.27-28.43v-244.5
						C1845.13,1080.84,1822.81,1058.52,1795.28,1058.52z"/>
				</g>
			</g>
			<g>
				<g>
					<g>
						<path class="st3" d="M1696.92,1066.39c0.58,0,1.06,70.12,1.06,156.61c0,86.51-0.47,156.62-1.06,156.62
							c-0.58,0-1.06-70.11-1.06-156.62C1695.86,1136.51,1696.34,1066.39,1696.92,1066.39z"/>
					</g>
				</g>
			</g>
			<g>
				<g>
					<path class="st5" d="M1688.28,1631.96v-250.32h-22.24v250.32c-13.58,26.76-45.49,44.87-84.37,59.69h198.23
						C1739.65,1675.29,1703.32,1662.74,1688.28,1631.96z"/>
				</g>
			</g>
		</g>
	</g>
</g>
</svg>
