<?xml version="1.0" encoding="utf-8"?>
<!-- Generator: Adobe Illustrator 27.2.0, SVG Export Plug-In . SVG Version: 6.00 Build 0)  -->
<svg version="1.1" id="Layer_1" xmlns="http://www.w3.org/2000/svg" xmlns:xlink="http://www.w3.org/1999/xlink" x="0px" y="0px"
	 viewBox="0 0 2880 1800" style="enable-background:new 0 0 2880 1800;" xml:space="preserve">
<style type="text/css">
	.st0{fill:#263238;}
	.st1{fill:none;stroke:#000000;stroke-width:2.1983;stroke-miterlimit:10;}
	.st2{fill:#97C1E5;}
	.st3{fill:#382626;}
	.st4{fill:#E0E0E0;}
	.st5{fill:#FFFFFF;}
	.st6{fill:#545352;}
	.st7{fill:#EBEAEA;}
	.st8{fill:#DBDCDB;}
	.st9{fill:none;stroke:#C7C7C6;stroke-width:4.3965;stroke-miterlimit:10;}
	.st10{fill:#C7C7C6;}
	.st11{fill:#EBEBEB;}
	.st12{fill:#C5C5C6;}
	.st13{fill:#77787B;}
	.st14{fill:#3C99D4;}
	.st15{fill:#503938;}
	.st16{fill:#513A39;}
	.st17{opacity:0.1;fill:#382626;}
	.st18{opacity:0.5;fill:#3C99D4;}
	.st19{fill:none;stroke:#3C99D4;stroke-width:4.3965;stroke-miterlimit:10;}
	.st20{fill:#A6A4A4;}
	.st21{fill:#DCDBDA;}
	.st22{fill:#272E38;}
	.st23{fill:#455465;}
	.st24{fill:#384150;}
	.st25{fill:#FFD626;}
	.st26{fill:#41A0D8;}
	.st27{fill:#C7C7C5;}
	.st28{fill:url(#SVGID_1_);}
	.st29{fill:url(#SVGID_00000076601527944344080060000015616107571925757594_);}
	.st30{fill:url(#SVGID_00000165945955025834560880000016028394661296077202_);}
	.st31{fill:url(#SVGID_00000086678164046030851060000006704487852616372913_);}
	.st32{fill:url(#SVGID_00000156574982717017921850000016033936581310655106_);}
	.st33{fill:url(#SVGID_00000095330563534767202650000014429222987404094649_);}
</style>
<path class="st0" d="M1036.08,888.94c0,7.45-6.04,13.48-13.48,13.48c-7.45,0-13.48-6.04-13.48-13.48c0-7.45,6.04-13.48,13.48-13.48
	C1030.04,875.46,1036.08,881.49,1036.08,888.94z"/>
<g>
	<g>
		<g>
			<g>
				<rect x="2253.2" y="732.06" class="st1" width="494.8" height="564.7"/>
			</g>
		</g>
	</g>
	<g>
		<g>
			<g>
				<g>
					<path d="M2705.46,1020.41c-0.16,0.34-5.48-2.75-15.91-6.05c-10.35-3.21-26.32-6.31-45.63-3.39
						c-9.58,1.53-19.96,4.43-30.09,9.67c-10.2,5.12-19.93,12.7-29.59,21.28c-9.7,8.56-19.34,18.29-30.45,27.27
						c-11.11,8.84-23.86,17.21-38.86,21.03c-7.44,1.92-15.24,2.41-22.69,1.37c-7.47-1.02-14.52-3.46-21.02-6.49
						c-13.03-6.14-24.18-14.21-35.22-20.94c-10.96-6.86-21.98-12.31-33.12-14.85c-11.08-2.69-21.83-3.24-31.51-2.42
						c-19.47,1.7-34.2,8.6-43.49,14.16c-9.33,5.7-13.73,9.99-13.98,9.69c-0.08-0.09,1.01-1.15,3.16-3.11
						c2.12-1.99,5.49-4.67,10.12-7.7c9.2-5.98,24.06-13.37,43.97-15.42c9.89-1,20.95-0.59,32.39,2.07
						c11.51,2.49,23.01,8.07,34.09,14.91c11.19,6.73,22.33,14.69,34.98,20.59c12.52,6.03,27.25,8.71,41.49,4.86
						c14.25-3.62,26.69-11.69,37.62-20.34c10.93-8.79,20.61-18.45,30.46-27.03c9.81-8.6,19.81-16.28,30.39-21.45
						c10.49-5.28,21.19-8.12,31.02-9.53c19.82-2.69,36.02,0.87,46.38,4.5c5.23,1.81,9.13,3.66,11.69,5.03
						C2704.21,1019.53,2705.52,1020.31,2705.46,1020.41z"/>
				</g>
			</g>
		</g>
		<g>
			<g>
				<g>
					<rect x="2389.39" y="1096.25" class="st2" width="42.07" height="113.77"/>
				</g>
			</g>
			<g>
				<g>
					<rect x="2567.89" y="1096.25" class="st2" width="42.07" height="113.77"/>
				</g>
			</g>
			<g>
				<g>
					<rect x="2627.39" y="1029.44" class="st2" width="42.07" height="180.58"/>
				</g>
			</g>
			<g>
				<g>
					<rect x="2334.95" y="1174.21" class="st2" width="42.07" height="38.29"/>
				</g>
			</g>
			<g>
				<g>
					<rect x="2448.89" y="1147.63" class="st2" width="42.07" height="62.39"/>
				</g>
			</g>
			<g>
				<g>
					<rect x="2508.39" y="1133.3" class="st2" width="42.07" height="76.72"/>
				</g>
			</g>
		</g>
		<g>
			<g>
				<g>
					<g>
						<path class="st3" d="M2433.15,1223.43c0,0.93-10.18,1.69-22.72,1.69c-12.55,0-22.73-0.76-22.73-1.69
							c0-0.93,10.17-1.69,22.73-1.69C2422.97,1221.74,2433.15,1222.5,2433.15,1223.43z"/>
					</g>
				</g>
			</g>
			<g>
				<g>
					<g>
						<path class="st3" d="M2380.81,1223.43c0,0.93-10.18,1.69-22.73,1.69c-12.55,0-22.73-0.76-22.73-1.69
							c0-0.93,10.17-1.69,22.73-1.69C2370.63,1221.74,2380.81,1222.5,2380.81,1223.43z"/>
					</g>
				</g>
			</g>
			<g>
				<g>
					<g>
						<path class="st3" d="M2677.75,1223.43c0,0.93-11.5,1.69-25.69,1.69c-14.19,0-25.69-0.76-25.69-1.69
							c0-0.93,11.5-1.69,25.69-1.69C2666.24,1221.74,2677.75,1222.5,2677.75,1223.43z"/>
					</g>
				</g>
			</g>
			<g>
				<g>
					<g>
						<path class="st3" d="M2615.26,1223.43c0,0.93-11.5,1.69-25.69,1.69c-14.19,0-25.69-0.76-25.69-1.69
							c0-0.93,11.5-1.69,25.69-1.69C2603.75,1221.74,2615.26,1222.5,2615.26,1223.43z"/>
					</g>
				</g>
			</g>
			<g>
				<g>
					<g>
						<path class="st3" d="M2550.46,1223.43c0,0.93-10.18,1.69-22.73,1.69c-12.55,0-22.73-0.76-22.73-1.69
							c0-0.93,10.17-1.69,22.73-1.69C2540.28,1221.74,2550.46,1222.5,2550.46,1223.43z"/>
					</g>
				</g>
			</g>
			<g>
				<g>
					<g>
						<path class="st3" d="M2488.98,1223.43c0,0.93-10.18,1.69-22.73,1.69c-12.55,0-22.73-0.76-22.73-1.69
							c0-0.93,10.18-1.69,22.73-1.69C2478.8,1221.74,2488.98,1222.5,2488.98,1223.43z"/>
					</g>
				</g>
			</g>
		</g>
	</g>
	<g>
		<g>
			<g>
				<rect x="2333.96" y="814.39" class="st4" width="343.79" height="142.77"/>
			</g>
		</g>
		<g>
			<g>
				<g>
					<path class="st3" d="M2405.39,859.51c0,8.85-7.18,16.03-16.03,16.03c-8.85,0-16.03-7.18-16.03-16.03
						c0-8.85,7.18-16.03,16.03-16.03C2398.21,843.48,2405.39,850.66,2405.39,859.51z"/>
				</g>
			</g>
			<g>
				<g>
					<rect x="2421.41" y="848.44" class="st3" width="111.67" height="6.2"/>
				</g>
			</g>
			<g>
				<g>
					<rect x="2421.41" y="862.53" class="st5" width="217.23" height="6.2"/>
				</g>
			</g>
		</g>
		<g>
			<g>
				<g>
					<path class="st6" d="M2405.39,908.78c0,8.85-7.18,16.03-16.03,16.03c-8.85,0-16.03-7.18-16.03-16.03
						c0-8.85,7.18-16.03,16.03-16.03C2398.21,892.76,2405.39,899.93,2405.39,908.78z"/>
				</g>
			</g>
			<g>
				<g>
					<rect x="2421.41" y="897.71" class="st6" width="57.03" height="6.2"/>
				</g>
			</g>
			<g>
				<g>
					<rect x="2421.41" y="911.8" class="st5" width="217.23" height="6.2"/>
				</g>
			</g>
		</g>
	</g>
</g>
<g>
	<path class="st7" d="M409.82,664.68c4.16-2.58,9.36-2.44,13.54,0.09c1.14,0.69,2.3,1.35,3.48,1.98c1.19,0.64,2.4,1.25,3.61,1.82
		c4.4,2.08,7.39,6.32,7.54,11.19l0.52,16.66l54.27-1.69l-0.52-16.77c-0.15-4.87,2.58-9.27,6.85-11.6c2.31-1.26,4.55-2.65,6.73-4.15
		c4.05-2.8,9.26-3.27,13.6-0.95l14.65,7.86l25.67-47.86l-14.65-7.86c-4.34-2.33-6.83-6.93-6.73-11.85c0.05-2.64-0.04-5.28-0.27-7.9
		c-0.42-4.85,1.74-9.56,5.88-12.12l14.25-8.85l-28.62-46.14l-14.23,8.82c-4.07,2.52-9.2,2.51-13.29,0.01
		c-1.2-0.73-2.42-1.43-3.66-2.09c-1.25-0.67-2.5-1.3-3.77-1.89c-4.36-2.04-7.22-6.33-7.37-11.14l-0.5-16.67l-54.27,1.69l0.53,16.61
		c0.15,4.79-2.36,9.3-6.57,11.58c-2.53,1.37-4.98,2.89-7.35,4.55c-3.91,2.74-9.06,2.98-13.27,0.72l-14.64-7.85l-25.67,47.86
		l14.65,7.85c4.34,2.33,6.83,6.94,6.73,11.86c-0.05,2.65,0.03,5.29,0.26,7.92c0.41,4.86-1.76,9.57-5.9,12.14l-14.21,8.81
		l28.62,46.14L409.82,664.68z M421,584.27c10.51-27.39,43.7-37.41,67.6-20.4c16.27,11.57,22.78,33.24,15.62,51.88
		c-10.52,27.38-43.62,37.37-67.53,20.38C420.41,624.56,413.85,602.92,421,584.27z"/>
	<path class="st7" d="M570.3,493.47c1.71-2.97,4.97-4.6,8.4-4.43c0.93,0.05,1.86,0.07,2.8,0.07c0.95,0,1.89-0.02,2.82-0.07
		c3.41-0.17,6.66,1.45,8.37,4.41l5.83,10.11l32.94-19.01l-5.83-10.11c-1.71-2.97-1.54-6.62,0.33-9.48c1.03-1.58,1.98-3.21,2.84-4.9
		c1.55-3.04,4.62-4.99,8.03-4.99h11.65v-38.05h-11.65c-3.41,0-6.48-1.95-8.03-4.99c-0.86-1.69-1.81-3.33-2.84-4.9
		c-1.87-2.87-2.04-6.52-0.33-9.48l5.83-10.11l-32.94-19.01l-5.87,10.16c-1.71,2.95-4.95,4.58-8.36,4.4
		c-0.93-0.05-1.86-0.07-2.8-0.07s-1.87,0.02-2.8,0.07c-3.42,0.18-6.68-1.46-8.39-4.43l-5.83-10.13l-32.94,19.01l5.83,10.08
		c1.71,2.97,1.55,6.61-0.32,9.48c-1.03,1.59-1.98,3.23-2.85,4.93c-1.55,3.04-4.62,5-8.04,5h-11.64v38.05h11.64
		c3.41,0,6.49,1.96,8.04,5c0.86,1.7,1.81,3.34,2.85,4.93c1.87,2.87,2.04,6.51,0.32,9.48l-5.83,10.08l32.94,19.01L570.3,493.47z
		 M550.33,436.06c0-17.21,13.97-31.17,31.17-31.17s31.14,13.97,31.14,31.17c0,17.21-13.94,31.14-31.14,31.14
		S550.33,453.27,550.33,436.06z"/>
</g>
<g>
	<g>
		<path class="st7" d="M671.88,1242.53c-8.71,59.58-60.04,105.3-122.01,105.3c-68.12,0-123.39-55.23-123.39-123.39
			c0-68.12,55.27-123.35,123.39-123.35v123.35L671.88,1242.53z"/>
		<path class="st8" d="M698.34,1199.32c0,6.16-0.46,12.18-1.34,18.09l-122.01-18.09v-123.35c45.76,0,85.75,24.95,107.06,62.01
			C692.44,1156.07,698.34,1177.05,698.34,1199.32z"/>
	</g>
</g>
<g>
	<line class="st9" x1="612.44" y1="1292.75" x2="743.63" y2="1292.75"/>
	<circle class="st9" cx="752.83" cy="1292.75" r="9.19"/>
	<rect x="786.16" y="1285.85" class="st10" width="101.89" height="4.6"/>
	<rect x="786.16" y="1295.05" class="st10" width="57.68" height="4.6"/>
</g>
<ellipse class="st11" cx="1356.19" cy="1611.49" rx="1134.57" ry="125.51"/>
<g>
	<path class="st0" d="M237.1,1435.33c716.96-2.86,1521.22-2.89,2238.17,0C1758.31,1438.22,954.05,1438.2,237.1,1435.33
		L237.1,1435.33z"/>
</g>
<g>
	<rect x="635.15" y="501.54" class="st8" width="1436.26" height="960.76"/>
	<rect x="645.59" y="513.26" width="1415.39" height="937.32"/>
	<g>
		<rect x="448.09" y="1534.34" class="st12" width="1810.4" height="65.94"/>
		<polygon class="st8" points="448.09,1534.34 635.15,1462.3 2071.42,1462.3 2258.48,1534.34 		"/>
		<polygon class="st3" points="651.86,1508.79 772.57,1462.3 1934,1462.3 2054.71,1508.79 		"/>
	</g>
	<g>
		<rect x="725.58" y="584.47" class="st5" width="1255.41" height="794.89"/>
		<g>
			<rect x="724.52" y="584.47" class="st13" width="1256.47" height="30.59"/>
			<g>
				<path class="st12" d="M748.83,599.77c0,4.19-3.4,7.59-7.59,7.59s-7.59-3.4-7.59-7.59c0-4.19,3.4-7.59,7.59-7.59
					S748.83,595.58,748.83,599.77z"/>
				<path class="st5" d="M779.81,599.77c0,4.19-3.4,7.59-7.59,7.59c-4.19,0-7.59-3.4-7.59-7.59c0-4.19,3.4-7.59,7.59-7.59
					C776.41,592.18,779.81,595.58,779.81,599.77z"/>
				<path class="st14" d="M810.78,599.77c0,4.19-3.4,7.59-7.59,7.59c-4.19,0-7.59-3.4-7.59-7.59c0-4.19,3.4-7.59,7.59-7.59
					C807.38,592.18,810.78,595.58,810.78,599.77z"/>
			</g>
		</g>
		<g>
			<g>
				<g>
					<polygon class="st7" points="911.5,982.58 911.12,952.01 910.98,921.43 910.71,860.28 910.98,799.13 911.12,768.55 
						911.5,737.98 911.89,768.55 912.03,799.13 912.29,860.28 912.02,921.43 911.88,952.01 					"/>
					<polygon class="st7" points="996.57,982.58 996.19,952.01 996.05,921.43 995.79,860.28 996.05,799.13 996.19,768.55 
						996.57,737.98 996.96,768.55 997.1,799.13 997.36,860.28 997.1,921.43 996.96,952.01 					"/>
					<polygon class="st7" points="1081.65,982.58 1081.26,952.01 1081.12,921.43 1080.86,860.28 1081.12,799.13 1081.26,768.55 
						1081.65,737.98 1082.03,768.55 1082.17,799.13 1082.43,860.28 1082.17,921.43 1082.03,952.01 					"/>
					<polygon class="st7" points="1166.72,982.58 1166.34,952.01 1166.2,921.43 1165.93,860.28 1166.2,799.13 1166.33,768.55 
						1166.72,737.98 1167.11,768.55 1167.24,799.13 1167.51,860.28 1167.24,921.43 1167.1,952.01 					"/>
					<polygon class="st7" points="1251.79,982.58 1251.41,952.01 1251.27,921.43 1251.01,860.28 1251.27,799.13 1251.41,768.55 
						1251.79,737.98 1252.18,768.55 1252.32,799.13 1252.58,860.28 1252.32,921.43 1252.18,952.01 					"/>
					<polygon class="st7" points="1336.87,982.58 1336.48,952.01 1336.34,921.43 1336.08,860.28 1336.34,799.13 1336.48,768.55 
						1336.87,737.98 1337.25,768.55 1337.39,799.13 1337.65,860.28 1337.39,921.43 1337.25,952.01 					"/>
					<polygon class="st7" points="1421.94,982.58 1421.56,952.01 1421.42,921.43 1421.15,860.28 1421.41,799.13 1421.55,768.55 
						1421.94,737.98 1422.32,768.55 1422.46,799.13 1422.73,860.28 1422.46,921.43 1422.32,952.01 					"/>
					<polygon class="st7" points="1507.01,982.58 1506.63,952.01 1506.49,921.43 1506.23,860.28 1506.49,799.13 1506.63,768.55 
						1507.01,737.98 1507.4,768.55 1507.54,799.13 1507.8,860.28 1507.53,921.43 1507.4,952.01 					"/>
					<polygon class="st7" points="1592.08,982.58 1591.7,952.01 1591.56,921.43 1591.3,860.28 1591.56,799.13 1591.7,768.55 
						1592.08,737.98 1592.47,768.55 1592.61,799.13 1592.87,860.28 1592.61,921.43 1592.47,952.01 					"/>
					<polygon class="st7" points="1677.16,982.58 1676.77,952.01 1676.63,921.43 1676.37,860.28 1676.63,799.13 1676.77,768.55 
						1677.16,737.98 1677.54,768.55 1677.68,799.13 1677.94,860.28 1677.68,921.43 1677.54,952.01 					"/>
					<polygon class="st7" points="1762.23,982.58 1761.85,952.01 1761.71,921.43 1761.44,860.28 1761.71,799.13 1761.84,768.55 
						1762.23,737.98 1762.62,768.55 1762.76,799.13 1763.02,860.28 1762.75,921.43 1762.61,952.01 					"/>
					<polygon class="st7" points="1847.3,982.58 1846.92,952.01 1846.78,921.43 1846.52,860.28 1846.78,799.13 1846.92,768.55 
						1847.3,737.98 1847.69,768.55 1847.83,799.13 1848.09,860.28 1847.83,921.43 1847.69,952.01 					"/>
					<polygon class="st7" points="826.43,737.98 1091.82,737.45 1357.21,737.19 1622.6,737.45 1887.98,737.98 1622.6,738.5 
						1357.21,738.76 1091.82,738.5 					"/>
					<polygon class="st7" points="826.43,797.24 1091.82,796.71 1357.21,796.45 1622.6,796.71 1887.98,797.24 1622.6,797.76 
						1357.21,798.02 1091.82,797.76 					"/>
					<polygon class="st7" points="826.43,856.5 1091.82,855.97 1357.21,855.71 1622.6,855.97 1887.98,856.5 1622.6,857.02 
						1357.21,857.28 1091.82,857.02 					"/>
					<polygon class="st7" points="826.43,915.76 1091.82,915.23 1357.21,914.97 1622.6,915.23 1887.98,915.76 1622.6,916.28 
						1357.21,916.54 1091.82,916.28 					"/>
				</g>
				<g>
					<path class="st14" d="M826.43,856.5l84.89-30.32l0.07-0.03l0.08,0l85.06-4.53l0.19-0.01l0.18,0.07l85.14,33.82l-0.21-0.06
						l85.1,15.12l-0.33-0.02l85.06-7.52l-0.55,0.16c28.33-15.2,56.62-30.47,85.04-45.51l0.28-0.15l0.31-0.02l85.09-6.46l0.19-0.01
						l0.18,0.04l85.04,17.66l-0.64,0.05l85.14-32.42l0.21-0.08l0.22,0.02l85.05,9.04l-0.25,0.02l85.2-20.8l0.02-0.01l0.02,0
						l31.71,0.2l-31.71,0.19l0.05-0.01l-84.94,21.85l-0.12,0.03l-0.13-0.01l-85.09-8.61l0.44-0.06l-85,32.78l-0.31,0.12l-0.33-0.07
						l-85.11-17.3l0.37,0.02l-85.06,6.82l0.59-0.17c-28.3,15.26-56.72,30.28-85.1,45.39l-0.26,0.14l-0.29,0.02l-85.09,7.16
						l-0.17,0.01l-0.16-0.03l-85.04-15.47l-0.11-0.02l-0.1-0.04l-85-34.18l0.37,0.06l-85.09,3.86l0.15-0.03L826.43,856.5z"/>
					<g>
						<path class="st5" d="M918.59,826.69c0,3.92-3.18,7.09-7.09,7.09c-3.92,0-7.09-3.18-7.09-7.09c0-3.92,3.18-7.09,7.09-7.09
							C915.42,819.6,918.59,822.77,918.59,826.69z"/>
						<path class="st14" d="M911.5,835.36c-4.78,0-8.67-3.89-8.67-8.67c0-4.78,3.89-8.67,8.67-8.67c4.78,0,8.67,3.89,8.67,8.67
							C920.17,831.47,916.28,835.36,911.5,835.36z M911.5,821.18c-3.04,0-5.52,2.47-5.52,5.51c0,3.04,2.48,5.52,5.52,5.52
							c3.04,0,5.52-2.47,5.52-5.52C917.02,823.65,914.54,821.18,911.5,821.18z"/>
					</g>
					<g>
						<circle class="st5" cx="996.57" cy="822.67" r="7.09"/>
						<path class="st14" d="M996.57,831.34c-4.78,0-8.67-3.89-8.67-8.67s3.89-8.67,8.67-8.67c4.78,0,8.67,3.89,8.67,8.67
							S1001.35,831.34,996.57,831.34z M996.57,817.16c-3.04,0-5.52,2.47-5.52,5.52c0,3.04,2.47,5.52,5.52,5.52s5.52-2.48,5.52-5.52
							C1002.09,819.63,999.62,817.16,996.57,817.16z"/>
					</g>
					<g>
						<circle class="st5" cx="1166.72" cy="871.79" r="7.09"/>
						<path class="st14" d="M1166.72,880.46c-4.78,0-8.67-3.89-8.67-8.67s3.89-8.67,8.67-8.67c4.78,0,8.67,3.89,8.67,8.67
							S1171.5,880.46,1166.72,880.46z M1166.72,866.27c-3.04,0-5.52,2.47-5.52,5.52s2.48,5.52,5.52,5.52c3.04,0,5.52-2.47,5.52-5.52
							S1169.76,866.27,1166.72,866.27z"/>
					</g>
					<g>
						<circle class="st5" cx="1336.33" cy="819.6" r="7.09"/>
						<path class="st14" d="M1336.34,828.27c-4.78,0-8.67-3.89-8.67-8.67c0-4.78,3.89-8.67,8.67-8.67s8.67,3.89,8.67,8.67
							C1345,824.38,1341.12,828.27,1336.34,828.27z M1336.34,814.08c-3.04,0-5.52,2.47-5.52,5.52c0,3.04,2.48,5.52,5.52,5.52
							c3.04,0,5.52-2.47,5.52-5.52C1341.85,816.56,1339.38,814.08,1336.34,814.08z"/>
					</g>
					<g>
						<path class="st5" d="M1514.11,830.54c0,3.92-3.18,7.09-7.09,7.09c-3.92,0-7.09-3.18-7.09-7.09c0-3.92,3.18-7.09,7.09-7.09
							C1510.93,823.44,1514.11,826.62,1514.11,830.54z"/>
						<path class="st14" d="M1507.01,839.21c-4.78,0-8.67-3.89-8.67-8.67c0-4.78,3.89-8.67,8.67-8.67c4.78,0,8.67,3.89,8.67,8.67
							C1515.68,835.32,1511.79,839.21,1507.01,839.21z M1507.01,825.02c-3.04,0-5.52,2.47-5.52,5.52s2.47,5.52,5.52,5.52
							c3.04,0,5.52-2.47,5.52-5.52S1510.05,825.02,1507.01,825.02z"/>
					</g>
					<g>
						<circle class="st5" cx="1251.79" cy="864.7" r="7.09"/>
						<path class="st14" d="M1251.79,873.37c-4.78,0-8.67-3.89-8.67-8.67s3.89-8.67,8.67-8.67c4.78,0,8.67,3.89,8.67,8.67
							S1256.57,873.37,1251.79,873.37z M1251.79,859.18c-3.04,0-5.52,2.47-5.52,5.52s2.47,5.52,5.52,5.52
							c3.04,0,5.52-2.47,5.52-5.52S1254.83,859.18,1251.79,859.18z"/>
					</g>
					<g>
						<circle class="st5" cx="1421.94" cy="812.5" r="7.09"/>
						<path class="st14" d="M1421.94,821.18c-4.78,0-8.67-3.89-8.67-8.67c0-4.78,3.89-8.67,8.67-8.67s8.67,3.89,8.67,8.67
							C1430.61,817.29,1426.72,821.18,1421.94,821.18z M1421.94,806.99c-3.04,0-5.52,2.47-5.52,5.52c0,3.04,2.47,5.52,5.52,5.52
							s5.52-2.47,5.52-5.52C1427.45,809.46,1424.98,806.99,1421.94,806.99z"/>
					</g>
					<g>
						<circle class="st5" cx="1677.16" cy="805.41" r="7.09"/>
						<path class="st14" d="M1677.16,814.08c-4.78,0-8.67-3.89-8.67-8.67c0-4.78,3.89-8.67,8.67-8.67c4.78,0,8.67,3.89,8.67,8.67
							C1685.83,810.19,1681.94,814.08,1677.16,814.08z M1677.16,799.9c-3.04,0-5.52,2.47-5.52,5.52c0,3.04,2.47,5.52,5.52,5.52
							c3.04,0,5.52-2.47,5.52-5.52C1682.68,802.37,1680.2,799.9,1677.16,799.9z"/>
					</g>
					<g>
						<path class="st5" d="M1769.32,784.74c0,3.92-3.18,7.09-7.09,7.09c-3.92,0-7.09-3.18-7.09-7.09c0-3.92,3.18-7.09,7.09-7.09
							C1766.15,777.64,1769.32,780.82,1769.32,784.74z"/>
						<path class="st14" d="M1762.23,793.41c-4.78,0-8.67-3.89-8.67-8.67c0-4.78,3.89-8.67,8.67-8.67c4.78,0,8.67,3.89,8.67,8.67
							C1770.9,789.52,1767.01,793.41,1762.23,793.41z M1762.23,779.22c-3.04,0-5.52,2.48-5.52,5.52c0,3.04,2.47,5.52,5.52,5.52
							s5.52-2.48,5.52-5.52C1767.75,781.7,1765.27,779.22,1762.23,779.22z"/>
					</g>
					<g>
						<circle class="st5" cx="1592.08" cy="796.83" r="7.09"/>
						<path class="st14" d="M1592.08,805.5c-4.78,0-8.67-3.89-8.67-8.67c0-4.78,3.89-8.67,8.67-8.67s8.67,3.89,8.67,8.67
							C1600.75,801.61,1596.86,805.5,1592.08,805.5z M1592.08,791.31c-3.04,0-5.52,2.47-5.52,5.52c0,3.04,2.47,5.52,5.52,5.52
							s5.52-2.47,5.52-5.52C1597.6,793.79,1595.13,791.31,1592.08,791.31z"/>
					</g>
					<g>
						<circle class="st5" cx="1081.65" cy="856.5" r="7.09"/>
						<path class="st14" d="M1081.65,865.17c-4.78,0-8.67-3.89-8.67-8.67c0-4.78,3.89-8.67,8.67-8.67c4.78,0,8.67,3.89,8.67,8.67
							C1090.32,861.28,1086.43,865.17,1081.65,865.17z M1081.65,850.98c-3.04,0-5.52,2.47-5.52,5.52c0,3.04,2.47,5.52,5.52,5.52
							c3.04,0,5.52-2.47,5.52-5.52C1087.16,853.45,1084.69,850.98,1081.65,850.98z"/>
					</g>
				</g>
				<g>
					<path class="st15" d="M826.43,916.1l85.01-11.03l-0.24,0.09l84.88-58.58l0.09-0.06l0.1-0.04l85-31.91l0.36-0.13l0.37,0.12
						l85.13,28.51l0.14,0.05l0.13,0.08l85.17,52.82l-1.29-0.12c28.34-11.26,56.64-22.62,85.05-33.71l0.63-0.25l0.6,0.3l84.99,42.19
						l-1.6,0.33l85.21-100.09l0.52-0.61l0.75,0.28l85,32.02l-0.45-0.05l85.1-10.35l0.06-0.01l0.06,0l85.05,4.38l-0.07,0.01
						l31.77-10.75l-31.64,11.12l-0.03,0.01l-0.04,0l-85.1-3.31l0.12,0l-85.05,10.78l-0.23,0.03l-0.22-0.08l-85.14-31.66l1.27-0.33
						l-84.93,100.33l-0.67,0.79l-0.93-0.46l-85.15-41.87l1.22,0.05c-28.31,11.34-56.72,22.42-85.1,33.59l-0.68,0.27l-0.61-0.38
						l-84.98-53.13l0.26,0.12l-85.01-28.86l0.72-0.01l-85.14,31.55l0.19-0.1l-85.26,58.03l-0.11,0.08l-0.13,0.02L826.43,916.1z"/>
					<g>
						<circle class="st5" cx="911.5" cy="905.62" r="7.09"/>
						<path class="st16" d="M911.5,914.29c-4.78,0-8.67-3.89-8.67-8.67s3.89-8.67,8.67-8.67c4.78,0,8.67,3.89,8.67,8.67
							S916.28,914.29,911.5,914.29z M911.5,900.1c-3.04,0-5.52,2.47-5.52,5.52s2.48,5.52,5.52,5.52c3.04,0,5.52-2.47,5.52-5.52
							S914.54,900.1,911.5,900.1z"/>
					</g>
					<g>
						<circle class="st5" cx="996.57" cy="847.31" r="7.09"/>
						<path class="st16" d="M996.57,855.98c-4.78,0-8.67-3.89-8.67-8.67c0-4.78,3.89-8.67,8.67-8.67c4.78,0,8.67,3.89,8.67,8.67
							C1005.24,852.09,1001.35,855.98,996.57,855.98z M996.57,841.8c-3.04,0-5.52,2.48-5.52,5.52c0,3.04,2.47,5.52,5.52,5.52
							s5.52-2.48,5.52-5.52C1002.09,844.27,999.62,841.8,996.57,841.8z"/>
					</g>
					<g>
						<circle class="st5" cx="1166.72" cy="844.79" r="7.09"/>
						<path class="st16" d="M1166.72,853.46c-4.78,0-8.67-3.89-8.67-8.67s3.89-8.67,8.67-8.67c4.78,0,8.67,3.89,8.67,8.67
							S1171.5,853.46,1166.72,853.46z M1166.72,839.27c-3.04,0-5.52,2.47-5.52,5.52s2.48,5.52,5.52,5.52c3.04,0,5.52-2.47,5.52-5.52
							S1169.76,839.27,1166.72,839.27z"/>
					</g>
					<g>
						<circle class="st5" cx="1336.33" cy="864.7" r="7.09"/>
						<path class="st16" d="M1336.34,873.37c-4.78,0-8.67-3.89-8.67-8.67s3.89-8.67,8.67-8.67s8.67,3.89,8.67,8.67
							S1341.12,873.37,1336.34,873.37z M1336.34,859.18c-3.04,0-5.52,2.47-5.52,5.52s2.48,5.52,5.52,5.52
							c3.04,0,5.52-2.47,5.52-5.52S1339.38,859.18,1336.34,859.18z"/>
					</g>
					<g>
						<circle class="st5" cx="1507.01" cy="805.41" r="7.09"/>
						<path class="st16" d="M1507.01,814.08c-4.78,0-8.67-3.89-8.67-8.67c0-4.78,3.89-8.67,8.67-8.67c4.78,0,8.67,3.89,8.67,8.67
							C1515.68,810.19,1511.79,814.08,1507.01,814.08z M1507.01,799.9c-3.04,0-5.52,2.47-5.52,5.52c0,3.04,2.47,5.52,5.52,5.52
							c3.04,0,5.52-2.47,5.52-5.52C1512.53,802.37,1510.05,799.9,1507.01,799.9z"/>
					</g>
					<g>
						<circle class="st5" cx="1251.79" cy="896.18" r="7.09"/>
						<path class="st16" d="M1251.79,904.85c-4.78,0-8.67-3.89-8.67-8.67c0-4.78,3.89-8.67,8.67-8.67c4.78,0,8.67,3.89,8.67,8.67
							C1260.46,900.96,1256.57,904.85,1251.79,904.85z M1251.79,890.66c-3.04,0-5.52,2.47-5.52,5.52c0,3.04,2.47,5.52,5.52,5.52
							c3.04,0,5.52-2.47,5.52-5.52C1257.31,893.14,1254.83,890.66,1251.79,890.66z"/>
					</g>
					<g>
						<circle class="st5" cx="1421.94" cy="904.33" r="7.09"/>
						<path class="st16" d="M1421.94,913c-4.78,0-8.67-3.89-8.67-8.67s3.89-8.67,8.67-8.67s8.67,3.89,8.67,8.67
							S1426.72,913,1421.94,913z M1421.94,898.82c-3.04,0-5.52,2.48-5.52,5.52c0,3.04,2.47,5.52,5.52,5.52s5.52-2.48,5.52-5.52
							C1427.45,901.29,1424.98,898.82,1421.94,898.82z"/>
					</g>
					<g>
						<path class="st5" d="M1684.25,826.74c0,3.92-3.18,7.09-7.09,7.09s-7.09-3.18-7.09-7.09c0-3.92,3.18-7.09,7.09-7.09
							S1684.25,822.82,1684.25,826.74z"/>
						<path class="st16" d="M1677.16,835.41c-4.78,0-8.67-3.89-8.67-8.67c0-4.78,3.89-8.67,8.67-8.67c4.78,0,8.67,3.89,8.67,8.67
							C1685.83,831.52,1681.94,835.41,1677.16,835.41z M1677.16,821.22c-3.04,0-5.52,2.47-5.52,5.52c0,3.04,2.47,5.52,5.52,5.52
							c3.04,0,5.52-2.48,5.52-5.52C1682.68,823.69,1680.2,821.22,1677.16,821.22z"/>
					</g>
					<g>
						<path class="st5" d="M1769.32,830.54c0,3.92-3.18,7.09-7.09,7.09c-3.92,0-7.09-3.18-7.09-7.09c0-3.92,3.18-7.09,7.09-7.09
							C1766.15,823.44,1769.32,826.62,1769.32,830.54z"/>
						<path class="st16" d="M1762.23,839.21c-4.78,0-8.67-3.89-8.67-8.67c0-4.78,3.89-8.67,8.67-8.67c4.78,0,8.67,3.89,8.67,8.67
							C1770.9,835.32,1767.01,839.21,1762.23,839.21z M1762.23,825.02c-3.04,0-5.52,2.47-5.52,5.52s2.47,5.52,5.52,5.52
							s5.52-2.47,5.52-5.52S1765.27,825.02,1762.23,825.02z"/>
					</g>
					<g>
						<circle class="st5" cx="1592.08" cy="837.63" r="7.09"/>
						<path class="st16" d="M1592.08,846.3c-4.78,0-8.67-3.89-8.67-8.67c0-4.78,3.89-8.67,8.67-8.67s8.67,3.89,8.67,8.67
							C1600.75,842.41,1596.86,846.3,1592.08,846.3z M1592.08,832.11c-3.04,0-5.52,2.47-5.52,5.52c0,3.04,2.47,5.52,5.52,5.52
							s5.52-2.47,5.52-5.52C1597.6,834.59,1595.13,832.11,1592.08,832.11z"/>
					</g>
					<g>
						<circle class="st5" cx="1081.65" cy="815.58" r="7.09"/>
						<path class="st16" d="M1081.65,824.25c-4.78,0-8.67-3.89-8.67-8.67s3.89-8.67,8.67-8.67c4.78,0,8.67,3.89,8.67,8.67
							S1086.43,824.25,1081.65,824.25z M1081.65,810.06c-3.04,0-5.52,2.47-5.52,5.52s2.47,5.52,5.52,5.52
							c3.04,0,5.52-2.47,5.52-5.52S1084.69,810.06,1081.65,810.06z"/>
					</g>
				</g>
				<g>
					<path class="st8" d="M826.43,725.39l0.59,121.92l0.33,121.92l-0.92-0.92l265.39-0.43l132.69-0.21l132.69,0.19l265.39,0.43
						c88.46,0.03,176.93,0.54,265.39,0.95c-88.46,0.41-176.93,0.92-265.39,0.95l-265.39,0.43l-132.69,0.19l-132.69-0.21
						l-265.39-0.43l-0.93,0l0-0.92l0.33-121.92L826.43,725.39z"/>
					<path class="st8" d="M818.59,737.98c2.61-1.24,5.23-1.52,7.84-1.58c2.61,0.05,5.23,0.33,7.84,1.58
						c-2.61,1.25-5.23,1.53-7.84,1.58C823.81,739.5,821.2,739.22,818.59,737.98z"/>
					<path class="st8" d="M818.59,797.24c2.61-1.24,5.23-1.52,7.84-1.58c2.61,0.05,5.23,0.33,7.84,1.58
						c-2.61,1.25-5.23,1.53-7.84,1.58C823.81,798.76,821.2,798.48,818.59,797.24z"/>
					<path class="st8" d="M818.59,856.5c2.61-1.24,5.23-1.52,7.84-1.58c2.61,0.05,5.23,0.33,7.84,1.58
						c-2.61,1.25-5.23,1.53-7.84,1.58C823.81,858.02,821.2,857.74,818.59,856.5z"/>
					<path class="st8" d="M818.59,915.76c2.61-1.24,5.23-1.52,7.84-1.58c2.61,0.05,5.23,0.33,7.84,1.58
						c-2.61,1.25-5.23,1.53-7.84,1.58C823.81,917.28,821.2,917,818.59,915.76z"/>
				</g>
			</g>
			<g>
				<g>
					<rect x="826.43" y="1020.32" class="st14" width="163.05" height="76.85"/>
					<rect x="826.43" y="1020.32" class="st7" width="78.17" height="76.85"/>
					<g>
						<g>
							<path class="st3" d="M893.19,1058.75c0,15.28-12.39,27.67-27.67,27.67c-15.28,0-27.67-12.39-27.67-27.67
								s12.39-27.67,27.67-27.67c10.27,0,19.24,5.6,24.02,13.92C891.85,1049.04,893.19,1053.74,893.19,1058.75z"/>
							<path class="st14" d="M889.53,1044.99l-24.02,13.76v-27.67C875.79,1031.07,884.75,1036.67,889.53,1044.99z"/>
						</g>
						<g>
							<g>
								<path class="st5" d="M884.65,1058.75c0,10.57-8.57,19.14-19.14,19.14c-10.57,0-19.14-8.57-19.14-19.14
									c0-10.57,8.57-19.14,19.14-19.14C876.08,1039.61,884.65,1048.17,884.65,1058.75z"/>
							</g>
						</g>
					</g>
					<g>
						<rect x="883.18" y="1038.67" class="st5" width="31.12" height="1.58"/>
						<path class="st5" d="M917.62,1039.46c0,1.83-1.49,3.32-3.32,3.32c-1.83,0-3.32-1.49-3.32-3.32c0-1.83,1.49-3.32,3.32-3.32
							C916.13,1036.14,917.62,1037.63,917.62,1039.46z"/>
					</g>
					<g>
						<rect x="922.86" y="1055.81" class="st5" width="47.9" height="2.45"/>
						<rect x="922.86" y="1061.9" class="st5" width="40.03" height="2.45"/>
						<rect x="922.86" y="1067.99" class="st5" width="56.11" height="2.45"/>
						<rect x="922.86" y="1074.07" class="st5" width="23.95" height="2.45"/>
						<rect x="922.86" y="1080.16" class="st5" width="47.9" height="2.45"/>
					</g>
				</g>
				<g>
					<rect x="1026.16" y="1020.32" class="st14" width="163.05" height="76.85"/>
					<rect x="1026.16" y="1020.32" class="st7" width="78.17" height="76.85"/>
					<g>
						<g>
							<g>
								<path class="st3" d="M1092.92,1058.75c0,1.38-0.1,2.73-0.3,4.05c-1.95,13.36-13.46,23.62-27.37,23.62
									c-15.28,0-27.67-12.39-27.67-27.67c0-15.28,12.39-27.67,27.67-27.67c10.27,0,19.23,5.6,24.02,13.92
									C1091.59,1049.04,1092.92,1053.74,1092.92,1058.75z"/>
								<path class="st14" d="M1092.92,1058.75c0,1.38-0.1,2.73-0.3,4.05l-27.37-4.05v-27.67c10.27,0,19.23,5.6,24.02,13.92
									C1091.59,1049.04,1092.92,1053.74,1092.92,1058.75z"/>
							</g>
							<g>
								<g>
									<path class="st5" d="M1084.38,1058.74c0,10.57-8.57,19.14-19.14,19.14c-10.57,0-19.14-8.57-19.14-19.14
										s8.57-19.14,19.14-19.14C1075.81,1039.61,1084.38,1048.17,1084.38,1058.74z"/>
								</g>
							</g>
						</g>
					</g>
					<g>
						<rect x="1082.92" y="1038.67" class="st5" width="31.12" height="1.58"/>
						<path class="st5" d="M1117.35,1039.46c0,1.83-1.49,3.32-3.32,3.32c-1.83,0-3.32-1.49-3.32-3.32c0-1.83,1.49-3.32,3.32-3.32
							C1115.87,1036.14,1117.35,1037.63,1117.35,1039.46z"/>
					</g>
					<g>
						<rect x="1122.6" y="1055.81" class="st5" width="46.17" height="2.45"/>
						<rect x="1122.6" y="1061.9" class="st5" width="26.51" height="2.45"/>
						<rect x="1122.6" y="1067.99" class="st5" width="42.77" height="2.45"/>
						<rect x="1122.6" y="1074.07" class="st5" width="56.11" height="2.45"/>
						<rect x="1122.6" y="1080.16" class="st5" width="32.54" height="2.45"/>
					</g>
				</g>
				<g>
					<rect x="1225.9" y="1020.32" class="st14" width="163.05" height="76.85"/>
					<rect x="1225.9" y="1020.32" class="st7" width="78.17" height="76.85"/>
					<g>
						<g>
							<g>
								<path class="st3" d="M1292.66,1058.75c0,11.78-7.37,21.86-17.76,25.84c-3.08,1.19-6.43,1.84-9.92,1.84
									c-15.28,0-27.67-12.39-27.67-27.67c0-15.28,12.39-27.67,27.67-27.67c10.28,0,19.24,5.6,24.02,13.92
									C1291.33,1049.04,1292.66,1053.74,1292.66,1058.75z"/>
								<path class="st14" d="M1292.66,1058.75c0,11.78-7.37,21.86-17.76,25.84l-9.92-25.84v-27.67c10.28,0,19.24,5.6,24.02,13.92
									C1291.33,1049.04,1292.66,1053.74,1292.66,1058.75z"/>
							</g>
							<g>
								<g>
									<path class="st5" d="M1284.12,1058.74c0,10.57-8.57,19.14-19.14,19.14c-10.57,0-19.14-8.57-19.14-19.14
										s8.57-19.14,19.14-19.14C1275.55,1039.61,1284.12,1048.17,1284.12,1058.74z"/>
								</g>
							</g>
						</g>
					</g>
					<g>
						<rect x="1282.65" y="1038.67" class="st5" width="31.12" height="1.58"/>
						<circle class="st5" cx="1313.77" cy="1039.46" r="3.32"/>
					</g>
					<g>
						<rect x="1322.33" y="1055.81" class="st5" width="44.1" height="2.45"/>
						<rect x="1322.33" y="1061.9" class="st5" width="56.11" height="2.45"/>
						<rect x="1322.33" y="1067.99" class="st5" width="33.7" height="2.45"/>
						<rect x="1322.33" y="1074.07" class="st5" width="49" height="2.45"/>
						<rect x="1322.33" y="1080.16" class="st5" width="19.8" height="2.45"/>
					</g>
				</g>
				<g>
					<rect x="1425.63" y="1020.32" class="st14" width="163.05" height="76.85"/>
					<rect x="1425.63" y="1020.32" class="st7" width="78.17" height="76.85"/>
					<g>
						<g>
							<g>
								<path class="st3" d="M1492.39,1058.74c0,5.88-1.84,11.34-4.97,15.82c-5,7.17-13.31,11.86-22.71,11.86
									c-6.85,0-13.13-2.49-17.96-6.63c-5.95-5.07-9.71-12.61-9.71-21.04c0-15.28,12.39-27.67,27.67-27.67
									c10.27,0,19.23,5.6,24.02,13.92C1491.06,1049.04,1492.39,1053.74,1492.39,1058.74z"/>
								<path class="st14" d="M1492.39,1058.74c0,5.88-1.84,11.34-4.97,15.82c-5,7.17-13.31,11.86-22.71,11.86
									c-6.85,0-13.13-2.49-17.96-6.63l17.96-21.04v-27.67c10.27,0,19.23,5.6,24.02,13.92
									C1491.06,1049.04,1492.39,1053.74,1492.39,1058.74z"/>
							</g>
							<g>
								<g>
									<path class="st5" d="M1483.85,1058.74c0,10.57-8.57,19.14-19.14,19.14c-10.57,0-19.14-8.57-19.14-19.14
										c0-10.57,8.57-19.14,19.14-19.14C1475.28,1039.6,1483.85,1048.17,1483.85,1058.74z"/>
								</g>
							</g>
						</g>
					</g>
					<g>
						<rect x="1482.39" y="1038.67" class="st5" width="31.12" height="1.58"/>
						<path class="st5" d="M1516.82,1039.46c0,1.83-1.49,3.32-3.32,3.32c-1.83,0-3.32-1.49-3.32-3.32c0-1.83,1.49-3.32,3.32-3.32
							C1515.34,1036.14,1516.82,1037.63,1516.82,1039.46z"/>
					</g>
					<g>
						<rect x="1522.07" y="1055.81" class="st5" width="36.04" height="2.45"/>
						<rect x="1522.07" y="1061.9" class="st5" width="56.11" height="2.45"/>
						<rect x="1522.07" y="1067.99" class="st5" width="25.56" height="2.45"/>
						<rect x="1522.07" y="1074.07" class="st5" width="45.83" height="2.45"/>
						<rect x="1522.07" y="1080.16" class="st5" width="40.59" height="2.45"/>
					</g>
				</g>
			</g>
			<g>
				<g>
					<rect x="848.79" y="1166.64" class="st14" width="27.76" height="141.08"/>
					<rect x="868.33" y="1166.64" class="st17" width="8.23" height="141.08"/>
				</g>
				<g>
					<rect x="896.51" y="1190.09" class="st14" width="27.76" height="117.63"/>
					<rect x="916.04" y="1190.09" class="st17" width="8.23" height="117.63"/>
				</g>
				<g>
					<rect x="944.22" y="1232.85" class="st14" width="27.76" height="74.87"/>
					<rect x="963.76" y="1232.85" class="st17" width="8.23" height="74.87"/>
				</g>
				<g>
					<rect x="991.94" y="1248.52" class="st14" width="27.76" height="59.2"/>
					<rect x="1011.48" y="1248.52" class="st17" width="8.23" height="59.2"/>
				</g>
				<g>
					<rect x="1039.66" y="1207.69" class="st14" width="27.76" height="100.03"/>
					<rect x="1059.19" y="1207.69" class="st17" width="8.23" height="100.03"/>
				</g>
				<g>
					<rect x="1087.38" y="1163.9" class="st14" width="27.76" height="143.82"/>
					<rect x="1106.91" y="1163.9" class="st17" width="8.23" height="143.82"/>
				</g>
				<g>
					<rect x="1135.22" y="1148.95" class="st14" width="27.76" height="158.77"/>
					<rect x="1154.76" y="1148.95" class="st17" width="8.23" height="158.77"/>
				</g>
				<g>
					<rect x="1183.07" y="1138.12" class="st14" width="27.76" height="169.6"/>
					<rect x="1202.61" y="1138.12" class="st17" width="8.23" height="169.6"/>
				</g>
				<g>
					<path class="st7" d="M832.69,1137.19l0.32,42.63l0.16,42.63l0.22,85.27l-0.7-0.7c67.44-0.2,134.87,0.09,202.31,0.14
						l101.15,0.15l101.15,0.41l-101.15,0.41l-101.15,0.15c-67.44,0.05-134.87,0.34-202.31,0.14l-0.71,0l0-0.7l0.22-85.27l0.16-42.63
						L832.69,1137.19z"/>
					<path class="st7" d="M826.57,1146.98c2.04-0.61,4.08-0.76,6.12-0.79c2.04,0.03,4.08,0.17,6.12,0.79
						c-2.04,0.62-4.08,0.76-6.12,0.79C830.65,1147.73,828.61,1147.59,826.57,1146.98z"/>
					<path class="st7" d="M826.57,1163.9c2.04-0.61,4.08-0.76,6.12-0.79c2.04,0.03,4.08,0.17,6.12,0.79
						c-2.04,0.62-4.08,0.76-6.12,0.79C830.65,1164.66,828.61,1164.52,826.57,1163.9z"/>
					<path class="st7" d="M826.57,1180.82c2.04-0.61,4.08-0.76,6.12-0.79c2.04,0.03,4.08,0.17,6.12,0.79
						c-2.04,0.62-4.08,0.76-6.12,0.79C830.65,1181.58,828.61,1181.44,826.57,1180.82z"/>
					<path class="st7" d="M826.57,1197.75c2.04-0.61,4.08-0.76,6.12-0.79c2.04,0.03,4.08,0.17,6.12,0.79
						c-2.04,0.62-4.08,0.76-6.12,0.79C830.65,1198.51,828.61,1198.36,826.57,1197.75z"/>
					<path class="st7" d="M826.57,1214.67c2.04-0.61,4.08-0.76,6.12-0.79c2.04,0.03,4.08,0.17,6.12,0.79
						c-2.04,0.62-4.08,0.76-6.12,0.79C830.65,1215.43,828.61,1215.29,826.57,1214.67z"/>
					<path class="st7" d="M826.57,1231.6c2.04-0.61,4.08-0.76,6.12-0.79c2.04,0.03,4.08,0.17,6.12,0.79
						c-2.04,0.62-4.08,0.76-6.12,0.79C830.65,1232.35,828.61,1232.21,826.57,1231.6z"/>
					<path class="st7" d="M826.57,1248.52c2.04-0.61,4.08-0.76,6.12-0.79c2.04,0.03,4.08,0.17,6.12,0.79
						c-2.04,0.62-4.08,0.76-6.12,0.79C830.65,1249.28,828.61,1249.13,826.57,1248.52z"/>
					<path class="st7" d="M826.57,1265.44c2.04-0.61,4.08-0.76,6.12-0.79c2.04,0.03,4.08,0.17,6.12,0.79
						c-2.04,0.62-4.08,0.76-6.12,0.79C830.65,1266.2,828.61,1266.06,826.57,1265.44z"/>
					<path class="st7" d="M826.57,1282.37c2.04-0.61,4.08-0.76,6.12-0.79c2.04,0.03,4.08,0.17,6.12,0.79
						c-2.04,0.62-4.08,0.76-6.12,0.79C830.65,1283.12,828.61,1282.98,826.57,1282.37z"/>
				</g>
				<g>
					<path class="st15" d="M832.69,1167.5c9.08-1.27,18.34-1.32,27.47-0.25c9.12,1.08,18.17,3.31,26.59,7.12
						c4.2,1.91,8.22,4.24,11.97,6.96c3.73,2.73,7.19,5.88,10.41,9.12c6.56,6.43,12.84,13.14,19.17,19.76
						c6.35,6.6,12.76,13.13,19.87,18.79c7.09,5.66,15.01,10.25,23.59,13.16c8.56,2.95,17.59,4.33,26.66,4.95
						c4.54,0.08,9.14,0.44,13.56-0.01c2.23-0.19,4.43-0.67,6.63-1.08c2.15-0.66,4.37-1.07,6.47-1.92
						c8.52-2.98,16.49-7.49,24.07-12.52c7.58-5.05,14.81-10.67,21.91-16.43c14.2-11.54,27.88-23.8,42.36-35.11
						c14.4-11.37,29.6-21.95,46.14-30.05c16.55-7.99,34.75-12.92,53.13-12.81c-18.39,0.28-36.36,5.57-52.62,13.85
						c-16.32,8.26-31.3,18.93-45.52,30.44c-14.25,11.49-27.95,23.68-42.13,35.36c-7.11,5.82-14.36,11.5-22.02,16.65
						c-7.66,5.12-15.75,9.77-24.55,12.87c-2.16,0.87-4.48,1.3-6.72,1.96c-2.3,0.42-4.6,0.9-6.93,1.1
						c-4.72,0.45-9.29,0.06-13.92-0.04c-9.21-0.66-18.44-2.11-27.23-5.17c-8.8-3.02-16.95-7.79-24.15-13.59
						c-7.24-5.78-13.64-12.45-19.91-19.14c-6.26-6.71-12.44-13.47-18.9-19.95c-3.19-3.3-6.51-6.38-10.14-9.11
						c-3.64-2.71-7.57-5.03-11.68-6.98C869.75,1167.67,850.85,1165.53,832.69,1167.5z"/>
					<g>
						<path class="st5" d="M844.94,1167.27c0,3.38-2.74,6.12-6.12,6.12c-3.38,0-6.12-2.74-6.12-6.12c0-3.38,2.74-6.12,6.12-6.12
							C842.2,1161.15,844.94,1163.89,844.94,1167.27z"/>
						<path class="st15" d="M838.82,1174.18c-3.81,0-6.91-3.1-6.91-6.91c0-3.81,3.1-6.91,6.91-6.91c3.81,0,6.91,3.1,6.91,6.91
							C845.73,1171.08,842.63,1174.18,838.82,1174.18z M838.82,1161.93c-2.94,0-5.34,2.39-5.34,5.33c0,2.94,2.39,5.34,5.34,5.34
							s5.34-2.39,5.34-5.34C844.15,1164.33,841.76,1161.93,838.82,1161.93z"/>
					</g>
					<g>
						<path class="st5" d="M1021.72,1248.52c0,3.38-2.74,6.12-6.12,6.12c-3.38,0-6.12-2.74-6.12-6.12c0-3.38,2.74-6.12,6.12-6.12
							C1018.97,1242.39,1021.72,1245.14,1021.72,1248.52z"/>
						<path class="st15" d="M1015.59,1255.43c-3.81,0-6.91-3.1-6.91-6.91c0-3.81,3.1-6.91,6.91-6.91c3.81,0,6.91,3.1,6.91,6.91
							C1022.5,1252.33,1019.4,1255.43,1015.59,1255.43z M1015.59,1243.18c-2.94,0-5.34,2.39-5.34,5.33c0,2.94,2.39,5.34,5.34,5.34
							s5.34-2.39,5.34-5.34C1020.93,1245.58,1018.53,1243.18,1015.59,1243.18z"/>
					</g>
					<g>
						<path class="st5" d="M1216.96,1137.19c0,3.38-2.74,6.12-6.12,6.12c-3.38,0-6.12-2.74-6.12-6.12c0-3.38,2.74-6.12,6.12-6.12
							C1214.22,1131.06,1216.96,1133.8,1216.96,1137.19z"/>
						<path class="st15" d="M1210.84,1144.1c-3.81,0-6.91-3.1-6.91-6.91c0-3.81,3.1-6.91,6.91-6.91s6.91,3.1,6.91,6.91
							C1217.75,1141,1214.65,1144.1,1210.84,1144.1z M1210.84,1131.85c-2.94,0-5.34,2.39-5.34,5.33c0,2.94,2.39,5.33,5.34,5.33
							s5.34-2.39,5.34-5.33C1216.17,1134.24,1213.78,1131.85,1210.84,1131.85z"/>
					</g>
				</g>
			</g>
			<g>
				<g>
					<polygon class="st14" points="1341.36,1277.95 1340.22,1275.88 1354.9,1267.77 1367.58,1271.67 1391.15,1254.88 
						1417.02,1269.74 1449.13,1247.07 1450.49,1249 1417.15,1272.54 1391.28,1257.69 1368,1274.28 1355.16,1270.32 					"/>
					<g>
						<polygon class="st14" points="1451.01,1251.52 1453.97,1245.1 1446.92,1245.74 						"/>
					</g>
				</g>
				<rect x="1340.79" y="1282.24" class="st7" width="110.97" height="1.58"/>
				<rect x="1340.79" y="1289.93" class="st7" width="25.89" height="1.58"/>
			</g>
			<rect x="1301.36" y="1142.49" class="st8" width="2.75" height="165.24"/>
			<g>
				<g>
					<polygon class="st14" points="1541.48,1277.59 1539.54,1276.24 1554.3,1255.04 1567.49,1259.74 1591.01,1250.17 
						1616.92,1264.34 1648.5,1253.35 1649.27,1255.58 1616.7,1266.93 1590.86,1252.78 1567.54,1262.27 1555.21,1257.88 					"/>
					<g>
						<polygon class="st14" points="1649.07,1258.15 1653.69,1252.79 1646.74,1251.46 						"/>
					</g>
				</g>
				<rect x="1540.51" y="1282.24" class="st7" width="110.97" height="1.58"/>
				<rect x="1540.51" y="1289.93" class="st7" width="25.89" height="1.58"/>
			</g>
			<rect x="1501.09" y="1142.49" class="st8" width="2.75" height="165.24"/>
			<g>
				<g>
					<polygon class="st14" points="1741.14,1277.76 1739.5,1276.06 1754.22,1261.96 1767.36,1265.47 1790.75,1261.02 
						1816.51,1266.5 1848.33,1253.6 1849.22,1255.8 1816.72,1268.97 1790.73,1263.44 1767.27,1267.9 1754.89,1264.59 					"/>
					<g>
						<polygon class="st14" points="1849.15,1258.37 1853.5,1252.79 1846.49,1251.81 						"/>
					</g>
				</g>
				<rect x="1740.32" y="1282.24" class="st7" width="110.97" height="1.58"/>
				<rect x="1740.32" y="1289.93" class="st7" width="25.89" height="1.58"/>
			</g>
			<rect x="1700.89" y="1142.49" class="st8" width="2.75" height="165.24"/>
			<g>
				<rect x="1625.37" y="1018.77" class="st7" width="262.62" height="78.4"/>
				<g>
					<rect x="1639.32" y="1028.66" class="st5" width="234.72" height="6.78"/>
					<rect x="1639.32" y="1028.66" class="st14" width="120" height="6.78"/>
					<rect x="1639.32" y="1041.62" class="st5" width="234.72" height="6.78"/>
					<rect x="1639.32" y="1041.62" class="st14" width="215.3" height="6.78"/>
					<rect x="1639.32" y="1054.58" class="st5" width="234.72" height="6.78"/>
					<rect x="1639.32" y="1054.58" class="st14" width="69.44" height="6.78"/>
					<rect x="1639.32" y="1067.54" class="st5" width="234.72" height="6.78"/>
					<rect x="1639.32" y="1067.54" class="st14" width="184.45" height="6.78"/>
					<rect x="1639.32" y="1080.5" class="st5" width="234.72" height="6.78"/>
					<rect x="1639.32" y="1080.5" class="st14" width="135.62" height="6.78"/>
				</g>
			</g>
		</g>
	</g>
</g>
<g>
	<g>
		<rect x="1715.04" y="442.07" class="st7" width="462.32" height="270.44"/>
	</g>
	<g>
		<rect x="1715.04" y="442.07" class="st8" width="159.37" height="270.44"/>
	</g>
	<g>
		<path class="st5" d="M1899.38,503.98c42.03-0.37,84.06-0.28,126.09-0.43c42.03,0.15,84.06,0.06,126.09,0.43
			c-42.03,0.37-84.06,0.28-126.09,0.43C1983.44,504.25,1941.41,504.35,1899.38,503.98z"/>
		<path class="st5" d="M1899.38,539.28c42.03-0.37,84.06-0.28,126.09-0.43c42.03,0.15,84.06,0.06,126.09,0.43
			c-42.03,0.37-84.06,0.28-126.09,0.43C1983.44,539.56,1941.41,539.65,1899.38,539.28z"/>
		<path class="st5" d="M1899.38,574.59c42.03-0.37,84.06-0.28,126.09-0.43c42.03,0.15,84.06,0.06,126.09,0.43
			c-42.03,0.37-84.06,0.28-126.09,0.43C1983.44,574.86,1941.41,574.96,1899.38,574.59z"/>
		<path class="st5" d="M1899.38,609.89c42.03-0.37,84.06-0.28,126.09-0.43c42.03,0.15,84.06,0.06,126.09,0.43
			c-42.03,0.37-84.06,0.28-126.09,0.43C1983.44,610.17,1941.41,610.26,1899.38,609.89z"/>
		<path class="st5" d="M1899.38,645.2c42.03-0.37,84.06-0.28,126.09-0.43c42.03,0.15,84.06,0.06,126.09,0.43
			c-42.03,0.37-84.06,0.28-126.09,0.43C1983.44,645.47,1941.41,645.57,1899.38,645.2z"/>
		<path class="st5" d="M1950.15,481.02c0.37,32.99,0.28,65.98,0.43,98.97c-0.15,32.99-0.06,65.98-0.43,98.97
			c-0.37-32.99-0.28-65.98-0.43-98.97C1949.88,547,1949.78,514.01,1950.15,481.02z"/>
		<path class="st5" d="M1993.76,481.02c0.37,32.99,0.28,65.98,0.43,98.97c-0.15,32.99-0.06,65.98-0.43,98.97
			c-0.37-32.99-0.28-65.98-0.43-98.97C1993.48,547,1993.39,514.01,1993.76,481.02z"/>
		<path class="st5" d="M2037.37,481.02c0.37,32.99,0.28,65.98,0.43,98.97c-0.15,32.99-0.06,65.98-0.43,98.97
			c-0.37-32.99-0.28-65.98-0.43-98.97C2037.09,547,2037,514.01,2037.37,481.02z"/>
		<path class="st5" d="M2080.98,481.02c0.37,32.99,0.28,65.98,0.43,98.97c-0.15,32.99-0.06,65.98-0.43,98.97
			c-0.37-32.99-0.28-65.98-0.43-98.97C2080.7,547,2080.61,514.01,2080.98,481.02z"/>
		<path class="st5" d="M2124.59,481.02c0.37,32.99,0.28,65.98,0.43,98.97c-0.15,32.99-0.06,65.98-0.43,98.97
			c-0.37-32.99-0.28-65.98-0.43-98.97C2124.31,547,2124.22,514.01,2124.59,481.02z"/>
		<path class="st18" d="M1905.73,619.59c7.7,0,12.29-35.86,23.19-35.86c10.9,0,12.05,26.17,21.23,26.17
			c9.18,0,8.89-45.96,21.23-45.96c12.34,0,9.47,18.65,22.38,18.65c12.91,0,8.03-43.3,21.52-43.3c13.48,0,8.03,59.65,22.09,59.65
			c8.89,0,12.34-18.95,22.95-18.95c7.03,0,11.17,9.48,20.36,9.48c9.33,0,11.2-36.44,22.67-36.44s12.79,21.56,21.23,21.56
			s11.48-35.31,26.97-35.31v139.67h-245.82V619.59z"/>
		<path class="st14" d="M2151.55,678.95"/>
		<path class="st14" d="M1905.73,621.32v-3.45c2.33,0,5.54-8.38,7.89-14.49c4.03-10.5,8.19-21.37,15.3-21.37
			c6.82,0,10.21,7.96,13.21,14.98c2.34,5.5,4.77,11.19,8.02,11.19c2.87,0,5.36-11.04,7.17-19.1c2.98-13.21,6.05-26.86,14.06-26.86
			c7.14,0,9.95,5.36,12.42,10.09c2.4,4.59,4.48,8.56,9.96,8.56c4.96,0,6.9-10.12,8.78-19.9c2.21-11.5,4.5-23.4,12.74-23.4
			c8.17,0,10.26,14.98,12.48,30.85c1.79,12.83,4.01,28.8,9.61,28.8c3.35,0,6.08-3.94,8.98-8.11c3.53-5.08,7.53-10.84,13.97-10.84
			c3.87,0,6.9,2.35,9.82,4.63c3.06,2.38,6.23,4.85,10.54,4.85c3.18,0,6.09-8.67,8.43-15.63c3.43-10.23,6.97-20.81,14.25-20.81
			c7.23,0,10.78,6.88,13.93,12.95c2.29,4.43,4.46,8.61,7.31,8.61c2.43,0,5.18-6.71,7.6-12.62c4.14-10.11,9.3-22.68,19.37-22.68v3.45
			c-7.75,0-12.23,10.91-16.17,20.54c-3.38,8.25-6.05,14.77-10.79,14.77c-4.95,0-7.58-5.09-10.37-10.48
			c-2.82-5.45-5.74-11.08-10.86-11.08c-4.79,0-8.08,9.8-10.98,18.45c-3.24,9.65-6.03,17.98-11.69,17.98c-5.49,0-9.3-2.96-12.66-5.58
			c-2.69-2.09-5.01-3.9-7.7-3.9c-4.64,0-7.94,4.76-11.14,9.36c-3.27,4.71-6.66,9.59-11.81,9.59c-8.6,0-10.75-15.44-13.04-31.78
			c-1.73-12.42-3.89-27.87-9.06-27.87c-5.39,0-7.49,10.94-9.35,20.6c-2.24,11.67-4.36,22.7-12.17,22.7
			c-7.57,0-10.46-5.53-13.02-10.41c-2.31-4.42-4.31-8.24-9.36-8.24c-5.24,0-8.26,13.4-10.69,24.17
			c-2.74,12.17-4.91,21.79-10.54,21.79c-5.53,0-8.28-6.46-11.2-13.29c-2.7-6.33-5.49-12.88-10.03-12.88
			c-4.74,0-8.81,10.62-12.08,19.15C1913.26,613.94,1910.43,621.32,1905.73,621.32z"/>
		<path class="st19" d="M1905.73,678.95"/>
		<path class="st5" d="M1905.73,483.17c0.28,32.63,0.52,65.26,0.54,97.89l0.26,97.89l-0.81-0.81l122.91,0.21l61.46,0.16l61.46,0.44
			l-61.46,0.44l-61.46,0.16l-122.91,0.2l-0.81,0l0-0.81l0.26-97.89C1905.21,548.43,1905.45,515.8,1905.73,483.17z"/>
	</g>
	<g>
		<rect x="1739.57" y="549.81" class="st14" width="14.39" height="14.39"/>
		<rect x="1771.24" y="549.81" class="st20" width="51.03" height="4.01"/>
		<rect x="1771.24" y="560.2" class="st20" width="76.36" height="4.01"/>
		<rect x="1771.24" y="570.58" class="st20" width="55.65" height="4.01"/>
	</g>
</g>
<g>
	<rect x="1200.55" y="197.6" class="st7" width="502.75" height="294.09"/>
	<rect x="1200.55" y="197.6" class="st21" width="270.43" height="294.09"/>
	<g>
		<g>
			<rect x="1504.62" y="240.79" class="st22" width="15.65" height="15.65"/>
			<rect x="1539.06" y="240.79" class="st20" width="104.14" height="4.36"/>
			<rect x="1539.06" y="252.08" class="st20" width="83.04" height="4.36"/>
			<rect x="1539.06" y="263.37" class="st20" width="53.39" height="4.36"/>
		</g>
		<g>
			<rect x="1504.62" y="286" class="st23" width="15.65" height="15.65"/>
			<rect x="1539.06" y="286" class="st20" width="69.35" height="4.36"/>
			<rect x="1539.06" y="297.29" class="st20" width="114.69" height="4.36"/>
			<rect x="1539.06" y="308.58" class="st20" width="126.88" height="4.36"/>
		</g>
		<g>
			<rect x="1504.62" y="331.21" class="st5" width="15.65" height="15.65"/>
			<rect x="1539.06" y="331.21" class="st20" width="83.04" height="4.36"/>
			<rect x="1539.06" y="342.5" class="st20" width="126.88" height="4.36"/>
			<rect x="1539.06" y="353.79" class="st20" width="45.12" height="4.36"/>
		</g>
		<g>
			<rect x="1504.62" y="376.43" class="st24" width="15.65" height="15.65"/>
			<rect x="1539.06" y="376.43" class="st20" width="92.74" height="4.36"/>
			<rect x="1539.06" y="387.72" class="st20" width="60.52" height="4.36"/>
			<rect x="1539.06" y="399.01" class="st20" width="126.88" height="4.36"/>
		</g>
		<g>
			<rect x="1504.62" y="421.64" class="st2" width="15.65" height="15.65"/>
			<rect x="1539.06" y="421.64" class="st20" width="110.99" height="4.36"/>
			<rect x="1539.06" y="432.93" class="st20" width="83.04" height="4.36"/>
			<rect x="1539.06" y="444.22" class="st20" width="60.52" height="4.36"/>
		</g>
	</g>
	<g>
		<path class="st23" d="M1397.26,384.77c0.79-1.17,1.51-2.4,2.23-3.64c-0.65,1.23-1.41,2.47-2.2,3.64H1397.26z"/>
		<path class="st23" d="M1399.49,381.14c3.5-6.14,6.17-12.83,7.82-19.89C1405.7,368.34,1403.06,375.03,1399.49,381.14z"/>
		<path class="st23" d="M1439.38,352.57c-0.03,0.55-0.07,1.1-0.17,1.61c0.1-0.55,0.14-1.06,0.14-1.61H1439.38z"/>
		<path class="st23" d="M1439.69,344.61c0,1.13,0,2.23-0.07,3.33c-0.03,1.54-0.1,3.09-0.27,4.63c0,0.55-0.03,1.06-0.14,1.61
			c0,0.55-0.07,1.1-0.14,1.61c0,0.21-0.03,0.38-0.07,0.55c-0.1,1.17-0.24,2.33-0.45,3.5c-0.03,0.41-0.1,0.79-0.17,1.17
			c-0.21,1.54-0.48,3.05-0.82,4.6c-0.27,1.34-0.55,2.71-0.93,4.01c-0.14,0.65-0.31,1.3-0.48,1.96c-0.27,1.03-0.55,2.06-0.86,3.05
			c-0.24,0.79-0.48,1.58-0.75,2.33c-0.75,2.37-1.61,4.73-2.57,7.03c-0.34,0.79-0.69,1.58-1.03,2.37c-0.58,1.37-1.2,2.71-1.85,4.01
			c-0.48,1.06-1.03,2.13-1.65,3.19c-0.69,1.3-1.41,2.57-2.16,3.84c-0.51,0.89-1.06,1.78-1.61,2.64l-26.38-15.26
			c0.79-1.17,1.54-2.4,2.2-3.64c3.57-6.11,6.21-12.79,7.82-19.89c0.38-1.41,0.65-2.85,0.86-4.29c0.27-1.44,0.48-2.92,0.62-4.39
			c0.17-1.51,0.31-3.05,0.34-4.63c0.07-1.1,0.1-2.2,0.1-3.29c0-0.82,0-1.65-0.07-2.44c0-0.72-0.03-1.44-0.1-2.13
			c0-0.24-0.03-0.51-0.03-0.75c-0.07-1.41-0.24-2.81-0.45-4.18c-0.03-0.72-0.14-1.44-0.27-2.13c-0.27-1.61-0.58-3.19-0.93-4.73
			c-0.65-2.98-1.51-5.93-2.57-8.78c-0.27-0.69-0.55-1.41-0.82-2.09c-0.24-0.72-0.55-1.41-0.86-2.09s-0.62-1.37-0.93-2.06
			c-0.24-0.51-0.48-0.99-0.72-1.47c-0.48-0.96-0.99-1.92-1.51-2.85c-0.65-1.23-1.37-2.4-2.13-3.57c-0.79-1.27-1.61-2.5-2.5-3.7
			c-0.86-1.2-1.75-2.37-2.71-3.53c-2.81-3.46-5.97-6.65-9.36-9.54c-2.26-1.95-4.67-3.74-7.17-5.35l15.26-26.38
			c2.26,1.37,4.46,2.92,6.59,4.49c1.3,0.99,2.57,1.99,3.84,2.98l0.1,0.1c1.27,1.06,2.54,2.16,3.77,3.29c1.1,0.99,2.2,2.02,3.26,3.09
			c0.17,0.17,0.34,0.34,0.48,0.51c1.1,1.06,2.16,2.16,3.16,3.29c0.31,0.27,0.55,0.55,0.79,0.86c0.89,0.99,1.75,2.02,2.61,3.05
			c1.06,1.27,2.09,2.61,3.09,3.94c0.96,1.23,1.89,2.54,2.78,3.84c0.14,0.24,0.31,0.45,0.45,0.69c0.65,0.99,1.3,1.99,1.92,2.98
			c0.21,0.31,0.41,0.65,0.62,0.99c0.82,1.37,1.58,2.74,2.33,4.12c1.58,2.85,2.98,5.76,4.25,8.78c0.07,0.14,0.14,0.27,0.17,0.45
			c0.65,1.51,1.27,3.05,1.82,4.6c0.55,1.48,1.06,2.95,1.54,4.46c0.07,0.21,0.1,0.38,0.17,0.58c0.41,1.3,0.79,2.61,1.13,3.94
			c0.17,0.58,0.31,1.2,0.45,1.82c0.75,2.95,1.34,5.93,1.82,8.99c0,0.1,0.03,0.17,0.03,0.27c0.24,1.54,0.45,3.12,0.58,4.7
			c0.03,0.21,0.07,0.45,0.07,0.65c0.17,1.58,0.27,3.19,0.38,4.77v0.65C1439.66,341.39,1439.69,343,1439.69,344.61z"/>
		<path class="st20" d="M1376.1,283.25c2.5,1.61,4.9,3.4,7.17,5.35C1380.97,286.68,1378.6,284.89,1376.1,283.25z"/>
		<path class="st20" d="M1392.63,298.13c-2.85-3.43-5.97-6.62-9.36-9.54C1386.66,291.48,1389.82,294.67,1392.63,298.13z"/>
		<path class="st20" d="M1393.3,258.13c-0.65-0.42-1.28-0.86-1.94-1.26l0.03-0.07C1392.06,257.22,1392.66,257.7,1393.3,258.13z"/>
		<path class="st20" d="M1397.95,261.37c-1.51-1.14-3.08-2.18-4.64-3.23C1394.88,259.17,1396.44,260.25,1397.95,261.37z"/>
		<path class="st20" d="M1404.81,319.5c1.06,2.85,1.92,5.8,2.57,8.78C1406.69,325.3,1405.84,322.35,1404.81,319.5z"/>
		<path class="st20" d="M1409.16,342.21c0.07,0.79,0.07,1.61,0.07,2.44c0,1.1-0.03,2.2-0.1,3.29h-0.03c0.07-1.1,0.1-2.2,0.1-3.33
			C1409.2,343.82,1409.2,343,1409.16,342.21z"/>
		<path class="st22" d="M1387.42,254.42l-15.23,26.44c-10.15-5.81-21.73-9.27-34.15-9.64v-30.5
			C1356,241.08,1372.84,246.02,1387.42,254.42z"/>
		<path class="st25" d="M1246,292.17c0.27-0.48,0.55-0.93,0.86-1.41c-0.27,0.48-0.55,0.96-0.82,1.44L1246,292.17z"/>
		<path class="st25" d="M1246.86,290.76c4.32-7.17,9.5-13.75,15.4-19.58C1256.4,277.04,1251.22,283.63,1246.86,290.76z"/>
		<path class="st25" d="M1262.26,271.18c2.33-2.4,4.8-4.63,7.37-6.72C1267.1,266.58,1264.63,268.81,1262.26,271.18z"/>
		<path class="st25" d="M1269.64,264.45c7.72-6.38,16.33-11.66,25.66-15.57C1286,252.83,1277.35,258.11,1269.64,264.45z"/>
		<path class="st25" d="M1295.29,248.88c4.66-1.99,9.47-3.64,14.47-4.9C1304.79,245.28,1299.96,246.93,1295.29,248.88z"/>
		<path class="st25" d="M1333.43,240.72v0.07c-8.16,0.14-16.05,1.27-23.63,3.19C1317.38,242.02,1325.27,240.89,1333.43,240.72z"/>
		<path class="st26" d="M1333.43,240.79v30.42c-0.48,0-0.96,0.03-1.44,0.07c-1.13,0.03-2.26,0.14-3.4,0.24
			c-0.1,0-0.21,0.03-0.34,0.03c-2.47,0.24-4.9,0.62-7.31,1.13c-1.2,0.21-2.4,0.48-3.57,0.79c-0.89,0.24-1.78,0.48-2.68,0.75
			c-0.31,0.1-0.58,0.17-0.86,0.27c-1.13,0.34-2.26,0.72-3.36,1.13c-0.07,0-0.14,0.03-0.21,0.07c-1.06,0.38-2.09,0.79-3.12,1.23
			c-3.29,1.41-6.45,3.02-9.5,4.87c-1.78,1.06-3.53,2.23-5.21,3.5c-0.45,0.31-0.89,0.65-1.34,0.99c-0.48,0.34-0.96,0.72-1.44,1.13
			c-0.89,0.69-1.71,1.41-2.57,2.16c-0.1,0.1-0.21,0.17-0.27,0.24c-1.03,0.93-2.02,1.85-3.02,2.85c-0.17,0.21-0.38,0.38-0.55,0.55
			c-0.89,0.93-1.78,1.89-2.64,2.88c-0.14,0.17-0.27,0.31-0.41,0.48c-0.93,1.03-1.82,2.13-2.64,3.22c-0.96,1.2-1.85,2.44-2.68,3.7
			c0,0,0,0.03-0.03,0.03c-0.86,1.27-1.65,2.54-2.4,3.84c-0.79,1.3-1.54,2.68-2.23,4.05c-0.03,0.1-0.1,0.17-0.14,0.27
			c-0.51,0.99-0.99,2.02-1.47,3.09c-0.07,0.17-0.14,0.34-0.21,0.51c-0.31,0.69-0.62,1.37-0.89,2.09c-0.27,0.65-0.51,1.3-0.75,1.96
			c-0.41,1.13-0.79,2.3-1.17,3.43c-0.38,1.27-0.75,2.54-1.06,3.84c-0.27,1.03-0.51,2.09-0.72,3.19c-0.21,0.93-0.38,1.85-0.51,2.81
			c-0.1,0.48-0.17,0.96-0.21,1.44c-0.1,0.55-0.17,1.1-0.24,1.65c-0.1,0.82-0.21,1.65-0.24,2.5c-0.07,0.55-0.1,1.13-0.14,1.72
			c-0.1,1.06-0.14,2.16-0.14,3.29v0.1h-30.46c0.17-17.01,4.49-33.03,11.97-47.13c0.65-1.37,1.41-2.71,2.19-4.01
			c0.27-0.48,0.55-0.96,0.82-1.44c4.36-7.13,9.53-13.72,15.4-19.58c2.37-2.37,4.84-4.6,7.37-6.72c7.72-6.35,16.36-11.63,25.66-15.57
			c4.66-1.95,9.5-3.6,14.47-4.9c0-0.03,0-0.03,0.03,0C1317.38,242.06,1325.27,240.92,1333.43,240.79z"/>
		<path class="st27" d="M1243.77,296.18l0.07,0.03c-7.48,14.1-11.8,30.11-11.97,47.13h-0.03
			C1232.01,326.29,1236.3,310.31,1243.77,296.18z"/>
		<path class="st24" d="M1294.81,405.62l-15.27,26.44c-27.87-17.9-46.6-48.82-47.66-84.12h30.5
			C1263.44,371.99,1276.03,393.03,1294.81,405.62z"/>
		<path class="st5" d="M1421.1,403.87c-18.73,27.04-49.97,44.71-85.36,44.71c-19.06,0-36.91-5.12-52.28-14.12l15.27-26.39
			c10.89,6.37,23.53,10.01,37.01,10.01c24.09,0,45.45-11.58,58.88-29.53L1421.1,403.87z"/>
	</g>
</g>
<g>
	<linearGradient id="SVGID_1_" gradientUnits="userSpaceOnUse" x1="113" y1="1342.2433" x2="304.6275" y2="1342.2433">
		<stop  offset="0" style="stop-color:#81D1E2"/>
		<stop  offset="1" style="stop-color:#6170B4"/>
	</linearGradient>
	<path class="st28" d="M129.74,1089.03c16.52-7.9,32.97,44.7,32.97,44.7c28.09,37.11,67.33-12.26,63.5,43.22
		c-6.72,97.08,111.73,30.53,57.09,131.87c-54.65,101.35,48.25,57.31,14.29,139.03c-33.96,81.72,10.05,179.19-41.04,139.13
		c0,0-45-98.66-91.4-129.19c-46.4-30.53,27.8-66.75,13.28-108.21c-21.09-60.22-71.9-57.86-35.26-122.57
		C179.81,1162.29,73.57,1115.89,129.74,1089.03z"/>
	<g>
		<path class="st5" d="M272.73,1549.85c-22.15-15.58-48.07-124.13-49.62-188.79c-0.79-33.12-10.58-46.92-19.22-59.09
			c-8.26-11.64-15.39-21.69-11.24-44.76c7.94-44.1-12.93-63.14-13.14-63.32l2.41-2.75c0.93,0.81,22.67,20.45,14.33,66.73
			c-3.88,21.56,2.52,30.58,10.61,41.99c8.5,11.98,19.07,26.88,19.9,61.12c1.66,69.39,28.16,171.88,48.06,185.88L272.73,1549.85z"/>
	</g>
	<g>
		
			<linearGradient id="SVGID_00000072277057224527777110000014019842708302901692_" gradientUnits="userSpaceOnUse" x1="253.5734" y1="1449.1747" x2="426.8675" y2="1449.1747">
			<stop  offset="0" style="stop-color:#81D1E2"/>
			<stop  offset="1" style="stop-color:#6170B4"/>
		</linearGradient>
		<path style="fill:url(#SVGID_00000072277057224527777110000014019842708302901692_);" d="M281.02,1557.89
			c-2.86,0-5.96-0.33-9.36-1.02c-8.54-1.72-14.13-6.23-16.64-13.39c-5.97-17.08,7.86-44.82,19.09-58.19
			c0.18-0.22,18.98-23.19,16.97-55.03c-0.34-5.33-0.89-10.28-1.38-14.63c-1.41-12.6-2.43-21.71,2.98-27.78
			c4.77-5.36,13.97-7.68,30.78-7.76c29.48-0.13,41.13-12.34,50.5-22.15c3.98-4.16,7.74-8.1,12.3-10.59l0,0
			c14.69-8.02,30.25-9.2,37-2.8c3.2,3.04,5.91,8.99,0.6,20.09c-4.85,10.14-11.14,16.56-16.2,21.72c-6.8,6.94-11.3,11.53-8.96,20.67
			c0.55,2.14,1.19,4.31,1.82,6.48c4.54,15.54,9.7,33.16-16.9,45.12c-5.65,2.54-10.79,4.55-15.33,6.34
			c-18.57,7.29-29.78,11.68-42.43,38.39c-2.45,5.17-4.61,10.07-6.7,14.81C309.18,1540.79,301.63,1557.89,281.02,1557.89z
			 M388.02,1350.58c-4.07,2.22-7.47,5.78-11.41,9.91c-9.85,10.31-22.1,23.14-53.13,23.28c-15.45,0.07-24.11,2.09-28.06,6.53
			c-4.32,4.86-3.38,13.28-2.08,24.94c0.5,4.4,1.05,9.38,1.4,14.81c2.1,33.34-17.01,56.63-17.82,57.61
			c-11.11,13.23-23.7,39.58-18.44,54.63c2.05,5.85,6.73,9.55,13.9,11c25.05,5.06,31.97-10.61,43.43-36.58
			c2.1-4.76,4.27-9.68,6.74-14.9c13.27-28.02,25.65-32.88,44.4-40.24c4.5-1.77,9.6-3.77,15.16-6.27
			c23.69-10.65,19.42-25.27,14.89-40.75c-0.65-2.21-1.29-4.42-1.85-6.61c-2.85-11.14,2.77-16.88,9.89-24.14
			c5.12-5.22,10.93-11.15,15.52-20.74c2.4-5.03,4.39-11.86,0.18-15.85C415.2,1341.97,401.13,1343.42,388.02,1350.58L388.02,1350.58z
			"/>
	</g>
	<g>
		
			<linearGradient id="SVGID_00000029746346816826693400000003436531446656879536_" gradientUnits="userSpaceOnUse" x1="268.3851" y1="1474.3745" x2="398.4538" y2="1474.3745">
			<stop  offset="0" style="stop-color:#81D1E2"/>
			<stop  offset="1" style="stop-color:#6170B4"/>
		</linearGradient>
		<path style="fill:url(#SVGID_00000029746346816826693400000003436531446656879536_);" d="M272.05,1579.04l-3.66-0.19
			c0.18-3.44,4.8-84.45,37.32-108.16c35.68-26.01,46.94-53.96,52.29-72.73c6.31-22.11,38.45-28.02,39.82-28.26l0.64,3.6
			c-0.31,0.06-31.25,5.76-36.93,25.66c-5.51,19.29-17.06,48-53.66,74.68C276.73,1496.35,272.09,1578.22,272.05,1579.04z"/>
	</g>
	
		<linearGradient id="SVGID_00000105388426918588529300000002670945003259084455_" gradientUnits="userSpaceOnUse" x1="221.4157" y1="1369.7074" x2="372.8936" y2="1369.7074">
		<stop  offset="0" style="stop-color:#81D1E2"/>
		<stop  offset="1" style="stop-color:#6170B4"/>
	</linearGradient>
	<path style="fill:url(#SVGID_00000105388426918588529300000002670945003259084455_);" d="M346.41,1170.78
		c-23.12-7.93-18.32,36.63-28.08,69.6c-9.77,32.97-108.68,14.38-67.16,96.94c41.52,82.55-52.51,27.61-24.42,99.65
		c28.08,72.04,2.44,149.09,32.97,129.49c30.53-19.6,17.15-110.32,48.9-121.1c31.75-10.78,36.93-23.35,5.5-52.66
		c-31.44-29.31,82.37-58.4,54.28-117.57C340.31,1215.96,373.12,1179.94,346.41,1170.78z"/>
	<g>
		<path class="st5" d="M273.88,1563.01c-2.91-12.33-27.74-120.87-4.57-133.99c20.42-11.56,19.92-56.54,16.73-99.01
			c-2.82-37.59,45.46-55.16,47.52-55.89l1.22,3.45c-0.48,0.17-47.7,17.37-45.09,52.17c3.27,43.61,3.62,89.9-18.58,102.47
			c-17.59,9.96-1.4,97.19,6.33,129.96L273.88,1563.01z"/>
	</g>
	
		<linearGradient id="SVGID_00000027591665512826164000000008537946628741019021_" gradientUnits="userSpaceOnUse" x1="186.6568" y1="1586.9774" x2="326.4349" y2="1586.9774">
		<stop  offset="0" style="stop-color:#E59047"/>
		<stop  offset="1" style="stop-color:#F0CB52"/>
	</linearGradient>
	<polygon style="fill:url(#SVGID_00000027591665512826164000000008537946628741019021_);" points="326.43,1524.36 293.43,1649.59 
		219.66,1649.59 186.66,1524.36 	"/>
	
		<linearGradient id="SVGID_00000034060962072283540870000000078226241577077938_" gradientUnits="userSpaceOnUse" x1="186.6568" y1="1586.9774" x2="326.4349" y2="1586.9774">
		<stop  offset="0" style="stop-color:#B27237"/>
		<stop  offset="1" style="stop-color:#F0CB52"/>
	</linearGradient>
	<path style="fill:url(#SVGID_00000034060962072283540870000000078226241577077938_);" d="M326.43,1524.36
		c0,0-72.66,13.64-72.66,125.23h-34.11l-33.01-125.23H326.43z"/>
</g>
</svg>
