<?xml version="1.0" encoding="utf-8"?>
<!-- Generator: Adobe Illustrator 27.2.0, SVG Export Plug-In . SVG Version: 6.00 Build 0)  -->
<svg version="1.1" id="Layer_1" xmlns="http://www.w3.org/2000/svg" xmlns:xlink="http://www.w3.org/1999/xlink" x="0px" y="0px"
	 viewBox="0 0 2880 1800" style="enable-background:new 0 0 2880 1800;" xml:space="preserve">
<style type="text/css">
	.st0{fill:#D4DDF0;}
	.st1{fill:#EBEFF8;}
	.st2{fill:#515254;}
	.st3{opacity:0.6;fill:#263238;}
	.st4{fill:#05203A;}
	.st5{fill:#FFFFFF;}
	.st6{opacity:0.3;fill:#76CEDE;}
	.st7{fill:#4C6AB1;}
	.st8{fill:#0073AB;}
	.st9{fill:#DAD9D8;}
	.st10{fill:#142047;}
	.st11{fill:#43B4E4;}
	.st12{fill:#0091C8;}
</style>
<g>
	<g>
		<path class="st0" d="M2543.79,1743.82h-1997l-0.67-0.7c-57.67-59.61-104.13-117.22-142.03-176.11
			c-44.39-68.99-77.57-140.16-101.43-217.6c-39.9-129.49-59.93-281.77-56.41-428.8c4.01-167.41,38.42-315.69,99.5-428.82
			c65.71-121.71,160.34-201.17,281.24-236.16c63.83-18.47,131.11-19.47,205.67-3.04c58.79,12.95,122.73,37.22,195.49,74.18
			c80.5,40.9,159.04,89.32,235,136.15c65.87,40.61,133.99,82.61,203.07,119.5c83.37,44.52,159.36,76.43,232.3,97.53
			c85.64,24.77,167.91,34.29,244.52,28.27c66.3-5.21,136.48-20.92,204.36-36.11c104.4-23.37,212.35-47.54,309.21-34.25
			c52.29,7.18,97.21,24.38,137.33,52.59c44.98,31.63,82.78,76.16,115.56,136.14c37.43,68.49,60.88,146.27,69.69,231.19
			c8.25,79.56,3.53,163.18-14.03,248.56c-16.9,82.17-44.85,162.18-83.07,237.8c-38.18,75.54-84.48,142.48-137.6,198.96
			L2543.79,1743.82z M548.73,1739.24h1993.08c52.54-56.01,98.35-122.34,136.17-197.17c38.04-75.26,65.85-154.88,82.67-236.65
			c17.47-84.92,22.16-168.07,13.96-247.16c-8.75-84.32-32.01-161.52-69.15-229.47c-32.43-59.34-69.78-103.37-114.18-134.59
			c-39.51-27.78-83.77-44.73-135.32-51.8c-96.03-13.18-203.58,10.9-307.59,34.18c-68.03,15.23-138.38,30.98-205,36.21
			c-77.17,6.06-159.98-3.51-246.15-28.43c-73.25-21.19-149.53-53.21-233.19-97.89c-69.21-36.96-137.38-78.99-203.31-119.64
			c-75.88-46.78-154.34-95.15-234.67-135.97c-72.41-36.79-135.99-60.92-194.4-73.79c-73.8-16.26-140.33-15.29-203.41,2.97
			c-119.68,34.64-213.38,113.35-278.49,233.94c-133.82,247.84-115.96,616.47-42.74,854.1c23.74,77.03,56.74,147.84,100.91,216.47
			C445.52,1622.94,491.58,1680.09,548.73,1739.24z"/>
		<path class="st1" d="M2580.9,1398.53c146.16-439.58,136.67-1121.96-460.14-1163.82c-195.2-13.69-393.8,57.56-574.92,122.59
			c-149.97,53.84-342.23,132.94-389,302.73c-18.36,66.65-23.65,188.22-119.5,181.24C782.7,822.74,486.8,656.16,317.29,943.58
			c-145.67,247.01-45.29,600.4,155.14,797.89h1879.59C2450.27,1647.38,2533.63,1540.69,2580.9,1398.53z"/>
	</g>
	<g>
		<g>
			<rect x="1181.28" y="1324.52" class="st2" width="489.99" height="416.72"/>
			<polygon class="st3" points="1671.27,1598.82 1181.28,1554.93 1181.28,1324.52 1671.27,1324.52 			"/>
		</g>
		<path class="st4" d="M2182.77,1473.07H669.79c-18.79,0-34.02-15.23-34.02-34.02V391.12c0-18.79,15.23-34.02,34.02-34.02h1512.98
			c18.79,0,34.02,15.23,34.02,34.02v1047.92C2216.79,1457.84,2201.56,1473.07,2182.77,1473.07z"/>
		<rect x="710.59" y="409.67" class="st5" width="1431.41" height="985.33"/>
		<path class="st6" d="M1335.71,682.18V1395H710.59V654.71h597.65C1323.41,654.71,1335.71,667.01,1335.71,682.18z"/>
		<path class="st6" d="M2141.99,654.71V1395H1485.5V682.18c0-15.17,12.3-27.48,27.48-27.48H2141.99z"/>
	</g>
	<g>
		<g>
			<path class="st5" d="M490.28,1283.7c0,20.23,16.4,36.63,36.63,36.63h711.1c20.23,0,36.63-16.4,36.63-36.63V557.03H490.28V1283.7z
				"/>
			<path class="st7" d="M1238.02,1322.62h-711.1c-21.46,0-38.92-17.46-38.92-38.92V554.74h788.95v728.96
				C1276.94,1305.16,1259.48,1322.62,1238.02,1322.62z M492.57,559.32v724.38c0,18.94,15.41,34.34,34.34,34.34h711.1
				c18.94,0,34.34-15.41,34.34-34.34V559.32H492.57z"/>
		</g>
		<g>
			<g>
				<path class="st8" d="M1238.01,476.77h-711.1c-20.23,0-36.63,16.4-36.63,36.63v43.63h784.37V513.4
					C1274.65,493.17,1258.25,476.77,1238.01,476.77z"/>
				<path class="st7" d="M1276.94,559.32H487.99V513.4c0-21.46,17.46-38.92,38.92-38.92h711.1c21.46,0,38.92,17.46,38.92,38.92
					V559.32z M492.57,554.74h779.79V513.4c0-18.94-15.41-34.34-34.34-34.34h-711.1c-18.94,0-34.34,15.41-34.34,34.34V554.74z"/>
			</g>
			<circle class="st5" cx="549.06" cy="516.58" r="16.03"/>
		</g>
		<g>
			<g>
				<path class="st9" d="M1205.29,838.66H559.64V621.14h645.66V838.66z M564.22,834.08h636.5V625.72h-636.5V834.08z"/>
				<rect x="561.93" y="780.84" class="st9" width="641.08" height="4.58"/>
				<rect x="561.93" y="727.61" class="st9" width="641.08" height="4.58"/>
				<rect x="561.93" y="674.37" class="st9" width="641.08" height="4.58"/>
				<rect x="1136.6" y="623.43" class="st9" width="4.58" height="212.94"/>
				<rect x="1072.5" y="623.43" class="st9" width="4.58" height="212.94"/>
				<rect x="1008.39" y="623.43" class="st9" width="4.58" height="212.94"/>
				<rect x="944.28" y="623.43" class="st9" width="4.58" height="212.94"/>
				<rect x="880.17" y="623.43" class="st9" width="4.58" height="212.94"/>
				<rect x="816.07" y="623.43" class="st9" width="4.58" height="212.94"/>
				<rect x="751.96" y="623.43" class="st9" width="4.58" height="212.94"/>
				<rect x="687.85" y="623.43" class="st9" width="4.58" height="212.94"/>
				<rect x="623.74" y="623.43" class="st9" width="4.58" height="212.94"/>
			</g>
			<path class="st7" d="M1200.16,838.58c-4.42-8.95-9.42-19.09-17.32-25.99c-9.26-8.08-20.75-9.58-29.29-3.82
				c-1.79,1.21-3.67,3.03-5.67,4.97c-5.43,5.27-12.2,11.82-20.85,8.32c-6.29-2.54-9.91-7.36-13.42-12.02
				c-2.22-2.95-4.32-5.74-7.06-7.97c-6.49-5.28-14.55-4.87-25.36,1.31l-0.74,0.42c-6.5,3.73-14.6,8.37-22.16-0.45
				c-3.59-4.19-4.52-9.4-5.41-14.43c-0.75-4.26-1.47-8.28-3.71-11.47c-6.59-9.32-15.71-12.56-25.02-8.91
				c-4.72,1.85-10.19,8.22-15.98,14.95c-8.43,9.8-17.76,20.65-27.83,20.65c-2.43,0-4.9-0.63-7.41-2.06
				c-8-4.55-7.39-14.44-6.86-23.16c0.49-8.09,0.96-15.73-4.4-19.09c-6.83-4.29-15.7,3.38-19.99,9.58
				c-6.44,9.29-17.13,18.2-26.52,17.13c-3.98-0.45-9.5-2.93-13.19-12.19c-2.94-7.38-2.48-15.35-2.03-23.06
				c0.31-5.3,0.6-10.3-0.16-14.98c-1.16-7.12-6.9-16.66-16.01-15.58c-6.47,0.77-9.68,6.65-13.08,12.89
				c-1.89,3.47-3.84,7.05-6.43,9.76c-3.96,4.14-7.81,5.75-11.44,4.79c-4.24-1.13-7.45-5.64-9.3-13.05
				c-0.09-0.35-0.19-0.82-0.32-1.37c-2.33-10.26-4.09-11.75-4.74-11.91c-0.09-0.02-0.61,0.1-1.51,1.14
				c-2.28,2.64-2.28,6.58-2.27,10.76c0,3.56,0.01,7.23-1.4,10.5c-1.9,4.42-6.04,7.47-11.36,8.37c-6.67,1.13-14.06-1.3-18.39-6.04
				c-6.24-6.82-8.61-17.27-7.06-31.04c1.25-11.09,1.02-40.9-6.95-45.46c-2-1.14-4.71-0.45-8.06,2.05
				c-4.88,3.65-7.84,13.42-8.62,21.48c-1.65,17.13-7.04,34.08-15.61,49.01c-2.66,4.64-6.5,10.09-12.66,11.11
				c-3.27,0.54-6.53-0.32-9.41-2.5c-3.98-3-6.84-8.2-7.46-13.57c-0.51-4.39,0.03-8.73,0.54-12.93c0.41-3.32,0.79-6.45,0.7-9.6
				c-0.19-6.66-3.92-13.89-9.82-14.44c-3.05-0.3-8.97,5.01-13.72,9.26c-6.94,6.21-12.93,11.57-17.97,9.71
				c-2.79-1.03-4.47-4-5.14-9.09c-0.11-0.86-0.17-1.82-0.23-2.83c-0.27-4.41-0.68-7.83-3.29-8.39c-2.37-0.51-3.55,0.17-4.22,0.73
				c-4.28,3.52-4.03,16.35-3.88,24.02c0.07,3.83,0.13,6.86-0.23,8.68c-1.04,5.17-4.75,10.18-9.23,12.45
				c-3.24,1.65-6.7,1.78-9.73,0.37c-6.68-3.1-7.89-11.23-8.19-17.98L641.19,682c-0.25-5.42-1.14-12.87-6.1-15
				c-1.7-0.73-3.54-0.7-5.49,0.08c-3.26,1.31-6.41,4.62-8.02,8.43c-1.1,2.6-1.8,5.37-2.54,8.29c-1.04,4.1-2.12,8.34-4.39,12.17
				c-2.6,4.39-7.62,7.7-12.49,8.23c-3.52,0.39-6.69-0.7-8.92-3.07c-3.92-4.15-3.27-9.82-2.7-14.82c0.28-2.49,0.58-5.07,0.32-7.32
				c-0.58-5-3.8-7.77-6.41-9.22c-5.61-3.11-13.98-3.33-19.89-0.52l-1.97-4.14c7.26-3.45,17.16-3.18,24.07,0.65
				c5.08,2.82,8.1,7.21,8.74,12.7c0.32,2.77-0.01,5.61-0.32,8.36c-0.52,4.59-0.98,8.55,1.48,11.16c1.26,1.33,2.97,1.89,5.08,1.66
				c3.46-0.38,7.18-2.86,9.06-6.02c1.93-3.26,2.88-7,3.89-10.96c0.75-2.96,1.53-6.02,2.76-8.95c2.09-4.95,6.12-9.12,10.53-10.9
				c3.08-1.24,6.19-1.26,9.01-0.04c7.31,3.14,8.56,12.35,8.86,19l2.07,45.64c0.25,5.45,1.1,11.97,5.54,14.03
				c1.78,0.83,3.71,0.72,5.74-0.3c3.25-1.65,6.05-5.46,6.81-9.27c0.27-1.33,0.21-4.42,0.14-7.69c-0.18-9.59-0.44-22.71,5.55-27.64
				c2.18-1.8,4.91-2.36,8.1-1.67c6.21,1.34,6.62,8.11,6.89,12.59c0.06,0.93,0.11,1.81,0.2,2.51c0.4,3.02,1.22,5.03,2.19,5.39
				c2.45,0.91,8.74-4.72,13.33-8.83c6.25-5.6,12.16-10.89,17.21-10.41c8.74,0.83,13.72,10.34,13.97,18.87
				c0.1,3.49-0.32,6.94-0.73,10.28c-0.5,4.11-0.98,7.99-0.54,11.85c0.47,4.1,2.7,8.19,5.67,10.43c1.89,1.42,3.88,1.97,5.91,1.64
				c4.26-0.71,7.28-5.11,9.44-8.87c8.24-14.37,13.44-30.68,15.02-47.17c0.81-8.41,4.03-19.92,10.43-24.71
				c4.95-3.7,9.35-4.5,13.08-2.36c13.13,7.53,9.27,49.53,9.22,49.95c-1.4,12.4,0.58,21.64,5.89,27.44
				c3.32,3.64,9.05,5.49,14.25,4.61c2.2-0.37,6.16-1.6,7.91-5.66c1.03-2.4,1.03-5.46,1.03-8.69c-0.01-4.61-0.01-9.84,3.39-13.76
				c2.42-2.79,4.64-2.95,6.08-2.59c4.51,1.13,6.54,8.51,8.09,15.34c0.12,0.51,0.21,0.95,0.3,1.28c1.36,5.45,3.61,9.09,6.03,9.73
				c2.36,0.63,5.08-1.57,6.96-3.53c2.17-2.27,3.9-5.43,5.72-8.78c3.63-6.66,7.73-14.2,16.56-15.25c11-1.29,19.35,8.84,21.07,19.39
				c0.84,5.18,0.52,10.67,0.22,15.98c-0.42,7.21-0.85,14.67,1.71,21.09c2.29,5.74,5.47,8.88,9.46,9.33
				c7.49,0.86,16.77-7.28,22.24-15.19c6.34-9.16,17.24-16.46,26.19-10.85c7.65,4.81,7.06,14.6,6.53,23.25
				c-0.49,8.11-0.96,15.77,4.56,18.91c9.66,5.49,19.75-6.25,29.51-17.6c6.18-7.18,12.01-13.96,17.78-16.23
				c11.27-4.43,22.65-0.49,30.44,10.53c2.83,4.03,3.67,8.75,4.48,13.31c0.82,4.63,1.59,9.01,4.37,12.25
				c4.85,5.66,9.18,3.59,16.4-0.55l0.74-0.42c12.5-7.14,22.48-7.42,30.52-0.88c3.17,2.57,5.53,5.72,7.82,8.76
				c3.27,4.35,6.37,8.46,11.48,10.52c5.48,2.22,9.88-1.48,15.95-7.36c2.15-2.08,4.17-4.04,6.3-5.47c10.31-6.96,24-5.32,34.87,4.17
				c8.59,7.5,13.81,18.08,18.42,27.41L1200.16,838.58z"/>
			
				<ellipse transform="matrix(0.1602 -0.9871 0.9871 0.1602 -83.8817 1297.8572)" class="st10" cx="720.78" cy="698.22" rx="10.3" ry="10.3"/>
			<circle class="st10" cx="1010.04" cy="779.89" r="10.3"/>
		</g>
		<g>
			<rect x="562.5" y="907.71" class="st11" width="47.32" height="346.54"/>
			<rect x="661.27" y="955.43" class="st0" width="47.32" height="299.18"/>
			<rect x="760.04" y="1015.65" class="st11" width="47.32" height="239.42"/>
			<rect x="858.8" y="1052.62" class="st0" width="47.32" height="202.63"/>
			<rect x="957.57" y="994.9" class="st11" width="47.32" height="259.86"/>
			<rect x="1056.34" y="1089.67" class="st0" width="47.32" height="165.41"/>
			<rect x="1155.11" y="1183.55" class="st11" width="47.32" height="73.1"/>
		</g>
	</g>
	<g>
		<g>
			<path class="st5" d="M1545.05,557.03v726.67c0,20.23,16.4,36.63,36.63,36.63h711.1c20.23,0,36.63-16.4,36.63-36.63V557.03
				H1545.05z"/>
			<path class="st7" d="M2292.79,1322.62h-711.1c-21.46,0-38.92-17.46-38.92-38.92V554.74h788.95v728.96
				C2331.71,1305.16,2314.25,1322.62,2292.79,1322.62z M1547.34,559.32v724.38c0,18.94,15.41,34.34,34.34,34.34h711.1
				c18.94,0,34.34-15.41,34.34-34.34V559.32H1547.34z"/>
		</g>
		<g>
			<g>
				<path class="st8" d="M2329.42,513.4c0-20.23-16.4-36.63-36.63-36.63h-711.1c-20.23,0-36.63,16.4-36.63,36.63v43.63h784.37V513.4
					z"/>
				<path class="st7" d="M2331.71,559.32h-788.95V513.4c0-21.46,17.46-38.92,38.92-38.92h711.1c21.46,0,38.92,17.46,38.92,38.92
					V559.32z M1547.34,554.74h779.79V513.4c0-18.94-15.41-34.34-34.34-34.34h-711.1c-18.94,0-34.34,15.41-34.34,34.34V554.74z"/>
			</g>
			<circle class="st5" cx="1607.65" cy="516.58" r="16.03"/>
		</g>
		<g>
			<rect x="2209.88" y="907.71" class="st11" width="47.32" height="346.54"/>
			<rect x="2111.11" y="921.34" class="st0" width="47.32" height="333.01"/>
			<rect x="2012.34" y="977.54" class="st11" width="47.32" height="277.17"/>
			<rect x="1913.58" y="1016.66" class="st0" width="47.32" height="238.17"/>
			<rect x="1814.81" y="1088.72" class="st11" width="47.32" height="166.94"/>
			<rect x="1716.04" y="1148.35" class="st0" width="47.32" height="107.66"/>
			<rect x="1617.27" y="1183.55" class="st11" width="47.32" height="73.1"/>
			<g>
				<path class="st12" d="M1746.13,961.47h-88.33c-7.57,0-13.71,6.14-13.71,13.71v53.97c0,7.57,6.14,13.71,13.71,13.71h55.53
					l16.67,26.23l16.71-26.28c7.3-0.31,13.14-6.28,13.14-13.65v-53.97C1759.84,967.6,1753.7,961.47,1746.13,961.47z"/>
				<polygon class="st5" points="1701.97,979.74 1708.95,993.9 1724.57,996.17 1713.27,1007.19 1715.94,1022.74 1701.97,1015.4 
					1688,1022.74 1690.66,1007.19 1679.36,996.17 1694.98,993.9 				"/>
			</g>
		</g>
		<g>
			<g>
				<path class="st9" d="M2260.06,838.66h-645.66V621.14h645.66V838.66z M1618.99,834.08h636.5V625.72h-636.5V834.08z"/>
				<rect x="1616.7" y="780.84" class="st9" width="641.08" height="4.58"/>
				<rect x="1616.7" y="727.61" class="st9" width="641.08" height="4.58"/>
				<rect x="1616.7" y="674.37" class="st9" width="641.08" height="4.58"/>
				<rect x="2191.38" y="623.43" class="st9" width="4.58" height="212.94"/>
				<rect x="2127.27" y="623.43" class="st9" width="4.58" height="212.94"/>
				<rect x="2063.16" y="623.43" class="st9" width="4.58" height="212.94"/>
				<rect x="1999.05" y="623.43" class="st9" width="4.58" height="212.94"/>
				<rect x="1934.95" y="623.43" class="st9" width="4.58" height="212.94"/>
				<rect x="1870.84" y="623.43" class="st9" width="4.58" height="212.94"/>
				<rect x="1806.73" y="623.43" class="st9" width="4.58" height="212.94"/>
				<rect x="1742.62" y="623.43" class="st9" width="4.58" height="212.94"/>
				<rect x="1678.52" y="623.43" class="st9" width="4.58" height="212.94"/>
			</g>
			<g>
				<path class="st7" d="M1669.15,803.08c-1.19,0-2.44-0.13-3.76-0.39c-10.2-2.06-12.05-11.22-13.54-18.58
					c-1.54-7.63-2.79-12.33-8.66-12.83c-6.76-0.57-18.3,8.02-23.96,14.01l-3.33-3.14c4.33-4.58,17.75-16.29,27.68-15.43
					c9.59,0.82,11.27,9.14,12.76,16.49c1.7,8.43,3.23,13.65,9.96,15c11.18,2.26,15.74-9.12,19.81-22l14.16-44.86
					c2.19-6.95,4.68-14.82,10.24-20.71c5.43-5.74,15.33-9.36,22.98-4.74c5.72,3.45,8.63,10.1,8.64,19.77c0,1.75-0.05,3.58-0.11,5.52
					c-0.21,7.14-0.44,15.24,2.16,20.88c1.22,2.64,3.52,4.73,6.01,5.45c1.9,0.55,3.72,0.27,5.41-0.83c5.33-3.46,5.96-9.93,6.64-16.79
					c0.42-4.29,0.86-8.73,2.53-12.52c3.11-7.04,10.51-10.04,17.98-7.3c15.29,5.6,14.58,24.06,14.11,36.27l-0.05,1.36
					c-0.32,8.72,0.66,20.98,7.14,29.81c2.57,3.5,6.03,5.5,9.25,5.34c2.86-0.14,5.4-1.92,7.32-5.15c3.3-5.55,3.7-13.19,4.09-20.58
					c0.12-2.25,0.23-4.37,0.42-6.42l3.05-32.42c1.26-13.43,5.92-21.46,13.48-23.23c3.36-0.78,6.32-0.3,8.79,1.45
					c3.88,2.75,6.23,8.36,7.2,17.18c0.26,2.38,0.12,5.06-0.02,7.9c-0.47,9.26-0.27,15.46,6.46,17.22c4.15,1.08,8.94-1.89,11.17-5.39
					c2.92-4.58,3.69-10.35,4.43-15.93c0.21-1.6,0.42-3.18,0.68-4.73c1.79-10.86,4.03-23.65,7.11-36.15l0.04-0.16
					c1.72-6.99,4.08-16.57,11.42-20.82c5.54-3.21,9.93-2.32,12.64-1.01c6.57,3.18,10.63,12.28,11.75,19.9
					c0.73,5,0.62,10.35,0.51,15.52c-0.14,6.9-0.29,14.03,1.6,20.09c1.87,6,7.9,13.53,15.46,11.49c8.05-2.18,9.72-9.14,11.66-17.2
					c0.38-1.57,0.77-3.19,1.21-4.75c3.56-12.61,8.43-29.87,19.35-41.01c6.73-6.87,17.33-8.41,25.78-3.75
					c12.72,7.02,12.6,22.35,12.5,35.87c-0.05,7.02-0.11,13.66,1.5,18.68c2.11,6.59,5.71,10.7,10.72,12.2
					c4.13,1.24,7.92,0.87,11.26-1.11c6.15-3.64,9.84-12.09,11.26-18.77l0.6-2.88c2.89-13.87,6.85-32.86,15.8-43.37
					c6.02-7.07,14.1-9.86,22.17-7.66c8.69,2.37,15.4,10.13,17.1,19.79c0.2,1.17,0.38,2.34,0.56,3.52c0.57,3.72,1.1,7.24,2.43,10.48
					c1.87,4.56,5.04,7.35,8.93,7.88c4.29,0.59,8.83-1.65,12.16-5.96c2.53-3.27,4.25-7.05,6.07-11.05c1.09-2.4,2.22-4.88,3.54-7.25
					c12.02-21.55,37.34-30,57.03-30.72c22.88-0.84,45.03,6.36,64.58,12.71l-1.42,4.36c-19.19-6.24-40.94-13.3-63-12.49
					c-18.44,0.68-42.11,8.48-53.2,28.37c-1.23,2.21-2.32,4.6-3.38,6.91c-1.85,4.07-3.77,8.27-6.62,11.96
					c-4.35,5.62-10.49,8.49-16.4,7.7c-5.5-0.75-10.07-4.64-12.55-10.68c-1.54-3.75-2.14-7.7-2.72-11.52
					c-0.17-1.14-0.35-2.28-0.55-3.42c-1.39-7.91-6.8-14.26-13.79-16.16c-6.29-1.71-12.66,0.55-17.49,6.21
					c-8.19,9.62-12.01,27.95-14.8,41.33l-0.61,2.9c-2.09,9.89-7.1,18.03-13.4,21.76c-4.49,2.66-9.5,3.18-14.91,1.56
					c-6.45-1.94-11.21-7.19-13.76-15.19c-1.83-5.72-1.78-12.71-1.72-20.11c0.1-12.84,0.2-26.12-10.13-31.82
					c-6.66-3.67-15.01-2.46-20.3,2.94c-10.1,10.31-14.79,26.92-18.21,39.05c-0.42,1.48-0.8,3.05-1.16,4.58
					c-1.99,8.28-4.24,17.67-14.92,20.55c-9.51,2.57-18.17-5.38-21.03-14.55c-2.11-6.78-1.96-14.29-1.81-21.55
					c0.11-5.22,0.21-10.14-0.46-14.76c-0.94-6.41-4.4-14.11-9.21-16.44c-2.52-1.22-5.25-0.94-8.35,0.85
					c-5.65,3.27-7.66,11.41-9.27,17.95l-0.04,0.16c-3.04,12.35-5.27,25.03-7.04,35.8c-0.25,1.51-0.45,3.04-0.66,4.59
					c-0.81,6.08-1.64,12.36-5.11,17.79c-3.15,4.94-9.72,9.05-16.19,7.36c-10.84-2.83-10.28-13.84-9.88-21.88
					c0.13-2.65,0.26-5.15,0.04-7.17c-1-9.13-3.43-12.62-5.29-13.94c-1.37-0.97-3.05-1.21-5.1-0.73c-7.25,1.7-9.35,12.75-9.96,19.2
					l-3.05,32.42c-0.18,1.95-0.29,4.03-0.41,6.23c-0.4,7.58-0.85,16.16-4.73,22.68c-2.71,4.55-6.63,7.17-11.04,7.38
					c-4.83,0.24-9.63-2.4-13.16-7.21c-7.26-9.9-8.37-23.24-8.02-32.69l0.05-1.37c0.44-11.54,1.04-27.35-11.11-31.8
					c-5.19-1.9-10.1,0.05-12.22,4.85c-1.38,3.12-1.76,7-2.16,11.12c-0.72,7.27-1.53,15.52-8.7,20.18c-2.82,1.83-5.99,2.31-9.18,1.39
					c-3.79-1.1-7.11-4.06-8.89-7.93c-3.05-6.62-2.8-15.28-2.57-22.93c0.05-1.91,0.11-3.71,0.11-5.38
					c-0.01-7.95-2.17-13.29-6.43-15.85c-5.6-3.37-13.09-0.48-17.29,3.97c-4.84,5.12-7.16,12.46-9.2,18.94l-14.13,44.76
					C1687.4,787.31,1682.42,803.07,1669.15,803.08z"/>
				<circle class="st10" cx="1812.19" cy="792.86" r="10.3"/>
				<circle class="st10" cx="2193.42" cy="646.33" r="10.3"/>
			</g>
		</g>
	</g>
	<rect x="62.89" y="1739.19" class="st10" width="2668.22" height="4.58"/>
</g>
</svg>
