<?xml version="1.0" encoding="utf-8"?>
<!-- Generator: Adobe Illustrator 27.2.0, SVG Export Plug-In . SVG Version: 6.00 Build 0)  -->
<svg version="1.1" id="Layer_1" xmlns="http://www.w3.org/2000/svg" xmlns:xlink="http://www.w3.org/1999/xlink" x="0px" y="0px"
	 viewBox="0 0 2880 1800" style="enable-background:new 0 0 2880 1800;" xml:space="preserve">
<style type="text/css">
	.st0{opacity:0.66;fill:#00714A;}
	.st1{fill:#FFFFFF;stroke:#262424;stroke-width:1.2126;stroke-miterlimit:10;}
	.st2{fill:#FFFFFF;}
	.st3{fill:#C7C8CA;stroke:#000000;stroke-width:1.2126;stroke-miterlimit:10;}
	.st4{fill:#37AE96;}
	.st5{fill:#FFFFFF;stroke:#000000;stroke-width:1.2126;stroke-miterlimit:10;}
	.st6{fill:#005232;stroke:#000000;stroke-width:1.2126;stroke-miterlimit:10;}
	.st7{fill:#00714A;stroke:#000000;stroke-width:1.2126;stroke-miterlimit:10;}
	.st8{fill:#A9CA92;stroke:#000000;stroke-width:1.2126;stroke-miterlimit:10;}
	.st9{fill:#A9CA92;}
	.st10{fill:#DEDEDD;}
	.st11{fill:#F2F2F2;}
	.st12{fill:#58C2B1;stroke:#000000;stroke-width:1.2126;stroke-miterlimit:10;}
	.st13{fill:#23417A;}
	.st14{fill:#DCA686;}
	.st15{fill:#2A2C41;}
	.st16{fill:#233862;}
	.st17{fill:#232536;}
	.st18{fill:#C5C4CC;}
	.st19{fill:#C48B6B;}
	.st20{fill:#DBA586;}
	.st21{fill:#2E3048;}
	.st22{fill:#B58A72;}
	.st23{fill:#9B9AA1;}
	.st24{fill:#E6E3EE;}
	.st25{fill:#3F4365;}
	.st26{fill:#213D75;}
	.st27{fill:#212231;}
	.st28{fill:#252638;}
	.st29{fill:#EBEBEB;}
	.st30{fill:#DBA485;}
	.st31{fill:#2D2F46;}
	.st32{fill:#E5D7D0;}
	.st33{fill:#404367;}
	.st34{fill:#242636;}
	.st35{fill:#987761;}
	.st36{fill:#1D2346;}
	.st37{fill:#6D58A4;}
	.st38{fill:#05203A;}
	.st39{fill:#363957;}
	.st40{fill:#2C3D54;}
	.st41{fill:#2B2D43;}
	.st42{fill:#CEC1BB;}
	.st43{fill:#F1E2DA;}
	.st44{fill:#CB4949;}
	.st45{fill:url(#SVGID_1_);}
	.st46{fill:url(#SVGID_00000045589056996013054310000000429994315953340836_);}
	.st47{opacity:0.7;fill:#FFFFFF;}
	.st48{opacity:0.78;fill:#FFFFFF;}
	.st49{fill:url(#SVGID_00000016753506124838536600000012627366775757336472_);}
	.st50{fill:url(#SVGID_00000101803929750621442390000002779220755934448798_);}
	.st51{fill:url(#SVGID_00000130641222807690684610000015549903889885143937_);}
	.st52{fill:url(#SVGID_00000178915837858212182310000017265213406546569122_);}
	.st53{fill:url(#SVGID_00000085227150318708535410000000737798038088989368_);}
	.st54{fill:url(#SVGID_00000183962779728870770800000008702749602141692818_);}
	.st55{fill:url(#SVGID_00000124147871636800767820000001853115893609886858_);}
	.st56{fill:url(#SVGID_00000050647644180021699760000008076046557117678509_);}
	.st57{fill:url(#SVGID_00000114767813827844151990000010482384704704194466_);}
	.st58{fill:url(#SVGID_00000078744430379045221300000011169900717201038498_);}
	.st59{fill:url(#SVGID_00000098899271097291098050000014935346095066836896_);}
	.st60{fill:url(#SVGID_00000128458767773223274400000014560512950686528129_);}
	.st61{fill:url(#SVGID_00000018937993130674638780000002083160506876354982_);}
	.st62{fill:url(#SVGID_00000179636395798005574570000005501130249672221630_);}
	.st63{fill:url(#SVGID_00000046318350580158171060000005528248689181853341_);}
</style>
<g>
	<path class="st0" d="M1992.06,778.98c0,341.58-276.9,618.47-618.47,618.47c-282.06,0-520-188.83-594.36-446.94
		c-15.72-54.48-24.11-112.02-24.11-171.54c0-341.57,276.9-618.47,618.47-618.47c12.41,0,24.74,0.36,36.94,1.1
		C1734.9,180.71,1992.06,449.82,1992.06,778.98z"/>
	<path class="st1" d="M1983.1,884.31c-10.23,59.14-28.53,114.86-53.57,166.19c-0.03-0.01-0.03-0.01-0.03-0.01
		s-10.16-82.5-21.03-87.21c-10.84-4.67-32.87-12.19-27.29-57.86c5.56-45.71-8.38-113.4-49.98-114.19c-41.6-0.79-29.6,61.7-29.6,61.7
		s-68.54,113.15-71.86,105.44c-3.32-7.74-6.66-69.34-6.66-69.34s-62.85-122.11-60.34-140.47c2.51-18.35-6.81-24.37,6.82-39.4
		c13.58-15,35.37-25.51,35.37-25.51l0.14-41.29l22.63-22.81l38.69-21.44c0,0,35.44-2.62,58.89-16.86
		c23.46-14.28,53.38-12.11,45.59-34.42c0,0-13.51-16.36-19.92-33.11c-6.45-16.72-42.35-31.64-47.97-39.61
		c-5.62-7.97,0.86-25.22-21.55-43.89c-22.45-18.68-16.71-11.42-32.86-25.86c-16.15-14.44-52.6-46.42-54.8-60.8
		c-2.17-14.37-15.82-70.36-58.44-80.07c-42.65-9.68-50.55-66.01-50.55-66.01C1861.4,297.58,2034.96,584.37,1983.1,884.31z"/>
	<path class="st1" d="M1915.94,1076.7c-105,191.3-306.12,315.92-528.16,320.74l67.76-53.6c0,0,7.93-32.53,12.19-43.58
		c4.26-11.09,49.68-84.99,49.68-84.99s-3.09-63.09,2.51-95.46c5.6-32.41,34.17-49.36,52.85-89.8
		c18.64-40.47,110.92-21.13,133.23-28.78l74.46,17.14l55.84,38.59C1836.3,1056.96,1879.96,1068.1,1915.94,1076.7z"/>
	<path class="st1" d="M1315.06,448.99c-21.19,41.04-75.86,98.35-75.86,98.35s-5.79,33.52-41.4,48.57
		c-35.61,15.08,89.13,124.47,47.54,140.54c-41.6,16.03-60.46,43.44-60.46,43.44s-45.58,45.53-49.16,52.35
		c-3.51,6.85-70.51,39.89-83.74,48.29c-13.24,8.39-2.8,16.3-69.25,32.41c-66.37,16.07-74.12,33.64-94.49,56.01
		c-20.36,22.37-44.59,26.35-44.59,26.35s-37.18-12.49-64.44-44.78c-15.72-54.48-24.11-112.02-24.11-171.54
		c0-341.57,276.9-618.47,618.47-618.47c12.41,0,24.74,0.36,36.94,1.1c-24.02,17.06-104.81,75.39-130.22,106.94
		c-29.98,37.22-2.84,98.35,13.83,110.72C1310.85,391.64,1336.33,407.91,1315.06,448.99z"/>
	<path class="st2" d="M1333.96,371.99c0,0,47.49,44.76,27.88,69.83c-19.61,25.08-57.96,60.73-49.68,72.45
		c8.28,11.72,42.8,37.55,73.32,34.97c30.53-2.58,68.59-38.35,97.43-61.82c28.84-23.48,73.33-16.39,80.66-21.58
		c7.33-5.19,20.58-32.65-11.27-55.96c-31.85-23.3-46.47-37.09-61.75-48.1C1475.29,350.79,1298.61,334.6,1333.96,371.99z"/>
	<path class="st1" d="M1222.96,1378.91c-22.61-5.66-44.68-12.54-66.1-20.52c-161.43-60.16-287.13-184.19-352.4-337.01
		c0,0,54.79,19.18,124.17,7.96c69.38-11.25,125.22-12.76,170,27.55c44.81,40.32-22.69,63.67,5.64,117.12
		c28.29,53.48,42.19,27.78,70.14,92.73C1185.78,1293.17,1208.93,1336.86,1222.96,1378.91z"/>
	<g>
		<g>
			<polygon class="st3" points="1419.94,1034.88 1031.59,646.54 745.84,932.28 680.54,866.97 1031.59,515.92 1419.94,904.27 
				1752.71,571.49 1818.02,636.8 			"/>
		</g>
		<g>
			<polygon class="st3" points="1894.18,723.61 1978.46,409.1 1663.94,493.37 			"/>
		</g>
	</g>
	<polygon class="st4" points="1273.29,399.19 1192.97,420.71 1214.28,442.02 1130.67,525.63 1031.5,426.47 941.86,516.11 
		958.54,532.79 1031.5,459.82 1130.67,558.99 1230.96,458.69 1251.77,479.5 	"/>
	<g>
		<g>
			<g>
				<path class="st5" d="M2220.57,364.15c-32.4-15.33-69.87-7.18-93.18,17.58c-5.64,5.99-10.46,12.96-14.17,20.81
					c-11.25,23.77-9.86,50.27,1.47,71.91c7.84,14.99,20.45,27.65,36.93,35.45c1.63,0.78,3.3,1.49,4.96,2.15
					c7.54,2.97,15.29,4.73,23.02,5.35c32.46,2.62,64.62-14.72,79.37-45.9C2278.01,431.25,2260.82,383.19,2220.57,364.15z
					 M2240.73,462.87c-11.06,23.38-35.17,36.37-59.5,34.41c-5.8-0.47-11.61-1.79-17.26-4.02c-1.25-0.49-2.49-1.03-3.72-1.61
					c-12.35-5.84-21.81-15.33-27.69-26.57c-8.48-16.22-9.53-36.09-1.1-53.91c2.79-5.88,6.4-11.11,10.62-15.6
					c17.48-18.56,45.57-24.68,69.86-13.18C2242.11,396.66,2255,432.69,2240.73,462.87z"/>
			</g>
		</g>
		<g>
			<g>
				<path class="st6" d="M2132.55,465.08l-17.87,9.36c-11.32-21.63-12.71-48.14-1.47-71.91c3.72-7.85,8.53-14.82,14.17-20.81
					l14.69,13.84c-4.23,4.5-7.84,9.72-10.62,15.6C2123.02,428.99,2124.07,448.86,2132.55,465.08z"/>
			</g>
		</g>
		<g>
			<g>
				<path class="st7" d="M2163.96,493.26l-7.39,18.78c-1.66-0.66-3.32-1.37-4.96-2.15c-16.48-7.8-29.09-20.45-36.93-35.45
					l17.87-9.36c5.88,11.24,15.34,20.73,27.69,26.57C2161.47,492.23,2162.71,492.77,2163.96,493.26z"/>
			</g>
		</g>
		<g>
			<g>
				<path class="st8" d="M2179.59,517.39c-7.73-0.62-15.48-2.38-23.02-5.35l7.39-18.78c5.65,2.23,11.46,3.55,17.26,4.02
					L2179.59,517.39z"/>
			</g>
		</g>
	</g>
	<g>
		<polygon class="st9" points="2172.49,575.41 2021.95,575.41 2021.95,572.42 2169.5,572.42 2169.5,508.64 2172.49,508.64 		"/>
	</g>
	<g>
		<rect x="2021.95" y="545.37" class="st10" width="79.24" height="17.95"/>
	</g>
	<g>
		<g>
			<rect x="2040.15" y="637.21" class="st5" width="28.66" height="190.02"/>
		</g>
		<g>
			<rect x="2111.31" y="675.82" class="st5" width="28.65" height="151.41"/>
		</g>
		<g>
			<rect x="2182.46" y="647.41" class="st5" width="28.65" height="179.83"/>
		</g>
		<g>
			<rect x="2040.15" y="708.02" class="st8" width="28.66" height="119.22"/>
		</g>
		<g>
			<rect x="2111.31" y="732.24" class="st8" width="28.65" height="94.99"/>
		</g>
		<g>
			<rect x="2182.46" y="714.42" class="st8" width="28.65" height="112.82"/>
		</g>
	</g>
	<g>
		<g>
			<rect x="486.85" y="456.5" class="st6" width="182.33" height="17.9"/>
		</g>
		<g>
			<rect x="486.85" y="504.65" class="st5" width="182.33" height="17.9"/>
		</g>
		<g>
			<rect x="486.85" y="552.79" class="st5" width="182.33" height="17.9"/>
		</g>
	</g>
	<g>
		<g>
			<rect x="706.4" y="456.5" class="st6" width="30.43" height="17.9"/>
		</g>
		<g>
			<rect x="706.4" y="504.65" class="st5" width="30.43" height="17.9"/>
		</g>
		<g>
			<rect x="706.4" y="552.79" class="st5" width="30.43" height="17.9"/>
		</g>
	</g>
	<g>
		<g>
			<rect x="1835.49" y="108.95" class="st11" width="1.71" height="179.54"/>
		</g>
		<g>
			<rect x="1957.17" y="108.95" class="st11" width="1.71" height="179.54"/>
		</g>
		<g>
			<rect x="2078.85" y="108.95" class="st11" width="1.71" height="179.54"/>
		</g>
		<g>
			<rect x="2200.53" y="108.95" class="st11" width="1.71" height="179.54"/>
		</g>
		<g>
			<rect x="2322.21" y="108.95" class="st11" width="1.71" height="179.54"/>
		</g>
		<rect x="1836.34" y="299.13" class="st5" width="19.36" height="6.24"/>
		<rect x="1836.34" y="86.83" class="st5" width="29.15" height="4.68"/>
		<rect x="1836.34" y="95.48" class="st5" width="41.34" height="4.68"/>
		<rect x="1956.71" y="86.83" class="st5" width="34.22" height="4.68"/>
		<rect x="1956.71" y="95.48" class="st2" width="21.88" height="4.68"/>
		<rect x="2080.56" y="86.83" class="st5" width="21.2" height="4.68"/>
		<rect x="2080.56" y="95.48" class="st5" width="24.71" height="4.68"/>
		<rect x="2202.24" y="86.83" class="st5" width="30.89" height="4.68"/>
		<rect x="2202.24" y="95.48" class="st5" width="24.72" height="4.68"/>
		<rect x="2323.06" y="86.83" class="st5" width="18.45" height="4.68"/>
		<rect x="2323.06" y="95.48" class="st5" width="14.76" height="4.68"/>
		<rect x="1958.03" y="299.13" class="st5" width="19.36" height="6.24"/>
		<rect x="2080.56" y="299.13" class="st5" width="19.36" height="6.24"/>
		<rect x="2202.24" y="299.13" class="st5" width="19.36" height="6.24"/>
		<rect x="2323.92" y="299.13" class="st5" width="19.36" height="6.24"/>
		<g>
			<path class="st9" d="M2280.9,235.15c-37.95,0-70.94-16.41-105.34-33.51c-42.46-21.12-86.36-42.95-144.86-36.97
				c-37.36,3.82-60.8,19.03-81.49,32.45c-18.73,12.15-36.44,22.84-60.42,23.75c-38.76,1.47-52.21-15.06-52.44-16.06V194.2l0,0l0,0
				c0.05,0.18,8.51,18.74,52.39,18.52c21.61-0.11,37.56-10.46,56.02-22.44c21.46-13.92,45.79-29.71,85.1-33.72
				c60.85-6.22,105.83,16.15,149.33,37.78c45.52,22.63,88.95,43.86,143.87,25.45v8.72C2307.41,233.75,2294.89,235.15,2280.9,235.15z
				"/>
		</g>
		<g>
			<path class="st5" d="M2053.08,233.12c-28.01,0-50.23-18.84-71.98-37.28c-16.49-13.98-33.61-28.28-53.36-35.33
				c-60.28-21.52-91.12,17.78-91.4,18.12v-11.96c0.33-0.41,5.83-7.55,21.74-14.37c14.49-6.21,38.8-11.16,72.33,0.5
				c21.25,7.39,38.89,22.35,55.95,36.82c34.61,29.35,64.51,54.69,116.42,14.99c39.32-30.07,76.39-58.72,112.85-69.19
				c35.67-10.24,72.86-2.74,107.67,32.07l-0.26,10.86c-73.94-74.27-136.9-27.22-215.31,32.74
				C2086.98,226.97,2069.09,233.11,2053.08,233.12z"/>
		</g>
	</g>
	<g>
		<g>
			<g>
				<path class="st5" d="M884.05,125.2c-17.9-55.36-67.93-91.36-122.79-94.04c-13.08-0.64-26.43,0.61-39.68,3.95
					c-2.93,0.74-5.85,1.58-8.76,2.52c-29.26,9.46-53.1,27.88-69.49,51.26c-23.64,33.73-31.73,77.76-18.09,119.97
					c4.51,13.94,11.05,26.64,19.18,37.89c33.62,46.49,94.51,68.27,152.05,49.68C867.93,273.32,907.14,196.67,884.05,125.2z
					 M786,264.05c-43.14,13.94-88.8-2.39-114-37.25c-6.1-8.44-11.01-17.97-14.38-28.41c-10.24-31.65-4.16-64.65,13.56-89.94
					c12.28-17.52,30.16-31.34,52.1-38.43c2.18-0.7,4.37-1.33,6.57-1.89c9.94-2.51,19.95-3.44,29.75-2.96
					c41.13,2.01,78.64,29,92.05,70.51C868.97,189.25,839.58,246.72,786,264.05z"/>
			</g>
		</g>
		<g>
			<g>
				<path class="st6" d="M671.19,108.44l-27.86-19.55c-23.64,33.73-31.73,77.76-18.09,119.97c4.51,13.94,11.05,26.64,19.18,37.89
					L672,226.8c-6.1-8.44-11.01-17.97-14.38-28.41C647.39,166.74,653.46,133.73,671.19,108.44z"/>
			</g>
		</g>
		<g>
			<g>
				<path class="st7" d="M729.85,68.13l-8.28-33.02c-2.93,0.74-5.85,1.58-8.76,2.52c-29.26,9.46-53.1,27.88-69.49,51.26l27.86,19.55
					c12.28-17.52,30.16-31.34,52.1-38.43C725.46,69.31,727.65,68.68,729.85,68.13z"/>
			</g>
		</g>
		<g>
			<g>
				<path class="st12" d="M761.26,31.16c-13.08-0.64-26.43,0.61-39.68,3.95l8.28,33.02c9.94-2.51,19.95-3.44,29.75-2.96
					L761.26,31.16z"/>
			</g>
		</g>
	</g>
	<g>
		<polygon class="st6" points="754.64,399.44 950.44,399.44 950.44,396.45 757.63,396.45 757.63,303.35 754.64,303.35 		"/>
	</g>
	<g>
		
			<rect x="815.71" y="365.31" transform="matrix(-1 -1.224647e-16 1.224647e-16 -1 1766.1515 748.5667)" class="st10" width="134.72" height="17.95"/>
	</g>
	<g>
		<g>
			<path class="st13" d="M2360,1008.76c0,0,3.68,66.85-8.58,76.65c-5.67,4.53-19.04,5.95-33.48,5.97
				c-4.76,0.01-9.63-0.14-14.39-0.38c-0.01,0-0.02,0-0.02,0c-18.98-0.95-36.01-3.36-36.01-3.36s-49.21,2.49-46.8-28.04
				c0,0,5.73-9.24,13.08-11.34c6.78-1.95,37.78,3.4,43.15,3.63c5.92,0.26,47.92,9.59,49.72,8.93c1.8-0.67,6.63-17.13,6.92-28.17
				c0.43-15.94,0.36-30.62,0.36-30.62L2360,1008.76z"/>
		</g>
		<g>
			<g>
				<path class="st14" d="M2339,986.77c0,0-2.56,11.37-0.1,14.52c2.46,3.15,3.62-0.89,3.62-0.89s-1.21,3.98,1.9,5.32
					c3.11,1.34,4.21-3.48,4.21-3.48s-0.1,3.28,3.41,3.45c3.51,0.18,3.5-4.03,3.5-4.03s2.45,4.72,5.29,1.45
					c4.81-5.52,2.9-13.9,2.9-13.9s-0.66-1.97-4.04-1.91c0,0-1.27-4.95-6.72-2.94c0,0-4.38-3.98-7.06,0.03
					C2345.91,984.39,2341,980.42,2339,986.77z"/>
			</g>
		</g>
		<path class="st15" d="M2099.22,1643.59c0,0-4.13,9.96-7.62,13.91c-3.48,3.95-16.82,11.01-16.89,22.73
			c-0.08,12.71,22.49,9.18,31.31,8.72c8.82-0.47,9.49-7.26,13.21-14.46c3.72-7.2,7.46-5.97,8.15-11.78c0.7-5.81-2.84-18.8-2.84-18.8
			L2099.22,1643.59z"/>
		<g>
			<path class="st15" d="M2275.86,1645.87c0,0,12.29,12.91,24.77,15.61c12.48,2.71,21.21,6.15,21.3,13.56
				c0.09,7.41-35.91,12.29-50.19,4.82c-21.31-11.15-23.48-7.78-25.84-13.36c-2.37-5.57,2.84-20.46,2.68-22.24
				C2248.4,1642.08,2275.86,1645.87,2275.86,1645.87z"/>
		</g>
		<g>
			<path class="st16" d="M2274.4,1273.18c0,0,12.91,93.78,18.18,125.47c6.16,37.07,8.25,67.69,9.97,86.88
				c2.16,24.13-20.46,153.93-18.95,160.99c1.51,7.06-40.74-2.93-40.74-2.93s13.28-154.45,6.83-180.15
				c-6-23.93-27.63-129.11-33.11-122.57c-5.47,6.53-39.83,121.95-43.88,140.82c-4.06,18.87-43.13,166.62-43.13,166.62
				s-29.21,6.28-36.64,0.36c0,0,25.49-135.74,28.07-171.11c0.99-13.49,8.97-160.75,31.78-220.41
				C2164.84,1225.61,2274.4,1273.18,2274.4,1273.18z"/>
		</g>
		<g>
			<path class="st2" d="M2104.58,1271.63c0,0,16.02,4.86,22.74,3.64c6.72-1.24,3.32-83.59,3.58-100.73
				c0.2-13.9,7.81-50.59,7.81-50.59s0,0.02,0.01,0.06c0.01,0.01,0.01,0.03,0.01,0.04c0,0.02,0.01,0.04,0.01,0.06
				c0.75,2.75,11.02,40.84,11.38,59.13c0.38,18.99-2.48,91.64-2.48,91.64l28.29,2.75l81.31,2l16.96-2.01c0,0-2.02-31.06-2.78-45.82
				c-0.47-9.38-2.29-26.17-1.82-42.52c0,0-0.29-17.24,1.42-24.66c0.19-32.77,2.17-65.22,2.17-65.22c1.1-14.86,1.86-28.74,2.3-41.71
				c-3.58-1.9-7.89-4.12-11.34-5.75c-10.67-5.08-25.54-11.93-35.08-16.3c-5.59-2.56-11.06-4.44-11.06-4.44s-38.13-3.66-41.23-3.47
				c-0.98,0.06-5.74,1.72-11.99,4.11c-13.52,5.13-39.59,15.58-43.75,18.56c-6.09,4.36-18.96,107.94-19.54,115.19
				C2100.45,1178.64,2104.58,1271.63,2104.58,1271.63z"/>
		</g>
		<path class="st17" d="M2271.76,1264.63c0,0-55.81,4.75-104.68,0v16.04c0,0,73.4,10.6,107.13-3.06L2271.76,1264.63z"/>
		<g>
			<path class="st13" d="M2224.16,1033.52c0,0,9.08,21.33,15.89,69c2.61,18.31,7.47,49.13,10.99,80.58v0.01
				c2.78,24.8,9.13,50.24,11.14,69.22c2.09,19.66,8.38,77.59,8.38,77.59l15.26-9.62c2.18-2.02,5.24-4.63,4.35-7.47
				c-4.19-13.55-12.23-58.35-16.97-97.41c0-0.03-0.01-0.05-0.01-0.08c-0.22-1.88-0.45-3.75-0.66-5.6c-0.01-0.09-0.02-0.2-0.03-0.29
				c-0.89-7.82-1.64-15.3-2.17-22.15c-0.41-5.25-0.04-10.39,0.68-15.41c2.13-35.05,3.18-72,3.18-72c1.12-15.13,3.9-34.71,4.33-47.89
				c-5.32-0.71-9.26-1.42-13.52-2.71C2264.99,1049.3,2234.9,1038.05,2224.16,1033.52z"/>
		</g>
		<path class="st18" d="M2221.29,1044.64c0,0,1.01,14.6-11.33,14.93c-12.35,0.34-22.15-11.52-22.15-11.52l20.5,5.29l12.47-10.57
			L2221.29,1044.64z"/>
		<g>
			<path class="st19" d="M2204.62,932.84c0,0,28.32,4.78,23.51,49.11c-4.8,44.33-29.8,40.42-31.47,40.36
				c-1.67-0.06-25.14,0.53-26.37-53.67C2170.29,968.64,2169.93,928.57,2204.62,932.84z"/>
		</g>
		<g>
			<path class="st19" d="M2217.03,1009.46c0,0,0,18.26,0.75,22.21c0.81,4.25-22.74,16.54-37.94,2.22c0,0,3.07-19.94,2.12-26.98
				C2181.01,999.87,2217.03,1009.46,2217.03,1009.46z"/>
		</g>
		<g>
			<path class="st20" d="M2228.25,971.63c0,0,3.14-3.28,4.24,0.09c1.1,3.37-3.98,17.62-4.63,18.99c0,0-0.58,1.29-1.32,0.56
				C2225.8,990.55,2228.25,971.63,2228.25,971.63z"/>
		</g>
		<g>
			<path class="st20" d="M2170.62,968.23c0,0-3-3.41-4.24-0.09c-1.24,3.32,3.29,18.24,3.86,19.17c0,0,0.97,1.53,1.74,0.84
				C2172.73,987.45,2170.62,968.23,2170.62,968.23z"/>
		</g>
		<g>
			<path class="st21" d="M2230.53,965.66c-0.98,6.07-1.9,10.57-1.9,10.57l-4.12,5.38c0,0,0.25-11.9-0.38-13.77
				c-0.24-0.71-0.52-1.96-0.81-3.32c-0.47-2.24-0.96-4.77-1.29-5.62c-0.53-1.35-24.27-8.28-45.41,1.45c0,0,0.18,1.83,0.17,3.87
				c0,2.38-0.27,5.04-1.36,5.44c-2.03,0.74-1.18,13.93-1.18,13.93l-3.29-3.8c0,0-0.96-6.89-1.89-14.8c0,0,0-0.02-0.01-0.05
				c-0.21-1.85-0.43-3.75-0.63-5.63c-0.47-7.96,0.32-22.42,10.68-30.91c6.99-2.99,18.17-5.54,36.79,0.16c0,0,4.27,0.29,5.47,1.44
				C2232.95,942.74,2230.53,965.66,2230.53,965.66z"/>
		</g>
		<path class="st22" d="M2183.91,1016.38c0,0,4.52,6.28,15.02,6.04c10.5-0.24,15.06-5.71,15.06-5.71s-4.97,10.39-15.1,10.29
			C2188.74,1026.89,2183.91,1016.38,2183.91,1016.38z"/>
		<path class="st23" d="M2218.87,1045.53l-10.56,7.81c0,0,8.83-18.82,9.02-26.35L2218.87,1045.53z"/>
		<polygon class="st24" points="2217.33,1027 2224.55,1033.68 2232.11,1056.22 2218.87,1045.53 		"/>
		<path class="st19" d="M2216.01,1033.72c0,0-2.92,10.26-7.7,19.63c0,0-11.09-9.72-14.58-13.17
			C2190.25,1036.71,2216.01,1033.72,2216.01,1033.72z"/>
		<path class="st23" d="M2196.71,1042.49l11.6,10.86c0,0-13.72-0.91-16.28-3.2L2196.71,1042.49z"/>
		<path class="st24" d="M2181.32,1022.48c0,0,9.28,15.08,15.39,20.01l-10.3,17.08l-16.5-29.98L2181.32,1022.48z"/>
		<g>
			<path class="st13" d="M2132.07,1175.32c-1.18,15.91,5.54,103.91-1.17,105.15c-6.71,1.23-31.39-4.19-31.39-4.19
				s-3.09-94.9-2.1-104.85c0.72-7.24,12.25-115.85,18.34-120.21c3.51-2.52,29.56-11.76,42.34-16.79c2.34-0.92,9.73-4.03,11.83-4.82
				c2.72,3.02,26.33,58.44,28.58,101.67c0.68,13.15-2.4,40.93-4.75,63.64c-2.5,24.22-5.28,43.11-7.3,63.36
				c-4,39.9-6.8,71.64-6.8,71.64l-39.71-17.68c-6.42-3.22-15.32-16.41-12.91-23.17c9.18-25.71,20.74-69.64,20.75-92.2
				c0,0-4.43-55.24-7.94-67.39C2139.83,1129.48,2133.57,1155.1,2132.07,1175.32z"/>
		</g>
		<path class="st14" d="M2099.42,1321.46c0,0-1.34-3.29-1.24-5c0,0,0.45-3.12,0.63-5.35c0.06-0.71,0.09-1.33,0.06-1.73
			c-0.09-1.68-0.78-5.34,0.15-9.44c0.92-4.09,5.65-18.21,5.65-18.21l12.75,1.89l11.08-1.5c0,0,8.26,24.11,7.84,28.02
			c-0.04,0.38-0.1,0.76-0.18,1.11c-0.68,3.28-2.56,5.43-3.11,7.11c-0.2,0.61-2.67,6.6-4.51,7.17c-2.56,0.8-4.66,0.31-6.08-0.86
			c0,0-5.09,1.35-8.3-0.13c0,0-4.65,1.39-8.14-1.58C2106.02,1322.96,2101.14,1323.84,2099.42,1321.46z"/>
		<g>
			<path class="st13" d="M2133.11,1219.81l-0.41,69.93c0,0-13.96-0.62-33.19-7.72l-1.33-98.61L2133.11,1219.81z"/>
		</g>
		<rect x="2205.73" y="1265.62" class="st25" width="26.3" height="19.56"/>
	</g>
	<g>
		<g>
			<g>
				<path class="st14" d="M1157.34,1251.88c0,0,10.54,3.64,14.98-0.92c3.77-3.87,11.45-6.16,13.81-6.87
					c3.16-0.95,11.78-7.47,13.01-3.49c1.23,3.97-13.69,11.43-16.5,13.62c-2.82,2.19,12.77,5.58,15.12,8.45
					c2.36,2.86-4.72,28.35-15.15,24.79c-10.43-3.57-19.21-14.26-21.16-14.53c-1.96-0.27-7.69-2.3-7.69-2.3L1157.34,1251.88z"/>
			</g>
		</g>
		<g>
			<g>
				<path class="st14" d="M1195.52,1261.26c0,0,31.19,13.04,32.55,15.65c1.35,2.61,0.54,4.26-2.43,3.16
					c-2.97-1.1-30.5-11.73-30.5-11.73s34.32,21.64,35.89,23.54c0.92,1.11-0.45,4.39-2.09,3.95c-1.64-0.44-36.89-19.95-36.89-19.95
					s32.01,20.27,32.85,22.25c0.74,1.73-1.28,4.43-3.76,3.08c-2.48-1.33-33.25-18.46-33.25-18.46s22.37,16.21,22.1,18.31
					c-0.16,1.28-1.22,4.17-6.86-0.19c-5.64-4.37-20.03-13.26-20.03-13.26L1195.52,1261.26z"/>
			</g>
		</g>
		<path class="st26" d="M1016.93,1100.37c0,0,42.47,63.62,66.73,87.08c7.6,7.36,83.61,58.94,86.48,61.88
			c2.87,2.93-7.44,28.33-7.44,28.33s-97.19-56.19-102.85-59.71c-5.65-3.52-76.15-84.3-79.6-95.5c-3.44-11.2-2.19-24.41,9.2-29.65
			C1005.43,1085.44,1016.93,1100.37,1016.93,1100.37z"/>
		<g>
			<path class="st27" d="M870.58,1624.37c0,0,4.71,2.07,11.79,5.81s15.12,7.87,25.14,8.56c10.02,0.68,20.5,4.29,19.78,13.88
				c-0.72,9.59-32.85,12.53-62.92,7.25c-30.07-5.27-30.57-5.95-30.79-8.28c-0.21-2.32,2.06-26.12,3.33-27.04
				C838.16,1623.62,870.58,1624.37,870.58,1624.37z"/>
		</g>
		<g>
			<path class="st28" d="M873.08,1613.47c0,0-2.19,10.76-2.3,12.02c-0.09,1.27-36.21,7.38-34.27-0.08
				c2.04-7.87,13.19-23.26,13.19-23.26L873.08,1613.47z"/>
		</g>
		<g>
			<path class="st16" d="M1002.92,1364.99c-2.86-29.49-101.14-93.5-105.9-65.55c-4.77,27.96,35.8,92.13,38.33,113.09
				c2.55,20.97,0.43,26.46-15.45,44.56c-15.88,18.11-82.68,151.72-82.68,151.72c1.9,10.16,37,13.34,37.95,11.12
				c0.96-2.23,95.55-127.27,100.64-132.04c5.08-4.77,23.81-26.04,26.68-36.52c1.81-6.66,4.94-35.64,3.03-56.19
				C1005.51,1395.18,1003.32,1367.39,1002.92,1364.99z"/>
		</g>
		<g>
			<path class="st27" d="M1061.2,1623.05c0,0,6.43,1.14,13.65,4.95c7.22,3.82,17.08,10.22,27.3,10.92
				c10.22,0.7,21.84,4.71,21.1,14.49c-0.74,9.78-34.44,12.43-65.11,7.06c-30.67-5.38-31.18-6.08-31.4-8.44
				c-0.22-2.37,0.87-20.69,2.67-25.35C1029.98,1625.2,1061.2,1623.05,1061.2,1623.05z"/>
		</g>
		<g>
			<path class="st28" d="M1071.25,1615.24c0,0-2.93,8.91-2.02,10.21c0.92,1.31-40.82,4.55-39.83,1.23
				c0.58-1.92,6.43-14.53,9.52-21.14C1041.61,1599.78,1071.25,1615.24,1071.25,1615.24z"/>
		</g>
		<g>
			<path class="st16" d="M1031.59,1286.95c0,0,113.78,86.21,126.52,103.83c12.74,17.63-1.55,43.83-3.46,52.4
				c-1.91,8.57-81.57,161.62-82.52,176.39c0,0-34.77,4.88-43.82-6.56c0,0,50.59-147.44,58.69-175.07
				c8.1-27.63-28.11-31.92-50.5-41.92c-22.39-10.01-120.67-67.68-126.39-89.37c-5.22-19.82-0.05-34.75-0.05-34.75
				S937.59,1254.1,1031.59,1286.95z"/>
		</g>
		<g>
			<path class="st29" d="M1040.89,1075.51c0,0,8.57,37.57,6.47,58.28c-2.1,20.71-23.38,73.43-24.96,84.96
				c-1.57,11.54,9.18,68.2,9.18,68.2l-127.9,19.35c0,0,0.19-33.14,4.9-72.45c4.7-39.32,19.51-70.43,24.7-92.66
				c17.69-75.82,82.43-86.36,82.43-86.36L1040.89,1075.51z"/>
		</g>
		<g>
			<path class="st30" d="M1102.77,991.37c0,0,8.29,20.18,2.88,22.62c-4.48,2.01,2.71,21.72,3.59,24.91
				c0.88,3.19-8.2,4.48-10.28,6.26c-2.08,1.77-10.2,25.44-17.56,25.41c-7.36-0.04-38.97-14.9-46.92-25.12
				c-7.96-10.23-10.88-52.96-3.06-70.03C1039.24,958.34,1088.1,956.09,1102.77,991.37z"/>
		</g>
		<g>
			<path class="st30" d="M1060.06,1063.04c0,0-1.08,1.85-2.7,4.74c-0.68,1.2-1.45,2.6-2.27,4.1c-0.63,1.15-1.29,2.38-1.96,3.63
				c-4.24,7.92-9.04,17.6-10.12,22.54c-2.01,9.23-23.02-42.54-23.02-42.54s15.2-26.46,27.28-58.37
				C1059.35,965.22,1060.06,1063.04,1060.06,1063.04z"/>
		</g>
		<g>
			<path class="st31" d="M1104.39,995.72c0,0,12.68-19.52-4.81-36.83c-17.49-17.31-55.54,5.84-59.62,6.45
				c-4.08,0.61-26.38-0.28-19.55,40.53c5.94,35.47,7.79,34.32,7.79,34.32s8.98-16.67,13.43-19.23c6.94-4.01,20.97-1.39,20.97-1.39
				s-4.86-18.6,5.94-20.02C1079.33,998.12,1094.16,990.65,1104.39,995.72z"/>
		</g>
		<g>
			<path class="st30" d="M1052.46,1008.14c-0.67-2.55-2.57-13.41-12.27-8.17c-9.7,5.24,2.9,26.66,4.45,27.08
				C1046.19,1027.48,1058.1,1029.61,1052.46,1008.14z"/>
		</g>
		<g>
			<path class="st32" d="M1022.33,1051.3c0,0,13.23,30.85,24.54,41.31l-5.33,18.35l-25.82-56.13L1022.33,1051.3z"/>
		</g>
		<polygon class="st33" points="1031.59,1286.95 1029.42,1275.02 904.01,1293.38 903.69,1306.3 		"/>
		<g>
			<path class="st13" d="M1037.48,1147.88c-3.23,6.62-6.31,13.34-9.24,20.11v0c-6.44,14.9-12.17,30.03-17.23,44.84
				c-1.81,5.28-3.52,10.52-5.16,15.7c-19.49,61.68-58.1,104.39-58.1,104.39s-50.17-9.36-61.05-18.97c0,0,10.9-72.26,34.42-140.46
				c1.82-5.27,3.71-10.51,5.68-15.69c0-0.01,0-0.01,0-0.01c17.53-67.03,50.13-102.96,88.91-102.96
				C1016.36,1055.8,1054.46,1113.11,1037.48,1147.88z"/>
		</g>
		<path class="st13" d="M919.46,1178.37c0,0-16.45,71.47-58.11,127.74c-5.65,7.62,54.6,19.44,54.6,19.44L919.46,1178.37z"/>
		<path class="st34" d="M976.44,1122.84c-16.98,14.88-55.33,50.65-55.33,50.65c1.82-5.27,3.71-10.51,5.68-15.69
			c0-0.01,0-0.01,0-0.01C940.09,1147.01,975.88,1123.21,976.44,1122.84z"/>
		<path class="st35" d="M1060.06,1063.04c0,0-1.08,1.85-2.7,4.74c-0.68,1.2-1.45,2.6-2.27,4.1c-16.14-14.85-19.3-24.71-19.4-25.02
			C1043.26,1053.64,1060.06,1063.04,1060.06,1063.04z"/>
		<g>
			<g>
				<path class="st36" d="M1047.18,1110.61c0,0-11.49,44.69-50.88,43.67c-35.28-0.92-87.91,11.31-105.8,23.06l-22.24,15.62
					l7.37-23.03c0,0,18.63-35.77,120.73-20.33c0,0,30.83,9.19,46.84-44.38C1043.21,1105.21,1048.08,1108.45,1047.18,1110.61z"/>
			</g>
		</g>
		<path class="st37" d="M1046.55,1093.69c0,0,1.93,12.61,0.55,17.27c-0.53,1.74-5.27-1.03-5.27-1.03L1046.55,1093.69z"/>
		<g>
			<path class="st30" d="M1194.3,1229.33c0,0,2.75,2.19,5.6,2.1c4.93-0.15,10.41-5.63,15.68-0.89c5.26,4.75-5.11,25.68-8.97,28.19
				c-3.85,2.51-12.82-1.64-22.58-12.91C1174.27,1234.58,1194.3,1229.33,1194.3,1229.33z"/>
		</g>
		<g>
			<path class="st30" d="M1213.57,1229.21c0,0,10.05,3.19,20.79,8.14c9.42,4.34,20.51,11.04,19.45,13.42
				c-1.62,3.62-10.08-2.91-19.71-6.57c-8.86-3.38-7.68-1.21-7.68-1.21s-0.3-0.64,8.64,4.94c9.62,6,19.69,12.84,18.86,14.81
				c-1.03,2.44-1.37,2.66-5.21,1.06c2.01,1.4,1.91,2.16,1.41,3.06c-2.61,4.68-18.12-1.9-24.28-4.52c4.71,2.04,7.96,4.04,4.51,5.88
				c-3.95,2.1-25.45-8.21-33.5-11.16C1188.04,1253.85,1213.57,1229.21,1213.57,1229.21z"/>
		</g>
		<path class="st13" d="M1024.35,1077.15c0,0,49.64,67.29,77.32,91.67c8.68,7.65,95.71,55.07,98.99,58.13
			c3.28,3.06-8.06,36.32-8.06,36.32s-109.01-56.37-115.36-59.93c-6.35-3.56-92.96-101.27-97.28-113.32
			c-4.34-12.06,1.84-13.42,14.01-19.73C1011.04,1061.44,1024.35,1077.15,1024.35,1077.15z"/>
	</g>
	<g>
		<g>
			<g>
				<g>
					<path class="st38" d="M574.81,1010.31c0,0,25.01,12.24,18.83,45.51c-6.18,33.28-8.92,37.76-2,50.76
						c6.92,13.01,15.08,68.47,8.85,78.99c-6.23,10.51-77.05-46.2-86.87-93.79c-9.82-47.59,6.22-68.75,11.89-76.63
						C531.19,1007.27,552.74,999.11,574.81,1010.31z"/>
				</g>
			</g>
		</g>
		<g>
			<path class="st39" d="M581.74,1130.44c0,0,12.73,2.59,19.88,13.11c4.97,7.32,5.37,23.58,6.09,26.64
				c0.72,3.06,10.21,37.72,10.21,37.72l-26.51,17.77L581.74,1130.44z"/>
		</g>
		<g>
			<path class="st40" d="M679.71,1723.04c0,0,17.3,23.29,14.93,26.99c-2.37,3.69-20.57,4.22-31.65,0
				c-11.08-4.22-11.34-31.52-16.35-43.25c-2.1-4.91,2.39-19.4,8.7-20.46c6.31-1.05,13.18,2.04,13.18,2.04
				S661.97,1704.88,679.71,1723.04z"/>
		</g>
		<g>
			<g>
				<path class="st30" d="M668.63,1688.17c0,0,3.64,9.92,4.97,19.39c1.1,7.86,12.33,24.54,11.8,26.64
					c-0.53,2.11-14.77,4.02-20.57-1.42c-5.8-5.44-9.54-21.26-10.81-30.72c-1.19-8.81-2.69-13.16-2.69-13.16
					S663.1,1682.37,668.63,1688.17z"/>
			</g>
		</g>
		<g>
			<path class="st40" d="M529.09,1723.43c0,0,16.68,22.91,14.3,26.6c-2.37,3.69-20.57,4.22-31.64,0
				c-11.08-4.22-11.35-31.52-16.35-43.25c-2.1-4.91,2.39-19.4,8.71-20.46c6.31-1.05,13.71,2.26,13.71,2.26
				S511.36,1705.27,529.09,1723.43z"/>
		</g>
		<g>
			<g>
				<path class="st30" d="M517.82,1688.58c0,0,1.32,10.81,3.43,18.46c2.11,7.65,13.45,25.06,12.92,27.17
					c-0.53,2.11-14.77,4.02-20.57-1.42c-5.8-5.44-10.29-21.19-10.81-30.72c-0.52-9.53,1.32-15.75,1.32-15.75
					S512.28,1682.78,517.82,1688.58z"/>
			</g>
		</g>
		<g>
			<g>
				<path class="st30" d="M601.17,1309.35c0,0,14.85,69.07,18.26,86.46c3.41,17.39,12.96,101.62,13.98,115.94
					c1.03,14.32,15.49,68.29,14.82,73.4c-0.68,5.11,21.45,107.87,21.45,107.87s-7.56,6.08-15.53,0.55
					c-4.1-2.85-48.57-96.2-48.57-121.77c0-35.35-26.14-81.5-29.51-89.41c-31.34-73.48-25.17-95.94-29.26-100.71
					c-4.09-4.77-4.44,2.95-6.83,13.52c-2.38,10.57-7.5,101.96-10.57,113.56c-3.07,11.59-0.69,50.81-2.39,70.59
					c-1.71,19.78-9.19,109.25-9.19,109.25s-5.8,9.09-13.93,0.24c-1.75-1.9-14.04-99.66-14.39-123.19
					c-0.34-23.53-0.7-55.98-1.36-66.15c-6.32-97.5-21.84-111.43,2.61-180.44C536.54,1189.83,601.17,1309.35,601.17,1309.35z"/>
			</g>
		</g>
		<g>
			<path class="st41" d="M501.46,1290.04c0,0-42.3,59.2-24.09,185.14c0,0,100.33,13.64,154.09-15.78c0,0-22.23-129.85-30.28-150.05
				C593.11,1289.14,501.46,1290.04,501.46,1290.04z"/>
		</g>
		<g>
			<polygon class="st40" points="646.18,1704.73 646.18,1729.12 649.34,1729.12 649.34,1710.27 			"/>
		</g>
		<g>
			<polygon class="st40" points="494.94,1704.73 494.94,1729.12 498.11,1729.12 498.11,1710.27 			"/>
		</g>
		<g>
			<path class="st32" d="M558.22,1121.81c0,0,15.59,7.36,21,8.44c5.41,1.09,26.41,28.36,30.09,38.32c3.68,9.96,0,24.89-7.58,42.42
				c-7.58,17.53-0.43,23.38-3.9,40.91c-3.47,17.53-6.49,54.66-5.85,64.39c0.65,9.74-87.55,11.58-107.67-6.17
				c0,0,20.23-30.31,22.83-34.63c2.6-4.33,0.43-27.92-1.95-33.99c-2.38-6.06-18.23-57.6-18.23-57.6s-12.96-39.58-1.25-48.68
				c10.17-7.9,37.9-10.72,42.88-12.45C533.57,1121.05,548.05,1120.29,558.22,1121.81z"/>
		</g>
		<g>
			<path class="st42" d="M563.2,1156.55l9.47-11.09l-8.22-29.2C564.45,1116.26,561.69,1132.52,563.2,1156.55z"/>
		</g>
		<g>
			<path class="st30" d="M565.67,1103.82c0,0-0.43,3.91-0.93,9.31c-0.22,2.39-0.46,5.08-0.68,7.86c-0.63,7.87-1.15,16.4-0.85,20.73
				c0,0-16.2,16.23-34.61-18.94c0,0,7.75-14.5,1.92-34.25C524.67,1068.78,565.67,1103.82,565.67,1103.82z"/>
		</g>
		<g>
			<polygon class="st30" points="563.2,1141.72 563.2,1156.55 544.57,1142.62 			"/>
		</g>
		<g>
			<polygon class="st42" points="563.2,1156.55 555.47,1146.97 529.4,1120.99 520.97,1129.11 			"/>
		</g>
		<g>
			<path class="st13" d="M525.79,1123.48c0,0,21.87,33.2,22.92,47.81c1.04,14.61-8.13,123.9-15.48,159.03
				c-7.34,35.13-60.43-3.96-60.43-3.96s35.67-57.74,21.98-103.96c-13.69-46.24-18.67-64.72-18.67-64.72s4.71-25.74,21.4-29.37
				C512.15,1125.12,525.79,1123.48,525.79,1123.48z"/>
		</g>
		<g>
			<path class="st13" d="M610.92,1172.91c0,0,3.78,14.04-11.6,44.9c0,0,0.25,39.49,0.68,51.83c0.43,12.34,9.15,56.7,9.15,56.7
				l-21,11.18c-3.06,1.8-6.85-0.69-6.43-4.21c4.31-35.51,18.31-170.18-11.94-206.38l12.14,3.58
				C581.93,1130.51,603.66,1148.07,610.92,1172.91z"/>
		</g>
		<g>
			<polygon class="st43" points="572.67,1145.46 584.61,1148.76 564.45,1116.26 			"/>
		</g>
		<g>
			<polygon class="st43" points="555.47,1146.97 544.57,1161.26 522.19,1123.96 529.95,1119.57 			"/>
		</g>
		
			<rect x="585.3" y="1198.48" transform="matrix(0.7845 -0.6201 0.6201 0.7845 -631.0807 627.3964)" class="st44" width="3.95" height="46.66"/>
		<path class="st30" d="M569.46,1237.19c0,0,2.77,0.05,4.58-1.32c3.14-2.36,4.27-8.2,9.81-7.77c5.54,0.42,8.11,17.8,6.72,21.09
			c-1.38,3.3-9.08,4.94-20.46,2.67C558.74,1249.6,569.46,1237.19,569.46,1237.19z"/>
		<path class="st30" d="M581.95,1228.22c0,0,7.97-2.72,17.17-4.71c8.07-1.74,17.71-2.31,18.64-0.91c1.05,1.56-7.86,2.9-15.76,5.15
			c-7.28,2.06-5.54,2.82-5.54,2.82s-0.48-0.24,7.83-1.02c8.93-0.83,18.14-0.81,19.04,0.97c0.44,0.87,0.14,1.46-3.09,2.28
			c1.94-0.09,2.21,0.41,2.29,1.19c0.38,4.03-12.65,7.23-17.83,8.5c3.98-0.96,6.99-1.25,5.55,1.45c-1.64,3.09-20.24,6.82-26.8,8.77
			C576.3,1254.83,581.95,1228.22,581.95,1228.22z"/>
		<path class="st13" d="M500.6,1128.89c-5.48-1.77-21.57,3.93-24.29,20.43c-2.72,16.5-3.81,34.8-6.34,43.69
			c-2.54,8.88-9.01,48.24-3.57,51.51c5.44,3.26,15.74,6.24,30.18,6.24c14.92,0,72.76,2.6,72.76,2.6l3.62-20.55
			c0,0-21.97-1.14-33.35-2.86c-10.13-1.54-24.18-5.85-40.71-7.66c0,0,3.51-24.38,6.05-31.27
			C507.49,1184.13,525.25,1136.87,500.6,1128.89z"/>
		<g>
			<polygon class="st9" points="574.53,1268.85 632.79,1257.3 676,1164.83 613.81,1171.37 			"/>
		</g>
		<g>
			<g>
				<path class="st30" d="M640.06,1241.6c0,0,3.19-2.96,6.04-7.11c2.85-4.15,12.15-20.01,11.3-21c-0.86-0.99-14.68-1.33-17.18,0.92
					c-2.51,2.26,2.46,3.14,2.46,3.14s-7.56,0.78-7.01,2.91c0.54,2.13,5.09,1.54,5.09,1.54s-6.09,1.17-5.16,3.04
					c0.92,1.87,3.85,1.85,3.85,1.85s-5.39,0.68-4.72,2.72c0.67,2.04,9.2,3.98,8.05,5.67C641.64,1237,640.06,1241.6,640.06,1241.6z"
					/>
			</g>
		</g>
		<g>
			<g>
				<g>
					<path class="st20" d="M571.19,1014c0,0,36.31,11.41,16.6,74.08c-19.71,62.66-69.3-7.26-64.11-45.44
						C528.86,1004.46,571.19,1014,571.19,1014z"/>
				</g>
			</g>
		</g>
		<g>
			<g>
				<g>
					<path class="st38" d="M591.5,1050.57c0,0-18.04,17.7-48.23,19.92c0,0-11.6,13.6-12.5,18.94c0,0-26.94-45.92,6.18-73.45
						C570.06,988.46,603.67,1039.22,591.5,1050.57z"/>
				</g>
			</g>
		</g>
		<g>
			<g>
				<g>
					<path class="st20" d="M543.63,1071.73c-0.24-4.56-3.04-14.94-9.82-12.03c-6.78,2.9,0.41,24.04,4.91,22.73
						C538.72,1082.43,544.18,1082.52,543.63,1071.73z"/>
				</g>
			</g>
		</g>
		<path class="st35" d="M564.74,1113.13c-0.22,2.39-0.46,5.08-0.68,7.86h-0.01c-20.99-10.36-24.21-25.31-24.3-25.78
			C554.7,1114.54,564.74,1113.13,564.74,1113.13z"/>
	</g>
</g>
<g>
	<linearGradient id="SVGID_1_" gradientUnits="userSpaceOnUse" x1="1136.701" y1="1411.8889" x2="1270.5811" y2="1256.4927">
		<stop  offset="0" style="stop-color:#F3B62E"/>
		<stop  offset="1" style="stop-color:#F1B01C"/>
	</linearGradient>
	<circle class="st45" cx="1273.29" cy="1253.35" r="99.81"/>
	
		<linearGradient id="SVGID_00000075855174163805159680000017864413677128925871_" gradientUnits="userSpaceOnUse" x1="1263.8585" y1="1036.5391" x2="1283.3264" y2="1484.292">
		<stop  offset="0" style="stop-color:#F3B62E"/>
		<stop  offset="1" style="stop-color:#F1B01C"/>
	</linearGradient>
	<circle style="fill:url(#SVGID_00000075855174163805159680000017864413677128925871_);" cx="1273.29" cy="1253.35" r="96.49"/>
	<path class="st47" d="M1193.72,1215.48c-0.34,0-0.68-0.08-1-0.24c-1.09-0.55-1.53-1.88-0.98-2.97
		c15.63-30.97,46.88-50.21,81.54-50.21c5.54,0,11.08,0.5,16.47,1.48c1.2,0.22,2,1.37,1.78,2.57c-0.22,1.2-1.37,2-2.57,1.78
		c-5.13-0.93-10.4-1.41-15.67-1.41c-32.98,0-62.72,18.31-77.59,47.77C1195.3,1215.04,1194.53,1215.48,1193.72,1215.48z"/>
	
		<ellipse transform="matrix(0.9906 -0.137 0.137 0.9906 -159.9942 186.5956)" class="st48" cx="1275.39" cy="1255.46" rx="81.67" ry="81.67"/>
	<g>
		
			<linearGradient id="SVGID_00000081641515081444738830000002318472264442444710_" gradientUnits="userSpaceOnUse" x1="1298.8304" y1="1075.1741" x2="1282.7706" y2="1203.6536">
			<stop  offset="0" style="stop-color:#F3B62E"/>
			<stop  offset="1" style="stop-color:#F1B01C"/>
		</linearGradient>
		<path style="fill:url(#SVGID_00000081641515081444738830000002318472264442444710_);" d="M1267.37,1316.17v-8.89
			c-9.26-0.37-18.42-2.56-24.93-5.41c-2.32-1.02-3.51-3.62-2.84-6.07l2.26-8.28c0.83-3.04,4.13-4.61,7.03-3.39
			c6.45,2.71,14.42,4.85,23.02,4.85c8.92,0,15.57-3.02,15.57-9.22c0-5.59-5.14-8.92-17.54-12.25
			c-17.69-4.84-30.39-12.55-30.39-28.13c0-14.06,10.28-24.8,28.13-27.67v-8.89c0-2.86,2.32-5.18,5.18-5.18h5.22
			c2.86,0,5.18,2.32,5.18,5.18v7.98c8.57,0.34,14.81,1.81,19.76,3.55c2.54,0.89,3.92,3.62,3.22,6.22l-2.08,7.65
			c-0.8,2.95-3.96,4.57-6.82,3.49c-4.56-1.72-11-3.52-19.38-3.52c-10.59,0-13.61,4.38-13.61,8.32c0,4.84,6.35,8.17,20.11,12.4
			c19.66,5.9,27.82,14.06,27.82,28.73c0,13.46-9.98,25.56-29.33,28.58v9.94c0,2.86-2.32,5.18-5.18,5.18h-5.22
			C1269.69,1321.35,1267.37,1319.03,1267.37,1316.17z"/>
	</g>
</g>
<linearGradient id="SVGID_00000039091389627650739470000001782067502781513355_" gradientUnits="userSpaceOnUse" x1="1555.9788" y1="766.4395" x2="1482.6184" y2="1777.7654">
	<stop  offset="0" style="stop-color:#F3B62E"/>
	<stop  offset="1" style="stop-color:#F1B01C"/>
</linearGradient>
<path style="fill:url(#SVGID_00000039091389627650739470000001782067502781513355_);" d="M1636.01,1448.23h-255.35
	c-2.01,0-3.63-1.63-3.63-3.63v-42.75c0-2.01,1.63-3.63,3.63-3.63h255.35c2.01,0,3.63,1.63,3.63,3.63v42.75
	C1639.64,1446.61,1638.02,1448.23,1636.01,1448.23z"/>
<linearGradient id="SVGID_00000163067364892763125560000001422550761395451024_" gradientUnits="userSpaceOnUse" x1="1560.1964" y1="766.6185" x2="1486.8361" y2="1777.9447">
	<stop  offset="0" style="stop-color:#F3B62E"/>
	<stop  offset="1" style="stop-color:#F1B01C"/>
</linearGradient>
<path style="fill:url(#SVGID_00000163067364892763125560000001422550761395451024_);" d="M1636.22,1503.71h-255.35
	c-2.01,0-3.63-1.63-3.63-3.63v-42.75c0-2.01,1.63-3.63,3.63-3.63h255.35c2.01,0,3.63,1.63,3.63,3.63v42.75
	C1639.85,1502.09,1638.22,1503.71,1636.22,1503.71z"/>
<linearGradient id="SVGID_00000162310260622269707350000015998119886915381898_" gradientUnits="userSpaceOnUse" x1="1564.4139" y1="766.8002" x2="1491.0536" y2="1778.126">
	<stop  offset="0" style="stop-color:#F3B62E"/>
	<stop  offset="1" style="stop-color:#F1B01C"/>
</linearGradient>
<path style="fill:url(#SVGID_00000162310260622269707350000015998119886915381898_);" d="M1636.42,1559.19h-255.35
	c-2.01,0-3.63-1.63-3.63-3.63v-42.75c0-2.01,1.63-3.63,3.63-3.63h255.35c2.01,0,3.63,1.63,3.63,3.63v42.75
	C1640.06,1557.57,1638.43,1559.19,1636.42,1559.19z"/>
<linearGradient id="SVGID_00000021077666214589790830000009605581614008864905_" gradientUnits="userSpaceOnUse" x1="1568.6316" y1="766.9794" x2="1495.2712" y2="1778.3053">
	<stop  offset="0" style="stop-color:#F3B62E"/>
	<stop  offset="1" style="stop-color:#F1B01C"/>
</linearGradient>
<path style="fill:url(#SVGID_00000021077666214589790830000009605581614008864905_);" d="M1636.63,1614.67h-255.35
	c-2.01,0-3.63-1.63-3.63-3.63v-42.75c0-2.01,1.63-3.63,3.63-3.63h255.35c2.01,0,3.63,1.63,3.63,3.63v42.75
	C1640.26,1613.05,1638.64,1614.67,1636.63,1614.67z"/>
<linearGradient id="SVGID_00000119840359953866340280000010793928263111889809_" gradientUnits="userSpaceOnUse" x1="1572.8492" y1="767.1583" x2="1499.4888" y2="1778.4846">
	<stop  offset="0" style="stop-color:#F3B62E"/>
	<stop  offset="1" style="stop-color:#F1B01C"/>
</linearGradient>
<path style="fill:url(#SVGID_00000119840359953866340280000010793928263111889809_);" d="M1636.84,1670.15h-255.35
	c-2.01,0-3.63-1.63-3.63-3.63v-42.75c0-2.01,1.63-3.63,3.63-3.63h255.35c2.01,0,3.63,1.63,3.63,3.63v42.75
	C1640.47,1668.53,1638.84,1670.15,1636.84,1670.15z"/>
<linearGradient id="SVGID_00000075151337900259325080000018381085867620599998_" gradientUnits="userSpaceOnUse" x1="1576.8196" y1="767.3192" x2="1503.4592" y2="1778.6449">
	<stop  offset="0" style="stop-color:#F3B62E"/>
	<stop  offset="1" style="stop-color:#F1B01C"/>
</linearGradient>
<path style="fill:url(#SVGID_00000075151337900259325080000018381085867620599998_);" d="M1636.84,1725.05h-255.35
	c-2.01,0-3.63-1.63-3.63-3.63v-42.75c0-2.01,1.63-3.63,3.63-3.63h255.35c2.01,0,3.63,1.63,3.63,3.63v42.75
	C1640.47,1723.42,1638.84,1725.05,1636.84,1725.05z"/>
<linearGradient id="SVGID_00000069384790473690766030000010722385167850255293_" gradientUnits="userSpaceOnUse" x1="1858.3026" y1="1015.2208" x2="1758.6588" y2="1854.3214">
	<stop  offset="0" style="stop-color:#F3B62E"/>
	<stop  offset="1" style="stop-color:#F1B01C"/>
</linearGradient>
<path style="fill:url(#SVGID_00000069384790473690766030000010722385167850255293_);" d="M1930.94,1503.71h-255.35
	c-2.01,0-3.63-1.63-3.63-3.63v-42.75c0-2.01,1.63-3.63,3.63-3.63h255.35c2.01,0,3.63,1.63,3.63,3.63v42.75
	C1934.57,1502.09,1932.94,1503.71,1930.94,1503.71z"/>
<linearGradient id="SVGID_00000126286307960550595270000016840077638079023291_" gradientUnits="userSpaceOnUse" x1="1865.0228" y1="1015.8465" x2="1765.379" y2="1854.9469">
	<stop  offset="0" style="stop-color:#F3B62E"/>
	<stop  offset="1" style="stop-color:#F1B01C"/>
</linearGradient>
<path style="fill:url(#SVGID_00000126286307960550595270000016840077638079023291_);" d="M1931.14,1559.19H1675.8
	c-2.01,0-3.63-1.63-3.63-3.63v-42.75c0-2.01,1.63-3.63,3.63-3.63h255.35c2.01,0,3.63,1.63,3.63,3.63v42.75
	C1934.78,1557.57,1933.15,1559.19,1931.14,1559.19z"/>
<linearGradient id="SVGID_00000050624073033139096420000018155079103914531981_" gradientUnits="userSpaceOnUse" x1="1871.743" y1="1016.472" x2="1772.0992" y2="1855.5725">
	<stop  offset="0" style="stop-color:#F3B62E"/>
	<stop  offset="1" style="stop-color:#F1B01C"/>
</linearGradient>
<path style="fill:url(#SVGID_00000050624073033139096420000018155079103914531981_);" d="M1931.35,1614.67H1676
	c-2.01,0-3.63-1.63-3.63-3.63v-42.75c0-2.01,1.63-3.63,3.63-3.63h255.35c2.01,0,3.63,1.63,3.63,3.63v42.75
	C1934.98,1613.05,1933.36,1614.67,1931.35,1614.67z"/>
<linearGradient id="SVGID_00000065045943982836955380000009092261421930190492_" gradientUnits="userSpaceOnUse" x1="1878.4633" y1="1017.0967" x2="1778.8195" y2="1856.1974">
	<stop  offset="0" style="stop-color:#F3B62E"/>
	<stop  offset="1" style="stop-color:#F1B01C"/>
</linearGradient>
<path style="fill:url(#SVGID_00000065045943982836955380000009092261421930190492_);" d="M1931.56,1670.15h-255.35
	c-2.01,0-3.63-1.63-3.63-3.63v-42.75c0-2.01,1.63-3.63,3.63-3.63h255.35c2.01,0,3.63,1.63,3.63,3.63v42.75
	C1935.19,1668.53,1933.56,1670.15,1931.56,1670.15z"/>
<linearGradient id="SVGID_00000129166776145832289850000002893549661981717647_" gradientUnits="userSpaceOnUse" x1="1884.9113" y1="1017.6926" x2="1785.2676" y2="1856.7928">
	<stop  offset="0" style="stop-color:#F3B62E"/>
	<stop  offset="1" style="stop-color:#F1B01C"/>
</linearGradient>
<path style="fill:url(#SVGID_00000129166776145832289850000002893549661981717647_);" d="M1931.56,1725.05h-255.35
	c-2.01,0-3.63-1.63-3.63-3.63v-42.75c0-2.01,1.63-3.63,3.63-3.63h255.35c2.01,0,3.63,1.63,3.63,3.63v42.75
	C1935.19,1723.42,1933.56,1725.05,1931.56,1725.05z"/>
<g>
	
		<linearGradient id="SVGID_00000000903608528317207400000014702697596635588243_" gradientUnits="userSpaceOnUse" x1="2185.6697" y1="1057.4891" x2="2318.2971" y2="903.5468">
		<stop  offset="0" style="stop-color:#F3B62E"/>
		<stop  offset="1" style="stop-color:#F1B01C"/>
	</linearGradient>
	<circle style="fill:url(#SVGID_00000000903608528317207400000014702697596635588243_);" cx="2320.98" cy="900.44" r="98.88"/>
	
		<linearGradient id="SVGID_00000170992372537740401130000014644189190699877040_" gradientUnits="userSpaceOnUse" x1="2337.8152" y1="608.5632" x2="2314.6724" y2="1009.7007">
		<stop  offset="0" style="stop-color:#F3B62E"/>
		<stop  offset="1" style="stop-color:#F1B01C"/>
	</linearGradient>
	<circle style="fill:url(#SVGID_00000170992372537740401130000014644189190699877040_);" cx="2320.98" cy="900.44" r="95.59"/>
	<path class="st47" d="M2242.15,862.92c-0.33,0-0.67-0.07-0.99-0.24c-1.08-0.55-1.52-1.86-0.97-2.95
		c15.48-30.68,46.44-49.74,80.78-49.74c5.48,0,10.97,0.49,16.31,1.47c1.19,0.22,1.98,1.36,1.76,2.55c-0.22,1.19-1.36,1.98-2.55,1.76
		c-5.08-0.93-10.31-1.4-15.53-1.4c-32.68,0-62.13,18.13-76.86,47.33C2243.73,862.48,2242.95,862.92,2242.15,862.92z"/>
	
		<ellipse transform="matrix(0.991 -0.1342 0.1342 0.991 -100.0912 319.8636)" class="st48" cx="2323.06" cy="902.52" rx="80.91" ry="80.91"/>
	<g>
		
			<linearGradient id="SVGID_00000090267658102980725610000017560316852540580251_" gradientUnits="userSpaceOnUse" x1="2439.3784" y1="652.0248" x2="2385.864" y2="769.1778">
			<stop  offset="0" style="stop-color:#F3B62E"/>
			<stop  offset="1" style="stop-color:#F1B01C"/>
		</linearGradient>
		<path style="fill:url(#SVGID_00000090267658102980725610000017560316852540580251_);" d="M2315.12,962.67v-8.8
			c-9.18-0.37-18.25-2.53-24.7-5.35c-2.3-1.01-3.48-3.59-2.81-6.02l2.24-8.2c0.82-3.01,4.09-4.56,6.97-3.36
			c6.39,2.68,14.29,4.8,22.8,4.8c8.84,0,15.43-3,15.43-9.14c0-5.54-5.09-8.84-17.38-12.13c-17.53-4.79-30.11-12.43-30.11-27.86
			c0-13.93,10.19-24.57,27.86-27.41v-8.8c0-2.83,2.3-5.13,5.13-5.13h5.17c2.83,0,5.13,2.3,5.13,5.13v7.9
			c8.49,0.34,14.67,1.79,19.58,3.52c2.51,0.88,3.89,3.59,3.19,6.16l-2.06,7.58c-0.79,2.92-3.92,4.53-6.75,3.45
			c-4.52-1.71-10.9-3.49-19.2-3.49c-10.49,0-13.48,4.34-13.48,8.24c0,4.79,6.29,8.09,19.92,12.28
			c19.47,5.84,27.56,13.93,27.56,28.46c0,13.33-9.89,25.32-29.06,28.31v9.85c0,2.83-2.3,5.13-5.13,5.13h-5.17
			C2317.42,967.8,2315.12,965.5,2315.12,962.67z"/>
	</g>
</g>
</svg>
