<?xml version="1.0" encoding="utf-8"?>
<!-- Generator: Adobe Illustrator 27.2.0, SVG Export Plug-In . SVG Version: 6.00 Build 0)  -->
<svg version="1.1" id="Layer_1" xmlns="http://www.w3.org/2000/svg" xmlns:xlink="http://www.w3.org/1999/xlink" x="0px" y="0px"
	 viewBox="0 0 2880 1800" style="enable-background:new 0 0 2880 1800;" xml:space="preserve">
<style type="text/css">
	.st0{fill:#3FAAE0;}
	.st1{fill:#77787B;}
	.st2{fill:#1C71B7;}
	.st3{fill:#FFFFFF;}
	.st4{font-family:'ArialRoundedMTBold';}
	.st5{font-size:79.7974px;}
	.st6{fill:#515254;}
	.st7{fill:#A4DBDD;}
	.st8{fill:#3C5A73;}
	.st9{fill:#00558C;}
	.st10{fill:#46738C;}
	.st11{fill:#1D9585;}
	.st12{fill:#D4EBF9;}
	.st13{fill:#0D5FA3;}
</style>
<g>
	<rect x="1927.4" y="764.57" width="73.18" height="21.45"/>
	<rect x="363.03" y="1312.23" class="st0" width="319.63" height="15.58"/>
	<rect x="363.03" y="1281.08" class="st0" width="319.63" height="15.58"/>
	<rect x="1351.04" y="1533.94" class="st1" width="158.81" height="219.06"/>
	<rect x="1265.62" y="1721.43" width="328.63" height="31.57"/>
	<rect x="364.62" y="1344.45" class="st2" width="57.26" height="11.91"/>
	<rect x="625.4" y="1344.45" class="st2" width="57.26" height="11.91"/>
	<rect x="538.96" y="1344.45" class="st2" width="57.26" height="11.91"/>
	<rect x="451.8" y="1345.66" class="st2" width="57.26" height="11.91"/>
	<g>
		<path class="st1" d="M2197.06,410.02c0.59,0.28,1.29,0.15,1.74-0.32l12.93-13.3c8.47,1.8,17.29,2.26,26.15,1.22l11.63,14.43
			c0.41,0.51,1.09,0.7,1.7,0.48l20.93-7.55c0.61-0.22,1.02-0.81,1.01-1.45l-0.26-18.53c7.47-4.86,13.97-10.84,19.34-17.64
			l18.44,1.98c0.65,0.07,1.27-0.28,1.54-0.87l9.46-20.14c0.28-0.59,0.15-1.29-0.32-1.74l-13.3-12.93c1.8-8.47,2.26-17.29,1.22-26.15
			l14.43-11.63c0.51-0.41,0.7-1.09,0.48-1.7l-7.55-20.93c-0.22-0.61-0.81-1.02-1.46-1.01l-18.53,0.26
			c-4.86-7.47-10.84-13.97-17.64-19.34l1.98-18.44c0.07-0.65-0.28-1.27-0.87-1.54l-20.14-9.46c-0.59-0.28-1.29-0.15-1.74,0.32
			l-12.93,13.3c-8.47-1.8-17.29-2.26-26.15-1.22l-11.63-14.43c-0.41-0.51-1.09-0.7-1.7-0.48l-20.93,7.55
			c-0.61,0.22-1.02,0.81-1.01,1.46l0.26,18.53c-7.47,4.86-13.97,10.84-19.34,17.64l-18.44-1.98c-0.65-0.07-1.27,0.28-1.54,0.87
			l-9.46,20.14c-0.28,0.59-0.15,1.29,0.32,1.74l13.3,12.93c-1.8,8.47-2.26,17.29-1.22,26.15l-14.43,11.63
			c-0.51,0.41-0.7,1.09-0.48,1.7l7.55,20.93c0.22,0.61,0.8,1.02,1.45,1.01l18.53-0.26c4.86,7.47,10.84,13.97,17.64,19.34
			l-1.98,18.44c-0.07,0.65,0.28,1.27,0.87,1.54L2197.06,410.02z"/>
		<path class="st3" d="M2237.96,336.6c-9.61,4.61-21.43,1.6-27.56-7.49c-3.27-4.84-4.45-10.66-3.34-16.39
			c1.11-5.73,4.39-10.69,9.23-13.95c4.83-3.26,10.66-4.45,16.39-3.34c5.73,1.11,10.69,4.39,13.95,9.23
			c6.74,9.99,4.1,23.61-5.89,30.35l0,0C2239.84,335.61,2238.91,336.14,2237.96,336.6z M2220.89,300.97
			c-0.77,0.37-1.52,0.8-2.25,1.29c-3.91,2.64-6.55,6.64-7.45,11.26c-0.9,4.63,0.06,9.33,2.69,13.24c5.44,8.07,16.43,10.21,24.5,4.76
			l0,0c8.07-5.44,10.2-16.43,4.76-24.5C2238.2,299.67,2228.65,297.24,2220.89,300.97z"/>
		<path class="st3" d="M2252.91,366.7c-1.71,0.82-3.48,1.56-5.29,2.21l0,0c-0.72,0.26-1.45,0.51-2.19,0.74
			c-2.57,0.81-5.2,1.44-7.85,1.87c-0.09,0.02-0.18,0.03-0.27,0.04c-0.23,0.03-0.45,0.07-0.68,0.1c-0.18,0.03-0.37,0.05-0.55,0.08
			c-0.93,0.12-1.79-0.37-2.18-1.17c-0.09-0.19-0.16-0.41-0.19-0.63c-0.16-1.15,0.65-2.21,1.81-2.37c3.61-0.49,7.2-1.37,10.66-2.62
			c7.71-2.78,14.5-7.25,19.97-13.04c3.72-3.94,6.84-8.5,9.21-13.55c5.86-12.47,6.51-26.47,1.83-39.43c-0.6-1.68-1.29-3.31-2.05-4.9
			c-5.12-10.67-13.68-19.18-24.54-24.28c-12.47-5.86-26.47-6.51-39.43-1.83c-12.96,4.68-23.32,14.12-29.18,26.59
			c-5.86,12.47-6.51,26.47-1.83,39.43c0.6,1.65,1.27,3.26,2.02,4.83c3.27,6.81,7.99,12.82,13.84,17.59c0.25,0.2,0.44,0.45,0.57,0.72
			c0.34,0.71,0.26,1.59-0.27,2.24c-0.74,0.9-2.06,1.03-2.96,0.3c-6.33-5.17-11.44-11.67-14.97-19.03c-0.82-1.7-1.55-3.44-2.19-5.23
			c-5.06-14.02-4.35-29.16,1.98-42.65c6.33-13.49,17.53-23.69,31.56-28.76c14.02-5.06,29.16-4.36,42.65,1.98
			c11.74,5.51,21,14.72,26.54,26.26c0.82,1.72,1.56,3.48,2.22,5.29c5.06,14.02,4.36,29.16-1.98,42.65
			C2273.66,351.9,2264.45,361.16,2252.91,366.7z"/>
	</g>
	<g>
		<path class="st1" d="M2122.69,499.74c0.71-0.76,0.85-1.89,0.36-2.81l-14.03-26.16c6.84-12.06,11.82-25.29,14.53-39.3l27.65-10.76
			c0.97-0.38,1.59-1.33,1.55-2.37l-1.39-35.58c-0.04-1.04-0.74-1.94-1.73-2.24l-28.4-8.57c-3.79-13.75-9.78-26.56-17.55-38.05
			l11.95-27.18c0.42-0.95,0.19-2.07-0.58-2.77l-26.14-24.18c-0.76-0.71-1.89-0.85-2.81-0.36l-26.16,14.03
			c-12.06-6.84-25.29-11.82-39.3-14.53l-10.76-27.65c-0.38-0.97-1.33-1.59-2.37-1.55l-35.58,1.39c-1.04,0.04-1.94,0.74-2.24,1.73
			l-8.57,28.4c-13.75,3.79-26.56,9.78-38.05,17.55l-27.18-11.95c-0.95-0.42-2.07-0.19-2.77,0.58l-24.18,26.14
			c-0.71,0.76-0.85,1.89-0.36,2.81l14.03,26.16c-6.85,12.06-11.82,25.29-14.53,39.3l-27.65,10.76c-0.97,0.38-1.59,1.33-1.55,2.37
			l1.39,35.58c0.04,1.04,0.74,1.94,1.73,2.24l28.4,8.57c3.79,13.75,9.78,26.56,17.55,38.05L1876,506.58
			c-0.42,0.95-0.19,2.07,0.58,2.77l26.14,24.18c0.76,0.71,1.89,0.85,2.81,0.36l26.16-14.03c12.06,6.84,25.29,11.82,39.3,14.53
			l10.76,27.65c0.38,0.97,1.33,1.59,2.37,1.55l35.58-1.39c1.04-0.04,1.94-0.74,2.24-1.73l8.57-28.4
			c13.75-3.79,26.56-9.78,38.05-17.55l27.18,11.95c0.95,0.42,2.07,0.19,2.77-0.58L2122.69,499.74z"/>
		<path class="st3" d="M2030.47,401.79c2.38,16.89-7.93,33.47-24.77,38.43c-8.97,2.64-18.42,1.63-26.63-2.84
			c-8.21-4.47-14.18-11.88-16.82-20.84c-2.63-8.95-1.63-18.42,2.84-26.63c4.47-8.21,11.88-14.18,20.84-16.82
			c18.51-5.45,38,5.18,43.45,23.69l0,0C2029.87,398.44,2030.23,400.11,2030.47,401.79z M1967.83,410.57
			c0.19,1.35,0.48,2.71,0.88,4.06c2.13,7.24,6.95,13.21,13.58,16.83c6.63,3.61,14.26,4.43,21.5,2.3
			c14.94-4.4,23.54-20.12,19.12-35.08l0,0c-4.4-14.94-20.13-23.52-35.08-19.12C1974.24,383.55,1965.91,396.94,1967.83,410.57z"/>
		<path class="st3" d="M2083.63,393.56c0.42,3.01,0.7,6.06,0.82,9.14l0,0c0.05,1.23,0.07,2.46,0.07,3.69
			c-0.01,4.32-0.33,8.64-0.95,12.88c-0.02,0.15-0.04,0.29-0.07,0.43c-0.06,0.36-0.11,0.72-0.17,1.08c-0.05,0.29-0.1,0.59-0.15,0.88
			c-0.26,1.47-1.44,2.56-2.85,2.75c-0.34,0.05-0.7,0.05-1.05-0.02c-1.83-0.32-3.06-2.06-2.74-3.9c1.01-5.75,1.4-11.65,1.17-17.54
			c-0.51-13.1-4.04-25.63-10.23-36.78c-4.21-7.59-9.65-14.54-16.21-20.61c-16.19-14.97-37.24-22.75-59.28-21.88
			c-2.85,0.11-5.68,0.36-8.46,0.76c-18.76,2.65-35.89,11.59-48.93,25.68c-14.97,16.19-22.75,37.24-21.88,59.27
			c0.86,22.04,10.25,42.42,26.44,57.39c16.19,14.98,37.24,22.75,59.28,21.88c2.81-0.11,5.59-0.36,8.36-0.75
			c11.97-1.69,23.43-5.98,33.55-12.59c0.43-0.28,0.9-0.45,1.37-0.52c1.25-0.18,2.55,0.36,3.29,1.49c1.02,1.57,0.58,3.65-0.98,4.67
			c-10.95,7.16-23.35,11.8-36.29,13.63c-2.99,0.42-6,0.69-9.04,0.81c-23.84,0.93-46.6-7.48-64.11-23.67
			c-17.51-16.19-27.66-38.22-28.6-62.07c-0.93-23.83,7.48-46.6,23.67-64.12c14.1-15.25,32.63-24.91,52.92-27.78
			c3.02-0.42,6.07-0.7,9.15-0.82c23.83-0.93,46.6,7.48,64.11,23.67C2071.1,354.73,2080.77,373.27,2083.63,393.56z"/>
	</g>
	<text transform="matrix(1 0 0 1 2391.6143 1106.2412)" class="st3 st4 st5">@</text>
	<g>
		<g>
			<path class="st6" d="M794.51,1390.21c403.22-0.02,806.43-0.03,1209.65-0.1c5.7,0,11.65,1.09,17.05-1.37
				c13.78-0.02,27.55-0.04,41.33-0.06c0.16,8.4,0.09,16.82,0.57,25.21c0.28,4.97-2.63,6.42-8.54,6.35
				c-12.62-0.16-25.29,0.48-37.84-0.23c-9.95-0.56-11.96,2.5-11.83,9.41c0.44,23.66,0.13,47.32,0.21,70.98
				c0.03,7.84-1.86,15.65-0.1,23.52c1.13,5.07-2.4,7.25-8.73,7.23c-9.2-0.03-18.4-0.02-27.61-0.02c-4.07-2.99-9.12-1.58-13.69-1.58
				c-382.11-0.07-764.22-0.07-1146.33-0.08c-13.28,0-14.19-0.62-14.19-10.54C794.43,1476.01,794.48,1433.11,794.51,1390.21z
				 M1429.22,1499.53c20.21,0.24,36.38-15.37,36.66-35.39c0.28-20.5-15.62-37.01-35.79-37.18c-20.63-0.17-36.74,15.47-36.95,35.87
				C1392.93,1483.55,1408.39,1499.28,1429.22,1499.53z M2062.79,1529.5h-81.55v-127.14h81.55V1529.5z"/>
			<path class="st7" d="M1781.07,1079.04c72.12,0,144.24,0.12,216.36-0.16c7.82-0.03,10.38,1.89,10.36,10.08
				c-0.28,89.22-0.26,178.44-0.02,267.67c0.02,7.68-1.65,10.38-9.97,10.37c-143.98-0.25-287.96-0.17-431.93-0.16
				c-10.17,0-10.17-0.01-10.17-10.35c-0.04-89.22,0.03-178.44-0.3-267.66c-0.03-8.1,2.16-10.01,10.13-9.97
				C1637.35,1079.17,1709.21,1079.04,1781.07,1079.04z M1979.72,1309.81c-5.77-0.37-11.51-1.06-17.26-1.07
				c-125.51-0.06-251.01-0.04-376.52-0.03c-2.37,0-4.74,0.01-7.1,0.16c-2.02,0.12-3.22,1.18-3.86,3.26
				c-3.05,9.95,0.39,15.01,10.42,15.01c127.35,0.01,254.7,0.02,382.04,0.03c14.75,0,14.76-0.02,13.3-14.86
				C1980.71,1311.82,1980.38,1311.36,1979.72,1309.81z M1777.83,1164.8c0-0.03,0-0.06,0-0.09c63.96,0,127.92,0,191.88,0
				c2.11,0,4.21-0.07,6.32,0c3.16,0.09,4.61-1.15,5.02-4.53c1.43-11.71,0.38-13.04-11.6-13.04c-99.23,0-198.46,0-297.69,0
				c-29.74,0-59.49-0.02-89.23,0.05c-2.47,0.01-5.99-1.16-7.04,1.92c-1.44,4.23-1.45,9.05-0.12,13.22c1.36,4.27,5.87,2.4,9,2.41
				C1648.86,1164.82,1713.34,1164.8,1777.83,1164.8z M1778.72,1227.93c-60.24,0-120.48,0-180.72,0c-5.79,0-11.57-0.03-17.36,0.01
				c-2.3,0.02-4.7-0.37-5.76,2.74c-3.2,9.31,0.59,14.84,10.39,14.84c128.64,0,257.27,0,385.91-0.01c1.84,0,3.68,0.01,5.52-0.07
				c1.6-0.06,3.02-0.38,3.91-2.04c4.02-7.48-0.77-15.48-9.32-15.48C1907.09,1227.93,1842.91,1227.93,1778.72,1227.93z
				 M1777.79,1268.66c-47.11,0-94.23,0-141.34,0c-18.16,0-36.32-0.03-54.48,0.07c-2.42,0.01-5.34-1-6.81,2.36
				c-3.69,8.44,0.62,15.15,9.83,15.15c122.65,0,245.31,0,367.96,0c7.37,0,14.74-0.14,22.11,0.07c4.42,0.13,5.89-1.62,6.05-6.01
				c0.42-11.64,0.61-11.66-11.43-11.66C1905.71,1268.65,1841.75,1268.65,1777.79,1268.66z M1777.7,1204.61c0-0.02,0-0.03,0-0.05
				c65,0,129.99-0.09,194.99,0.13c6.56,0.02,8.36-1.96,8.56-8.45c0.23-7.51-2.9-8.5-9.32-8.49c-110.26,0.16-220.52,0.11-330.77,0.11
				c-19.74,0-39.47-0.06-59.21,0.01c-2.68,0.01-5.87-0.9-7.02,3.22c-2.64,9.45,0.32,13.52,10.14,13.52
				C1649.29,1204.61,1713.49,1204.61,1777.7,1204.61z M1664.88,1107.91c0,0.01,0,0.02,0,0.03c-27.11,0-54.23,0.23-81.34-0.15
				c-7.16-0.1-9,2.4-8.84,9.15c0.15,6.11,0.54,9.63,8.32,9.59c54.75-0.31,109.51-0.32,164.26-0.01c8.33,0.05,7.55-4.5,7.82-10.03
				c0.3-6.16-1.04-8.84-8.09-8.74C1719.64,1108.16,1692.26,1107.91,1664.88,1107.91z"/>
			<path class="st8" d="M2434.17,1041.48c52.9,0,105.81,0,158.71,0c14.4,0,18.21,3.79,18.22,18.17
				c0.05,63.16,0.1,126.33,0.13,189.49c0.01,17.4-2.87,20.33-19.95,20.34c-38.69,0.01-77.4-0.81-116.07,0.19
				c-66.57,1.73-133.13,0.51-199.69,0.95c-13.92,0.09-18.43-4.46-18.43-18.42c-0.04-64.74-0.05-129.49-0.04-194.23
				c0-12.14,4.33-16.32,16.83-16.32c53.43-0.02,106.86-0.01,160.29-0.01C2434.17,1041.59,2434.17,1041.53,2434.17,1041.48z
				 M2587.63,1055.8c-1.68,0.92-3.6,1.74-5.27,2.9c-16.18,11.22-32.32,22.52-48.48,33.77c-29.52,20.55-59.14,40.94-88.51,61.71
				c-6.53,4.62-11.26,5.29-18.47,0.23c-28.82-20.2-58.28-39.5-87.49-59.14c-19.57-13.15-39.13-26.31-58.59-39.39
				c-8.28,7.53-8.24,9.11,0.22,14.82c49.41,33.36,98.87,66.64,148.17,100.16c4.93,3.35,8.64,3.5,13.44,0.08
				c14.97-10.64,30.2-20.93,45.28-31.42c32.97-22.93,65.9-45.94,98.89-68.84C2595.35,1064.77,2595.53,1063.62,2587.63,1055.8z"/>
			<path d="M2062.67,1389.47c-10.62,0.02-21.24,0.04-31.86,0.06c0.03-124.24,0.07-248.48,0.09-372.71c0.01-61.86,0-123.71,0-185.57
				c0-23.34-11.5-34.78-35.03-34.78c-248.76,0-497.52,0-746.28,0c-129.51,0-259.02,0.03-388.53-0.09
				c-10.23-0.01-19.3,2.23-26.55,9.76c-6.06,6.28-7.61,13.97-7.6,22.5c0.12,114.5,0.1,229,0.05,343.5c0,2.81,0.93,5.78-0.83,8.44
				c-0.06-2.89-0.16-5.78-0.16-8.67c-0.01-113.09,0-226.18-0.05-339.27c0-2.64,0.77-5.43-1.34-9.35c0,2.69,0,3.96,0,5.23
				c0,115.19-0.01,230.39,0.02,345.58c0,2.31-0.62,4.77,1.04,6.85c-10.7,1.04-21.62,1.45-29.13,10.68
				c-2.87-1.96-1.77-4.26-1.77-6.12c-0.05-118.69,0.45-237.38-0.28-356.07c-0.25-40.05,32.77-63.4,63.92-63.37
				c379.78,0.37,759.56,0.24,1139.34,0.24c40.05,0,65.08,25.03,65.07,64.98c-0.01,183.43,0,366.86-0.01,550.29
				C2062.78,1384.21,2062.7,1386.84,2062.67,1389.47z M2000.74,795.28c0.07-0.24,0.14-0.48,0.21-0.72c-264.08,0-528.16,0-792.24,0
				c0,0.24,0,0.48,0,0.72C1472.72,795.28,1736.73,795.28,2000.74,795.28z M1198.26,795.46c0.1-0.24,0.2-0.47,0.31-0.71
				c-114.45,0-228.9,0-343.35,0c0,0.24,0,0.47,0,0.71C969.56,795.46,1083.91,795.46,1198.26,795.46z"/>
			<path class="st8" d="M291.82,921.15c0.03,3.29,0.06,6.57,0.09,9.86c-4.69,0.71-4.97,5.16-7.27,7.87c1.98,2.93,3.8,5.35,7.19,5.81
				c10.29,7.28,20.58,14.56,30.86,21.86c2.95,2.09,6.27,2.38,9.77,2.38c67.89-0.06,135.77-0.08,203.66-0.06
				c3.52,0,6.63-0.53,9.63-2.66c9.21-6.55,18.44-13.1,27.96-19.17c5.78-3.68,8.1-8.43,7.74-15.08c-0.29-5.34-0.06-10.71-0.06-17.95
				c5.04,5.4,10.05,7.51,14.39,10.57c4.58,3.22,4.58,8.5,4.58,13.61c-0.03,49.99,0,99.98,0,149.97c0,10.52,0.07,21.05-0.02,31.57
				c-0.09,10.5-4.53,14.92-14.71,15.12c-99.43,2.02-198.86,0.8-298.3,1.1c-13.73,0.04-18.6-4.82-18.6-18.46
				c-0.02-59.73-0.01-119.45,0.03-179.18c0.01-10.6,2.99-14.24,13.55-17.12C285.49,921.18,288.66,921.17,291.82,921.15z
				 M519.89,982.41c-57.59,0-114.42,0-172.7,0c2.04,1.77,2.75,2.53,3.6,3.09c26.95,17.9,53.95,35.73,80.84,53.73
				c4.34,2.9,7.55,1.72,11.36-0.98c21.69-15.33,43.54-30.42,65.23-45.74C512.15,989.74,516.86,987.7,519.89,982.41z"/>
			<path class="st9" d="M1429.54,120.66c119.52,0.32,214.71,96.76,214.37,217.19c-0.34,117.58-97.78,213.75-216.09,213.27
				c-118.48-0.48-215.13-97.7-214.52-215.79C1213.92,215.94,1310.22,120.34,1429.54,120.66z M1621.43,336.04
				c0.44-104.38-85.25-191.55-187.72-193.29c-108.67-1.84-196.94,84.69-197.59,190.37c-0.67,108.69,84.96,195.57,192.28,195.51
				C1535.26,528.58,1620.99,443.05,1621.43,336.04z"/>
			<path class="st10" d="M2391.19,842.26c0.07-72.33,0.14-144.67,0.2-217c0.02-19.59,0-19.59,19.82-19.59
				c9.47,0,18.97,0.44,28.4-0.15c6.92-0.43,8.91,1.65,8.88,8.72c-0.27,72.86-0.17,145.72-0.16,218.58c0,3.15,0.17,6.3,0.26,9.46
				C2429.45,842.28,2410.32,842.27,2391.19,842.26z"/>
			<path class="st2" d="M2391.19,842.26c19.13,0.01,38.27,0.02,57.41,0.03c26.85,0.1,53.7,0.37,80.54,0.16
				c6.25-0.05,8.31,1.78,6.48,7.77c-2.2,2.1-4.97,1.21-7.49,1.21c-99.77,0.06-199.54,0-299.31,0.2c-6.24,0.01-8.04-1.68-8.03-7.95
				c0.19-99.5,0.18-198.99,0.09-298.49c-0.01-5.95,1.12-9.36,8.71-6.47c0,18.21-0.01,36.59,0,54.96
				c0.02,46.06,0.2,92.13-0.11,138.19c-0.05,7.66,1.47,10.66,9.91,10.24c15.43-0.77,30.93-0.22,47.2-0.22c0,33.63,0,66.42,0,100.37
				C2321.99,842.26,2356.59,842.26,2391.19,842.26z"/>
			<path class="st10" d="M501.17,825.02c-44.66,0-88.09,0-133.05,0c9.12-10.05,17.33-19.11,25.54-28.17
				c9.35-10.32,18.6-20.74,28.07-30.96c8.8-9.49,17.41-9.48,26.2,0.16C465.44,785.27,482.8,804.65,501.17,825.02z"/>
			<path class="st8" d="M438.48,929.72c35.22-0.01,70.44,0.04,105.66-0.06c5.02-0.02,8.38,0.25,8.52,6.92
				c0.14,6.94-3.52,6.75-8.38,6.74c-70.97-0.09-141.93-0.11-212.9-0.05c-4.89,0-8.62,0.1-8.64-6.73c-0.03-6.74,3.51-6.88,8.5-6.87
				C366.99,929.78,402.73,929.73,438.48,929.72z"/>
			<path class="st8" d="M437.53,852.35c35.49-0.01,70.98,0.2,106.46-0.17c7.39-0.08,9.14,2.71,8.54,9.26
				c-0.32,3.45-1.77,4.65-4.95,4.49c-1.05-0.06-2.1,0-3.15,0c-70.98,0-141.96,0.01-212.93-0.05c-3.65,0-8.17,1.43-8.67-4.97
				c-0.49-6.34,1.4-8.75,8.24-8.69C366.55,852.52,402.04,852.35,437.53,852.35z"/>
			<path class="st8" d="M324.72,903.67c-1.51-3.93-1.12-7.49-0.39-10.99c2.39-2.07,5.14-1.34,7.68-1.35
				c70.53-0.03,141.07-0.01,211.6-0.02c4.59,0,9.15-0.64,8.96,6.45c-0.12,4.53-1.14,6.6-6.2,6.59
				c-72.64-0.14-145.28-0.11-217.92-0.15C327.2,904.19,325.95,903.85,324.72,903.67z"/>
			<path class="st9" d="M692.15,1031.88c-3.95,3.78-5.5,8.28-10.48,10.79c-20.35-19.05-40.76-38.16-61.93-57.99
				c14.43-13.53,27.98-26.24,41.55-38.94c4.41-4.13,8.94-8.13,13.3-12.31c7.49-7.17,7.46-7.22,14.52,0.46
				c0.86,0.94,1.58,2,2.58,3.27c-4.72,6.66-10.73,11.83-16.63,16.85c-7.22,6.16-13.85,12.89-20.68,19.42
				c-8.24,7.88-7.46,16.48,0.99,24.02C667.68,1008.46,679.51,1020,692.15,1031.88z"/>
			<path class="st11" d="M1904.37,833.61c0,9.04,0.01,17.64-0.01,26.24c0,2.62-1.44,3.74-3.98,3.74
				c-23.06-0.01-46.11-0.01-69.71-0.01c0-10.3,0-19.87,0-29.97C1855.12,833.61,1879.34,833.61,1904.37,833.61z"/>
			<path class="st11" d="M1779.62,862.36c-2.41,1.84-5.13,1.25-7.7,1.25c-19.46,0.04-38.93-0.16-58.38,0.12
				c-5.56,0.08-7.44-1.66-7.13-7.2c0.42-7.52,0.1-15.08,0.1-23.02c24.85,0,48.67,0,73.11,0
				C1779.62,843.29,1779.62,852.85,1779.62,862.36z"/>
			<path class="st11" d="M1211.88,863.04c0-10.14,0-19.49,0-29.4c24.38,0,48.36,0,72.92,0c0,9.7,0,19.25,0,29.4
				C1260.61,863.04,1236.62,863.04,1211.88,863.04z"/>
			<path class="st11" d="M1408.69,833.6c0,10.12,0,19.5,0,29.46c-24.37,0-48.38,0-72.95,0c0-9.83,0-19.37,0-29.46
				C1359.96,833.6,1383.96,833.6,1408.69,833.6z"/>
			<path class="st11" d="M964.3,862.85c0-9.62,0-18.97,0-29.06c24.24,0,48.39,0,72.99,0c0,9.6,0,18.93,0,29.06
				C1013.04,862.85,988.89,862.85,964.3,862.85z"/>
			<path class="st11" d="M1088.17,863.5c0-10.5,0-19.86,0-29.82c24.31,0,48.28,0,73.61,0c0,8.85,0.01,17.67-0.01,26.48
				c-0.01,2.29-1.42,3.32-3.53,3.32C1135.22,863.51,1112.19,863.5,1088.17,863.5z"/>
			<path class="st11" d="M1583.35,862.55c0-9.62,0-18.96,0-28.89c24.32,0,48.37,0,72.99,0c0,9.44,0,18.77,0,28.89
				C1632.26,862.55,1608.04,862.55,1583.35,862.55z"/>
			<path class="st11" d="M939.61,833.53c0,10.08,0,19.44,0,29.3c-24.25,0-48.05,0-72.49,0c0-9.74,0-19.28,0-29.3
				C891.29,833.53,915.09,833.53,939.61,833.53z"/>
			<path class="st11" d="M1459.72,862.85c0-10.09,0-19.23,0-29.08c24.12,0,48.1,0,72.54,0c0,9.47,0,19.04,0,29.08
				C1508.09,862.85,1484.33,862.85,1459.72,862.85z"/>
			<path class="st2" d="M2499.53,1368.94c0,9.15,0.11,18.3-0.03,27.45c-0.16,10.59-6.3,16.93-16.12,16.95
				c-10.01,0.02-16.23-6.03-16.37-16.68c-0.23-18.29-0.26-36.59-0.08-54.89c0.11-11.17,6.61-18.18,16.2-18.23
				c9.67-0.06,16.17,6.89,16.41,17.97c0.2,9.14,0.04,18.29,0.04,27.44C2499.57,1368.94,2499.55,1368.94,2499.53,1368.94z"/>
			<path class="st2" d="M2387.83,1368.2c-0.01,9.51,0.09,19.02-0.03,28.53c-0.13,10.09-6.06,16.3-15.55,16.57
				c-9.69,0.27-16.55-5.38-16.78-15.35c-0.44-19.67-0.48-39.36,0.03-59.02c0.26-10.11,7.03-15.43,16.93-15.03
				c9.17,0.38,15.01,6.1,15.34,15.76C2388.09,1349.17,2387.84,1358.69,2387.83,1368.2z"/>
			<path class="st2" d="M2578.67,1368.38c0-9.51-0.22-19.03,0.06-28.54c0.28-9.71,6.06-15.54,15.13-15.95
				c9.79-0.44,16.8,4.91,17.06,14.95c0.51,20.3,0.38,40.64-0.22,60.94c-0.25,8.55-7.41,13.74-16.29,13.58
				c-8.72-0.16-15.17-5.77-15.52-14.49c-0.42-10.15-0.1-20.33-0.1-30.5C2578.75,1368.38,2578.71,1368.38,2578.67,1368.38z"/>
			<path class="st2" d="M2275.86,1368.84c0,9.18,0.09,18.37-0.02,27.55c-0.13,10.5-5.73,16.63-15.14,16.87
				c-9.99,0.25-16.49-5.85-16.65-16.5c-0.28-18.69-0.32-37.39-0.1-56.08c0.12-10.77,6.52-17,16.31-16.79
				c9.56,0.21,15.11,6.02,15.59,16.46c0.23,4.91,0.45,9.83,0.41,14.75c-0.05,4.58-0.46,9.16-0.71,13.74
				C2275.65,1368.83,2275.76,1368.83,2275.86,1368.84z"/>
			<path class="st2" d="M2447.25,1607.96c0-15.39,0-30.36,0-46.95c14.7,0,29.29-0.09,43.87,0.06c3.58,0.04,3.71,3.06,3.71,5.79
				c0,13.4,0,26.8,0,41.1C2478.64,1607.96,2463.2,1607.96,2447.25,1607.96z"/>
			<path class="st2" d="M2407.99,1608.33c-16.18,0-31.13,0-46.95,0c0-15.34,0-30.5,0-47.36c14.29,0,28.85-0.04,43.4,0.04
				c2.31,0.01,3.52,1.67,3.53,3.9C2408.01,1579.21,2407.99,1593.52,2407.99,1608.33z"/>
			<path class="st2" d="M2447.55,1491.21c15.47,0,30.39,0,46.12,0c0,15.4,0,30.54,0,46.52c-15.04,0-30.18,0-46.12,0
				C2447.55,1522.63,2447.55,1507.5,2447.55,1491.21z"/>
			<path class="st9" d="M1444.8,629.33c0.31-0.03,2.68-0.09,4.97-0.53c2.55-0.49,4.14,0.21,4.52,2.84c0.4,2.81-0.81,4.63-3.73,4.8
				c-3.91,0.23-7.84,0.49-11.74,0.31c-4.52-0.21-6.97,1.13-6.52,6.15c0.23,2.58,0.28,5.81-3.35,5.97c-4.32,0.19-3.75-3.41-3.89-6.22
				C1424.47,630.95,1425.95,629.85,1444.8,629.33z"/>
			<path class="st9" d="M1212.65,534.11c4.82,5.28,9.54,10.47,14.28,15.65c1.37,1.5,2.05,3.1,0.54,4.86
				c-1.64,1.9-3.33,1.95-5.46,0.42c-4.93-3.54-9.08-7.87-13.19-12.26C1205.63,539.36,1207.84,537.23,1212.65,534.11z"/>
			<path class="st9" d="M1181,173.1c-3.65,6.2-7.34,12.43-10.99,18.68c-1.31,2.25-2.97,2.7-5.21,1.32
				c-2.33-1.43-2.31-3.35-1.14-5.39c2.73-4.76,5.67-9.4,8.33-14.21C1174.52,168.93,1177.29,169.32,1181,173.1z"/>
			<path class="st9" d="M1525.56,50.14c-0.52,2.84-2.13,4.21-5.03,3.33c-6.03-1.82-12.04-3.7-18.02-5.69
				c-1.91-0.63-3.13-1.99-2.27-4.25c0.72-1.9,1.85-3.24,4.14-2.6c6.07,1.69,12.14,3.37,18.18,5.15
				C1524.46,46.64,1525.76,47.89,1525.56,50.14z"/>
			<path class="st9" d="M1701.26,213.63c-2.44,0.01-3.56-1.38-4.41-3.09c-2.44-4.91-4.87-9.83-7.27-14.76
				c-1.22-2.49-0.91-4.52,1.85-5.8c2.58-1.2,3.89,0.17,4.92,2.26c2.66,5.39,5.36,10.75,7.97,16.16
				C1705.97,211.85,1704.12,213.19,1701.26,213.63z"/>
			<path class="st9" d="M1676.19,496.08c3.49-6.07,6.66-11.7,9.97-17.26c1.33-2.23,2.75-4.68,6.12-2.88
				c3.62,1.94,1.74,4.4,0.52,6.57c-2.55,4.52-5.22,8.98-8.01,13.35C1682.46,499.51,1679.68,499.85,1676.19,496.08z"/>
			<path class="st9" d="M1723.81,345.71c0-3.16-0.01-6.32,0-9.47c0.01-2.15,0.94-3.47,3.25-3.59c2.61-0.14,4,1.04,3.97,3.66
				c-0.06,6.58-0.09,13.16-0.32,19.73c-0.08,2.31-1.23,4.12-3.97,3.81c-2.21-0.25-3.11-1.83-3.15-3.88
				c-0.07-3.42-0.02-6.84-0.02-10.26C1723.66,345.71,1723.74,345.71,1723.81,345.71z"/>
			<path class="st9" d="M1712.81,234.9c0.61,0.31,1.62,0.49,1.9,1.03c3.42,6.82,5.28,14.15,6.42,21.64
				c0.25,1.64-1.44,2.69-3.16,2.89c-1.83,0.22-3.04-0.79-3.59-2.41c-2-5.96-3.95-11.94-5.86-17.93
				C1707.33,236.38,1710.06,235.7,1712.81,234.9z"/>
			<path class="st9" d="M1714.36,435.24c-2.12,5.4-4.53,11.79-7.16,18.09c-0.85,2.03-2.79,2.28-4.71,1.43
				c-1.93-0.85-2.9-2.39-2.1-4.46c2.27-5.88,4.63-11.74,7.02-17.57c0.84-2.05,2.53-2.55,4.55-1.98
				C1713.66,431.22,1714.68,432.27,1714.36,435.24z"/>
			<path class="st9" d="M1194.19,152.89c-2.82-1.1-5.62-2.76-3.13-6.16c3.86-5.26,8.32-10.09,12.62-15.02
				c1.13-1.29,2.71-1.61,4.22-0.46c1.63,1.23,2.71,3.26,1.51,4.79c-4.34,5.54-9.04,10.8-13.64,16.14
				C1195.48,152.53,1194.86,152.61,1194.19,152.89z"/>
			<path class="st9" d="M1195.34,516.23c-6.29,5.39-6.95,4.84-19.65-15.93c2.22-2.93,4.87-5.25,7.92-1.3
				C1187.85,504.51,1191.47,510.49,1195.34,516.23z"/>
			<path class="st9" d="M1414.15,39.7c-3.35-1.95-10.32,3.38-10.89-3.25c-0.61-7.05,6.64-3.08,10.27-4.31
				c3.25-1.1,6.69-1.57,10.1-0.68c2.23,0.58,5.02,0.87,4.85,4.12c-0.14,2.71-2.56,3.21-4.58,3.49
				C1420.8,39.5,1417.63,39.5,1414.15,39.7z"/>
			<path class="st9" d="M1394.29,635.34c-2.81-0.43-7.16-1.19-11.53-1.72c-2.6-0.32-3.67-1.56-3.43-4.12
				c0.26-2.78,2.11-3.38,4.41-3.16c5.95,0.57,11.89,1.2,17.83,1.85c2.48,0.27,3.7,1.72,3.57,4.21c-0.12,2.41-1.75,2.93-3.77,2.93
				C1399.54,635.34,1397.72,635.34,1394.29,635.34z"/>
			<path class="st9" d="M1146.31,238.7c-2.75-0.55-4.39-2.11-3.36-4.94c2.14-5.86,4.54-11.63,6.91-17.4
				c0.78-1.9,2.26-2.84,4.39-2.15c1.92,0.63,3.55,1.95,2.79,3.99c-2.34,6.33-5.02,12.53-7.57,18.78
				C1148.9,238.4,1147.71,238.74,1146.31,238.7z"/>
			<path class="st9" d="M1719.37,408.58c-2.69-0.66-4.02-2.17-3.39-5.08c1.21-5.57,2.28-11.18,3.54-16.74
				c0.48-2.13,1.56-3.98,4.22-3.7c2.47,0.26,3.95,1.81,3.46,4.23c-1.29,6.35-2.81,12.66-4.39,18.95
				C1722.43,407.81,1721.32,408.99,1719.37,408.58z"/>
			<path class="st9" d="M1471.78,41.97c-5.13-0.68-10.03-1.4-14.95-1.96c-2.44-0.28-4.99-0.35-4.73-3.74
				c0.28-3.6,2.97-3.92,5.74-3.65c4.93,0.48,9.87,0.98,14.77,1.74c2.46,0.38,5.85,0.61,5.05,4.42
				C1477.04,41.8,1474.61,42.83,1471.78,41.97z"/>
			<path class="st9" d="M1148.58,428.63c0.88,2.21-0.17,3.47-2.22,4.09c-2.03,0.61-3.8,0.06-4.47-2.02
				c-2-6.22-3.89-12.48-5.69-18.76c-0.61-2.13,0.58-3.46,2.55-4.2c2.16-0.81,3.7,0.04,4.32,2.06
				C1144.99,416.06,1146.75,422.36,1148.58,428.63z"/>
			<path class="st9" d="M1484.16,632.02c-4.11,0.24-6.36-0.33-6.56-3.4c-0.17-2.69,1.87-3.33,4.07-3.76
				c5.1-0.99,10.16-2.19,15.27-3.09c2.59-0.46,5.56-0.69,6.13,2.93c0.5,3.15-1.97,3.78-4.39,4.27
				C1493.34,630.06,1488.02,631.2,1484.16,632.02z"/>
			<path class="st9" d="M1650.91,538.69c-2.61-1.55-5.79-2.8-2.91-6.39c3.9-4.86,8.09-9.48,12.19-14.18
				c1.54-1.76,3.2-2.58,5.31-0.65c1.92,1.76,2.02,3.37,0.24,5.31C1660.88,528.1,1657.1,534.44,1650.91,538.69z"/>
			<path class="st9" d="M1377.59,36.13c2.33,4.06,1.55,6.71-2.89,7.74c-5.32,1.24-10.68,2.28-16.03,3.4
				c-2.3,0.48-4.2,0.25-4.64-2.59c-0.37-2.43,0.55-3.92,3-4.65C1363.76,38.05,1370.58,36.75,1377.59,36.13z"/>
			<path class="st9" d="M1425.07,685.12c0-2.87,0.01-5.73,0-8.6c-0.01-2.31,0.51-4.25,3.37-4.14c2.55,0.1,3.75,1.7,3.77,4.09
				c0.07,6.25,0.05,12.51,0,18.76c-0.02,2.22-1.35,3.26-3.52,3.25c-2.13-0.01-3.53-0.94-3.57-3.2c-0.07-3.39-0.02-6.77-0.02-10.16
				C1425.1,685.12,1425.09,685.12,1425.07,685.12z"/>
			<path class="st9" d="M1589.48,86.08c4.72-6.84,6.21-6.25,24.06,8.86c-1.69,4.35-3.81,6.55-8.36,2.57
				c-2.37-2.07-4.99-3.85-7.54-5.7C1595.1,89.97,1592.51,88.2,1589.48,86.08z"/>
			<path class="st9" d="M1724.08,308.93c-2.8-6.91-2.04-14.4-3.51-21.49c-0.52-2.53,0.99-3.9,3.56-4c2.27-0.09,3.24,1.17,3.56,3.29
				c0.86,5.67,1.96,11.32,2.64,17.01C1730.83,308.01,1727.98,308.99,1724.08,308.93z"/>
			<path class="st9" d="M1432.25,735.93c0,2.88,0.08,5.76-0.02,8.63c-0.08,2.4-1.2,4.05-3.87,3.85c-2.2-0.16-3.21-1.64-3.22-3.71
				c-0.05-6.28-0.04-12.56,0-18.83c0.01-2.23,1.28-3.28,3.48-3.32c2.17-0.03,3.55,0.95,3.62,3.18
				C1432.32,729.13,1432.25,732.53,1432.25,735.93z"/>
			<path class="st9" d="M1266.67,582.84c-0.64,3.39-1.98,5.8-5.27,3.67c-5.46-3.53-10.64-7.5-15.85-11.41
				c-1.56-1.17-2.44-2.8-0.85-4.7c1.24-1.49,2.66-2.8,4.64-1.38c5.3,3.8,10.54,7.67,15.74,11.6
				C1265.83,581.19,1266.24,582.21,1266.67,582.84z"/>
			<path class="st9" d="M1593.5,585.72c-0.03,2.27-1.57,3.42-3.1,4.39c-4.65,2.94-9.36,5.79-14.09,8.6
				c-1.89,1.12-3.93,1.96-5.34-0.71c-1.35-2.55-0.58-4.53,1.83-5.97c4.95-2.95,9.89-5.91,14.85-8.85
				C1590.87,581.26,1592.49,582.9,1593.5,585.72z"/>
			<path class="st9" d="M1331.31,52.26c0.32,2.32-1.16,3.31-2.97,4.04c-5.36,2.15-10.73,4.26-16.08,6.42
				c-2.32,0.93-4.2,0.51-5.2-1.87c-0.99-2.35-0.19-3.94,2.31-4.88c5.65-2.12,11.25-4.38,16.85-6.62
				C1329.18,48.18,1330.7,49.41,1331.31,52.26z"/>
			<path class="st9" d="M1227.34,116.81c-2.63-1.39-4.06-3.68-2.47-5.84c4.4-5.94,10.62-9.9,16.87-13.63
				c1.47-0.87,2.91,0.67,3.73,2.07c0.97,1.67,0.26,3.25-1.09,4.11C1238.28,107.43,1234.09,113.84,1227.34,116.81z"/>
			<path class="st9" d="M1633.02,556.25c-0.62,0.9-1.16,2.13-2.08,2.96c-4.47,4.01-9.01,7.95-13.58,11.84
				c-1.61,1.36-3.35,1.41-4.86-0.26c-1.44-1.6-1.59-3.39,0.03-4.86c4.84-4.38,9.61-8.88,14.76-12.88
				C1630.23,550.76,1631.99,552.96,1633.02,556.25z"/>
			<path class="st9" d="M1649.81,129.18c-0.42,0.56-1.05,1.66-1.92,2.53c-1.36,1.36-2.85,1.06-4.12-0.2
				c-4.62-4.61-9.23-9.22-13.79-13.89c-1.22-1.25-1.41-2.76-0.35-4.26c0.78-1.11,1.77-1.88,3.24-1.78
				C1634.78,111.73,1649.7,126.63,1649.81,129.18z"/>
			<path class="st9" d="M1553.05,58c4.8,2.49,11.04,5.65,17.19,8.98c1.24,0.67,1.28,2.23,0.68,3.51c-0.7,1.51-2,2.91-3.63,2.2
				c-6.42-2.79-12.76-5.76-19.03-8.86c-1.57-0.78-1.66-2.5-0.76-4.09C1548.36,58.21,1549.64,57.54,1553.05,58z"/>
			<path class="st9" d="M1127.03,360.51c2.72-1.6,4.69-1.67,6.5-0.1c1.13,0.98,3.83,20.99,3.08,22.35
				c-0.85,1.53-2.32,2.21-3.93,2.16c-2.4-0.07-2.79-2-3.03-3.89C1128.78,374.27,1127.93,367.52,1127.03,360.51z"/>
			<path class="st9" d="M1156.83,453.82c4.94,3.5,5.92,10.1,8.94,15.28c1.29,2.21,4.11,4.72,1.16,7.71
				c-2.67,2.7-4.85,1.44-6.24-1.29c-2.73-5.38-5.18-10.9-7.77-16.35C1151.46,456.1,1153.12,454.84,1156.83,453.82z"/>
			<path class="st9" d="M1286.68,72.81c-0.01,2.16-1.55,2.79-2.86,3.6c-4.89,3.02-9.86,5.91-14.63,9.1
				c-2.31,1.55-3.79,0.96-5.35-0.88c-1.96-2.33-0.61-3.92,1.28-5.12c5.06-3.23,10.19-6.34,15.33-9.45
				C1283.97,67.93,1285.72,69.69,1286.68,72.81z"/>
			<path class="st9" d="M1285.11,600.81c0.09-3.24,1.22-4.48,2.6-5.15c1.97-0.95,20.62,7.97,21.45,10.1
				c0.63,1.61,0.22,3.09-0.95,4.33c-1.39,1.45-2.91,0.81-4.33,0.11C1297.58,607.08,1291.3,603.91,1285.11,600.81z"/>
			<path class="st9" d="M1666.89,148.32c0.38,0.33,1.3,0.85,1.87,1.64c3.69,5.05,7.33,10.13,10.93,15.24
				c1.25,1.78,0.91,3.49-0.8,4.8c-1.74,1.33-3.49,1.17-4.79-0.59c-3.72-5.03-7.56-10-10.93-15.26
				C1661.3,151.25,1663.3,148,1666.89,148.32z"/>
			<path class="st9" d="M1331.01,620.16c0.28-3.84,1.8-5.76,5.07-4.94c5.79,1.46,11.5,3.2,17.22,4.91c2.23,0.67,3.74,2.06,2.84,4.63
				c-0.85,2.42-2.9,2.99-5.09,2.27C1344.43,624.87,1337.42,623.8,1331.01,620.16z"/>
			<path class="st9" d="M1126.62,322.56c0-3.12-0.1-6.24,0.04-9.35c0.08-1.9,0.75-3.79,3.13-3.63c2.24,0.15,4.11,1.24,4.02,3.85
				c-0.21,5.96-0.51,11.92-0.9,17.88c-0.15,2.23-0.96,4.17-3.79,3.82c-2.96-0.36-2.65-2.74-2.71-4.76c-0.08-2.6-0.02-5.2-0.02-7.8
				C1126.46,322.56,1126.54,322.56,1126.62,322.56z"/>
			<path class="st9" d="M1529.77,619.54c-2.94,0.03-4.26-1.04-4.71-3.09c-0.42-1.96,0.93-2.85,2.44-3.45
				c5.82-2.33,11.65-4.65,17.51-6.87c1.53-0.58,3.18-0.51,4.06,1.24c0.95,1.88,0.62,3.69-1.17,4.82
				C1542.07,615.86,1535.39,617.37,1529.77,619.54z"/>
			<path class="st9" d="M1131.12,279.48c0.88-4.16,2.05-9.8,3.26-15.44c0.49-2.27,1.42-4.02,4.26-3.27c2.52,0.67,3.35,2.33,2.8,4.76
				c-1.27,5.63-2.57,11.26-3.87,16.88c-0.5,2.15-1.2,4.28-4.06,3.65C1130.75,285.45,1130.94,283.16,1131.12,279.48z"/>
			<path class="st2" d="M291.83,944.69c-3.39-0.46-5.2-2.88-7.19-5.81c2.3-2.71,2.58-7.16,7.27-7.87
				C291.88,935.57,291.85,940.13,291.83,944.69z"/>
			<path class="st2" d="M291.82,921.15c-3.17,0.01-6.34,0.03-9.51,0.04c2.71-3.39,5.42-6.79,9.51-11.92
				C291.82,914.71,291.82,917.93,291.82,921.15z"/>
			<path class="st0" d="M1069.35,1390.28c-0.42,0.57-0.84,1.14-1.27,1.71C1068.51,1391.42,1068.93,1390.85,1069.35,1390.28z"/>
			<path class="st0" d="M1068.02,1529.5c0.45,0.59,0.9,1.18,1.35,1.76C1068.92,1530.68,1068.47,1530.09,1068.02,1529.5z"/>
			<path class="st3" d="M1429.22,1499.53c-20.83-0.25-36.3-15.98-36.08-36.7c0.21-20.4,16.32-36.04,36.95-35.87
				c20.17,0.16,36.07,16.68,35.79,37.18C1465.61,1484.16,1449.43,1499.78,1429.22,1499.53z"/>
			<path class="st12" d="M1979.72,1309.81c0.65,1.55,0.99,2.01,1.03,2.5c1.46,14.84,1.45,14.86-13.3,14.86
				c-127.35,0-254.7-0.01-382.04-0.03c-10.03,0-13.47-5.06-10.42-15.01c0.64-2.08,1.83-3.14,3.86-3.26c2.36-0.15,4.73-0.16,7.1-0.16
				c125.51-0.01,251.01-0.03,376.52,0.03C1968.21,1308.74,1973.96,1309.44,1979.72,1309.81z"/>
			<path class="st12" d="M1777.83,1164.8c-64.49,0-128.97,0.02-193.46-0.07c-3.13,0-7.64,1.86-9-2.41
				c-1.33-4.17-1.32-8.99,0.12-13.22c1.04-3.07,4.56-1.91,7.04-1.92c29.74-0.07,59.49-0.05,89.23-0.05c99.23,0,198.46,0,297.69,0
				c11.98,0,13.04,1.32,11.6,13.04c-0.41,3.38-1.86,4.62-5.02,4.53c-2.1-0.06-4.21,0-6.32,0c-63.96,0-127.92,0-191.88,0
				C1777.83,1164.74,1777.83,1164.77,1777.83,1164.8z"/>
			<path class="st12" d="M1778.72,1227.93c64.19,0,128.37,0,192.56,0c8.56,0,13.34,8.01,9.32,15.48c-0.89,1.66-2.31,1.97-3.91,2.04
				c-1.84,0.07-3.68,0.07-5.52,0.07c-128.64,0.01-257.27,0.01-385.91,0.01c-9.8,0-13.59-5.53-10.39-14.84
				c1.07-3.12,3.46-2.73,5.76-2.74c5.79-0.04,11.57-0.01,17.36-0.01C1658.24,1227.93,1718.48,1227.93,1778.72,1227.93z"/>
			<path class="st12" d="M1777.79,1268.65c63.96-0.01,127.92-0.01,191.88,0c12.04,0,11.85,0.02,11.43,11.66
				c-0.16,4.39-1.63,6.14-6.05,6.01c-7.36-0.21-14.74-0.07-22.11-0.07c-122.65,0-245.31,0-367.96,0c-9.21,0-13.52-6.72-9.83-15.15
				c1.47-3.37,4.39-2.35,6.81-2.36c18.16-0.1,36.32-0.07,54.48-0.07C1683.56,1268.66,1730.68,1268.66,1777.79,1268.65z"/>
			<path class="st12" d="M1777.7,1204.61c-64.21,0-128.42,0-192.62,0c-9.82,0-12.78-4.07-10.14-13.52c1.15-4.12,4.34-3.21,7.02-3.22
				c19.74-0.07,39.47-0.01,59.21-0.01c110.26,0,220.52,0.05,330.77-0.11c6.42-0.01,9.55,0.99,9.32,8.49
				c-0.2,6.5-2.01,8.47-8.56,8.45c-65-0.22-129.99-0.13-194.99-0.13C1777.7,1204.58,1777.7,1204.59,1777.7,1204.61z"/>
			<path class="st12" d="M1664.88,1107.91c27.38,0,54.76,0.24,82.13-0.17c7.05-0.11,8.39,2.58,8.09,8.74
				c-0.27,5.53,0.51,10.08-7.82,10.03c-54.75-0.3-109.51-0.3-164.26,0.01c-7.78,0.04-8.18-3.48-8.32-9.59
				c-0.16-6.75,1.67-9.25,8.84-9.15c27.11,0.38,54.23,0.15,81.34,0.15C1664.88,1107.94,1664.88,1107.92,1664.88,1107.91z"/>
			<path class="st3" d="M2587.63,1055.8c7.9,7.81,7.72,8.97-0.81,14.89c-32.99,22.91-65.92,45.91-98.89,68.84
				c-15.08,10.49-30.31,20.77-45.28,31.42c-4.8,3.42-8.51,3.27-13.44-0.08c-49.3-33.52-98.77-66.8-148.17-100.16
				c-8.46-5.71-8.5-7.29-0.22-14.82c19.46,13.08,39.02,26.24,58.59,39.39c29.22,19.64,58.67,38.94,87.49,59.14
				c7.21,5.05,11.94,4.39,18.47-0.23c29.36-20.77,58.99-41.16,88.51-61.71c16.16-11.25,32.3-22.54,48.48-33.77
				C2584.03,1057.55,2585.95,1056.72,2587.63,1055.8z"/>
			<path class="st13" d="M1198.26,794.66c-114.35,0-228.7,0-343.05,0c0-0.24,0-0.47,0-0.71c114.45,0,228.9,0,343.35,0
				C1198.46,794.19,1198.36,794.42,1198.26,794.66z"/>
			<path class="st12" d="M519.89,982.41c-3.03,5.28-7.74,7.33-11.68,10.1c-21.69,15.33-43.54,30.41-65.23,45.74
				c-3.81,2.69-7.02,3.88-11.36,0.98c-26.89-18-53.89-35.83-80.84-53.73c-0.85-0.56-1.56-1.33-3.6-3.09
				C405.46,982.41,462.3,982.41,519.89,982.41z"/>
			<path class="st3" d="M1621.43,336.04c-0.45,107-86.18,192.54-193.03,192.59c-107.33,0.06-192.95-86.82-192.28-195.51
				c0.65-105.69,88.92-192.21,197.59-190.37C1536.18,144.49,1621.87,231.66,1621.43,336.04z M1343.39,409.03
				c27.4-23.07,54.48-45.97,81.72-68.69c3.09-2.57,3.54-5.45,3.53-8.99c-0.04-24.19,0.08-48.38-0.08-72.56
				c-0.02-2.84,2.2-7.89-3.57-7.72c-5.03,0.15-3.04,4.75-3.06,7.44c-0.15,22.61-0.24,45.22,0.04,67.83
				c0.07,5.49-1.52,9.22-5.81,12.77c-24.49,20.28-48.69,40.91-73.13,61.26C1339.45,403.35,1337.9,405.56,1343.39,409.03z
				 M1365.59,504.87c2.93,1.53,4.87,2.93,8.15,1.93c2.77-8.08,5.67-16.55,8.5-24.83c-2.91-1.83-4.83-3.2-8.11-2.08
				C1371.43,487.81,1368.58,496.12,1365.59,504.87z M1473.02,193.38c2.82,1.79,4.79,3.01,8.02,1.92c2.73-7.92,5.59-16.22,8.37-24.29
				c-2.63-2.5-4.88-3.38-8.07-2.19C1478.66,176.75,1475.9,184.88,1473.02,193.38z M1285.49,231.05c-5.99,5.52-6.11,5.81-1.1,9.58
				c5.44,4.09,11.1,7.88,16.73,11.72c0.5,0.34,1.44,0.05,2.05,0.05c1.5-1.75,3.18-3.09,3.38-6.22
				C1299.71,241.26,1292.55,236.12,1285.49,231.05z M1574.73,237.84c-0.62-3.46-1.86-5.52-5.2-6.65
				c-6.97,4.99-14.13,10.12-21.1,15.11c1.04,3.23,2.06,5.26,5.19,6.52C1560.52,247.93,1567.7,242.83,1574.73,237.84z
				 M1261.02,399.91c8.5-2.97,16.77-5.86,25.73-8.99c-1.43-2.71-0.86-5.54-4.2-7.35c-7.9,2.75-16.16,5.62-24.55,8.54
				C1258.27,395.25,1258.68,397.45,1261.02,399.91z M1489.76,505.08c-3.15-9.02-6.04-17.33-8.81-25.26
				c-3.37-0.69-5.38,0.21-7.66,2.67c2.74,8.19,5.58,16.69,8.52,25.48C1484.84,506.87,1486.76,506.17,1489.76,505.08z M1553.7,422.54
				c-3.2,1.2-4.65,3.34-4.87,6.91c7.13,5.01,14.31,10.07,21.35,15.02c2.53-2.26,4.34-3.77,4.22-7.15
				C1567.69,432.53,1560.69,427.53,1553.7,422.54z M1285.98,283.99c-8.61-2.95-16.9-5.78-24.95-8.53c-2.04,2.57-3.18,4.54-2.66,7.83
				c6.34,2.19,13.07,4.18,19.54,6.85C1283.48,292.42,1285.71,290.67,1285.98,283.99z M1571.98,383.29c-1.9,2.66-2.88,4.67-2.6,7.99
				c8.25,2.85,16.71,5.78,25.04,8.66c1.71-2.66,3.19-4.52,2.41-7.83C1588.9,389.3,1580.65,386.37,1571.98,383.29z M1533.71,194.78
				c-5.39,6.95-10.94,14.09-16.34,21.05c1.88,2.8,3.57,4.31,6.56,5.08c5.53-6.97,11.16-14.06,16.67-21.01
				C1538.5,197.24,1536.89,195.6,1533.71,194.78z M1517.44,459.85c5.53,6.97,11.02,13.88,16.46,20.75c2.98-1.28,5.26-2.4,6.22-5.63
				c-5.37-6.79-10.85-13.73-16.39-20.75C1521.03,455.31,1519.23,456.63,1517.44,459.85z M1431.23,489.02
				c-2.81-0.75-5.04-1.13-7.43,0.53c0,8.65,0,17.41,0,25.99c2.59,1.54,4.8,1.35,7.43,0.24
				C1431.23,507.1,1431.23,498.3,1431.23,489.02z M1276.24,333.6c-8.8-0.25-17.68-0.74-26.18,0.26c-1.84,6.22,0.12,8.24,5.45,7.95
				c5.2-0.28,10.45-0.29,15.65,0.02C1277.46,342.2,1278.31,339.3,1276.24,333.6z M1321.06,194.43c-2.81,2.15-5.71,2.73-5.83,6.2
				c5.43,6.82,10.9,13.7,16.58,20.84c2.28-2.14,4.67-2.89,5.75-5.97C1332.32,208.8,1326.87,201.85,1321.06,194.43z M1285.19,444.31
				c7.46-5.26,14.6-10.29,21.48-15.15c-0.88-3.36-2.12-5.21-4.87-6.79c-5.69,4.04-11.53,8.32-17.51,12.38
				C1279.51,438,1280.55,440.83,1285.19,444.31z M1593.9,275.46c-8.5,2.98-16.73,5.87-24.74,8.68c0.57,5.84,2.11,8.43,7.62,6.2
				c6.7-2.71,13.63-4.88,20.25-7.21C1597.07,279.95,1596.26,277.86,1593.9,275.46z M1320.97,481.04
				c5.89-7.53,11.32-14.47,16.71-21.35c-1.39-2.75-3.36-4.24-6.46-5.3c-5.5,7.04-11.03,14.12-16.71,21.4
				C1316.89,477.73,1318.48,479.02,1320.97,481.04z M1382.26,193.11c-2.48-7.12-5.01-14.21-7.39-21.34c-1-2.98-2.46-4.4-5.77-3.13
				c-3.54,1.36-2.86,3.71-1.92,6.36c1.83,5.17,3.8,10.3,5.23,15.58C1373.92,196.14,1376.55,197.42,1382.26,193.11z M1431.11,186.24
				c0-9.34,0-18.14,0-26.9c-6.95-0.52-7.44-0.54-7.56,2.84c-0.3,8.02-0.1,16.06-0.1,23.7
				C1426.51,187.04,1428.54,186.99,1431.11,186.24z M1605.21,341.75c1.31-3.37,1.76-5.8-0.52-8.13c-7.32,0-14.68,0.04-22.03-0.02
				c-2.91-0.03-4.33,1.11-4.36,4.16c-0.03,3.2,1.67,4.03,4.46,4.01C1590.33,341.72,1597.89,341.75,1605.21,341.75z"/>
			<path class="st2" d="M1343.39,409.03c-5.49-3.47-3.94-5.69-0.37-8.66c24.44-20.35,48.64-40.98,73.13-61.26
				c4.29-3.55,5.88-7.28,5.81-12.77c-0.27-22.61-0.19-45.22-0.04-67.83c0.02-2.69-1.97-7.29,3.06-7.44
				c5.77-0.17,3.55,4.88,3.57,7.72c0.16,24.19,0.04,48.38,0.08,72.56c0.01,3.54-0.44,6.42-3.53,8.99
				C1397.87,363.06,1370.79,385.96,1343.39,409.03z"/>
			<path class="st2" d="M1365.59,504.87c3-8.75,5.84-17.07,8.55-24.98c3.28-1.12,5.2,0.25,8.11,2.08
				c-2.84,8.28-5.74,16.75-8.5,24.83C1370.45,507.81,1368.52,506.4,1365.59,504.87z"/>
			<path class="st2" d="M1473.02,193.38c2.88-8.49,5.64-16.62,8.33-24.55c3.19-1.19,5.44-0.31,8.07,2.19
				c-2.78,8.07-5.64,16.37-8.37,24.29C1477.81,196.39,1475.84,195.17,1473.02,193.38z"/>
			<path class="st2" d="M1285.49,231.05c7.06,5.07,14.22,10.21,21.05,15.12c-0.19,3.13-1.88,4.47-3.38,6.22
				c-0.61,0-1.55,0.3-2.05-0.05c-5.62-3.84-11.29-7.63-16.73-11.72C1279.38,236.86,1279.51,236.57,1285.49,231.05z"/>
			<path class="st2" d="M1574.73,237.84c-7.03,4.99-14.22,10.09-21.11,14.98c-3.13-1.26-4.15-3.29-5.19-6.52
				c6.97-4.99,14.13-10.12,21.1-15.11C1572.87,232.33,1574.12,234.39,1574.73,237.84z"/>
			<path class="st2" d="M1261.02,399.91c-2.34-2.46-2.75-4.66-3.02-7.8c8.4-2.92,16.65-5.79,24.55-8.54
				c3.34,1.81,2.77,4.64,4.2,7.35C1277.79,394.05,1269.52,396.95,1261.02,399.91z"/>
			<path class="st2" d="M1489.76,505.08c-3.01,1.09-4.92,1.79-7.95,2.89c-2.94-8.79-5.78-17.28-8.52-25.48
				c2.28-2.47,4.29-3.36,7.66-2.67C1483.72,487.75,1486.61,496.06,1489.76,505.08z"/>
			<path class="st2" d="M1553.7,422.54c6.99,4.99,13.99,9.99,20.7,14.78c0.11,3.38-1.7,4.89-4.22,7.15
				c-7.03-4.95-14.22-10-21.35-15.02C1549.05,425.88,1550.5,423.75,1553.7,422.54z"/>
			<path class="st2" d="M1285.98,283.99c-0.27,6.69-2.5,8.44-8.07,6.14c-6.46-2.67-13.2-4.66-19.54-6.85
				c-0.53-3.29,0.61-5.26,2.66-7.83C1269.08,278.21,1277.37,281.04,1285.98,283.99z"/>
			<path class="st2" d="M1571.98,383.29c8.67,3.08,16.92,6.01,24.84,8.82c0.78,3.31-0.7,5.17-2.41,7.83
				c-8.33-2.88-16.79-5.81-25.04-8.66C1569.1,387.96,1570.08,385.95,1571.98,383.29z"/>
			<path class="st2" d="M1533.71,194.78c3.18,0.83,4.79,2.46,6.89,5.12c-5.51,6.95-11.15,14.04-16.67,21.01
				c-2.99-0.77-4.68-2.28-6.56-5.08C1522.77,208.87,1528.32,201.72,1533.71,194.78z"/>
			<path class="st2" d="M1517.44,459.85c1.78-3.22,3.59-4.55,6.29-5.63c5.54,7.01,11.02,13.95,16.39,20.75
				c-0.96,3.24-3.24,4.35-6.22,5.63C1528.46,473.74,1522.97,466.82,1517.44,459.85z"/>
			<path class="st2" d="M1431.23,489.02c0,9.28,0,18.08,0,26.76c-2.63,1.11-4.84,1.3-7.43-0.24c0-8.58,0-17.34,0-25.99
				C1426.19,487.89,1428.42,488.28,1431.23,489.02z"/>
			<path class="st2" d="M1276.24,333.6c2.07,5.7,1.22,8.6-5.08,8.23c-5.2-0.31-10.45-0.3-15.65-0.02c-5.33,0.29-7.29-1.72-5.45-7.95
				C1258.56,332.86,1267.44,333.35,1276.24,333.6z"/>
			<path class="st2" d="M1321.06,194.43c5.81,7.42,11.26,14.37,16.5,21.07c-1.08,3.07-3.48,3.83-5.75,5.97
				c-5.68-7.14-11.15-14.02-16.58-20.84C1315.35,197.15,1318.25,196.57,1321.06,194.43z"/>
			<path class="st2" d="M1285.19,444.31c-4.63-3.49-5.67-6.31-0.9-9.56c5.98-4.06,11.82-8.34,17.51-12.38
				c2.75,1.57,3.99,3.43,4.87,6.79C1299.78,434.02,1292.65,439.05,1285.19,444.31z"/>
			<path class="st2" d="M1593.9,275.46c2.36,2.4,3.17,4.49,3.13,7.66c-6.63,2.33-13.55,4.5-20.25,7.21
				c-5.51,2.23-7.05-0.36-7.62-6.2C1577.18,281.33,1585.4,278.44,1593.9,275.46z"/>
			<path class="st2" d="M1320.97,481.04c-2.48-2.02-4.07-3.31-6.46-5.25c5.69-7.28,11.21-14.36,16.71-21.4
				c3.1,1.07,5.06,2.55,6.46,5.3C1332.29,466.57,1326.86,473.51,1320.97,481.04z"/>
			<path class="st2" d="M1382.26,193.11c-5.72,4.31-8.34,3.03-9.85-2.53c-1.43-5.28-3.41-10.41-5.23-15.58
				c-0.94-2.65-1.62-5,1.92-6.36c3.31-1.27,4.77,0.14,5.77,3.13C1377.25,178.9,1379.79,185.99,1382.26,193.11z"/>
			<path class="st2" d="M1431.11,186.24c-2.57,0.75-4.6,0.8-7.66-0.35c0-7.64-0.2-15.68,0.1-23.7c0.13-3.39,0.61-3.37,7.56-2.84
				C1431.11,168.1,1431.11,176.9,1431.11,186.24z"/>
			<path class="st2" d="M1605.21,341.75c-7.32,0-14.88-0.04-22.44,0.02c-2.8,0.02-4.49-0.81-4.46-4.01
				c0.03-3.05,1.45-4.18,4.36-4.16c7.35,0.07,14.7,0.02,22.03,0.02C1606.97,335.95,1606.52,338.39,1605.21,341.75z"/>
			<rect x="794.45" y="821.02" width="33.16" height="569.18"/>
			<rect x="794.45" y="1521.32" class="st6" width="1268.34" height="14.12"/>
			<rect x="794.45" y="1385.46" class="st6" width="1268.34" height="14.12"/>
			<rect x="846.31" y="781.23" width="1170.8" height="14.24"/>
			<rect x="866.81" y="887.78" class="st11" width="221.36" height="28.77"/>
			<rect x="867.12" y="943.44" class="st10" width="260.97" height="27.79"/>
			<rect x="867.12" y="998.41" class="st10" width="260.97" height="27.79"/>
			<rect x="867.12" y="1053.2" class="st10" width="260.97" height="27.79"/>
			<rect x="867.12" y="1108.17" class="st10" width="260.97" height="27.79"/>
			<rect x="1018.4" y="1190.8" class="st10" width="260.97" height="27.79"/>
			<rect x="1190.92" y="998.41" class="st10" width="482.73" height="27.79"/>
			<rect x="1189.86" y="943.44" class="st10" width="260.97" height="27.79"/>
			<rect x="671.63" y="978.31" class="st9" width="28.96" height="14.16"/>
			<rect x="714.75" y="978.31" class="st9" width="40.05" height="14.16"/>
			<rect x="768.85" y="978.31" class="st9" width="25.6" height="14.16"/>
			<path class="st9" d="M2154.74,1228.16c-3.95,3.78-5.5,8.28-10.48,10.79c-20.35-19.05-40.76-38.16-61.93-57.99
				c14.43-13.53,27.98-26.24,41.55-38.94c4.41-4.13,8.94-8.13,13.3-12.31c7.49-7.17,7.46-7.22,14.52,0.46
				c0.86,0.94,1.58,2,2.58,3.27c-4.72,6.66-10.73,11.83-16.63,16.85c-7.22,6.16-13.85,12.89-20.68,19.42
				c-8.24,7.88-7.46,16.48,0.99,24.02C2130.27,1204.74,2142.1,1216.28,2154.74,1228.16z"/>
			<rect x="2134.22" y="1174.58" class="st9" width="28.96" height="14.16"/>
			<rect x="2177.34" y="1174.58" class="st9" width="40.05" height="14.16"/>
			<rect x="2231.43" y="1174.58" class="st9" width="25.6" height="14.16"/>
		</g>
	</g>
	<g>
		<polygon class="st8" points="1029.9,679.6 1061.03,728.65 1064.48,675.95 		"/>
		<path class="st8" d="M1086.81,687.29l-219.08-0.71c-1.59-0.01-2.87-1.29-2.86-2.88l0.43-132.03c0.01-1.59,1.29-2.87,2.88-2.86
			l219.08,0.71c1.59,0.01,2.87,1.29,2.86,2.88l-0.43,132.03C1089.68,686.01,1088.39,687.29,1086.81,687.29z"/>
		
			<rect x="891.37" y="571.81" transform="matrix(1 3.235138e-03 -3.235138e-03 1 1.8715 -3.0967)" class="st3" width="133.54" height="10.26"/>
		
			<rect x="891.32" y="587.61" transform="matrix(1 3.235138e-03 -3.235138e-03 1 1.9227 -3.1594)" class="st3" width="172.49" height="10.26"/>
		
			<rect x="891.26" y="603.81" transform="matrix(1 3.235138e-03 -3.235138e-03 1 1.9751 -3.1592)" class="st3" width="172.49" height="10.26"/>
		
			<rect x="891.21" y="620.46" transform="matrix(1 3.235138e-03 -3.235138e-03 1 2.029 -3.1589)" class="st3" width="172.49" height="10.26"/>
		
			<rect x="891.16" y="636.81" transform="matrix(1 3.235138e-03 -3.235138e-03 1 2.0819 -3.1587)" class="st3" width="172.49" height="10.26"/>
		
			<rect x="891.1" y="653.02" transform="matrix(1 3.235138e-03 -3.235138e-03 1 2.1343 -3.1584)" class="st3" width="172.49" height="10.26"/>
	</g>
</g>
</svg>
