<?xml version="1.0" encoding="utf-8"?>
<!-- Generator: Adobe Illustrator 27.2.0, SVG Export Plug-In . SVG Version: 6.00 Build 0)  -->
<svg version="1.1" id="Layer_1" xmlns="http://www.w3.org/2000/svg" xmlns:xlink="http://www.w3.org/1999/xlink" x="0px" y="0px"
	 viewBox="0 0 2880 1800" style="enable-background:new 0 0 2880 1800;" xml:space="preserve">
<style type="text/css">
	.st0{fill:#FFCD05;}
	.st1{opacity:0.5;fill:#FFCD05;}
	.st2{fill:#F1F1F3;}
	.st3{fill:#FFFFFF;}
	.st4{opacity:0.5;fill:#43B4E4;}
	.st5{opacity:0.5;fill:#1D2346;}
	.st6{fill:#6BACAC;}
	.st7{fill:#5A9997;}
	.st8{fill:#A2C2C0;}
	.st9{fill:#7BC3C3;}
	.st10{fill:#67B0AE;}
	.st11{fill:#B6D9D8;}
	.st12{fill:#88D1D2;}
	.st13{fill:#72C1BF;}
	.st14{fill:#28387C;}
	.st15{fill:#D48A28;}
	.st16{fill:#F1A11F;}
	.st17{fill:#F8A91C;}
	.st18{fill:#13192F;}
	.st19{fill:#D29C78;}
	.st20{fill:#23417A;}
	.st21{fill:#1D2346;}
	.st22{opacity:0.4;fill:#FBBD9D;}
	.st23{fill:#2E180C;}
	.st24{fill:#1C437D;}
	.st25{fill:#ACBEE2;}
	.st26{fill:#142F54;}
	.st27{fill:#E7976E;}
	.st28{fill:#F1F1F4;}
	.st29{fill:#CCCED8;}
	.st30{fill:url(#SVGID_1_);}
	.st31{fill:url(#SVGID_00000107557461686612298010000003378156422667003285_);}
	.st32{fill:url(#SVGID_00000000206684486686269470000013558318631843630755_);}
	.st33{fill:url(#SVGID_00000039841632485586502920000005835954451814089615_);}
	.st34{fill:url(#SVGID_00000052101768553701909210000015880846282708433595_);}
	.st35{fill:url(#SVGID_00000173124749565757308240000014774485774917800632_);}
	.st36{fill:url(#SVGID_00000094612702172700492780000013333753774735447695_);}
	.st37{fill:url(#SVGID_00000048461170975505728130000002036918631135957140_);}
	.st38{fill:url(#SVGID_00000059286104525842447660000008418489415649223590_);}
	.st39{fill:url(#SVGID_00000008827661769996472570000012002475812826929031_);}
	.st40{fill:url(#SVGID_00000007415315024083655150000014886868104566573459_);}
	.st41{fill:url(#SVGID_00000115495655081783560430000008578419125386849466_);}
	.st42{fill:#C4E7E6;}
</style>
<g id="XMLID_260_">
	<g id="XMLID_00000093158894945448805880000002054534291392599453_">
		<g id="XMLID_00000139278900081223046570000004938771025691671446_">
			
				<rect id="XMLID_00000132767081590794528320000012286425296392946089_" x="472.21" y="1497.95" class="st0" width="665.11" height="103.63"/>
			
				<rect id="XMLID_00000085950210969347837480000014457116501339262123_" x="472.21" y="1497.95" class="st1" width="227.93" height="103.63"/>
			
				<rect id="XMLID_00000113317566862861149110000012184336028296652161_" x="918.95" y="1497.95" class="st1" width="218.37" height="103.63"/>
		</g>
		<g id="XMLID_129_">
			<rect id="XMLID_134_" x="447.98" y="1394.63" class="st0" width="665.11" height="103.63"/>
			<rect id="XMLID_131_" x="447.98" y="1394.63" class="st1" width="176.5" height="103.63"/>
			<rect id="XMLID_130_" x="832.89" y="1394.63" class="st1" width="280.2" height="103.63"/>
		</g>
		<g id="XMLID_00000003068732682440965300000006639966409305926314_">
			<rect id="XMLID_151_" x="520.49" y="1290.59" class="st0" width="665.11" height="103.63"/>
			<rect id="XMLID_150_" x="520.49" y="1290.59" class="st1" width="260.04" height="103.63"/>
			<rect id="XMLID_149_" x="996.47" y="1290.59" class="st1" width="189.13" height="103.63"/>
		</g>
		<g id="XMLID_152_">
			
				<rect id="XMLID_00000021806275345806751430000001492735867368055184_" x="479.18" y="1187.76" class="st0" width="665.11" height="103.63"/>
			<rect id="XMLID_154_" x="479.18" y="1187.76" class="st1" width="198.2" height="103.63"/>
			<rect id="XMLID_153_" x="874.49" y="1187.76" class="st1" width="269.8" height="103.63"/>
		</g>
		<rect id="XMLID_128_" x="472.21" y="1497.95" class="st1" width="638.38" height="15.46"/>
		<rect id="XMLID_145_" x="520.49" y="1291.38" class="st1" width="623.81" height="16.04"/>
	</g>
	<g id="XMLID_66_">
		<path id="XMLID_00000172397896967087986800000003126001218306972072_" class="st2" d="M2168.34,1513.41h-967.28
			c-9.94,0-18-8.06-18-18V58c0-9.94,8.06-18,18-18h967.28c9.94,0,18,8.06,18,18v1437.41
			C2186.34,1505.35,2178.29,1513.41,2168.34,1513.41z"/>
		
			<rect id="XMLID_63_" x="1095.83" y="321.11" transform="matrix(-1.836970e-16 1 -1 -1.836970e-16 2410.5212 -958.8906)" class="st3" width="1177.76" height="809.41"/>
		<rect id="XMLID_52_" x="1326.05" y="425.32" class="st4" width="43.62" height="261.72"/>
		
			<rect id="XMLID_00000080889693621073345050000004495444730488144053_" x="1393.9" y="376.85" class="st5" width="43.62" height="310.19"/>
		<rect id="XMLID_67_" x="1461.76" y="284.76" class="st4" width="43.62" height="402.28"/>
		<rect id="XMLID_72_" x="1529.61" y="391.39" class="st5" width="43.62" height="295.65"/>
		<rect id="XMLID_79_" x="1597.46" y="502.86" class="st4" width="43.62" height="184.18"/>
		
			<rect id="XMLID_00000180362280195495820370000004010599815391256246_" x="1665.32" y="369.58" class="st4" width="43.62" height="317.46"/>
		
			<rect id="XMLID_00000101787111812823273070000003522666531989645967_" x="1733.17" y="565.87" class="st5" width="43.62" height="121.17"/>
		<rect id="XMLID_88_" x="1801.03" y="602.22" class="st4" width="43.62" height="84.82"/>
		<rect id="XMLID_91_" x="1868.88" y="512.56" class="st4" width="43.62" height="174.48"/>
		
			<rect id="XMLID_00000169555048214891713660000010559089583325558680_" x="1936.74" y="464.09" class="st5" width="43.62" height="222.95"/>
		
			<rect id="XMLID_00000105412256025958836630000003630342965171609484_" x="2004.59" y="425.32" class="st4" width="43.62" height="261.72"/>
		
			<rect id="XMLID_00000147210150517940045460000013016537035339238294_" x="2004.59" y="943.92" transform="matrix(-1 -1.224647e-16 1.224647e-16 -1 4052.8037 2149.5627)" class="st4" width="43.62" height="261.72"/>
		
			<rect id="XMLID_00000103959577698284180270000012941288445679674250_" x="1936.74" y="895.45" transform="matrix(-1 -1.224647e-16 1.224647e-16 -1 3917.0945 2101.0952)" class="st5" width="43.62" height="310.19"/>
		
			<rect id="XMLID_00000145754922283109839840000014074719573993536176_" x="1868.88" y="803.36" transform="matrix(-1 -1.224647e-16 1.224647e-16 -1 3781.3855 2009.0068)" class="st4" width="43.62" height="402.28"/>
		
			<rect id="XMLID_00000107563303490646073840000011911401561233315481_" x="1801.03" y="909.99" transform="matrix(-1 -1.224647e-16 1.224647e-16 -1 3645.6765 2115.6353)" class="st5" width="43.62" height="295.65"/>
		
			<rect id="XMLID_00000044859963585773192360000007918788043010912161_" x="1733.17" y="1021.47" transform="matrix(-1 -1.224647e-16 1.224647e-16 -1 3509.9675 2227.1106)" class="st4" width="43.62" height="184.18"/>
		
			<rect id="XMLID_00000101078179095509173870000008863764317199677361_" x="1665.32" y="888.18" transform="matrix(-1 -1.224647e-16 1.224647e-16 -1 3374.2585 2093.825)" class="st4" width="43.62" height="317.46"/>
		
			<rect id="XMLID_00000109006848040102889220000002742696401982529444_" x="1597.46" y="1084.47" transform="matrix(-1 -1.224647e-16 1.224647e-16 -1 3238.5496 2290.1184)" class="st5" width="43.62" height="121.17"/>
		
			<rect id="XMLID_00000080904298272491079710000013543386889591406989_" x="1529.61" y="1120.83" transform="matrix(-1 -1.224647e-16 1.224647e-16 -1 3102.8406 2326.469)" class="st4" width="43.62" height="84.82"/>
		
			<rect id="XMLID_00000090285512616630317750000012161652858385846944_" x="1461.76" y="1031.16" transform="matrix(-1 -1.224647e-16 1.224647e-16 -1 2967.1313 2236.8042)" class="st4" width="43.62" height="174.48"/>
		
			<rect id="XMLID_69_" x="1393.9" y="982.69" transform="matrix(-1 -1.224647e-16 1.224647e-16 -1 2831.4224 2188.3367)" class="st5" width="43.62" height="222.95"/>
		
			<rect id="XMLID_65_" x="1326.05" y="943.92" transform="matrix(-1 -1.224647e-16 1.224647e-16 -1 2695.7134 2149.5627)" class="st4" width="43.62" height="261.72"/>
		<circle id="XMLID_00000183938036621369374270000008011388278731589537_" class="st3" cx="1684.71" cy="1401.94" r="50.89"/>
	</g>
	<g id="XMLID_251_">
		<g id="XMLID_256_">
			<rect id="XMLID_272_" x="1366.93" y="633.04" class="st6" width="975.89" height="503.68"/>
			<path id="XMLID_269_" class="st7" d="M2208.46,1081.64h-707.17v-7.87c0-47.74-34.9-86.57-77.79-86.57h-7.07V782.57h7.07
				c42.89,0,77.79-38.84,77.79-86.57v-7.87h707.17V696c0,47.74,34.9,86.57,77.79,86.57h7.07V987.2h-7.07
				c-42.89,0-77.79,38.84-77.79,86.57V1081.64z M1515.17,1065.9h679.42c3.45-50.15,39.53-90.31,84.59-94.14V798.01
				c-45.06-3.83-81.14-43.99-84.59-94.14h-679.42c-3.44,50.15-39.52,90.31-84.59,94.14v173.74
				C1475.64,975.59,1511.72,1015.74,1515.17,1065.9z"/>
			<g id="XMLID_258_">
				<path id="XMLID_267_" class="st7" d="M1949.61,798.1h-24.95c-2.81-7.07-6.57-13.67-11.15-19.61h25.71l21.73-31.87l-11.34-8.64
					h-175.19l-21.73,31.87l11.34,8.64h84.88v0c8.72,0,16.89,2.25,24.01,6.2c3.84,3.9,7.06,8.42,9.45,13.41h-111.84l-21.73,31.87
					l11.34,8.64h123.36c-7.47,18.02-25.21,30.71-45.93,30.71h-82.88l-0.06,36.5l66.72,117.32l11.34,8.64h45.77l-67.8-121.96h37.27
					c0.32,0.01,0.65,0.01,0.97,0.01c0.25,0,0.49,0,0.72-0.01c41.22-0.35,75.07-31.29,80.15-71.21h9.43l21.73-31.87L1949.61,798.1z"
					/>
				<path id="XMLID_263_" class="st8" d="M1902.17,769.85h25.71l21.73-31.87h-175.19l-21.73,31.87h84.88v0
					c19.76,0,36.78,11.55,44.8,28.25h-111.84l-21.73,31.87h137.4c-4.78,22.48-24.73,39.35-48.64,39.35h-82.88l-0.06,36.5
					l66.72,117.32h45.77l-67.8-121.96h37.27c0.32,0.01,0.65,0.01,0.97,0.01c0.25,0,0.49,0,0.72-0.01
					c41.22-0.35,75.07-31.29,80.15-71.21h9.43l21.73-31.87h-33.38C1913.39,787.71,1908.57,778.15,1902.17,769.85z"/>
			</g>
		</g>
		<g id="XMLID_253_">
			<rect id="XMLID_276_" x="1346.31" y="607.11" class="st9" width="975.89" height="503.68"/>
			<path id="XMLID_268_" class="st10" d="M2187.84,1055.71h-707.17v-7.87c0-47.74-34.9-86.57-77.79-86.57h-7.07V756.64h7.07
				c42.89,0,77.79-38.84,77.79-86.57v-7.87h707.17v7.87c0,47.74,34.9,86.57,77.79,86.57h7.07v204.62h-7.07
				c-42.89,0-77.79,38.84-77.79,86.57V1055.71z M1494.55,1039.97h679.42c3.45-50.15,39.53-90.31,84.59-94.14V772.08
				c-45.06-3.83-81.14-43.99-84.59-94.14h-679.42c-3.44,50.15-39.53,90.31-84.59,94.14v173.74
				C1455.02,949.66,1491.1,989.81,1494.55,1039.97z"/>
			<g id="XMLID_254_">
				<path id="XMLID_259_" class="st10" d="M1928.99,772.17h-24.95c-2.81-7.07-6.57-13.67-11.15-19.61h25.71l21.73-31.87l-11.34-8.64
					H1753.8l-21.73,31.87l11.34,8.64h84.88v0c8.72,0,16.89,2.25,24.01,6.2c3.84,3.9,7.06,8.42,9.45,13.41h-111.84l-21.73,31.87
					l11.34,8.64h123.36c-7.47,18.02-25.21,30.71-45.93,30.71h-82.88l-0.06,36.5l66.72,117.32l11.34,8.64h45.77l-67.8-121.96h37.27
					c0.32,0.01,0.65,0.01,0.97,0.01c0.25,0,0.49,0,0.72-0.01c41.22-0.35,75.07-31.29,80.15-71.21h9.43l21.73-31.87L1928.99,772.17z"
					/>
				<path id="XMLID_255_" class="st11" d="M1881.54,743.92h25.71l21.73-31.87H1753.8l-21.73,31.87h84.88v0
					c19.76,0,36.78,11.55,44.8,28.25h-111.84l-21.73,31.87h137.4c-4.78,22.48-24.73,39.35-48.63,39.35h-82.88l-0.06,36.5
					l66.72,117.32h45.77l-67.8-121.96h37.27c0.32,0.01,0.65,0.01,0.97,0.01c0.25,0,0.49,0,0.72-0.01
					c41.22-0.35,75.07-31.29,80.15-71.21h9.43l21.73-31.87h-33.38C1892.77,761.77,1887.95,752.22,1881.54,743.92z"/>
			</g>
		</g>
		<g id="XMLID_250_">
			<rect id="XMLID_187_" x="1312.21" y="579.13" class="st12" width="975.89" height="503.68"/>
			<path id="XMLID_247_" class="st13" d="M2153.73,1027.72h-707.17v-7.87c0-47.74-34.9-86.57-77.79-86.57h-7.07V728.66h7.07
				c42.89,0,77.79-38.84,77.79-86.57v-7.87h707.17v7.87c0,47.74,34.9,86.57,77.79,86.57h7.07v204.62h-7.07
				c-42.89,0-77.79,38.84-77.79,86.57V1027.72z M1460.44,1011.98h679.42c3.45-50.15,39.53-90.31,84.59-94.14V744.1
				c-45.06-3.83-81.14-43.99-84.59-94.14h-679.42c-3.44,50.15-39.53,90.31-84.59,94.14v173.74
				C1420.92,921.67,1457,961.83,1460.44,1011.98z"/>
		</g>
	</g>
	<g id="XMLID_33_">
		<polygon id="XMLID_00000122685190849211328550000000298075326624717751_" class="st14" points="714.97,637.61 689.7,614.97 
			1057.53,204.42 1289.69,438.73 1732.26,40 1902.05,282.59 2049.56,153.46 2071.9,178.99 1895.94,333.03 1726.47,90.89 
			1288.36,485.59 1058.78,253.88 		"/>
		<g id="XMLID_00000051354141437187076390000004959163898186181771_">
			<polygon id="XMLID_00000036965700952746160450000017929387004829618618_" class="st14" points="2094.11,238.18 2143.17,94.06 
				1993.83,123.62 			"/>
		</g>
	</g>
	<g id="XMLID_133_">
		<circle id="XMLID_00000088091505350671878520000011240833882676992671_" class="st0" cx="2026.4" cy="1342.4" r="296.9"/>
		<circle id="XMLID_00000163053654808851279120000009587468158906357127_" class="st15" cx="2026.4" cy="1342.4" r="227.86"/>
		<circle id="XMLID_142_" class="st16" cx="2026.4" cy="1342.4" r="219.23"/>
	</g>
	<rect id="XMLID_34_" x="1202.45" y="1346.2" class="st17" width="444.29" height="263.34"/>
	<g id="XMLID_13_">
		<path id="XMLID_00000076578451299443012600000000607372745705920139_" class="st18" d="M1533.24,906.96c0,0-19.39-8.48-43.62-4.24
			l26.66-67.85l30.9,15.75L1533.24,906.96z"/>
		<circle id="XMLID_35_" class="st19" cx="1515.98" cy="846.08" r="24.54"/>
		<path id="XMLID_00000138548171826592624200000005308925917555144359_" class="st18" d="M1429.65,820.93
			c0,0-7.88,40.59-15.75,49.68s-18.78,17.57-12.72,27.26c6.06,9.69,19.99,12.03,31.5,10.3c12.12-1.82,24.84-4.85,32.72-1.21
			s2.42-47.26,2.42-47.26L1452.06,807C1452.06,807,1427.22,820.33,1429.65,820.93z"/>
		<path id="XMLID_25_" class="st19" d="M1225.88,1145.06c0,0-24.23,11.31-56.55,20.19c0,0,33.93,25.04,70.28-3.23L1225.88,1145.06z"
			/>
		<path id="XMLID_9_" class="st20" d="M1407.63,942.3c0,0-40.39,135.71-181.75,202.76l12.12,25.04c0,0,96.94-14.54,199.52-146.21
			L1407.63,942.3z"/>
		<path id="XMLID_22_" class="st19" d="M1182.46,1522.5c0,0-27.26,40.59-55.13,51.5c0,0,30.29,2.42,47.26-13.33
			S1182.46,1522.5,1182.46,1522.5z"/>
		<path id="XMLID_20_" class="st19" d="M1263.68,1337.44c0,0,86.86,192,91.43,228.58c4.57,36.57-28.95,89.91-28.95,89.91h15.24
			l50.29-62.48l-56.38-236.2l50.29-6.1l-25.91-65.53l-94.48-1.52L1263.68,1337.44z"/>
		<path id="XMLID_11_" class="st19" d="M1273.33,1218.72c0,0-45.67-9.14-55.81,27.43c-10.15,36.57-58.44,324.58-58.44,324.58
			l43.98-10.67l74.42-254.48l123.47,4.57C1400.93,1310.15,1339.29,1238.53,1273.33,1218.72z"/>
		<path id="XMLID_18_" d="M1205.78,1550.78c0,0,6.1,18.29-4.57,32c-10.67,13.71-28.23,34.83-28.23,34.83l-4.57-7.62l9.95-28.74
			l-62.01,7.62l-35.05-19.81c0,0,42.81,5.74,84.87-7.62L1205.78,1550.78z"/>
		<path id="XMLID_30_" class="st21" d="M1341.4,1655.93l50.29-62.48c12.19,14.73,9.14,27.94,9.14,27.94l-2.03,51.81h-9.14
			l-4.06-44.7l-39.62,39.62h-41.65l21.84-12.19H1341.4z"/>
		<path id="XMLID_8_" class="st20" d="M1504.34,927.08l43.93,19.18c10.8,4.72,16.51,16.63,13.41,28
			c-8.56,31.46-19.95,113.7-8.42,192.85h-141.41c0,0-20.33-125.12-18.42-214.67c0.24-11.28,8.44-20.82,19.55-22.81l39.12-7.02
			L1504.34,927.08z"/>
		<path id="XMLID_00000126298163979624985270000017747506739450225330_" class="st19" d="M1534.02,956.04
			c-1.26,16.94-25.61,28.94-54.4,26.81c-28.79-2.14-51.11-17.6-49.85-34.54c1.26-16.94,25.61-28.94,54.4-26.81
			C1512.96,923.64,1535.28,939.1,1534.02,956.04z"/>
		<path id="XMLID_7_" class="st19" d="M1507.36,869.83c0,0,0.74,37.18,6.69,59.49c0,0-26.77,6.69-58.74,0
			c0,0,12.64-12.64,14.87-52.05L1507.36,869.83z"/>
		<path id="XMLID_10_" class="st20" d="M1413.97,972.61l-30.49,58.74c0,0,9.67,31.97,51.31,28.26l43.13-28.26L1413.97,972.61z"/>
		<path id="XMLID_12_" d="M1554.59,1167.12c0,0,21.47,57.92,22.67,95.3c1.15,35.74-9.22,80.7-90.3,86.84
			c-76.25,5.78-88.38,7.69-146.79,7.69c0,0-16.14-116.82-56.1-149.1c0,0,60.33-19.21,129.11-40.73H1554.59z"/>
		<path id="XMLID_00000041284472495163019570000013581773745706987416_" class="st20" d="M1569.36,959.78
			c-2.28-1.63-4.36-2.77-5.81-3.48c-19.76-9.78-40.42,21.7-40.42,21.7s-31.54,64.92-111.93,122.73c2.58,21.87,5.14,40.17,6.87,52
			c39.62-16.85,84.69-42.85,121.4-82.37c7.54-8.12,13.9-15.67,19.29-22.73c2.58-32.05,7.28-58.43,11.34-73.36
			C1571.44,969.32,1571.04,964.3,1569.36,959.78z"/>
		<path id="XMLID_23_" class="st20" d="M1526.38,979.14c0,0-61.39,115.51-220.12,169.23l11.31,26.66c0,0,132.48-13.73,221.74-102.99
			c79.97-79.97,38.44-107.58,28.27-113.09C1548.19,948.45,1526.38,979.14,1526.38,979.14z"/>
		<path id="XMLID_38_" class="st19" d="M1308.1,1145.1l-59.37,22.21l11.31,27.46c0,0,29.89,4.85,59.37-23.02L1308.1,1145.1z"/>
		<path id="XMLID_00000062906033549081494650000018436838915171648676_" class="st22" d="M1509.64,903.58
			c-0.46-4.11-0.83-8.14-1.13-11.92l-37.97-14.47l-0.36,0.07c-1.52,26.94-7.91,41.35-11.8,47.79
			C1485.05,923.21,1501.26,911.85,1509.64,903.58z"/>
		<path id="XMLID_00000163771355992439894140000017580329633535418282_" class="st19" d="M1512.35,901h-55.71
			c-4.23,0-7.65-3.43-7.65-7.65v-98.21H1520v98.21C1520,897.57,1516.57,901,1512.35,901z"/>
		<path id="XMLID_37_" class="st23" d="M1495.08,807c0,0,0.61,24.84,16.96,39.99c0,0,6.66-17.57,15.15-6.06s0.61,23.63-13.33,25.45
			c0,0-4.24,32.11,9.09,46.04c13.33,13.93,13.33-11.51,30.9-9.09c17.57,2.42,29.08-2.42,19.39-18.18
			c-9.69-15.75-26.05-55.74-27.87-75.12c-1.82-19.39-7.88-50.29-29.69-43.01c0,0-3.03-19.99-24.84-21.2
			c-21.81-1.21-36.96,19.39-53.92,16.36s-33.93,3.64-36.35,24.23c-2.98,25.34,6.06,43.62,37.56,39.38
			C1438.13,825.78,1484.78,818.51,1495.08,807z"/>
	</g>
	<rect id="XMLID_14_" x="996.03" y="1195.55" class="st24" width="687.07" height="26.13"/>
	<rect id="XMLID_15_" x="988.16" y="1205.93" class="st25" width="702.83" height="5.38"/>
	<g id="XMLID_00000129896512958184943570000013922769512174822825_">
		<circle id="XMLID_68_" class="st0" cx="926.28" cy="823.3" r="359.87"/>
		
			<ellipse id="XMLID_71_" transform="matrix(0.7071 -0.7071 0.7071 0.7071 -310.8641 896.1165)" class="st15" cx="926.28" cy="823.3" rx="276.18" ry="276.18"/>
		
			<ellipse id="XMLID_00000063617430469237476800000014256747264702900619_" transform="matrix(0.7071 -0.7071 0.7071 0.7071 -310.8641 896.1165)" class="st16" cx="926.28" cy="823.3" rx="265.72" ry="265.72"/>
		<path id="XMLID_00000011008622535521284970000001891903047116810418_" class="st15" d="M1055.93,716.82h-32.22
			c-3.63-9.14-8.48-17.65-14.4-25.32h33.2l28.06-41.16l-14.65-11.16H829.71l-28.06,41.16l14.65,11.16H925.9v0.01
			c11.25,0,21.81,2.91,31,8c4.96,5.04,9.11,10.87,12.21,17.31H824.69l-28.06,41.16l14.65,11.16h159.29
			c-9.65,23.27-32.55,39.66-59.31,39.66H804.23l-0.07,47.13l86.15,151.5l14.65,11.16h59.1L876.52,861.1h48.13
			c0.41,0.02,0.84,0.02,1.25,0.02c0.32,0,0.64,0,0.94-0.02c53.23-0.45,96.94-40.41,103.5-91.96h12.18l28.06-41.16L1055.93,716.82z"
			/>
		<path id="XMLID_00000145045303584332257440000014628339446586747327_" class="st0" d="M994.66,680.34h33.2l28.06-41.16H829.71
			l-28.06,41.16h109.61v0.01c25.52,0,47.49,14.92,57.85,36.48H824.69l-28.06,41.16h177.43c-6.17,29.03-31.93,50.82-62.8,50.82
			H804.23l-0.07,47.13l86.16,151.5h59.1l-87.54-157.49H910c0.41,0.02,0.84,0.02,1.25,0.02c0.32,0,0.64,0,0.94-0.02
			c53.23-0.45,96.94-40.41,103.5-91.96h12.18l28.06-41.16h-43.11C1009.16,703.4,1002.93,691.06,994.66,680.34z"/>
	</g>
	<rect id="XMLID_16_" x="1011.4" y="1221.68" class="st26" width="660.94" height="12.3"/>
	<polygon id="XMLID_17_" class="st27" points="969.9,1690.09 948,1690.09 1028.7,1233.98 1062.13,1233.98 	"/>
	<polygon id="XMLID_19_" class="st27" points="1700.06,1690.09 1721.96,1690.09 1641.27,1233.98 1607.84,1233.98 	"/>
	<g id="XMLID_28_">
		<polygon id="XMLID_24_" class="st28" points="1274.84,1183.5 1050.68,1183.5 1011.4,1037.56 1235.57,1037.56 		"/>
		<polygon id="XMLID_26_" class="st29" points="1275.35,1183.5 1268.69,1183.5 1229.41,1037.56 1236.07,1044.5 		"/>
		<rect id="XMLID_27_" x="1050.68" y="1183.5" class="st29" width="318.67" height="12.05"/>
		<path id="XMLID_29_" class="st29" d="M1147.19,1112.3c2.36,12.72-4.62,24.68-15.59,26.72c-10.97,2.03-21.77-6.63-24.13-19.35
			c-2.36-12.72,4.62-24.68,15.59-26.72C1134.02,1090.91,1144.83,1099.58,1147.19,1112.3z"/>
	</g>
	<g>
		<linearGradient id="SVGID_1_" gradientUnits="userSpaceOnUse" x1="264.2094" y1="1386.6309" x2="488.6024" y2="1386.6309">
			<stop  offset="0" style="stop-color:#81D1E2"/>
			<stop  offset="1" style="stop-color:#6170B4"/>
		</linearGradient>
		<path class="st30" d="M283.82,1090.12c19.35-9.25,38.6,52.34,38.6,52.34c32.89,43.45,78.85-14.35,74.36,50.61
			c-7.87,113.68,130.84,35.75,66.85,154.42c-63.99,118.68,56.5,67.11,16.74,162.8c-39.77,95.69,11.77,209.83-48.06,162.92
			c0,0-52.69-115.53-107.02-151.28c-54.33-35.75,32.56-78.16,15.56-126.71c-24.69-70.52-84.19-67.75-41.29-143.53
			C342.44,1175.91,218.04,1121.57,283.82,1090.12z"/>
		<g>
			<path class="st3" d="M451.25,1629.73c-25.94-18.24-56.29-145.35-58.1-221.06c-0.93-38.78-12.39-54.94-22.51-69.2
				c-9.67-13.63-18.02-25.39-13.16-52.41c9.3-51.64-15.14-73.93-15.39-74.15l2.83-3.23c1.09,0.95,26.54,23.94,16.79,78.14
				c-4.54,25.25,2.95,35.8,12.43,49.17c9.95,14.02,22.34,31.48,23.3,71.57c1.94,81.25,32.97,201.27,56.28,217.66L451.25,1629.73z"/>
		</g>
		<g>
			
				<linearGradient id="SVGID_00000004544614325273825620000003837355960438486406_" gradientUnits="userSpaceOnUse" x1="428.8188" y1="1511.8459" x2="631.7436" y2="1511.8459">
				<stop  offset="0" style="stop-color:#81D1E2"/>
				<stop  offset="1" style="stop-color:#6170B4"/>
			</linearGradient>
			<path style="fill:url(#SVGID_00000004544614325273825620000003837355960438486406_);" d="M460.95,1639.16
				c-3.35,0-6.98-0.38-10.96-1.19c-10-2.02-16.55-7.29-19.48-15.67c-6.99-20,9.21-52.48,22.36-68.14
				c0.22-0.26,22.23-27.15,19.88-64.44c-0.39-6.25-1.04-12.03-1.61-17.13c-1.65-14.76-2.85-25.42,3.49-32.53
				c5.58-6.28,16.36-8.99,36.05-9.09c34.52-0.16,48.17-14.45,59.13-25.93c4.66-4.87,9.06-9.48,14.4-12.4l0,0
				c17.2-9.39,35.42-10.77,43.32-3.28c3.75,3.56,6.92,10.53,0.7,23.52c-5.68,11.87-13.05,19.39-18.97,25.44
				c-7.96,8.13-13.23,13.5-10.49,24.2c0.65,2.51,1.39,5.05,2.13,7.59c5.32,18.2,11.35,38.83-19.79,52.83
				c-6.61,2.97-12.63,5.33-17.95,7.42c-21.75,8.53-34.87,13.68-49.69,44.96c-2.87,6.06-5.4,11.79-7.85,17.34
				C493.93,1619.13,485.09,1639.15,460.95,1639.16z M586.25,1396.39c-4.76,2.6-8.74,6.77-13.36,11.6
				c-11.53,12.07-25.87,27.09-62.22,27.26c-18.1,0.08-28.23,2.44-32.86,7.65c-5.06,5.69-3.96,15.55-2.43,29.2
				c0.58,5.15,1.23,10.99,1.63,17.34c2.46,39.04-19.92,66.32-20.87,67.46c-13.01,15.5-27.75,46.35-21.59,63.97
				c2.4,6.85,7.88,11.19,16.28,12.89c29.34,5.92,37.43-12.42,50.86-42.84c2.46-5.57,5-11.34,7.9-17.45
				c15.54-32.81,30.04-38.5,51.99-47.12c5.27-2.07,11.24-4.41,17.75-7.34c27.74-12.47,22.74-29.59,17.44-47.71
				c-0.76-2.59-1.51-5.18-2.17-7.74c-3.34-13.04,3.25-19.76,11.58-28.27c6-6.12,12.79-13.05,18.17-24.29
				c2.81-5.89,5.14-13.89,0.21-18.56C618.09,1386.32,601.61,1388,586.25,1396.39L586.25,1396.39z"/>
		</g>
		<g>
			
				<linearGradient id="SVGID_00000153673038616538458290000010805576053858671263_" gradientUnits="userSpaceOnUse" x1="446.1631" y1="1541.3546" x2="598.4716" y2="1541.3546">
				<stop  offset="0" style="stop-color:#81D1E2"/>
				<stop  offset="1" style="stop-color:#6170B4"/>
			</linearGradient>
			<path style="fill:url(#SVGID_00000153673038616538458290000010805576053858671263_);" d="M450.45,1663.92l-4.29-0.23
				c0.21-4.03,5.62-98.89,43.7-126.65c41.79-30.46,54.97-63.19,61.24-85.16c7.39-25.89,45.03-32.81,46.62-33.09l0.74,4.22
				c-0.36,0.07-36.59,6.74-43.24,30.04c-6.45,22.58-19.98,56.21-62.84,87.45C455.94,1567.08,450.5,1662.95,450.45,1663.92z"/>
		</g>
		
			<linearGradient id="SVGID_00000116938940286100878460000015457273780041693852_" gradientUnits="userSpaceOnUse" x1="391.1626" y1="1418.791" x2="568.541" y2="1418.791">
			<stop  offset="0" style="stop-color:#81D1E2"/>
			<stop  offset="1" style="stop-color:#6170B4"/>
		</linearGradient>
		<path style="fill:url(#SVGID_00000116938940286100878460000015457273780041693852_);" d="M537.53,1185.85
			c-27.07-9.28-21.45,42.89-32.88,81.5c-11.44,38.61-127.26,16.84-78.64,113.51c48.61,96.67-61.49,32.33-28.6,116.69
			c32.89,84.36,2.86,174.59,38.61,151.64c35.75-22.95,20.08-129.18,57.26-141.81c37.18-12.62,43.24-27.35,6.44-61.66
			c-36.81-34.32,96.45-68.39,63.56-137.68C530.39,1238.75,568.81,1196.57,537.53,1185.85z"/>
		<g>
			<path class="st3" d="M452.6,1645.15c-3.4-14.44-32.48-141.54-5.35-156.9c23.91-13.54,23.32-66.2,19.59-115.94
				c-3.31-44.02,53.23-64.6,55.65-65.45l1.43,4.04c-0.56,0.2-55.86,20.34-52.8,61.09c3.83,51.07,4.24,105.27-21.75,119.99
				c-20.6,11.67-1.64,113.81,7.41,152.18L452.6,1645.15z"/>
		</g>
		
			<linearGradient id="SVGID_00000144298656847375591850000003442175285682683555_" gradientUnits="userSpaceOnUse" x1="350.4604" y1="1673.2111" x2="514.1385" y2="1673.2111">
			<stop  offset="0" style="stop-color:#E59047"/>
			<stop  offset="1" style="stop-color:#F0CB52"/>
		</linearGradient>
		<polygon style="fill:url(#SVGID_00000144298656847375591850000003442175285682683555_);" points="514.14,1599.89 475.49,1746.53 
			389.11,1746.53 350.46,1599.89 		"/>
		
			<linearGradient id="SVGID_00000145059239765051620530000015023273002974123649_" gradientUnits="userSpaceOnUse" x1="350.4604" y1="1673.2111" x2="514.1385" y2="1673.2111">
			<stop  offset="0" style="stop-color:#B27237"/>
			<stop  offset="1" style="stop-color:#F0CB52"/>
		</linearGradient>
		<path style="fill:url(#SVGID_00000145059239765051620530000015023273002974123649_);" d="M514.14,1599.89
			c0,0-85.09,15.98-85.09,146.64h-39.94l-38.65-146.64H514.14z"/>
	</g>
	<g>
		
			<linearGradient id="SVGID_00000018929790644219427390000000220179331232011660_" gradientUnits="userSpaceOnUse" x1="2316.8396" y1="1395.8135" x2="2541.2327" y2="1395.8135">
			<stop  offset="0" style="stop-color:#81D1E2"/>
			<stop  offset="1" style="stop-color:#6170B4"/>
		</linearGradient>
		<path style="fill:url(#SVGID_00000018929790644219427390000000220179331232011660_);" d="M2336.45,1099.3
			c19.35-9.25,38.6,52.34,38.6,52.34c32.89,43.45,78.85-14.35,74.36,50.61c-7.87,113.68,130.84,35.75,66.85,154.42
			c-63.99,118.68,56.5,67.11,16.74,162.8c-39.77,95.69,11.77,209.83-48.06,162.92c0,0-52.69-115.53-107.02-151.28
			c-54.33-35.75,32.56-78.16,15.56-126.71c-24.69-70.52-84.19-67.75-41.29-143.53C2395.07,1185.09,2270.67,1130.76,2336.45,1099.3z"
			/>
		<g>
			<path class="st3" d="M2503.88,1638.92c-25.94-18.24-56.29-145.35-58.1-221.06c-0.93-38.78-12.39-54.94-22.51-69.2
				c-9.67-13.62-18.02-25.39-13.16-52.41c9.3-51.64-15.14-73.93-15.39-74.15l2.83-3.23c1.09,0.95,26.54,23.94,16.79,78.14
				c-4.54,25.25,2.95,35.8,12.43,49.17c9.95,14.02,22.34,31.48,23.3,71.57c1.94,81.25,32.97,201.27,56.28,217.66L2503.88,1638.92z"
				/>
		</g>
		<g>
			
				<linearGradient id="SVGID_00000053512399090468017340000017249987728084088970_" gradientUnits="userSpaceOnUse" x1="2481.449" y1="1521.0286" x2="2684.3738" y2="1521.0286">
				<stop  offset="0" style="stop-color:#81D1E2"/>
				<stop  offset="1" style="stop-color:#6170B4"/>
			</linearGradient>
			<path style="fill:url(#SVGID_00000053512399090468017340000017249987728084088970_);" d="M2513.58,1648.34
				c-3.34,0-6.98-0.38-10.96-1.19c-10-2.02-16.55-7.29-19.48-15.67c-6.99-20,9.21-52.48,22.36-68.14
				c0.22-0.26,22.23-27.15,19.88-64.44c-0.39-6.25-1.04-12.03-1.61-17.13c-1.65-14.76-2.85-25.42,3.49-32.53
				c5.58-6.28,16.36-8.99,36.05-9.09c34.52-0.16,48.17-14.45,59.13-25.93c4.66-4.87,9.06-9.48,14.4-12.4l0,0
				c17.2-9.39,35.42-10.77,43.32-3.28c3.75,3.56,6.92,10.53,0.7,23.52c-5.68,11.87-13.05,19.39-18.97,25.44
				c-7.96,8.13-13.23,13.5-10.49,24.2c0.65,2.51,1.39,5.05,2.13,7.59c5.32,18.2,11.35,38.83-19.79,52.83
				c-6.61,2.97-12.63,5.33-17.95,7.42c-21.75,8.53-34.87,13.68-49.69,44.96c-2.87,6.06-5.4,11.79-7.85,17.34
				C2546.56,1628.31,2537.72,1648.33,2513.58,1648.34z M2638.88,1405.57c-4.76,2.6-8.74,6.77-13.36,11.6
				c-11.53,12.07-25.87,27.09-62.22,27.26c-18.1,0.08-28.23,2.44-32.86,7.65c-5.06,5.69-3.96,15.55-2.43,29.2
				c0.58,5.15,1.23,10.99,1.63,17.34c2.46,39.04-19.92,66.32-20.87,67.46c-13.01,15.5-27.75,46.35-21.59,63.97
				c2.4,6.85,7.88,11.19,16.28,12.89c29.34,5.92,37.43-12.42,50.86-42.84c2.46-5.57,5-11.34,7.9-17.45
				c15.54-32.81,30.04-38.5,51.99-47.12c5.27-2.07,11.24-4.41,17.75-7.34c27.74-12.47,22.74-29.59,17.44-47.71
				c-0.76-2.59-1.51-5.18-2.17-7.74c-3.34-13.04,3.25-19.76,11.58-28.27c6-6.12,12.79-13.05,18.17-24.29
				c2.81-5.89,5.14-13.89,0.21-18.56C2670.72,1395.5,2654.24,1397.19,2638.88,1405.57L2638.88,1405.57z"/>
		</g>
		<g>
			
				<linearGradient id="SVGID_00000119820714618620607260000014292905517770526857_" gradientUnits="userSpaceOnUse" x1="2498.7932" y1="1550.5372" x2="2651.1018" y2="1550.5372">
				<stop  offset="0" style="stop-color:#81D1E2"/>
				<stop  offset="1" style="stop-color:#6170B4"/>
			</linearGradient>
			<path style="fill:url(#SVGID_00000119820714618620607260000014292905517770526857_);" d="M2503.08,1673.1l-4.29-0.23
				c0.21-4.03,5.62-98.89,43.7-126.65c41.79-30.46,54.97-63.19,61.24-85.16c7.39-25.89,45.03-32.81,46.62-33.09l0.74,4.22
				c-0.36,0.07-36.59,6.74-43.24,30.04c-6.45,22.58-19.98,56.21-62.84,87.45C2508.57,1576.26,2503.13,1672.13,2503.08,1673.1z"/>
		</g>
		
			<linearGradient id="SVGID_00000018233359022331843130000007635385870946462904_" gradientUnits="userSpaceOnUse" x1="2443.7927" y1="1427.9736" x2="2621.1711" y2="1427.9736">
			<stop  offset="0" style="stop-color:#81D1E2"/>
			<stop  offset="1" style="stop-color:#6170B4"/>
		</linearGradient>
		<path style="fill:url(#SVGID_00000018233359022331843130000007635385870946462904_);" d="M2590.16,1195.03
			c-27.07-9.28-21.45,42.89-32.88,81.5c-11.44,38.61-127.26,16.84-78.64,113.51c48.61,96.67-61.49,32.33-28.6,116.69
			c32.89,84.36,2.86,174.58,38.61,151.64c35.75-22.95,20.08-129.18,57.26-141.81c37.18-12.62,43.24-27.35,6.44-61.66
			c-36.81-34.32,96.45-68.39,63.56-137.68C2583.02,1247.93,2621.44,1205.76,2590.16,1195.03z"/>
		<g>
			<path class="st3" d="M2505.23,1654.33c-3.4-14.44-32.48-141.54-5.35-156.9c23.91-13.54,23.32-66.2,19.59-115.94
				c-3.31-44.02,53.23-64.6,55.65-65.45l1.43,4.04c-0.56,0.2-55.86,20.34-52.8,61.09c3.83,51.07,4.24,105.27-21.75,119.99
				c-20.6,11.67-1.64,113.81,7.41,152.18L2505.23,1654.33z"/>
		</g>
		
			<linearGradient id="SVGID_00000070815660988595187470000014442097512477776056_" gradientUnits="userSpaceOnUse" x1="2403.0906" y1="1682.3937" x2="2566.7688" y2="1682.3937">
			<stop  offset="0" style="stop-color:#E59047"/>
			<stop  offset="1" style="stop-color:#F0CB52"/>
		</linearGradient>
		<polygon style="fill:url(#SVGID_00000070815660988595187470000014442097512477776056_);" points="2566.77,1609.07 
			2528.12,1755.71 2441.74,1755.71 2403.09,1609.07 		"/>
		
			<linearGradient id="SVGID_00000057140263441780558600000006755030729557225147_" gradientUnits="userSpaceOnUse" x1="2403.0906" y1="1682.3937" x2="2566.7688" y2="1682.3937">
			<stop  offset="0" style="stop-color:#B27237"/>
			<stop  offset="1" style="stop-color:#F0CB52"/>
		</linearGradient>
		<path style="fill:url(#SVGID_00000057140263441780558600000006755030729557225147_);" d="M2566.77,1609.07
			c0,0-85.09,15.98-85.09,146.64h-39.94l-38.65-146.64H2566.77z"/>
	</g>
</g>
<g>
	<path class="st15" d="M1923.7,1427.59l4.95-2.68c5.58-3.03,10.47-6.43,14.56-10.12c4-3.6,7.44-7.69,10.23-12.14
		c5.51-8.83,8.32-21.66,8.32-38.1c0-4.26-0.39-8.66-1.14-13.18h-36.91v-45.26h24.79c-4.2-15.66-6.26-28.22-6.26-38.15
		c0-12.94,2.26-24.79,6.71-35.22c4.49-10.53,10.93-19.62,19.15-27.02c8.11-7.32,17.91-13,29.1-16.85
		c10.97-3.78,23.16-5.68,36.25-5.68c11.86,0,23.08,1.66,33.32,4.94c10.48,3.35,19.79,8.31,27.68,14.75
		c8.03,6.55,14.57,14.78,19.44,24.44c4.81,9.56,7.78,20.61,8.78,32.84l0.85,10.24h-54.09l-0.73-8.67
		c-1.93-22.75-12.98-32.89-35.84-32.89c-5.6,0-10.74,0.96-15.25,2.87c-4.59,1.93-8.34,4.45-11.51,7.71
		c-3.19,3.31-5.61,7.06-7.38,11.48c-1.74,4.38-2.63,9.08-2.63,13.95c0,10.93,2.5,24.8,7.45,41.27h58.9v45.26h-47.86
		c0.29,2.24,0.44,4.42,0.44,6.54c0,16.85-2.81,31.17-8.36,42.58c-1.87,3.87-4.16,7.67-6.87,11.38c3.29,0.04,7.1,0.35,11.62,0.96
		c4.49,0.6,9.31,1.37,14.47,2.31l15.45,2.84c5.31,0.99,10.28,1.94,14.93,2.85c4.5,0.88,8.5,1.61,12,2.18
		c4.02,0.67,5.83,0.76,6.57,0.76c11.91,0,23.84-3.05,35.44-9.08l13.83-7.18v56.2l-5.53,2.53c-13.16,6-27.34,9.04-42.18,9.04
		c-10.03,0-24.02-2.81-42.79-8.61c-16.59-5.17-28.91-7.78-36.62-7.78c-18.01,0-38.11,5.2-59.75,15.48l-13.52,6.4V1427.59z"/>
	<path class="st0" d="M1916.13,1427.59l4.95-2.68c5.58-3.03,10.47-6.43,14.56-10.12c4-3.6,7.44-7.69,10.23-12.14
		c5.51-8.83,8.32-21.66,8.32-38.1c0-4.26-0.39-8.66-1.14-13.18h-36.91v-45.26h24.79c-4.2-15.66-6.26-28.22-6.26-38.15
		c0-12.94,2.26-24.79,6.71-35.22c4.49-10.53,10.93-19.62,19.15-27.02c8.11-7.32,17.91-13,29.1-16.85
		c10.97-3.78,23.16-5.68,36.25-5.68c11.86,0,23.08,1.66,33.32,4.94c10.48,3.35,19.79,8.31,27.68,14.75
		c8.03,6.55,14.57,14.78,19.44,24.44c4.81,9.56,7.78,20.61,8.78,32.84l0.85,10.24h-54.09l-0.73-8.67
		c-1.93-22.75-12.98-32.89-35.84-32.89c-5.6,0-10.74,0.96-15.25,2.87c-4.59,1.93-8.34,4.45-11.51,7.71
		c-3.19,3.31-5.61,7.06-7.38,11.48c-1.74,4.38-2.63,9.08-2.63,13.95c0,10.93,2.5,24.8,7.45,41.27h58.9v45.26h-47.86
		c0.29,2.24,0.44,4.42,0.44,6.54c0,16.85-2.81,31.17-8.36,42.58c-1.87,3.87-4.16,7.67-6.87,11.38c3.29,0.04,7.1,0.35,11.62,0.96
		c4.49,0.6,9.31,1.37,14.47,2.31l15.45,2.84c5.31,0.99,10.28,1.94,14.93,2.85c4.5,0.88,8.5,1.61,12,2.18
		c4.02,0.67,5.83,0.76,6.57,0.76c11.91,0,23.84-3.05,35.44-9.08l13.83-7.18v56.2l-5.53,2.53c-13.16,6-27.34,9.04-42.18,9.04
		c-10.03,0-24.02-2.81-42.79-8.61c-16.59-5.17-28.91-7.78-36.62-7.78c-18.01,0-38.11,5.2-59.75,15.48l-13.52,6.4V1427.59z"/>
</g>
<g>
	<path class="st13" d="M1812.46,965.18v-22.84c-23.81-0.95-47.37-6.57-64.1-13.9c-5.97-2.62-9.02-9.32-7.3-15.61l5.8-21.28
		c2.13-7.81,10.62-11.84,18.08-8.72c16.6,6.96,37.09,12.46,59.18,12.46c22.94,0,40.04-7.78,40.04-23.72
		c0-14.38-13.22-22.94-45.1-31.49c-45.49-12.44-78.14-32.27-78.14-72.31c0-36.16,26.44-63.76,72.31-71.14v-22.85
		c0-7.35,5.96-13.31,13.31-13.31h13.42c7.35,0,13.31,5.96,13.31,13.31v20.51c22.04,0.88,38.08,4.65,50.81,9.12
		c6.52,2.29,10.09,9.32,8.28,15.99l-5.34,19.68c-2.06,7.59-10.17,11.75-17.52,8.96c-11.72-4.43-28.29-9.05-49.83-9.05
		c-27.21,0-34.99,11.27-34.99,21.38c0,12.44,16.33,20.99,51.71,31.88c50.54,15.16,71.53,36.15,71.53,73.86
		c0,34.6-25.66,65.7-75.42,73.48v25.57c0,7.35-5.96,13.31-13.31,13.31h-13.42C1818.42,978.49,1812.46,972.53,1812.46,965.18z"/>
</g>
<g>
	<path class="st42" d="M1796.34,969.28v-22.84c-23.81-0.95-47.37-6.57-64.1-13.9c-5.97-2.62-9.02-9.32-7.3-15.61l5.8-21.28
		c2.13-7.81,10.62-11.84,18.08-8.72c16.59,6.96,37.09,12.46,59.18,12.46c22.94,0,40.04-7.78,40.04-23.72
		c0-14.38-13.22-22.94-45.1-31.49c-45.49-12.44-78.14-32.27-78.14-72.31c0-36.16,26.44-63.76,72.31-71.14v-22.85
		c0-7.35,5.96-13.31,13.31-13.31h13.42c7.35,0,13.31,5.96,13.31,13.31v20.51c22.04,0.88,38.08,4.65,50.81,9.12
		c6.52,2.29,10.09,9.32,8.28,15.99l-5.34,19.68c-2.06,7.59-10.17,11.75-17.52,8.96c-11.72-4.43-28.29-9.05-49.83-9.05
		c-27.21,0-34.99,11.27-34.99,21.38c0,12.44,16.33,20.99,51.71,31.88c50.54,15.16,71.53,36.15,71.53,73.86
		c0,34.6-25.66,65.7-75.42,73.48v25.57c0,7.35-5.96,13.31-13.31,13.31h-13.42C1802.3,982.6,1796.34,976.64,1796.34,969.28z"/>
</g>
</svg>
