<?xml version="1.0" encoding="utf-8"?>
<!-- Generator: Adobe Illustrator 27.2.0, SVG Export Plug-In . SVG Version: 6.00 Build 0)  -->
<svg version="1.1" id="Layer_1" xmlns="http://www.w3.org/2000/svg" xmlns:xlink="http://www.w3.org/1999/xlink" x="0px" y="0px"
	 viewBox="0 0 2880 1800" style="enable-background:new 0 0 2880 1800;" xml:space="preserve">
<style type="text/css">
	.st0{fill:#E9E9EA;}
	.st1{fill:#DEE9F6;stroke:#000000;stroke-width:0.5;stroke-miterlimit:10;}
	.st2{fill:#C7C8CA;}
	.st3{fill:#545456;}
	.st4{fill:#3C5A73;}
	.st5{fill:#77787B;}
	.st6{fill:#DA8027;}
	.st7{fill:#F6B83D;}
	.st8{fill:url(#SVGID_1_);}
	.st9{fill:url(#SVGID_00000163041873400180368110000015412277316282900645_);}
	.st10{fill:#42AB49;}
	.st11{fill:#91C852;}
	.st12{fill:#0073AB;}
	.st13{fill:#00558C;}
	.st14{fill:#37AE96;}
	.st15{fill:#FFFFFF;}
	.st16{fill:#36C6F4;}
	.st17{fill:#2F404F;}
	.st18{fill:#D6EFF4;}
	.st19{fill:#C8E6EB;}
	.st20{fill:#41A0D8;}
	.st21{fill:none;stroke:#C7C8CA;stroke-width:0.3717;stroke-miterlimit:10;}
	.st22{fill:#F9AD6F;}
	.st23{fill:#59BF99;}
	.st24{fill:#263364;}
	.st25{fill:#A9CA92;}
	.st26{fill:#3B3B3C;}
	.st27{fill:#C48B6B;}
	.st28{fill:#B56E46;}
	.st29{fill:#2E180C;}
	.st30{fill:#87B0BA;}
	.st31{fill:#C58C6A;}
	.st32{fill:none;}
	.st33{fill:#233862;}
	.st34{clip-path:url(#SVGID_00000018211385368244392890000012593098975155037372_);fill:#00558C;}
	.st35{fill-rule:evenodd;clip-rule:evenodd;fill:#FFFFFF;}
	.st36{fill:#F2F8FC;}
	.st37{fill:#DEE9F6;}
	.st38{fill:#5CC1A4;}
	.st39{fill:#1D9585;}
</style>
<g>
	<g>
		<path class="st0" d="M1338.28,1727.22c0.97,11.54-15.72,25.25-37.28,30.62c-21.56,5.37-39.82,0.36-40.78-11.18
			c-0.97-11.54,15.72-25.25,37.28-30.62C1319.05,1710.67,1337.31,1715.68,1338.28,1727.22z"/>
		<g>
			<path class="st1" d="M744.45,737.29c99.22-55.05,131.63-129.12,161.71-261.82c43.64-192.51,356.32-429.91,482.57-174.54
				c112.94,228.45,148.88,233.58,266.95,171.98c118.07-61.6,310.59-254.12,367.06-74.44c56.47,179.68,5.13,413.26-189.95,531.33
				c-92.65,56.08,10.83,141.5-118.07,233.58c-125.77,89.84-282.35-59.04-487.7-5.13c-205.35,53.9-281.22,156.56-464.6,192.51
				C631.51,1376.43,369.7,945.2,744.45,737.29z"/>
			<g>
				<g>
					<g>
						<polygon class="st2" points="1482.52,1377.32 1201.33,1541.9 1303.92,1602.13 1585.41,1437.07 						"/>
						<polygon class="st3" points="1303.92,1602.13 1201.33,1541.9 1201.33,1558.36 1303.94,1618.59 						"/>
						<polygon class="st3" points="1585.41,1437.07 1303.92,1602.13 1303.94,1618.59 1585.41,1453.46 						"/>
					</g>
				</g>
				<path class="st3" d="M1486.36,1387.67c-75.2-39.98-57.11-98.04-50.45-109.46c2.37-4.06,8.24-14.65,14.83-26.61l-4.78-17.71
					l-242.43,134.61c0,0-31.85,57.91-38.12,69.55c-9.51,17.64-31.69,84.56,43.51,124.54L1486.36,1387.67L1486.36,1387.67z"/>
				<path class="st2" d="M1496.99,1385.55c-75.2-39.98-57.38-95.92-50.71-107.34c2.37-4.06,8.24-14.65,14.83-26.61l-4.78-17.71
					l-238.04,141.25c0,0-27.64,48.2-41.13,74.62c-6.02,11.78-23.59,68.29,51.61,108.26l267.96-170.34L1496.99,1385.55z"/>
			</g>
			<g>
				<path class="st2" d="M1439.57,1306.24c0.22-13.41,4.23-23.79,6.7-28.03c2.37-4.06,8.24-14.65,14.83-26.61l-4.78-17.71
					l-238.04,141.25c0,0-27.64,48.2-41.13,74.62c-1.12,2.19-2.64,5.94-3.89,10.84L1439.57,1306.24z"/>
			</g>
			<g>
				<path d="M917.7,665.24l745.53-429.74c10.9-6.28,24.51,1.58,24.51,14.16v800.7c0,10.36-5.55,19.93-14.55,25.08L925.3,1502.74
					c-10.9,6.23-24.46-1.64-24.46-14.19V694.41C900.84,682.37,907.27,671.25,917.7,665.24z"/>
				<polygon points="1678.45,295.1 1732.8,328.97 1732.8,268.78 1678.45,234.9 				"/>
				<polygon points="910.34,1503.31 964,1536.9 964,1476.71 910.34,1443.12 				"/>
				<path class="st0" d="M971.89,699.1l745.53-429.74c10.9-6.28,24.51,1.58,24.51,14.16v800.7c0,10.36-5.55,19.93-14.55,25.08
					l-747.89,427.31c-10.9,6.23-24.46-1.64-24.46-14.19V728.28C955.03,716.24,961.46,705.12,971.89,699.1z"/>
				<path class="st4" d="M999.31,716.24l702.45-404.91c4.17-2.4,9.38,0.61,9.38,5.42v668.46l-725.32,414.41V739.59
					C985.82,729.95,990.96,721.05,999.31,716.24z"/>
			</g>
			<path class="st5" d="M922.3,1451.59l8.46,5.71c2.47,1.67,5.8-0.1,5.8-3.08v-99.92c0-1.24-0.61-2.39-1.64-3.08l-8.46-5.71
				c-2.47-1.67-5.8,0.1-5.8,3.08v99.92C920.66,1449.74,921.28,1450.9,922.3,1451.59z"/>
			<path class="st5" d="M922.3,1308.01l8.46,5.71c2.47,1.67,5.8-0.1,5.8-3.08v-99.92c0-1.24-0.61-2.39-1.64-3.08l-8.46-5.71
				c-2.47-1.67-5.8,0.1-5.8,3.08v99.92C920.66,1306.16,921.28,1307.31,922.3,1308.01z"/>
			<g>
				<g>
					<path class="st0" d="M1178.36,1684.06c-0.63-0.36-1.27-0.71-1.93-1.05l-49.17-29.79l-65.01,67.7l27.54,15.6
						c21.76,11.14,57.86,9.35,82.1-4.36C1196.94,1717.99,1199.83,1696.46,1178.36,1684.06z"/>
					<path class="st6" d="M1156.48,1671.73c-21.47-12.4-59.18-10.96-84.22,3.21c-25.04,14.17-27.93,35.71-6.46,48.1
						c21.47,12.4,59.18,10.96,84.22-3.21C1175.05,1705.67,1177.95,1684.13,1156.48,1671.73z"/>
					<rect x="1051.41" y="1685.27" class="st6" width="9.18" height="17.58"/>
					<rect x="1161.69" y="1677.33" class="st6" width="9.18" height="14.9"/>
					<path class="st7" d="M1156.48,1656.75c-21.47-12.4-59.18-10.96-84.22,3.21c-25.04,14.17-27.93,35.71-6.46,48.1
						c21.47,12.4,59.18,10.96,84.22-3.21C1175.05,1690.69,1177.95,1669.15,1156.48,1656.75z"/>
					<path class="st7" d="M1138.31,1667.15c-12.87-6.95-35.46-6.14-50.47,1.8c-15.01,7.94-16.74,20.02-3.87,26.96
						c12.87,6.95,35.46,6.14,50.47-1.8S1151.17,1674.1,1138.31,1667.15z"/>
					<path class="st6" d="M1087.84,1675.1c15.01-7.94,37.6-8.75,50.47-1.8c4.42,2.39,7.12,5.38,8.14,8.6
						c1.64-5.44-0.99-10.88-8.14-14.74c-12.87-6.95-35.46-6.14-50.47,1.8c-9.85,5.21-13.98,12.21-12.02,18.36
						C1077.13,1682.97,1081.17,1678.63,1087.84,1675.1z"/>
				</g>
			</g>
			<g>
				<g>
					<path class="st0" d="M1891.94,1170.05c-0.63-0.36-1.27-0.71-1.93-1.05l-49.17-29.79l-65.01,67.7l27.54,15.6
						c21.76,11.14,57.86,9.35,82.1-4.36C1910.52,1203.98,1913.41,1182.45,1891.94,1170.05z"/>
					<path class="st6" d="M1870.06,1157.73c-21.47-12.4-59.18-10.96-84.22,3.21c-25.04,14.17-27.93,35.71-6.46,48.1
						c21.47,12.4,59.18,10.96,84.22-3.21S1891.53,1170.12,1870.06,1157.73z"/>
					<rect x="1764.99" y="1171.27" class="st6" width="9.18" height="17.58"/>
					<rect x="1875.27" y="1163.32" class="st6" width="9.18" height="14.9"/>
					<path class="st7" d="M1870.06,1142.74c-21.47-12.4-59.18-10.96-84.22,3.21c-25.04,14.17-27.93,35.71-6.46,48.1
						c21.47,12.4,59.18,10.96,84.22-3.21C1888.64,1176.68,1891.53,1155.14,1870.06,1142.74z"/>
					<path class="st7" d="M1851.89,1153.14c-12.87-6.95-35.46-6.14-50.47,1.8c-15.01,7.94-16.74,20.02-3.87,26.96
						c12.87,6.95,35.46,6.14,50.47-1.8S1864.75,1160.09,1851.89,1153.14z"/>
					<path class="st6" d="M1801.42,1161.09c15.01-7.94,37.6-8.75,50.47-1.8c4.42,2.39,7.12,5.38,8.14,8.6
						c1.64-5.44-0.99-10.88-8.14-14.74c-12.87-6.95-35.46-6.14-50.47,1.8c-9.85,5.21-13.98,12.21-12.02,18.36
						C1790.71,1168.96,1794.76,1164.62,1801.42,1161.09z"/>
					<path class="st6" d="M1870.06,1133.85c-21.47-12.4-59.18-10.96-84.22,3.21c-25.04,14.17-27.93,35.71-6.46,48.1
						c21.47,12.4,59.18,10.96,84.22-3.21C1888.64,1167.79,1891.53,1146.25,1870.06,1133.85z"/>
					<rect x="1764.99" y="1147.39" class="st6" width="9.18" height="17.58"/>
					<rect x="1875.27" y="1139.45" class="st6" width="9.18" height="14.9"/>
					<path class="st7" d="M1870.06,1118.87c-21.47-12.4-59.18-10.96-84.22,3.21c-25.04,14.17-27.93,35.71-6.46,48.1
						c21.47,12.4,59.18,10.96,84.22-3.21C1888.64,1152.8,1891.53,1131.27,1870.06,1118.87z"/>
					<path class="st7" d="M1851.89,1129.27c-12.87-6.95-35.46-6.14-50.47,1.8c-15.01,7.94-16.74,20.02-3.87,26.96
						c12.87,6.95,35.46,6.14,50.47-1.8C1863.02,1148.29,1864.75,1136.22,1851.89,1129.27z"/>
					<path class="st6" d="M1801.42,1137.22c15.01-7.94,37.6-8.75,50.47-1.8c4.42,2.39,7.12,5.38,8.14,8.6
						c1.64-5.44-0.99-10.88-8.14-14.74c-12.87-6.95-35.46-6.14-50.47,1.8c-9.85,5.21-13.98,12.21-12.02,18.36
						C1790.71,1145.09,1794.76,1140.74,1801.42,1137.22z"/>
					<path class="st6" d="M1870.06,1109.98c-21.47-12.4-59.18-10.96-84.22,3.21c-25.04,14.17-27.93,35.71-6.46,48.1
						c21.47,12.4,59.18,10.96,84.22-3.21C1888.64,1143.91,1891.53,1122.38,1870.06,1109.98z"/>
					<rect x="1764.99" y="1123.52" class="st6" width="9.18" height="17.58"/>
					<rect x="1875.27" y="1115.58" class="st6" width="9.18" height="14.9"/>
					<path class="st7" d="M1870.06,1095c-21.47-12.4-59.18-10.96-84.22,3.21c-25.04,14.17-27.93,35.71-6.46,48.1
						c21.47,12.4,59.18,10.96,84.22-3.21S1891.53,1107.39,1870.06,1095z"/>
					<path class="st7" d="M1851.89,1105.4c-12.87-6.95-35.46-6.14-50.47,1.8c-15.01,7.94-16.74,20.02-3.87,26.96
						c12.87,6.95,35.46,6.14,50.47-1.8C1863.02,1124.42,1864.75,1112.35,1851.89,1105.4z"/>
					<path class="st6" d="M1801.42,1113.34c15.01-7.94,37.6-8.75,50.47-1.8c4.42,2.39,7.12,5.38,8.14,8.6
						c1.64-5.44-0.99-10.88-8.14-14.74c-12.87-6.95-35.46-6.14-50.47,1.8c-9.85,5.21-13.98,12.21-12.02,18.36
						C1790.71,1121.21,1794.76,1116.87,1801.42,1113.34z"/>
					<path class="st6" d="M1870.06,1086.11c-21.47-12.4-59.18-10.96-84.22,3.21c-25.04,14.17-27.93,35.71-6.46,48.1
						c21.47,12.4,59.18,10.96,84.22-3.21S1891.53,1098.5,1870.06,1086.11z"/>
					<rect x="1764.99" y="1099.65" class="st6" width="9.18" height="17.58"/>
					<rect x="1875.27" y="1091.71" class="st6" width="9.18" height="14.9"/>
					<path class="st7" d="M1870.06,1071.13c-21.47-12.4-59.18-10.96-84.22,3.21c-25.04,14.17-27.93,35.71-6.46,48.1
						c21.47,12.4,59.18,10.96,84.22-3.21S1891.53,1083.52,1870.06,1071.13z"/>
					<path class="st7" d="M1851.89,1081.52c-12.87-6.95-35.46-6.14-50.47,1.8c-15.01,7.94-16.74,20.02-3.87,26.96
						c12.87,6.95,35.46,6.14,50.47-1.8S1864.75,1088.47,1851.89,1081.52z"/>
					<path class="st6" d="M1801.42,1089.47c15.01-7.94,37.6-8.75,50.47-1.8c4.42,2.39,7.12,5.38,8.14,8.6
						c1.64-5.44-0.99-10.88-8.14-14.74c-12.87-6.95-35.46-6.14-50.47,1.8c-9.85,5.21-13.98,12.21-12.02,18.36
						C1790.71,1097.34,1794.76,1093,1801.42,1089.47z"/>
					<path class="st6" d="M1870.06,1062.24c-21.47-12.4-59.18-10.96-84.22,3.21c-25.04,14.17-27.93,35.71-6.46,48.1
						c21.47,12.4,59.18,10.96,84.22-3.21S1891.53,1074.63,1870.06,1062.24z"/>
					<rect x="1764.99" y="1075.78" class="st6" width="9.18" height="17.58"/>
					<rect x="1875.27" y="1067.83" class="st6" width="9.18" height="14.9"/>
					<path class="st7" d="M1870.06,1047.25c-21.47-12.4-59.18-10.96-84.22,3.21c-25.04,14.17-27.93,35.71-6.46,48.1
						c21.47,12.4,59.18,10.96,84.22-3.21C1888.64,1081.19,1891.53,1059.65,1870.06,1047.25z"/>
					<path class="st7" d="M1851.89,1057.65c-12.87-6.95-35.46-6.14-50.47,1.8c-15.01,7.94-16.74,20.02-3.87,26.96
						c12.87,6.95,35.46,6.14,50.47-1.8C1863.02,1076.67,1864.75,1064.6,1851.89,1057.65z"/>
					<path class="st6" d="M1801.42,1065.6c15.01-7.94,37.6-8.75,50.47-1.8c4.42,2.39,7.12,5.38,8.14,8.6
						c1.64-5.44-0.99-10.88-8.14-14.74c-12.87-6.95-35.46-6.14-50.47,1.8c-9.85,5.21-13.98,12.21-12.02,18.36
						C1790.71,1073.47,1794.76,1069.13,1801.42,1065.6z"/>
					<path class="st6" d="M1870.06,1038.36c-21.47-12.4-59.18-10.96-84.22,3.21c-25.04,14.17-27.93,35.71-6.46,48.1
						c21.47,12.4,59.18,10.96,84.22-3.21C1888.64,1072.3,1891.53,1050.76,1870.06,1038.36z"/>
					<rect x="1764.99" y="1051.9" class="st6" width="9.18" height="17.58"/>
					<rect x="1875.27" y="1043.96" class="st6" width="9.18" height="14.9"/>
					<path class="st7" d="M1870.06,1023.38c-21.47-12.4-59.18-10.96-84.22,3.21c-25.04,14.17-27.93,35.71-6.46,48.1
						c21.47,12.4,59.18,10.96,84.22-3.21C1888.64,1057.31,1891.53,1035.78,1870.06,1023.38z"/>
					<path class="st7" d="M1851.89,1033.78c-12.87-6.95-35.46-6.14-50.47,1.8c-15.01,7.94-16.74,20.02-3.87,26.96
						c12.87,6.95,35.46,6.14,50.47-1.8C1863.02,1052.8,1864.75,1040.73,1851.89,1033.78z"/>
					<path class="st6" d="M1801.42,1041.73c15.01-7.94,37.6-8.75,50.47-1.8c4.42,2.39,7.12,5.38,8.14,8.6
						c1.64-5.44-0.99-10.88-8.14-14.74c-12.87-6.95-35.46-6.14-50.47,1.8c-9.85,5.21-13.98,12.21-12.02,18.36
						C1790.71,1049.6,1794.76,1045.25,1801.42,1041.73z"/>
					<path class="st6" d="M1870.06,1014.49c-21.47-12.4-59.18-10.96-84.22,3.21c-25.04,14.17-27.93,35.71-6.46,48.1
						c21.47,12.4,59.18,10.96,84.22-3.21C1888.64,1048.42,1891.53,1026.89,1870.06,1014.49z"/>
					<rect x="1764.99" y="1028.03" class="st6" width="9.18" height="17.58"/>
					<rect x="1875.27" y="1020.09" class="st6" width="9.18" height="14.9"/>
					<path class="st7" d="M1870.06,999.51c-21.47-12.4-59.18-10.96-84.22,3.21c-25.04,14.17-27.93,35.71-6.46,48.1
						c21.47,12.4,59.18,10.96,84.22-3.21S1891.53,1011.9,1870.06,999.51z"/>
					<path class="st7" d="M1851.89,1009.91c-12.87-6.95-35.46-6.14-50.47,1.8c-15.01,7.94-16.74,20.02-3.87,26.96
						c12.87,6.95,35.46,6.14,50.47-1.8S1864.75,1016.86,1851.89,1009.91z"/>
					<path class="st6" d="M1801.42,1017.85c15.01-7.94,37.6-8.75,50.47-1.8c4.42,2.39,7.12,5.38,8.14,8.6
						c1.64-5.44-0.99-10.88-8.14-14.74c-12.87-6.95-35.46-6.14-50.47,1.8c-9.85,5.21-13.98,12.21-12.02,18.36
						C1790.71,1025.73,1794.76,1021.38,1801.42,1017.85z"/>
					<path class="st6" d="M1870.06,990.62c-21.47-12.4-59.18-10.96-84.22,3.21c-25.04,14.17-27.93,35.71-6.46,48.1
						c21.47,12.4,59.18,10.96,84.22-3.21C1888.64,1024.55,1891.53,1003.01,1870.06,990.62z"/>
					<rect x="1764.99" y="1004.16" class="st6" width="9.18" height="17.58"/>
					<rect x="1875.27" y="996.22" class="st6" width="9.18" height="14.9"/>
					
						<ellipse transform="matrix(0.993 -0.1183 0.1183 0.993 -105.6767 222.9867)" class="st7" cx="1824.72" cy="1001.29" rx="60.01" ry="33.58"/>
					<path class="st7" d="M1851.89,986.03c-12.87-6.95-35.46-6.14-50.47,1.8c-15.01,7.94-16.74,20.02-3.87,26.96
						c12.87,6.95,35.46,6.14,50.47-1.8C1863.02,1005.05,1864.75,992.98,1851.89,986.03z"/>
					<path class="st6" d="M1801.42,993.98c15.01-7.94,37.6-8.75,50.47-1.8c4.42,2.39,7.12,5.38,8.14,8.6
						c1.64-5.44-0.99-10.88-8.14-14.74c-12.87-6.95-35.46-6.14-50.47,1.8c-9.85,5.21-13.98,12.21-12.02,18.36
						C1790.71,1001.85,1794.76,997.51,1801.42,993.98z"/>
					<path class="st6" d="M1870.06,966.75c-21.47-12.4-59.18-10.96-84.22,3.21c-25.04,14.17-27.93,35.71-6.46,48.1
						c21.47,12.4,59.18,10.96,84.22-3.21C1888.64,1000.68,1891.53,979.14,1870.06,966.75z"/>
					<rect x="1764.99" y="980.29" class="st6" width="9.18" height="17.58"/>
					<rect x="1875.27" y="972.34" class="st6" width="9.18" height="14.9"/>
					<linearGradient id="SVGID_1_" gradientUnits="userSpaceOnUse" x1="1764.9917" y1="977.4223" x2="1884.4441" y2="977.4223">
						<stop  offset="0" style="stop-color:#F3B62E"/>
						<stop  offset="1" style="stop-color:#F1B01C"/>
					</linearGradient>
					<path class="st8" d="M1870.06,951.76c-21.47-12.4-59.18-10.96-84.22,3.21c-25.04,14.17-27.93,35.71-6.46,48.1
						c21.47,12.4,59.18,10.96,84.22-3.21C1888.64,985.7,1891.53,964.16,1870.06,951.76z"/>
					
						<linearGradient id="SVGID_00000065788232109288074730000003023329284516157604_" gradientUnits="userSpaceOnUse" x1="1788.9269" y1="976.5444" x2="1860.5089" y2="976.5444">
						<stop  offset="0" style="stop-color:#F3B62E"/>
						<stop  offset="1" style="stop-color:#F1B01C"/>
					</linearGradient>
					<path style="fill:url(#SVGID_00000065788232109288074730000003023329284516157604_);" d="M1851.89,962.16
						c-12.87-6.95-35.46-6.14-50.47,1.8c-15.01,7.94-16.74,20.02-3.87,26.96c12.87,6.95,35.46,6.14,50.47-1.8
						C1863.02,981.18,1864.75,969.11,1851.89,962.16z"/>
					<path class="st6" d="M1801.42,970.11c15.01-7.94,37.6-8.75,50.47-1.8c4.42,2.39,7.12,5.38,8.14,8.6
						c1.64-5.44-0.99-10.88-8.14-14.74c-12.87-6.95-35.46-6.14-50.47,1.8c-9.85,5.21-13.98,12.21-12.02,18.36
						C1790.71,977.98,1794.76,973.64,1801.42,970.11z"/>
				</g>
			</g>
			<g>
				<g>
					<path class="st0" d="M2056.33,1203.42c-0.63-0.36-1.27-0.71-1.93-1.05l-49.17-29.79l-65.01,67.7l27.54,15.6
						c21.76,11.14,57.86,9.35,82.1-4.36C2074.91,1237.35,2077.8,1215.82,2056.33,1203.42z"/>
					<path class="st6" d="M2034.45,1191.09c-21.47-12.4-59.18-10.96-84.22,3.21c-25.04,14.17-27.93,35.71-6.46,48.1
						c21.47,12.4,59.18,10.96,84.22-3.21S2055.92,1203.49,2034.45,1191.09z"/>
					<rect x="1929.38" y="1204.63" class="st6" width="9.18" height="17.58"/>
					<rect x="2039.66" y="1196.69" class="st6" width="9.18" height="14.9"/>
					
						<ellipse transform="matrix(0.993 -0.1183 0.1183 0.993 -128.2419 243.8394)" class="st7" cx="1989.11" cy="1201.77" rx="60.01" ry="33.58"/>
					<path class="st7" d="M2016.28,1186.51c-12.87-6.95-35.46-6.14-50.47,1.8c-15.01,7.94-16.74,20.02-3.87,26.96
						c12.87,6.95,35.46,6.14,50.47-1.8S2029.15,1193.46,2016.28,1186.51z"/>
					<path class="st6" d="M1965.81,1194.46c15.01-7.94,37.6-8.75,50.47-1.8c4.42,2.39,7.12,5.38,8.14,8.6
						c1.64-5.44-0.99-10.88-8.14-14.74c-12.87-6.95-35.46-6.14-50.47,1.8c-9.85,5.21-13.98,12.21-12.02,18.36
						C1955.11,1202.33,1959.15,1197.99,1965.81,1194.46z"/>
					<path class="st6" d="M2034.45,1167.22c-21.47-12.4-59.18-10.96-84.22,3.21c-25.04,14.17-27.93,35.71-6.46,48.1
						c21.47,12.4,59.18,10.96,84.22-3.21C2053.03,1201.16,2055.92,1179.62,2034.45,1167.22z"/>
					<rect x="1929.38" y="1180.76" class="st6" width="9.18" height="17.58"/>
					<rect x="2039.66" y="1172.82" class="st6" width="9.18" height="14.9"/>
					<path class="st7" d="M2034.45,1152.24c-21.47-12.4-59.18-10.96-84.22,3.21c-25.04,14.17-27.93,35.71-6.46,48.1
						c21.47,12.4,59.18,10.96,84.22-3.21C2053.03,1186.17,2055.92,1164.64,2034.45,1152.24z"/>
					<path class="st7" d="M2016.28,1162.64c-12.87-6.95-35.46-6.14-50.47,1.8c-15.01,7.94-16.74,20.02-3.87,26.96
						c12.87,6.95,35.46,6.14,50.47-1.8C2027.41,1181.66,2029.15,1169.59,2016.28,1162.64z"/>
					<path class="st6" d="M1965.81,1170.58c15.01-7.94,37.6-8.75,50.47-1.8c4.42,2.39,7.12,5.38,8.14,8.6
						c1.64-5.44-0.99-10.88-8.14-14.74c-12.87-6.95-35.46-6.14-50.47,1.8c-9.85,5.21-13.98,12.21-12.02,18.36
						C1955.11,1178.46,1959.15,1174.11,1965.81,1170.58z"/>
				</g>
			</g>
			<g>
				<g>
					<polygon class="st10" points="532.38,1261.16 493.02,1237.76 493.02,1189.32 532.38,1212.73 					"/>
					<polygon class="st10" points="807.55,929.41 768.19,906.01 768.19,857.58 807.55,880.98 					"/>
					<g>
						<path class="st10" d="M774.33,1057.95c0,13.14-6.95,25.29-18.28,31.95l-251,147.62c-8.17,4.81-18.47-1.09-18.47-10.57v-189.79
							c0-13.14,6.95-25.29,18.28-31.95l251-147.62c8.17-4.81,18.47,1.09,18.47,10.57V1057.95z"/>
						<path class="st11" d="M813.4,1081.27c0,13.14-6.95,25.29-18.28,31.95l-251,147.62c-8.17,4.81-18.47-1.09-18.47-10.57v-189.79
							c0-13.14,6.95-25.29,18.28-31.95l251-147.62c8.17-4.81,18.47,1.09,18.47,10.57V1081.27z"/>
					</g>
				</g>
			</g>
			<g>
				<g>
					<polygon class="st12" points="1037.84,492.81 998.48,469.41 998.48,420.97 1037.84,444.38 					"/>
					<polygon class="st12" points="1313.01,161.06 1273.65,137.66 1273.65,89.23 1313.01,112.63 					"/>
					<g>
						<path class="st12" d="M1261.52,321.56l-251,147.62c-8.17,4.81-18.47-1.09-18.47-10.57V268.82c0-13.14,6.95-25.29,18.28-31.95
							l251-147.62c8.17-4.81,18.47,1.09,18.47,10.57V289.6C1279.8,302.74,1272.85,314.9,1261.52,321.56z"/>
						<path class="st13" d="M1300.59,344.88l-251,147.62c-8.17,4.81-18.47-1.09-18.47-10.57V292.13c0-13.14,6.95-25.29,18.28-31.95
							l251-147.62c8.17-4.81,18.47,1.09,18.47,10.57v189.79C1318.87,326.06,1311.91,338.22,1300.59,344.88z"/>
					</g>
				</g>
			</g>
			<g>
				<g>
					<polygon class="st14" points="1848.25,561.12 1808.89,537.71 1808.89,489.28 1848.25,512.68 					"/>
					<polygon class="st14" points="2123.42,229.37 2084.06,205.97 2084.06,157.53 2123.42,180.94 					"/>
					<g>
						<path class="st14" d="M2071.93,389.86l-251,147.62c-8.17,4.81-18.47-1.09-18.47-10.57V337.12c0-13.14,6.95-25.29,18.28-31.95
							l251-147.62c8.17-4.81,18.47,1.09,18.47,10.57v189.79C2090.21,371.05,2083.26,383.2,2071.93,389.86z"/>
						<path class="st14" d="M2111,413.18L1860,560.8c-8.17,4.81-18.47-1.09-18.47-10.57V360.44c0-13.14,6.95-25.29,18.28-31.95
							l251-147.62c8.17-4.81,18.47,1.09,18.47,10.57v189.79C2129.28,394.37,2122.32,406.52,2111,413.18z"/>
					</g>
				</g>
			</g>
			<g>
				<g>
					<polygon class="st15" points="1025.14,769.02 1553.7,464.35 1553.7,653.08 1025.14,955.07 					"/>
					<path class="st16" d="M1265.81,709.88c-15.41,63.88-29.16,31.77-59.23,47.69c-19.36,10.25-13.97,28.89-53.68,39.36
						c-18.35,4.84-35.05-9.46-50.81-6.35c-16.62,3.28-31.84,38.58-50.81,44.36v67.41l214.53-122.57V709.88z"/>
					<path class="st12" d="M1267.6,708.19c-10.27,5.42-27.02,60.28-57.59,76.47c-19.69,10.42-38.6-14.26-58.08-2.57
						c-16.54,9.93-24.03,44.46-38.6,51.83c-29.34,14.85-46.42-6.26-63.84,1.43v77.8l218.12-124.62V708.19z"/>
					<polygon class="st15" points="1025.14,988.65 1553.7,683.98 1553.7,1006.91 1025.14,1308.91 					"/>
					<polygon class="st17" points="1683.85,391.18 1572.93,455.11 1572.93,1001.76 1683.85,938.39 					"/>
					<polyline class="st15" points="1670.12,946.02 1830.87,526.32 1733.68,582.63 1572.93,1001.76 					"/>
					<polygon class="st18" points="1739.55,612.48 1643.08,864.02 1701.64,830.18 1798.11,578.3 					"/>
					<polygon class="st19" points="1351.65,1004.18 1351.65,1025.68 1513.64,933.12 1513.64,910.8 					"/>
					<polygon class="st19" points="1351.65,1037.05 1351.65,1058.54 1513.64,965.98 1513.64,943.67 					"/>
					<polygon class="st19" points="1351.65,1069.91 1351.65,1091.41 1513.64,998.85 1513.64,976.53 					"/>
					<g>
						<polygon class="st18" points="1384.8,826.89 1355.7,843.67 1355.7,984.92 1384.8,968.3 						"/>
						<polygon class="st5" points="1384.8,871.85 1355.7,888.63 1355.7,984.92 1384.8,968.3 						"/>
						<polygon class="st18" points="1424.46,803.46 1395.36,820.23 1395.36,961.49 1424.46,944.86 						"/>
						<polygon class="st20" points="1424.46,900.47 1395.36,917.25 1395.36,961.49 1424.46,944.86 						"/>
						<polygon class="st16" points="1464.12,780.02 1435.02,796.8 1435.02,938.05 1464.12,921.42 						"/>
						<polygon class="st18" points="1503.78,756.58 1474.68,773.36 1474.68,914.61 1503.78,897.99 						"/>
						<polygon class="st12" points="1503.78,793.85 1474.68,810.63 1474.68,914.61 1503.78,897.99 						"/>
					</g>
					<g>
						<polygon class="st20" points="1328,850.38 1230.16,906.78 1230.16,928.27 1328,872.37 						"/>
						<polygon class="st5" points="1328,883.24 1230.16,939.64 1230.16,961.14 1328,905.23 						"/>
						<polygon class="st12" points="1328,916.11 1230.16,972.51 1230.16,994 1328,938.1 						"/>
					</g>
					<g>
						<polygon class="st19" points="1328,948.83 1230.16,1005.23 1230.16,1026.73 1328,970.82 						"/>
						<polygon class="st19" points="1328,981.7 1230.16,1038.1 1230.16,1059.59 1328,1003.69 						"/>
						<polygon class="st19" points="1328,1014.56 1230.16,1070.96 1230.16,1092.46 1328,1036.56 						"/>
						<polygon class="st19" points="1328,1048.33 1230.16,1104.73 1230.16,1161.55 1328,1105.64 						"/>
					</g>
				</g>
				<g>
					<g>
						<path class="st20" d="M1127.95,1085.97l43.81-116.47c-25.87-26.47-61.6-14.81-86.4,32.03
							c-29.22,55.19-32.18,138.3-6.62,185.62c25.56,47.32,69.96,40.95,99.18-14.25c2.01-3.8,3.88-7.73,5.64-11.77L1127.95,1085.97z"
							/>
						<path class="st12" d="M1187.05,1152.53c20.37-53.74,20.06-123.45-2.51-165.25c-2.17-4.02-4.49-7.62-6.91-10.87l-40.74,108.31
							L1187.05,1152.53z"/>
					</g>
					<path class="st15" d="M1142.53,1066.64c5.26,9.74,4.65,26.86-1.36,38.22c-6.02,11.37-15.16,12.68-20.42,2.93
						c-5.26-9.74-4.65-26.86,1.36-38.22C1128.13,1058.21,1137.27,1056.9,1142.53,1066.64z"/>
				</g>
				<polygon class="st13" points="1502.8,528.91 1524,516.73 1516.44,550.54 				"/>
				<line class="st21" x1="1306.89" y1="637.23" x2="1306.89" y2="764.86"/>
				<line class="st21" x1="1370.3" y1="601.42" x2="1370.3" y2="729.05"/>
				<line class="st21" x1="1433.71" y1="565.15" x2="1433.71" y2="692.78"/>
				<line class="st21" x1="1497.12" y1="528.11" x2="1497.12" y2="655.75"/>
				<line class="st21" x1="1306.33" y1="765.42" x2="1530.68" y2="636.66"/>
				<g>
					<polygon class="st13" points="1318.11,758.51 1307.31,764.76 1353.58,672.94 1375.88,698.02 1427.54,613.8 1441.17,655.38 
						1515.84,521.77 1521.75,525.08 1439.55,672.17 1425.66,629.82 1376.88,709.34 1355.14,684.89 					"/>
				</g>
			</g>
			<g>
				<g>
					<path class="st0" d="M941.26,1666.52c-0.63-0.36-1.27-0.71-1.93-1.05l-49.17-29.79l-65.01,67.7l27.54,15.6
						c21.76,11.14,57.86,9.35,82.1-4.36C959.84,1700.45,962.73,1678.91,941.26,1666.52z"/>
					<path class="st6" d="M915.84,1652.06c-21.47-12.4-59.18-10.96-84.22,3.21c-25.04,14.17-27.93,35.71-6.46,48.1
						c21.47,12.4,59.18,10.96,84.22-3.21C934.41,1686,937.31,1664.46,915.84,1652.06z"/>
					<rect x="810.77" y="1665.6" class="st6" width="9.18" height="17.58"/>
					<rect x="921.05" y="1657.66" class="st6" width="9.18" height="14.9"/>
					<path class="st7" d="M915.84,1637.08c-21.47-12.4-59.18-10.96-84.22,3.21c-25.04,14.17-27.93,35.71-6.46,48.1
						c21.47,12.4,59.18,10.96,84.22-3.21C934.41,1671.01,937.31,1649.48,915.84,1637.08z"/>
					<path class="st7" d="M897.67,1647.48c-12.87-6.95-35.46-6.14-50.47,1.8c-15.01,7.94-16.74,20.02-3.87,26.96
						c12.87,6.95,35.46,6.14,50.47-1.8C908.8,1666.5,910.53,1654.43,897.67,1647.48z"/>
					<path class="st6" d="M847.2,1655.43c15.01-7.94,37.6-8.75,50.47-1.8c4.42,2.39,7.12,5.38,8.14,8.6
						c1.64-5.44-0.99-10.88-8.14-14.74c-12.87-6.95-35.46-6.14-50.47,1.8c-9.85,5.21-13.98,12.21-12.02,18.36
						C836.49,1663.3,840.53,1658.95,847.2,1655.43z"/>
				</g>
				<g>
					<path class="st6" d="M915.84,1632.72c-21.47-12.4-59.18-10.96-84.22,3.21c-25.04,14.17-27.93,35.71-6.46,48.1
						c21.47,12.4,59.18,10.96,84.22-3.21C934.41,1666.65,937.31,1645.11,915.84,1632.72z"/>
					<rect x="810.77" y="1646.26" class="st6" width="9.18" height="17.58"/>
					<rect x="921.05" y="1638.32" class="st6" width="9.18" height="14.9"/>
					<path class="st7" d="M915.84,1617.74c-21.47-12.4-59.18-10.96-84.22,3.21c-25.04,14.17-27.93,35.71-6.46,48.1
						c21.47,12.4,59.18,10.96,84.22-3.21C934.41,1651.67,937.31,1630.13,915.84,1617.74z"/>
					<path class="st7" d="M906.73,1623.34c-17.16-9.27-47.29-8.19-67.31,2.4c-20.01,10.59-22.33,26.69-5.17,35.96
						c17.16,9.27,47.29,8.19,67.31-2.4C921.58,1648.7,923.89,1632.6,906.73,1623.34z"/>
					<path class="st6" d="M839.43,1633.93c20.01-10.59,50.15-11.67,67.31-2.4c5.89,3.18,9.49,7.17,10.86,11.47
						c2.19-7.25-1.33-14.51-10.86-19.67c-17.16-9.27-47.29-8.19-67.31,2.4c-13.14,6.95-18.65,16.28-16.03,24.49
						C825.15,1644.43,830.54,1638.64,839.43,1633.93z"/>
				</g>
			</g>
		</g>
		<path class="st22" d="M1684.24,917.45c0,0,3.79-8.57,2.16-13.79c-1.63-5.22-5.22,2.61-5.22,5.54c0,2.93-10.86,10.94-5.64,22.67
			L1684.24,917.45z"/>
		<g>
			<path class="st0" d="M1647.36,1265.52l-126.38,71.04c-3.7,2.08-3.74,7.38-0.08,9.52l154.83,90.46c4.08,2.38,9.12,2.42,13.23,0.1
				l116.55-65.8c5.24-2.96,5.28-10.48,0.08-13.5L1647.36,1265.52z"/>
			<polygon class="st4" points="1793.96,1341.09 1489.25,1318.18 1489.25,1327.82 1658.93,1426.95 1793.96,1350.72 			"/>
			<polygon class="st23" points="1623.97,1242.46 1489.25,1318.18 1658.93,1417.32 1793.96,1341.09 			"/>
			<polygon class="st15" points="1782.3,1309.81 1500.91,1287.13 1500.91,1319.08 1657.61,1410.63 1782.3,1340.23 			"/>
			<polygon class="st19" points="1657.39,1299.74 1782.3,1309.81 1782.3,1340.23 1657.61,1410.63 1657.39,1410.5 			"/>
			<polygon class="st24" points="1785.9,1345.64 1779.16,1342 1779.16,1306.11 1785.9,1310.65 			"/>
			<g>
				<polygon class="st25" points="1793.96,1303.22 1489.25,1280.32 1489.25,1289.95 1658.93,1389.09 1793.96,1312.86 				"/>
				<polygon class="st25" points="1623.97,1204.59 1489.25,1280.32 1658.93,1379.46 1793.96,1303.22 				"/>
			</g>
			<polygon class="st4" points="1785.9,1349.35 1793.96,1349.35 1793.96,1306.25 1785.9,1310.65 			"/>
		</g>
		<g>
			<path d="M1312.16,1701.22c0,0,0.16,8.08,0,10.19s19.25,14.2,27.98,15.65c4.8,0.8,7.79-1.01,9.51-3c1.51-1.75,1.16-4.44-0.64-5.9
				c-10.92-8.8-17.62-17.86-17.62-17.86L1312.16,1701.22z"/>
			<path class="st26" d="M1313.91,1713.48c5.72-5.36,13.99-6.8,21.69-8.11c-2.71-3.04-4.21-5.06-4.21-5.06l-19.23,0.91
				c0,0,0.16,8.08,0,10.19C1312.13,1711.8,1312.78,1712.53,1313.91,1713.48z"/>
			<path d="M1282.09,1718.8c0,0-2.16,11.12-1.76,13.78s2.11,19.7,16.66,18.99c14.55-0.71,4.97-18.28,4.08-20.59
				c-0.89-2.31-2.84-12.19-2.84-12.19H1282.09z"/>
			<path class="st26" d="M1300.49,1729.02c-0.96-3.68-2.25-10.22-2.25-10.22h-16.15c0,0-1.96,10.07-1.79,13.33
				C1286.22,1728.82,1293.85,1727.64,1300.49,1729.02z"/>
			<polygon class="st27" points="1346.69,1496.46 1348.42,1509.55 1338.94,1513.17 1340.96,1493.32 			"/>
			<g>
				<path class="st13" d="M1346.14,1493.32c1.7-7.93,2.85-17.29,1.98-32.12c-0.94-16.02-13.35-19.18-13.35-19.18
					c-7.29,9.18-5.85,31.05-2.9,49.57C1336.62,1492.25,1341.38,1492.82,1346.14,1493.32z"/>
				<path class="st13" d="M1348.1,1496.52l-18.25-0.84c-0.82-0.04-1.5-0.67-1.58-1.49l-0.51-5.06c-0.1-1.01,0.72-1.88,1.73-1.83
					l19.06,0.88c0.93,0.04,1.64,0.83,1.58,1.76l-0.29,5.02C1349.79,1495.87,1349.01,1496.56,1348.1,1496.52z"/>
				<path d="M1280.62,1719.15c0,0,1.97-74.54,1.97-82.47c0-7.94-8.35-61.15-0.71-85.54l56.17-3.17c0,0,2.97,33.17,2.97,35.02
					c0,2.89-8.78,81.3-7.67,118.58c-6.89,3.99-14.38,3.31-22.21,0.08c0,0-0.92-49.05,3.5-68.31c0.22-11.6-0.68-37.69-0.68-37.69
					s-7.66,34.95-8.47,43.09c-0.81,8.14-5.23,81.32-5.23,81.32S1287.63,1722.25,1280.62,1719.15z"/>
				<path class="st13" d="M1266.16,1496.18c0,0-2.67-9.52,4.54-24.71c4.13-8.71,15.86-16,29.97-22.86
					c26.91-13.08,37.41-9.76,40.97,2.95c1.66,5.92,3.17,28.38,1.43,40.79c-2.85,20.33-4.02,53.98-2.27,66.7
					c0.35,2.53-7.27,8.88-23.1,12.34c-11.48,2.51-37.61,1.63-40.17-9l1.5-61.78L1266.16,1496.18z"/>
				<path class="st13" d="M1273.54,1554.19c1.39-4.32,3.18-8.53,4.95-12.64c1.01-2.34,2.82-11.69,3.94-13.96
					c5.53-11.22-3.86-12.73,8.79-23.95c4.67-4.14,2.95-11.71,2.95-11.71c-4.76,0.63-3.25-14.87-3.73-17.31
					c-0.49-2.44-4.58-11.7-4.58-11.7s-0.48,8.86,2.82,17.41c3.83,9.94-5.95,14.62-5.95,14.62l-9.11,5.68
					c-1.01,5.71-0.87,11.61-1.38,17.37c-0.53,5.97-1.18,11.94-1.46,17.93c-0.28,6.01,0.07,11.9,2.3,17.55
					C1273.23,1553.87,1273.39,1554.08,1273.54,1554.19z"/>
				<path class="st27" d="M1318.88,1456.15l-16.52-0.31v-23.55h19.96l0.95,19.45C1323.28,1454.18,1321.31,1456.15,1318.88,1456.15z"
					/>
				<path class="st28" d="M1304.28,1432.3c0,10.02,6.38,18.93,15.87,22.16l0,0c2.01,0.68,4.09-0.81,4.09-2.93v-19.22H1304.28z"/>
				<path class="st13" d="M1317.58,1456.12c0,0-11.85-3.12-15.25-9.92c0,0-4.74,1.62-11.12,7.3c0,0,11.28,9.32,21.62,11.7
					c0.86,0.2,1.7-0.41,1.77-1.28C1314.87,1460.48,1314.76,1458.48,1317.58,1456.12z"/>
				<path class="st13" d="M1322.11,1454.74c0,0,4.61,1.17,6.51,5.6c0.49,1.13,2.08,1.16,2.6,0.04c0.76-1.67,0.22-14.17-2.67-19.1
					c-1.39-2.38-3.28,3.41-4.98,3.74C1324.44,1449.53,1324.25,1452.21,1322.11,1454.74z"/>
				<path class="st27" d="M1332.35,1422.77c-0.96,14.51-3.7,25.83-11.14,25.83c-11.04,0-18.84-11.6-18.84-26.14
					c0-14.54,0.63-22.47,11.67-22.47S1333.3,1408.53,1332.35,1422.77z"/>
				<path class="st29" d="M1302.37,1442.67c0,0-0.23-7.25,1.63-16.83c1.07-5.51,1.39-8.59,6.61-8.51c1.43,0.02,12.26,3.1,14.92,2.77
					c3.43-0.42,6.1-6.66,6.81-1.9c0,0,3.02-3.68-0.47-11.45c-2.38-5.3-27.65-14.9-35.58,7.62
					C1291.57,1427.8,1300.9,1437.99,1302.37,1442.67z"/>
				<path class="st27" d="M1306.63,1429.47c0,2.7,0.12,5.39-1.98,5.39c-2.11,0-4.76-3.39-4.76-6.09c0-2.7,0.82-4.19,2.93-4.19
					S1306.63,1426.77,1306.63,1429.47z"/>
				<path class="st27" d="M1267.17,1496.52c0,0-3.96,37.88-3.55,42.36c0.41,4.48,16.48,35.2,27.47,45.99c0,0,6.31-1.02,6.31-5.29
					c0-3.25-11.24-26.31-16.63-37.17c-1.83-3.69-2.48-7.85-1.88-11.92l4.72-31.69L1267.17,1496.52z"/>
				<path class="st29" d="M1307.66,1417.71c0,0-2.26,4.52-0.74,11.8c0,0-4.76-4.88-4.41-7
					C1302.86,1420.39,1304.46,1415.79,1307.66,1417.71z"/>
				<path class="st13" d="M1284.26,1503.63l-18.08-2.67c-0.82-0.12-1.42-0.82-1.42-1.64v-5.09c0-1.02,0.9-1.79,1.91-1.65l18.87,2.79
					c0.92,0.14,1.55,0.99,1.4,1.91l-0.79,4.97C1286,1503.15,1285.16,1503.76,1284.26,1503.63z"/>
				<path class="st13" d="M1293.92,1470.55c0,0-2.78,11.64-0.9,15.71C1293.02,1486.27,1295.76,1482.39,1293.92,1470.55z"/>
				<path d="M1295.89,1572.17c0,0,0.36,9.87-9.84,17.06c0,0,9.2-1.34,13.38-7.69C1303.6,1575.18,1295.89,1572.17,1295.89,1572.17z"
					/>
			</g>
			<path d="M1318.76,1571.14v14.03c0,2.23-1.81,4.05-4.05,4.05v-17.31C1316.71,1571.58,1317.55,1571.43,1318.76,1571.14z"/>
			<g>
				<polygon class="st15" points="1324.69,1516.65 1366.74,1492.41 1370.78,1494.83 1328.73,1519.05 				"/>
				<polygon class="st4" points="1311.14,1550.25 1353.2,1526.01 1370.78,1494.82 1328.73,1519.06 				"/>
				<polygon class="st30" points="1311.14,1550.25 1307.1,1547.84 1324.69,1516.65 1328.73,1519.06 				"/>
			</g>
			<path class="st27" d="M1335.15,1536.41c0,0,5.45,0.29,10.14-1.14c4.7-1.43,16.5-7.49,13.57-19.82c0,0-1.66,0.1-3.3,4.27
				c-1.63,4.17-2.94,4.92-7.83,5.74c-4.89,0.82-11.65,3.72-7.18,4.08c4.07,0.33,5.67-0.47,5.78,0.27
				C1339.65,1534.4,1333.18,1534.69,1335.15,1536.41z"/>
		</g>
		<path class="st15" d="M1687.76,1288.3c0.97,11.54-15.72,25.25-37.28,30.62c-21.56,5.37-39.82,0.36-40.78-11.18
			c-0.97-11.54,15.72-25.25,37.28-30.62C1668.53,1271.74,1686.79,1276.75,1687.76,1288.3z"/>
		<g>
			<g>
				<g>
					<g>
						<path d="M1617.12,1300.48c1.69,1.43,14.66,11.24,23.83,12.77c5.04,0.84,8.18-1.07,9.99-3.15c1.59-1.84,2.2-8.27,0.3-9.8
							c-2.5-2.02-7.95-4.21-10.6-5.21c-6.64-2.51-18.05-5.19-24.07-2.51C1615.08,1293.25,1613.71,1297.61,1617.12,1300.48z"/>
						<path d="M1648.09,1285.66c1.69,1.43,14.66,11.24,23.83,12.77c5.04,0.84,8.18-1.07,9.99-3.15c1.59-1.84,2.2-8.27,0.3-9.8
							c-2.5-2.02-7.95-4.21-10.6-5.21c-6.64-2.51-18.05-5.19-24.07-2.51C1646.05,1278.42,1644.68,1282.78,1648.09,1285.66z"/>
						<g>
							<path d="M1635.24,1305.85c-1.82-0.76-2.98-2.58-3.05-4.55c-0.39-10.61-1.71-54.3-1.71-60.79c0-5.37-5.51-61.06-3.79-81.35
								c0.56-6.57,4.18-18.77,6.32-25.6l55.93-3.48c0,0,11.24,13.56,1.7,45.3c-0.49,13.29-1.87,28.79-4.86,45.53
								c-1.21,22.65-3.12,51.08-3.06,65.65c0.01,2.08-1.24,3.99-3.18,4.74c-5.41,2.11-12.01,1.25-16.27-2.37
								c-0.98-0.83-1.44-2.12-1.3-3.39c0.75-7,3.07-39.04,0.11-59.25c0.21-11.1,1.9-50.06,1.9-50.06s-8.7,54.6-9.48,62.39
								c-0.67,6.7-2.42,52.55-2.9,63.32c-0.08,1.79-1.26,3.31-2.96,3.86C1645.46,1306.82,1640.13,1307.9,1635.24,1305.85z"/>
						</g>
					</g>
				</g>
			</g>
			<path class="st13" d="M1690.6,1057.03c0,0,5.3-72.98,4.73-84.59c-0.26-5.25-7.14-41.6-9.23-52.5c-0.48-2.47-3.32-3.74-5.42-2.34
				c-3.45,2.3-5.17,7.63-5.14,14.28c0.03,5.21,1.99,46.22,1.99,46.22l-9.41,63.18L1690.6,1057.03z"/>
			<path class="st22" d="M1596.4,949.71c0,0-6.09-1.03-6-4.75c0.06-2.37-0.58-8.03,5.32-13.93c1.27-1.27,3.33-2.74,4.96-2
				c1.08,0.49,0.23,3.94,1.11,5.03c1.52,1.89,1.82-2.64,3.4-2.37c2.65,0.45,2.8,11.78,1.87,13.65
				C1606.13,947.22,1596.4,949.71,1596.4,949.71z"/>
			<path class="st31" d="M1641.11,1009.28c0.81,12.29,3.14,21.88,9.44,21.88c9.35,0,15.96-9.83,15.96-22.14
				c0-12.31-0.54-19.03-9.89-19.03S1640.31,997.21,1641.11,1009.28z"/>
			<path class="st32" d="M1642.79,1005.96c-0.02-4.63,1.37-14.31,11.2-15.73c7.62-1.1,20.37,0.11,20.94,17.18
				c-10.38,5.78-15.79,22.3-25.46,18.55C1649.24,1022.83,1642.88,1023.94,1642.79,1005.96z"/>
			<path class="st31" d="M1648.17,1035.15c0,0,7.32,2.8,11.92,2.91c5.71,0.14,11.41-4.02,10.75-9.69
				c-0.59-5.05-13.13-5.77-20.15-1.37C1649.51,1027.72,1648.98,1034.53,1648.17,1035.15z"/>
			<path class="st33" d="M1691.35,1043.11c-3.5-12.47-14.09-21.75-40.49-8.91c-0.87,0.42-1.73,0.85-2.58,1.27
				c0.11-0.2,0.22-0.41,0.32-0.6c-3.07,1.84-8.86,5.77-14.31-1.84c-8.29-11.58-17.58-29.24-17.58-29.24l-9.42-57.35
				c-0.41-2.65-1.66-5.71-4.44-5.53c-3.73,0.25-6.63,2.58-6.45,8.79c0,0-1.19,56.58,2.42,67.39c2.98,8.95,21.17,44.2,27.37,56.11
				l3.43,12.02l-1.48,48.78c2.52,10.43,28.17,11.29,39.43,8.83c15.54-3.4,22.39-9.62,22.67-12.11
				C1692.66,1109.62,1692.98,1048.92,1691.35,1043.11z"/>
			<path d="M1658.49,1167.21l-2.21,0.82c-3.66,1.36-6.64-0.51-6.64-4.18v-10.18l-2.93,1.09v14.22c0,3.66,2.97,5.54,6.64,4.18
				l2.21-0.82c3.12-1.16,5.62-4.28,6.33-7.45C1660.88,1165.87,1659.76,1166.74,1658.49,1167.21z"/>
			<path d="M1690.93,1158.42l-2.21,0.82c-3.66,1.36-6.64-0.51-6.64-4.18v-10.88l-2.08,0.77v14.22c0,3.66,2.97,5.54,6.64,4.18
				l2.21-0.82c2.25-0.83,4.16-2.7,5.33-4.85c0.05-0.54,0.1-1.09,0.13-1.62C1693.31,1157.06,1692.2,1157.95,1690.93,1158.42z"/>
			<g>
				<defs>
					<path id="SVGID_00000165951189889351712670000009234188398606940854_" d="M1691.07,1037.1c-3.5-12.47-13.81-15.73-40.21-2.89
						c-0.87,0.42-1.73,0.85-2.58,1.27c0.11-0.2,0.22-0.41,0.32-0.6c-3.07,1.84-8.86,5.77-14.31-1.84
						c-8.29-11.58-17.58-29.24-17.58-29.24l-8.7-62.22c-0.41-2.65-3.22-4.24-5.67-3.15c-3.42,1.52-7.58,4.27-8.92,8.97
						c0,0,1.8,58.89,5.41,69.71c2.98,8.95,21.17,44.2,27.37,56.11l3.43,12.02l-1.48,48.78c2.52,10.43,28.17,11.29,39.43,8.83
						c15.54-3.4,22.39-9.62,22.67-12.11C1692.66,1109.62,1692.7,1042.9,1691.07,1037.1z"/>
				</defs>
				<use xlink:href="#SVGID_00000165951189889351712670000009234188398606940854_"  style="overflow:visible;fill:#00558C;"/>
				<clipPath id="SVGID_00000141431122031922719460000001985869743211802769_">
					<use xlink:href="#SVGID_00000165951189889351712670000009234188398606940854_"  style="overflow:visible;"/>
				</clipPath>
				<path style="clip-path:url(#SVGID_00000141431122031922719460000001985869743211802769_);fill:#00558C;" d="M1595.17,1010.45
					c0,0,9.66,15.61,13.75,20.44c4.09,4.83,22.69,36.68,25.92,43.88c7.2,16.04,3.44,70.61,3.44,70.61l-26.76-14.86L1595.17,1010.45z
					"/>
			</g>
			<path class="st29" d="M1660.45,1033.13c5.28,4.15,6.78-2.73,8.73-4.71c9.85-9.97,8.02-21.32,5.44-28.16
				c-3.57-9.47-13.96-13.82-22.09-11.75c-9.64,2.45-14.78,3.3-14.76,7.94c0.04,8.24,9.64,14.89,11.59,17.86
				C1651.51,1016.4,1658.2,1031.37,1660.45,1033.13z"/>
			<path class="st31" d="M1647.63,1016.3c0,3.02-0.14,6.02,2.22,6.02c2.35,0,5.32-3.79,5.32-6.81s-0.92-4.68-3.27-4.68
				C1649.54,1010.84,1647.63,1013.28,1647.63,1016.3z"/>
		</g>
	</g>
	<g>
		<path class="st35" d="M584.81,1144.53c1.34-3.5,2.51-6.54,3.71-9.59c3.87-9.74,7.79-19.46,11.54-29.21
			c0.55-1.46,0.72-3.35,0.31-4.6c-14.32-45.12,17.03-102.73,64.49-117.53c43.1-13.42,75.3,15.64,75.42,57.15
			c0.11,43.29-31.98,86.4-71.82,96.36c-15.83,3.92-30.11,2.29-42.92-4.5c-1.14-0.62-2.87-0.7-4.26-0.26
			C601.77,1138.76,588.71,1143.47,584.81,1144.53z M604.14,1125.32c7.35-2.48,14.12-4.7,20.85-7.12c1.9-0.66,3.25-0.45,4.69,0.49
			c10.9,7.11,23.45,9.25,37.75,5.88c32.94-7.73,60.23-42.73,61.03-78.25c0.82-36.82-26.22-59.83-60.06-51.08
			c-40.94,10.61-69.88,61.52-56.42,99.6c1.49,4.22,1.52,7.77-0.68,12.49C608.67,1113.03,606.67,1118.91,604.14,1125.32z"/>
		<path class="st35" d="M680.94,1096.54c-13.69,0.3-33.69-10.57-44.05-38.96c-3.68-10.09-1.02-22.02,8.1-30.65
			c3.08-2.93,6.29-2.46,9.3-2.06c0.74,0.08,1.33,1.34,1.56,2.29c1.19,4.99,2.35,9.99,3.25,15.12c0.48,2.71-1.63,5.41-5.92,10.24
			c-1.37,1.52-1.82,2.89-1.2,4.53c4.03,10.63,10.85,18.09,20.73,22.1c1.45,0.58,2.69,0.09,3.9-1.35c6.86-8.06,7.79-10.36,10.5-8.95
			c13.04,6.77,14.1,7.02,13.88,8.84C699.31,1091.14,687.53,1096.68,680.94,1096.54z"/>
	</g>
	<g>
		<path class="st16" d="M1213.54,361.4l-73.54,45.76c-6.64,4.13-12.03,0.46-12.04-8.2l-0.08-132.13
			c-0.01-8.66,5.38-19.03,12.02-23.17l73.54-45.76c6.64-4.13,12.03-0.46,12.04,8.2l0.08,132.13
			C1225.56,346.89,1220.18,357.26,1213.54,361.4z"/>
		<g>
			<path class="st36" d="M1210.47,217.87l-65.99,41.06c-2.39,1.49-4.35,5.26-4.34,8.37v0c0,3.12,1.96,4.45,4.35,2.96l65.99-41.06
				c2.39-1.49,4.35-5.26,4.34-8.37v0C1214.82,217.71,1212.86,216.38,1210.47,217.87z"/>
			<path class="st36" d="M1210.49,241.21l-65.99,41.06c-2.39,1.49-4.35,5.26-4.34,8.37c0,3.12,1.96,4.45,4.35,2.96l65.99-41.06
				c2.39-1.49,4.35-5.26,4.34-8.37C1214.83,241.05,1212.88,239.72,1210.49,241.21z"/>
			<path class="st36" d="M1210.5,264.55l-65.99,41.06c-2.39,1.49-4.35,5.26-4.34,8.37c0,3.12,1.96,4.45,4.35,2.96l65.99-41.06
				c2.39-1.49,4.35-5.26,4.34-8.37C1214.85,264.4,1212.89,263.06,1210.5,264.55z"/>
			<path class="st36" d="M1210.51,288.56l-65.99,41.06c-2.39,1.49-4.35,5.26-4.34,8.37v0c0,3.12,1.96,4.45,4.35,2.96l65.99-41.06
				c2.39-1.49,4.35-5.26,4.34-8.37v0C1214.86,288.41,1212.9,287.07,1210.51,288.56z"/>
			<path class="st36" d="M1210.53,311.9l-65.99,41.06c-2.39,1.49-4.35,5.26-4.34,8.37c0,3.12,1.96,4.45,4.35,2.96l65.99-41.06
				c2.39-1.49,4.35-5.26,4.34-8.37C1214.88,311.75,1212.92,310.42,1210.53,311.9z"/>
			<path class="st36" d="M1194.53,345.21l-50.97,31.71c-1.85,1.15-3.36,4.64-3.36,7.76c0,3.12,1.51,4.73,3.36,3.58l50.97-31.71
				c1.85-1.15,3.36-4.64,3.36-7.76C1197.89,345.67,1196.38,344.06,1194.53,345.21z"/>
		</g>
	</g>
	<g>
		<path class="st37" d="M2040.08,411.04l-120.28,70.02c-3.33,1.94-6.01,0.77-5.98-2.61l1.28-137.27c0.03-3.38,2.76-7.7,6.09-9.64
			l120.28-70.02c3.33-1.94,6.01-0.77,5.98,2.61l-1.28,137.27C2046.14,404.78,2043.41,409.1,2040.08,411.04z"/>
		<g>
			<path d="M1931.77,400.21c-1.16,0.51-1.77,0.04-2.44-0.58c0.8-1.4,0.91-3,2.51-4.18C1931.82,397.03,1931.79,398.62,1931.77,400.21
				z"/>
			<path d="M1931.84,392.04c-1.08,0.64-2.17,1.27-3.25,1.91c0.94-1.72,1.87-3.43,3.29-6.03
				C1931.86,389.8,1931.85,390.92,1931.84,392.04z"/>
			<g>
				<path class="st38" d="M1931.84,392.04c0,1.14,0,2.27,0,3.41c-1.61,1.18-1.72,2.78-2.51,4.18c0.67,0.62,1.28,1.1,2.44,0.58
					c3.5,0.48,6.99,0.96,10.49,1.44c1,0.14,2.14-0.42,3.33-1.12c23.23-13.54,46.45-27.07,69.68-40.58c1.2-0.7,2.27-1.5,3.3-2.84
					c3.17-4.11,6.35-8.22,9.63-12.22c1.99-2.43,2.8-4.54,2.7-6.78c-0.08-1.8,0.01-3.71,0.04-6.22c1.71,0.87,3.41,0.61,4.89,0.8
					c1.56,0.21,1.54,2.04,1.52,3.81c-0.17,17.36-0.32,34.7-0.48,52.05c-0.03,3.65-0.04,7.29-0.11,10.96
					c-0.07,3.66-1.6,6.08-5.08,8.18c-34.02,20.5-68.04,39.88-102.06,59.79c-4.7,2.75-6.35,2.03-6.3-2.7
					c0.19-20.73,0.38-41.46,0.59-62.2c0.04-3.68,1.07-5.54,4.69-8.64C1929.67,393.31,1930.76,392.67,1931.84,392.04z
					 M2009.67,367.88c-19.7,11.47-39.15,22.79-59.09,34.39c0.69,0.21,0.93,0.33,1.22,0.36c9.16,0.85,18.34,1.66,27.48,2.55
					c1.48,0.14,2.58-0.91,3.89-2.6c7.47-9.64,14.99-19.23,22.46-28.87C2007,371.97,2008.62,370.32,2009.67,367.88z"/>
				<path class="st38" d="M2003.78,316.98c-15.28,8.89-30.14,17.54-45.52,26.5c3.15-5.31,5.99-10.08,8.83-14.87
					c3.23-5.45,6.43-10.9,9.7-16.34c3.04-5.05,5.99-6.76,8.96-5.16C1991.68,310.3,1997.56,313.57,2003.78,316.98z"/>
				<path class="st38" d="M1981.99,365.81c12.05-7.02,24.1-14.01,36.15-21.07c1.72-1.01,2.87-1.58,2.89,0.71
					c0.03,2.38-1.22,3.04-2.89,4.01c-24.28,14.1-48.56,28.23-72.84,42.38c-1.67,0.98-2.95,1.75-2.94-0.61
					c0.01-2.33,1.22-3.09,2.93-4.08C1957.53,380.06,1969.76,372.93,1981.99,365.81z"/>
				<path class="st38" d="M1981.92,339.14c12.14-7.07,24.28-14.07,36.43-21.26c2.53-1.5,3.12-0.88,2.89,1.51
					c-0.12,1.26-0.62,1.97-1.71,2.54c-0.36,0.19-0.72,0.42-1.08,0.63c-24.28,14.14-48.57,28.28-72.85,42.39
					c-1.25,0.73-2.8,2.12-2.95,0c-0.15-2.1,0.51-3.32,2.85-4.66C1957.63,353.33,1969.77,346.21,1981.92,339.14z"/>
				<path class="st38" d="M1943.15,379.42c-0.5-1.06-0.36-2.38-0.1-3.74c0.82-1.2,1.76-1.49,2.63-2
					c24.13-14.06,48.26-28.1,72.4-42.15c1.57-0.91,3.13-2.04,3.04,0.45c-0.06,1.6-0.41,2.52-2.14,3.52
					c-24.85,14.42-49.7,28.89-74.56,43.35C1944,379.11,1943.57,379.24,1943.15,379.42z"/>
				<path class="st39" d="M2009.67,367.88c-1.05,2.44-2.67,4.08-4.03,5.83c-7.47,9.64-15,19.23-22.46,28.87
					c-1.31,1.69-2.41,2.75-3.89,2.6c-9.14-0.89-18.32-1.7-27.48-2.55c-0.29-0.03-0.53-0.15-1.22-0.36
					C1970.52,390.67,1989.97,379.35,2009.67,367.88z"/>
			</g>
		</g>
	</g>
</g>
</svg>
