<?xml version="1.0" encoding="utf-8"?>
<!-- Generator: Adobe Illustrator 27.2.0, SVG Export Plug-In . SVG Version: 6.00 Build 0)  -->
<svg version="1.1" id="Layer_1" xmlns="http://www.w3.org/2000/svg" xmlns:xlink="http://www.w3.org/1999/xlink" x="0px" y="0px"
	 viewBox="0 0 2880 1800" style="enable-background:new 0 0 2880 1800;" xml:space="preserve">
<style type="text/css">
	.st0{fill:none;stroke:#A8D6F2;stroke-width:2.5584;stroke-linecap:round;stroke-linejoin:round;stroke-miterlimit:10;}
	.st1{fill:none;stroke:#37AE96;stroke-width:15.3507;stroke-linecap:round;stroke-linejoin:round;stroke-miterlimit:10;}
	.st2{fill:none;stroke:#515254;stroke-width:3.8377;stroke-linecap:round;stroke-linejoin:round;stroke-miterlimit:10;}
	.st3{fill:none;stroke:#363392;stroke-width:5.1169;stroke-linecap:round;stroke-miterlimit:10;stroke-dasharray:25.3282,25.3282;}
	.st4{fill:none;stroke:#363392;stroke-width:5.1169;stroke-linecap:round;stroke-miterlimit:10;stroke-dasharray:25.8705,25.8705;}
	.st5{fill:#C2E6E4;}
	.st6{fill:#00558C;}
	.st7{fill:#FFFFFF;}
	.st8{fill:#78B5DA;}
	.st9{fill:none;stroke:#FFFFFF;stroke-width:5.1169;stroke-linecap:round;stroke-linejoin:round;stroke-miterlimit:10;}
	.st10{fill:#E6F0D1;}
	.st11{fill:#84C341;}
	.st12{fill:none;stroke:#311513;stroke-width:10.2338;stroke-linecap:round;stroke-linejoin:round;stroke-miterlimit:10;}
	.st13{fill:none;stroke:#97CD84;stroke-width:5.1169;stroke-linecap:round;stroke-linejoin:round;stroke-miterlimit:10;}
	.st14{fill:#545456;}
	.st15{fill:#666666;}
	.st16{fill:#333333;}
	.st17{fill:#CCCED8;}
	.st18{fill:#D29C78;}
	.st19{fill:#1C437D;}
	.st20{fill:#28387C;}
	.st21{fill:url(#SVGID_1_);}
	.st22{fill:url(#SVGID_00000037670733557052936340000000553663405820631999_);}
	.st23{fill:url(#SVGID_00000178883620008719429190000001138686371657919639_);}
	.st24{fill:url(#SVGID_00000079482322441301997310000006700864777542219671_);}
	.st25{fill:url(#SVGID_00000177475019386356705670000009295449243347114372_);}
	.st26{fill:url(#SVGID_00000177471126092205676260000017976122068623445391_);}
	.st27{fill:url(#SVGID_00000008130626099136977810000012582044486363509679_);}
	.st28{opacity:0.7;fill:#FFFFFF;}
	.st29{opacity:0.78;fill:#FFFFFF;}
	.st30{fill:url(#SVGID_00000085219618445008108220000014766060953288152981_);}
	.st31{fill:url(#SVGID_00000037676697307168974620000010702325377607632270_);}
	.st32{fill:url(#SVGID_00000062168511812595243340000007382237292090147990_);}
	.st33{fill:url(#SVGID_00000000216807178269926540000013386013716776666244_);}
	.st34{fill:url(#SVGID_00000173871512254466011910000001319345368102040194_);}
	.st35{fill:url(#SVGID_00000031200650259172575090000009692159231532193679_);}
	.st36{fill:url(#SVGID_00000074413747582596504760000018163211871736764327_);}
</style>
<g>
	<g>
		<path class="st0" d="M1128.15,416.59H998.78c-1.63,0-2.96-1.33-2.96-2.96v-59.05c0-1.63,1.33-2.96,2.96-2.96h129.37
			c1.63,0,2.96,1.33,2.96,2.96v59.05C1131.11,415.27,1129.79,416.59,1128.15,416.59z"/>
		<line class="st0" x1="1014.55" y1="369.01" x2="1046.48" y2="369.01"/>
		<path class="st0" d="M1013.78,382.96c1.27,0,2.55,0,3.82,0h95.56"/>
		<path class="st0" d="M1013.78,395.77c1.27,0,2.55,0,3.82,0h95.56"/>
	</g>
	<g>
		<path class="st1" d="M2537.15,652.7h-320.79c-2.48,0-4.49-2.01-4.49-4.49V498.82c0-2.48,2.01-4.49,4.49-4.49h320.79
			c2.48,0,4.49,2.01,4.49,4.49v149.39C2541.64,650.69,2539.63,652.7,2537.15,652.7z"/>
		<line class="st1" x1="2257.52" y1="536.72" x2="2335.35" y2="536.72"/>
		<path class="st1" d="M2255.66,570.72c3.11,0,6.21,0,9.32,0h232.92"/>
		<path class="st1" d="M2255.66,601.93c3.11,0,6.21,0,9.32,0h232.92"/>
	</g>
	<g>
		<path class="st2" d="M2037.97,139.16c-6.21,15.57-23.86,23.15-39.43,16.95c-15.57-6.21-23.15-23.86-16.95-39.43
			c6.21-15.57,23.86-23.15,39.43-16.95C2036.59,105.94,2044.18,123.6,2037.97,139.16z"/>
		<path class="st2" d="M2068.7,185.73l-9.34-20.19c3.31-4.37,6.15-9.21,8.28-14.55c2.31-5.79,3.66-11.73,4.18-17.64l20.99-9.61
			l-3.5-17.94l-22.12-2c-4.47-10.64-11.9-20-21.68-26.84l2.18-23.03L2030.39,48l-12.82,18.19c-11.81-1.5-23.58,0.45-34.05,5.33
			l-18.87-13.41l-13.78,12l9.34,20.19c-3.31,4.37-6.15,9.21-8.28,14.55c-2.31,5.79-3.66,11.73-4.18,17.64l-20.99,9.61l3.5,17.94
			l22.12,2c4.47,10.64,11.9,20,21.68,26.84l-2.18,23.03l17.29,5.93l12.82-18.19c11.81,1.5,23.58-0.45,34.05-5.33l18.87,13.41
			L2068.7,185.73z"/>
	</g>
</g>
<g>
	<g>
		
			<ellipse transform="matrix(0.7071 -0.7071 0.7071 0.7071 -200.2063 822.8482)" class="st3" cx="893.16" cy="653.09" rx="201.55" ry="201.55"/>
	</g>
	<g>
		
			<ellipse transform="matrix(0.7071 -0.7071 0.7071 0.7071 241.001 1305.2428)" class="st4" cx="1696.07" cy="361.71" rx="247.03" ry="247.04"/>
	</g>
	<g>
		<g>
			<path class="st5" d="M1543.04,276.46l-0.82,48.39l-6.08,355.95c-0.41,23.36-19.67,42-43.06,41.66l-680-10.48
				c-22.78-0.34-41.18-18.61-41.73-41.39l-8.84-366.09l-1.33-55.45c-0.58-24.48,19.63-44.36,44.08-43.37l697.07,27.73
				C1525.35,234.29,1543.41,253.44,1543.04,276.46z"/>
			<path class="st6" d="M1542.85,276.52l-0.82,48.39l-779.71-20.35l-1.33-55.45c-0.58-24.48,19.63-44.36,44.08-43.37l697.07,27.73
				C1525.16,234.35,1543.23,253.51,1542.85,276.52z"/>
		</g>
		<g>
			<g>
				<path class="st7" d="M1012.36,373.75l-22.3,125.79l-19.77,126.24c6.45,1,13.05,1.53,19.77,1.53
					c70.57,0,127.77-57.2,127.77-127.77C1117.83,436.59,1072.29,384.31,1012.36,373.75z"/>
				<path class="st6" d="M927.32,388.25l62.74,111.29l22.3-125.79c-7.24-1.28-14.69-1.98-22.3-1.98
					C967.25,371.77,945.86,377.78,927.32,388.25z"/>
				<path class="st8" d="M927.32,388.25c-38.81,21.93-65.03,63.54-65.03,111.29c0,63.84,46.82,116.74,108,126.24l19.77-126.24
					L927.32,388.25z"/>
			</g>
			<circle class="st7" cx="1185.06" cy="408.94" r="10.46"/>
			<line class="st9" x1="1217.61" y1="408.94" x2="1470.44" y2="408.94"/>
			<circle class="st7" cx="1185.06" cy="464.11" r="10.46"/>
			<line class="st9" x1="1217.61" y1="464.11" x2="1470.44" y2="464.11"/>
			<circle class="st7" cx="1185.06" cy="519.28" r="10.46"/>
			<line class="st9" x1="1217.61" y1="519.28" x2="1470.44" y2="519.28"/>
			<path class="st7" d="M1195.52,574.45c0,5.78-4.68,10.46-10.46,10.46c-5.78,0-10.46-4.68-10.46-10.46
				c0-5.78,4.68-10.46,10.46-10.46C1190.84,563.99,1195.52,568.67,1195.52,574.45z"/>
			<line class="st9" x1="1217.61" y1="574.45" x2="1470.44" y2="574.45"/>
		</g>
	</g>
	<g>
		<path class="st6" d="M1828.67,227.98c-0.23-10.55-8.84-18.98-19.39-18.98h-191.52c-10.81,0-19.53,8.84-19.39,19.64l2.3,180.2
			c0.14,10.93,9.27,19.58,20.19,19.13l192.89-7.94c10.55-0.43,18.82-9.23,18.59-19.79L1828.67,227.98z"/>
		<polyline class="st9" points="1805.81,388.93 1787.85,389.61 1629.22,395.68 1629.22,283.31 1629.22,237.75 		"/>
		<path class="st7" d="M1787.87,266.84l-0.02,122.77l-158.63,6.07V283.31c7.61-1.87,15.98-0.81,22.54,3.52
			c7.52,4.97,12.14,13.13,17.39,20.42c5.25,7.32,12.18,14.47,21.11,15.54c7.8,0.95,15.54-3.1,21.02-8.75
			c5.47-5.63,9.12-12.77,12.82-19.7c3.72-6.95,7.67-13.96,13.59-19.13c6.62-5.78,15.28-8.86,23.99-9.87
			C1770.39,264.36,1779.23,265.3,1787.87,266.84z"/>
	</g>
	<g>
		<path class="st10" d="M1117.37,754.26l-436.7-6.64c-18.08-0.28-33.18,13.73-34.25,31.79l-10.69,180.04
			c-1.14,19.17,13.91,35.44,33.11,35.79l445.05,8.24c18.74,0.35,34.18-14.62,34.42-33.35l2.33-181.64
			C1150.89,769.85,1136,754.54,1117.37,754.26z"/>
		<g>
			<circle class="st11" cx="760.98" cy="880.09" r="79.55"/>
			<circle class="st7" cx="760.98" cy="880.09" r="58.61"/>
			<circle class="st11" cx="760.98" cy="880.09" r="38.88"/>
			<path class="st7" d="M781.27,880.09c0,11.21-9.08,20.29-20.29,20.29c-11.21,0-20.29-9.08-20.29-20.29s9.08-20.29,20.29-20.29
				C772.19,859.8,781.27,868.89,781.27,880.09z"/>
			<line class="st12" x1="760.98" y1="880.09" x2="832.75" y2="807.09"/>
		</g>
		<g>
			<rect x="893.72" y="802.45" class="st11" width="14.94" height="14.94"/>
			<line class="st13" x1="918.27" y1="809.92" x2="1089.56" y2="809.92"/>
		</g>
		<g>
			<rect x="893.72" y="846.2" class="st11" width="14.94" height="14.94"/>
			<line class="st13" x1="918.27" y1="853.67" x2="1089.56" y2="853.67"/>
		</g>
		<g>
			<rect x="893.72" y="889.96" class="st11" width="14.94" height="14.94"/>
			<line class="st13" x1="918.27" y1="897.43" x2="1089.56" y2="897.43"/>
		</g>
		<g>
			<rect x="893.72" y="933.72" class="st11" width="14.94" height="14.94"/>
			<line class="st13" x1="918.27" y1="941.19" x2="1089.56" y2="941.19"/>
		</g>
	</g>
</g>
<g>
	<g>
		<g>
			<polygon points="1461.03,1092.08 1579.36,1659.12 1589.59,1659.12 1507.11,1090.51 			"/>
			<polygon points="880.05,1092.08 998.38,1659.12 1008.62,1659.12 926.13,1090.51 			"/>
			<polygon points="868.05,1092.08 749.73,1659.12 739.49,1659.12 821.98,1090.51 			"/>
			<polygon points="1449.03,1092.08 1330.71,1659.12 1320.47,1659.12 1402.95,1090.51 			"/>
			<polygon points="767.26,1066.15 1551.35,1066.15 1551.35,1090.51 767.26,1104.09 			"/>
		</g>
		<g id="XMLID_28_">
			<polygon id="XMLID_24_" class="st14" points="1248.75,1053.64 1003.95,1053.64 961.06,894.27 1205.85,894.27 			"/>
			<polygon id="XMLID_26_" class="st15" points="1249.3,1053.64 1242.02,1053.64 1199.13,894.27 1206.4,901.84 			"/>
			<rect id="XMLID_27_" x="1003.95" y="1053.64" class="st16" width="348" height="13.16"/>
			<path id="XMLID_29_" class="st17" d="M1109.34,975.88c2.58,13.89-5.04,26.95-17.02,29.17c-11.98,2.22-23.77-7.24-26.35-21.13
				c-2.58-13.89,5.04-26.95,17.02-29.17C1094.97,952.53,1106.76,961.99,1109.34,975.88z"/>
		</g>
	</g>
</g>
<g id="male_01_00000085250555564526775730000013373817820191052945_">
	<path class="st18" d="M1887.33,659.22c-4.89,46.1,18.34,95.25,47.57,94.9c40.09-0.49,91.94-33.49,96.83-79.59
		s-23.47-86.9-63.35-91.13C1928.51,579.17,1892.22,613.11,1887.33,659.22z"/>
	<g>
		<path d="M2135.81,1720.52c0,0-42.11-4.72-74.94,0c-27.23,17.98-38.97,16.93-38.97,16.93c-11.64,3.04-16.82,19.03-6.73,19.03
			h124.04L2135.81,1720.52z"/>
		<path d="M1934.93,1720.52c0,0-41.39-4.72-74.94,0c-29.99,17.98-41.57,16.93-41.57,16.93c-12.1,3.04-19.74,19.03-9.64,19.03h124.04
			L1934.93,1720.52z"/>
		<polygon class="st18" points="1973.51,808.68 2051.47,782.36 1994.99,664.75 1940.18,691.07 		"/>
		<path class="st19" d="M1896.12,891.18c0,0-60.48,44.31-30.96,91.34c22,35.04,92.42-2.91,92.42-43.68
			C1957.58,902.09,1929.29,880.43,1896.12,891.18z"/>
		<path class="st16" d="M2082.95,1073.61c0,0,14.54,25.21,24.27,75.43c3.46,17.84-0.59,98.55,0.56,234.49
			c28.28,175.78,31.42,351.82,31.42,351.82l-78.34-14.83l-119.92-639.58L2082.95,1073.61z"/>
		<path class="st16" d="M1905.61,1089.91c-15.4,120.68-26.53,229-27.53,308.01l-18.1,322.59l74.49,14.24
			c15.27-100.1,40.68-225.13,44.7-341.1l81.22-302.8L1905.61,1089.91z"/>
		<path class="st19" d="M2106.13,1083.72c-5.16,31.19-7.97,33.3-7.97,33.3l-198.44,4.38c0,0,5.9-31.49,0.91-47.78
			c-0.92-3.01-1.16-12.44,0.17-26.52c1.88-20.2,6.17-49.66,11.92-81.92c12.38-69.33,31.55-151.56,48.43-182.44l86.63-20.79
			c0,0,38.63,39.18,47.14,73.87C2103.44,870.5,2111.3,1052.55,2106.13,1083.72z"/>
		<path class="st18" d="M1990.24,916.28c0,0,23.3,50.19-0.9,63.64c-24.2,13.44-48.4-29.58-48.4-29.58L1990.24,916.28z"/>
		<path class="st19" d="M1894.26,782.52l16.77,108.31l52.2-61.45c0,0,46.91-47.57,84.57-4.63c37.66,42.95-21.14,85.89-21.14,85.89
			s-85.89,69.91-140.73,62.64c-54.84-7.27-20.61-188.72-20.61-188.72L1894.26,782.52z"/>
		<path class="st18" d="M1894.26,782.52l8.46-41.25l-21.57-32.75c0,0-8.03-5.92-10.99,12.26c-5.91,8.46-13.11,14.72-12.26,24.28
			c0.85,9.55,7.42,39.52,7.42,39.52L1894.26,782.52z"/>
		<polygon class="st20" points="2047.77,761.94 2041.63,746.08 1949.86,782.52 1942.65,822.36 		"/>
		<path d="M2021.98,721.73c0,0,29.93-43.09,20.57-94.6c-9.37-51.52-85.71-62.29-85.71-62.29s-79.62-4.68-97.41,76.34
			c8.43,10.77,43.09-7.02,43.09-7.02l56.97,51.99c0,0-0.67-40.75,19.42-30.44c20.09,10.3,14.09,43.09,14.09,43.09
			S2011.72,718.45,2021.98,721.73z"/>
	</g>
</g>
<g>
	<linearGradient id="SVGID_1_" gradientUnits="userSpaceOnUse" x1="1385.59" y1="1034.5365" x2="1282.8986" y2="1899.3009">
		<stop  offset="0" style="stop-color:#F3B62E"/>
		<stop  offset="1" style="stop-color:#F1B01C"/>
	</linearGradient>
	<path class="st21" d="M1460.52,1537.96h-263.3c-2.01,0-3.63-1.63-3.63-3.63v-44.27c0-2.01,1.63-3.63,3.63-3.63h263.3
		c2.01,0,3.63,1.63,3.63,3.63v44.27C1464.15,1536.34,1462.52,1537.96,1460.52,1537.96z"/>
	
		<linearGradient id="SVGID_00000127756988454675621780000017882438225268695719_" gradientUnits="userSpaceOnUse" x1="1392.5157" y1="1035.1644" x2="1289.8243" y2="1899.9286">
		<stop  offset="0" style="stop-color:#F3B62E"/>
		<stop  offset="1" style="stop-color:#F1B01C"/>
	</linearGradient>
	<path style="fill:url(#SVGID_00000127756988454675621780000017882438225268695719_);" d="M1460.73,1595.12h-263.3
		c-2.01,0-3.63-1.63-3.63-3.63v-44.27c0-2.01,1.63-3.63,3.63-3.63h263.3c2.01,0,3.63,1.63,3.63,3.63v44.27
		C1464.36,1593.5,1462.74,1595.12,1460.73,1595.12z"/>
	
		<linearGradient id="SVGID_00000043416977129252998960000007974958713448841915_" gradientUnits="userSpaceOnUse" x1="1399.4414" y1="1035.7921" x2="1296.75" y2="1900.5564">
		<stop  offset="0" style="stop-color:#F3B62E"/>
		<stop  offset="1" style="stop-color:#F1B01C"/>
	</linearGradient>
	<path style="fill:url(#SVGID_00000043416977129252998960000007974958713448841915_);" d="M1460.94,1652.28h-263.3
		c-2.01,0-3.63-1.63-3.63-3.63v-44.27c0-2.01,1.63-3.63,3.63-3.63h263.3c2.01,0,3.63,1.63,3.63,3.63v44.27
		C1464.58,1650.66,1462.95,1652.28,1460.94,1652.28z"/>
	
		<linearGradient id="SVGID_00000165220449892603914340000017414226050243628962_" gradientUnits="userSpaceOnUse" x1="1406.3671" y1="1036.4189" x2="1303.6757" y2="1901.1833">
		<stop  offset="0" style="stop-color:#F3B62E"/>
		<stop  offset="1" style="stop-color:#F1B01C"/>
	</linearGradient>
	<path style="fill:url(#SVGID_00000165220449892603914340000017414226050243628962_);" d="M1461.15,1709.44h-263.3
		c-2.01,0-3.63-1.63-3.63-3.63v-44.27c0-2.01,1.63-3.63,3.63-3.63h263.3c2.01,0,3.63,1.63,3.63,3.63v44.27
		C1464.79,1707.82,1463.16,1709.44,1461.15,1709.44z"/>
	
		<linearGradient id="SVGID_00000024704416276378979350000001990969701849947580_" gradientUnits="userSpaceOnUse" x1="1413.0123" y1="1037.0164" x2="1310.321" y2="1901.7803">
		<stop  offset="0" style="stop-color:#F3B62E"/>
		<stop  offset="1" style="stop-color:#F1B01C"/>
	</linearGradient>
	<path style="fill:url(#SVGID_00000024704416276378979350000001990969701849947580_);" d="M1461.15,1766h-263.3
		c-2.01,0-3.63-1.63-3.63-3.63v-44.27c0-2.01,1.63-3.63,3.63-3.63h263.3c2.01,0,3.63,1.63,3.63,3.63v44.27
		C1464.79,1764.37,1463.16,1766,1461.15,1766z"/>
	<g>
		
			<linearGradient id="SVGID_00000102517368256953257130000017324769706963167412_" gradientUnits="userSpaceOnUse" x1="1129.8579" y1="1549.036" x2="1315.0718" y2="1334.056">
			<stop  offset="0" style="stop-color:#F3B62E"/>
			<stop  offset="1" style="stop-color:#F1B01C"/>
		</linearGradient>
		<circle style="fill:url(#SVGID_00000102517368256953257130000017324769706963167412_);" cx="1318.81" cy="1329.71" r="138.08"/>
		
			<linearGradient id="SVGID_00000078763820641387625100000003642629943964853401_" gradientUnits="userSpaceOnUse" x1="1342.3287" y1="922.1124" x2="1310.0099" y2="1482.2997">
			<stop  offset="0" style="stop-color:#F3B62E"/>
			<stop  offset="1" style="stop-color:#F1B01C"/>
		</linearGradient>
		<circle style="fill:url(#SVGID_00000078763820641387625100000003642629943964853401_);" cx="1318.81" cy="1329.71" r="133.49"/>
		<path class="st28" d="M1208.73,1277.32c-0.46,0-0.93-0.1-1.38-0.33c-1.51-0.76-2.12-2.6-1.35-4.11
			c21.62-42.84,64.85-69.46,112.81-69.46c7.66,0,15.32,0.69,22.78,2.05c1.66,0.3,2.77,1.9,2.46,3.56c-0.3,1.67-1.9,2.77-3.56,2.46
			c-7.1-1.29-14.39-1.95-21.68-1.95c-45.63,0-86.76,25.33-107.34,66.09C1210.93,1276.71,1209.85,1277.32,1208.73,1277.32z"/>
		
			<ellipse transform="matrix(0.991 -0.1342 0.1342 0.991 -166.856 189.3958)" class="st29" cx="1321.72" cy="1332.62" rx="112.98" ry="112.98"/>
		<g>
			
				<linearGradient id="SVGID_00000132767366778233569620000013385628971569448106_" gradientUnits="userSpaceOnUse" x1="1484.1615" y1="982.8065" x2="1409.4287" y2="1146.4102">
				<stop  offset="0" style="stop-color:#F3B62E"/>
				<stop  offset="1" style="stop-color:#F1B01C"/>
			</linearGradient>
			<path style="fill:url(#SVGID_00000132767366778233569620000013385628971569448106_);" d="M1310.63,1416.62v-12.29
				c-12.81-0.51-25.49-3.54-34.49-7.48c-3.21-1.41-4.85-5.01-3.93-8.4l3.12-11.45c1.15-4.2,5.71-6.37,9.73-4.69
				c8.93,3.74,19.96,6.71,31.85,6.71c12.34,0,21.55-4.18,21.55-12.76c0-7.74-7.11-12.34-24.27-16.94
				c-24.48-6.69-42.05-17.36-42.05-38.91c0-19.46,14.23-34.31,38.91-38.28v-12.29c0-3.96,3.21-7.16,7.16-7.16h7.22
				c3.96,0,7.16,3.21,7.16,7.16v11.04c11.86,0.47,20.49,2.5,27.34,4.91c3.51,1.23,5.43,5.01,4.45,8.6l-2.87,10.59
				c-1.11,4.08-5.47,6.32-9.43,4.82c-6.31-2.38-15.22-4.87-26.81-4.87c-14.64,0-18.83,6.07-18.83,11.51
				c0,6.69,8.79,11.3,27.82,17.15c27.2,8.16,38.49,19.45,38.49,39.75c0,18.62-13.81,35.35-40.58,39.54v13.76
				c0,3.96-3.21,7.16-7.16,7.16h-7.22C1313.84,1423.78,1310.63,1420.57,1310.63,1416.62z"/>
		</g>
	</g>
</g>
<g>
	
		<linearGradient id="SVGID_00000083074385118669386450000016242547981823136933_" gradientUnits="userSpaceOnUse" x1="346.8442" y1="1386.1604" x2="569.8695" y2="1386.1604">
		<stop  offset="0" style="stop-color:#81D1E2"/>
		<stop  offset="1" style="stop-color:#6170B4"/>
	</linearGradient>
	<path style="fill:url(#SVGID_00000083074385118669386450000016242547981823136933_);" d="M366.33,1091.45
		c19.23-9.2,38.37,52.02,38.37,52.02c32.69,43.19,78.37-14.27,73.9,50.3c-7.82,112.98,130.04,35.53,66.44,153.48
		c-63.6,117.95,56.16,66.7,16.63,161.81c-39.53,95.11,11.7,208.55-47.76,161.93c0,0-52.37-114.83-106.37-150.36
		c-54-35.53,32.36-77.69,15.46-125.94c-24.54-70.09-83.67-67.34-41.04-142.65C424.6,1176.72,300.96,1122.72,366.33,1091.45z"/>
	<g>
		<path class="st7" d="M532.74,1627.78c-25.78-18.13-55.95-144.47-57.75-219.72c-0.92-38.55-12.32-54.61-22.37-68.78
			c-9.61-13.54-17.91-25.24-13.08-52.09c9.24-51.33-15.05-73.48-15.3-73.7l2.81-3.21c1.09,0.95,26.38,23.8,16.68,77.66
			c-4.51,25.09,2.93,35.59,12.35,48.87c9.89,13.94,22.2,31.29,23.16,71.14c1.93,80.76,32.77,200.05,55.94,216.33L532.74,1627.78z"/>
	</g>
	<g>
		
			<linearGradient id="SVGID_00000089565498326205675410000006646043275655786673_" gradientUnits="userSpaceOnUse" x1="510.4503" y1="1510.6124" x2="712.1384" y2="1510.6124">
			<stop  offset="0" style="stop-color:#81D1E2"/>
			<stop  offset="1" style="stop-color:#6170B4"/>
		</linearGradient>
		<path style="fill:url(#SVGID_00000089565498326205675410000006646043275655786673_);" d="M542.39,1637.15
			c-3.32,0-6.94-0.38-10.9-1.18c-9.94-2.01-16.45-7.25-19.37-15.58c-6.95-19.87,9.15-52.16,22.22-67.72
			c0.21-0.26,22.09-26.99,19.76-64.05c-0.39-6.21-1.03-11.96-1.6-17.03c-1.64-14.67-2.83-25.26,3.47-32.33
			c5.55-6.24,16.26-8.94,35.83-9.03c34.31-0.16,47.87-14.36,58.77-25.78c4.63-4.85,9-9.42,14.31-12.32l0,0
			c17.1-9.33,35.2-10.71,43.06-3.26c3.73,3.53,6.88,10.46,0.7,23.38c-5.64,11.8-12.97,19.27-18.86,25.28
			c-7.91,8.08-13.15,13.42-10.43,24.06c0.64,2.49,1.38,5.02,2.12,7.55c5.29,18.09,11.28,38.59-19.67,52.51
			c-6.57,2.95-12.56,5.3-17.84,7.37c-21.62,8.48-34.66,13.6-49.38,44.68c-2.85,6.02-5.37,11.72-7.8,17.23
			C575.17,1617.24,566.38,1637.14,542.39,1637.15z M666.92,1395.86c-4.74,2.58-8.69,6.72-13.27,11.53
			c-11.46,11.99-25.72,26.93-61.84,27.1c-17.99,0.08-28.06,2.43-32.66,7.6c-5.03,5.66-3.93,15.45-2.42,29.03
			c0.58,5.12,1.23,10.92,1.62,17.23c2.44,38.8-19.8,65.91-20.74,67.05c-12.93,15.4-27.59,46.06-21.46,63.58
			c2.38,6.8,7.83,11.12,16.18,12.81c29.16,5.89,37.21-12.35,50.55-42.58c2.44-5.54,4.97-11.27,7.85-17.34
			c15.44-32.61,29.86-38.27,51.68-46.83c5.24-2.06,11.17-4.39,17.65-7.29c27.57-12.39,22.6-29.41,17.33-47.42
			c-0.76-2.58-1.51-5.15-2.16-7.69c-3.32-12.96,3.23-19.64,11.51-28.1c5.96-6.08,12.72-12.97,18.06-24.14
			c2.8-5.85,5.11-13.8,0.21-18.44C698.56,1385.85,682.19,1387.52,666.92,1395.86L666.92,1395.86z"/>
	</g>
	<g>
		
			<linearGradient id="SVGID_00000036218555809442676630000002187184565160587149_" gradientUnits="userSpaceOnUse" x1="527.6889" y1="1539.9412" x2="679.0691" y2="1539.9412">
			<stop  offset="0" style="stop-color:#81D1E2"/>
			<stop  offset="1" style="stop-color:#6170B4"/>
		</linearGradient>
		<path style="fill:url(#SVGID_00000036218555809442676630000002187184565160587149_);" d="M531.95,1661.76l-4.26-0.23
			c0.21-4,5.58-98.28,43.44-125.88c41.53-30.27,54.63-62.8,60.86-84.64c7.35-25.73,44.75-32.61,46.34-32.89l0.74,4.2
			c-0.36,0.07-36.36,6.7-42.98,29.86c-6.41,22.45-19.86,55.87-62.45,86.92C537.41,1565.51,532,1660.8,531.95,1661.76z"/>
	</g>
	
		<linearGradient id="SVGID_00000058580600757217839280000003180202649332087204_" gradientUnits="userSpaceOnUse" x1="473.0236" y1="1418.1245" x2="649.3209" y2="1418.1245">
		<stop  offset="0" style="stop-color:#81D1E2"/>
		<stop  offset="1" style="stop-color:#6170B4"/>
	</linearGradient>
	<path style="fill:url(#SVGID_00000058580600757217839280000003180202649332087204_);" d="M618.5,1186.6
		c-26.9-9.23-21.32,42.63-32.68,81c-11.37,38.37-126.48,16.74-78.16,112.82c48.32,96.08-61.11,32.13-28.42,115.98
		c32.69,83.85,2.84,173.52,38.37,150.71c35.53-22.81,19.96-128.4,56.91-140.95c36.95-12.54,42.98-27.18,6.4-61.28
		c-36.59-34.11,95.86-67.97,63.17-136.84C611.4,1239.18,649.59,1197.26,618.5,1186.6z"/>
	<g>
		<path class="st7" d="M534.09,1643.1c-3.38-14.35-32.28-140.67-5.32-155.94c23.76-13.46,23.18-65.8,19.47-115.23
			c-3.29-43.75,52.91-64.2,55.31-65.05l1.42,4.02c-0.55,0.2-55.52,20.22-52.48,60.72c3.81,50.76,4.21,104.63-21.62,119.26
			c-20.48,11.6-1.63,113.11,7.37,151.25L534.09,1643.1z"/>
	</g>
	
		<linearGradient id="SVGID_00000127037997551804838410000004132783740690118546_" gradientUnits="userSpaceOnUse" x1="432.5695" y1="1670.9939" x2="595.2501" y2="1670.9939">
		<stop  offset="0" style="stop-color:#E59047"/>
		<stop  offset="1" style="stop-color:#F0CB52"/>
	</linearGradient>
	<polygon style="fill:url(#SVGID_00000127037997551804838410000004132783740690118546_);" points="595.25,1598.12 556.84,1743.87 
		470.98,1743.87 432.57,1598.12 	"/>
	
		<linearGradient id="SVGID_00000179643154212287566040000002543539312065937335_" gradientUnits="userSpaceOnUse" x1="432.5695" y1="1670.9939" x2="595.2501" y2="1670.9939">
		<stop  offset="0" style="stop-color:#B27237"/>
		<stop  offset="1" style="stop-color:#F0CB52"/>
	</linearGradient>
	<path style="fill:url(#SVGID_00000179643154212287566040000002543539312065937335_);" d="M595.25,1598.12
		c0,0-84.57,15.88-84.57,145.74h-39.7l-38.41-145.74H595.25z"/>
</g>
</svg>
