<?xml version="1.0" encoding="utf-8"?>
<!-- Generator: Adobe Illustrator 27.2.0, SVG Export Plug-In . SVG Version: 6.00 Build 0)  -->
<svg version="1.1" id="Layer_1" xmlns="http://www.w3.org/2000/svg" xmlns:xlink="http://www.w3.org/1999/xlink" x="0px" y="0px"
	 viewBox="0 0 2880 1800" style="enable-background:new 0 0 2880 1800;" xml:space="preserve">
<style type="text/css">
	.st0{fill:#26B4D8;stroke:#263238;stroke-width:1.238;stroke-miterlimit:10;}
	.st1{opacity:0.8;fill:#FFFFFF;stroke:#263238;stroke-width:2.476;stroke-miterlimit:10;}
	.st2{fill:#FFFFFF;}
	.st3{opacity:0.15;}
	.st4{fill:#77787B;}
	.st5{fill:#515254;}
	.st6{opacity:0.7;}
	.st7{fill:#C7C8CA;}
	.st8{fill:#FFFFFF;stroke:#372438;stroke-width:4.9521;stroke-linecap:round;stroke-linejoin:round;stroke-miterlimit:10;}
	.st9{fill:none;stroke:#372438;stroke-width:4.9521;stroke-linecap:round;stroke-linejoin:round;stroke-miterlimit:10;}
	.st10{clip-path:url(#XMLID_00000013164672131479311590000001847447909593111719_);fill:#26B4D8;}
	.st11{opacity:0.6;clip-path:url(#XMLID_00000013164672131479311590000001847447909593111719_);fill:#FFFFFF;}
	.st12{clip-path:url(#XMLID_00000013164672131479311590000001847447909593111719_);fill:#41A0D8;}
	.st13{clip-path:url(#XMLID_00000082363434575393122700000003836423606028252554_);fill:#C2E6E4;}
	.st14{opacity:0.2;clip-path:url(#XMLID_00000082363434575393122700000003836423606028252554_);fill:#7FD3F1;}
	.st15{opacity:0.2;}
	
		.st16{clip-path:url(#XMLID_00000083089094539847921840000008719571377744706700_);fill:#C2E6E4;stroke:#000000;stroke-width:4.9521;stroke-miterlimit:10;}
	
		.st17{opacity:0.2;clip-path:url(#XMLID_00000083089094539847921840000008719571377744706700_);fill:#C2E6E4;stroke:#000000;stroke-width:4.9521;stroke-miterlimit:10;}
	.st18{fill:none;stroke:#372438;stroke-width:1.238;stroke-linecap:round;stroke-linejoin:round;stroke-miterlimit:10;}
	.st19{fill:#41A0D8;}
	.st20{fill:#372438;}
	.st21{fill:#372438;stroke:#372438;stroke-width:2.476;stroke-miterlimit:10;}
	.st22{fill:#41A0D8;stroke:#372438;stroke-width:2.476;stroke-miterlimit:10;}
	.st23{fill:#FFFFFF;stroke:#372438;stroke-width:2.476;stroke-miterlimit:10;}
</style>
<g>
	<path class="st0" d="M2330.06,1157.56c0,0,93.32-493.55-160.89-773.58c-224.4-247.19-579.68-343.34-869.27-138.93
		c-103.19,72.83-178.29,214.23-298.83,257.94c-135.15,49.01-308.92,66.51-434.42,276.53c-125.5,210.02-80.45,479.55,86.88,623.07
		c167.33,143.52,460.16,3.5,724.03-7S2191.69,1766.63,2330.06,1157.56z"/>
	<path class="st1" d="M2330.06,1157.56c0,0,93.32-493.55-160.89-773.58c-224.4-247.19-579.68-343.34-869.27-138.93
		c-103.19,72.83-178.29,214.23-298.83,257.94c-135.15,49.01-308.92,66.51-434.42,276.53c-125.5,210.02-80.45,479.55,86.88,623.07
		c167.33,143.52,460.16,3.5,724.03-7S2191.69,1766.63,2330.06,1157.56z"/>
</g>
<g>
	<path class="st2" d="M1667.2,409.72h-313.07c-2.83,0-5.13,2.3-5.13,5.13v73.48c0,2.83,2.3,5.13,5.13,5.13h313.07V409.72z"/>
	<path class="st2" d="M1667.2,305.05h-276.33c-23.12,0-41.87,18.74-41.87,41.87l0,0c0,23.12,18.74,41.87,41.87,41.87h276.33V305.05z
		"/>
	<rect x="1692.32" y="208.75" class="st2" width="100.48" height="280.52"/>
	<rect x="1817.93" y="208.75" class="st2" width="100.48" height="280.52"/>
	<rect x="1943.53" y="208.75" class="st2" width="100.48" height="280.52"/>
	<polygon class="st3" points="2104.68,496.76 1315.67,496.76 1315.67,543.51 1379.68,543.51 1379.68,659.4 1417.78,659.4 
		1417.78,543.51 1983.96,543.51 1983.96,659.4 2022.07,659.4 2022.07,543.51 2104.68,543.51 	"/>
</g>
<g>
	<g>
		<polygon class="st4" points="1960.11,1671.96 1688.56,1671.96 1718.05,1556 1724.74,1529.7 1737.71,1478.77 1910.95,1478.77 
			1923.93,1529.7 1930.61,1556 		"/>
		<path d="M2463.15,728.37v768.79c0,15.64-10.32,28.77-24.28,32.25c-2.36,0.6-4.83,0.9-7.33,0.9H1220.99
			c-6.25,0-12.08-1.91-16.98-5.16c-1.8-1.23-3.48-2.62-5.01-4.19c-5.91-5.99-9.61-14.44-9.61-23.79V728.37
			c0-18.26,14.14-33.14,31.61-33.14h1210.55C2449.01,695.23,2463.15,710.12,2463.15,728.37z"/>
		<polygon class="st5" points="1930.61,1556 1718.05,1556 1724.74,1529.7 1923.93,1529.7 		"/>
		<path class="st4" d="M2064.31,1704h-479.98c-11.52,0-20.85-9.34-20.85-20.85l0,0c0-11.52,9.34-20.85,20.85-20.85h479.98
			c11.52,0,20.85,9.34,20.85,20.85l0,0C2085.17,1694.66,2075.83,1704,2064.31,1704z"/>
		<path d="M2463.15,728.39v662.81H1189.36V728.39c0-18.29,14.15-33.15,31.64-33.15h1210.54
			C2449,695.24,2463.15,710.1,2463.15,728.39z"/>
		<rect x="1226.33" y="734.45" class="st2" width="1199.85" height="622.44"/>
		<g class="st6">
			<defs>
				<rect id="SVGID_1_" x="1226.33" y="734.45" class="st6" width="1199.85" height="622.44"/>
			</defs>
			<clipPath id="SVGID_00000132810095766385998890000000893968127444665227_">
				<use xlink:href="#SVGID_1_"  style="overflow:visible;"/>
			</clipPath>
		</g>
		<path class="st7" d="M1824.26,1488.04L1824.26,1488.04c-16.92,0-30.77-13.84-30.77-30.77l0,0c0-16.92,13.85-30.77,30.77-30.77l0,0
			c16.92,0,30.77,13.85,30.77,30.77l0,0C1855.03,1474.2,1841.18,1488.04,1824.26,1488.04z"/>
	</g>
</g>
<g>
	<polygon class="st3" points="2122.22,934.61 2122.22,1380.12 1992.73,1548.92 1970.94,1557.09 1306.64,1655.1 1306.64,1676.88 
		1063.3,1689.99 1063.3,1450.91 1478.16,1450.91 1478.16,932.46 	"/>
	<g>
		<path class="st8" d="M914.12,1403.1c-29.9,1.48-62.31,24.29-62.31,24.29l-337.87,262.6h549.36c0,0,346.98-261.82,357.35-269.33
			c16.44-11.9,49.08-17.92,49.08-17.92l-15.43,0.37H914.12z"/>
		<g>
			<line class="st9" x1="2178.29" y1="935.03" x2="1442.92" y2="935.03"/>
			<g>
				<g>
					<g>
						<defs>
							<path id="XMLID_6_" d="M2067.39,776.54c-30.31,0-54.87,24.53-54.87,54.83v674.24c0,31.8-26.06,55.64-55.52,55.64
								c-6.16,0-12.47-1.03-18.71-3.25l-416-147.77c-22.19-7.88-45.8-8.99-67.99-3.83V831.37c0-15.15,6.16-28.85,16.07-38.76
								c9.91-9.95,23.65-16.07,38.8-16.07H2067.39z"/>
						</defs>
						<use xlink:href="#XMLID_6_"  style="overflow:visible;fill:#FFFFFF;"/>
						<clipPath id="XMLID_00000037658318865440954880000005606486048548479146_">
							<use xlink:href="#XMLID_6_"  style="overflow:visible;"/>
						</clipPath>
						<path style="clip-path:url(#XMLID_00000037658318865440954880000005606486048548479146_);fill:#26B4D8;" d="M1573.41,1428.38
							l364.88,129.61c6.24,2.22,12.55,3.25,18.71,3.25c29.46,0,55.52-23.84,55.52-55.64v-77.23H1573.41z"/>
						<path style="opacity:0.6;clip-path:url(#XMLID_00000037658318865440954880000005606486048548479146_);fill:#FFFFFF;" d="
							M1573.41,1428.38l364.88,129.61c6.24,2.22,12.55,3.25,18.71,3.25c29.46,0,55.52-23.84,55.52-55.64v-77.23H1573.41z"/>
						<path style="clip-path:url(#XMLID_00000037658318865440954880000005606486048548479146_);fill:#41A0D8;" d="M1573.41,1517.19
							l364.88,129.61c6.24,2.22,12.55,3.25,18.71,3.25c29.46,0,55.52-23.84,55.52-55.64v-77.23H1573.41z"/>
						
							<use xlink:href="#XMLID_6_"  style="overflow:visible;fill:none;stroke:#372438;stroke-width:4.9521;stroke-linecap:round;stroke-linejoin:round;stroke-miterlimit:10;"/>
					</g>
					<line class="st8" x1="1477.96" y1="1403.1" x2="1454.29" y2="1403.1"/>
					<g>
						<defs>
							<path id="XMLID_5_" d="M1957,1561.24h-558.23c-6.12,0-12.44-1.03-18.67-3.25l-96.38-33.89l119.87-92.3
								c14.92-12.59,32.33-21.16,50.7-25.41c22.19-5.17,45.8-4.06,67.99,3.83l416,147.77
								C1944.53,1560.21,1950.84,1561.24,1957,1561.24z"/>
						</defs>
						<use xlink:href="#XMLID_5_"  style="overflow:visible;fill:#C2E6E4;"/>
						<clipPath id="XMLID_00000034054549723548954090000012495553479460956053_">
							<use xlink:href="#XMLID_5_"  style="overflow:visible;"/>
						</clipPath>
						<path style="clip-path:url(#XMLID_00000034054549723548954090000012495553479460956053_);fill:#C2E6E4;" d="M1957,1561.24
							h-558.23c-6.12,0-12.44-1.03-18.67-3.25l-102.25-35.7l125.74-90.49c14.92-12.59,32.33-21.16,50.7-25.41
							c22.19-5.17,45.8-4.06,67.99,3.83l416,147.77C1944.53,1560.21,1950.84,1561.24,1957,1561.24z"/>
						<path style="opacity:0.2;clip-path:url(#XMLID_00000034054549723548954090000012495553479460956053_);fill:#7FD3F1;" d="
							M1957,1561.24h-558.23c-6.12,0-12.44-1.03-18.67-3.25l-102.25-35.7l125.74-90.49c14.92-12.59,32.33-21.16,50.7-25.41
							c22.19-5.17,45.8-4.06,67.99,3.83l416,147.77C1944.53,1560.21,1950.84,1561.24,1957,1561.24z"/>
						
							<use xlink:href="#XMLID_5_"  style="overflow:visible;fill:none;stroke:#372438;stroke-width:4.9521;stroke-linecap:round;stroke-linejoin:round;stroke-miterlimit:10;"/>
					</g>
					<line class="st8" x1="1398.77" y1="1561.24" x2="1397.55" y2="1561.24"/>
					<line class="st8" x1="1958.07" y1="1561.24" x2="1957" y2="1561.24"/>
				</g>
				<g class="st15">
					<defs>
						<path id="XMLID_1_" class="st15" d="M2106.15,792.61c-9.91-9.95-23.61-16.07-38.76-16.07c-57.13,0-54.87,54.83-54.87,54.83
							v103.24h109.7V831.37C2122.22,816.22,2116.06,802.52,2106.15,792.61z"/>
					</defs>
					<use xlink:href="#XMLID_1_"  style="overflow:visible;fill:#C2E6E4;"/>
					<clipPath id="XMLID_00000183242427027842595280000008397649387001892270_">
						<use xlink:href="#XMLID_1_"  style="overflow:visible;"/>
					</clipPath>
					
						<path style="clip-path:url(#XMLID_00000183242427027842595280000008397649387001892270_);fill:#C2E6E4;stroke:#000000;stroke-width:4.9521;stroke-miterlimit:10;" d="
						M2106.15,792.61c-9.91-9.95-23.61-16.07-38.76-16.07c-57.13,0-54.87,54.83-54.87,54.83v103.24h109.7V831.37
						C2122.22,816.22,2116.06,802.52,2106.15,792.61z"/>
					
						<path style="opacity:0.2;clip-path:url(#XMLID_00000183242427027842595280000008397649387001892270_);fill:#C2E6E4;stroke:#000000;stroke-width:4.9521;stroke-miterlimit:10;" d="
						M2106.15,792.61c-9.91-9.95-23.61-16.07-38.76-16.07c-57.13,0-54.87,54.83-54.87,54.83v103.24h109.7V831.37
						C2122.22,816.22,2116.06,802.52,2106.15,792.61z"/>
					<use xlink:href="#XMLID_1_"  style="overflow:visible;fill:none;stroke:#000000;stroke-width:4.9521;stroke-miterlimit:10;"/>
				</g>
			</g>
			<g>
				<g>
					<g class="st3">
						<polygon points="1505.54,871.05 1505.54,872.02 1505.54,895.42 1505.54,896.39 1505.54,919.79 1505.54,920.76 1505.54,944.17 
							1505.54,945.13 1505.54,968.54 1505.54,969.51 1505.54,992.91 1505.54,993.88 1505.54,1017.28 1505.54,1018.25 
							1505.54,1041.66 1505.54,1042.62 1505.54,1066.03 1505.54,1067 1505.54,1090.4 1505.54,1091.37 1505.54,1114.77 
							1505.54,1115.74 1505.54,1140.11 1558.55,1140.11 1558.55,1115.74 1558.55,1114.77 1558.55,1091.37 1558.55,1090.4 
							1558.55,1067 1558.55,1066.03 1558.55,1042.62 1558.55,1041.66 1558.55,1018.25 1558.55,1017.28 1558.55,993.88 
							1558.55,992.91 1558.55,969.51 1558.55,968.54 1558.55,945.13 1558.55,944.17 1558.55,920.76 1558.55,919.79 1558.55,896.39 
							1558.55,895.42 1558.55,872.02 1558.55,871.05 1558.55,846.68 1505.54,846.68 						"/>
						<polygon points="1923.4,846.68 1922.25,846.68 1871.54,846.68 1870.39,846.68 1819.68,846.68 1818.52,846.68 1767.82,846.68 
							1766.66,846.68 1715.95,846.68 1714.8,846.68 1664.09,846.68 1662.94,846.68 1612.23,846.68 1611.08,846.68 1559.22,846.68 
							1559.22,872.02 1611.08,872.02 1612.23,872.02 1662.94,872.02 1664.09,872.02 1714.8,872.02 1715.95,872.02 1766.66,872.02 
							1767.82,872.02 1818.52,872.02 1819.68,872.02 1870.39,872.02 1871.54,872.02 1922.25,872.02 1923.4,872.02 1975.26,872.02 
							1975.26,846.68 						"/>
					</g>
					<g>
						<rect x="1505.54" y="846.68" class="st18" width="53.01" height="25.34"/>
						<rect x="1505.54" y="871.05" class="st18" width="53.01" height="25.34"/>
						<rect x="1505.54" y="895.42" class="st18" width="53.01" height="25.34"/>
						<rect x="1505.54" y="919.79" class="st18" width="53.01" height="25.34"/>
						<rect x="1505.54" y="944.17" class="st18" width="53.01" height="25.34"/>
						<rect x="1505.54" y="968.54" class="st18" width="53.01" height="25.34"/>
						<rect x="1505.54" y="992.91" class="st18" width="53.01" height="25.34"/>
						<rect x="1505.54" y="1017.28" class="st18" width="53.01" height="25.34"/>
						<rect x="1505.54" y="1041.66" class="st18" width="53.01" height="25.34"/>
						<rect x="1505.54" y="1066.03" class="st18" width="53.01" height="25.34"/>
						<rect x="1505.54" y="1090.4" class="st18" width="53.01" height="25.34"/>
						<rect x="1505.54" y="1114.77" class="st18" width="53.01" height="25.34"/>
						<rect x="1559.22" y="846.68" class="st18" width="53.01" height="25.34"/>
						<rect x="1611.08" y="846.68" class="st18" width="53.01" height="25.34"/>
						<rect x="1662.94" y="846.68" class="st18" width="53.01" height="25.34"/>
						<rect x="1714.8" y="846.68" class="st18" width="53.01" height="25.34"/>
						<rect x="1766.66" y="846.68" class="st18" width="53.01" height="25.34"/>
						<rect x="1818.53" y="846.68" class="st18" width="53.01" height="25.34"/>
						<rect x="1870.39" y="846.68" class="st18" width="53.01" height="25.34"/>
						<rect x="1922.25" y="846.68" class="st18" width="53.01" height="25.34"/>
					</g>
					<rect x="1558.55" y="872.02" class="st18" width="416.7" height="268.07"/>
					<line class="st18" x1="1611.54" y1="872.02" x2="1611.54" y2="1140.04"/>
					<line class="st18" x1="1663.41" y1="872.02" x2="1663.41" y2="1140.04"/>
					<line class="st18" x1="1715.29" y1="872.02" x2="1715.29" y2="1140.04"/>
					<line class="st18" x1="1767.16" y1="872.02" x2="1767.16" y2="1140.04"/>
					<line class="st18" x1="1819.04" y1="872.02" x2="1819.04" y2="1140.04"/>
					<line class="st18" x1="1870.91" y1="872.02" x2="1870.91" y2="1140.04"/>
					<line class="st18" x1="1922.79" y1="872.02" x2="1922.79" y2="1140.04"/>
					<line class="st18" x1="1558.55" y1="896.39" x2="1974.95" y2="896.39"/>
					<line class="st18" x1="1558.55" y1="920.68" x2="1974.95" y2="920.68"/>
					<line class="st18" x1="1558.55" y1="944.97" x2="1974.95" y2="944.97"/>
					<line class="st18" x1="1558.55" y1="969.26" x2="1974.95" y2="969.26"/>
					<line class="st18" x1="1558.55" y1="993.55" x2="1974.95" y2="993.55"/>
					<line class="st18" x1="1558.55" y1="1017.84" x2="1974.95" y2="1017.84"/>
					<line class="st18" x1="1558.55" y1="1042.13" x2="1974.95" y2="1042.13"/>
					<line class="st18" x1="1558.55" y1="1066.42" x2="1974.95" y2="1066.42"/>
					<line class="st18" x1="1558.55" y1="1090.71" x2="1974.95" y2="1090.71"/>
					<line class="st18" x1="1558.55" y1="1115" x2="1974.95" y2="1115"/>
				</g>
				<g>
					<polygon class="st19" points="1292.92,1468.42 846.19,1468.42 877.04,1444.99 1323.76,1444.99 					"/>
					<polygon class="st19" points="609.77,1656.33 598.81,1656.33 877.04,1444.99 888,1444.99 					"/>
					<polygon class="st20" points="1194.5,1543.05 747.77,1543.05 782.69,1516.9 1229.41,1516.9 					"/>
					<polygon class="st18" points="1044.11,1657.42 597.38,1657.42 877.04,1444.99 1323.76,1444.99 					"/>
					<line class="st18" x1="923.06" y1="1445.79" x2="644.63" y2="1657.28"/>
					<line class="st18" x1="967.93" y1="1445.79" x2="689.5" y2="1657.28"/>
					<line class="st18" x1="1012.8" y1="1445.79" x2="734.36" y2="1657.28"/>
					<line class="st18" x1="1057.66" y1="1445.79" x2="779.23" y2="1657.28"/>
					<line class="st18" x1="1102.53" y1="1445.79" x2="824.1" y2="1657.28"/>
					<line class="st18" x1="1147.39" y1="1445.79" x2="868.96" y2="1657.28"/>
					<line class="st18" x1="1192.26" y1="1445.79" x2="913.83" y2="1657.28"/>
					<line class="st18" x1="1237.13" y1="1445.79" x2="958.69" y2="1657.28"/>
					<line class="st18" x1="1281.99" y1="1445.79" x2="1003.56" y2="1657.28"/>
					<line class="st18" x1="818.83" y1="1489.78" x2="1264.21" y2="1489.78"/>
					<line class="st18" x1="783.26" y1="1516.8" x2="1228.64" y2="1516.8"/>
					<line class="st18" x1="747.7" y1="1543.82" x2="1193.08" y2="1543.82"/>
					<line class="st18" x1="712.13" y1="1570.83" x2="1157.51" y2="1570.83"/>
					<line class="st18" x1="676.56" y1="1597.85" x2="1121.94" y2="1597.85"/>
					<line class="st18" x1="641" y1="1624.87" x2="1086.38" y2="1624.87"/>
				</g>
				<g>
					<g>
						<rect x="1505.12" y="1160.58" class="st19" width="470.83" height="17.29"/>
						<rect x="1505.12" y="1160.58" class="st19" width="11.56" height="222.75"/>
						<rect x="1505.12" y="1160.58" class="st18" width="470.83" height="223.89"/>
						<line class="st18" x1="1554.74" y1="1161.42" x2="1554.74" y2="1384.34"/>
						<line class="st18" x1="1602.03" y1="1161.42" x2="1602.03" y2="1384.34"/>
						<line class="st18" x1="1649.31" y1="1161.42" x2="1649.31" y2="1384.34"/>
						<line class="st18" x1="1696.6" y1="1161.42" x2="1696.6" y2="1384.34"/>
						<line class="st18" x1="1743.89" y1="1161.42" x2="1743.89" y2="1384.34"/>
						<line class="st18" x1="1791.18" y1="1161.42" x2="1791.18" y2="1384.34"/>
						<line class="st18" x1="1838.47" y1="1161.42" x2="1838.47" y2="1384.34"/>
						<line class="st18" x1="1885.75" y1="1161.42" x2="1885.75" y2="1384.34"/>
						<line class="st18" x1="1933.04" y1="1161.42" x2="1933.04" y2="1384.34"/>
						<line class="st18" x1="1505.93" y1="1207.8" x2="1975.35" y2="1207.8"/>
						<line class="st18" x1="1505.93" y1="1236.27" x2="1975.35" y2="1236.27"/>
						<line class="st18" x1="1505.93" y1="1264.75" x2="1975.35" y2="1264.75"/>
						<line class="st18" x1="1505.93" y1="1293.22" x2="1975.35" y2="1293.22"/>
						<line class="st18" x1="1505.93" y1="1321.69" x2="1975.35" y2="1321.69"/>
						<line class="st18" x1="1505.93" y1="1350.17" x2="1975.35" y2="1350.17"/>
					</g>
					<g>
						<rect x="1800.48" y="1303.49" class="st21" width="19.63" height="45.81"/>
						<rect x="1831.89" y="1276.01" class="st22" width="19.63" height="73.29"/>
						<rect x="1863.3" y="1230.2" class="st21" width="19.63" height="119.1"/>
						<rect x="1894.71" y="1274.7" class="st22" width="19.63" height="74.6"/>
						<rect x="1926.12" y="1230.2" class="st21" width="19.63" height="119.1"/>
					</g>
					<g>
						<g>
							<g>
								<path class="st22" d="M1618.16,1294.24v54.43c-30.06,0-54.43-24.37-54.43-54.43s24.37-54.43,54.43-54.43l0,0V1294.24z"/>
							</g>
						</g>
						<g>
							<g>
								<path class="st23" d="M1618.16,1294.24l51.77-16.82c9.29,28.59-6.36,59.3-34.95,68.59c-5.72,1.86-10.81,2.66-16.82,2.66
									V1294.24z"/>
							</g>
						</g>
						<g>
							<g>
								<path class="st21" d="M1618.16,1294.24v-54.43c24.05,0,44.34,14.74,51.77,37.61L1618.16,1294.24z"/>
							</g>
						</g>
					</g>
				</g>
			</g>
		</g>
	</g>
</g>
</svg>
