<?xml version="1.0" encoding="utf-8"?>
<!-- Generator: Adobe Illustrator 27.2.0, SVG Export Plug-In . SVG Version: 6.00 Build 0)  -->
<svg version="1.1" id="Layer_1" xmlns="http://www.w3.org/2000/svg" xmlns:xlink="http://www.w3.org/1999/xlink" x="0px" y="0px"
	 viewBox="0 0 2880 1800" style="enable-background:new 0 0 2880 1800;" xml:space="preserve">
<style type="text/css">
	.st0{opacity:0.11;fill:#184562;stroke:#000000;stroke-miterlimit:10;}
	.st1{fill:#FFFDF4;}
	.st2{fill:#89AFC0;}
	.st3{fill:#C8DBA4;}
	.st4{fill:#0091C8;}
	.st5{fill:#A6D1E2;}
	.st6{fill:#429BC8;}
	.st7{fill:#00558C;}
	.st8{fill:#5C8678;}
	.st9{fill:#FFFFFF;}
	.st10{opacity:0.07;fill:#184562;}
	.st11{fill:#C8E6EB;}
	.st12{fill:#F3F3F3;}
	.st13{fill:#A9CA92;}
	.st14{opacity:0.06;fill:#184562;}
	.st15{fill:#EDF0F2;}
	.st16{opacity:0.48;fill:#FFFFFF;}
</style>
<ellipse class="st0" cx="1390.12" cy="925" rx="816.16" ry="799"/>
<g>
	<g>
		<g>
			<path class="st1" d="M1834.51,1586.93h-825.16V399.64h915.82V1509.6C1925.17,1552.31,1884.58,1586.93,1834.51,1586.93z"/>
			<rect x="1009.13" y="399.64" class="st2" width="914.29" height="55.12"/>
		</g>
		<g>
			<g>
				<path class="st2" d="M1694.22,1052.61c12.33,0,12.33-13.94,0-13.94c-152.97,0-305.95,0-458.92,0c-12.33,0-12.33,13.94,0,13.94
					l0,0H1694.22z"/>
			</g>
		</g>
		<g>
			<path class="st3" d="M1446.35,493c-73.54,0-139.35,32.57-183.96,84.02l183.96,159.41l183.96-159.41
				C1585.7,525.56,1519.89,493,1446.35,493z"/>
			<path class="st4" d="M1704.83,700.75l-240.94,34.64v243.43c134.55,0,243.43-108.88,243.43-243.43
				C1707.32,723.62,1706.44,712.07,1704.83,700.75z"/>
			<path class="st5" d="M1262.65,577.82c-86.72,102.88-73.65,256.3,29.23,343.02c9,7.58,18.4,14.36,28.09,20.42l128.8-206.55
				L1262.65,577.82z"/>
			<path class="st6" d="M1448.44,978.47c-45.61,0.01-91.38-12.72-131.6-38.66l131.62-204.76L1448.44,978.47z"/>
			<path class="st7" d="M1717.2,687.34c-6.74-47.37-27.09-90.3-56.97-124.76l-183.96,159.41L1717.2,687.34z"/>
		</g>
		<g>
			<g>
				<rect x="1117.02" y="1318.2" class="st8" width="89.43" height="215.4"/>
				<rect x="1117.02" y="1234.79" class="st3" width="89.43" height="101.22"/>
			</g>
			<g>
				<rect x="1705.73" y="1327.91" class="st8" width="89.43" height="215.4"/>
				<rect x="1705.73" y="1146.12" class="st3" width="90.01" height="199.61"/>
			</g>
			<g>
				<rect x="1509.49" y="1310.91" class="st8" width="89.43" height="227.54"/>
				<rect x="1509.49" y="1290.66" class="st3" width="89.43" height="151.02"/>
			</g>
			<g>
				<rect x="1313.26" y="1231.65" class="st8" width="89.43" height="305.58"/>
				<rect x="1313.26" y="1113.33" class="st3" width="89.43" height="244.42"/>
			</g>
		</g>
		<g>
			<g>
				<path class="st9" d="M1044.07,442.79c-6.48,0-11.76-5.28-11.76-11.76c0-6.48,5.28-11.76,11.76-11.76s11.76,5.28,11.76,11.76
					C1055.83,437.52,1050.55,442.79,1044.07,442.79z M1044.07,421.23c-5.4,0-9.8,4.4-9.8,9.8c0,5.4,4.4,9.8,9.8,9.8
					c5.4,0,9.8-4.4,9.8-9.8C1053.87,425.63,1049.47,421.23,1044.07,421.23z"/>
			</g>
			<g>
				<path class="st9" d="M1080.33,442.79c-6.48,0-11.76-5.28-11.76-11.76c0-6.48,5.28-11.76,11.76-11.76s11.76,5.28,11.76,11.76
					C1092.08,437.52,1086.81,442.79,1080.33,442.79z M1080.33,421.23c-5.4,0-9.8,4.4-9.8,9.8c0,5.4,4.4,9.8,9.8,9.8s9.8-4.4,9.8-9.8
					C1090.12,425.63,1085.73,421.23,1080.33,421.23z"/>
			</g>
			<g>
				<path class="st9" d="M1116.58,442.79c-6.48,0-11.76-5.28-11.76-11.76c0-6.48,5.28-11.76,11.76-11.76
					c6.48,0,11.76,5.28,11.76,11.76C1128.34,437.52,1123.07,442.79,1116.58,442.79z M1116.58,421.23c-5.4,0-9.8,4.4-9.8,9.8
					c0,5.4,4.4,9.8,9.8,9.8c5.4,0,9.8-4.4,9.8-9.8C1126.38,425.63,1121.99,421.23,1116.58,421.23z"/>
			</g>
		</g>
	</g>
	<path class="st10" d="M1034,1621.51H450.24V719.94h637.97v847.36C1088.21,1597.24,1063.94,1621.51,1034,1621.51z"/>
	<g>
		<g>
			<path class="st5" d="M986.19,1596.29H377.76V651.73h687.42v865.58C1065.18,1560.93,1029.82,1596.29,986.19,1596.29z"/>
		</g>
		<rect x="450.72" y="727.15" class="st1" width="556.48" height="351.89"/>
		<path class="st3" d="M803.23,849.19c2.31,4.65,6.3,8.63,13.87,11.46c14.09,5.26,33.03,1.46,41.16-10.33
			c13.58-19.72,9.76-47.95,24.37-68.44c5.93-8.32,14.97-15.06,25.63-18.1c10.66-3.04,22.89-2.15,32.38,3.08
			c15.45,8.51,20.8,26.1,20.95,42.06c0.29,30.65-4,62.34-9.52,92.59c-2.67,14.64-6.79,29.68-17.39,41.24
			c-14.39,15.69-38.08,22.22-60.74,25.71c-57.33,8.84-116.12,3.43-174-1.99c-46.56-4.36-93.11-8.73-139.67-13.09
			c-13.12-1.23-51.76,0.75-59.62-8.34c-7.67-8.88-1.64-38.97,2.84-48.26c9.99-20.68,37.32-32.36,62.97-31.04
			c57.86,2.96,34.99-57.46,53.51-86.15c9.84-15.24,31.5-26.2,50.17-19.84c17.8,6.06,25.23,23.92,34,38.75
			c4.55,7.7,11.02,15.68,20.75,17.34c16.55,2.83,30.35-13.99,47.2-13.34c9.97,0.38,18.46,7.11,22.77,14.99
			C800.72,828.17,798.67,839.99,803.23,849.19z"/>
		<path class="st6" d="M970.83,1059.95c-0.02,0,0.09-25.33,0.1-26.72c0.14-37.8,0.13-75.59,0.18-113.39
			c0.04-36.11,3.02-72.22,2.44-108.24c-0.26-16.66-7.46-25.37-25.01-20.9c-17.28,4.4-33.08,14.65-43.96,28.81
			c-7.37,9.59-13.49,21.59-24.94,25.45c-20.47,6.9-37.23-16.16-55.61-27.51c-19.8-12.22-47.35-10.16-65.12,4.86
			c-21.47,18.15-26.39,49.54-44.56,70.99c-20,23.61-56.32,31.61-84.38,18.57c-11.53-5.36-21.44-13.7-32.8-19.4
			c-45.07-22.59-107.72,9.91-115.2,59.77v103.16C481.95,1055.4,971.74,1060.86,970.83,1059.95z"/>
		<rect x="459.81" y="1132.69" class="st3" width="41.83" height="41.83"/>
		<rect x="459.81" y="1194.53" class="st6" width="41.83" height="41.83"/>
		<rect x="536.19" y="1145.42" class="st1" width="121.84" height="12.73"/>
		<rect x="534.37" y="1212.71" class="st1" width="121.84" height="12.73"/>
		<rect x="465.27" y="1307.68" class="st1" width="531.02" height="13.75"/>
		<rect x="465.27" y="1347.63" class="st1" width="236.42" height="188.45"/>
		<rect x="738.05" y="1349.45" class="st1" width="258.24" height="82.06"/>
		<rect x="735.32" y="1453.1" class="st1" width="258.24" height="82.06"/>
	</g>
	<g>
		<path class="st3" d="M424.28,597.59h343.2c1.67,0,3.03-1.48,3.03-3.3v-329.6c0-1.82-1.36-3.3-3.03-3.3H333.02
			c-1.67,0-3.03,1.48-3.03,3.3v230.16C329.99,551.59,372.21,597.59,424.28,597.59z"/>
		<path class="st3" d="M686.05,592.02l-1.6,106.92c-0.05,3.39-4.4,4.75-6.37,1.99l-83.95-117.78c-1.72-2.41,0.13-5.73,3.08-5.54
			l86.89,5.43c2.26,0.14,3.8,2.35,3.15,4.51l-1.05,3.52C686.1,591.38,686.05,591.7,686.05,592.02z"/>
		<g>
			<rect x="386.88" y="316.38" class="st1" width="270.63" height="11.28"/>
			<rect x="386.88" y="402.36" class="st1" width="322.78" height="11.28"/>
			<rect x="386.88" y="488.35" class="st1" width="322.78" height="11.28"/>
		</g>
	</g>
	<g>
		<g>
			<path class="st6" d="M1050.16,369.29H727.91V140.87h301.76l64.63,68.26v113C1094.29,348.17,1074.53,369.29,1050.16,369.29z"/>
			<polygon class="st11" points="1094.04,209.67 1029.16,211.3 1029.16,140.87 			"/>
		</g>
		<g>
			<rect x="816.28" y="200.15" class="st12" width="205.58" height="9.79"/>
			<rect x="783.71" y="247.46" class="st12" width="238.15" height="9.79"/>
			<rect x="783.71" y="294.78" class="st12" width="238.15" height="9.79"/>
		</g>
	</g>
	<g>
		<g>
			<path class="st8" d="M1751.32,792.41c-1.22,0-2.28-0.9-2.45-2.14c-0.46-3.35-0.76-6.75-0.9-10.12c-0.05-1.37,1.01-2.52,2.38-2.58
				c1.38-0.04,2.52,1.01,2.58,2.38c0.13,3.21,0.41,6.45,0.85,9.64c0.19,1.36-0.76,2.61-2.12,2.79
				C1751.55,792.4,1751.43,792.41,1751.32,792.41z"/>
		</g>
		<g>
			<path class="st8" d="M1751.56,762.82c-0.12,0-0.25-0.01-0.38-0.03c-1.35-0.21-2.28-1.47-2.08-2.82c0.99-6.51,2.6-13.1,4.78-19.59
				c0.44-1.3,1.84-2,3.14-1.56c1.3,0.44,2,1.84,1.56,3.14c-2.09,6.21-3.63,12.52-4.58,18.75
				C1753.82,761.94,1752.76,762.82,1751.56,762.82z M1763.96,725.49c-0.38,0-0.77-0.09-1.13-0.28c-1.22-0.63-1.69-2.12-1.07-3.34
				c2.98-5.78,6.46-11.56,10.36-17.19c0.78-1.13,2.32-1.41,3.45-0.63c1.13,0.78,1.41,2.32,0.63,3.45
				c-3.77,5.45-7.15,11.05-10.03,16.64C1765.73,725,1764.86,725.49,1763.96,725.49z M1786.31,693.01c-0.58,0-1.16-0.2-1.63-0.61
				c-1.03-0.9-1.14-2.47-0.24-3.5c4.29-4.92,8.96-9.76,13.88-14.4c1-0.94,2.57-0.89,3.5,0.11c0.94,1,0.89,2.57-0.11,3.5
				c-4.81,4.53-9.36,9.25-13.54,14.05C1787.69,692.72,1787,693.01,1786.31,693.01z M1815.01,665.9c-0.73,0-1.46-0.33-1.95-0.95
				c-0.85-1.08-0.66-2.64,0.42-3.48c5.2-4.08,10.65-8,16.23-11.65c1.15-0.75,2.68-0.43,3.43,0.71c0.75,1.15,0.43,2.68-0.71,3.43
				c-5.45,3.57-10.8,7.41-15.88,11.4C1816.09,665.73,1815.55,665.9,1815.01,665.9z M1848.03,644.23c-0.88,0-1.72-0.46-2.17-1.29
				c-0.66-1.2-0.22-2.71,0.98-3.37c5.76-3.16,11.73-6.21,17.73-9.06c1.24-0.59,2.72-0.06,3.3,1.18c0.59,1.24,0.06,2.72-1.18,3.3
				c-5.92,2.81-11.79,5.81-17.47,8.93C1848.85,644.13,1848.44,644.23,1848.03,644.23z M1883.72,627.29c-0.98,0-1.91-0.58-2.3-1.55
				c-0.51-1.27,0.1-2.71,1.36-3.23c6.06-2.46,12.33-4.81,18.63-6.97c1.3-0.44,2.71,0.24,3.15,1.54c0.45,1.29-0.24,2.71-1.54,3.15
				c-6.22,2.14-12.4,4.45-18.38,6.88C1884.35,627.23,1884.03,627.29,1883.72,627.29z M1921.07,614.42c-1.08,0-2.07-0.71-2.38-1.8
				c-0.38-1.32,0.38-2.69,1.7-3.07c6.27-1.8,12.74-3.49,19.23-5.03c1.33-0.32,2.67,0.51,2.98,1.84c0.31,1.33-0.51,2.67-1.84,2.98
				c-6.42,1.51-12.81,3.19-19,4.96C1921.53,614.39,1921.3,614.42,1921.07,614.42z M2237.16,607.4l-2.01-0.01
				c-1.37-0.01-2.47-1.13-2.46-2.5c0.01-1.36,1.12-2.46,2.48-2.46c0.01,0,0.01,0,0.02,0l1.98,0.01c6.13,0,12.04-0.22,17.56-0.65
				c1.36-0.11,2.56,0.91,2.66,2.28c0.11,1.36-0.92,2.56-2.28,2.66C2249.46,607.18,2243.42,607.4,2237.16,607.4z M2215.42,606.64
				c-0.05,0-0.11,0-0.16-0.01c-5.9-0.38-12.37-0.93-19.78-1.66c-1.36-0.13-2.36-1.35-2.22-2.71c0.13-1.36,1.36-2.36,2.71-2.22
				c7.35,0.73,13.77,1.26,19.61,1.64c1.37,0.09,2.4,1.27,2.31,2.64C2217.81,605.63,2216.72,606.64,2215.42,606.64z M1959.51,605.32
				c-1.17,0-2.21-0.83-2.43-2.02c-0.25-1.35,0.63-2.64,1.97-2.9c6.39-1.21,12.98-2.31,19.59-3.29c1.36-0.2,2.61,0.74,2.81,2.09
				c0.2,1.35-0.74,2.61-2.09,2.81c-6.54,0.96-13.06,2.05-19.38,3.25C1959.82,605.31,1959.66,605.32,1959.51,605.32z M2274.5,604.15
				c-1.16,0-2.2-0.82-2.43-2.01c-0.26-1.34,0.62-2.64,1.96-2.9c6.53-1.26,12.83-2.94,18.74-4.98c1.3-0.45,2.71,0.24,3.15,1.53
				c0.45,1.29-0.24,2.71-1.53,3.15c-6.13,2.12-12.66,3.86-19.42,5.16C2274.81,604.14,2274.65,604.15,2274.5,604.15z M2176.08,602.9
				c-0.09,0-0.18-0.01-0.27-0.02l-5.88-0.64c-4.57-0.49-9.15-0.97-13.74-1.41c-1.36-0.13-2.36-1.34-2.23-2.71
				c0.13-1.36,1.34-2.36,2.71-2.23c4.61,0.45,9.21,0.92,13.79,1.42l5.89,0.64c1.36,0.15,2.34,1.37,2.19,2.73
				C2178.4,601.96,2177.32,602.9,2176.08,602.9z M1998.59,599.56c-1.25,0-2.32-0.94-2.46-2.21c-0.15-1.36,0.84-2.58,2.2-2.73
				c6.45-0.7,13.1-1.3,19.76-1.78c1.37-0.1,2.55,0.93,2.65,2.29c0.1,1.37-0.93,2.55-2.29,2.65c-6.61,0.48-13.2,1.08-19.59,1.77
				C1998.77,599.56,1998.68,599.56,1998.59,599.56z M2136.73,599.1c-0.07,0-0.13,0-0.2-0.01c-6.64-0.53-13.25-1-19.67-1.38
				c-1.37-0.08-2.41-1.26-2.32-2.62c0.08-1.37,1.26-2.4,2.62-2.33c6.45,0.39,13.09,0.86,19.76,1.39c1.36,0.11,2.38,1.3,2.27,2.67
				C2139.1,598.11,2138.01,599.1,2136.73,599.1z M2097.28,596.72c-0.03,0-0.06,0-0.1,0c-6.65-0.26-13.28-0.44-19.7-0.53
				c-1.37-0.02-2.46-1.15-2.44-2.52s1.13-2.47,2.52-2.44c6.46,0.1,13.13,0.28,19.82,0.54c1.37,0.05,2.43,1.2,2.38,2.57
				C2099.7,595.68,2098.6,596.72,2097.28,596.72z M2038,596.67c-1.32,0-2.42-1.04-2.47-2.38c-0.06-1.37,1.01-2.52,2.38-2.58
				c6.47-0.26,13.14-0.44,19.83-0.52c1.36,0.02,2.49,1.08,2.51,2.45c0.02,1.37-1.08,2.49-2.45,2.51
				c-6.63,0.08-13.26,0.25-19.68,0.51C2038.07,596.67,2038.04,596.67,2038,596.67z M2311.67,591.17c-0.88,0-1.74-0.47-2.18-1.3
				c-0.65-1.21-0.2-2.71,1.01-3.36c5.57-3,11.05-6.53,16.27-10.49c1.09-0.83,2.65-0.61,3.47,0.48c0.83,1.09,0.61,2.65-0.48,3.47
				c-5.43,4.11-11.12,7.78-16.92,10.9C2312.47,591.07,2312.06,591.17,2311.67,591.17z M2343.13,567.49c-0.64,0-1.27-0.24-1.75-0.73
				c-0.97-0.97-0.97-2.54,0-3.51c4.45-4.44,8.8-9.34,12.93-14.55c0.85-1.07,2.41-1.25,3.48-0.4c1.07,0.85,1.25,2.41,0.4,3.48
				c-4.25,5.36-8.73,10.4-13.31,14.98C2344.4,567.24,2343.76,567.49,2343.13,567.49z M2367.72,536.64c-0.46,0-0.92-0.13-1.34-0.39
				c-1.15-0.74-1.48-2.27-0.74-3.43c3.42-5.31,6.74-10.99,9.86-16.88c0.64-1.21,2.14-1.67,3.35-1.03c1.21,0.64,1.67,2.14,1.03,3.35
				c-3.19,6.01-6.58,11.81-10.07,17.24C2369.33,536.24,2368.53,536.64,2367.72,536.64z"/>
		</g>
		<g>
			<path class="st8" d="M2386.35,501.69c-0.33,0-0.67-0.07-1-0.21c-1.25-0.55-1.82-2.02-1.27-3.27c1.3-2.95,2.59-5.99,3.82-9.06
				c0.51-1.27,1.96-1.88,3.23-1.37c1.27,0.51,1.88,1.96,1.37,3.23c-1.26,3.12-2.56,6.22-3.89,9.21
				C2388.21,501.14,2387.3,501.69,2386.35,501.69z"/>
		</g>
	</g>
	<g>
		<path class="st13" d="M2498.93,285.46l-10.36,235.13l-77.64-81.51c0,0,88.32-160.22,88.94-157.57l-3.39-2.83
			c2.61-0.75-94.47,154.32-94.47,154.32l-108.97-28.23l200.45-123.34L2498.93,285.46z"/>
	</g>
	<g>
		<path class="st14" d="M2543.38,1484.92h-677.53V959.07h727.39v475.99C2593.25,1462.6,2570.92,1484.92,2543.38,1484.92z"/>
		<g>
			<g>
				<g>
					<path class="st15" d="M2569.49,1451.8h-684.72V924.38h732.33v479.81C2617.11,1430.48,2595.79,1451.8,2569.49,1451.8z"/>
					<rect x="1885.77" y="924.9" class="st6" width="731.34" height="41.98"/>
				</g>
				<path class="st16" d="M2615.56,1057.01v-1.63h-89.89v-88.21h-1.63v88.21h-107.77v-88.21h-1.63v88.21h-107.77v-88.21h-1.63v88.21
					h-107.77v-88.21h-1.63v88.21H2088.1v-88.21h-1.63v88.21h-107.77v-88.21h-1.63v88.21h-89.75v1.63h89.75v99.67h-89.75v1.63h89.75
					v99.67h-89.75v1.63h89.75v99.67h-89.75v1.63h89.75v92.74h1.63v-92.74h107.77v92.74h1.63v-92.74h107.77v92.74h1.63v-92.74h107.77
					v92.74h1.63v-92.74h107.77v92.74h1.63v-92.74h107.77v92.74h1.63v-92.74h89.89v-1.63h-89.89v-99.67h89.89v-1.63h-89.89v-99.67
					h89.89v-1.63h-89.89v-99.67H2615.56z M2414.65,1057.01v99.67h-107.77v-99.67H2414.65z M2197.49,1158.3h107.77v99.67h-107.77
					V1158.3z M2195.86,1257.97H2088.1v-99.67h107.77V1257.97z M2306.89,1158.3h107.77v99.67h-107.77V1158.3z M2305.26,1057.01v99.67
					h-107.77v-99.67H2305.26z M2195.86,1057.01v99.67H2088.1v-99.67H2195.86z M1978.71,1057.01h107.77v99.67h-107.77V1057.01z
					 M1978.71,1158.3h107.77v99.67h-107.77V1158.3z M1978.71,1359.26v-99.67h107.77v99.67H1978.71z M2088.1,1359.26v-99.67h107.77
					v99.67H2088.1z M2197.49,1359.26v-99.67h107.77v99.67H2197.49z M2306.89,1359.26v-99.67h107.77v99.67H2306.89z M2524.05,1359.26
					h-107.77v-99.67h107.77V1359.26z M2524.05,1257.97h-107.77v-99.67h107.77V1257.97z M2524.05,1156.67h-107.77v-99.67h107.77
					V1156.67z"/>
			</g>
			<path class="st6" d="M2538.3,1033.97c-12.34,0-22.34,10-22.34,22.34c0,6.23,2.55,11.86,6.66,15.91
				c-25.91,22.31-51.82,44.62-77.73,66.94c-1.97,1.7-3.94,3.39-5.91,5.09c-3.83-3.08-8.69-4.94-13.99-4.94
				c-12.34,0-22.34,10-22.34,22.34c0,7.85,4.06,14.75,10.19,18.73c-5.68,13.67-11.35,27.33-17.03,40.99
				c-2.42,5.83-4.84,11.65-7.26,17.48c-1.63-0.38-3.31-0.59-5.05-0.59c-8.25,0-15.43,4.48-19.3,11.13
				c-25.03-15.82-50.06-31.64-75.09-47.47c-18.55-11.72-37.1-23.45-55.64-35.17c1.03-2.57,1.61-5.36,1.61-8.29
				c0-12.34-10-22.34-22.34-22.34c-12.34,0-22.34,10-22.34,22.34c0,1.56,0.16,3.09,0.47,4.56c-35.1,14.33-70.21,28.66-105.31,42.98
				c-3.44,1.41-6.88,2.81-10.33,4.22c-3.44-7.92-11.32-13.46-20.5-13.46c-12.34,0-22.34,10-22.34,22.34
				c0,6.41,2.71,12.17,7.03,16.24c-5.21,5.92-10.43,11.83-15.64,17.75c-24.88,28.25-49.77,56.49-74.65,84.74
				c-3.57-2.41-7.87-3.82-12.5-3.82c-12.34,0-22.34,10-22.34,22.35c0,12.34,10,22.34,22.34,22.34c12.34,0,22.34-10,22.34-22.34
				c0-4.77-1.51-9.18-4.05-12.81c21.25-24.12,42.49-48.24,63.74-72.36c9.22-10.47,18.44-20.93,27.66-31.4
				c2.6,1.06,5.43,1.65,8.41,1.65c12.34,0,22.34-10,22.34-22.35c0-0.3-0.03-0.59-0.04-0.89c0.51-0.21,1.02-0.41,1.52-0.62
				c38.46-15.7,76.92-31.4,115.38-47.1c3.97,6.19,10.9,10.3,18.8,10.3c6.48,0,12.3-2.77,16.38-7.18
				c16.82,10.63,33.64,21.27,50.46,31.9c27.29,17.25,54.58,34.5,81.87,51.75c-0.16,1.09-0.28,2.2-0.28,3.34
				c0,12.34,10,22.35,22.34,22.35c12.34,0,22.34-10,22.34-22.35c0-7.72-3.92-14.53-9.88-18.54c8.11-19.52,16.22-39.05,24.33-58.57
				c1.52,0.32,3.09,0.5,4.7,0.5c12.34,0,22.34-10,22.34-22.35c0-4.11-1.13-7.94-3.06-11.25c4.58-3.95,9.17-7.9,13.75-11.84
				c19.63-16.9,39.26-33.81,58.89-50.71c4.23-3.65,8.47-7.29,12.7-10.94c2.67,1.13,5.6,1.75,8.68,1.75c12.34,0,22.35-10,22.35-22.35
				C2560.65,1043.98,2550.64,1033.97,2538.3,1033.97z"/>
		</g>
	</g>
</g>
</svg>
