<?xml version="1.0" encoding="utf-8"?>
<!-- Generator: Adobe Illustrator 27.2.0, SVG Export Plug-In . SVG Version: 6.00 Build 0)  -->
<svg version="1.1" id="Layer_1" xmlns="http://www.w3.org/2000/svg" xmlns:xlink="http://www.w3.org/1999/xlink" x="0px" y="0px"
	 viewBox="0 0 2880 1800" style="enable-background:new 0 0 2880 1800;" xml:space="preserve">
<style type="text/css">
	.st0{fill:#DEE9F6;}
	.st1{fill:#ACC5E6;}
	.st2{fill:#DEE9F6;stroke:#000000;stroke-width:0.5;stroke-miterlimit:10;}
	.st3{fill:#1C437D;}
	.st4{fill:#38426A;}
	.st5{fill:url(#SVGID_1_);}
	.st6{fill:url(#SVGID_00000092439385441254861290000007579582803168396442_);}
	.st7{fill:url(#SVGID_00000088824742605398348800000004479087571800650664_);}
	.st8{fill:url(#SVGID_00000171682336462346826630000018443251385746025127_);}
	.st9{fill:url(#SVGID_00000062911449685781453110000010137322009840774547_);}
	.st10{fill:url(#SVGID_00000049194560361566352670000003692097626362328766_);}
	.st11{fill:url(#SVGID_00000117675310858742092870000012826069763534635145_);}
	.st12{fill:url(#SVGID_00000063623119370079214110000008302571982897912192_);}
	.st13{opacity:0.7;fill:#FFFFFF;}
	.st14{opacity:0.78;fill:#FFFFFF;}
	.st15{fill:url(#SVGID_00000134210254837931677020000018099578911023601082_);}
	.st16{fill:url(#SVGID_00000070085972429511309030000001603476707384435357_);}
	.st17{fill:url(#SVGID_00000160166194803930014360000015252750145411403963_);}
	.st18{fill:url(#SVGID_00000014607550065069856850000013811278126432444854_);}
	.st19{fill:url(#SVGID_00000000214603914997234940000016292210666427520158_);}
	.st20{fill:url(#SVGID_00000026850509029685281230000013446634347358800286_);}
	.st21{fill:url(#SVGID_00000018211386787030661210000010016784379551028127_);}
	.st22{fill:url(#SVGID_00000014624986023782569050000015852122428042406831_);}
	.st23{fill:url(#SVGID_00000137105059183986939150000006390009704174999741_);}
	.st24{fill:url(#SVGID_00000132072735023163849260000018188178565922878090_);}
	.st25{fill:url(#SVGID_00000072968165905558548250000011457409485946768011_);}
	.st26{fill:url(#SVGID_00000144309203834033372650000014837226616872611457_);}
	.st27{fill:url(#SVGID_00000056407525807902855040000003745511363636307348_);}
	.st28{fill:url(#SVGID_00000162320708948473741300000000978623415365851317_);}
	.st29{fill:url(#SVGID_00000110444163719365917600000005200024046657354133_);}
	.st30{fill:url(#SVGID_00000148633637984418281250000015675391334869232829_);}
	.st31{fill:url(#SVGID_00000101794442655900274120000000916907760389706388_);}
	.st32{fill:url(#XMLID_00000142134416989921917380000003205026857404218019_);}
	.st33{fill:url(#SVGID_00000116200191354462325250000014155769151925413302_);}
	.st34{fill:url(#SVGID_00000065062862546167739900000008077220616980431018_);}
	.st35{fill:url(#SVGID_00000155846311650106646640000013817501214815668661_);}
	.st36{fill:url(#SVGID_00000061470592027766652860000010342477191461703337_);}
	.st37{fill:url(#SVGID_00000041264047837316026400000016531625594104477862_);}
	.st38{fill:url(#SVGID_00000070835848870695244570000014598654511237528724_);}
	.st39{fill:url(#SVGID_00000090983626492078120300000000173538487773585536_);}
	.st40{fill:url(#SVGID_00000065789599859020629520000010388379286404387715_);}
	.st41{fill:url(#SVGID_00000117642627440659573430000007363408681065342644_);}
	.st42{fill:url(#SVGID_00000085239783005256880540000002902164094988549760_);}
	.st43{fill:url(#SVGID_00000114053000024445681830000000199411917008771471_);}
	.st44{fill:url(#SVGID_00000175303807719687410370000000891442657789170858_);}
	.st45{fill:url(#SVGID_00000003803201964380648900000011605407299796840622_);}
	.st46{fill:url(#SVGID_00000083772114446562370170000005047155827200064657_);}
	.st47{fill:url(#SVGID_00000024717203767862901510000000365126378960522682_);}
	.st48{fill:url(#SVGID_00000084512389982628710120000009409056163265963418_);}
	.st49{fill:url(#SVGID_00000033351271087816187390000007351166970147931531_);}
	.st50{fill:url(#SVGID_00000013152523774911741000000006431991202571427472_);}
	.st51{fill:url(#SVGID_00000059284510738587303380000016972917164954996608_);}
	.st52{fill:url(#SVGID_00000016758307895994715250000015143597448239463320_);}
	.st53{fill:url(#SVGID_00000114754988478692117150000006518073985087886518_);}
</style>
<g>
	<path class="st0" d="M111.85,1138.28c14.78-54.59,106.9-37.53,106.9-37.53s62.55,95.53,80.74,97.8
		c18.2,2.27-37.53-92.12-37.53-92.12c35.25-3.41,125.09,39.8,125.09,39.8s-5.69,111.45,12.51,109.17c18.2-2.27,0-98.94,0-98.94
		c34.12,10.23,65.96,50.04,65.96,50.04c39.8,64.82-45.49,112.59-45.49,112.59s-1.14,38.67,22.74,83.02l0,0
		c0,0,5.39,8.19,10.87,22.11h-9.3c-0.76-2.49-1.6-4.9-2.52-7.22c0-0.02-0.01-0.03-0.02-0.04c-0.01-0.03-0.03-0.07-0.04-0.1
		c-0.64-1.44-1.55-3.48-2.69-5.97c0,0,0-0.01,0-0.01c0-0.01-0.01-0.01-0.01-0.01c-2.84-5.56-4.76-9.67-5.98-12.64
		c-0.01-0.01-0.01-0.02-0.01-0.03c-8.51-17.46-20.78-40.21-28.96-44.99c0,0,1.03-1.45,1.99-4.27c-0.63,1.36-1.3,2.78-1.99,4.27
		c-15.92,34.12-95.53,39.8-139.88,30.71c-44.35-9.1-25.02-21.61-1.14-41.91c23.88-20.3,73.92-14.95,88.7-22.91
		c14.78-7.96-6.82-15.92-36.39-13.65c-29.57,2.27-44.35,31.84-92.12,36.39c-47.76,4.55-84.15-85.29-84.15-85.29
		c32.98,10.24,92.12-7.96,94.39-19.33c2.27-11.37-85.29-10.24-98.94-13.65C120.94,1220.16,97.06,1192.86,111.85,1138.28z"/>
	<path class="st1" d="M96.5,1453.74c7.92-29.24,57.27-20.11,57.27-20.11s33.51,51.18,43.26,52.4c9.75,1.22-20.11-49.35-20.11-49.35
		c18.89-1.83,67.02,21.32,67.02,21.32s-3.05,59.71,6.7,58.49c9.75-1.22,0-53,0-53c18.28,5.48,35.34,26.81,35.34,26.81
		c21.32,34.73-24.37,60.32-24.37,60.32s-0.61,20.71,12.18,44.48l0,0c0,0,2.89,4.39,5.82,11.84h-4.98c-0.41-1.34-0.86-2.63-1.35-3.87
		c0-0.01,0-0.02-0.01-0.02c-0.01-0.02-0.01-0.04-0.02-0.05c-0.34-0.77-0.83-1.87-1.44-3.2c0,0,0,0,0-0.01c0,0,0,0,0-0.01
		c-1.52-2.98-2.55-5.18-3.2-6.77c0,0,0-0.01-0.01-0.01c-4.56-9.35-11.13-21.54-15.52-24.1c0,0,0.55-0.78,1.07-2.29
		c-0.34,0.73-0.69,1.49-1.07,2.29c-8.53,18.28-51.18,21.32-74.94,16.45c-23.76-4.87-13.4-11.58-0.61-22.45
		c12.79-10.88,39.6-8.01,47.52-12.27c7.92-4.26-3.66-8.53-19.5-7.31c-15.84,1.22-23.76,17.06-49.35,19.5
		c-25.59,2.44-45.08-45.69-45.08-45.69c17.67,5.48,49.35-4.26,50.57-10.36c1.22-6.09-45.69-5.48-53-7.31
		C101.37,1497.61,88.58,1482.99,96.5,1453.74z"/>
	<path class="st0" d="M464.37,1062.24c25.6-29.13,77.14,9.22,77.14,9.22s9.61,77.7,20.13,84.6c10.51,6.9,4.75-68.04,4.75-68.04
		c22.73,8.56,64.96,62.32,64.96,62.32s-37.19,66.87-25.31,70.97c11.89,4.1,29.91-60.89,29.91-60.89
		c17.9,16.61,25.47,50.74,25.47,50.74c4.9,51.93-62.03,55.54-62.03,55.54s-12.39,23.45-11.1,57.97l0,0c0,0,0.84,6.67,0.01,16.89
		l-5.72-2.81c0.29-1.76,0.5-3.5,0.63-5.21c0.01-0.01,0.01-0.02,0-0.03c0-0.02,0-0.05,0.01-0.07c0.04-1.08,0.1-2.61,0.15-4.49
		c0,0,0,0,0-0.01c0,0,0-0.01,0-0.01c-0.07-4.28-0.01-7.39,0.14-9.59c0-0.01,0-0.01,0-0.02c0.04-13.32-0.63-31.03-4.22-36.44
		c0,0,1.07-0.58,2.51-2.02c-0.8,0.65-1.64,1.32-2.51,2.02c-20.11,16.18-70.83-4.38-95.37-23.39c-24.55-19.01-8.87-20.86,11.97-26.14
		c20.84-5.28,50.01,13.15,61.52,12.72c11.51-0.43,0.61-11.86-18.27-19.4c-18.89-7.54-36.92,6.19-67.7-5.45
		c-30.77-11.64-26.01-77.94-26.01-77.94c17.2,16.27,59.1,22.95,63.94,16.64c4.84-6.31-49.4-32.09-56.77-38.31
		S438.77,1091.37,464.37,1062.24z"/>
</g>
<g>
	<polygon class="st2" points="186.23,1657.46 525.53,1270.75 742.96,1353.54 1244.06,897.05 1524.38,1025 1914.76,358.96 
		2700.82,1657.46 	"/>
	<polygon class="st3" points="1842.98,170.17 1696.03,227.19 1736.03,244.25 1411.7,558.7 1319.74,285.62 917.38,807.23 
		809.16,613.74 638.43,811.23 591.63,750.3 445.14,921.55 489.3,933.52 589.84,815.98 636.48,876.7 801.83,685.43 911.83,882.09 
		1305.23,372.09 1393.42,633.97 1764.95,273.81 1780.81,315.63 	"/>
	<rect x="110.05" y="1655.38" class="st4" width="2666.95" height="22.63"/>
</g>
<linearGradient id="SVGID_1_" gradientUnits="userSpaceOnUse" x1="1292.0876" y1="462.3807" x2="1206.3362" y2="1644.5262">
	<stop  offset="0" style="stop-color:#F3B62E"/>
	<stop  offset="1" style="stop-color:#F1B01C"/>
</linearGradient>
<path class="st5" d="M1386.09,1259.3h-299.38c-2.01,0-3.63-1.63-3.63-3.63v-51.14c0-2.01,1.63-3.63,3.63-3.63h299.38
	c2.01,0,3.63,1.63,3.63,3.63v51.14C1389.72,1257.68,1388.09,1259.3,1386.09,1259.3z"/>
<linearGradient id="SVGID_00000029003396967187314000000009227881168710872485_" gradientUnits="userSpaceOnUse" x1="1297.0173" y1="462.521" x2="1211.2659" y2="1644.6671">
	<stop  offset="0" style="stop-color:#F3B62E"/>
	<stop  offset="1" style="stop-color:#F1B01C"/>
</linearGradient>
<path style="fill:url(#SVGID_00000029003396967187314000000009227881168710872485_);" d="M1386.33,1324.09h-299.38
	c-2.01,0-3.63-1.63-3.63-3.63v-51.14c0-2.01,1.63-3.63,3.63-3.63h299.38c2.01,0,3.63,1.63,3.63,3.63v51.14
	C1389.96,1322.46,1388.34,1324.09,1386.33,1324.09z"/>
<linearGradient id="SVGID_00000069382845636329397620000017459547799342659770_" gradientUnits="userSpaceOnUse" x1="1301.947" y1="462.6646" x2="1216.1956" y2="1644.8101">
	<stop  offset="0" style="stop-color:#F3B62E"/>
	<stop  offset="1" style="stop-color:#F1B01C"/>
</linearGradient>
<path style="fill:url(#SVGID_00000069382845636329397620000017459547799342659770_);" d="M1386.57,1388.87h-299.38
	c-2.01,0-3.63-1.63-3.63-3.63v-51.14c0-2.01,1.63-3.63,3.63-3.63h299.38c2.01,0,3.63,1.63,3.63,3.63v51.14
	C1390.2,1387.24,1388.58,1388.87,1386.57,1388.87z"/>
<linearGradient id="SVGID_00000055696254949144196080000002519099228393034899_" gradientUnits="userSpaceOnUse" x1="1306.8767" y1="462.8051" x2="1221.1254" y2="1644.9507">
	<stop  offset="0" style="stop-color:#F3B62E"/>
	<stop  offset="1" style="stop-color:#F1B01C"/>
</linearGradient>
<path style="fill:url(#SVGID_00000055696254949144196080000002519099228393034899_);" d="M1386.81,1453.65h-299.38
	c-2.01,0-3.63-1.63-3.63-3.63v-51.14c0-2.01,1.63-3.63,3.63-3.63h299.38c2.01,0,3.63,1.63,3.63,3.63v51.14
	C1390.44,1452.02,1388.82,1453.65,1386.81,1453.65z"/>
<linearGradient id="SVGID_00000173848175909236018330000011218883192653576334_" gradientUnits="userSpaceOnUse" x1="1311.8065" y1="462.9454" x2="1226.0551" y2="1645.0914">
	<stop  offset="0" style="stop-color:#F3B62E"/>
	<stop  offset="1" style="stop-color:#F1B01C"/>
</linearGradient>
<path style="fill:url(#SVGID_00000173848175909236018330000011218883192653576334_);" d="M1387.05,1518.43h-299.38
	c-2.01,0-3.63-1.63-3.63-3.63v-51.14c0-2.01,1.63-3.63,3.63-3.63h299.38c2.01,0,3.63,1.63,3.63,3.63v51.14
	C1390.68,1516.81,1389.06,1518.43,1387.05,1518.43z"/>
<linearGradient id="SVGID_00000095339231045098387190000006461081009253633414_" gradientUnits="userSpaceOnUse" x1="1316.4475" y1="463.0653" x2="1230.696" y2="1645.2107">
	<stop  offset="0" style="stop-color:#F3B62E"/>
	<stop  offset="1" style="stop-color:#F1B01C"/>
</linearGradient>
<path style="fill:url(#SVGID_00000095339231045098387190000006461081009253633414_);" d="M1387.05,1582.53h-299.38
	c-2.01,0-3.63-1.63-3.63-3.63v-51.14c0-2.01,1.63-3.63,3.63-3.63h299.38c2.01,0,3.63,1.63,3.63,3.63v51.14
	C1390.68,1580.9,1389.06,1582.53,1387.05,1582.53z"/>
<linearGradient id="SVGID_00000076599777846772418280000001800011187318377918_" gradientUnits="userSpaceOnUse" x1="1016.0193" y1="1270.3185" x2="1225.931" y2="1026.6713">
	<stop  offset="0" style="stop-color:#F3B62E"/>
	<stop  offset="1" style="stop-color:#F1B01C"/>
</linearGradient>
<circle style="fill:url(#SVGID_00000076599777846772418280000001800011187318377918_);" cx="1230.17" cy="1021.75" r="156.5"/>
<linearGradient id="SVGID_00000042726775519588573340000008364398631676946569_" gradientUnits="userSpaceOnUse" x1="1215.3907" y1="681.8039" x2="1245.9147" y2="1383.8398">
	<stop  offset="0" style="stop-color:#F3B62E"/>
	<stop  offset="1" style="stop-color:#F1B01C"/>
</linearGradient>
<circle style="fill:url(#SVGID_00000042726775519588573340000008364398631676946569_);" cx="1230.17" cy="1021.75" r="151.29"/>
<path class="st13" d="M1105.41,962.37c-0.53,0-1.06-0.12-1.56-0.37c-1.71-0.86-2.4-2.95-1.53-4.66
	c24.51-48.55,73.5-78.72,127.85-78.72c8.68,0,17.37,0.78,25.82,2.32c1.89,0.34,3.14,2.15,2.79,4.04c-0.34,1.89-2.15,3.14-4.04,2.79
	c-8.04-1.47-16.31-2.21-24.57-2.21c-51.72,0-98.33,28.7-121.66,74.91C1107.9,961.68,1106.68,962.37,1105.41,962.37z"/>
<ellipse transform="matrix(0.9906 -0.137 0.137 0.9906 -128.8187 178.6787)" class="st14" cx="1233.47" cy="1025.05" rx="128.05" ry="128.05"/>
<linearGradient id="SVGID_00000158009915655261747430000016217332936484275885_" gradientUnits="userSpaceOnUse" x1="1169.9728" y1="1029.8447" x2="1290.3696" y2="1029.8447">
	<stop  offset="0" style="stop-color:#F3B62E"/>
	<stop  offset="1" style="stop-color:#F1B01C"/>
</linearGradient>
<path style="fill:url(#SVGID_00000158009915655261747430000016217332936484275885_);" d="M1169.97,1087.3l2.97-1.61
	c3.35-1.82,6.29-3.86,8.75-6.08c2.4-2.17,4.47-4.62,6.15-7.29c3.31-5.31,5-13.01,5-22.89c0-2.56-0.23-5.2-0.69-7.92h-22.18v-27.2
	h14.9c-2.53-9.41-3.76-16.95-3.76-22.92c0-7.77,1.36-14.9,4.03-21.16c2.69-6.33,6.57-11.79,11.51-16.23
	c4.88-4.4,10.76-7.81,17.48-10.12c6.59-2.27,13.92-3.41,21.78-3.41c7.13,0,13.86,1,20.02,2.97c6.3,2.01,11.89,4.99,16.63,8.86
	c4.82,3.93,8.76,8.88,11.68,14.69c2.89,5.74,4.67,12.38,5.28,19.73l0.51,6.15h-32.5l-0.44-5.21c-1.16-13.67-7.8-19.76-21.54-19.76
	c-3.37,0-6.45,0.58-9.16,1.72c-2.76,1.16-5.01,2.67-6.92,4.63c-1.92,1.99-3.37,4.24-4.44,6.89c-1.05,2.63-1.58,5.45-1.58,8.38
	c0,6.57,1.5,14.9,4.47,24.79h35.39v27.2h-28.75c0.18,1.34,0.26,2.66,0.26,3.93c0,10.12-1.69,18.73-5.02,25.58
	c-1.12,2.32-2.5,4.61-4.13,6.84c1.98,0.02,4.26,0.21,6.98,0.58c2.7,0.36,5.59,0.82,8.7,1.39l9.28,1.7c3.19,0.59,6.18,1.17,8.97,1.72
	c2.71,0.53,5.11,0.97,7.21,1.31c2.41,0.4,3.51,0.45,3.95,0.45c7.16,0,14.32-1.83,21.29-5.46l8.31-4.31v33.76l-3.32,1.52
	c-7.91,3.6-16.43,5.43-25.34,5.43c-6.03,0-14.43-1.69-25.71-5.17c-9.97-3.11-17.37-4.67-22-4.67c-10.82,0-22.9,3.12-35.9,9.3
	l-8.12,3.85V1087.3z"/>
<g>
	
		<linearGradient id="SVGID_00000019646790444336504990000003212742743125942453_" gradientUnits="userSpaceOnUse" x1="930.5775" y1="814.4445" x2="814.0583" y2="1795.6526">
		<stop  offset="0" style="stop-color:#F3B62E"/>
		<stop  offset="1" style="stop-color:#F1B01C"/>
	</linearGradient>
	<path style="fill:url(#SVGID_00000019646790444336504990000003212742743125942453_);" d="M1015.91,1385.63H716.53
		c-2.01,0-3.63-1.63-3.63-3.63v-51.14c0-2.01,1.63-3.63,3.63-3.63h299.38c2.01,0,3.63,1.63,3.63,3.63v51.14
		C1019.54,1384,1017.91,1385.63,1015.91,1385.63z"/>
	
		<linearGradient id="SVGID_00000175304163981813518110000011490915115826335135_" gradientUnits="userSpaceOnUse" x1="938.4355" y1="815.0823" x2="821.9163" y2="1796.2902">
		<stop  offset="0" style="stop-color:#F3B62E"/>
		<stop  offset="1" style="stop-color:#F1B01C"/>
	</linearGradient>
	<path style="fill:url(#SVGID_00000175304163981813518110000011490915115826335135_);" d="M1016.15,1450.41H716.77
		c-2.01,0-3.63-1.63-3.63-3.63v-51.14c0-2.01,1.63-3.63,3.63-3.63h299.38c2.01,0,3.63,1.63,3.63,3.63v51.14
		C1019.78,1448.78,1018.15,1450.41,1016.15,1450.41z"/>
	
		<linearGradient id="SVGID_00000073003237011021441840000006976341746382401954_" gradientUnits="userSpaceOnUse" x1="946.2934" y1="815.7198" x2="829.7742" y2="1796.9279">
		<stop  offset="0" style="stop-color:#F3B62E"/>
		<stop  offset="1" style="stop-color:#F1B01C"/>
	</linearGradient>
	<path style="fill:url(#SVGID_00000073003237011021441840000006976341746382401954_);" d="M1016.39,1515.19H717.01
		c-2.01,0-3.63-1.63-3.63-3.63v-51.14c0-2.01,1.63-3.63,3.63-3.63h299.38c2.01,0,3.63,1.63,3.63,3.63v51.14
		C1020.02,1513.56,1018.4,1515.19,1016.39,1515.19z"/>
	
		<linearGradient id="SVGID_00000038408668967492512510000012561283203901742984_" gradientUnits="userSpaceOnUse" x1="954.1514" y1="816.3565" x2="837.6322" y2="1797.5647">
		<stop  offset="0" style="stop-color:#F3B62E"/>
		<stop  offset="1" style="stop-color:#F1B01C"/>
	</linearGradient>
	<path style="fill:url(#SVGID_00000038408668967492512510000012561283203901742984_);" d="M1016.63,1579.97H717.25
		c-2.01,0-3.63-1.63-3.63-3.63v-51.14c0-2.01,1.63-3.63,3.63-3.63h299.38c2.01,0,3.63,1.63,3.63,3.63v51.14
		C1020.26,1578.34,1018.64,1579.97,1016.63,1579.97z"/>
	
		<linearGradient id="SVGID_00000102533180058054243360000006464911336965945730_" gradientUnits="userSpaceOnUse" x1="961.6915" y1="816.9604" x2="845.1724" y2="1798.1681">
		<stop  offset="0" style="stop-color:#F3B62E"/>
		<stop  offset="1" style="stop-color:#F1B01C"/>
	</linearGradient>
	<path style="fill:url(#SVGID_00000102533180058054243360000006464911336965945730_);" d="M1016.63,1644.07H717.25
		c-2.01,0-3.63-1.63-3.63-3.63v-51.14c0-2.01,1.63-3.63,3.63-3.63h299.38c2.01,0,3.63,1.63,3.63,3.63v51.14
		C1020.26,1642.44,1018.64,1644.07,1016.63,1644.07z"/>
	<g>
		
			<linearGradient id="SVGID_00000039855737182666686960000000061379205578771889_" gradientUnits="userSpaceOnUse" x1="640.6699" y1="1398.1752" x2="850.5817" y2="1154.528">
			<stop  offset="0" style="stop-color:#F3B62E"/>
			<stop  offset="1" style="stop-color:#F1B01C"/>
		</linearGradient>
		<circle style="fill:url(#SVGID_00000039855737182666686960000000061379205578771889_);" cx="854.82" cy="1149.61" r="156.5"/>
		
			<linearGradient id="SVGID_00000003079010765608638410000008736376959614572424_" gradientUnits="userSpaceOnUse" x1="881.4733" y1="687.6525" x2="844.8448" y2="1322.5396">
			<stop  offset="0" style="stop-color:#F3B62E"/>
			<stop  offset="1" style="stop-color:#F1B01C"/>
		</linearGradient>
		<circle style="fill:url(#SVGID_00000003079010765608638410000008736376959614572424_);" cx="854.82" cy="1149.61" r="151.29"/>
		<path class="st13" d="M730.06,1090.23c-0.53,0-1.06-0.12-1.56-0.37c-1.71-0.86-2.4-2.95-1.53-4.66
			c24.51-48.55,73.5-78.72,127.85-78.72c8.68,0,17.37,0.78,25.82,2.32c1.89,0.34,3.14,2.15,2.79,4.04
			c-0.34,1.89-2.15,3.14-4.04,2.79c-8.04-1.47-16.31-2.21-24.57-2.21c-51.72,0-98.33,28.7-121.66,74.91
			C732.56,1089.53,731.33,1090.23,730.06,1090.23z"/>
		
			<ellipse transform="matrix(0.991 -0.1342 0.1342 0.991 -146.934 125.5656)" class="st14" cx="858.12" cy="1152.9" rx="128.05" ry="128.05"/>
		
			<linearGradient id="SVGID_00000084511307677472610260000006716951337389296273_" gradientUnits="userSpaceOnUse" x1="747.8682" y1="1153.7269" x2="948.7614" y2="1153.7269">
			<stop  offset="0" style="stop-color:#F3B62E"/>
			<stop  offset="1" style="stop-color:#F1B01C"/>
		</linearGradient>
		<path style="fill:url(#SVGID_00000084511307677472610260000006716951337389296273_);" d="M896.26,1211.28
			c-8.45,3.82-17.79,5.72-28,5.72c-11.97,0-22.85-2.72-32.65-8.18c-9.79-5.45-17.37-12.96-22.73-22.52
			c-2.21-3.94-3.93-8.13-5.23-12.55h79.42l10.17-17.1h-92.31c-0.04-1.06-0.09-2.11-0.09-3.19c0-3.37,0.22-6.63,0.66-9.8h81.55
			l10.18-17.1h-86.79c2.99-6.48,7.16-12.4,12.54-17.77c12.1-12.08,26.98-18.12,44.64-18.12c20.92,0,39.77,8.85,56.51,26.54
			l24.62-23.46c-10.22-11.87-22.4-21.04-36.52-27.48c-14.12-6.44-28.8-9.66-44.05-9.66c-17.93,0-34.67,4.36-50.21,13.07
			c-15.54,8.72-27.48,20.24-35.82,34.56c-4.04,6.95-7.09,14.39-9.17,22.31h-14.95l-10.18,17.1h22.24c-0.27,3.18-0.45,6.41-0.45,9.73
			c0,1.1,0.04,2.17,0.07,3.26h-11.67l-10.18,17.1h23.5c3.43,19.46,12.01,36.04,25.75,49.71c18.31,18.23,41.83,27.34,70.57,27.34
			c15.58,0,29.45-2.58,41.6-7.73c12.15-5.16,25.05-14.4,38.71-27.73l-23.86-24.89C914.02,1200.53,904.72,1207.47,896.26,1211.28z"/>
	</g>
</g>
<g>
	
		<linearGradient id="SVGID_00000018942545883686570520000015704573189131710642_" gradientUnits="userSpaceOnUse" x1="1670.4655" y1="269.9543" x2="1584.714" y2="1452.0999">
		<stop  offset="0" style="stop-color:#F3B62E"/>
		<stop  offset="1" style="stop-color:#F1B01C"/>
	</linearGradient>
	<path style="fill:url(#SVGID_00000018942545883686570520000015704573189131710642_);" d="M1764.47,1066.88h-299.38
		c-2.01,0-3.63-1.63-3.63-3.63v-51.14c0-2.01,1.63-3.63,3.63-3.63h299.38c2.01,0,3.63,1.63,3.63,3.63v51.14
		C1768.1,1065.25,1766.47,1066.88,1764.47,1066.88z"/>
	
		<linearGradient id="SVGID_00000104678036557882889130000000128909444126285191_" gradientUnits="userSpaceOnUse" x1="1675.3951" y1="270.0946" x2="1589.6437" y2="1452.2407">
		<stop  offset="0" style="stop-color:#F3B62E"/>
		<stop  offset="1" style="stop-color:#F1B01C"/>
	</linearGradient>
	<path style="fill:url(#SVGID_00000104678036557882889130000000128909444126285191_);" d="M1764.71,1131.66h-299.38
		c-2.01,0-3.63-1.63-3.63-3.63v-51.14c0-2.01,1.63-3.63,3.63-3.63h299.38c2.01,0,3.63,1.63,3.63,3.63v51.14
		C1768.34,1130.03,1766.71,1131.66,1764.71,1131.66z"/>
	
		<linearGradient id="SVGID_00000126282541212339502670000000831574929723485118_" gradientUnits="userSpaceOnUse" x1="1680.3248" y1="270.2382" x2="1594.5734" y2="1452.3837">
		<stop  offset="0" style="stop-color:#F3B62E"/>
		<stop  offset="1" style="stop-color:#F1B01C"/>
	</linearGradient>
	<path style="fill:url(#SVGID_00000126282541212339502670000000831574929723485118_);" d="M1764.95,1196.44h-299.38
		c-2.01,0-3.63-1.63-3.63-3.63v-51.14c0-2.01,1.63-3.63,3.63-3.63h299.38c2.01,0,3.63,1.63,3.63,3.63v51.14
		C1768.58,1194.82,1766.95,1196.44,1764.95,1196.44z"/>
	
		<linearGradient id="SVGID_00000022559239597866243940000015547845231745945780_" gradientUnits="userSpaceOnUse" x1="1685.2545" y1="270.3787" x2="1599.5032" y2="1452.5243">
		<stop  offset="0" style="stop-color:#F3B62E"/>
		<stop  offset="1" style="stop-color:#F1B01C"/>
	</linearGradient>
	<path style="fill:url(#SVGID_00000022559239597866243940000015547845231745945780_);" d="M1765.19,1261.22h-299.38
		c-2.01,0-3.63-1.63-3.63-3.63v-51.14c0-2.01,1.63-3.63,3.63-3.63h299.38c2.01,0,3.63,1.63,3.63,3.63v51.14
		C1768.82,1259.6,1767.2,1261.22,1765.19,1261.22z"/>
	
		<linearGradient id="SVGID_00000103233182894609742420000000016467682091445178_" gradientUnits="userSpaceOnUse" x1="1690.1843" y1="270.519" x2="1604.4329" y2="1452.665">
		<stop  offset="0" style="stop-color:#F3B62E"/>
		<stop  offset="1" style="stop-color:#F1B01C"/>
	</linearGradient>
	<path style="fill:url(#SVGID_00000103233182894609742420000000016467682091445178_);" d="M1765.43,1326.01h-299.38
		c-2.01,0-3.63-1.63-3.63-3.63v-51.14c0-2.01,1.63-3.63,3.63-3.63h299.38c2.01,0,3.63,1.63,3.63,3.63v51.14
		C1769.06,1324.38,1767.44,1326.01,1765.43,1326.01z"/>
	
		<linearGradient id="SVGID_00000029023697420118141140000000110553631656145822_" gradientUnits="userSpaceOnUse" x1="1694.8253" y1="270.6389" x2="1609.0739" y2="1452.7843">
		<stop  offset="0" style="stop-color:#F3B62E"/>
		<stop  offset="1" style="stop-color:#F1B01C"/>
	</linearGradient>
	<path style="fill:url(#SVGID_00000029023697420118141140000000110553631656145822_);" d="M1765.43,1390.11h-299.38
		c-2.01,0-3.63-1.63-3.63-3.63v-51.14c0-2.01,1.63-3.63,3.63-3.63h299.38c2.01,0,3.63,1.63,3.63,3.63v51.14
		C1769.06,1388.48,1767.44,1390.11,1765.43,1390.11z"/>
	<g>
		
			<linearGradient id="SVGID_00000146468191971150733450000013331948499728418490_" gradientUnits="userSpaceOnUse" x1="1394.3971" y1="1077.8921" x2="1604.3088" y2="834.2449">
			<stop  offset="0" style="stop-color:#F3B62E"/>
			<stop  offset="1" style="stop-color:#F1B01C"/>
		</linearGradient>
		<circle style="fill:url(#SVGID_00000146468191971150733450000013331948499728418490_);" cx="1608.55" cy="829.32" r="156.5"/>
		
			<linearGradient id="SVGID_00000036968763477220837700000001820076434011122582_" gradientUnits="userSpaceOnUse" x1="1593.7686" y1="489.3775" x2="1624.2925" y2="1191.4135">
			<stop  offset="0" style="stop-color:#F3B62E"/>
			<stop  offset="1" style="stop-color:#F1B01C"/>
		</linearGradient>
		<circle style="fill:url(#SVGID_00000036968763477220837700000001820076434011122582_);" cx="1608.55" cy="829.32" r="151.29"/>
		<path class="st13" d="M1483.79,769.95c-0.53,0-1.06-0.12-1.56-0.37c-1.71-0.86-2.4-2.95-1.53-4.66
			c24.51-48.55,73.5-78.72,127.85-78.72c8.68,0,17.37,0.78,25.82,2.32c1.89,0.34,3.14,2.15,2.79,4.04
			c-0.34,1.89-2.15,3.14-4.04,2.79c-8.04-1.47-16.31-2.21-24.57-2.21c-51.72,0-98.33,28.7-121.66,74.91
			C1486.28,769.25,1485.06,769.95,1483.79,769.95z"/>
		
			<ellipse transform="matrix(0.9906 -0.137 0.137 0.9906 -98.8835 228.7092)" class="st14" cx="1611.85" cy="832.62" rx="128.05" ry="128.05"/>
		<g id="XMLID_4122_">
			
				<linearGradient id="XMLID_00000170257171224486800190000000748230530716606128_" gradientUnits="userSpaceOnUse" x1="1564.3669" y1="840.2016" x2="1658.5857" y2="840.2016">
				<stop  offset="0" style="stop-color:#F3B62E"/>
				<stop  offset="1" style="stop-color:#F1B01C"/>
			</linearGradient>
			<path id="XMLID_4123_" style="fill:url(#XMLID_00000170257171224486800190000000748230530716606128_);" d="M1611.75,786.63
				c0-13.46-7.81-17.77-22.62-17.77h-24.76v-22.88h92.6v22.88h-22.61c3.5,5.11,5.66,11.04,6.73,17.77h15.88v22.88h-15.88
				c-2.16,26.11-22.34,40.65-45.23,40.65l62.72,84.26h-31.76l-62.46-84.26v-22.88h24.76c14.81,0,22.62-4.31,22.62-17.77h-47.38
				v-22.88H1611.75z"/>
		</g>
	</g>
	
		<linearGradient id="SVGID_00000083072051447905107380000000560094021104054955_" gradientUnits="userSpaceOnUse" x1="1690.1843" y1="400.0226" x2="1604.4329" y2="1582.1687">
		<stop  offset="0" style="stop-color:#F3B62E"/>
		<stop  offset="1" style="stop-color:#F1B01C"/>
	</linearGradient>
	<path style="fill:url(#SVGID_00000083072051447905107380000000560094021104054955_);" d="M1765.43,1455.51h-299.38
		c-2.01,0-3.63-1.63-3.63-3.63v-51.14c0-2.01,1.63-3.63,3.63-3.63h299.38c2.01,0,3.63,1.63,3.63,3.63v51.14
		C1769.06,1453.88,1767.44,1455.51,1765.43,1455.51z"/>
	
		<linearGradient id="SVGID_00000137839866112717109210000002374722041770018218_" gradientUnits="userSpaceOnUse" x1="1694.8253" y1="400.1425" x2="1609.0739" y2="1582.288">
		<stop  offset="0" style="stop-color:#F3B62E"/>
		<stop  offset="1" style="stop-color:#F1B01C"/>
	</linearGradient>
	<path style="fill:url(#SVGID_00000137839866112717109210000002374722041770018218_);" d="M1765.43,1519.61h-299.38
		c-2.01,0-3.63-1.63-3.63-3.63v-51.14c0-2.01,1.63-3.63,3.63-3.63h299.38c2.01,0,3.63,1.63,3.63,3.63v51.14
		C1769.06,1517.98,1767.44,1519.61,1765.43,1519.61z"/>
	
		<linearGradient id="SVGID_00000034081017046678381390000015248832253494011046_" gradientUnits="userSpaceOnUse" x1="1316.4475" y1="526.5118" x2="1230.696" y2="1708.6572">
		<stop  offset="0" style="stop-color:#F3B62E"/>
		<stop  offset="1" style="stop-color:#F1B01C"/>
	</linearGradient>
	<path style="fill:url(#SVGID_00000034081017046678381390000015248832253494011046_);" d="M1387.05,1645.98h-299.38
		c-2.01,0-3.63-1.63-3.63-3.63v-51.14c0-2.01,1.63-3.63,3.63-3.63h299.38c2.01,0,3.63,1.63,3.63,3.63v51.14
		C1390.68,1644.35,1389.06,1645.98,1387.05,1645.98z"/>
	
		<linearGradient id="SVGID_00000147909354101058032760000012495375995494322575_" gradientUnits="userSpaceOnUse" x1="2051.2712" y1="79.8032" x2="1965.5199" y2="1261.9489">
		<stop  offset="0" style="stop-color:#F3B62E"/>
		<stop  offset="1" style="stop-color:#F1B01C"/>
	</linearGradient>
	<path style="fill:url(#SVGID_00000147909354101058032760000012495375995494322575_);" d="M2145.27,876.73h-299.38
		c-2.01,0-3.63-1.63-3.63-3.63v-51.14c0-2.01,1.63-3.63,3.63-3.63h299.38c2.01,0,3.63,1.63,3.63,3.63v51.14
		C2148.91,875.1,2147.28,876.73,2145.27,876.73z"/>
	
		<linearGradient id="SVGID_00000065776794001692439390000010000125292271714434_" gradientUnits="userSpaceOnUse" x1="2056.2012" y1="79.9436" x2="1970.4496" y2="1262.0897">
		<stop  offset="0" style="stop-color:#F3B62E"/>
		<stop  offset="1" style="stop-color:#F1B01C"/>
	</linearGradient>
	<path style="fill:url(#SVGID_00000065776794001692439390000010000125292271714434_);" d="M2145.51,941.51h-299.38
		c-2.01,0-3.63-1.63-3.63-3.63v-51.14c0-2.01,1.63-3.63,3.63-3.63h299.38c2.01,0,3.63,1.63,3.63,3.63v51.14
		C2149.15,939.88,2147.52,941.51,2145.51,941.51z"/>
	
		<linearGradient id="SVGID_00000060025103799838960620000008459059143669992064_" gradientUnits="userSpaceOnUse" x1="2061.1306" y1="80.0871" x2="1975.3793" y2="1262.2325">
		<stop  offset="0" style="stop-color:#F3B62E"/>
		<stop  offset="1" style="stop-color:#F1B01C"/>
	</linearGradient>
	<path style="fill:url(#SVGID_00000060025103799838960620000008459059143669992064_);" d="M2145.75,1006.29h-299.38
		c-2.01,0-3.63-1.63-3.63-3.63v-51.14c0-2.01,1.63-3.63,3.63-3.63h299.38c2.01,0,3.63,1.63,3.63,3.63v51.14
		C2149.39,1004.66,2147.76,1006.29,2145.75,1006.29z"/>
	
		<linearGradient id="SVGID_00000026860028426818545090000010163137477377615504_" gradientUnits="userSpaceOnUse" x1="2066.0605" y1="80.2277" x2="1980.3091" y2="1262.3733">
		<stop  offset="0" style="stop-color:#F3B62E"/>
		<stop  offset="1" style="stop-color:#F1B01C"/>
	</linearGradient>
	<path style="fill:url(#SVGID_00000026860028426818545090000010163137477377615504_);" d="M2145.99,1071.07h-299.38
		c-2.01,0-3.63-1.63-3.63-3.63v-51.14c0-2.01,1.63-3.63,3.63-3.63h299.38c2.01,0,3.63,1.63,3.63,3.63v51.14
		C2149.63,1069.45,2148,1071.07,2145.99,1071.07z"/>
	
		<linearGradient id="SVGID_00000066478153500750012630000016234520675933815728_" gradientUnits="userSpaceOnUse" x1="2070.9902" y1="80.3679" x2="1985.2388" y2="1262.514">
		<stop  offset="0" style="stop-color:#F3B62E"/>
		<stop  offset="1" style="stop-color:#F1B01C"/>
	</linearGradient>
	<path style="fill:url(#SVGID_00000066478153500750012630000016234520675933815728_);" d="M2146.23,1135.86h-299.38
		c-2.01,0-3.63-1.63-3.63-3.63v-51.14c0-2.01,1.63-3.63,3.63-3.63h299.38c2.01,0,3.63,1.63,3.63,3.63v51.14
		C2149.87,1134.23,2148.24,1135.86,2146.23,1135.86z"/>
	
		<linearGradient id="SVGID_00000144314956175577508710000008281697144496671908_" gradientUnits="userSpaceOnUse" x1="2075.6311" y1="80.4879" x2="1989.8798" y2="1262.6333">
		<stop  offset="0" style="stop-color:#F3B62E"/>
		<stop  offset="1" style="stop-color:#F1B01C"/>
	</linearGradient>
	<path style="fill:url(#SVGID_00000144314956175577508710000008281697144496671908_);" d="M2146.23,1199.95h-299.38
		c-2.01,0-3.63-1.63-3.63-3.63v-51.14c0-2.01,1.63-3.63,3.63-3.63h299.38c2.01,0,3.63,1.63,3.63,3.63v51.14
		C2149.87,1198.33,2148.24,1199.95,2146.23,1199.95z"/>
	<g>
		
			<linearGradient id="SVGID_00000096771544584964951290000006377458294618897086_" gradientUnits="userSpaceOnUse" x1="1775.203" y1="887.7411" x2="1985.1149" y2="644.0938">
			<stop  offset="0" style="stop-color:#F3B62E"/>
			<stop  offset="1" style="stop-color:#F1B01C"/>
		</linearGradient>
		<circle style="fill:url(#SVGID_00000096771544584964951290000006377458294618897086_);" cx="1989.35" cy="639.17" r="156.5"/>
		
			<linearGradient id="SVGID_00000127017475143730565490000017349334638629226658_" gradientUnits="userSpaceOnUse" x1="1974.5745" y1="299.2265" x2="2005.0984" y2="1001.2625">
			<stop  offset="0" style="stop-color:#F3B62E"/>
			<stop  offset="1" style="stop-color:#F1B01C"/>
		</linearGradient>
		<circle style="fill:url(#SVGID_00000127017475143730565490000017349334638629226658_);" cx="1989.35" cy="639.17" r="151.29"/>
		<path class="st13" d="M1864.6,579.79c-0.53,0-1.06-0.12-1.56-0.37c-1.71-0.86-2.4-2.95-1.53-4.66
			c24.51-48.55,73.5-78.72,127.85-78.72c8.68,0,17.37,0.78,25.82,2.32c1.89,0.34,3.14,2.15,2.79,4.04
			c-0.34,1.89-2.15,3.14-4.04,2.79c-8.04-1.47-16.31-2.21-24.57-2.21c-51.72,0-98.33,28.7-121.66,74.91
			C1867.09,579.1,1865.87,579.79,1864.6,579.79z"/>
		
			<ellipse transform="matrix(0.9906 -0.137 0.137 0.9906 -69.2372 279.0939)" class="st14" cx="1992.65" cy="642.47" rx="128.05" ry="128.05"/>
		<g>
			
				<linearGradient id="SVGID_00000091729858546763246030000005033244810295971987_" gradientUnits="userSpaceOnUse" x1="2029.4073" y1="359.8026" x2="2004.2268" y2="561.2468">
				<stop  offset="0" style="stop-color:#F3B62E"/>
				<stop  offset="1" style="stop-color:#F1B01C"/>
			</linearGradient>
			<path style="fill:url(#SVGID_00000091729858546763246030000005033244810295971987_);" d="M1980.09,737.66v-13.93
				c-14.52-0.58-28.89-4.01-39.09-8.48c-3.64-1.59-5.5-5.68-4.45-9.52l3.54-12.98c1.3-4.76,6.48-7.22,11.03-5.32
				c10.12,4.24,22.62,7.6,36.09,7.6c13.99,0,24.42-4.74,24.42-14.46c0-8.77-8.06-13.99-27.5-19.2
				c-27.74-7.59-47.66-19.68-47.66-44.1c0-22.05,16.12-38.88,44.1-43.39v-13.93c0-4.48,3.63-8.12,8.12-8.12h8.19
				c4.48,0,8.12,3.63,8.12,8.12v12.51c13.44,0.54,23.22,2.84,30.98,5.56c3.98,1.4,6.15,5.68,5.05,9.75l-3.25,12
				c-1.26,4.63-6.2,7.16-10.69,5.47c-7.15-2.7-17.25-5.52-30.39-5.52c-16.6,0-21.34,6.87-21.34,13.04c0,7.59,9.96,12.8,31.53,19.44
				c30.82,9.25,43.62,22.05,43.62,45.05c0,21.1-15.65,40.07-45.99,44.81v15.59c0,4.48-3.63,8.12-8.12,8.12h-8.19
				C1983.72,745.78,1980.09,742.15,1980.09,737.66z"/>
		</g>
	</g>
	
		<linearGradient id="SVGID_00000080895213029675561270000017000553589325262771_" gradientUnits="userSpaceOnUse" x1="2070.9902" y1="209.8716" x2="1985.2388" y2="1392.0177">
		<stop  offset="0" style="stop-color:#F3B62E"/>
		<stop  offset="1" style="stop-color:#F1B01C"/>
	</linearGradient>
	<path style="fill:url(#SVGID_00000080895213029675561270000017000553589325262771_);" d="M2146.23,1265.36h-299.38
		c-2.01,0-3.63-1.63-3.63-3.63v-51.14c0-2.01,1.63-3.63,3.63-3.63h299.38c2.01,0,3.63,1.63,3.63,3.63v51.14
		C2149.87,1263.73,2148.24,1265.36,2146.23,1265.36z"/>
	
		<linearGradient id="SVGID_00000040545990715006002890000004226156820592753845_" gradientUnits="userSpaceOnUse" x1="2075.6311" y1="209.9915" x2="1989.8798" y2="1392.137">
		<stop  offset="0" style="stop-color:#F3B62E"/>
		<stop  offset="1" style="stop-color:#F1B01C"/>
	</linearGradient>
	<path style="fill:url(#SVGID_00000040545990715006002890000004226156820592753845_);" d="M2146.23,1329.46h-299.38
		c-2.01,0-3.63-1.63-3.63-3.63v-51.14c0-2.01,1.63-3.63,3.63-3.63h299.38c2.01,0,3.63,1.63,3.63,3.63v51.14
		C2149.87,1327.83,2148.24,1329.46,2146.23,1329.46z"/>
	
		<linearGradient id="SVGID_00000030459369180249597350000013554894357651279545_" gradientUnits="userSpaceOnUse" x1="2075.6311" y1="274.6659" x2="1989.8798" y2="1456.8114">
		<stop  offset="0" style="stop-color:#F3B62E"/>
		<stop  offset="1" style="stop-color:#F1B01C"/>
	</linearGradient>
	<path style="fill:url(#SVGID_00000030459369180249597350000013554894357651279545_);" d="M2146.23,1394.13h-299.38
		c-2.01,0-3.63-1.63-3.63-3.63v-51.14c0-2.01,1.63-3.63,3.63-3.63h299.38c2.01,0,3.63,1.63,3.63,3.63v51.14
		C2149.87,1392.51,2148.24,1394.13,2146.23,1394.13z"/>
	
		<linearGradient id="SVGID_00000047061344728535830890000004485250202710537631_" gradientUnits="userSpaceOnUse" x1="2067.0964" y1="401.99" x2="1981.3451" y2="1584.1361">
		<stop  offset="0" style="stop-color:#F3B62E"/>
		<stop  offset="1" style="stop-color:#F1B01C"/>
	</linearGradient>
	<path style="fill:url(#SVGID_00000047061344728535830890000004485250202710537631_);" d="M2142.34,1457.48h-299.38
		c-2.01,0-3.63-1.63-3.63-3.63v-51.14c0-2.01,1.63-3.63,3.63-3.63h299.38c2.01,0,3.63,1.63,3.63,3.63v51.14
		C2145.97,1455.85,2144.35,1457.48,2142.34,1457.48z"/>
	
		<linearGradient id="SVGID_00000178897745458942149150000013703247461799878044_" gradientUnits="userSpaceOnUse" x1="2071.7375" y1="402.11" x2="1985.9861" y2="1584.2554">
		<stop  offset="0" style="stop-color:#F3B62E"/>
		<stop  offset="1" style="stop-color:#F1B01C"/>
	</linearGradient>
	<path style="fill:url(#SVGID_00000178897745458942149150000013703247461799878044_);" d="M2142.34,1521.58h-299.38
		c-2.01,0-3.63-1.63-3.63-3.63v-51.14c0-2.01,1.63-3.63,3.63-3.63h299.38c2.01,0,3.63,1.63,3.63,3.63v51.14
		C2145.97,1519.95,2144.35,1521.58,2142.34,1521.58z"/>
	
		<linearGradient id="SVGID_00000053521025127693290430000017950361173681694633_" gradientUnits="userSpaceOnUse" x1="2067.0964" y1="531.4937" x2="1981.3451" y2="1713.6398">
		<stop  offset="0" style="stop-color:#F3B62E"/>
		<stop  offset="1" style="stop-color:#F1B01C"/>
	</linearGradient>
	<path style="fill:url(#SVGID_00000053521025127693290430000017950361173681694633_);" d="M2142.34,1586.98h-299.38
		c-2.01,0-3.63-1.63-3.63-3.63v-51.14c0-2.01,1.63-3.63,3.63-3.63h299.38c2.01,0,3.63,1.63,3.63,3.63v51.14
		C2145.97,1585.35,2144.35,1586.98,2142.34,1586.98z"/>
	
		<linearGradient id="SVGID_00000032627520956568147760000014546663280776136875_" gradientUnits="userSpaceOnUse" x1="2071.7375" y1="531.6136" x2="1985.9861" y2="1713.759">
		<stop  offset="0" style="stop-color:#F3B62E"/>
		<stop  offset="1" style="stop-color:#F1B01C"/>
	</linearGradient>
	<path style="fill:url(#SVGID_00000032627520956568147760000014546663280776136875_);" d="M2142.34,1651.08h-299.38
		c-2.01,0-3.63-1.63-3.63-3.63v-51.14c0-2.01,1.63-3.63,3.63-3.63h299.38c2.01,0,3.63,1.63,3.63,3.63v51.14
		C2145.97,1649.45,2144.35,1651.08,2142.34,1651.08z"/>
	
		<linearGradient id="SVGID_00000177457896788043344910000009278214750610088865_" gradientUnits="userSpaceOnUse" x1="1690.1843" y1="529.2369" x2="1604.4329" y2="1711.3831">
		<stop  offset="0" style="stop-color:#F3B62E"/>
		<stop  offset="1" style="stop-color:#F1B01C"/>
	</linearGradient>
	<path style="fill:url(#SVGID_00000177457896788043344910000009278214750610088865_);" d="M1765.43,1584.72h-299.38
		c-2.01,0-3.63-1.63-3.63-3.63v-51.14c0-2.01,1.63-3.63,3.63-3.63h299.38c2.01,0,3.63,1.63,3.63,3.63v51.14
		C1769.06,1583.1,1767.44,1584.72,1765.43,1584.72z"/>
	
		<linearGradient id="SVGID_00000072272742466491774420000005035919431098187649_" gradientUnits="userSpaceOnUse" x1="1694.8253" y1="529.3569" x2="1609.0739" y2="1711.5023">
		<stop  offset="0" style="stop-color:#F3B62E"/>
		<stop  offset="1" style="stop-color:#F1B01C"/>
	</linearGradient>
	<path style="fill:url(#SVGID_00000072272742466491774420000005035919431098187649_);" d="M1765.43,1648.82h-299.38
		c-2.01,0-3.63-1.63-3.63-3.63v-51.14c0-2.01,1.63-3.63,3.63-3.63h299.38c2.01,0,3.63,1.63,3.63,3.63v51.14
		C1769.06,1647.2,1767.44,1648.82,1765.43,1648.82z"/>
</g>
</svg>
