<?xml version="1.0" encoding="utf-8"?>
<!-- Generator: Adobe Illustrator 27.2.0, SVG Export Plug-In . SVG Version: 6.00 Build 0)  -->
<svg version="1.1" id="Layer_1" xmlns="http://www.w3.org/2000/svg" xmlns:xlink="http://www.w3.org/1999/xlink" x="0px" y="0px"
	 viewBox="0 0 2880 1800" style="enable-background:new 0 0 2880 1800;" xml:space="preserve">
<style type="text/css">
	.st0{fill:#DEE9F6;}
	.st1{fill:#ACC5E6;}
	.st2{opacity:0.2;}
	.st3{fill:#ABC4E6;}
	.st4{fill:#A0BFE4;}
	.st5{fill:#FFFFFF;}
	.st6{fill:#C0DCF2;}
	.st7{fill:#A9CA92;}
	.st8{fill:#1D9585;}
	.st9{fill:#524A7A;}
	.st10{fill:#7CA8D9;}
	.st11{fill:#CFE4F5;}
	.st12{fill:#C58C6A;}
	.st13{fill:#D29C78;}
	.st14{fill:#F18D7B;}
	.st15{fill:#8A4F2A;}
	.st16{opacity:0.5;}
</style>
<g>
	<path class="st0" d="M1617.6,55.5c-131.05-75.19-272.85,131.05-272.85,131.05s62.3,298.63,32.23,337.3
		c-30.08,38.67-103.12-244.92-103.12-244.92c-73.05,60.16-161.13,311.52-161.13,311.52s221.29,199.8,182.61,229.88
		c-38.67,30.08-186.91-186.91-186.91-186.91c-45.12,83.79-30.08,219.14-30.08,219.14c47.27,197.65,298.63,126.76,298.63,126.76
		s75.19,70.9,113.86,199.8l0,0c0,0,5.29,25.65,21.23,62.3l17.57-17.57c-3.28-6.15-6.25-12.28-8.87-18.41
		c-0.03-0.03-0.05-0.07-0.05-0.11c-0.04-0.09-0.07-0.18-0.11-0.27c-1.51-3.92-3.64-9.51-6.2-16.38c0-0.01-0.01-0.02-0.01-0.03
		c-0.01-0.01,0-0.02-0.01-0.03c-5.14-15.88-9.28-27.27-12.59-35.17c-0.01-0.03-0.02-0.05-0.03-0.07
		c-16.9-49.07-36.71-115.23-30.27-139.7c0,0-4.68-0.79-11.82-4.3c3.77,1.37,7.7,2.8,11.82,4.3
		c94.53,34.37,255.66-105.27,322.26-206.25c66.6-100.97,6.45-88.08-77.03-81.32c-83.47,6.76-167.89,111.4-210.86,124.29
		c-42.97,12.89-17.19-42.97,42.97-94.53c60.16-51.56,143.94-23.63,242.77-105.27c98.83-81.64-2.15-320.11-2.15-320.11
		c-42.97,81.64-189.06,158.98-214.84,141.79c-25.78-17.19,141.79-180.47,161.13-212.69C1755.09,227.37,1748.65,130.69,1617.6,55.5z"
		/>
	<path class="st1" d="M2080.24,938.73c70.21-40.28,146.17,70.21,146.17,70.21s-33.38,159.98-17.26,180.7
		c16.11,20.72,55.25-131.21,55.25-131.21c39.13,32.23,86.32,166.89,86.32,166.89s-118.55,107.04-97.83,123.15
		c20.72,16.11,100.13-100.13,100.13-100.13c24.17,44.89,16.11,117.4,16.11,117.4c-25.32,105.89-159.98,67.91-159.98,67.91
		s-40.28,37.98-61,107.04l0,0c0,0-2.83,13.74-11.38,33.37l-9.41-9.41c1.76-3.29,3.35-6.58,4.75-9.86c0.02-0.02,0.02-0.04,0.02-0.06
		c0.02-0.05,0.04-0.09,0.06-0.14c0.81-2.1,1.95-5.09,3.32-8.77c0,0,0-0.01,0-0.01c0.01-0.01,0-0.01,0.01-0.02
		c2.75-8.51,4.97-14.61,6.74-18.84c0-0.01,0.01-0.03,0.02-0.04c9.05-26.29,19.67-61.73,16.22-74.84c0,0,2.51-0.42,6.33-2.3
		c-2.02,0.73-4.12,1.5-6.33,2.3c-50.64,18.42-136.96-56.4-172.65-110.49c-35.68-54.1-3.45-47.19,41.27-43.57
		c44.72,3.62,89.94,59.68,112.96,66.59c23.02,6.91,9.21-23.02-23.02-50.64c-32.23-27.62-77.11-12.66-130.06-56.4
		c-52.95-43.74,1.15-171.49,1.15-171.49c23.02,43.74,101.28,85.17,115.1,75.96c13.81-9.21-75.96-96.68-86.32-113.94
		C2006.57,1030.81,2010.03,979.02,2080.24,938.73z"/>
	<path class="st0" d="M694.77,796.61c-113.93-7.34-141.38,179.77-141.38,179.77s141.74,181.77,134.22,218.01
		c-7.52,36.25-151.53-131.74-151.53-131.74c-29.5,65.13-5.5,264.94-5.5,264.94s216.63,61.78,200.43,95.06
		c-16.21,33.28-189.03-64.49-189.03-64.49c-2.68,71.85,52.6,158.63,52.6,158.63c97.9,118.3,244.75-13.52,244.75-13.52
		s74.61,23.03,143.78,97.57l0,0c0,0,12.13,15.63,35.15,35.17l6.06-17.77c-4.27-3.08-8.33-6.25-12.15-9.53
		c-0.03-0.01-0.05-0.03-0.07-0.06c-0.06-0.05-0.11-0.1-0.16-0.14c-2.33-2.15-5.64-5.24-9.66-9.04c-0.01-0.01-0.01-0.01-0.01-0.01
		c-0.01,0-0.01-0.02-0.02-0.02c-8.78-9.05-15.38-15.4-20.25-19.65c-0.01-0.01-0.03-0.03-0.05-0.04
		c-27.81-27.65-63.28-65.92-67.07-84.66c0,0-3.44,1.02-9.45,1.02c3.01-0.33,6.15-0.67,9.45-1.02
		c75.56-8.18,138.31-156.56,149.84-247.23c11.53-90.67-24.97-61.88-79.33-29.49c-54.36,32.39-76.75,131.48-101.59,154.54
		c-24.85,23.06-25.97-23.41-2.35-78.42c23.62-55.01,89.75-63.98,129.57-152.27c39.83-88.29-108.1-216.38-108.1-216.38
		c-1.94,69.68-75.25,170.8-98.46,167.73c-23.21-3.07,36.04-169.63,38.42-197.92C845.28,867.36,808.7,803.94,694.77,796.61z"/>
</g>
<g>
	<g class="st2">
		<path class="st3" d="M2663.96,1774H334.92c-141.42-53.85-176.46-553.21,196.77-579.78c372.75-26.54-136.88-608.4,395.92-684.82
			c532.85-76.44,742.35,903.75,1241.03,701.57c137.16-55.59,263.96-49.01,357.5,64.94C2665.38,1445.58,2663.96,1774,2663.96,1774z"
			/>
	</g>
	<g>
		<path class="st4" d="M1859.37,1647.45h-744.52c-16.71,0-30.25-13.54-30.25-30.25V621.23c0-16.71,13.54-30.25,30.25-30.25h744.52
			c16.71,0,30.25,13.54,30.25,30.25v995.96C1889.62,1633.91,1876.08,1647.45,1859.37,1647.45z"/>
	</g>
	<g>
		<polygon class="st5" points="1836.07,811.05 1836.07,1698.09 1031.04,1698.09 1031.04,641.62 1690.43,641.62 		"/>
	</g>
	<g>
		<path class="st6" d="M1837.49,1699.51h-807.86V640.2h661.46l0.43,0.49l145.98,169.83V1699.51z M1032.46,1696.67h802.18V811.58
			l-144.87-168.53h-657.31V1696.67z"/>
	</g>
	<g>
		<polygon class="st6" points="1836.07,811.05 1690.43,811.05 1690.43,641.62 		"/>
	</g>
	<g>
		<g>
			<g>
				<path class="st7" d="M1732.56,1401.28h-203.75c-13.66,0-24.73-11.07-24.73-24.73l0-182.9c0-13.66,11.07-24.73,24.73-24.73
					h203.75c13.66,0,24.73,11.07,24.73,24.73v182.9C1757.29,1390.21,1746.22,1401.28,1732.56,1401.28z"/>
			</g>
		</g>
		<g>
			<g>
				<g>
					<polygon class="st8" points="1627.04,1358.51 1535.43,1270.22 1562.3,1242.34 1622.12,1299.99 1688.17,1210.52 
						1719.33,1233.52 					"/>
				</g>
			</g>
			<g>
				<g>
					<polygon class="st5" points="1639.26,1354.79 1547.65,1266.5 1574.52,1238.62 1634.33,1296.27 1700.39,1206.8 1731.54,1229.81 
											"/>
				</g>
			</g>
		</g>
	</g>
	<g>
		<path d="M1282.2,723.75c-8.67,0-17.21-4.13-22.45-11.78l-80.42-117.53c-6.85-10.01-9.37-22.08-7.09-34
			c2.28-11.91,9.08-22.2,19.14-28.98c8.68-5.85,19.12-7.96,29.4-5.95c10.27,2.01,19.15,7.89,25,16.58l104.48,155.21
			c2.19,3.25,1.33,7.66-1.92,9.85c-3.25,2.19-7.66,1.33-9.85-1.92L1234,550.02c-3.73-5.54-9.39-9.29-15.94-10.58
			c-6.55-1.28-13.21,0.07-18.75,3.8c-6.9,4.65-11.56,11.7-13.13,19.87c-1.56,8.17,0.16,16.45,4.86,23.32l80.43,117.53
			c4,5.84,12.03,7.38,17.9,3.43c5.89-3.97,7.48-12,3.54-17.91l-56.08-84.07c-2.17-3.26-1.29-7.66,1.97-9.84
			c3.26-2.17,7.66-1.29,9.84,1.97l56.08,84.07c8.26,12.39,4.94,29.24-7.42,37.55C1292.67,722.26,1287.41,723.75,1282.2,723.75z"/>
	</g>
	<g>
		<polygon class="st5" points="1335.98,641.62 1284.02,641.62 1347.9,734.63 1370.73,712.13 		"/>
	</g>
	<g>
		<polygon class="st9" points="1256.22,590.98 1289.32,590.98 1318.44,641.62 1284.02,641.62 		"/>
	</g>
	<g>
		<g>
			<path class="st10" d="M1616.11,841.45h-357c-4.13,0-7.51-3.38-7.51-7.51l0,0c0-4.13,3.38-7.51,7.51-7.51h357
				c4.13,0,7.51,3.38,7.51,7.51l0,0C1623.62,838.08,1620.24,841.45,1616.11,841.45z"/>
		</g>
		<g>
			<path class="st10" d="M1643.65,878.32h-412.09c-4.13,0-7.51-3.38-7.51-7.51l0,0c0-4.13,3.38-7.51,7.51-7.51h412.09
				c4.13,0,7.51,3.38,7.51,7.51l0,0C1651.16,874.94,1647.78,878.32,1643.65,878.32z"/>
		</g>
	</g>
	<g>
		<g>
			<g>
				<g>
					<path class="st11" d="M1470.3,1005.15h-343.59c-4.14,0-7.53-3.39-7.53-7.53v0c0-4.14,3.39-7.53,7.53-7.53h343.59
						c4.14,0,7.53,3.39,7.53,7.53l0,0C1477.83,1001.76,1474.44,1005.15,1470.3,1005.15z"/>
				</g>
				<g>
					<path class="st11" d="M1749.77,1005.15h-238.38c-4.14,0-7.53-3.39-7.53-7.53l0,0c0-4.14,3.39-7.53,7.53-7.53h238.38
						c4.14,0,7.53,3.39,7.53,7.53l0,0C1757.29,1001.76,1753.91,1005.15,1749.77,1005.15z"/>
				</g>
			</g>
			<g>
				<g>
					<path class="st11" d="M1368.46,952h-241.74c-4.14,0-7.53-3.39-7.53-7.53l0,0c0-4.14,3.39-7.53,7.53-7.53h241.74
						c4.14,0,7.53,3.39,7.53,7.53l0,0C1375.98,948.61,1372.6,952,1368.46,952z"/>
				</g>
				<g>
					<path class="st11" d="M1598.3,952h-186.91c-4.14,0-7.53-3.39-7.53-7.53l0,0c0-4.14,3.39-7.53,7.53-7.53h186.91
						c4.14,0,7.53,3.39,7.53,7.53l0,0C1605.83,948.61,1602.44,952,1598.3,952z"/>
				</g>
				<g>
					<path class="st11" d="M1749.77,952h-114.94c-4.14,0-7.53-3.39-7.53-7.53l0,0c0-4.14,3.39-7.53,7.53-7.53h114.94
						c4.14,0,7.53,3.39,7.53,7.53l0,0C1757.29,948.61,1753.91,952,1749.77,952z"/>
				</g>
			</g>
			<g>
				<g>
					<path class="st11" d="M1368.46,1058.3h-241.74c-4.14,0-7.53-3.39-7.53-7.53l0,0c0-4.14,3.39-7.53,7.53-7.53h241.74
						c4.14,0,7.53,3.39,7.53,7.53l0,0C1375.98,1054.91,1372.6,1058.3,1368.46,1058.3z"/>
				</g>
				<g>
					<path class="st11" d="M1598.3,1058.3h-186.91c-4.14,0-7.53-3.39-7.53-7.53l0,0c0-4.14,3.39-7.53,7.53-7.53h186.91
						c4.14,0,7.53,3.39,7.53,7.53l0,0C1605.83,1054.91,1602.44,1058.3,1598.3,1058.3z"/>
				</g>
				<g>
					<path class="st11" d="M1749.77,1058.3h-114.94c-4.14,0-7.53-3.39-7.53-7.53l0,0c0-4.14,3.39-7.53,7.53-7.53h114.94
						c4.14,0,7.53,3.39,7.53,7.53l0,0C1757.29,1054.91,1753.91,1058.3,1749.77,1058.3z"/>
				</g>
			</g>
		</g>
		<g>
			<path class="st11" d="M1405.82,1166.16h-285.03c-0.88,0-1.6-0.72-1.6-1.6v-11.85c0-0.88,0.72-1.6,1.6-1.6h285.03
				c0.88,0,1.6,0.72,1.6,1.6v11.85C1407.42,1165.43,1406.7,1166.16,1405.82,1166.16z"/>
		</g>
		<g>
			<path class="st11" d="M1368.46,1113.01h-241.74c-4.14,0-7.53-3.39-7.53-7.53l0,0c0-4.14,3.39-7.53,7.53-7.53h241.74
				c4.14,0,7.53,3.39,7.53,7.53l0,0C1375.98,1109.62,1372.6,1113.01,1368.46,1113.01z"/>
		</g>
		<g>
			<path class="st11" d="M1598.3,1113.01h-186.91c-4.14,0-7.53-3.39-7.53-7.53l0,0c0-4.14,3.39-7.53,7.53-7.53h186.91
				c4.14,0,7.53,3.39,7.53,7.53l0,0C1605.83,1109.62,1602.44,1113.01,1598.3,1113.01z"/>
		</g>
		<g>
			<path class="st11" d="M1749.77,1113.01h-114.94c-4.14,0-7.53-3.39-7.53-7.53l0,0c0-4.14,3.39-7.53,7.53-7.53h114.94
				c4.14,0,7.53,3.39,7.53,7.53l0,0C1757.29,1109.62,1753.91,1113.01,1749.77,1113.01z"/>
		</g>
	</g>
	<g>
		<g>
			<path class="st11" d="M1127.52,1275.86h194.02c3.21,0,5.83-2.62,5.83-5.83l0,0c0-3.21-2.62-5.83-5.83-5.83h-194.02
				c-3.21,0-5.83,2.62-5.83,5.83l0,0C1121.69,1273.24,1124.32,1275.86,1127.52,1275.86z"/>
		</g>
		<g>
			<path class="st11" d="M1127.52,1358.46h194.02c3.21,0,5.83-2.62,5.83-5.83l0,0c0-3.21-2.62-5.83-5.83-5.83h-194.02
				c-3.21,0-5.83,2.62-5.83,5.83l0,0C1121.69,1355.83,1124.32,1358.46,1127.52,1358.46z"/>
		</g>
		<g>
			<path class="st11" d="M1127.52,1234.68h93.84c3.21,0,5.83-2.62,5.83-5.83v0c0-3.21-2.62-5.83-5.83-5.83h-93.84
				c-3.21,0-5.83,2.62-5.83,5.83l0,0C1121.69,1232.06,1124.32,1234.68,1127.52,1234.68z"/>
		</g>
		<g>
			<path class="st11" d="M1127.52,1317.05h93.84c3.21,0,5.83-2.62,5.83-5.83v0c0-3.21-2.62-5.83-5.83-5.83h-93.84
				c-3.21,0-5.83,2.62-5.83,5.83l0,0C1121.69,1314.42,1124.32,1317.05,1127.52,1317.05z"/>
		</g>
		<g>
			<path class="st11" d="M1127.52,1398.99h93.84c3.21,0,5.83-2.62,5.83-5.83l0,0c0-3.21-2.62-5.83-5.83-5.83h-93.84
				c-3.21,0-5.83,2.62-5.83,5.83l0,0C1121.69,1396.37,1124.32,1398.99,1127.52,1398.99z"/>
		</g>
	</g>
	<g>
		<g>
			<rect x="1290.18" y="1529.47" class="st11" width="253.51" height="117.58"/>
		</g>
		<g>
			<g>
				<g>
					<g>
						<g>
							<g>
								<path class="st12" d="M1578.25,1386.8c-12.27,24.4-23.88,49.16-36.15,75.79c-9.54,20.7-18.27,42.33-28.76,66.88
									c-33.02,77.28-61.34,127.05-63.6,131.59c-0.28,0.5-5.26,9.58-6.42,11.57c0.17,0,1.04-0.07,1.81,0.07
									c19.45,2.63,40.55,69.02,10.32,94.67c-0.01,0-0.02,0.01-0.02,0.01c-1.31,1.11-4.83,3.46-9.85,6.61
									c-119.79-0.16-147.11-0.2-279.7-0.35c10.31-44.76,24.23-138.41,34.33-170.67c24.61-78.64,28.09-125.49,54.34-134.15
									c12.26-4.05,24.26-7.11,35.84,7.41c2.94,3.68,14.01-13.35,33.91-11.31c34.87,3.56,27.76,25.26,32.92,33.32
									c0.36,0.57,0.76,0.89,1.21,1.01h0.01c5.3,1.34,16.36-27.63,37.39-28.29c42.68-1.33,35.11,35.85,38.8,42.16
									c6.79,11.81,73.25-123,114.23-175.96C1570.25,1309.5,1608.2,1327.21,1578.25,1386.8z"/>
							</g>
						</g>
					</g>
				</g>
			</g>
		</g>
		<g>
			<g>
				<g>
					<path class="st13" d="M1585.42,1339.31c0,0-5.2,24.01-14.52,28.16c-9.32,4.15-24.73-5.43-24.91-10.11
						c-0.18-4.68,13.76-27.1,16.66-28.27C1565.55,1327.92,1582.21,1333.61,1585.42,1339.31z"/>
				</g>
			</g>
		</g>
		<g>
			<g>
				<g>
					<g>
						<path class="st14" d="M1447.15,1667.34c-9.82,14.45-18.29,29.71-25.37,45.68c-0.39,0.88-1.68,0.12-1.3-0.76
							c7.08-15.97,15.55-31.23,25.37-45.68C1446.39,1665.79,1447.69,1666.54,1447.15,1667.34L1447.15,1667.34z"/>
					</g>
				</g>
			</g>
		</g>
		<g>
			<g>
				<path class="st12" d="M1587.32,1580.31c0,0.1-13.82,13.83-25.98,31.38c-6.36,9.17-11.92,19.02-13.91,27.54
					c-5.62,24.13-11.09,34.76-39.83,71.14c-10.59,13.4-33.76,50.67-44.5,60.58c-1.14,1.06-2.28,2.08-3.41,3.06
					c-19.72-0.02,3.54,0.01-137.82-0.18c-1.83-19.57,6.06-41.67,27.27-58.15c36.27-28.17,76.76-42.95,98.99-52.72h0.01
					c0.01,0,1.86-0.84,1.87-0.84c14.05-6.28,14-8.07,15.53-10.6c6.06-10.36,25.53-35.03,35.1-42.32
					c5.21-8.04,14.66-19.92,23.64-28.65c7.67-7.46,18-15.69,28.38-18.13C1578.39,1556.28,1595.34,1571.62,1587.32,1580.31z"/>
			</g>
		</g>
		<g>
			<g>
				<g>
					<path class="st15" d="M1459.08,1643.83c-12.17,23.41-22.64,47.66-31.34,72.57c-0.28,0.81-1.57,0.46-1.29-0.35
						c8.73-25.02,19.25-49.38,31.48-72.89C1458.33,1642.39,1459.48,1643.07,1459.08,1643.83L1459.08,1643.83z"/>
				</g>
			</g>
		</g>
		<g>
			<g>
				<g>
					<path class="st14" d="M1501.89,1608.33c3.97,0.14,7.75,1,11.4,2.57c0.79,0.34,0.11,1.49-0.67,1.15
						c-3.43-1.48-6.99-2.26-10.72-2.39C1501.03,1609.63,1501.03,1608.3,1501.89,1608.33L1501.89,1608.33z"/>
				</g>
			</g>
		</g>
		<g>
			<g>
				<g>
					<path class="st14" d="M1503.43,1609.29c1.58,1.26,3.01,2.68,4.28,4.26c0.53,0.66-0.41,1.61-0.94,0.94
						c-1.27-1.58-2.69-3-4.28-4.26C1501.81,1609.69,1502.76,1608.76,1503.43,1609.29L1503.43,1609.29z"/>
				</g>
			</g>
		</g>
		<g>
			<g>
				<g>
					<path class="st14" d="M1459.02,1657.92c2.34-1.64,4.97-2.56,7.81-2.82c0.85-0.08,0.85,1.26,0,1.33
						c-2.61,0.24-4.99,1.14-7.14,2.64C1458.98,1659.57,1458.32,1658.41,1459.02,1657.92L1459.02,1657.92z"/>
				</g>
			</g>
		</g>
		<g>
			<g>
				<g>
					<path class="st15" d="M1441.92,1509.21c-4.53,4.72-9.07,9.44-13.6,14.16c-0.6,0.62-1.54-0.32-0.94-0.94
						c4.53-4.72,9.07-9.44,13.6-14.16C1441.57,1507.65,1442.52,1508.59,1441.92,1509.21L1441.92,1509.21z"/>
				</g>
			</g>
		</g>
		<g>
			<g>
				<g>
					<path class="st15" d="M1363.5,1497.68c-3.22,2.49-6.85,4.09-10.88,4.71c-0.84,0.13-1.2-1.16-0.35-1.29
						c3.78-0.58,7.26-2.02,10.29-4.36C1363.23,1496.22,1364.18,1497.16,1363.5,1497.68L1363.5,1497.68z"/>
				</g>
			</g>
		</g>
		<g>
			<g>
				<g>
					<path class="st15" d="M1295.82,1474.17c-3.48,3.82-7.9,6.43-12.93,7.63c-0.83,0.2-1.19-1.09-0.35-1.29
						c4.82-1.15,9-3.62,12.34-7.28C1295.46,1472.59,1296.4,1473.53,1295.82,1474.17L1295.82,1474.17z"/>
				</g>
			</g>
		</g>
		<g>
			<g>
				<path class="st13" d="M1554.92,1601.57c-0.2,4.41,3.42,7.94,6.43,10.11c17.43-15.85,26.56-29.98,25.95-31.35l0.02-0.02
					c0,0-4.64-8.64-10.7-4.37C1570.58,1580.22,1555.27,1594.1,1554.92,1601.57z"/>
			</g>
		</g>
		<g>
			<g>
				<g>
					<path class="st15" d="M1521.37,1457.98c-5.9-4.54-12.65-7.48-20-8.68c-0.85-0.14-0.49-1.42,0.35-1.29
						c7.46,1.22,14.33,4.2,20.32,8.81C1522.71,1457.34,1522.05,1458.5,1521.37,1457.98L1521.37,1457.98z"/>
				</g>
			</g>
		</g>
		<g>
			<g>
				<g>
					<path class="st15" d="M1512.02,1460.61c-2.12-0.75-4.25-1.49-6.37-2.24c-0.81-0.28-0.46-1.57,0.35-1.29
						c2.12,0.75,4.25,1.49,6.37,2.24C1513.18,1459.6,1512.83,1460.89,1512.02,1460.61L1512.02,1460.61z"/>
				</g>
			</g>
		</g>
		<g class="st16">
			<g>
				<path class="st13" d="M1464.68,1653.02c10.33,2.85,50-37.24,65.09-61.55c15.09-24.31,49.56-27.45,49.56-27.45
					c-6.53-2.95-15.83-4.19-26.67-1.6c-25.64,6.13-52.02,46.77-52.02,46.77C1490.68,1616.76,1470.08,1643.07,1464.68,1653.02z"/>
			</g>
		</g>
	</g>
</g>
</svg>
