<?xml version="1.0" encoding="utf-8"?>
<!-- Generator: Adobe Illustrator 27.2.0, SVG Export Plug-In . SVG Version: 6.00 Build 0)  -->
<svg version="1.1" id="Layer_1" xmlns="http://www.w3.org/2000/svg" xmlns:xlink="http://www.w3.org/1999/xlink" x="0px" y="0px"
	 viewBox="0 0 2880 1800" style="enable-background:new 0 0 2880 1800;" xml:space="preserve">
<style type="text/css">
	.st0{fill:#1C437D;}
	.st1{fill:#DAD9DA;}
	.st2{fill:#FFFFFF;}
	.st3{fill:#C7C8CA;}
	.st4{fill:none;stroke:#000000;stroke-width:9.8422;stroke-miterlimit:10;}
	.st5{fill:none;stroke:#000000;stroke-width:9.8422;stroke-miterlimit:10;stroke-dasharray:9.8456,9.8456;}
</style>
<path class="st0" d="M2243.07,1332.05H633.47c-5.99,0-10.85-4.86-10.85-10.85V269.91c0-5.99,4.86-10.85,10.85-10.85h1609.61
	c5.99,0,10.85,4.86,10.85,10.85V1321.2C2253.92,1327.19,2249.07,1332.05,2243.07,1332.05z"/>
<g>
	
		<rect x="1351.51" y="423.12" transform="matrix(-1 -7.272062e-11 7.272062e-11 -1 3274.0227 877.3364)" class="st1" width="570.99" height="31.1"/>
	
		<rect x="1351.51" y="467.99" transform="matrix(-1 -7.273661e-11 7.273661e-11 -1 3274.0227 967.0839)" class="st1" width="570.99" height="31.1"/>
	
		<rect x="1351.51" y="510.87" transform="matrix(-1 -7.275260e-11 7.275260e-11 -1 3274.0217 1052.8463)" class="st1" width="570.99" height="31.1"/>
	
		<rect x="1488.03" y="554.14" transform="matrix(-1 -7.275348e-11 7.275348e-11 -1 3410.5408 1139.3844)" class="st1" width="434.48" height="31.1"/>
</g>
<g>
	
		<rect x="1351.51" y="1140.7" transform="matrix(-1 -7.044777e-11 7.044777e-11 -1 3274.0222 2311.5166)" class="st1" width="570.99" height="30.12"/>
	
		<rect x="1488.03" y="1184.16" transform="matrix(-1 -7.041935e-11 7.041935e-11 -1 3410.5403 2398.4463)" class="st1" width="434.48" height="30.12"/>
</g>
<path class="st2" d="M2147.32,482.21c29.14,4.96,48.73,20.83,55.66,49.67c2.45,10.22,1.85,21.26,1.97,31.93
	c0.13,11.7,0.39,23.52-1.03,35.09c-1.81,14.73-13.7,25.04-28.37,26.59c-0.25,0.03-0.51,0.08-0.76,0.08
	c-63.23,0-126.46,0.33-189.68-0.21c-16.57-0.14-28.93-13-29.84-30.18c-0.95-18.05-1.3-36.29,0.27-54.26
	c2.77-31.55,21.59-50.65,55.67-58.75c-8.12-23.74-4.97-48.29-4.51-72.53c0.75-39.97,31.7-69.3,72.13-69.9
	c39.34-0.58,70.91,27.82,72.86,67.37c1.05,21.27-0.64,42.69-1.42,64.03C2150.12,474.82,2148.36,478.43,2147.32,482.21z
	 M2094.22,601.6c1.61,0.46,2.32,0.85,3.03,0.85c24.74,0.04,49.49,0.11,74.23,0.03c7-0.02,9.94-4.2,9.92-10.87
	c-0.03-15.82,0.23-31.64-0.16-47.45c-0.47-18.94-14.13-35.06-32.68-37.87c-6.64-1.01-14.05-3.13-20.38,2.29
	c-29.06,24.9-68.19,24.9-97.78,0.12c-1.49-1.24-3.27-2.59-5.09-2.91c-22-3.92-45.24,13.19-46.41,35.02
	c-0.93,17.3-0.35,34.69-0.36,52.03c0,5.32,2.73,9.11,8.02,9.44c8.02,0.51,16.1,0.13,24.67,0.13c0-11.62-0.15-22.29,0.04-32.97
	c0.26-14.68,10.53-24.82,25.26-25.05c9.95-0.15,19.9-0.05,29.85-0.03c18.35,0.03,27.68,9.31,27.83,27.75
	C2094.29,582.01,2094.22,591.9,2094.22,601.6z M2029.68,435.7c-1.64,24.35,0.04,47.1,23.31,60.78c18.5,10.87,37.81,10.23,55.52-1.92
	c20.87-14.31,22.14-36,20.15-58.86C2095.62,435.7,2063.07,435.7,2029.68,435.7z M2129.15,412.11c-0.58-18.62-8.4-32.8-23.84-42.09
	c-17.43-10.49-35.53-10.28-52.77,0.51c-15.01,9.39-22.42,23.49-23.12,41.58C2062.91,412.11,2095.7,412.11,2129.15,412.11z
	 M2070.64,567.79c-11.13,0-21.51-0.12-31.88,0.15c-1.41,0.04-3.94,2.02-3.98,3.16c-0.31,10.31-0.18,20.63-0.18,30.94
	c12.64,0,24.2,0,36.04,0C2070.64,590.67,2070.64,579.82,2070.64,567.79z"/>
<path class="st2" d="M871.1,800.44c29.14,4.96,48.73,20.83,55.66,49.67c2.45,10.22,1.85,21.26,1.97,31.93
	c0.13,11.7,0.39,23.52-1.03,35.09c-1.81,14.73-13.7,25.04-28.37,26.59c-0.25,0.03-0.51,0.08-0.76,0.08
	c-63.23,0-126.46,0.33-189.68-0.21c-16.57-0.14-28.93-13-29.84-30.18c-0.95-18.05-1.3-36.29,0.27-54.26
	c2.77-31.55,21.59-50.65,55.67-58.75c-8.12-23.74-4.97-48.29-4.51-72.53c0.75-39.97,31.7-69.3,72.13-69.9
	c39.34-0.58,70.91,27.82,72.86,67.37c1.05,21.27-0.64,42.69-1.42,64.03C873.91,793.05,872.15,796.67,871.1,800.44z M818.01,919.83
	c1.61,0.46,2.32,0.85,3.03,0.85c24.74,0.04,49.49,0.11,74.23,0.03c7-0.02,9.94-4.2,9.92-10.87c-0.03-15.82,0.23-31.64-0.16-47.45
	c-0.47-18.94-14.13-35.06-32.68-37.87c-6.64-1.01-14.05-3.13-20.38,2.29c-29.06,24.9-68.19,24.9-97.78,0.12
	c-1.49-1.24-3.27-2.59-5.09-2.91c-22-3.92-45.24,13.19-46.41,35.02c-0.93,17.3-0.35,34.69-0.36,52.03c0,5.32,2.73,9.11,8.02,9.44
	c8.02,0.51,16.1,0.13,24.67,0.13c0-11.62-0.15-22.29,0.04-32.97c0.26-14.68,10.53-24.82,25.26-25.05c9.95-0.15,19.9-0.05,29.85-0.03
	c18.35,0.03,27.68,9.31,27.83,27.75C818.07,900.24,818.01,910.13,818.01,919.83z M753.46,753.93c-1.64,24.35,0.04,47.1,23.31,60.78
	c18.5,10.87,37.81,10.23,55.52-1.92c20.87-14.31,22.14-36,20.15-58.86C819.41,753.93,786.86,753.93,753.46,753.93z M852.94,730.35
	c-0.58-18.62-8.4-32.8-23.84-42.09c-17.43-10.49-35.53-10.28-52.77,0.51c-15.01,9.39-22.42,23.49-23.12,41.58
	C786.69,730.35,819.48,730.35,852.94,730.35z M794.43,886.02c-11.13,0-21.51-0.12-31.88,0.15c-1.41,0.04-3.94,2.02-3.98,3.16
	c-0.31,10.31-0.18,20.63-0.18,30.94c12.64,0,24.2,0,36.04,0C794.43,908.9,794.43,898.05,794.43,886.02z"/>
<path class="st2" d="M2150.87,1157.13c29.14,4.96,48.73,20.83,55.66,49.67c2.45,10.22,1.85,21.26,1.97,31.93
	c0.13,11.7,0.39,23.52-1.03,35.09c-1.81,14.73-13.7,25.04-28.37,26.59c-0.25,0.03-0.51,0.08-0.76,0.08
	c-63.23,0-126.46,0.33-189.68-0.21c-16.57-0.14-28.93-13-29.84-30.18c-0.95-18.05-1.3-36.29,0.27-54.26
	c2.77-31.55,21.59-50.65,55.67-58.75c-8.12-23.74-4.97-48.29-4.51-72.53c0.75-39.97,31.7-69.3,72.13-69.9
	c39.34-0.58,70.91,27.82,72.86,67.37c1.05,21.27-0.64,42.69-1.42,64.03C2153.67,1149.75,2151.91,1153.36,2150.87,1157.13z
	 M2097.77,1276.53c1.61,0.46,2.32,0.85,3.03,0.85c24.74,0.04,49.49,0.11,74.23,0.03c7-0.02,9.94-4.2,9.92-10.87
	c-0.03-15.82,0.23-31.64-0.16-47.45c-0.47-18.94-14.13-35.06-32.68-37.87c-6.64-1.01-14.05-3.13-20.38,2.29
	c-29.06,24.9-68.19,24.9-97.78,0.12c-1.49-1.24-3.27-2.59-5.09-2.91c-22-3.92-45.24,13.19-46.41,35.02
	c-0.93,17.3-0.35,34.69-0.36,52.03c0,5.32,2.73,9.11,8.02,9.44c8.02,0.51,16.1,0.13,24.67,0.13c0-11.62-0.15-22.3,0.04-32.97
	c0.26-14.68,10.53-24.82,25.26-25.05c9.95-0.15,19.9-0.05,29.85-0.03c18.35,0.03,27.68,9.31,27.83,27.75
	C2097.84,1256.94,2097.77,1266.82,2097.77,1276.53z M2033.23,1110.63c-1.64,24.35,0.04,47.1,23.31,60.78
	c18.5,10.87,37.81,10.23,55.52-1.92c20.87-14.31,22.14-36,20.15-58.86C2099.17,1110.63,2066.62,1110.63,2033.23,1110.63z
	 M2132.7,1087.04c-0.58-18.62-8.4-32.8-23.84-42.09c-17.43-10.49-35.53-10.28-52.77,0.51c-15.01,9.39-22.42,23.49-23.12,41.58
	C2066.46,1087.04,2099.25,1087.04,2132.7,1087.04z M2074.19,1242.72c-11.13,0-21.51-0.12-31.88,0.15c-1.41,0.04-3.94,2.02-3.98,3.16
	c-0.31,10.31-0.18,20.63-0.18,30.94c12.64,0,24.2,0,36.04,0C2074.19,1265.6,2074.19,1254.75,2074.19,1242.72z"/>
<g>
	<path d="M2224.05,1423.47H655.88c-70.61,0-128.07-57.45-128.07-128.06V299.06c0-70.62,57.45-128.06,128.07-128.06h1568.17
		c70.62,0,128.07,57.45,128.07,128.06v996.35C2352.11,1366.03,2294.66,1423.47,2224.05,1423.47z M655.88,212.93
		c-47.49,0-86.14,38.64-86.14,86.13v996.35c0,47.5,38.65,86.13,86.14,86.13h1568.17c47.5,0,86.14-38.64,86.14-86.13V299.06
		c0-47.5-38.64-86.13-86.14-86.13H655.88z"/>
</g>
<g>
	<path d="M1821.08,1729h-762.23l128.01-347.45h506.22L1821.08,1729z M1118.98,1687.07h641.97l-97.11-263.6h-447.75L1118.98,1687.07z
		"/>
</g>
<g>
	<polygon points="2716,453.33 2644.49,524.85 2616.18,496.54 2596.51,516.2 2644.49,564.18 2735.67,473 	"/>
	<g>
		<path d="M2768.4,402.71v204.62h-204.62V402.71H2768.4 M2789.53,368.26h-246.88c-7.35,0-13.32,5.96-13.32,13.32v246.88
			c0,7.35,5.96,13.32,13.32,13.32h246.88c7.35,0,13.32-5.96,13.32-13.32V381.58C2802.85,374.22,2796.89,368.26,2789.53,368.26
			L2789.53,368.26z"/>
	</g>
</g>
<g>
	<polygon points="2716,1122.07 2644.49,1193.58 2616.18,1165.27 2596.51,1184.94 2644.49,1232.92 2735.67,1141.73 	"/>
	<g>
		<path d="M2768.4,1071.44v204.62h-204.62v-204.62H2768.4 M2789.53,1036.99h-246.88c-7.35,0-13.32,5.96-13.32,13.32v246.88
			c0,7.35,5.96,13.32,13.32,13.32h246.88c7.35,0,13.32-5.96,13.32-13.32v-246.88C2802.85,1042.95,2796.89,1036.99,2789.53,1036.99
			L2789.53,1036.99z"/>
	</g>
</g>
<g>
	<polygon points="263.75,770.73 192.24,842.24 163.93,813.93 144.26,833.6 192.24,881.58 283.42,790.4 	"/>
	<g>
		<path d="M316.15,720.1v204.62H111.53V720.1H316.15 M337.28,685.65H90.4c-7.35,0-13.32,5.96-13.32,13.32v246.88
			c0,7.35,5.96,13.32,13.32,13.32h246.88c7.35,0,13.32-5.96,13.32-13.32V698.97C350.6,691.62,344.64,685.65,337.28,685.65
			L337.28,685.65z"/>
	</g>
</g>
<g>
	<rect x="987.99" y="747.52" class="st3" width="570.99" height="30.15"/>
	<rect x="987.99" y="791.03" class="st3" width="570.99" height="30.15"/>
	<rect x="987.99" y="834.53" class="st3" width="434.48" height="30.15"/>
</g>
<g>
	<g>
		<line class="st4" x1="2352.11" y1="502.91" x2="2357.04" y2="502.91"/>
		<line class="st5" x1="2366.88" y1="502.91" x2="2519.49" y2="502.91"/>
		<line class="st4" x1="2524.41" y1="502.91" x2="2529.33" y2="502.91"/>
	</g>
</g>
<g>
	<g>
		<line class="st4" x1="2352.11" y1="1179.95" x2="2357.04" y2="1179.95"/>
		<line class="st5" x1="2366.88" y1="1179.95" x2="2519.49" y2="1179.95"/>
		<line class="st4" x1="2524.41" y1="1179.95" x2="2529.33" y2="1179.95"/>
	</g>
</g>
<g>
	<g>
		<line class="st4" x1="350.6" y1="822.45" x2="355.52" y2="822.45"/>
		<line class="st5" x1="365.36" y1="822.45" x2="517.97" y2="822.45"/>
		<line class="st4" x1="522.89" y1="822.45" x2="527.81" y2="822.45"/>
	</g>
</g>
</svg>
