<?xml version="1.0" encoding="utf-8"?>
<!-- Generator: Adobe Illustrator 27.2.0, SVG Export Plug-In . SVG Version: 6.00 Build 0)  -->
<svg version="1.1" id="Layer_1" xmlns="http://www.w3.org/2000/svg" xmlns:xlink="http://www.w3.org/1999/xlink" x="0px" y="0px"
	 viewBox="0 0 2880 1800" style="enable-background:new 0 0 2880 1800;" xml:space="preserve">
<style type="text/css">
	.st0{fill:#E9F1FA;stroke:#05203A;stroke-width:2.0365;stroke-miterlimit:10;}
	.st1{fill:#77787B;}
	.st2{fill:#515254;}
	.st3{fill:#C7C8CA;}
	.st4{fill:#FFFFFF;}
	.st5{fill:#081B3C;}
	.st6{fill:#D29C78;}
	.st7{fill:#01517B;}
	.st8{fill:#00558C;}
	.st9{fill:#05203A;}
	.st10{fill:#C58C6A;}
	.st11{fill:#5D0C0D;}
	.st12{fill:#5074B8;}
	.st13{fill:#E9E9EA;}
	.st14{fill:#5EA8CB;}
	.st15{fill:#A9CA92;}
	.st16{fill:#4E91CD;}
	.st17{fill:#263238;stroke:#000000;stroke-width:4.0729;stroke-miterlimit:10;}
	.st18{fill:#FFFFFF;stroke:#000000;stroke-width:4.0729;stroke-linecap:round;stroke-linejoin:round;stroke-miterlimit:10;}
</style>
<g>
	<path class="st0" d="M2677.56,1708.64c0,0-2492.74,0.44-2492.87,0.34c-32.52-28.61-56.02-66.37-66.67-113.01
		c-26.82-117.29,32.75-268.48,150.67-388.95c108.42-110.76,197.28-148.24,169.08-341.13c-11.14-76.27-46.46-154.69-10.7-272.32
		c56.38-185.45,248.53-295.07,299.53-319.56c199.21-95.77,515.59-78.62,711.52,5.09c0.03,0.03,0.07,0.04,0.11,0.05
		c195.91,83.73,281.67,226.73,353.53,314.43c32.31,39.54,65.13,72.25,106.35,75.36c60.18,4.52,146.02-33.04,250.36-44.14
		c77.88-8.28,165.92-1.78,260.89,48.16c157.39,81.7,328.07,273.27,355.33,537.27C2782.74,1383.54,2743.76,1550.97,2677.56,1708.64z"
		/>
	<g>
		<polygon class="st1" points="1955.39,1667.4 1628.58,1667.4 1664.07,1527.83 1672.12,1496.18 1687.74,1434.89 1896.22,1434.89 
			1911.84,1496.18 1919.89,1527.83 		"/>
		<path d="M2560.8,531.8v925.23c0,18.82-12.43,34.62-29.22,38.81c-2.84,0.72-5.81,1.08-8.82,1.08H1065.87
			c-7.52,0-14.54-2.3-20.44-6.21c-2.16-1.49-4.19-3.15-6.03-5.04c-7.11-7.2-11.57-17.38-11.57-28.63V531.8
			c0-21.97,17.02-39.89,38.04-39.89h1456.88C2543.78,491.91,2560.8,509.83,2560.8,531.8z"/>
		<polygon class="st2" points="1919.89,1527.83 1664.07,1527.83 1672.12,1496.18 1911.84,1496.18 		"/>
		<path class="st1" d="M2080.8,1705.95h-577.65c-13.86,0-25.1-11.24-25.1-25.1l0,0c0-13.86,11.24-25.1,25.1-25.1h577.65
			c13.86,0,25.1,11.24,25.1,25.1l0,0C2105.89,1694.72,2094.66,1705.95,2080.8,1705.95z"/>
		<path class="st3" d="M1791.89,1446.05L1791.89,1446.05c-20.37,0-37.03-16.66-37.03-37.03l0,0c0-20.37,16.66-37.03,37.03-37.03l0,0
			c20.37,0,37.03,16.66,37.03,37.03l0,0C1828.92,1429.39,1812.26,1446.05,1791.89,1446.05z"/>
		<rect x="1072.31" y="543.83" class="st4" width="1444" height="749.1"/>
	</g>
	<g>
		<g>
			<path class="st5" d="M871.14,1678.6c0,0,1.68,27.04,6.91,27.43c0.7,0.05,26.53,0.05,26.53,0.05l32.98-0.19
				c0,0-0.22-7.95-9.86-9.63c-9.64-1.68-25.78-8.46-31.62-21.2C889.94,1661.66,871.14,1678.6,871.14,1678.6z"/>
			<g>
				<path class="st6" d="M859.25,1363.04c0,0,14.37,3.69,23.5,0.94c9.13-2.75,24.86,1.77,27.39,5.1c2.53,3.33,1.6,4.65-2.92,5.8
					c-4.52,1.15-20.52,7.98-31.04,4.02c-10.52-3.95-24.24-4.09-24.24-4.09L859.25,1363.04z"/>
				<path class="st7" d="M735.06,1238.22c0,0,16.14,114.72,42.87,125c13.19,5.07,71.47,16.56,88.72,17.72c0,0,4.22-3.43,3.19-17.37
					c0,0-61.07-22.42-69.74-34.61c-12.91-18.15,8.02-74.13-8.19-91.17C775.72,1220.74,748.43,1213.42,735.06,1238.22z"/>
			</g>
			<path class="st8" d="M737.13,1680.27v-25.01h-39.38c-1.06,0-1.93-0.87-1.93-1.93v-4.01c0-1.06,0.87-1.93,1.93-1.93h39.38v-142.39
				c0-4,3.27-7.26,7.26-7.26h7.79c4,0,7.26,3.27,7.26,7.26v142.39h39.38c1.06,0,1.93,0.87,1.93,1.93v4.01
				c0,1.06-0.87,1.93-1.93,1.93h-39.38v25.01c28.49,2.15,51.32,12.41,57.73,25.67H679.4
				C685.8,1692.68,708.63,1682.42,737.13,1680.27z"/>
			<path class="st9" d="M740.5,1479.93c4.71,7.99,10.15,15.47,15.77,22.56c17.35,21.9,36.23,39.96,39.52,57.03
				c0.65,3.4,1.69,7.07,3.05,10.93c1.37,3.91,3.07,8.02,5.03,12.27c7.36,15.99,18.37,33.91,29.36,50.2
				c19,28.16,36.87,51.65,36.87,51.65l32.77-1.4c-1.31-3.28-15.6-42.16-34.72-89.67c-7.76-19.29-16.02-39.8-23.99-59.59
				c-1.06-2.64-2.12-5.27-3.17-7.88c-2.44-6.05-4.83-12.01-7.17-17.82c-17.95-44.61-32.25-80.14-32.25-80.14s-71.75-27.18-79.2-9.57
				C716.23,1433.02,721.23,1447.25,740.5,1479.93z"/>
			<path class="st5" d="M795.26,1601.36c0,0-22.79,14.65-20.58,19.4c0.29,0.63,12.89,23.19,12.89,23.19l16.25,28.71
				c0,0,6.83-4.06,3.6-13.3c-3.23-9.24-5.18-26.63,3.09-37.94C819.22,1609.51,795.26,1601.36,795.26,1601.36z"/>
			<path class="st9" d="M826.1,1415.17c0,0,90.06,56.1,100.12,93.8c10.05,37.7-119.81,118.13-119.81,118.13
				s-14.24-12.57-16.76-21.78c0,0,58.7-70.32,71.43-86.09c7.82-9.68-115.62-33.52-130.7-56.97c-15.08-23.46-9.68-43.2-9.68-43.2
				L826.1,1415.17z"/>
			<path class="st2" d="M656.12,1487.21h184.33c3.69,0,6.7,3.02,6.7,6.7v36.86c0,3.69-3.02,6.7-6.7,6.7H656.12
				c-3.69,0-6.7-3.02-6.7-6.7v-36.86C649.42,1490.22,652.44,1487.21,656.12,1487.21z"/>
			<path class="st6" d="M784.45,1218.56c8.85,5.48,13.72,12.43,13.72,12.43c-21.58,5.58-57.34-14.41-57.34-14.41
				s13.89-9.33,19.03-29.84c0.26-1.03,0.5-2.1,0.71-3.18c0.67-3.45,1.09-7.19,1.17-11.23l9.91,8.88l16.48,14.77
				c0,0-0.37,6.13-2.44,16.67C785.33,1214.48,784.92,1216.46,784.45,1218.56z"/>
			<path class="st8" d="M718.08,1320.35c3.09,41.57-2.11,104.76,1.4,115.71c3.03,9.45,38.63,3.86,52.4,0.7
				c5.09-1.17,11.26-2.83,17.64-4.81c17.77-5.5,37.14-13.36,39.22-19.2c0.08-0.23,0.15-0.45,0.19-0.67
				c0.19-0.85,0.15-1.64-0.04-2.45c-0.69-2.97-3.36-6.19-3.68-13.55c-0.35-8.22-0.3-17.9-0.61-28.31c-0.02-1.17-0.03-2.45-0.16-3.62
				l-0.01-0.43c0-0.22-0.01-0.44-0.02-0.67c-0.3-11.61-0.91-23.81-1.61-35.92c-0.45-7.6-0.96-15.13-1.56-22.34
				c-1.55-18.62-3.64-35.18-6.4-45.65c-4.52-17.06-14.48-28.19-23.55-36.35l-6.56-5.63c-7.32,1.6-15.97,0.54-23.8-3.17
				c-8.47-4.02-11.4-6.91-12.87-5.82C728.5,1223.28,714.43,1269.53,718.08,1320.35z"/>
			<path class="st8" d="M789.41,1432.03c17.77-5.5,37.14-13.36,39.22-19.2c0.08-0.23,0.15-0.45,0.19-0.67
				c-0.01-0.82-0.02-1.63-0.04-2.45c-0.69-2.97-3.36-6.19-3.68-13.55c-0.35-8.22-0.3-17.9-0.61-28.31
				c-0.02-1.17-0.03-2.45-0.16-3.62l-0.01-0.43c-0.01-0.22-0.01-0.44-0.02-0.67l-67.14-30.45
				C757.18,1332.7,753.31,1386.81,789.41,1432.03z"/>
			<path class="st10" d="M788.13,1195.98c0,0-0.37,6.13-2.44,16.67c-16.09-5.2-23.39-19.74-25.83-25.9
				c-0.69-1.74-0.99-2.82-0.99-2.82s0.62-0.14,1.7-0.36c2.26-0.48,6.52-1.38,11.08-2.35L788.13,1195.98z"/>
			<path class="st6" d="M794.64,1195.82c0,0-35.36,3.99-37.5-18.07c-2.14-22.06-8.15-36.4,14.33-39.88
				c22.48-3.48,27.7,4.51,30.2,11.7C804.18,1156.76,803.78,1194.21,794.64,1195.82z"/>
			<path class="st11" d="M757.29,1179.27c0,0,2.24-29.28,34.43-32.31c22.04-2.08,9.75-21.05,7.4-24.08c0,0-16.89,2.32-34.2,5.18
				C728.58,1134.06,753.72,1174.71,757.29,1179.27z"/>
			<g>
				
					<rect x="941.53" y="1309.17" transform="matrix(-0.951 -0.3092 0.3092 -0.951 1422.0922 2928.9407)" class="st12" width="3.25" height="85.21"/>
				
					<rect x="842.18" y="1386.5" transform="matrix(-0.9998 -0.0214 0.0214 -0.9998 1743.9133 2796.9644)" class="st12" width="89.42" height="5.35"/>
			</g>
			<g>
				<path class="st6" d="M851.85,1380.68c0,0,13.87,5.25,23.26,3.52c9.38-1.73,24.51,4.5,26.66,8.09s1.08,4.8-3.54,5.45
					c-4.62,0.64-21.28,5.67-31.3,0.58c-10.02-5.09-23.64-6.74-23.64-6.74L851.85,1380.68z"/>
				<path class="st7" d="M742.19,1242.93c0,0,3.4,115.81,28.83,128.96c12.55,6.49,69.21,24.34,86.22,27.39c0,0,4.58-2.94,5.09-16.92
					c0,0-58.22-29.01-65.5-42.09c-10.83-19.46,16.14-72.79,1.92-91.52C784.52,1230.04,758.2,1219.75,742.19,1242.93z"/>
			</g>
		</g>
		<g>
			<path class="st13" d="M1904.48,1197.91h514.53c21.58,0,39.07-17.49,39.07-39.07V675.37c0-21.58-17.49-39.07-39.07-39.07h-514.53
				c-21.58,0-39.07,17.49-39.07,39.07v483.47C1865.41,1180.42,1882.9,1197.91,1904.48,1197.91z"/>
			<path class="st4" d="M2110.62,1038.42h248.68c2.09,0,3.78-1.69,3.78-3.78V715.43c0-2.09-1.69-3.78-3.78-3.78h-248.68
				c-2.09,0-3.78,1.69-3.78,3.78v319.21C2106.84,1036.73,2108.53,1038.42,2110.62,1038.42z"/>
			<g>
				<path class="st14" d="M2326.74,1024.08L2326.74,1024.08c-7.47,0-13.52-6.05-13.52-13.52V823.65c0-7.47,6.05-13.52,13.52-13.52
					l0,0c7.47,0,13.52,6.05,13.52,13.52v186.92C2340.25,1018.03,2334.2,1024.08,2326.74,1024.08z"/>
				<path class="st14" d="M2282.44,1024.08L2282.44,1024.08c-7.47,0-13.52-6.05-13.52-13.52V764.01c0-7.47,6.05-13.52,13.52-13.52
					l0,0c7.47,0,13.52,6.05,13.52,13.52v246.55C2295.96,1018.03,2289.91,1024.08,2282.44,1024.08z"/>
				<path class="st14" d="M2234.1,1024.08L2234.1,1024.08c-7.47,0-13.52-6.05-13.52-13.52V875.39c0-7.47,6.05-13.52,13.52-13.52l0,0
					c7.47,0,13.52,6.05,13.52,13.52v135.17C2247.62,1018.03,2241.57,1024.08,2234.1,1024.08z"/>
				<path class="st14" d="M2187.07,1024.08L2187.07,1024.08c-7.47,0-13.52-6.05-13.52-13.52V800.53c0-7.47,6.05-13.52,13.52-13.52
					l0,0c7.47,0,13.52,6.05,13.52,13.52v210.03C2200.59,1018.03,2194.54,1024.08,2187.07,1024.08z"/>
				<path class="st14" d="M2153.31,907.14v103.43c0,7.47-6.05,13.52-13.52,13.52l0,0c-7.47,0-13.52-6.05-13.52-13.52V907.14
					c0-7.47,6.05-13.52,13.52-13.52l0,0C2147.26,893.62,2153.31,899.67,2153.31,907.14z"/>
			</g>
			<g>
				<path class="st15" d="M2174.84,770.27h22.9c1.3,0,2.37,1.07,2.37,2.37c0,1.3-1.07,2.37-2.37,2.37h-22.9
					c-1.3,0-2.37-1.07-2.37-2.37C2172.47,771.34,2173.53,770.27,2174.84,770.27z"/>
				<path class="st15" d="M2192.52,778.89h5.22c1.3,0,2.37,1.07,2.37,2.37c0,1.3-1.07,2.37-2.37,2.37h-5.22
					c-1.3,0-2.37-1.07-2.37-2.37C2190.15,779.96,2191.22,778.89,2192.52,778.89z"/>
				<path class="st15" d="M2269.19,733.91h22.9c1.3,0,2.37,1.07,2.37,2.37c0,1.3-1.07,2.37-2.37,2.37h-22.9
					c-1.3,0-2.37-1.07-2.37-2.37C2266.82,734.98,2267.89,733.91,2269.19,733.91z"/>
				<path class="st15" d="M2286.87,742.53h5.21c1.3,0,2.37,1.07,2.37,2.37l0,0c0,1.3-1.07,2.37-2.37,2.37h-5.21
					c-1.3,0-2.37-1.07-2.37-2.37l0,0C2284.51,743.6,2285.57,742.53,2286.87,742.53z"/>
				<path class="st15" d="M2314.99,793.51h22.9c1.3,0,2.37,1.07,2.37,2.37s-1.07,2.37-2.37,2.37h-22.9c-1.3,0-2.37-1.07-2.37-2.37
					S2313.69,793.51,2314.99,793.51z"/>
				<path class="st15" d="M2332.67,802.13h5.22c1.3,0,2.37,1.07,2.37,2.37l0,0c0,1.3-1.07,2.37-2.37,2.37h-5.22
					c-1.3,0-2.37-1.07-2.37-2.37l0,0C2330.3,803.2,2331.37,802.13,2332.67,802.13z"/>
				<path class="st15" d="M2222.66,845.28h22.9c1.3,0,2.37,1.07,2.37,2.37c0,1.3-1.07,2.37-2.37,2.37h-22.9
					c-1.3,0-2.37-1.07-2.37-2.37C2220.29,846.34,2221.35,845.28,2222.66,845.28z"/>
				<path class="st15" d="M2240.34,853.9h5.21c1.3,0,2.37,1.07,2.37,2.37l0,0c0,1.3-1.07,2.37-2.37,2.37h-5.21
					c-1.3,0-2.37-1.07-2.37-2.37l0,0C2237.97,854.96,2239.04,853.9,2240.34,853.9z"/>
				<path class="st15" d="M2128.35,876.93h22.9c1.3,0,2.37,1.07,2.37,2.37c0,1.3-1.07,2.37-2.37,2.37h-22.9
					c-1.3,0-2.37-1.07-2.37-2.37C2125.98,878,2127.04,876.93,2128.35,876.93z"/>
				<path class="st15" d="M2146.03,885.55h5.22c1.3,0,2.37,1.07,2.37,2.37c0,1.3-1.07,2.37-2.37,2.37h-5.22
					c-1.3,0-2.37-1.07-2.37-2.37C2143.66,886.62,2144.73,885.55,2146.03,885.55z"/>
			</g>
			<g>
				<path class="st15" d="M2139.8,853.36c-0.88,0-1.72,0.13-2.52,0.39c-1.1,0.34-2.11,0.91-2.96,1.65c-1.8,1.54-2.94,3.83-2.94,6.38
					c0,4.64,3.78,8.41,8.42,8.41c4.64,0,8.41-3.77,8.41-8.41C2148.21,857.14,2144.43,853.36,2139.8,853.36z M2139.8,866.93
					c-2.84,0-5.16-2.31-5.16-5.15c0-2.84,2.31-5.16,5.16-5.16c2.84,0,5.16,2.31,5.16,5.16
					C2144.95,864.62,2142.64,866.93,2139.8,866.93z"/>
				<path class="st15" d="M2136.21,856.62c-0.42,0-0.83-0.16-1.15-0.48l-25.29-25.29h-205.43c-0.9,0-1.63-0.73-1.63-1.63
					c0-0.9,0.73-1.63,1.63-1.63h206.78l26.24,26.24c0.64,0.64,0.64,1.67,0,2.3C2137.05,856.46,2136.63,856.62,2136.21,856.62z"/>
			</g>
			<g>
				<path class="st15" d="M2196.56,1038.42c-0.4-4.28-4-7.64-8.38-7.64c-4.38,0-7.98,3.36-8.38,7.64c-0.02,0.26-0.04,0.52-0.04,0.78
					c0,4.64,3.77,8.41,8.42,8.41c0.88,0,1.72-0.13,2.52-0.39c1.1-0.35,2.1-0.91,2.96-1.65c1.8-1.54,2.94-3.83,2.94-6.38
					C2196.6,1038.94,2196.58,1038.68,2196.56,1038.42z M2183.03,1039.2c0-0.27,0.02-0.53,0.06-0.78c0.38-2.47,2.52-4.38,5.1-4.38
					c2.58,0,4.72,1.91,5.09,4.38c0.04,0.26,0.06,0.52,0.06,0.78c0,2.84-2.31,5.15-5.15,5.15S2183.03,1042.05,2183.03,1039.2z"/>
				<path class="st15" d="M2420.38,1073.38h-203.52l-26.24-26.24c-0.64-0.64-0.64-1.67,0-2.3c0.64-0.64,1.67-0.64,2.3,0l25.29,25.29
					h202.17c0.9,0,1.63,0.73,1.63,1.63S2421.28,1073.38,2420.38,1073.38z"/>
			</g>
			<g>
				<path class="st15" d="M2285.38,711.66c-1.22-0.69-2.63-1.08-4.12-1.08c-0.88,0-1.72,0.13-2.52,0.39c-0.56,0.18-1.1,0.41-1.6,0.7
					c-0.49,0.27-0.94,0.59-1.36,0.95c-1.8,1.54-2.94,3.83-2.94,6.38c0,4.64,3.78,8.42,8.42,8.42c4.64,0,8.42-3.77,8.42-8.42
					C2289.68,715.84,2287.94,713.09,2285.38,711.66z M2281.26,724.14c-2.84,0-5.16-2.31-5.16-5.16s2.31-5.15,5.16-5.15
					c2.84,0,5.16,2.31,5.16,5.15S2284.1,724.14,2281.26,724.14z"/>
				<path class="st15" d="M2277.68,713.83c-0.42,0-0.83-0.16-1.15-0.48l-25.29-25.29h-205.43c-0.9,0-1.63-0.73-1.63-1.63
					c0-0.9,0.73-1.63,1.63-1.63h206.78l26.24,26.24c0.64,0.64,0.64,1.67,0,2.3C2278.51,713.67,2278.09,713.83,2277.68,713.83z"/>
			</g>
			<path class="st8" d="M2041.64,823.83h-134.96c-2.28,0-4.13-1.85-4.13-4.13l0,0c0-2.28,1.85-4.13,4.13-4.13h134.96
				c2.28,0,4.13,1.85,4.13,4.13l0,0C2045.76,821.98,2043.92,823.83,2041.64,823.83z"/>
			<path class="st8" d="M2041.64,810.8h-82.84c-2.28,0-4.13-1.85-4.13-4.13l0,0c0-2.28,1.85-4.13,4.13-4.13h82.84
				c2.28,0,4.13,1.85,4.13,4.13l0,0C2045.76,808.96,2043.92,810.8,2041.64,810.8z"/>
			<path class="st8" d="M2041.64,797.77h-82.84c-2.28,0-4.13-1.85-4.13-4.13l0,0c0-2.28,1.85-4.13,4.13-4.13h82.84
				c2.28,0,4.13,1.85,4.13,4.13l0,0C2045.76,795.93,2043.92,797.77,2041.64,797.77z"/>
			<path class="st8" d="M2182.16,680.2H2047.2c-2.28,0-4.13-1.85-4.13-4.13l0,0c0-2.28,1.85-4.13,4.13-4.13h134.96
				c2.28,0,4.13,1.85,4.13,4.13l0,0C2186.28,678.35,2184.44,680.2,2182.16,680.2z"/>
			<g>
				<g>
					<path class="st8" d="M2311.43,1114.15c0-16.22-13.15-29.37-29.37-29.37c-16.22,0-29.37,13.15-29.37,29.37
						c0,16.22,13.15,29.37,29.37,29.37C2298.28,1143.52,2311.43,1130.37,2311.43,1114.15z"/>
					<path class="st4" d="M2282.06,1089.32c13.71,0,24.83,11.12,24.83,24.83c0,6.79-2.72,12.93-7.13,17.41l-17.69-17.41l-23.2,8.85
						c-1.05-2.75-1.63-5.73-1.63-8.85C2257.23,1100.44,2268.35,1089.32,2282.06,1089.32z"/>
					<g>
						<path class="st5" d="M2285.68,1101.54h10.57c0.42,0,0.76,0.34,0.76,0.76l0,0c0,0.41-0.34,0.75-0.76,0.75h-10.57
							c-0.41,0-0.75-0.34-0.75-0.75l0,0C2284.93,1101.88,2285.27,1101.54,2285.68,1101.54z"/>
						<path class="st5" d="M2285.68,1103.93h10.57c0.42,0,0.76,0.34,0.76,0.76s-0.34,0.76-0.76,0.76h-10.57
							c-0.41,0-0.75-0.34-0.75-0.76S2285.27,1103.93,2285.68,1103.93z"/>
						<path class="st5" d="M2291.89,1106.32h4.36c0.42,0,0.76,0.34,0.76,0.75c0,0.42-0.34,0.76-0.76,0.76h-4.36
							c-0.42,0-0.75-0.34-0.75-0.76C2291.13,1106.66,2291.47,1106.32,2291.89,1106.32z"/>
					</g>
				</g>
				<polygon class="st8" points="2256.34,1100.36 2267.96,1088.75 2256.34,1088.75 				"/>
			</g>
			<g>
				<g>
					<path class="st8" d="M2410.6,1114.15c0-16.22-13.15-29.37-29.37-29.37s-29.37,13.15-29.37,29.37
						c0,16.22,13.15,29.37,29.37,29.37S2410.6,1130.37,2410.6,1114.15z"/>
					<path class="st4" d="M2356.41,1114.15c0-13.71,11.11-24.83,24.82-24.83c13.71,0,24.83,11.12,24.83,24.83
						c0,13.71-11.11,24.83-24.83,24.83c-5.66,0-10.88-1.89-15.06-5.09l15.06-19.74l-23.2,8.85
						C2356.99,1120.25,2356.41,1117.27,2356.41,1114.15z"/>
					<g>
						<path class="st5" d="M2385.07,1101.54h10.57c0.41,0,0.75,0.34,0.75,0.76l0,0c0,0.41-0.34,0.75-0.75,0.75h-10.57
							c-0.41,0-0.75-0.34-0.75-0.75l0,0C2384.31,1101.88,2384.65,1101.54,2385.07,1101.54z"/>
						<path class="st5" d="M2385.07,1103.93h10.57c0.41,0,0.75,0.34,0.75,0.76s-0.34,0.76-0.75,0.76h-10.57
							c-0.41,0-0.75-0.34-0.75-0.76S2384.65,1103.93,2385.07,1103.93z"/>
						<path class="st5" d="M2391.27,1106.32h4.36c0.41,0,0.75,0.34,0.75,0.75c0,0.42-0.34,0.76-0.75,0.76h-4.36
							c-0.42,0-0.75-0.34-0.75-0.76C2390.52,1106.66,2390.85,1106.32,2391.27,1106.32z"/>
					</g>
				</g>
				<polygon class="st8" points="2355.68,1100.36 2367.3,1088.75 2355.68,1088.75 				"/>
			</g>
		</g>
		<path class="st9" d="M1514.73,1706.4v2.6H678.09c-0.72,0-1.3-0.59-1.3-1.3c0-0.36,0.15-0.69,0.38-0.92
			c0.23-0.24,0.56-0.38,0.92-0.38H1514.73z"/>
	</g>
</g>
<g>
	<rect x="1161.24" y="768.38" class="st3" width="92.64" height="12.53"/>
	<rect x="1283.22" y="768.38" class="st16" width="541.71" height="12.53"/>
	<rect x="1161.24" y="815.44" class="st3" width="92.64" height="12.53"/>
	<rect x="1283.22" y="815.44" class="st16" width="541.71" height="12.53"/>
	<rect x="1161.24" y="862.51" class="st3" width="92.64" height="12.53"/>
	<rect x="1283.22" y="862.51" class="st16" width="541.71" height="12.53"/>
	<rect x="1161.24" y="909.57" class="st3" width="92.64" height="12.53"/>
	<rect x="1283.22" y="909.57" class="st16" width="541.71" height="12.53"/>
</g>
<g>
	<rect x="1161.24" y="955.1" class="st3" width="92.64" height="12.53"/>
	<rect x="1283.22" y="955.1" class="st16" width="541.71" height="12.53"/>
	<rect x="1161.24" y="1002.16" class="st3" width="92.64" height="12.53"/>
	<rect x="1283.22" y="1002.16" class="st16" width="541.71" height="12.53"/>
	<rect x="1161.24" y="1049.23" class="st3" width="92.64" height="12.53"/>
	<rect x="1283.22" y="1049.23" class="st16" width="541.71" height="12.53"/>
	<rect x="1161.24" y="1096.29" class="st3" width="92.64" height="12.53"/>
	<rect x="1283.22" y="1096.29" class="st16" width="541.71" height="12.53"/>
</g>
<g>
	<g>
		<circle class="st17" cx="862.07" cy="1059.71" r="56.61"/>
		<ellipse class="st17" cx="822.53" cy="1104.4" rx="7.85" ry="7.58"/>
		<path class="st17" d="M816.52,1114.1c0,3.02-2.54,5.47-5.66,5.47c-3.13,0-5.66-2.45-5.66-5.47s2.54-5.47,5.66-5.47
			C813.99,1108.63,816.52,1111.08,816.52,1114.1z"/>
	</g>
	<g>
		<g>
			<circle class="st18" cx="859.91" cy="1055.92" r="56.61"/>
			<ellipse class="st18" cx="820.36" cy="1100.61" rx="7.85" ry="7.58"/>
			<path class="st18" d="M814.36,1110.31c0,3.02-2.54,5.47-5.66,5.47c-3.13,0-5.66-2.45-5.66-5.47c0-3.02,2.54-5.47,5.66-5.47
				C811.82,1104.84,814.36,1107.29,814.36,1110.31z"/>
		</g>
		<circle class="st18" cx="834.02" cy="1055.92" r="7.64"/>
		<circle class="st18" cx="859.91" cy="1055.92" r="7.64"/>
		<circle class="st18" cx="887.24" cy="1055.92" r="7.64"/>
	</g>
</g>
</svg>
