<?xml version="1.0" encoding="UTF-8"?>
<svg width="77px" height="90px" viewBox="0 0 77 90" version="1.1" xmlns="http://www.w3.org/2000/svg" xmlns:xlink="http://www.w3.org/1999/xlink">
    <!-- Generator: Sketch 54.1 (76490) - https://sketchapp.com -->
    <title>artificial-intelligence</title>
    <desc>Created with Sketch.</desc>
    <g id="Page-1" stroke="none" stroke-width="1" fill="none" fill-rule="evenodd">
        <g id="Desktop" transform="translate(-777.000000, -753.000000)" fill="#173CF2" fill-rule="nonzero">
            <g id="artificial-intelligence" transform="translate(777.000000, 753.000000)">
                <path d="M76.3528185,43.5062466 C78.7121605,30.7806027 74.8605564,13.2876529 60.8264264,4.95167693 C51.9625698,0.0137397884 41.5075332,-1.29279269 31.6879422,1.31043154 C18.0859365,4.9225062 8.08797487,14.6152726 4.94401407,27.2382918 C4.24309503,29.7986386 3.94598746,32.4514179 4.06366258,35.1020885 C4.21425135,36.7467203 4.51985276,38.3737794 4.97657381,39.9616512 C5.59113878,41.9825152 5.89550151,44.0838622 5.87904468,46.1948743 C5.81569477,48.7077747 4.07268729,51.3150407 2.53317815,53.6156625 C0.854936225,56.1262784 -0.594502785,58.2944018 0.246033816,60.2940028 C1.04374729,61.6493875 2.44770885,62.5424336 4.02101641,62.6956678 C4.11161741,62.7118347 4.20328013,62.7211483 4.29529677,62.7234327 C4.71574203,62.6722961 5.13724901,62.8107692 5.44391216,63.1010707 C5.7505753,63.3913722 5.91018878,63.8027498 5.87904468,64.2222109 C5.87904468,67.3383831 5.95725883,68.9462879 7.25345474,69.6836396 C7.14038045,69.9180598 7.06145849,70.1674169 7.01898927,70.423803 C6.88875034,71.3034939 7.20780033,72.1896867 7.86978927,72.7880381 C8.52806214,73.4211836 9.3620514,73.8439835 10.2645223,74.0019623 C10.3278722,74.0165477 10.3883908,74.0276185 10.4473169,74.041501 C10.4830618,74.2644989 10.4988108,74.4901327 10.4945639,74.7159423 C10.4837696,75.2735251 10.4439547,75.8304049 10.3751192,76.3839459 C10.1243739,78.7826235 9.78090406,82.0680211 14.6131932,83.6363873 C15.583084,83.9056015 16.5883658,84.0270291 17.5948862,83.9966282 C22.1705905,83.7948933 26.6926774,82.9340053 31.019229,81.4412018 C32.2683549,83.6044049 33.0214757,86.0146806 33.2244431,88.5003432 C33.2242662,88.8980141 33.3833488,89.2795181 33.6666539,89.5608575 C33.949782,89.8420212 34.3339514,90 34.7345777,90 L72.4849345,90 C73.1306436,89.9920923 73.6988463,89.5743885 73.8947356,88.9632089 C74.0932792,88.3435945 73.8770401,87.6670444 73.3550226,87.2746453 C71.7926863,86.0965695 66.6186969,73.6847745 66.4596142,69.2265729 C66.9156275,68.1983925 67.5264764,67.0438641 68.2498687,65.7027134 C72.1887117,58.8092828 74.9281532,51.3050242 76.3528185,43.5062466 Z M63.4283738,69.0759746 C63.4667731,72.6622174 66.7223925,82.1381363 69.5193444,87.0010379 L36.1165969,87.0010379 C35.7405673,84.7034034 34.9909856,82.4818589 33.8970494,80.4232136 C38.2720866,78.720416 42.1259912,76.5310296 43.9758795,74.1283102 C44.4793167,73.46986 44.3515551,72.5309491 43.6899201,72.0290719 C43.028462,71.527019 42.0826372,71.6512582 41.57513,72.3065453 C37.301665,77.859528 19.5206883,82.0755774 15.5508782,80.7860905 C13.0367005,79.9696614 13.136857,79.0112447 13.3787546,76.6946317 C13.4589153,76.0379388 13.5042158,75.3775556 13.5144792,74.7162938 C13.5144792,72.1895109 12.4881397,71.4352894 10.9456224,71.0801445 C10.6545313,71.0388486 10.3765348,70.9321821 10.1330447,70.7682285 C10.4294444,70.4868891 10.765836,70.2503602 11.1314252,70.0660222 C11.7617392,69.7584995 12.0954764,69.0601592 11.9365708,68.3807974 C11.7776651,67.7014357 11.1685858,67.2204701 10.4662511,67.2199429 C9.92069857,67.2199429 9.31462745,67.2199429 8.99610831,67.1804042 C8.90019866,66.1973857 8.86763893,65.2094468 8.89878302,64.2223866 C8.92833452,63.0399176 8.47568344,61.8957571 7.64364068,61.0494545 C6.81159792,60.2031518 5.67041465,59.7264036 4.47933005,59.727458 C3.39105635,59.4997154 3.06068122,59.206778 3.03272232,59.1387715 C2.81294412,58.6182673 4.2683996,56.4436419 5.05001016,55.2750554 C6.72665949,52.767954 8.81331372,49.6473886 8.89878302,46.2713157 C8.94107528,44.3978869 8.73120657,42.5272698 8.27466248,40.7090194 C9.92122944,39.2701643 11.8643731,38.2059598 13.9685459,37.59109 C14.7183045,37.4610518 15.4887669,37.5146486 16.2128671,37.7469601 C17.016774,37.9669707 17.847932,37.4981302 18.0694797,36.6999768 C18.2910275,35.9016477 17.8189113,35.0762566 17.0151814,34.856246 C15.8260433,34.4928419 14.5654154,34.4243083 13.3433636,34.6562683 C11.2094624,35.1961026 9.21517869,36.1796483 7.49234409,37.5418863 C7.28601448,36.6683459 7.14639692,35.7805716 7.07473012,34.8861196 C6.97245009,32.549298 7.24266048,30.2110705 7.87545183,27.9580708 C10.7952105,16.2391686 19.757985,7.58249034 32.4691989,4.20694463 C41.4986854,1.80211652 51.1167246,2.99302044 59.2750613,7.52608188 C72.073337,15.1269905 75.559352,31.2236112 73.3828046,42.9628978 C72.0257361,50.4597759 69.3894594,57.6716243 65.5879336,64.2874057 C64.7576603,65.8257225 64.0409923,67.1540451 63.5233987,68.3832576 C63.4359829,68.6032682 63.4032462,68.8408515 63.4283738,69.0759746 Z" id="Shape"></path>
                <path d="M66.4808793,46.9184865 C66.6955076,44.6046953 65.1115474,42.5085196 62.8269252,42.0831322 L59.9544922,38.101541 C60.1306245,37.7766997 60.2656241,37.4311164 60.356327,37.0727011 L63.1380571,35.9603657 C64.4228385,37.4228547 66.5037308,37.8907809 68.2907178,37.1189312 C70.0777047,36.3470815 71.1636781,34.5114117 70.9798115,32.573438 C70.7959448,30.6354643 69.3837224,29.0370974 67.4833569,28.6152256 L65.2298479,24.1200054 C66.810644,22.5093339 66.9472256,19.9744116 65.5483626,18.2034288 C64.1494995,16.4322702 61.6520068,15.9777033 59.718946,17.1424211 L57.2059847,15.0560891 C57.3961794,14.5589835 57.4956713,14.0319953 57.49989,13.4997336 C57.503933,11.6619545 56.3875496,10.0071622 54.6819491,9.32285096 C52.9763486,8.63836391 51.0257098,9.06252088 49.7583307,10.3933507 L45.3112539,9.28171846 C44.7786383,7.35270951 43.0292684,6.01221177 41.0280047,6.00008295 C39.0267411,5.98795414 37.2611994,7.30700673 36.7052049,9.22933604 L30.7620582,10.4179599 C29.2118479,8.74629279 26.6531836,8.50600163 24.8189116,9.86003442 C22.9846396,11.2138914 22.4602857,13.7296538 23.6007511,15.7036624 L20.6885917,19.581895 C18.6017228,19.9591187 17.0639929,21.7459217 17.0019423,23.8656519 C16.9398917,25.985382 18.3705711,27.8590203 20.431776,28.357708 L22.8397963,34.3024094 C21.5186283,35.5993137 21.1285709,37.5740255 21.8573578,39.2761025 C22.5861447,40.9780038 24.2845382,42.058523 26.1348062,41.9973516 C27.9850742,41.9361802 29.6085851,40.7461501 30.2234661,38.9997765 L38.2765089,38.9997765 C38.9488702,41.0680031 41.046989,42.3202593 43.1864164,41.9303794 L48.1661088,49.5049124 C46.8885344,50.9213471 46.6457812,52.9902768 47.5605442,54.6640533 C48.4753071,56.337654 50.3480751,57.2504792 52.2299836,56.9398761 C54.1118922,56.6292729 55.5919659,55.1632683 55.9205001,53.2843567 L59.6377353,50.3131485 C60.345077,50.7591022 61.1636879,50.9971082 61.9998769,50.9999207 C64.323874,51.0015027 66.2664269,49.2324535 66.4808793,46.9184865 Z M66.5000394,31.4995984 C67.2502716,31.4980164 67.8862463,32.0510201 67.9889023,32.7940418 C68.091734,33.5370636 67.6296065,34.2419411 66.9073234,34.444088 C66.1850404,34.6462349 65.4242614,34.283601 65.126313,33.595071 C65.1212154,33.5813601 65.1240279,33.567122 65.1185787,33.5534111 L65.1090865,33.5388214 C65.0393015,33.367436 65.0022118,33.1846248 64.9999267,32.9995286 C65.0009813,32.1716051 65.6719364,31.5004773 66.5000394,31.4995984 Z M60.5315804,20.6947577 C60.6755448,19.9984934 61.2891953,19.4991026 62.0002284,19.49963 C62.828683,19.49963 63.5001654,20.1711093 63.5001654,20.9995601 C63.5001654,21.8280109 62.828683,22.4994903 62.0002284,22.4994903 C61.814604,22.4972051 61.6312647,22.4601156 61.4593511,22.3901551 L61.4465191,22.3817177 C61.4333355,22.3764443 61.4194489,22.3792568 61.4059138,22.3741592 C60.7527125,22.0927355 60.3874402,21.3911978 60.5315804,20.6947577 Z M59.0393777,24.3617028 L59.0393777,24.3617028 L56.2674913,31.2923539 L51.4083845,27.4051565 C52.0675622,26.8428365 52.5492014,26.101221 52.7952945,25.2703093 L58.7384411,24.0816854 C58.8328354,24.1817042 58.9360186,24.2706488 59.0393777,24.3617028 Z M57.4424097,36.4049131 C57.2404377,37.126314 56.5367874,37.5879121 55.7944654,37.4856082 C55.0523191,37.3833042 54.4994887,36.7489145 54.5001918,35.9995646 C54.5010707,35.1714654 55.1720258,34.5003376 56.0001288,34.4996345 C56.1857533,34.5019196 56.3690926,34.5390092 56.5410061,34.6089696 L56.5538381,34.617407 C56.5673732,34.6228562 56.5816115,34.6205711 56.5951466,34.6254929 C57.2826251,34.9236157 57.6443818,35.6833365 57.4424097,36.4049131 Z M53.000079,11.9998035 C53.8285336,11.9998035 54.500016,12.6712828 54.500016,13.4997336 C54.500016,14.3281845 53.8283578,14.9996638 53.000079,14.9996638 C52.1718002,14.9996638 51.500142,14.3281845 51.500142,13.4997336 C51.5010209,12.6716344 52.171976,12.0006824 53.000079,11.9998035 Z M45.1064693,12.3225355 L48.5326116,13.1791111 C48.5247015,13.2870399 48.500268,13.390047 48.500268,13.4999094 C48.5029047,15.9840314 50.5161214,17.9972389 53.0002548,17.9998756 C53.8046274,17.9956569 54.593004,17.7736469 55.2811856,17.3572242 L57.7943228,19.4435562 C57.604128,19.9406618 57.5044603,20.4676501 57.5002416,20.9999117 C57.5002416,21.0906141 57.5218626,21.1755158 57.5269603,21.2649878 L52.6416621,22.2419727 C52.0290662,20.8160459 50.7251247,19.8061902 49.1912621,19.5697662 L43.6991688,14.0778738 C44.3089521,13.620846 44.7932281,13.017042 45.1064693,12.3225355 Z M50.000205,23.999772 C50.000205,24.8282228 49.3287226,25.4997021 48.500268,25.4997021 C47.6721649,25.4988232 47.0010341,24.8278712 47.000331,23.999772 C47.000331,23.1713211 47.6718134,22.4998418 48.500268,22.4998418 C49.3287226,22.4998418 50.000205,23.1713211 50.000205,23.999772 Z M41.0002314,8.99976745 C41.828686,8.99976745 42.5001684,9.67124678 42.5001684,10.4996976 C42.5001684,11.3281484 41.828686,11.9996277 41.0002314,11.9996277 C40.1717768,11.9996277 39.5002944,11.3281484 39.5002944,10.4996976 C39.5009975,9.67177412 40.1721283,9.00064635 41.0002314,8.99976745 Z M41.2974766,15.9189928 L45.800979,20.4219473 C45.1008444,20.9508691 44.5708654,21.6731488 44.2766085,22.499666 L40.7237283,22.499666 C40.3695301,21.5065094 39.6773056,20.6696212 38.7681676,20.1352502 L41.2974766,15.9189928 Z M31.9735391,13.2348333 L36.8588373,12.2578484 C37.242215,13.1420215 37.8989319,13.8802972 38.7323083,14.3642193 L36.0094647,18.9023298 L31.3024082,15.882079 C31.7559225,15.1699945 31.9977968,14.3438289 32.0002577,13.4997336 C32.0002577,13.4090312 31.9786367,13.3241295 31.9735391,13.2348333 Z M38.0001816,23.999772 C38.0001816,24.8282228 37.3286992,25.4997021 36.5002446,25.4997021 C35.6721415,25.4988232 35.0010107,24.8278712 35.0003075,23.999772 C35.0003075,23.1713211 35.67179,22.4998418 36.5002446,22.4998418 C37.3286992,22.4998418 38.0001816,23.1713211 38.0001816,23.999772 Z M27.5002709,11.9998035 C28.3287255,11.9998035 29.0002079,12.6712828 29.0002079,13.4997336 C29.0002079,14.3281845 28.3287255,14.9996638 27.5002709,14.9996638 C26.6718163,14.9996638 26.0003339,14.3281845 26.0003339,13.4997336 C26.001037,12.6716344 26.6721679,12.0006824 27.5002709,11.9998035 Z M25.8676195,17.6820655 C26.7815035,18.0589377 27.7989224,18.1020038 28.7414587,17.803881 L33.3727537,20.7754407 C32.8798645,21.2583082 32.5047485,21.8484014 32.2767608,22.499666 L25.7238308,22.499666 C25.3963513,21.5711964 24.773736,20.7754407 23.9510821,20.2345659 L25.8676195,17.6820655 Z M21.5001713,25.4997021 C20.6717167,25.4997021 20.0002343,24.8282228 20.0002343,23.999772 C20.0011132,23.1716727 20.6720683,22.5005449 21.5001713,22.4998418 C22.3286259,22.4998418 23.0001083,23.1713211 23.0001083,23.999772 C23.0001083,24.8282228 22.3286259,25.4997021 21.5001713,25.4997021 Z M26.0001581,38.9996007 C25.1717035,38.9996007 24.5002211,38.3279456 24.5002211,37.4996705 C24.5002211,36.6712197 25.1717035,35.9997404 26.0001581,35.9997404 C26.8286127,35.9997404 27.5000952,36.6713955 27.5000952,37.4996705 C27.499392,38.3277698 26.8282612,38.9987218 26.0001581,38.9996007 Z M26.853222,33.0858365 C26.5723244,33.0299385 26.286505,33.0011106 26.0001581,32.9995286 C25.8516234,32.9995286 25.7113504,33.0292354 25.5665071,33.0434736 L23.5225287,27.9973591 C24.5489124,27.4772263 25.3365859,26.5832096 25.723655,25.4997021 L32.2765851,25.4997021 C32.5467601,26.2552042 33.0145126,26.9243984 33.6311514,27.4375 L26.853222,33.0858365 Z M38.2766847,35.9995646 L30.2236419,35.9995646 C30.0635056,35.5502711 29.8323539,35.129454 29.5391517,34.7532849 L36.9059465,28.6143467 L39.4145134,34.2407107 C38.9019367,34.7290273 38.5120551,35.3317767 38.2766847,35.9995646 Z M40.7237283,25.4997021 L44.2767843,25.4997021 C44.6309824,26.4928587 45.323207,27.3297469 46.2323449,27.8641179 L43.1136431,33.0617547 C42.9107922,33.0269502 42.7060076,33.0062082 42.5003442,32.9997043 C42.3841531,32.9997043 42.2749933,33.0253682 42.1609116,33.0339814 L39.5858996,27.2587319 C40.0984762,26.7702394 40.4883579,26.16749 40.7237283,25.4997021 Z M42.5001684,38.9996007 C41.6717138,38.9996007 41.0002314,38.3279456 41.0002314,37.4996705 C41.0002314,36.6712197 41.6718896,35.9997404 42.5001684,35.9997404 C43.328623,35.9997404 44.0001054,36.6713955 44.0001054,37.4996705 C43.9994023,38.3277698 43.3282714,38.9987218 42.5001684,38.9996007 Z M48.9029816,29.2431115 L53.0920123,32.5943558 C52.4330104,33.1568516 51.9511954,33.8984671 51.7051023,34.7292031 L46.6415625,35.7418713 C46.4329108,35.2625194 46.142521,34.8232453 45.7832252,34.4435607 L48.9029816,29.2431115 Z M51.500142,53.9994294 C50.6716874,53.9994294 50.000205,53.3279501 50.000205,52.4994993 C50.000205,51.6710485 50.6716874,50.9995691 51.500142,50.9995691 C52.3285966,50.9995691 53.000079,51.6710485 53.000079,52.4994993 C52.9993759,53.3275985 52.328245,53.9987263 51.500142,53.9994294 Z M57.5000658,46.4996029 C57.505515,47.0007515 57.5956905,47.4973298 57.7667252,47.96842 L55.2346037,49.9925259 C54.2878487,48.5136894 52.5411155,47.753617 50.8137182,48.0689661 L45.8340258,40.4944332 C46.2789268,39.9983822 46.6072852,39.4093437 46.7951949,38.7702079 L51.8587347,37.7575397 C52.8241225,40.0375812 55.4515171,41.1073778 57.7349089,40.1500803 L59.5853527,42.7150611 C58.2891455,43.5373596 57.5027025,44.9645168 57.5000658,46.4996029 Z M58.9609795,32.6375977 L61.8230414,25.4817725 C61.8829827,25.4842335 61.9394083,25.4997021 62.0000526,25.4997021 C62.1807552,25.4926709 62.3609305,25.4743898 62.5395237,25.4452103 L64.3556903,29.0682104 C62.9097179,29.8483218 62.0058534,31.3566893 62.0000526,32.9997043 C62.0000526,33.0605242 62.0156971,33.1169496 62.0179823,33.1772421 L60.0012499,33.9835446 C59.7433796,33.4729039 59.3902361,33.0160519 58.9609795,32.6375977 Z M62.0000526,47.9995331 C61.171598,47.9995331 60.5001156,47.3280537 60.5001156,46.4996029 C60.5009945,45.6715037 61.1719496,45.0003759 62.0000526,44.9996728 C62.8285072,44.9996728 63.4999896,45.6711521 63.4999896,46.4996029 C63.4999896,47.3280537 62.8285072,47.9995331 62.0000526,47.9995331 Z" id="Shape"></path>
            </g>
        </g>
    </g>
</svg>