<?xml version="1.0" encoding="utf-8"?>
<!-- Generator: Adobe Illustrator 27.2.0, SVG Export Plug-In . SVG Version: 6.00 Build 0)  -->
<svg version="1.1" id="Layer_1" xmlns="http://www.w3.org/2000/svg" xmlns:xlink="http://www.w3.org/1999/xlink" x="0px" y="0px"
	 viewBox="0 0 2880 1800" style="enable-background:new 0 0 2880 1800;" xml:space="preserve">
<style type="text/css">
	.st0{fill:none;stroke:#000000;stroke-width:5.2648;stroke-linecap:round;stroke-linejoin:round;stroke-miterlimit:10;}
	.st1{fill:#05203A;stroke:#000000;stroke-width:5.2648;stroke-linecap:round;stroke-linejoin:round;stroke-miterlimit:10;}
	.st2{fill:#FFFFFF;stroke:#263238;stroke-width:5.2648;stroke-linecap:round;stroke-linejoin:round;stroke-miterlimit:10;}
	.st3{fill:#263238;stroke:#263238;stroke-width:5.2648;stroke-linecap:round;stroke-linejoin:round;stroke-miterlimit:10;}
	.st4{fill:none;stroke:#263238;stroke-width:5.2648;stroke-linecap:round;stroke-linejoin:round;stroke-miterlimit:10;}
	.st5{fill:#B1E0E3;stroke:#263238;stroke-width:5.2648;stroke-linecap:round;stroke-linejoin:round;stroke-miterlimit:10;}
	.st6{fill:#C2E6E4;stroke:#263238;stroke-width:5.2648;stroke-linecap:round;stroke-linejoin:round;stroke-miterlimit:10;}
	.st7{fill:#FFFFFF;}
	
		.st8{opacity:0.2;fill:none;stroke:#000000;stroke-width:5.2648;stroke-linecap:round;stroke-linejoin:round;stroke-miterlimit:10;enable-background:new    ;}
	.st9{opacity:0.2;}
	.st10{fill:none;stroke:#000000;stroke-width:5.265;stroke-linecap:round;stroke-linejoin:round;stroke-miterlimit:10.0004;}
	.st11{fill:none;stroke:#000000;stroke-width:5.2648;stroke-miterlimit:10;}
	.st12{fill:none;stroke:#263238;stroke-width:47.3832;stroke-linecap:round;stroke-linejoin:round;stroke-miterlimit:10;}
	.st13{fill:none;stroke:#263238;stroke-width:21.0592;stroke-linecap:round;stroke-linejoin:round;stroke-miterlimit:10;}
	.st14{fill:#E0E0E0;}
	.st15{fill:#263238;}
	.st16{fill:#0073AB;}
	.st17{fill:#A8A8A8;}
	.st18{fill:none;stroke:#263238;stroke-width:5.2648;stroke-linecap:round;stroke-miterlimit:10;}
</style>
<g>
	<g>
		<g>
			<g>
				<path class="st0" d="M1738.67,1554.93h740.6c29.43,0,53.33-23.9,53.33-53.33V131.33c0-29.43-23.9-53.33-53.33-53.33H336.39
					c-29.43,0-53.33,23.9-53.33,53.33v1370.22c0,29.43,23.9,53.33,53.33,53.33h740.6"/>
				<rect x="330.02" y="137.76" class="st0" width="2151.41" height="1259.24"/>
				<rect x="1077.04" y="1554.93" class="st0" width="661.63" height="149.2"/>
				<polyline class="st1" points="1738.67,1704.14 1853.92,1704.14 1853.92,1761.1 961.8,1761.1 961.8,1704.14 1077.04,1704.14 				
					"/>
			</g>
		</g>
		<g>
			<g>
				<g>
					<polygon class="st2" points="898.52,622.43 730.94,622.43 730.94,399 862.61,399 898.52,434.11 					"/>
					<polygon class="st3" points="867.08,430.43 867.08,439.59 898.52,434.11 					"/>
					<polygon class="st2" points="862.61,399 862.61,434.11 898.52,434.11 					"/>
					<line class="st4" x1="752.26" y1="447.54" x2="881.25" y2="447.54"/>
					<line class="st4" x1="752.26" y1="479.44" x2="881.25" y2="479.44"/>
					<line class="st4" x1="752.26" y1="511.4" x2="881.25" y2="511.4"/>
					<line class="st4" x1="752.26" y1="543.3" x2="881.25" y2="543.3"/>
					<line class="st4" x1="752.26" y1="575.21" x2="881.25" y2="575.21"/>
				</g>
				<g>
					<line class="st4" x1="425.37" y1="892.31" x2="485.39" y2="892.31"/>
					<line class="st4" x1="359.03" y1="892.31" x2="414.52" y2="892.31"/>
					<line class="st4" x1="462.17" y1="911.31" x2="485.39" y2="911.31"/>
					<line class="st4" x1="359.03" y1="911.31" x2="451.32" y2="911.31"/>
					<line class="st4" x1="476.23" y1="930.27" x2="485.39" y2="930.27"/>
					<line class="st4" x1="426.42" y1="930.27" x2="461.06" y2="930.27"/>
					<line class="st4" x1="359.03" y1="930.27" x2="416.68" y2="930.27"/>
					<line class="st4" x1="359.03" y1="949.22" x2="485.39" y2="949.22"/>
					<line class="st4" x1="464.33" y1="968.17" x2="485.39" y2="968.17"/>
					<line class="st4" x1="391.83" y1="968.17" x2="442.69" y2="968.17"/>
					<line class="st4" x1="359.03" y1="968.17" x2="376.67" y2="968.17"/>
					<line class="st4" x1="416.68" y1="987.13" x2="485.39" y2="987.13"/>
					<line class="st4" x1="359.03" y1="987.13" x2="404.78" y2="987.13"/>
					<line class="st4" x1="451.32" y1="1006.08" x2="485.39" y2="1006.08"/>
					<line class="st4" x1="417.79" y1="1006.08" x2="441.58" y2="1006.08"/>
					<line class="st4" x1="359.03" y1="1006.08" x2="404.78" y2="1006.08"/>
				</g>
				<g>
					<polygon class="st5" points="810.07,1147.07 671.92,1147.07 671.92,962.86 780.48,962.86 810.07,991.76 					"/>
					<polygon class="st3" points="784.16,988.76 784.16,996.29 810.07,991.81 					"/>
					<polygon class="st2" points="780.48,962.86 780.48,991.81 810.07,991.81 					"/>
					<line class="st4" x1="689.45" y1="1002.87" x2="795.85" y2="1002.87"/>
					<line class="st4" x1="689.45" y1="1029.19" x2="795.85" y2="1029.19"/>
					<line class="st4" x1="689.45" y1="1055.52" x2="795.85" y2="1055.52"/>
					<line class="st4" x1="689.45" y1="1081.84" x2="795.85" y2="1081.84"/>
					<line class="st4" x1="689.45" y1="1108.16" x2="795.85" y2="1108.16"/>
				</g>
				<g>
					<polygon class="st6" points="664.81,643.07 497.28,643.07 497.28,419.69 628.9,419.69 664.81,454.75 					"/>
					<polygon class="st3" points="633.43,451.06 633.43,460.22 664.81,454.8 					"/>
					<polygon class="st2" points="628.9,419.69 628.9,454.8 664.81,454.8 					"/>
					<line class="st4" x1="518.55" y1="468.17" x2="647.54" y2="468.17"/>
					<line class="st4" x1="518.55" y1="500.13" x2="647.54" y2="500.13"/>
					<line class="st4" x1="518.55" y1="532.04" x2="647.54" y2="532.04"/>
					<line class="st4" x1="518.55" y1="563.94" x2="647.54" y2="563.94"/>
					<line class="st4" x1="518.55" y1="595.85" x2="647.54" y2="595.85"/>
				</g>
				<g>
					<polygon class="st6" points="1023.66,745.26 856.13,745.26 856.13,521.82 987.75,521.82 1023.66,556.94 					"/>
					<polygon class="st3" points="992.28,553.25 992.28,562.41 1023.66,556.99 					"/>
					<polygon class="st2" points="987.75,521.82 987.75,556.99 1023.66,556.99 					"/>
					<line class="st4" x1="877.4" y1="570.36" x2="1006.39" y2="570.36"/>
					<line class="st4" x1="877.4" y1="602.32" x2="1006.39" y2="602.32"/>
					<line class="st4" x1="877.4" y1="634.23" x2="1006.39" y2="634.23"/>
					<line class="st4" x1="877.4" y1="666.13" x2="1006.39" y2="666.13"/>
					<line class="st4" x1="877.4" y1="698.04" x2="1006.39" y2="698.04"/>
				</g>
				<g>
					<polygon class="st2" points="1248.47,992.81 1080.89,992.81 1080.89,769.43 1212.56,769.43 1248.47,804.49 					"/>
					<polygon class="st3" points="1217.04,800.86 1217.04,809.97 1248.47,804.54 					"/>
					<polygon class="st2" points="1212.56,769.43 1212.56,804.54 1248.47,804.54 					"/>
					<line class="st4" x1="1102.16" y1="817.97" x2="1231.15" y2="817.97"/>
					<line class="st4" x1="1102.16" y1="849.87" x2="1231.15" y2="849.87"/>
					<line class="st4" x1="1102.16" y1="881.78" x2="1231.15" y2="881.78"/>
					<line class="st4" x1="1102.16" y1="913.68" x2="1231.15" y2="913.68"/>
					<line class="st4" x1="1102.16" y1="945.64" x2="1231.15" y2="945.64"/>
				</g>
				<g>
					<path class="st2" d="M772.32,878.09H605.11c-25.01,0-45.33-20.27-45.33-45.33V630.75c0-25.01,20.27-45.33,45.33-45.33h167.21
						c25.01,0,45.33,20.27,45.33,45.33v202.01C817.6,857.77,797.33,878.09,772.32,878.09z"/>
					<path class="st3" d="M788.95,585.42H588.42c-15.85,0-28.64,12.85-28.64,28.64v6.16h257.87v-6.16
						C817.6,598.27,804.8,585.42,788.95,585.42z"/>
					<line class="st4" x1="596.58" y1="671.4" x2="780.79" y2="671.4"/>
					<line class="st4" x1="596.58" y1="716.41" x2="780.79" y2="716.41"/>
					<line class="st4" x1="596.58" y1="761.42" x2="780.79" y2="761.42"/>
					<line class="st4" x1="596.58" y1="806.44" x2="780.79" y2="806.44"/>
					<path class="st7" d="M751.94,601.8c0-4.53-3.69-8.16-8.16-8.16c-4.53,0-8.16,3.69-8.16,8.16c0,4.47,3.69,8.16,8.16,8.16
						C748.31,610.01,751.94,606.32,751.94,601.8z"/>
					<path class="st7" d="M778.9,601.8c0-4.53-3.69-8.16-8.16-8.16c-4.53,0-8.16,3.69-8.16,8.16c0,4.47,3.69,8.16,8.16,8.16
						C775.27,610.01,778.9,606.32,778.9,601.8z"/>
					<path class="st7" d="M805.91,601.8c0-4.53-3.69-8.16-8.16-8.16c-4.53,0-8.16,3.69-8.16,8.16c0,4.47,3.69,8.16,8.16,8.16
						C802.22,610.01,805.91,606.32,805.91,601.8z"/>
				</g>
				<g>
					<path class="st2" d="M595.58,1027.98h-88.19c-25.01,0-45.33-20.27-45.33-45.33v-112.3c0-25.01,20.27-45.33,45.33-45.33h88.19
						c25.01,0,45.33,20.27,45.33,45.33v112.3C640.91,1007.71,620.64,1027.98,595.58,1027.98z"/>
					<path class="st3" d="M621.06,825.02h-139.1c-10.95,0-19.85,8.9-19.85,19.85v4.26h178.79v-4.26
						C640.91,833.92,632.01,825.02,621.06,825.02z"/>
					<line class="st4" x1="487.65" y1="884.67" x2="615.37" y2="884.67"/>
					<line class="st4" x1="487.65" y1="915.89" x2="615.37" y2="915.89"/>
					<line class="st4" x1="487.65" y1="947.11" x2="615.37" y2="947.11"/>
					<line class="st4" x1="487.65" y1="978.33" x2="615.37" y2="978.33"/>
					<circle class="st7" cx="589.68" cy="836.39" r="5.69"/>
					<circle class="st7" cx="608.42" cy="836.39" r="5.69"/>
					<path class="st7" d="M632.8,836.39c0-3.16-2.53-5.69-5.69-5.69s-5.69,2.53-5.69,5.69c0,3.16,2.53,5.69,5.69,5.69
						S632.8,839.55,632.8,836.39z"/>
				</g>
				<g>
					<line class="st4" x1="550.56" y1="1089.05" x2="610.58" y2="1089.05"/>
					<line class="st4" x1="484.17" y1="1089.05" x2="539.72" y2="1089.05"/>
					<line class="st4" x1="587.37" y1="1108.06" x2="610.58" y2="1108.06"/>
					<line class="st4" x1="484.17" y1="1108.06" x2="576.52" y2="1108.06"/>
					<line class="st4" x1="601.42" y1="1127.01" x2="610.58" y2="1127.01"/>
					<line class="st4" x1="551.62" y1="1127.01" x2="586.26" y2="1127.01"/>
					<line class="st4" x1="484.17" y1="1127.01" x2="541.88" y2="1127.01"/>
					<line class="st4" x1="484.17" y1="1145.97" x2="610.58" y2="1145.97"/>
					<line class="st4" x1="589.52" y1="1164.92" x2="610.58" y2="1164.92"/>
					<line class="st4" x1="516.98" y1="1164.92" x2="567.89" y2="1164.92"/>
					<line class="st4" x1="484.17" y1="1164.92" x2="501.87" y2="1164.92"/>
					<line class="st4" x1="541.88" y1="1183.87" x2="610.58" y2="1183.87"/>
					<line class="st4" x1="484.17" y1="1183.87" x2="529.98" y2="1183.87"/>
					<line class="st4" x1="576.52" y1="1202.83" x2="610.58" y2="1202.83"/>
					<line class="st4" x1="542.98" y1="1202.83" x2="566.78" y2="1202.83"/>
					<line class="st4" x1="484.17" y1="1202.83" x2="529.98" y2="1202.83"/>
				</g>
				<g>
					<line class="st4" x1="974.85" y1="1063.62" x2="1034.87" y2="1063.62"/>
					<line class="st4" x1="908.47" y1="1063.62" x2="964.01" y2="1063.62"/>
					<line class="st4" x1="1011.66" y1="1082.58" x2="1034.87" y2="1082.58"/>
					<line class="st4" x1="908.47" y1="1082.58" x2="1000.81" y2="1082.58"/>
					<line class="st4" x1="1025.71" y1="1101.53" x2="1034.87" y2="1101.53"/>
					<line class="st4" x1="975.91" y1="1101.53" x2="1010.55" y2="1101.53"/>
					<line class="st4" x1="908.47" y1="1101.53" x2="966.17" y2="1101.53"/>
					<line class="st4" x1="908.47" y1="1120.48" x2="1034.87" y2="1120.48"/>
					<line class="st4" x1="1013.81" y1="1139.44" x2="1034.87" y2="1139.44"/>
					<line class="st4" x1="941.27" y1="1139.44" x2="992.18" y2="1139.44"/>
					<line class="st4" x1="908.47" y1="1139.44" x2="926.16" y2="1139.44"/>
					<line class="st4" x1="966.17" y1="1158.39" x2="1034.87" y2="1158.39"/>
					<line class="st4" x1="908.47" y1="1158.39" x2="954.27" y2="1158.39"/>
					<line class="st4" x1="1000.81" y1="1177.34" x2="1034.87" y2="1177.34"/>
					<line class="st4" x1="967.27" y1="1177.34" x2="991.07" y2="1177.34"/>
					<line class="st4" x1="908.47" y1="1177.34" x2="954.27" y2="1177.34"/>
				</g>
				<g>
					<line class="st4" x1="1115.27" y1="633.65" x2="1175.29" y2="633.65"/>
					<line class="st4" x1="1048.88" y1="633.65" x2="1104.42" y2="633.65"/>
					<line class="st4" x1="1152.07" y1="652.6" x2="1175.29" y2="652.6"/>
					<line class="st4" x1="1048.88" y1="652.6" x2="1141.22" y2="652.6"/>
					<line class="st4" x1="1166.12" y1="671.55" x2="1175.29" y2="671.55"/>
					<line class="st4" x1="1116.32" y1="671.55" x2="1150.96" y2="671.55"/>
					<line class="st4" x1="1048.88" y1="671.55" x2="1106.58" y2="671.55"/>
					<line class="st4" x1="1048.88" y1="690.51" x2="1175.29" y2="690.51"/>
					<line class="st4" x1="1154.23" y1="709.46" x2="1175.29" y2="709.46"/>
					<line class="st4" x1="1081.68" y1="709.46" x2="1132.59" y2="709.46"/>
					<line class="st4" x1="1048.88" y1="709.46" x2="1066.57" y2="709.46"/>
					<line class="st4" x1="1106.58" y1="728.41" x2="1175.29" y2="728.41"/>
					<line class="st4" x1="1048.88" y1="728.41" x2="1094.68" y2="728.41"/>
					<line class="st4" x1="1141.22" y1="747.42" x2="1175.29" y2="747.42"/>
					<line class="st4" x1="1107.69" y1="747.42" x2="1131.48" y2="747.42"/>
					<line class="st4" x1="1048.88" y1="747.42" x2="1094.68" y2="747.42"/>
				</g>
				<g>
					<line class="st4" x1="456.8" y1="676.45" x2="516.82" y2="676.45"/>
					<line class="st4" x1="390.41" y1="676.45" x2="445.95" y2="676.45"/>
					<line class="st4" x1="493.55" y1="695.4" x2="516.82" y2="695.4"/>
					<line class="st4" x1="390.41" y1="695.4" x2="482.75" y2="695.4"/>
					<line class="st4" x1="507.66" y1="714.36" x2="516.82" y2="714.36"/>
					<line class="st4" x1="457.85" y1="714.36" x2="492.49" y2="714.36"/>
					<line class="st4" x1="390.41" y1="714.36" x2="448.11" y2="714.36"/>
					<line class="st4" x1="390.41" y1="733.31" x2="516.82" y2="733.31"/>
					<line class="st4" x1="495.76" y1="752.32" x2="516.82" y2="752.32"/>
					<line class="st4" x1="423.21" y1="752.32" x2="474.07" y2="752.32"/>
					<line class="st4" x1="390.41" y1="752.32" x2="408.05" y2="752.32"/>
					<line class="st4" x1="448.11" y1="771.27" x2="516.82" y2="771.27"/>
					<line class="st4" x1="390.41" y1="771.27" x2="436.21" y2="771.27"/>
					<line class="st4" x1="482.75" y1="790.22" x2="516.82" y2="790.22"/>
					<line class="st4" x1="449.22" y1="790.22" x2="473.01" y2="790.22"/>
					<line class="st4" x1="390.41" y1="790.22" x2="436.21" y2="790.22"/>
				</g>
			</g>
			<g>
				<g>
					<polygon class="st2" points="832.13,826.65 832.13,1014.98 999.65,1014.98 999.65,791.59 868.03,791.59 					"/>
					<polygon class="st3" points="863.5,823.02 863.5,832.13 832.13,826.71 					"/>
					<polygon class="st2" points="868.03,791.59 868.03,826.71 832.13,826.71 					"/>
					<line class="st4" x1="978.38" y1="840.13" x2="849.39" y2="840.13"/>
					<line class="st4" x1="978.38" y1="872.04" x2="849.39" y2="872.04"/>
					<line class="st4" x1="978.38" y1="903.94" x2="849.39" y2="903.94"/>
					<line class="st4" x1="978.38" y1="935.85" x2="849.39" y2="935.85"/>
				</g>
				<rect x="832.13" y="962.86" class="st3" width="167.53" height="52.17"/>
			</g>
		</g>
		<g>
			<path class="st8" d="M1236.83,419.32v-29.59h-16.79c-0.95-7.42-2.74-14.58-5.26-21.38l15-8.69l-14.79-25.59l-14.58,8.42
				c-4.47-5.84-9.58-11.16-15.27-15.9l8.69-15.06l-25.59-14.79l-8.37,14.53c-6.74-2.79-13.79-4.84-21.16-6.11V287.8h-29.59v16.79
				c-7.42,0.95-14.58,2.74-21.38,5.26l-8.69-15l-25.59,14.79l8.42,14.58c-5.84,4.48-11.16,9.58-15.9,15.27l-15.06-8.69l-14.79,25.59
				l14.53,8.37c-2.79,6.74-4.84,13.79-6.11,21.16h-17.37v29.59h16.79c0.95,7.42,2.74,14.58,5.26,21.38l-15,8.69l14.79,25.59
				l14.58-8.42c4.47,5.84,9.58,11.16,15.27,15.9l-8.69,15.06l25.59,14.79l8.37-14.53c6.74,2.79,13.79,4.84,21.16,6.11v17.37h29.59
				v-16.79c7.42-0.95,14.58-2.74,21.38-5.26l8.69,15l25.59-14.79l-8.42-14.58c5.84-4.48,11.16-9.58,15.9-15.27l15.06,8.69
				l14.79-25.59l-14.53-8.37c2.79-6.74,4.84-13.79,6.11-21.16H1236.83z M1050.88,402.63c0-39.33,31.85-71.18,71.18-71.18
				c39.33,0,71.18,31.85,71.18,71.18s-31.85,71.18-71.18,71.18C1082.73,473.81,1050.88,441.96,1050.88,402.63z"/>
			<path class="st8" d="M1455.64,330.24v-29.59h-16.79c-0.95-7.42-2.74-14.58-5.26-21.38l15-8.69L1433.79,245l-14.58,8.42
				c-4.47-5.84-9.58-11.16-15.27-15.9l8.69-15.06l-25.59-14.79l-8.37,14.53c-6.74-2.79-13.79-4.84-21.16-6.11v-17.37h-29.59v16.79
				c-7.42,0.95-14.58,2.74-21.38,5.26l-8.69-15l-25.59,14.79l8.42,14.58c-5.84,4.48-11.16,9.58-15.9,15.27l-15.06-8.69l-14.79,25.59
				l14.53,8.37c-2.79,6.74-4.84,13.79-6.11,21.16h-17.37v29.59h16.79c0.95,7.42,2.74,14.58,5.26,21.38l-15,8.69l14.79,25.59
				l14.58-8.42c4.47,5.84,9.58,11.16,15.27,15.9l-8.69,15.06l25.59,14.79l8.37-14.53c6.74,2.79,13.79,4.84,21.16,6.11v17.37h29.59
				v-16.79c7.42-0.95,14.58-2.74,21.38-5.26l8.69,15l25.59-14.79l-8.42-14.58c5.84-4.48,11.16-9.58,15.9-15.27l15.06,8.69
				l14.79-25.59l-14.53-8.37c2.79-6.74,4.84-13.79,6.11-21.16H1455.64z M1269.63,313.55c0-39.33,31.85-71.18,71.18-71.18
				c39.33,0,71.18,31.85,71.18,71.18s-31.85,71.18-71.18,71.18C1301.48,384.73,1269.63,352.88,1269.63,313.55z"/>
		</g>
		<g class="st9">
			<circle class="st0" cx="574.31" cy="1201.14" r="75.55"/>
			
				<ellipse transform="matrix(0.1849 -0.9828 0.9828 0.1849 -711.8697 1543.6953)" class="st10" cx="574.67" cy="1200.99" rx="57.7" ry="57.7"/>
			<path class="st11" d="M684.92,1252.95l-40.8-22.11l-6.79,12.48l40.8,22.11l0,0c-1.84,3.47-0.58,7.74,2.84,9.63l77.76,42.07
				c3.47,1.84,7.74,0.58,9.63-2.84l6.79-12.48c1.84-3.47,0.58-7.74-2.84-9.63l-77.76-42.07
				C691.13,1248.21,686.82,1249.47,684.92,1252.95L684.92,1252.95z"/>
		</g>
		<g>
			<path class="st8" d="M690.24,291.07c0,35.22-28.59,63.81-63.81,63.81c-35.17,0-63.76-28.59-63.76-63.81
				c0-35.17,28.59-63.76,63.76-63.76"/>
			<path class="st8" d="M690.24,291.07h-63.81v-63.76C661.65,227.31,690.24,255.9,690.24,291.07z"/>
			<polyline class="st8" points="683.61,247.11 716.62,220.73 762.79,220.73 			"/>
			<line class="st8" x1="789.17" y1="220.73" x2="850.76" y2="220.73"/>
			<line class="st8" x1="789.17" y1="240.52" x2="850.76" y2="240.52"/>
			<line class="st8" x1="789.17" y1="260.32" x2="850.76" y2="260.32"/>
			<line class="st8" x1="789.17" y1="280.12" x2="850.76" y2="280.12"/>
		</g>
		<g class="st9">
			<polygon class="st0" points="928.58,1213.93 925.47,1198.88 871.45,1198.88 874.56,1213.93 877.3,1227.31 895.67,1316.97 
				1039.93,1316.97 1018.87,1213.93 			"/>
			<polyline class="st0" points="1039.93,1316.97 1066.57,1220.88 1021.08,1220.88 			"/>
		</g>
		<g class="st9">
			<polygon class="st0" points="1131.17,1213.93 1128.06,1198.88 1074.04,1198.88 1077.15,1213.93 1079.89,1227.31 1098.26,1316.97 
				1242.52,1316.97 1221.41,1213.93 			"/>
			<polyline class="st0" points="1242.52,1316.97 1269.16,1220.88 1223.67,1220.88 			"/>
		</g>
		<g>
			<g>
				<path class="st2" d="M1356.29,963.75L1356.29,963.75V841.08l0,0c26.32,0,47.7,21.38,47.7,47.7v27.27
					C1403.99,942.43,1382.67,963.75,1356.29,963.75z"/>
				<path class="st2" d="M1233.67,1082.05l127.57-62.97c12.27-6.05,20.06-18.58,20.06-32.27V820.34c0-13.69-7.79-26.22-20.06-32.27
					l-127.57-62.97V1082.05z"/>
			</g>
			<g>
				<g>
					<g>
						<line class="st12" x1="1576.78" y1="563.1" x2="1601.31" y2="563.1"/>
						<polyline class="st13" points="1388.72,857.45 1486.86,857.45 1486.86,563.1 1576.78,563.1 						"/>
					</g>
					<g>
						<line class="st12" x1="1595.84" y1="1157.18" x2="1625.8" y2="1157.18"/>
						<polyline class="st13" points="1388.72,947.38 1503.18,947.38 1503.18,1157.18 1595.84,1157.18 						"/>
					</g>
				</g>
			</g>
		</g>
		<g>
			<g>
				<path class="st3" d="M2235.88,812.28h-564.23c-37.8,0-68.44-30.64-68.44-68.44V362.72c0-37.8,30.64-68.44,68.44-68.44h564.23
					c37.8,0,68.44,30.64,68.44,68.44v381.12C2304.32,781.64,2273.68,812.28,2235.88,812.28z"/>
				<path class="st2" d="M2226.04,780.64h-544.49c-26.96,0-48.75-21.85-48.75-48.75V374.67c0-26.96,21.85-48.75,48.75-48.75h544.49
					c26.96,0,48.75,21.85,48.75,48.75v357.22C2274.79,758.79,2252.94,780.64,2226.04,780.64z"/>
			</g>
			<g>
				<g>
					<g>
						<rect x="1715.77" y="401.84" class="st14" width="509.05" height="18.58"/>
						<rect x="1715.77" y="445.54" class="st14" width="509.05" height="18.58"/>
						<rect x="1715.77" y="489.23" class="st14" width="509.05" height="18.58"/>
						<rect x="1715.77" y="532.93" class="st14" width="509.05" height="18.58"/>
						<rect x="1715.77" y="576.63" class="st14" width="509.05" height="18.58"/>
						<rect x="1715.77" y="620.33" class="st14" width="509.05" height="18.58"/>
						<rect x="1715.77" y="664.03" class="st14" width="509.05" height="18.58"/>
					</g>
					<g>
						<rect x="1719.03" y="510.82" class="st15" width="49.59" height="204.8"/>
						<rect x="1794.9" y="568.21" class="st16" width="49.59" height="147.36"/>
						<rect x="1870.71" y="532.51" class="st15" width="49.59" height="183.06"/>
						<rect x="1946.53" y="606.48" class="st16" width="49.59" height="109.09"/>
						<rect x="2022.39" y="536.3" class="st15" width="49.59" height="179.27"/>
						<rect x="2098.21" y="489.13" class="st16" width="49.59" height="226.49"/>
						<rect x="2174.02" y="459.75" class="st15" width="49.59" height="255.82"/>
					</g>
				</g>
				<g>
					<line class="st4" x1="1678.23" y1="405.31" x2="1695.18" y2="405.31"/>
					<line class="st4" x1="1678.23" y1="429.64" x2="1695.18" y2="429.64"/>
					<line class="st4" x1="1678.23" y1="454.01" x2="1695.18" y2="454.01"/>
					<line class="st4" x1="1678.23" y1="478.34" x2="1695.18" y2="478.34"/>
					<line class="st4" x1="1678.23" y1="502.71" x2="1695.18" y2="502.71"/>
					<line class="st4" x1="1678.23" y1="527.04" x2="1695.18" y2="527.04"/>
					<line class="st4" x1="1678.23" y1="551.41" x2="1695.18" y2="551.41"/>
					<line class="st4" x1="1678.23" y1="575.73" x2="1695.18" y2="575.73"/>
					<line class="st4" x1="1678.23" y1="600.11" x2="1695.18" y2="600.11"/>
					<line class="st4" x1="1678.23" y1="624.43" x2="1695.18" y2="624.43"/>
					<line class="st4" x1="1678.23" y1="648.81" x2="1695.18" y2="648.81"/>
					<line class="st4" x1="1678.23" y1="673.13" x2="1695.18" y2="673.13"/>
					<line class="st4" x1="1678.23" y1="697.51" x2="1695.18" y2="697.51"/>
					<line class="st4" x1="1678.23" y1="721.83" x2="1695.18" y2="721.83"/>
				</g>
				<g>
					<line class="st4" x1="2225.03" y1="728.83" x2="2225.03" y2="745.73"/>
					<line class="st4" x1="2184.6" y1="728.83" x2="2184.6" y2="745.73"/>
					<line class="st4" x1="2144.17" y1="728.83" x2="2144.17" y2="745.73"/>
					<line class="st4" x1="2103.73" y1="728.83" x2="2103.73" y2="745.73"/>
					<line class="st4" x1="2063.3" y1="728.83" x2="2063.3" y2="745.73"/>
					<line class="st4" x1="2022.87" y1="728.83" x2="2022.87" y2="745.73"/>
					<line class="st4" x1="1982.43" y1="728.83" x2="1982.43" y2="745.73"/>
					<line class="st4" x1="1942" y1="728.83" x2="1942" y2="745.73"/>
					<line class="st4" x1="1901.57" y1="728.83" x2="1901.57" y2="745.73"/>
					<line class="st4" x1="1861.13" y1="728.83" x2="1861.13" y2="745.73"/>
					<line class="st4" x1="1820.7" y1="728.83" x2="1820.7" y2="745.73"/>
					<line class="st4" x1="1780.26" y1="728.83" x2="1780.26" y2="745.73"/>
					<line class="st4" x1="1739.83" y1="728.83" x2="1739.83" y2="745.73"/>
					<line class="st4" x1="1699.4" y1="728.83" x2="1699.4" y2="745.73"/>
				</g>
				<rect x="1894.93" y="359.61" class="st15" width="113.4" height="18.64"/>
			</g>
		</g>
		<g>
			<g>
				<path class="st3" d="M2235.88,1360.66h-564.6c-37.8,0-68.44-30.64-68.44-68.44V910.84c0-37.8,30.64-68.44,68.44-68.44h564.6
					c37.8,0,68.44,30.64,68.44,68.44v381.38C2304.32,1330.02,2273.68,1360.66,2235.88,1360.66z"/>
				<path class="st2" d="M2225.98,1329.02h-544.85c-26.96,0-48.75-21.85-48.75-48.75V922.79c0-26.96,21.85-48.75,48.75-48.75h544.85
					c26.96,0,48.75,21.85,48.75,48.75v357.48C2274.79,1307.23,2252.94,1329.02,2225.98,1329.02z"/>
			</g>
			<g>
				<g>
					<path class="st15" d="M1845.71,1285.01c-95.35,0-172.9-77.55-172.9-172.9c0-82.45,58.65-153.78,139.46-169.63l8.21,41.91
						c-60.81,11.95-104.98,65.65-104.98,127.78c0,71.81,58.39,130.2,130.2,130.2c14.32,0,28.43-2.32,41.8-6.84l13.69,40.43
						C1883.4,1281.96,1864.71,1285.01,1845.71,1285.01z"/>
				</g>
				<g>
					<path class="st16" d="M1968.22,1067.84c-18.58-51.38-67.81-85.92-122.46-85.92c-8.48,0-16.95,0.84-25.22,2.42l-8.21-41.91
						c10.95-2.16,22.22-3.21,33.43-3.21c72.6,0,137.94,45.86,162.63,114.09L1968.22,1067.84z"/>
				</g>
				<g>
					<path class="st17" d="M1901.25,1275.9l-13.69-40.43c52.86-17.9,88.4-67.49,88.4-123.35c0-15.22-2.58-30.11-7.74-44.28
						l40.12-14.53c6.79,18.85,10.27,38.64,10.27,58.81C2018.6,1186.29,1971.43,1252.1,1901.25,1275.9z"/>
				</g>
				<rect x="2076.57" y="978.86" class="st15" width="47.96" height="47.96"/>
				<rect x="2076.57" y="1096.32" class="st16" width="47.96" height="47.96"/>
				<rect x="2076.57" y="1213.78" class="st17" width="47.96" height="47.96"/>
				<line class="st4" x1="2149.85" y1="1004.13" x2="2230.67" y2="1004.13"/>
				<line class="st4" x1="2149.85" y1="1117.8" x2="2230.67" y2="1117.8"/>
				<line class="st4" x1="1801.27" y1="1115.27" x2="1882.09" y2="1115.27"/>
				<line class="st4" x1="2149.85" y1="1236.52" x2="2230.67" y2="1236.52"/>
			</g>
		</g>
		<line class="st18" x1="39.56" y1="1763" x2="2840.44" y2="1763"/>
	</g>
</g>
</svg>
