<?xml version="1.0" encoding="utf-8"?>
<!-- Generator: Adobe Illustrator 27.2.0, SVG Export Plug-In . SVG Version: 6.00 Build 0)  -->
<svg version="1.1" id="Layer_1" xmlns="http://www.w3.org/2000/svg" xmlns:xlink="http://www.w3.org/1999/xlink" x="0px" y="0px"
	 viewBox="0 0 2880 1800" style="enable-background:new 0 0 2880 1800;" xml:space="preserve">
<style type="text/css">
	.st0{fill:none;stroke:#515254;stroke-width:0.7057;stroke-linecap:round;stroke-linejoin:round;stroke-miterlimit:10;}
	.st1{fill:#0073AB;}
	.st2{fill:none;stroke:#515254;stroke-linecap:round;stroke-linejoin:round;stroke-miterlimit:10;}
	.st3{fill:#0091C8;}
	.st4{fill:#41A0D8;}
	.st5{fill:#C7C8CA;}
	.st6{fill:none;stroke:#E9E9EA;stroke-width:2;stroke-miterlimit:10;}
	.st7{fill:#E9E9EA;}
	.st8{fill:#FFFFFF;}
	.st9{fill:none;stroke:#515254;stroke-width:3;stroke-miterlimit:10;}
	.st10{fill:#FFFFFF;stroke:#515254;stroke-width:3;stroke-miterlimit:10;}
	.st11{fill:#00714A;}
	.st12{fill:#FFF6F2;}
	.st13{font-family:'Montserrat-Bold';}
	.st14{font-size:145.4471px;}
	.st15{fill:#8EC375;}
	.st16{font-size:134.0143px;}
	.st17{fill:none;stroke:#FFF6F2;stroke-width:3.8841;stroke-miterlimit:10;}
	.st18{fill:none;stroke:#E9E9EA;stroke-width:0.7057;stroke-linecap:round;stroke-linejoin:round;stroke-miterlimit:10;}
	.st19{fill:#A9CA92;}
	.st20{fill:#FFFFFF;stroke:#C7C8CA;stroke-miterlimit:10;}
	.st21{fill:#ACC5E6;}
	.st22{fill:none;stroke:#FFFFFF;stroke-width:0.7057;stroke-linecap:round;stroke-linejoin:round;stroke-miterlimit:10;}
	.st23{fill:#999999;}
	.st24{fill:#00558C;}
	.st25{opacity:0.33;fill:#C4BFDF;}
	.st26{fill:none;stroke:#00558C;stroke-width:10.3745;stroke-linecap:round;stroke-linejoin:round;stroke-miterlimit:10;}
	.st27{fill:none;stroke:#FFF6F2;stroke-width:6.0453;stroke-linecap:round;stroke-linejoin:round;stroke-miterlimit:10;}
</style>
<g>
	<path class="st0" d="M2241.41,1685.53H610.56c-18.83,0-34.09-15.26-34.09-34.09V112.19c0-18.83,15.26-34.09,34.09-34.09h1630.85
		c18.83,0,34.09,15.26,34.09,34.09v1539.26C2275.5,1670.27,2260.23,1685.53,2241.41,1685.53z"/>
	<rect x="656.82" y="179.74" class="st1" width="311.5" height="38.34"/>
	<rect x="982.69" y="179.74" class="st1" width="91.05" height="38.34"/>
	<rect x="656.82" y="246.84" class="st1" width="416.93" height="38.34"/>
	<rect x="656.82" y="321.39" class="st1" width="101.8" height="38.34"/>
	<rect x="769.26" y="321.39" class="st1" width="304.49" height="38.34"/>
	<rect x="816.12" y="395.94" class="st1" width="136.32" height="38.34"/>
	<rect x="965.23" y="395.94" class="st1" width="108.52" height="38.34"/>
	<rect x="656.82" y="395.94" class="st1" width="148.65" height="38.34"/>
	<path class="st1" d="M1023.15,1401.78H525.3c-6.77,0-12.26-5.49-12.26-12.26V834.17c0-6.77,5.49-12.26,12.26-12.26h497.85
		c6.77,0,12.26,5.49,12.26,12.26v555.36C1035.41,1396.3,1029.92,1401.78,1023.15,1401.78z"/>
	<path class="st2" d="M1800.66,491.24h-653.51c-3.49,0-6.31-2.83-6.31-6.31V157.3c0-3.49,2.83-6.31,6.31-6.31h653.51
		c3.49,0,6.31,2.83,6.31,6.31v327.63C1806.97,488.42,1804.15,491.24,1800.66,491.24z"/>
	<polyline class="st2" points="1140.84,463.93 1303.78,333.1 1385.25,409.77 1538.6,289.97 1615.28,366.64 1806.97,178.3 	"/>
	<path class="st3" d="M1214.44,415.01c0,6.62-5.36,11.98-11.98,11.98c-6.62,0-11.98-5.36-11.98-11.98c0-6.62,5.36-11.98,11.98-11.98
		C1209.07,403.03,1214.44,408.39,1214.44,415.01z"/>
	<path class="st3" d="M1315.88,332.74c0,6.62-5.36,11.98-11.98,11.98c-6.62,0-11.98-5.36-11.98-11.98c0-6.62,5.36-11.98,11.98-11.98
		C1310.52,320.75,1315.88,326.12,1315.88,332.74z"/>
	<path class="st3" d="M1464.45,362.29c0,6.62-5.36,11.98-11.98,11.98c-6.62,0-11.98-5.36-11.98-11.98c0-6.62,5.36-11.98,11.98-11.98
		C1459.09,350.31,1464.45,355.67,1464.45,362.29z"/>
	<path class="st3" d="M1728.04,268.84c0,6.62-5.36,11.98-11.98,11.98c-6.62,0-11.98-5.36-11.98-11.98c0-6.62,5.36-11.98,11.98-11.98
		C1722.68,256.85,1728.04,262.22,1728.04,268.84z"/>
	<path class="st3" d="M1817.5,180.97c0,6.62-5.36,11.98-11.98,11.98c-6.62,0-11.98-5.36-11.98-11.98c0-6.62,5.36-11.98,11.98-11.98
		C1812.14,168.99,1817.5,174.35,1817.5,180.97z"/>
	<path class="st3" d="M1551.51,289.6c0,6.62-5.36,11.98-11.98,11.98c-6.62,0-11.98-5.36-11.98-11.98c0-6.62,5.36-11.98,11.98-11.98
		C1546.15,277.62,1551.51,282.99,1551.51,289.6z"/>
	<path class="st4" d="M1378.54,237.25h-168.68c-1.06,0-1.92-0.86-1.92-1.92v-24.91c0-1.06,0.86-1.92,1.92-1.92h168.68
		c1.06,0,1.92,0.86,1.92,1.92v24.91C1380.46,236.39,1379.59,237.25,1378.54,237.25z"/>
	<path class="st4" d="M1725.5,457.7h-143.77c-7.91,0-14.38-6.47-14.38-14.38l0,0c0-7.91,6.47-14.38,14.38-14.38h143.77
		c7.91,0,14.38,6.47,14.38,14.38l0,0C1739.88,451.23,1733.41,457.7,1725.5,457.7z"/>
	<rect x="647.23" y="711.69" class="st5" width="47.92" height="503.19"/>
	<rect x="728.7" y="601.47" class="st5" width="47.92" height="503.19"/>
	<rect x="819.76" y="730.86" class="st6" width="47.92" height="503.19"/>
	<rect x="1346.91" y="563.13" class="st7" width="47.92" height="503.19"/>
	<rect x="901.23" y="534.37" class="st5" width="47.92" height="321.09"/>
	<rect x="1068.96" y="591.88" class="st5" width="47.92" height="321.09"/>
	<rect x="1158.41" y="716.48" class="st7" width="47.92" height="321.09"/>
	<rect x="1787.81" y="730.86" class="st8" width="47.92" height="321.09"/>
	<rect x="1632.32" y="597.39" class="st7" width="52.42" height="351.25"/>
	<rect x="1428.38" y="591.88" class="st7" width="47.92" height="321.09"/>
	<rect x="1524.23" y="558.34" class="st6" width="47.92" height="321.08"/>
	<rect x="1963.52" y="558.34" class="st6" width="47.92" height="321.08"/>
	<rect x="987.49" y="496.04" class="st6" width="47.92" height="191.69"/>
	<rect x="1257.45" y="769.2" class="st6" width="47.92" height="191.69"/>
	<rect x="2057.84" y="721.61" class="st6" width="47.92" height="191.69"/>
	<rect x="2140.04" y="838.42" class="st6" width="47.92" height="191.69"/>
	<rect x="1866.08" y="611.05" class="st7" width="47.92" height="191.69"/>
	<g>
		<path class="st9" d="M2027.03,307.72c0,45.88-37.19,83.07-83.07,83.07c-43.13,0-78.57-32.84-82.69-74.89
			c-0.26-2.68-0.38-5.43-0.38-8.18c0-33.93,20.35-63.1,49.49-76.01c10.26-4.54,21.63-7.06,33.58-7.06
			C1989.84,224.65,2027.03,261.84,2027.03,307.72z"/>
		<path class="st9" d="M2231.7,307.3c0,37.38-24.7,69.01-58.69,79.43c-7.7,2.36-15.88,3.64-24.38,3.64
			c-45.88,0-83.07-37.19-83.07-83.07c0-45.88,37.19-83.07,83.07-83.07c17.54,0,33.8,5.43,47.22,14.73
			C2217.52,253.95,2231.7,278.96,2231.7,307.3z"/>
		<path class="st10" d="M1943.97,309.84l-82.7,6.06c-0.26-2.68-0.38-5.43-0.38-8.18c0-33.93,20.35-63.1,49.49-76.01L1943.97,309.84z
			"/>
		<path class="st10" d="M2231.7,307.3c0,37.38-24.7,69.01-58.69,79.43l-33.07-74.76l55.91-73.01
			C2217.52,253.95,2231.7,278.96,2231.7,307.3z"/>
	</g>
	<polygon class="st11" points="846.74,639.66 877.87,639.66 862.31,666.62 846.74,693.58 831.18,666.62 815.62,639.66 	"/>
	<polygon class="st11" points="1281.01,690.78 1312.14,690.78 1296.58,717.74 1281.01,744.7 1265.45,717.74 1249.88,690.78 	"/>
	<polygon class="st11" points="1811.5,652.44 1842.63,652.44 1827.06,679.4 1811.5,706.36 1795.93,679.4 1780.37,652.44 	"/>
	<polygon class="st11" points="1012.64,786.57 981.51,786.57 997.07,759.61 1012.64,732.66 1028.2,759.61 1043.76,786.57 	"/>
	<polygon class="st8" points="753.85,1189.13 722.72,1189.13 738.29,1162.17 753.85,1135.21 769.42,1162.17 784.98,1189.13 	"/>
	<polygon class="st11" points="1995.06,954.3 1963.93,954.3 1979.5,927.34 1995.06,900.39 2010.63,927.34 2026.19,954.3 	"/>
	<g>
		<path class="st11" d="M801.86,1464.43H613.8c-5.52,0-10-4.48-10-10v-188.07c0-5.52,4.48-10,10-10h188.07c5.52,0,10,4.48,10,10
			v188.07C811.86,1459.95,807.39,1464.43,801.86,1464.43z"/>
		<text transform="matrix(1 0 0 1 661.439 1417.3574)" class="st12 st13 st14">$</text>
	</g>
	<g>
		<path class="st15" d="M2358.96,739.72h-173.28c-5.09,0-9.21-4.13-9.21-9.21V557.22c0-5.09,4.13-9.21,9.21-9.21h173.28
			c5.09,0,9.21,4.13,9.21,9.21v173.28C2368.18,735.59,2364.05,739.72,2358.96,739.72z"/>
		<text transform="matrix(1 0 0 1 2218.7246 692.4985)" class="st12 st13 st16">#</text>
	</g>
	<g>
		<path class="st11" d="M656.83,686.79H514.91c-4.17,0-7.55-3.38-7.55-7.55V537.32c0-4.17,3.38-7.55,7.55-7.55h141.92
			c4.17,0,7.55,3.38,7.55,7.55v141.92C664.38,683.41,661,686.79,656.83,686.79z"/>
		<g>
			<rect x="549.87" y="604.86" class="st12" width="14.16" height="43.65"/>
			<rect x="573.07" y="579.78" class="st12" width="15.5" height="69.38"/>
			<rect x="599.23" y="562.25" class="st12" width="15.5" height="86.91"/>
		</g>
	</g>
	<g>
		<path class="st15" d="M2361.43,1256h-169.62c-4.98,0-9.02-4.04-9.02-9.02v-169.62c0-4.98,4.04-9.02,9.02-9.02h169.62
			c4.98,0,9.02,4.04,9.02,9.02v169.62C2370.45,1251.96,2366.41,1256,2361.43,1256z"/>
		<polyline class="st17" points="2210.79,1209.22 2251.87,1154.45 2284.23,1193.04 2329.05,1128.31 		"/>
		<polygon class="st12" points="2349.9,1099.48 2347.86,1122.38 2345.82,1145.29 2327,1132.07 2308.19,1118.85 2329.05,1109.16 		
			"/>
	</g>
	<polygon class="st1" points="1064.27,1762.52 1064.27,1546.14 925.17,1435.74 792.69,1546.14 792.69,1762.52 	"/>
	<line class="st18" x1="925.17" y1="1435.74" x2="925.17" y2="851.93"/>
	<circle class="st19" cx="923.69" cy="1439.82" r="15.98"/>
	<polygon class="st1" points="2134.61,1762.52 2134.61,1546.14 1995.51,1435.74 1863.03,1546.14 1863.03,1762.52 	"/>
	<circle class="st8" cx="1994.03" cy="1430.23" r="15.98"/>
	<line class="st20" x1="1994.03" y1="1430.23" x2="1994.03" y2="954.3"/>
	<rect x="1965.05" y="17" class="st15" width="121.41" height="121.41"/>
	<rect x="1795.94" y="1150.61" class="st21" width="121.41" height="121.41"/>
	<path class="st22" d="M1727.96,1765.78c154.24-0.07,310.79-0.07,465.59,0.22"/>
	<path class="st22" d="M631.26,1766c193.39-0.29,388.28-0.29,581.88,0"/>
	<g>
		<g>
			<path class="st23" d="M1558.96,1065.77l-262.95,200.98c-8.18,6.25-19.98,4.67-26.23-3.5l0,0c-6.25-8.18-4.67-19.98,3.5-26.23
				l262.95-200.97c8.18-6.25,19.98-4.67,26.23,3.5l0,0C1568.71,1047.72,1567.14,1059.52,1558.96,1065.77z"/>
			<path class="st24" d="M1385.88,1150.95l-112.6,86.06c-8.18,6.25-9.75,18.06-3.5,26.23c6.25,8.18,18.06,9.76,26.23,3.51l114-87.13
				C1402.12,1169.97,1394.04,1160.44,1385.88,1150.95z"/>
			
				<ellipse transform="matrix(0.7071 -0.7071 0.7071 0.7071 -347.458 1368.1199)" class="st24" cx="1477.74" cy="1103.48" rx="45.96" ry="45.96"/>
			<path class="st25" d="M1878.34,944.58c0,96.04-77.84,173.93-173.88,173.93c-96.04,0-173.88-77.89-173.88-173.93
				s77.84-173.88,173.88-173.88C1800.51,770.7,1878.34,848.54,1878.34,944.58z"/>
			<path class="st26" d="M1878.34,944.58c0,96.04-77.84,173.93-173.88,173.93c-96.04,0-173.88-77.89-173.88-173.93
				s77.84-173.88,173.88-173.88C1800.51,770.7,1878.34,848.54,1878.34,944.58z"/>
			<path class="st12" d="M1735.86,866.13c0,20.22-16.39,36.62-36.62,36.62c-20.22,0-36.62-16.39-36.62-36.62
				c0-20.22,16.39-36.62,36.62-36.62C1719.46,829.52,1735.86,845.91,1735.86,866.13z"/>
			<path class="st27" d="M1820.08,971.44c-9.18,41.58-37.02,74.56-73.77,95.21"/>
			<path class="st27" d="M1816.06,885.31c4.13,12.57,6.3,25.87,7.24,39.04"/>
		</g>
	</g>
	<path class="st19" d="M1366.08,1679.74c0,10.59-8.58,19.17-19.17,19.17c-10.59,0-19.17-8.58-19.17-19.17
		c0-10.59,8.58-19.17,19.17-19.17C1357.5,1660.57,1366.08,1669.15,1366.08,1679.74z"/>
	<path class="st19" d="M1754.26,1684.53c0,10.59-8.58,19.17-19.17,19.17c-10.59,0-19.17-8.58-19.17-19.17
		c0-10.59,8.58-19.17,19.17-19.17C1745.68,1665.36,1754.26,1673.94,1754.26,1684.53z"/>
	<path class="st19" d="M2295.79,893.8c0,10.59-8.58,19.17-19.17,19.17s-19.17-8.58-19.17-19.17c0-10.59,8.58-19.17,19.17-19.17
		S2295.79,883.21,2295.79,893.8z"/>
	<path class="st19" d="M2291,1449.71c0,10.59-8.58,19.17-19.17,19.17s-19.17-8.58-19.17-19.17c0-10.59,8.58-19.17,19.17-19.17
		S2291,1439.12,2291,1449.71z"/>
	<path class="st19" d="M595.34,388.65c0,10.59-8.58,19.17-19.17,19.17c-10.59,0-19.17-8.58-19.17-19.17
		c0-10.59,8.58-19.17,19.17-19.17C586.76,369.48,595.34,378.06,595.34,388.65z"/>
</g>
</svg>
