<?xml version="1.0" encoding="utf-8"?>
<!-- Generator: Adobe Illustrator 27.2.0, SVG Export Plug-In . SVG Version: 6.00 Build 0)  -->
<svg version="1.1" id="Layer_1" xmlns="http://www.w3.org/2000/svg" xmlns:xlink="http://www.w3.org/1999/xlink" x="0px" y="0px"
	 viewBox="0 0 2880 1800" style="enable-background:new 0 0 2880 1800;" xml:space="preserve">
<style type="text/css">
	.st0{fill:#FFFFFF;}
	.st1{fill:#545352;}
	.st2{fill:#E0E0E0;}
	.st3{fill:#382626;}
	.st4{fill:#DEE7D7;}
	.st5{fill:#80B2E0;}
	.st6{fill:#C58C6A;}
	.st7{fill:#4DA3D5;}
	.st8{clip-path:url(#SVGID_00000047049776533177661880000008400876045929971849_);}
	.st9{fill:#A9CA92;}
	.st10{fill:#DBE1D3;}
	.st11{fill:#868383;}
	.st12{clip-path:url(#SVGID_00000169553456754148691790000010424818473865688242_);}
	.st13{fill:#AFBEA4;}
	.st14{fill:#7FD3F1;}
	.st15{fill:#41A0D8;}
	.st16{fill:#B5C3E4;}
	.st17{fill:#178383;}
	.st18{fill:#005232;}
	.st19{clip-path:url(#SVGID_00000057864630652522423130000008553154814934228614_);}
	.st20{fill:#B3705A;}
	.st21{clip-path:url(#SVGID_00000012459294823410984710000014821609058442179714_);}
</style>
<g>
	<g>
		<g>
			<g>
				<g>
					<g>
						<g>
							<g>
								<g>
									<g>
										<path d="M2244.2,186.36H627.96c-27.86,0-50.45,22.59-50.45,50.45V1378.4c0,27.86,22.59,50.45,50.45,50.45h620.31
											c0,0,39.46,122.02-82.86,185.15h580.02c0,0-138.11-47.35-102.59-185.15h601.37c27.86,0,50.45-22.59,50.45-50.45V236.81
											C2294.65,208.95,2272.06,186.36,2244.2,186.36z"/>
									</g>
								</g>
							</g>
						</g>
						<g>
							<g>
								<g>
									<g>
										<path class="st0" d="M1472.98,1295.24c36.46,52.11-20.6,109.18-72.73,72.73c-1.71-1.21-3.28-2.77-4.48-4.49
											c-36.36-52.1,20.63-109.1,72.73-72.72C1470.22,1291.95,1471.78,1293.51,1472.98,1295.24z"/>
									</g>
								</g>
							</g>
						</g>
					</g>
					<g>
						<g>
							<path class="st0" d="M2266.82,1220.01H605.34V216.97c0-5.36,4.34-9.7,9.7-9.7h1642.09c5.36,0,9.7,4.34,9.7,9.7V1220.01z"/>
						</g>
					</g>
				</g>
				<g>
					<path class="st1" d="M2266.82,291.43H605.34v-75c0-5.06,4.1-9.15,9.15-9.15h1644.82c4.15,0,7.52,3.36,7.52,7.52V291.43z"/>
				</g>
				<g>
					<g>
						<path class="st2" d="M669.92,251.12c0,6.45-5.23,11.67-11.67,11.67s-11.67-5.23-11.67-11.67s5.23-11.67,11.67-11.67
							S669.92,244.67,669.92,251.12z"/>
					</g>
					<g>
						<path class="st2" d="M704.71,251.12c0,6.45-5.23,11.67-11.67,11.67s-11.67-5.23-11.67-11.67s5.23-11.67,11.67-11.67
							S704.71,244.67,704.71,251.12z"/>
					</g>
					<g>
						<path class="st2" d="M737.8,251.12c0,6.45-5.23,11.67-11.67,11.67c-6.45,0-11.67-5.23-11.67-11.67s5.23-11.67,11.67-11.67
							C732.58,239.45,737.8,244.67,737.8,251.12z"/>
					</g>
				</g>
			</g>
			<g>
				<g>
					<path class="st3" d="M1955.24,1429.01c0,0.54-229.99,0.97-513.64,0.97c-283.74,0-513.69-0.43-513.69-0.97
						c0-0.54,229.94-0.97,513.69-0.97C1725.25,1428.04,1955.24,1428.48,1955.24,1429.01z"/>
				</g>
			</g>
		</g>
	</g>
</g>
<g>
	<g>
		<path class="st4" d="M2490.43,432.75V370.6H2767v308.42c0,56.21-45.56,101.77-101.77,101.77h-58.26h-116.53H2246.5V510.44h167.8
			C2470.51,510.44,2490.43,488.95,2490.43,432.75z"/>
	</g>
	<g>
		<path class="st5" d="M382.01,432.75V370.6H105.45v308.42c0,56.21,45.56,101.77,101.77,101.77h58.26h116.53h243.94V510.44h-167.8
			C401.94,510.44,382.01,488.95,382.01,432.75z"/>
	</g>
	<g>
		<path class="st6" d="M1068.25,627.26v-0.59c0-16.14,13.09-29.23,29.23-29.23h46.26c49.27,0,89.22-39.94,89.22-89.22v-0.9h-164.7
			H925.3H648.74v217.52c0,0,178.15,125.56,256.37,144.5c147.6,35.74,250.15,20.2,250.15,20.2c121.85,0,220.63-98.78,220.63-220.63
			v-2.33c0-5.58-4.52-10.1-10.1-10.1h-268.31C1081.33,656.49,1068.25,643.4,1068.25,627.26z"/>
	</g>
	<g>
		<path class="st7" d="M659.61,808.75h-82.35V507.33h102.55v281.23C679.81,799.71,670.77,808.75,659.61,808.75z"/>
	</g>
	<g>
		<defs>
			<path id="SVGID_1_" d="M1082.75,627.26v-0.59c0-16.14,13.08-29.23,29.22-29.23h46.26c49.27,0,89.22-39.94,89.22-89.22v-0.9
				h-164.7H939.8H663.24v217.52c0,0,178.16,125.56,256.37,144.5c147.61,35.74,250.15,20.2,250.15,20.2
				c121.85,0,220.63-98.78,220.63-220.63v-2.33c0-5.58-4.52-10.1-10.1-10.1h-268.32C1095.83,656.49,1082.75,643.4,1082.75,627.26z"
				/>
		</defs>
		<clipPath id="SVGID_00000170236177808685467490000007038461416118458812_">
			<use xlink:href="#SVGID_1_"  style="overflow:visible;"/>
		</clipPath>
		<g style="clip-path:url(#SVGID_00000170236177808685467490000007038461416118458812_);">
			<path class="st6" d="M1227.76,493.86c0,29.75-24.12,53.86-53.86,53.86c-29.75,0-53.86-24.11-53.86-53.86
				c0-29.75,24.11-53.86,53.86-53.86C1203.65,440,1227.76,464.11,1227.76,493.86z"/>
		</g>
	</g>
	<g>
		<path class="st6" d="M1802.13,627.26v-0.59c0-16.14-13.09-29.23-29.23-29.23h-46.26c-49.27,0-89.21-39.94-89.21-89.22v-0.9h164.7
			h142.94h276.57v217.52c0,0-178.15,125.56-256.37,144.5c-147.61,35.74-250.15,20.2-250.15,20.2
			c-121.85,0-220.63-98.78-220.63-220.63v-2.33c0-5.58,4.52-10.1,10.1-10.1h268.32C1789.04,656.49,1802.13,643.4,1802.13,627.26z"/>
	</g>
	<g>
		<path class="st9" d="M2212.83,808.75h82.35V507.33h-102.55v281.23C2192.64,799.71,2201.68,808.75,2212.83,808.75z"/>
	</g>
	<g>
		<defs>
			<path id="SVGID_00000182511867648077010440000008450750406045300355_" d="M1802.13,627.26v-0.59c0-16.14-13.09-29.23-29.23-29.23
				h-46.26c-49.27,0-89.21-39.94-89.21-89.22v-0.9h164.7h142.94h276.57v217.52c0,0-178.15,125.56-256.37,144.5
				c-147.61,35.74-250.15,20.2-250.15,20.2c-121.85,0-220.63-98.78-220.63-220.63v-2.33c0-5.58,4.52-10.1,10.1-10.1h268.32
				C1789.04,656.49,1802.13,643.4,1802.13,627.26z"/>
		</defs>
		<clipPath id="SVGID_00000036931388534387102760000010249423905190860951_">
			<use xlink:href="#SVGID_00000182511867648077010440000008450750406045300355_"  style="overflow:visible;"/>
		</clipPath>
	</g>
	<g>
		<polygon class="st10" points="1628.11,548.24 1245.89,548.24 1289.39,361.79 1584.61,361.79 		"/>
	</g>
	<g>
		<path class="st11" d="M1500.89,477.32c0,9.98-4.84,17.99-14.5,24.04c-9.68,6.05-23.22,9.68-40.62,10.87v19.29h-17.28V512.6
			c-20.53-0.31-38.52-3.01-53.99-8.09v-24.85c7.31,2.7,16.12,5.08,26.43,7.15c10.31,2.07,19.49,3.29,27.57,3.67v-29.17l-8.45-2.45
			c-16.65-4.89-28.45-10.21-35.38-15.95c-6.94-5.74-10.41-12.84-10.41-21.31c0-9.09,4.77-16.58,14.32-22.44
			c9.55-5.86,22.85-9.42,39.93-10.68v-14.4h17.28v14.02c19.26,0.63,36.66,3.51,52.23,8.66l-11.86,22.02
			c-13.12-4.01-26.58-6.46-40.37-7.34v27.76c16.4,4.7,28.07,8.78,35.01,12.23c6.94,3.45,12.02,7.24,15.26,11.39
			C1499.27,466.96,1500.89,471.8,1500.89,477.32z M1412.21,421.61c0,2.76,1.29,5.04,3.85,6.82c2.57,1.79,6.71,3.62,12.43,5.51
			v-22.12C1417.63,413.02,1412.21,416.28,1412.21,421.61z M1462.92,478.73c0-2.63-1.43-4.86-4.29-6.68
			c-2.86-1.82-7.15-3.7-12.87-5.65v23.43C1457.2,488.39,1462.92,484.69,1462.92,478.73z"/>
	</g>
	<g>
		<g>
			<defs>
				<rect id="SVGID_00000039836234914998240940000012391091028911997588_" x="1245.89" y="546.69" width="382.22" height="109.8"/>
			</defs>
			<use xlink:href="#SVGID_00000039836234914998240940000012391091028911997588_"  style="overflow:visible;fill:#BFCFB5;"/>
			<clipPath id="SVGID_00000047051110520442145560000012664591244110028470_">
				<use xlink:href="#SVGID_00000039836234914998240940000012391091028911997588_"  style="overflow:visible;"/>
			</clipPath>
			<g style="clip-path:url(#SVGID_00000047051110520442145560000012664591244110028470_);">
				<g>
					<rect x="1225.69" y="564.3" class="st13" width="422.62" height="12.91"/>
				</g>
				<g>
					<rect x="1225.69" y="595.65" class="st13" width="422.62" height="12.91"/>
				</g>
				<g>
					<rect x="1225.69" y="627" class="st13" width="422.62" height="12.91"/>
				</g>
			</g>
		</g>
	</g>
	<g>
		<g>
			<rect x="1422.88" y="980.67" class="st14" width="23.9" height="124.92"/>
		</g>
		<g>
			<rect x="1363.13" y="980.67" class="st14" width="23.9" height="124.92"/>
		</g>
		<g>
			<rect x="1482.62" y="980.67" class="st14" width="23.9" height="124.92"/>
		</g>
		<g>
			<path class="st15" d="M1337.65,970.46l93.93-78.81c3.14-2.63,7.72-2.63,10.86,0l93.93,78.81c6.04,5.07,2.46,14.91-5.43,14.91
				h-187.85C1335.19,985.37,1331.61,975.52,1337.65,970.46z"/>
		</g>
		<g>
			<path class="st15" d="M1509.51,1071.65h-149.36c-7.35,0-13.31,5.96-13.31,13.31v73.87h175.98v-73.87
				C1522.82,1077.61,1516.86,1071.65,1509.51,1071.65z"/>
		</g>
		<g>
			<path class="st16" d="M1416.49,1084.96h36.67c4.12,0,7.46,3.34,7.46,7.46v66.68h-51.59v-66.68
				C1409.03,1088.3,1412.37,1084.96,1416.49,1084.96z"/>
		</g>
		<g>
			<path class="st7" d="M1422.61,1091.47h24.44c3.6,0,6.52,2.92,6.52,6.52v61.1h-37.48v-61.1
				C1416.09,1094.39,1419.01,1091.47,1422.61,1091.47z"/>
		</g>
	</g>
	<g>
		<path class="st17" d="M647.7,757.48c0,12.87-10.43,23.31-23.31,23.31c-12.87,0-23.31-10.43-23.31-23.31
			c0-12.87,10.43-23.31,23.31-23.31C637.27,734.17,647.7,744.61,647.7,757.48z"/>
	</g>
	<g>
		<path class="st18" d="M2271.36,757.48c0,12.87-10.43,23.31-23.31,23.31c-12.87,0-23.31-10.43-23.31-23.31
			c0-12.87,10.44-23.31,23.31-23.31C2260.92,734.17,2271.36,744.61,2271.36,757.48z"/>
	</g>
	<g>
		<defs>
			<path id="SVGID_00000039829053513798855740000015430690156278058131_" d="M1068.25,627.26v-0.59c0-16.14,13.09-29.23,29.23-29.23
				h46.26c49.27,0,89.22-39.94,89.22-89.22v-0.9h-164.7H925.3H648.74v217.52c0,0,178.15,125.56,256.37,144.5
				c147.6,35.74,250.15,20.2,250.15,20.2c121.85,0,220.63-98.78,220.63-220.63v-2.33c0-5.58-4.52-10.1-10.1-10.1h-268.31
				C1081.33,656.49,1068.25,643.4,1068.25,627.26z"/>
		</defs>
		<clipPath id="SVGID_00000074442521606442059770000006263052755348085674_">
			<use xlink:href="#SVGID_00000039829053513798855740000015430690156278058131_"  style="overflow:visible;"/>
		</clipPath>
		<g style="clip-path:url(#SVGID_00000074442521606442059770000006263052755348085674_);">
			<path class="st20" d="M1389.35,745.57h-352.18c-63.71,0-79.47-49.35-79.62-49.85l5.95-1.82c0.57,1.86,14.7,45.45,73.68,45.45
				h352.18V745.57z"/>
		</g>
		<g style="clip-path:url(#SVGID_00000074442521606442059770000006263052755348085674_);">
			<path class="st20" d="M1370.71,830.51h-352.18c-63.72,0-79.47-49.35-79.62-49.85l5.95-1.82c0.57,1.86,14.69,45.45,73.68,45.45
				h352.18V830.51z"/>
		</g>
	</g>
	<g>
		<defs>
			<path id="SVGID_00000166645838789328809340000002590807697941832630_" d="M1802.13,627.26v-0.59c0-16.14-13.09-29.23-29.23-29.23
				h-46.26c-49.27,0-89.21-39.94-89.21-89.22v-0.9h164.7h142.94h276.57v217.52c0,0-178.15,125.56-256.37,144.5
				c-147.61,35.74-250.15,20.2-250.15,20.2c-121.85,0-220.63-98.78-220.63-220.63v-2.33c0-5.58,4.52-10.1,10.1-10.1h268.32
				C1789.04,656.49,1802.13,643.4,1802.13,627.26z"/>
		</defs>
		<clipPath id="SVGID_00000034771545161788656670000018174004390245761670_">
			<use xlink:href="#SVGID_00000166645838789328809340000002590807697941832630_"  style="overflow:visible;"/>
		</clipPath>
		<g style="clip-path:url(#SVGID_00000034771545161788656670000018174004390245761670_);">
			<path class="st20" d="M1832.68,745.57h-352.18v-6.21h352.18c58.98,0,73.11-43.6,73.68-45.45l5.95,1.82
				C1912.16,696.21,1896.4,745.57,1832.68,745.57z"/>
		</g>
		<g style="clip-path:url(#SVGID_00000034771545161788656670000018174004390245761670_);">
			<path class="st20" d="M1851.33,830.51h-352.18v-6.21h352.18c58.98,0,73.11-43.6,73.68-45.45l5.95,1.82
				C1930.81,781.15,1915.04,830.51,1851.33,830.51z"/>
		</g>
	</g>
</g>
</svg>
