<?xml version="1.0" encoding="utf-8"?>
<!-- Generator: Adobe Illustrator 27.2.0, SVG Export Plug-In . SVG Version: 6.00 Build 0)  -->
<svg version="1.1" id="Layer_1" xmlns="http://www.w3.org/2000/svg" xmlns:xlink="http://www.w3.org/1999/xlink" x="0px" y="0px"
	 viewBox="0 0 2880 1800" style="enable-background:new 0 0 2880 1800;" xml:space="preserve">
<style type="text/css">
	.st0{fill:#CCCED8;}
	.st1{fill:#575756;}
	.st2{fill:#A9CA92;}
	.st3{fill:#F2F8FC;}
	.st4{fill:#00558C;}
	.st5{fill:#A9C4E6;}
	.st6{fill:#B2D0ED;}
	.st7{fill:#D3E1F3;}
	.st8{fill:#A7D09E;}
	.st9{fill:#81B279;}
</style>
<g>
	<g>
		<polygon class="st0" points="2361.22,583.13 2131.35,583.13 2168.21,483.1 2324.36,483.1 		"/>
	</g>
	<g>
		<path class="st1" d="M2502.99,489.88h-513.4c-23.07,0-41.84-18.77-41.84-41.84V121.84c0-23.07,18.77-41.84,41.84-41.84h513.4
			c23.07,0,41.85,18.77,41.85,41.84v326.19C2544.83,471.11,2526.06,489.88,2502.99,489.88z M1989.58,93.56
			c-15.6,0-28.28,12.69-28.28,28.29v326.19c0,15.6,12.69,28.29,28.28,28.29h513.4c15.6,0,28.29-12.69,28.29-28.29V121.84
			c0-15.6-12.69-28.29-28.29-28.29H1989.58z"/>
	</g>
	<g>
		<path class="st1" d="M2514.59,460.26h-536.62V109.62h536.62V460.26z M1991.53,446.7h509.5V123.18h-509.5V446.7z"/>
	</g>
	<g>
		<rect x="2098.01" y="576.35" class="st1" width="300.78" height="13.56"/>
	</g>
</g>
<g>
	<path class="st1" d="M1991.35,1494.74H936.52c-47.5,0-86.14-38.64-86.14-86.14V738.41c0-47.5,38.64-86.14,86.14-86.14h1054.83
		c47.5,0,86.15,38.64,86.15,86.14v670.19C2077.5,1456.1,2038.85,1494.74,1991.35,1494.74z M936.52,680.47
		c-31.95,0-57.94,25.99-57.94,57.94v670.19c0,31.95,26,57.94,57.94,57.94h1054.83c31.95,0,57.94-25.99,57.94-57.94V738.41
		c0-31.95-25.99-57.94-57.94-57.94H936.52z"/>
</g>
<g>
	<path class="st1" d="M2015.37,1433.89H912.5V713.12h1102.87V1433.89z M940.71,1405.68h1046.46V741.33H940.71V1405.68z"/>
</g>
<g>
	<rect x="977.92" y="771.32" class="st2" width="972.04" height="604.36"/>
</g>
<g>
	<g>
		<rect x="1095.64" y="902.32" class="st1" width="28.2" height="23.5"/>
	</g>
	<g>
		<path class="st1" d="M1123.84,1223.09h-28.2v-49.55h28.2V1223.09z M1123.84,1123.99h-28.2v-49.55h28.2V1123.99z M1123.84,1024.91
			h-28.2v-49.55h28.2V1024.91z"/>
	</g>
	<g>
		<rect x="1095.64" y="1272.63" class="st1" width="28.2" height="23.5"/>
	</g>
</g>
<g>
	<g>
		<rect x="1213.7" y="1027.12" class="st1" width="28.2" height="23.5"/>
	</g>
	<g>
		<path class="st1" d="M1241.91,1228.24h-28.2v-44.41h28.2V1228.24z M1241.91,1139.43h-28.2v-44.41h28.2V1139.43z"/>
	</g>
	<g>
		<rect x="1213.7" y="1272.63" class="st1" width="28.2" height="23.5"/>
	</g>
</g>
<g>
	<g>
		<rect x="1331.77" y="1042.91" class="st1" width="28.2" height="23.5"/>
	</g>
	<g>
		<path class="st1" d="M1359.98,1231.38h-28.2v-41.25h28.2V1231.38z M1359.98,1148.9h-28.2v-41.25h28.2V1148.9z"/>
	</g>
	<g>
		<rect x="1331.77" y="1272.63" class="st1" width="28.2" height="23.5"/>
	</g>
</g>
<g>
	<g>
		<rect x="1449.84" y="975.75" class="st1" width="28.2" height="23.5"/>
	</g>
	<g>
		<path class="st1" d="M1478.04,1217.96h-28.2v-54.68h28.2V1217.96z M1478.04,1108.61h-28.2v-54.68h28.2V1108.61z"/>
	</g>
	<g>
		<rect x="1449.84" y="1272.63" class="st1" width="28.2" height="23.5"/>
	</g>
</g>
<g>
	<g>
		<rect x="1567.91" y="926.06" class="st1" width="28.2" height="23.5"/>
	</g>
	<g>
		<path class="st1" d="M1596.11,1226.48h-28.2v-46.16h28.2V1226.48z M1596.11,1134.17h-28.2v-46.15h28.2V1134.17z M1596.11,1041.86
			h-28.2v-46.15h28.2V1041.86z"/>
	</g>
	<g>
		<rect x="1567.91" y="1272.63" class="st1" width="28.2" height="23.5"/>
	</g>
</g>
<g>
	<g>
		<rect x="1685.97" y="963.68" class="st1" width="28.2" height="23.5"/>
	</g>
	<g>
		<path class="st1" d="M1714.17,1231.85h-28.2v-40.78h28.2V1231.85z M1714.17,1150.29h-28.2v-40.78h28.2V1150.29z M1714.17,1068.74
			h-28.2v-40.78h28.2V1068.74z"/>
	</g>
	<g>
		<rect x="1685.97" y="1272.63" class="st1" width="28.2" height="23.5"/>
	</g>
</g>
<g>
	<g>
		<rect x="1804.04" y="902.32" class="st1" width="28.2" height="23.5"/>
	</g>
	<g>
		<path class="st1" d="M1832.24,1223.09h-28.2v-49.55h28.2V1223.09z M1832.24,1123.99h-28.2v-49.55h28.2V1123.99z M1832.24,1024.91
			h-28.2v-49.55h28.2V1024.91z"/>
	</g>
	<g>
		<rect x="1804.04" y="1272.63" class="st1" width="28.2" height="23.5"/>
	</g>
</g>
<g>
	<path class="st1" d="M1720.29,1700.25h-512.72l86.1-233.71h340.51L1720.29,1700.25z M1248.03,1672.05h431.82l-65.32-177.31h-301.18
		L1248.03,1672.05z"/>
</g>
<g>
	<path class="st1" d="M1769,1747h-610.13v-74.95H1769V1747z M1187.08,1718.8h553.72v-18.54h-553.72V1718.8z"/>
</g>
<g>
	<g>
		<polygon class="st0" points="712.55,597.97 476.95,597.97 514.72,495.45 674.78,495.45 		"/>
	</g>
	<g>
		<path class="st1" d="M857.85,501.21H331.64c-22.99,0-41.69-18.71-41.69-41.69V125.18c0-22.99,18.7-41.7,41.69-41.7h526.21
			c22.99,0,41.69,18.71,41.69,41.7v334.33C899.55,482.5,880.84,501.21,857.85,501.21z M331.64,94.99
			c-16.64,0-30.18,13.54-30.18,30.19v334.33c0,16.64,13.54,30.18,30.18,30.18h526.21c16.64,0,30.18-13.54,30.18-30.18V125.18
			c0-16.64-13.54-30.19-30.18-30.19H331.64z"/>
	</g>
	<g>
		<path class="st1" d="M868.56,470.85H320.94v-357h547.62V470.85z M332.45,459.34h524.59V125.36H332.45V459.34z"/>
	</g>
	<g>
		<rect x="442.77" y="592.21" class="st1" width="308.29" height="11.51"/>
	</g>
</g>
<g>
	<g>
		<g>
			<g>
				<path class="st1" d="M2569.99,987.72c58.91-99.1,57.93-221.7-2.54-319.96l-31.22,19.21c53.29,86.62,54.16,194.67,2.24,282.02
					c-76.69,129.03-244.07,171.61-373.11,94.91l-18.73,31.51C2293.04,1182.44,2482.96,1134.13,2569.99,987.72z"/>
			</g>
			<g>
				<polygon class="st1" points="2206.75,1204.79 2178.29,1092.91 2290.17,1064.44 2281.13,1028.92 2133.71,1066.41 
					2171.22,1213.82 				"/>
			</g>
		</g>
		<g>
			<g>
				<path class="st1" d="M724.44,1071.34l19.09,29.01c-134.76,88.7-316.55,51.23-405.26-83.53
					c-60.04-91.22-64.44-207.29-11.46-302.9l30.38,16.84c-46.7,84.28-42.83,186.57,10.09,266.97
					C445.45,1116.48,605.67,1149.51,724.44,1071.34z"/>
			</g>
			<g>
				<polygon class="st1" points="754.49,1072.34 725.4,1213.45 691.39,1206.44 713.47,1099.34 606.37,1077.27 613.38,1043.26 				
					"/>
			</g>
		</g>
	</g>
</g>
<rect x="2048.61" y="148.27" class="st3" width="399.59" height="268.59"/>
<g>
	<path class="st4" d="M2178.85,319.72c-44.9-35.74-92.65,0-92.65,0v61.1h335.67V222.87
		C2330.65,225.18,2223.75,355.46,2178.85,319.72z"/>
	<path class="st5" d="M2090.05,197.89h156.41c2.11,0,3.84-1.73,3.84-3.84s-1.73-3.84-3.84-3.84h-156.41c-2.11,0-3.84,1.73-3.84,3.84
		S2087.93,197.89,2090.05,197.89z"/>
	<path class="st5" d="M2090.05,216.67h156.41c2.11,0,3.84-1.73,3.84-3.84c0-2.11-1.73-3.84-3.84-3.84h-156.41
		c-2.11,0-3.84,1.73-3.84,3.84C2086.21,214.94,2087.93,216.67,2090.05,216.67z"/>
	<path class="st5" d="M2089.35,234.4h103.57c1.73,0,3.14-1.42,3.14-3.14v-1.4c0-1.73-1.41-3.15-3.14-3.15h-103.57
		c-1.73,0-3.14,1.42-3.14,3.15v1.4C2086.21,232.99,2087.62,234.4,2089.35,234.4z"/>
</g>
<rect x="385.56" y="181.75" class="st6" width="405.21" height="211.41"/>
<rect x="398.73" y="181.75" class="st7" width="405.2" height="211.41"/>
<ellipse transform="matrix(0.7071 -0.7071 0.7071 0.7071 -56.2125 445.4082)" class="st3" cx="509.55" cy="290.56" rx="73.27" ry="73.27"/>
<path class="st8" d="M509.55,223.48c-37.05,0-67.08,30.03-67.08,67.07c0,25.38,14.1,47.47,34.89,58.86
	c10.75-19.9,32.19-58.86,32.19-58.86l31.76,59.09c21.03-11.32,35.31-33.54,35.31-59.09C576.63,253.51,546.6,223.48,509.55,223.48z"
	/>
<g>
	<path class="st3" d="M758.38,249.63H637.01c-4.4,0-8,3.6-8,8v0c0,4.4,3.6,8,8,8h121.37c4.4,0,8-3.6,8-8v0
		C766.38,253.23,762.78,249.63,758.38,249.63z"/>
	<path class="st3" d="M758.38,282.56H637.01c-4.4,0-8,3.6-8,8c0,4.4,3.6,8,8,8h121.37c4.4,0,8-3.6,8-8
		C766.38,286.16,762.78,282.56,758.38,282.56z"/>
	<path class="st3" d="M758.38,315.49H637.01c-4.4,0-8,3.6-8,8c0,4.4,3.6,8,8,8h121.37c4.4,0,8-3.6,8-8
		C766.38,319.09,762.78,315.49,758.38,315.49z"/>
</g>
<g>
	<path class="st9" d="M512.02,258.52h-36.41c-2.07,0-3.77,1.69-3.77,3.77c0,2.07,1.69,3.77,3.77,3.77h36.41
		c2.07,0,3.77-1.69,3.77-3.77C515.79,260.22,514.09,258.52,512.02,258.52z"/>
	<path class="st9" d="M483.91,272.23h-8.29c-2.07,0-3.77,1.69-3.77,3.77l0,0c0,2.07,1.69,3.77,3.77,3.77h8.29
		c2.07,0,3.77-1.69,3.77-3.77l0,0C487.67,273.92,485.98,272.23,483.91,272.23z"/>
</g>
</svg>
