<?xml version="1.0" encoding="utf-8"?>
<!-- Generator: Adobe Illustrator 27.2.0, SVG Export Plug-In . SVG Version: 6.00 Build 0)  -->
<svg version="1.1" id="Layer_1" xmlns="http://www.w3.org/2000/svg" xmlns:xlink="http://www.w3.org/1999/xlink" x="0px" y="0px"
	 viewBox="0 0 2880 1800" style="enable-background:new 0 0 2880 1800;" xml:space="preserve">
<style type="text/css">
	.st0{fill:#E0E0E0;}
	.st1{fill:#FFFFFF;stroke:#000000;stroke-width:1.2968;stroke-miterlimit:10;}
	.st2{fill:#389CC8;stroke:#000000;stroke-width:1.2968;stroke-miterlimit:10;}
	.st3{fill:#00558C;stroke:#000000;stroke-width:1.2968;stroke-miterlimit:10;}
	.st4{opacity:0.6;fill:#D6D1C6;stroke:#000000;stroke-width:1.2968;stroke-miterlimit:10;}
	.st5{fill:#243D68;stroke:#000000;stroke-width:1.2968;stroke-miterlimit:10;}
	.st6{fill:#243D68;}
	.st7{fill:#FFFFFF;}
	.st8{fill:#389CC8;}
	.st9{fill:#00558C;}
	.st10{fill:#37AE96;}
	.st11{fill:#BCB8B5;}
	.st12{fill:#313335;}
	.st13{fill:#46738C;}
	.st14{fill:#A9CA92;}
	.st15{fill:#534641;}
	.st16{opacity:0.6;fill:#D6D1C6;}
	.st17{fill:#E3F4FB;}
	.st18{fill:#BFCEEA;}
	.st19{opacity:0.6;}
</style>
<g>
	<g>
		<g>
			<path class="st0" d="M2262.22,1191.21c13.12-3.26,26.46-4.68,39.66-4.37l17.92-32.37l58.78,17.08l-2.22,36.93
				c11.32,6.81,21.82,15.16,31.15,24.94l35.55-10.22l29.49,53.64l-27.67,24.53c3.26,13.13,4.68,26.47,4.36,39.67l32.37,17.92
				l-17.08,58.78l-36.93-2.22c-6.81,11.31-15.16,21.81-24.94,31.15l10.21,35.55l-53.64,29.49l-24.53-27.67
				c-13.12,3.26-26.46,4.67-39.67,4.36l-17.92,32.37l-58.78-17.08l2.22-36.93c-11.32-6.81-21.81-15.16-31.15-24.94l-35.55,10.22
				l-29.49-53.64l27.67-24.53c-3.26-13.13-4.68-26.46-4.37-39.67l-32.37-17.92l17.08-58.78l36.93,2.21
				c6.81-11.31,15.16-21.81,24.94-31.15l-10.21-35.55l53.64-29.49L2262.22,1191.21L2262.22,1191.21z M2269.26,1278.74
				c-31.78,17.47-43.38,57.4-25.91,89.18c17.47,31.78,57.4,43.38,89.18,25.91c31.78-17.47,43.38-57.4,25.91-89.18
				C2340.96,1272.87,2301.04,1261.27,2269.26,1278.74z"/>
		</g>
	</g>
</g>
<g>
	<g>
		<g>
			<path class="st0" d="M2533.08,1062.25c5.18-1.29,10.44-1.85,15.66-1.72l7.07-12.78l23.2,6.74l-0.88,14.58
				c4.47,2.69,8.61,5.98,12.3,9.85l14.03-4.03l11.64,21.17l-10.92,9.68c1.29,5.18,1.85,10.45,1.72,15.66l12.78,7.07l-6.74,23.2
				l-14.58-0.87c-2.69,4.47-5.98,8.61-9.84,12.3l4.03,14.03l-21.17,11.64l-9.68-10.92c-5.18,1.29-10.45,1.85-15.66,1.72l-7.07,12.78
				l-23.2-6.74l0.87-14.58c-4.47-2.69-8.61-5.98-12.3-9.84l-14.03,4.03l-11.64-21.17l10.92-9.68c-1.29-5.18-1.85-10.45-1.72-15.66
				l-12.78-7.07l6.74-23.2l14.58,0.87c2.69-4.47,5.98-8.61,9.84-12.29l-4.03-14.03l21.17-11.64L2533.08,1062.25L2533.08,1062.25z
				 M2535.86,1096.8c-12.54,6.9-17.12,22.66-10.23,35.2c6.9,12.54,22.66,17.12,35.2,10.23c12.54-6.9,17.12-22.66,10.23-35.2
				C2564.17,1094.48,2548.41,1089.9,2535.86,1096.8z"/>
		</g>
	</g>
</g>
<g>
	<g>
		<g>
			<path class="st1" d="M1156.19,87.82c0-2.99-1.18-5.82-3.34-7.94c-2.16-2.13-5.02-3.3-8.05-3.3h-0.04l-415.78,0.05
				c-3.05,0-5.92,1.17-8.08,3.3c-2.17,2.12-3.35,4.95-3.35,7.94l0.07,533.91c0.01,6.18,5.12,11.22,11.39,11.23h0.04l415.78-0.05
				c6.3,0.01,11.43-5.03,11.44-11.25L1156.19,87.82z M732.79,618.76c-2.94,0-5.33-2.39-5.33-5.33c0-2.95,2.39-5.33,5.33-5.33
				c2.95,0,5.33,2.39,5.33,5.33C738.12,616.37,735.73,618.76,732.79,618.76z M732.79,593.15c-2.94,0-5.33-2.39-5.33-5.33
				s2.39-5.33,5.33-5.33c2.95,0,5.33,2.39,5.33,5.33S735.73,593.15,732.79,593.15z M732.79,567.54c-2.94,0-5.33-2.39-5.33-5.33
				c0-2.95,2.39-5.34,5.33-5.34c2.95,0,5.33,2.39,5.33,5.34C738.12,565.15,735.73,567.54,732.79,567.54z M732.79,541.93
				c-2.94,0-5.33-2.39-5.33-5.33c0-2.95,2.39-5.33,5.33-5.33c2.95,0,5.33,2.39,5.33,5.33C738.12,539.54,735.73,541.93,732.79,541.93
				z M732.79,516.32c-2.94,0-5.33-2.39-5.33-5.33c0-2.94,2.39-5.33,5.33-5.33c2.95,0,5.33,2.39,5.33,5.33
				C738.12,513.94,735.73,516.32,732.79,516.32z M732.79,490.71c-2.94,0-5.33-2.39-5.33-5.33c0-2.95,2.39-5.33,5.33-5.33
				c2.95,0,5.33,2.39,5.33,5.33C738.12,488.33,735.73,490.71,732.79,490.71z M732.79,465.1c-2.94,0-5.33-2.39-5.33-5.33
				c0-2.94,2.39-5.33,5.33-5.33c2.95,0,5.33,2.39,5.33,5.33C738.12,462.72,735.73,465.1,732.79,465.1z M732.79,439.49
				c-2.94,0-5.33-2.39-5.33-5.33c0-2.95,2.39-5.33,5.33-5.33c2.95,0,5.33,2.39,5.33,5.33C738.12,437.1,735.73,439.49,732.79,439.49z
				 M732.79,413.88c-2.94,0-5.33-2.39-5.33-5.33c0-2.95,2.39-5.33,5.33-5.33c2.95,0,5.33,2.39,5.33,5.33
				C738.12,411.5,735.73,413.88,732.79,413.88z M732.79,388.27c-2.94,0-5.33-2.39-5.33-5.33c0-2.95,2.39-5.33,5.33-5.33
				c2.95,0,5.33,2.39,5.33,5.33C738.12,385.89,735.73,388.27,732.79,388.27z M732.79,362.66c-2.94,0-5.33-2.39-5.33-5.33
				c0-2.95,2.39-5.33,5.33-5.33c2.95,0,5.33,2.39,5.33,5.33C738.12,360.28,735.73,362.66,732.79,362.66z M732.79,337.05
				c-2.94,0-5.33-2.39-5.33-5.33c0-2.94,2.39-5.33,5.33-5.33c2.95,0,5.33,2.39,5.33,5.33C738.12,334.67,735.73,337.05,732.79,337.05
				z M732.79,311.44c-2.94,0-5.33-2.39-5.33-5.33c0-2.95,2.39-5.33,5.33-5.33c2.95,0,5.33,2.39,5.33,5.33
				C738.12,309.06,735.73,311.44,732.79,311.44z M732.79,285.83c-2.94,0-5.33-2.39-5.33-5.33c0-2.94,2.39-5.33,5.33-5.33
				c2.95,0,5.33,2.39,5.33,5.33C738.12,283.45,735.73,285.83,732.79,285.83z M732.79,260.22c-2.94,0-5.33-2.39-5.33-5.33
				c0-2.95,2.39-5.33,5.33-5.33c2.95,0,5.33,2.39,5.33,5.33C738.12,257.84,735.73,260.22,732.79,260.22z M732.79,234.61
				c-2.94,0-5.33-2.39-5.33-5.33c0-2.95,2.39-5.33,5.33-5.33c2.95,0,5.33,2.39,5.33,5.33C738.12,232.23,735.73,234.61,732.79,234.61
				z M732.79,209c-2.94,0-5.33-2.39-5.33-5.33c0-2.95,2.39-5.33,5.33-5.33c2.95,0,5.33,2.39,5.33,5.33
				C738.12,206.62,735.73,209,732.79,209z M732.79,183.39c-2.94,0-5.33-2.39-5.33-5.33c0-2.94,2.39-5.33,5.33-5.33
				c2.95,0,5.33,2.39,5.33,5.33C738.12,181.01,735.73,183.39,732.79,183.39z M732.79,157.79c-2.94,0-5.33-2.39-5.33-5.34
				c0-2.94,2.39-5.33,5.33-5.33c2.95,0,5.33,2.39,5.33,5.33C738.12,155.4,735.73,157.79,732.79,157.79z M732.79,132.18
				c-2.94,0-5.33-2.39-5.33-5.33s2.39-5.33,5.33-5.33c2.95,0,5.33,2.39,5.33,5.33S735.73,132.18,732.79,132.18z M732.79,106.56
				c-2.94,0-5.33-2.39-5.33-5.33c0-2.95,2.39-5.34,5.33-5.34c2.95,0,5.33,2.39,5.33,5.34C738.12,104.18,735.73,106.56,732.79,106.56
				z"/>
			<rect x="759.62" y="230.64" class="st2" width="63.02" height="55.95"/>
			<rect x="759.62" y="127.09" class="st3" width="63.02" height="55.95"/>
			<rect x="860.81" y="127.09" class="st2" width="63.02" height="55.95"/>
			<rect x="962.01" y="127.09" class="st3" width="63.02" height="55.95"/>
			<rect x="1063.21" y="127.09" class="st2" width="63.02" height="55.95"/>
			<g>
				<rect x="847.22" y="237.73" class="st4" width="277.8" height="5.71"/>
				<rect x="847.22" y="253.13" class="st4" width="277.8" height="5.71"/>
				<rect x="847.22" y="268.52" class="st4" width="277.8" height="5.71"/>
			</g>
			<g>
				<rect x="847.22" y="331.33" class="st4" width="277.8" height="5.71"/>
				<rect x="847.22" y="346.72" class="st4" width="277.8" height="5.71"/>
				<rect x="847.22" y="362.12" class="st4" width="277.8" height="5.71"/>
			</g>
			<g>
				<rect x="847.22" y="424.93" class="st4" width="277.8" height="5.71"/>
				<rect x="847.22" y="440.32" class="st4" width="277.8" height="5.71"/>
				<rect x="847.22" y="455.72" class="st4" width="277.8" height="5.71"/>
			</g>
			<g>
				<rect x="847.22" y="518.53" class="st4" width="277.8" height="5.71"/>
				<rect x="847.22" y="533.92" class="st4" width="277.8" height="5.71"/>
				<rect x="847.22" y="549.31" class="st4" width="277.8" height="5.71"/>
			</g>
			<rect x="759.62" y="322.66" class="st3" width="63.02" height="55.95"/>
			<rect x="759.62" y="414.69" class="st3" width="63.02" height="55.95"/>
			<rect x="759.62" y="506.71" class="st2" width="63.02" height="55.95"/>
		</g>
		<rect x="766.43" y="56" class="st5" width="47.17" height="47.17"/>
		<rect x="838.93" y="56" class="st5" width="47.17" height="47.17"/>
		<rect x="911.42" y="56" class="st5" width="47.17" height="47.17"/>
		<rect x="983.92" y="56" class="st5" width="47.17" height="47.17"/>
		<rect x="1056.41" y="56" class="st5" width="47.17" height="47.17"/>
	</g>
	<g>
		<g>
			<path class="st6" d="M925.09,321.19c0-3.54-1.4-6.89-3.96-9.4c-2.56-2.52-5.95-3.9-9.54-3.91h-0.05l-492.66,0.06
				c-3.61-0.01-7.01,1.39-9.58,3.91c-2.57,2.52-3.97,5.86-3.96,9.41l0.08,632.63c0.01,7.33,6.07,13.29,13.5,13.3h0.05l492.66-0.06
				c7.47,0.01,13.54-5.96,13.55-13.33L925.09,321.19z"/>
			<path class="st7" d="M905.75,339.82c0-3.34-1.3-6.49-3.67-8.85c-2.37-2.38-5.51-3.68-8.83-3.68h-0.05l-455.98,0.06
				c-3.35,0-6.49,1.31-8.86,3.68c-2.38,2.37-3.68,5.52-3.67,8.85l0.07,595.39c0.01,6.9,5.62,12.51,12.5,12.52h0.05l455.98-0.06
				c6.91,0.01,12.53-5.61,12.54-12.54L905.75,339.82z"/>
		</g>
		<rect x="525.79" y="350" class="st8" width="278.42" height="66.29"/>
		<rect x="444.36" y="673.3" class="st8" width="134.52" height="66.29"/>
		<rect x="597.74" y="673.3" class="st9" width="134.52" height="66.29"/>
		<rect x="751.12" y="673.3" class="st8" width="134.52" height="66.29"/>
		<rect x="448.39" y="454.81" class="st10" width="161.25" height="184.45"/>
		<rect x="643.5" y="463.9" class="st11" width="238.11" height="8.06"/>
		<rect x="475.8" y="773.49" class="st11" width="389.68" height="8.06"/>
		<rect x="475.8" y="804.67" class="st11" width="389.68" height="8.06"/>
		<rect x="475.8" y="835.84" class="st11" width="389.68" height="8.06"/>
		<rect x="475.8" y="867.02" class="st11" width="389.68" height="8.06"/>
		<rect x="475.8" y="898.19" class="st11" width="389.68" height="8.06"/>
		<rect x="643.5" y="496.15" class="st11" width="238.11" height="8.06"/>
		<rect x="643.5" y="528.4" class="st11" width="238.11" height="8.06"/>
		<rect x="643.5" y="560.65" class="st11" width="238.11" height="8.06"/>
		<rect x="643.5" y="592.9" class="st11" width="238.11" height="8.06"/>
		<rect x="643.5" y="625.15" class="st11" width="238.11" height="8.06"/>
	</g>
	<g>
		<g>
			<g>
				<g>
					<path class="st12" d="M2184.33,1337.88h-0.74l-24.72-710.98c-1.21-34.7-34.15-62.75-73.57-62.75H746.91
						c-39.43,0-72.37,28.05-73.58,62.75l-24.72,710.98h-0.74l-4.16,133.32c-1.31,41.91,31.07,75.98,72.32,75.98h533.03l-1.35,180.62
						H1062.5l-0.69,44.19h708.6l-0.7-44.19h-185.21l-1.35-180.62h533.04c41.25,0,73.62-34.08,72.31-75.98L2184.33,1337.88z"/>
				</g>
				<g>
					<path class="st7" d="M723.28,1359.71l20.35-729.85c0.34-0.08,0.73-0.13,1.22-0.13h1342.51c0.48,0,0.88,0.05,1.22,0.13
						l20.34,729.85H723.28z"/>
				</g>
			</g>
		</g>
	</g>
	<g>
		<g>
			<path class="st6" d="M907.28,1171.59H318.83c-30.61,0-55.43,25.05-55.43,55.95v464.14c0,30.9,24.81,55.96,55.43,55.96h588.45
				c30.61,0,55.43-25.05,55.43-55.96v-464.14C962.71,1196.64,937.89,1171.59,907.28,1171.59z"/>
			<path class="st13" d="M892,1189.12H334.1c-29.02,0-52.55,23.53-52.55,52.55v435.88c0,29.02,23.53,52.55,52.55,52.55H892
				c29.02,0,52.55-23.53,52.55-52.55v-435.88C944.55,1212.65,921.02,1189.12,892,1189.12z"/>
			<rect x="338.78" y="1235.82" class="st7" width="548.55" height="447.59"/>
		</g>
		<g>
			<g>
				<rect x="410.24" y="1598.23" class="st14" width="24.04" height="61.06"/>
			</g>
			<g>
				<rect x="443.14" y="1575.97" class="st14" width="24.04" height="83.3"/>
			</g>
			<g>
				<rect x="475.77" y="1549.47" class="st14" width="24.04" height="109.78"/>
			</g>
			<g>
				<rect x="508.41" y="1522.33" class="st14" width="24.04" height="136.9"/>
			</g>
			<g>
				<g>
					<g>
						<polygon points="402.28,1582.31 400.94,1580.48 501.77,1505.81 503.12,1507.63 						"/>
					</g>
				</g>
			</g>
			<g>
				<g>
					<g>
						<polygon points="502.36,1516.97 500.11,1516.65 501.46,1507.15 491.52,1505.55 491.88,1503.31 504.02,1505.26 						"/>
					</g>
				</g>
			</g>
		</g>
		<g>
			<path class="st8" d="M401.41,1370.49c-0.02-33.26,22.93-61.05,53.75-68.97l-9.38-21.76c-39.23,11.74-68.06,47.75-68.04,90.74
				c0,3.55,0.67,6.91,1.05,10.36l23.69,0.16C401.96,1377.56,401.41,1374.1,401.41,1370.49z"/>
			<path class="st9" d="M478.06,1280.68c-7.28,0.01-14.31,1-21.13,2.57l9.61,22.28c3.78-0.62,7.58-1.17,11.53-1.17
				c39.37-0.02,71.42,31.99,71.44,71.36c0.02,39.37-31.99,71.42-71.36,71.44c-33.62,0.02-61.71-23.39-69.27-54.73l-24.17-0.16
				c7.87,44.57,46.67,78.59,93.45,78.56c52.42-0.03,95.05-42.7,95.03-95.13C573.16,1323.28,530.49,1280.65,478.06,1280.68z"/>
		</g>
		<g>
			<g>
				<g>
					<g>
						<g>
							<rect x="647.56" y="1559.01" class="st8" width="12.01" height="95.49"/>
						</g>
					</g>
				</g>
				<g>
					<g>
						<g>
							<rect x="669.78" y="1494.63" class="st8" width="12.01" height="159.87"/>
						</g>
					</g>
				</g>
				<g>
					<g>
						<g>
							<rect x="692.01" y="1591.12" class="st8" width="12.01" height="63.38"/>
						</g>
					</g>
				</g>
				<g>
					<g>
						<g>
							<rect x="714.23" y="1550.81" class="st8" width="12" height="103.68"/>
						</g>
					</g>
				</g>
				<g>
					<g>
						<g>
							<rect x="736.45" y="1531.3" class="st8" width="12.01" height="123.19"/>
						</g>
					</g>
				</g>
				<g>
					<g>
						<g>
							<rect x="758.67" y="1489.94" class="st8" width="12" height="164.55"/>
						</g>
					</g>
				</g>
				<g>
					<g>
						<g>
							<rect x="780.9" y="1561.74" class="st8" width="12.01" height="92.76"/>
						</g>
					</g>
				</g>
				<g>
					<g>
						<g>
							<rect x="803.12" y="1468.09" class="st8" width="12.01" height="186.4"/>
						</g>
					</g>
				</g>
				<g>
					<g>
						<g>
							<rect x="824.04" y="1559.4" class="st8" width="12.01" height="95.1"/>
						</g>
					</g>
				</g>
			</g>
			<g>
				<g>
					<g>
						<g>
							<rect x="669.75" y="1654.7" class="st15" width="1.38" height="3.01"/>
						</g>
					</g>
					<g>
						<g>
							<rect x="691.94" y="1654.8" class="st15" width="1.38" height="3.01"/>
						</g>
					</g>
					<g>
						<g>
							<rect x="714.12" y="1654.91" class="st15" width="1.38" height="3.01"/>
						</g>
					</g>
					<g>
						<g>
							<rect x="736.31" y="1655.02" class="st15" width="1.38" height="3.01"/>
						</g>
					</g>
					<g>
						<g>
							<rect x="758.5" y="1655.13" class="st15" width="1.38" height="3.01"/>
						</g>
					</g>
					<g>
						<g>
							<rect x="780.69" y="1655.23" class="st15" width="1.38" height="3.01"/>
						</g>
					</g>
					<g>
						<g>
							<rect x="802.88" y="1655.34" class="st15" width="1.38" height="3.01"/>
						</g>
					</g>
				</g>
				<g>
					<g>
						<g>
							<rect x="627.82" y="1654.04" class="st15" width="221.41" height="1.47"/>
						</g>
					</g>
				</g>
			</g>
		</g>
		<rect x="605.99" y="1313.17" class="st16" width="219.61" height="3.71"/>
		<rect x="605.99" y="1337.62" class="st16" width="219.61" height="3.71"/>
		<rect x="605.99" y="1362.07" class="st16" width="219.61" height="3.71"/>
		<rect x="605.99" y="1386.52" class="st16" width="219.61" height="3.71"/>
		<rect x="605.99" y="1410.97" class="st16" width="219.61" height="3.71"/>
		<rect x="605.99" y="1435.42" class="st16" width="219.61" height="3.71"/>
	</g>
	<g>
		<g>
			<path class="st6" d="M1655.35,99.24h-509.24c-26.49,0-47.97,21.68-47.97,48.42v401.66c0,26.74,21.48,48.42,47.97,48.42h509.24
				c26.49,0,47.96-21.68,47.96-48.42V147.66C1703.32,120.92,1681.84,99.24,1655.35,99.24z"/>
			<path class="st17" d="M1642.13,114.42h-482.79c-25.12,0-45.48,20.36-45.48,45.47v377.2c0,25.11,20.36,45.47,45.48,45.47h482.79
				c25.12,0,45.48-20.36,45.48-45.47v-377.2C1687.61,134.78,1667.25,114.42,1642.13,114.42z"/>
			<rect x="1163.38" y="154.82" class="st7" width="474.7" height="387.34"/>
		</g>
		<rect x="1212.68" y="185.11" class="st16" width="190.05" height="3.21"/>
		<rect x="1212.68" y="217.18" class="st16" width="190.05" height="3.21"/>
		<rect x="1212.68" y="249.26" class="st16" width="190.05" height="3.21"/>
		<rect x="1212.68" y="281.34" class="st16" width="190.05" height="3.21"/>
		<rect x="1212.68" y="313.41" class="st16" width="190.05" height="3.21"/>
		<rect x="1311.97" y="496.23" class="st16" width="190.05" height="7.23"/>
		<g>
			<g>
				<path class="st8" d="M1269.32,477.17h25.15V399.2c-8.19,1.65-16.56,3.17-25.15,4.55V477.17z"/>
				<path class="st8" d="M1303.39,477.17h25.15V391.4c-8.14,2.11-16.54,4.09-25.15,5.95V477.17z"/>
				<path class="st8" d="M1337.46,477.17h25.15v-95.63c-8.11,2.6-16.49,5.11-25.15,7.49V477.17z"/>
				<path class="st8" d="M1371.53,477.17h25.15V369.45c-8.05,3.14-16.42,6.2-25.15,9.15V477.17z"/>
				<path class="st8" d="M1405.6,477.17h25.15V354.9c-7.95,3.71-16.34,7.38-25.15,10.98V477.17z"/>
				<path class="st8" d="M1439.67,477.17h25.15V337.53c-7.78,4.33-16.17,8.72-25.15,13.11V477.17z"/>
				<path class="st8" d="M1473.74,332.45v144.72h25.15V316.78c-3.92,2.61-8,5.25-12.27,7.92
					C1482.56,327.23,1478.25,329.82,1473.74,332.45z"/>
				<path class="st8" d="M1507.8,477.17h25.15V291.77c-7.15,5.8-15.54,12.19-25.15,18.91V477.17z"/>
			</g>
			<path class="st6" d="M1564.99,288.11l-4.03-58.83l-55.59,7.23l20.69,17.91c-36.28,32.58-131.05,102.64-290.97,120.9l2.76,24.18
				c114.14-13.03,195.83-51.8,244.26-82.02c28.78-17.96,49.46-34.98,62.53-46.98L1564.99,288.11z"/>
		</g>
	</g>
	<g>
		<g>
			<path class="st1" d="M2367.41,222.75c0-2.99-1.18-5.82-3.34-7.94c-2.16-2.13-5.02-3.3-8.05-3.3h-0.04l-415.78,0.05
				c-3.05,0-5.92,1.17-8.08,3.3c-2.17,2.12-3.35,4.95-3.34,7.94l0.07,533.91c0.01,6.19,5.12,11.22,11.39,11.23h0.04l415.78-0.05
				c6.3,0.01,11.43-5.03,11.44-11.25L2367.41,222.75z M1944,753.69c-2.94,0-5.33-2.39-5.33-5.33c0-2.94,2.39-5.33,5.33-5.33
				c2.95,0,5.34,2.39,5.34,5.33C1949.34,751.3,1946.95,753.69,1944,753.69z M1944,728.08c-2.94,0-5.33-2.39-5.33-5.33
				c0-2.95,2.39-5.33,5.33-5.33c2.95,0,5.34,2.39,5.34,5.33C1949.34,725.69,1946.95,728.08,1944,728.08z M1944,702.47
				c-2.94,0-5.33-2.39-5.33-5.33c0-2.95,2.39-5.33,5.33-5.33c2.95,0,5.34,2.39,5.34,5.33C1949.34,700.08,1946.95,702.47,1944,702.47
				z M1944,676.86c-2.94,0-5.33-2.39-5.33-5.33c0-2.95,2.39-5.33,5.33-5.33c2.95,0,5.34,2.39,5.34,5.33
				C1949.34,674.47,1946.95,676.86,1944,676.86z M1944,651.25c-2.94,0-5.33-2.39-5.33-5.33s2.39-5.33,5.33-5.33
				c2.95,0,5.34,2.39,5.34,5.33S1946.95,651.25,1944,651.25z M1944,625.64c-2.94,0-5.33-2.39-5.33-5.33c0-2.94,2.39-5.33,5.33-5.33
				c2.95,0,5.34,2.39,5.34,5.33C1949.34,623.25,1946.95,625.64,1944,625.64z M1944,600.03c-2.94,0-5.33-2.39-5.33-5.33
				c0-2.95,2.39-5.33,5.33-5.33c2.95,0,5.34,2.39,5.34,5.33C1949.34,597.64,1946.95,600.03,1944,600.03z M1944,574.42
				c-2.94,0-5.33-2.39-5.33-5.33c0-2.94,2.39-5.33,5.33-5.33c2.95,0,5.34,2.39,5.34,5.33C1949.34,572.03,1946.95,574.42,1944,574.42
				z M1944,548.81c-2.94,0-5.33-2.39-5.33-5.33c0-2.95,2.39-5.33,5.33-5.33c2.95,0,5.34,2.39,5.34,5.33
				C1949.34,546.42,1946.95,548.81,1944,548.81z M1944,523.2c-2.94,0-5.33-2.39-5.33-5.33c0-2.94,2.39-5.33,5.33-5.33
				c2.95,0,5.34,2.39,5.34,5.33C1949.34,520.81,1946.95,523.2,1944,523.2z M1944,497.59c-2.94,0-5.33-2.39-5.33-5.34
				c0-2.94,2.39-5.33,5.33-5.33c2.95,0,5.34,2.39,5.34,5.33C1949.34,495.2,1946.95,497.59,1944,497.59z M1944,471.98
				c-2.94,0-5.33-2.39-5.33-5.33c0-2.94,2.39-5.33,5.33-5.33c2.95,0,5.34,2.39,5.34,5.33C1949.34,469.6,1946.95,471.98,1944,471.98z
				 M1944,446.37c-2.94,0-5.33-2.39-5.33-5.34c0-2.94,2.39-5.33,5.33-5.33c2.95,0,5.34,2.39,5.34,5.33
				C1949.34,443.98,1946.95,446.37,1944,446.37z M1944,420.76c-2.94,0-5.33-2.39-5.33-5.33s2.39-5.33,5.33-5.33
				c2.95,0,5.34,2.39,5.34,5.33S1946.95,420.76,1944,420.76z M1944,395.15c-2.94,0-5.33-2.39-5.33-5.33c0-2.95,2.39-5.34,5.33-5.34
				c2.95,0,5.34,2.39,5.34,5.34C1949.34,392.76,1946.95,395.15,1944,395.15z M1944,369.54c-2.94,0-5.33-2.39-5.33-5.33
				c0-2.95,2.39-5.33,5.33-5.33c2.95,0,5.34,2.39,5.34,5.33C1949.34,367.15,1946.95,369.54,1944,369.54z M1944,343.93
				c-2.94,0-5.33-2.39-5.33-5.33c0-2.95,2.39-5.34,5.33-5.34c2.95,0,5.34,2.39,5.34,5.34C1949.34,341.55,1946.95,343.93,1944,343.93
				z M1944,318.32c-2.94,0-5.33-2.39-5.33-5.33c0-2.95,2.39-5.33,5.33-5.33c2.95,0,5.34,2.39,5.34,5.33
				C1949.34,315.93,1946.95,318.32,1944,318.32z M1944,292.71c-2.94,0-5.33-2.39-5.33-5.33c0-2.94,2.39-5.33,5.33-5.33
				c2.95,0,5.34,2.39,5.34,5.33C1949.34,290.33,1946.95,292.71,1944,292.71z M1944,267.1c-2.94,0-5.33-2.39-5.33-5.33
				c0-2.95,2.39-5.33,5.33-5.33c2.95,0,5.34,2.39,5.34,5.33C1949.34,264.72,1946.95,267.1,1944,267.1z M1944,241.49
				c-2.94,0-5.33-2.39-5.33-5.33c0-2.94,2.39-5.33,5.33-5.33c2.95,0,5.34,2.39,5.34,5.33C1949.34,239.11,1946.95,241.49,1944,241.49
				z"/>
			<rect x="2015.76" y="266.92" class="st2" width="290.11" height="55.95"/>
			<rect x="1970.83" y="365.56" class="st2" width="63.02" height="55.95"/>
			<g>
				<rect x="2058.44" y="372.66" class="st4" width="277.8" height="5.71"/>
				<rect x="2058.44" y="388.06" class="st4" width="277.8" height="5.71"/>
				<rect x="2058.44" y="403.45" class="st4" width="277.8" height="5.71"/>
			</g>
			<g>
				<rect x="2058.44" y="466.26" class="st4" width="277.8" height="5.71"/>
				<rect x="2058.44" y="481.65" class="st4" width="277.8" height="5.71"/>
				<rect x="2058.44" y="497.05" class="st4" width="277.8" height="5.71"/>
			</g>
			<g>
				<rect x="2058.44" y="559.86" class="st4" width="277.8" height="5.71"/>
				<rect x="2058.44" y="575.25" class="st4" width="277.8" height="5.71"/>
				<rect x="2058.44" y="590.64" class="st4" width="277.8" height="5.71"/>
			</g>
			<g>
				<rect x="2058.44" y="653.46" class="st4" width="277.8" height="5.71"/>
				<rect x="2058.44" y="668.85" class="st4" width="277.8" height="5.71"/>
				<rect x="2058.44" y="684.24" class="st4" width="277.8" height="5.71"/>
			</g>
			<rect x="1970.83" y="457.59" class="st10" width="63.02" height="55.95"/>
			<rect x="1970.83" y="549.61" class="st9" width="63.02" height="55.95"/>
			<rect x="1970.83" y="641.64" class="st2" width="63.02" height="55.95"/>
		</g>
		<rect x="1977.65" y="190.93" class="st5" width="47.17" height="47.17"/>
		<rect x="2050.15" y="190.93" class="st5" width="47.17" height="47.17"/>
		<rect x="2122.64" y="190.93" class="st5" width="47.17" height="47.17"/>
		<rect x="2195.14" y="190.93" class="st5" width="47.17" height="47.17"/>
		<rect x="2267.63" y="190.93" class="st5" width="47.17" height="47.17"/>
	</g>
</g>
<g>
	<path class="st0" d="M1872.21,799.95l-882.68-4.24c-10.64-0.1-19.28,11.67-19.2,26.15l1.96,349.23
		c0.08,14.56,8.95,26.18,19.64,25.74l877.65-18.8c10.21-0.42,18.36-11.71,18.49-25.6l3.08-326.19
		C1891.29,811.84,1882.79,800.05,1872.21,799.95z"/>
	<g>
		<path class="st18" d="M991.37,1174.43c-1.63,0-2.9-1.54-2.91-3.52l-1.95-349.23c0-0.92,0.24-1.72,0.73-2.39
			c0.71-0.97,1.58-1.17,2.18-1.17l882.68,4.25c0.6,0,1.46,0.22,2.16,1.19c0.49,0.68,0.73,1.48,0.72,2.39l-3.08,326.19
			c-0.02,1.93-1.22,3.43-2.8,3.5h-0.02L991.37,1174.43z M989.41,820.38c-0.06,0-0.17,0-0.35,0.25c-0.2,0.28-0.3,0.62-0.3,1.05
			l1.95,349.22c0,0.77,0.41,1.27,0.63,1.27l877.69-18.8c0.23-0.02,0.6-0.52,0.61-1.26l3.08-326.19c0-0.42-0.09-0.76-0.29-1.05
			c-0.18-0.25-0.29-0.25-0.34-0.25L989.41,820.38z"/>
	</g>
	<g class="st19">
		<rect x="1025.32" y="980.41" class="st7" width="42.96" height="164.15"/>
		<rect x="1097.1" y="1036.83" class="st7" width="42.96" height="107.73"/>
		<rect x="1168.87" y="897.4" class="st7" width="42.96" height="247.16"/>
		<rect x="1240.65" y="1085.19" class="st7" width="42.96" height="59.38"/>
		<rect x="1312.42" y="930.44" class="st7" width="42.96" height="214.12"/>
		<rect x="1384.2" y="967.52" class="st7" width="42.96" height="177.05"/>
		<rect x="1455.97" y="1007.81" class="st7" width="42.96" height="136.75"/>
		<rect x="1527.75" y="847.43" class="st7" width="42.96" height="297.13"/>
		<rect x="1599.52" y="878.86" class="st7" width="42.96" height="265.7"/>
		<rect x="1671.3" y="926.41" class="st7" width="42.96" height="218.15"/>
		<rect x="1743.07" y="1090.7" class="st7" width="42.96" height="53.87"/>
		<rect x="1814.84" y="986.05" class="st7" width="42.96" height="158.51"/>
	</g>
</g>
</svg>
