<?xml version="1.0" encoding="utf-8"?>
<!-- Generator: Adobe Illustrator 27.2.0, SVG Export Plug-In . SVG Version: 6.00 Build 0)  -->
<svg version="1.1" id="Layer_1" xmlns="http://www.w3.org/2000/svg" xmlns:xlink="http://www.w3.org/1999/xlink" x="0px" y="0px"
	 viewBox="0 0 2880 1800" style="enable-background:new 0 0 2880 1800;" xml:space="preserve">
<style type="text/css">
	.st0{fill:#DEE9F6;}
	.st1{fill:#ACC5E6;}
	.st2{fill:#77787B;}
	.st3{opacity:0.3;fill:#545456;}
	.st4{fill:#FFFFFF;}
	.st5{opacity:0.93;fill:#515254;}
	.st6{fill:#FEE457;stroke:#748AC5;stroke-width:4;stroke-miterlimit:10;}
	.st7{fill:#DCBE82;stroke:#748AC5;stroke-width:4;stroke-miterlimit:10;}
	.st8{fill:#FFFFFF;stroke:#748AC5;stroke-width:4;stroke-miterlimit:10;}
	.st9{fill:#7DA8D9;}
	.st10{fill:#748AC5;}
	.st11{fill:#D4DDF0;}
	.st12{fill:#F8B283;}
	.st13{fill:#C48B6B;}
	.st14{fill:#142047;}
	.st15{fill:#05203A;}
	.st16{fill:#00558C;}
	.st17{fill:#25160C;}
	.st18{fill:#B56E46;}
	.st19{opacity:0.6;fill:#142047;}
	.st20{fill:none;stroke:#142047;stroke-width:4;stroke-miterlimit:10;}
	.st21{fill:none;stroke:#142047;stroke-width:4.8;stroke-miterlimit:10;}
	.st22{fill:#FFFFFF;stroke:#00558C;stroke-width:4;stroke-miterlimit:10;}
	.st23{fill:#4C96C5;}
	.st24{fill:#D2E1F0;}
	.st25{fill:#FFFFFF;stroke:#00714A;stroke-width:4;stroke-miterlimit:10;}
	.st26{fill:#83C341;}
	.st27{fill:#BDD642;}
	.st28{fill:url(#SVGID_1_);}
	.st29{fill:url(#SVGID_00000106144096968228988200000007185590653348297096_);}
	.st30{fill:url(#SVGID_00000109732558198401201030000005228106176145315254_);}
	.st31{fill:url(#SVGID_00000148618924555312735740000017607429467703291804_);}
	.st32{fill:url(#SVGID_00000106834345317303835660000011244873446551685295_);}
	.st33{fill:url(#SVGID_00000126317501689742846780000000782320508643191179_);}
	.st34{fill:url(#SVGID_00000069367562323406081500000006523171630531416474_);}
	.st35{fill:url(#SVGID_00000000183461539623047440000016853106988101856665_);}
	.st36{opacity:0.7;fill:#FFFFFF;}
	.st37{opacity:0.78;fill:#FFFFFF;}
	.st38{fill:url(#SVGID_00000012445300715527146670000011733311718669584791_);}
	.st39{fill:url(#SVGID_00000057134356964027739760000010714720393114801036_);}
	.st40{fill:url(#SVGID_00000078764769883923193580000003185954197490198672_);}
	.st41{fill:url(#SVGID_00000069371767505505856240000004034451743552515513_);}
	.st42{fill:url(#SVGID_00000018928398773308763780000017335374614495990405_);}
	.st43{fill:url(#SVGID_00000027567748290458737490000003260094858978626458_);}
	.st44{fill:url(#SVGID_00000085962635632067046660000014012450292154124167_);}
	.st45{fill:url(#SVGID_00000168833325191320563580000004216418585382254779_);}
	.st46{fill:url(#SVGID_00000077315414002175471450000003418266974766562234_);}
	.st47{fill:#2B478B;}
	.st48{fill:#233862;}
	.st49{fill:#E9F1FA;}
	.st50{fill:#23417A;}
	.st51{fill:#D8E8F6;}
</style>
<g>
	<path class="st0" d="M2615.13,271.49c-25.5-94.16-184.39-64.73-184.39-64.73s-107.89,164.78-139.27,168.7
		c-31.39,3.92,64.73-158.89,64.73-158.89c-60.81-5.88-215.78,68.66-215.78,68.66s9.81,192.24-21.58,188.32
		c-31.39-3.92,0-170.66,0-170.66c-58.85,17.65-113.77,86.31-113.77,86.31c-68.66,111.81,78.47,194.2,78.47,194.2
		s1.96,66.69-39.23,143.2l0,0c0,0-9.3,14.13-18.75,38.13h16.04c1.31-4.3,2.76-8.46,4.35-12.45c0-0.03,0.01-0.05,0.03-0.07
		c0.02-0.06,0.05-0.11,0.07-0.17c1.1-2.48,2.68-6.01,4.65-10.3c0-0.01,0.01-0.01,0.01-0.02c0-0.01,0.01-0.01,0.01-0.02
		c4.9-9.6,8.21-16.68,10.31-21.8c0.01-0.02,0.01-0.03,0.02-0.05c14.69-30.12,35.84-69.37,49.96-77.6c0,0-1.78-2.5-3.43-7.36
		c1.09,2.35,2.24,4.79,3.43,7.36c27.46,58.85,164.78,68.66,241.28,52.96c76.5-15.69,43.16-37.27,1.96-72.29
		c-41.19-35.02-127.51-25.79-153.01-39.52c-25.5-13.73,11.77-27.46,62.77-23.54c51,3.92,76.5,54.93,158.89,62.77
		c82.39,7.85,145.16-147.12,145.16-147.12c-56.89,17.65-158.89-13.73-162.81-33.35c-3.92-19.62,147.12-17.65,170.66-23.54
		C2599.44,412.72,2640.63,365.65,2615.13,271.49z"/>
	<path class="st1" d="M2405.32,999.48c-13.66-50.44-98.78-34.68-98.78-34.68s-57.8,88.28-74.61,90.38
		c-16.82,2.1,34.68-85.12,34.68-85.12c-32.58-3.15-115.6,36.78-115.6,36.78s5.26,102.99-11.56,100.89c-16.81-2.1,0-91.43,0-91.43
		c-31.53,9.46-60.95,46.24-60.95,46.24c-36.78,59.9,42.04,104.04,42.04,104.04s1.05,35.73-21.02,76.72l0,0
		c0,0-4.98,7.57-10.04,20.43h8.6c0.7-2.31,1.48-4.53,2.33-6.67c0-0.02,0.01-0.03,0.02-0.04c0.01-0.03,0.03-0.06,0.04-0.09
		c0.59-1.33,1.43-3.22,2.49-5.52c0,0,0-0.01,0-0.01c0-0.01,0.01-0.01,0.01-0.01c2.63-5.14,4.4-8.94,5.52-11.68
		c0-0.01,0.01-0.02,0.01-0.03c7.87-16.14,19.2-37.16,26.76-41.57c0,0-0.95-1.34-1.84-3.94c0.59,1.26,1.2,2.57,1.84,3.94
		c14.71,31.53,88.28,36.78,129.26,28.37c40.98-8.41,23.12-19.97,1.05-38.73c-22.07-18.76-68.31-13.82-81.97-21.17
		c-13.66-7.36,6.3-14.71,33.63-12.61c27.32,2.1,40.98,29.43,85.12,33.63c44.14,4.2,77.77-78.82,77.77-78.82
		c-30.48,9.46-85.12-7.36-87.22-17.86c-2.1-10.51,78.82-9.46,91.43-12.61C2396.91,1075.15,2418.98,1049.92,2405.32,999.48z"/>
	<path class="st0" d="M1938.28,124.84c-44.16-50.24-133.06,15.91-133.06,15.91s-16.58,134.03-34.71,145.93
		c-18.13,11.9-8.2-117.36-8.2-117.36c-39.2,14.76-112.05,107.49-112.05,107.49s64.16,115.35,43.65,122.42
		c-20.5,7.07-51.6-105.03-51.6-105.03c-30.88,28.66-43.93,87.52-43.93,87.52c-8.45,89.57,107,95.8,107,95.8s21.37,40.46,19.15,99.99
		l0,0c0,0-1.45,11.5-0.01,29.14l9.87-4.85c-0.49-3.04-0.86-6.04-1.09-8.98c-0.01-0.02-0.01-0.03,0-0.05c0-0.04-0.01-0.09-0.01-0.13
		c-0.07-1.86-0.17-4.51-0.26-7.75c0,0,0-0.01,0-0.01c0-0.01,0-0.01,0-0.02c0.12-7.39,0.01-12.75-0.25-16.53c0-0.01,0-0.02,0-0.03
		c-0.07-22.98,1.09-53.53,7.29-62.86c0,0-1.85-1-4.34-3.49c1.38,1.11,2.83,2.27,4.34,3.49c34.69,27.92,122.17-7.56,164.51-40.35
		c42.34-32.79,15.29-35.99-20.65-45.09c-35.94-9.1-86.27,22.68-106.12,21.93c-19.85-0.74-1.06-20.46,31.52-33.46
		c32.58-13,63.69,10.68,116.77-9.4c53.08-20.08,44.86-134.43,44.86-134.43c-29.67,28.06-101.94,39.59-110.29,28.7
		c-8.34-10.89,85.21-55.34,97.92-66.08C1971.32,216.51,1982.44,175.08,1938.28,124.84z"/>
</g>
<g>
	<g>
		<g>
			<g>
				<rect x="1346.13" y="1346.22" class="st2" width="267.46" height="392.71"/>
				<rect x="1346.13" y="1386.41" class="st3" width="267.46" height="74.64"/>
				<circle class="st4" cx="1479.85" cy="1428.04" r="71.48"/>
				<g>
					<rect x="820.24" y="554.35" class="st5" width="1319.23" height="869.53"/>
					<rect x="840.89" y="576.97" class="st4" width="1277.93" height="827.44"/>
				</g>
				<rect x="1202.28" y="1685.76" width="553.47" height="53.17"/>
			</g>
			<g>
				<g>
					<g>
						<path class="st6" d="M1193.09,982.22l23.79-171.67c-11.22-2.25-22.82-3.44-34.69-3.44c-97.03,0-175.69,78.66-175.69,175.69
							c0,97.03,78.66,175.69,175.69,175.69s175.69-78.66,175.69-175.69c0-6.38-0.36-12.67-1.02-18.87L1193.09,982.22z"/>
						<path class="st7" d="M1386.13,932.93c-8.18-76.6-65.58-138.48-139.97-153.38l-23.79,171.67L1386.13,932.93z"/>
					</g>
				</g>
				<g>
					<rect x="1487.89" y="818.07" class="st8" width="448.21" height="330.6"/>
					<g>
						<rect x="1532" y="1029.36" class="st9" width="29.28" height="54.19"/>
						<rect x="1587.12" y="963.13" class="st9" width="29.28" height="120.43"/>
						<rect x="1642.23" y="900.53" class="st9" width="29.28" height="183.03"/>
						<rect x="1697.35" y="947.79" class="st9" width="29.28" height="135.77"/>
						<rect x="1752.47" y="936.6" class="st9" width="29.28" height="146.96"/>
						<rect x="1807.58" y="938.99" class="st9" width="29.28" height="144.56"/>
						<rect x="1862.7" y="875.31" class="st9" width="29.28" height="208.25"/>
						<g>
							<polygon class="st10" points="1546.04,1064.89 1543.46,1062.61 1602.16,996.14 1661.15,955.64 1712.65,1001.13 
								1751.12,964.89 1753.48,967.4 1712.72,1005.8 1660.88,960 1604.46,998.74 							"/>
						</g>
					</g>
				</g>
				<g>
					<rect x="1244.22" y="635.1" width="482.75" height="54.42"/>
					<rect x="1082.55" y="743.9" class="st11" width="802.64" height="7.55"/>
					<rect x="1082.55" y="721.5" class="st11" width="802.64" height="7.55"/>
				</g>
				<g>
					<rect x="1082.55" y="1265.79" class="st11" width="802.64" height="7.55"/>
					<rect x="1082.55" y="1288.75" class="st11" width="802.64" height="7.55"/>
					<rect x="1082.55" y="1311.72" class="st11" width="802.64" height="7.55"/>
				</g>
				<rect x="1087.45" y="1187.48" class="st11" width="182.58" height="23.54"/>
				<rect x="1620.7" y="1187.48" class="st11" width="182.58" height="23.54"/>
			</g>
		</g>
		<g>
			<path class="st12" d="M2257.37,1241.73l10.06,14.6c24.12-1.52,45.65,16.2,44.77,23.33h-63.94l-20.4-34.14L2257.37,1241.73z"/>
			<g>
				<path class="st13" d="M1829.96,996.67l-19.79-45.49l-43.56-7.56c0,0,0.53,11.54,31.7,15.55l6.23,8.22L1829.96,996.67z"/>
				<path class="st13" d="M1815.6,990.49l-14.43-38.11l-34.23,13.78c0,0,5.17,7.32,27.99,3.44l6.34,4.54L1815.6,990.49z"/>
				<path class="st13" d="M1823.21,992.53l-22.18-34.18l-30.53,20.72c0,0,6.6,6.06,28.08-2.57l7.16,3.1L1823.21,992.53z"/>
				<g>
					
						<rect x="1757.61" y="939.14" transform="matrix(0.9372 -0.3489 0.3489 0.9372 -216.0732 690.474)" class="st10" width="102.89" height="12.03"/>
					<polyline class="st14" points="1758.74,957.47 1750.59,966.6 1762.94,968.75 					"/>
				</g>
				<g>
					<path class="st13" d="M1829.96,996.67c0,0-15.43-23.15-22.5-27.88c-7.07-4.73-15.96-8-18.82-14.49s-7.79-0.33-7.82,2.16
						c-0.07,5.9,1.73,14.27,11.72,20.39c0,0,8.49,26.8,22.94,28.79L1829.96,996.67z"/>
					<polygon class="st13" points="1829.96,996.67 1843.76,1007.81 1849.61,1031.4 1831.31,1041.09 1805.69,995.87 					"/>
				</g>
			</g>
			<g>
				<path class="st15" d="M1920.12,1738.96c34.8-6.01,53.05-18.95,71.75-31.7v31.7h5.84l8.3-56.23
					c-18.46,13.31-42.35,26.23-62.09,29.74L1920.12,1738.96z"/>
				<path class="st13" d="M1977.69,1481.99l-5.84,199.4l-27.92,31.08c19.74-3.51,43.63-16.43,62.09-29.74l33.83-229.1
					L1977.69,1481.99z"/>
			</g>
			<g>
				<path class="st13" d="M2101.43,1424.81l-40.64,33.84l103.16,212.4l-4.87,38.73c15.56-15.87,28.53-34.94,37.89-52.85
					C2174.42,1578.39,2151.04,1496.94,2101.43,1424.81z"/>
				<path class="st15" d="M2159.08,1709.78l-3.63,28.86c28.94-20.24,33.18-34.02,37.62-52.7l13.48,28.69l5.29-2.48
					c-4.67-18.46-9.6-36.87-14.87-55.23C2187.62,1674.84,2174.65,1693.91,2159.08,1709.78z"/>
			</g>
			<path d="M2134.67,1456.46c-57.42,22.98-111.78,13.4-156.98,25.53c-19.12-47.99-31.45-108.06-9.4-229.29
				c1.69-9.23,4.03-18.33,6.99-27.25l18.64-56.56l0.45-1.41l64.52-20.19l34.76,23.53l0.59,1.79l0.72,2.14
				c7.03,21.39,15.95,42.06,26.08,62.14C2158.34,1310.78,2159.99,1386.49,2134.67,1456.46z"/>
			<path class="st16" d="M2267.2,1244.22l-39.24,21.7l-106.79-166.87c-4.24,26.08-13.12,49.26-26.25,69.76
				c-0.41,0.69-0.83,1.34-1.27,2c-37.89,10.33-66.69,11.13-99.28-3.34c-0.45-0.76-0.9-1.52-1.34-2.27
				c-13.33-22.67-23.18-50.85-31.18-81.99l-37.51,23.39c-14.5,9.06-33.28,7.1-45.57-4.75l-68.35-65.8l27.11-33.79l75.92,52.98
				l47.47-34.65c13.54-9.89,28.94-16.91,45.26-20.7l25.73-5.96l26.7-2.48l33.17,11.54c24.91,8.72,46.02,25.87,59.63,48.5
				L2267.2,1244.22z"/>
			<g>
				<path class="st17" d="M2105.75,869.87c-0.7,14.7-13.96,23.43-27.81,22.77c-13.84-0.66-18.75-12.35-22.65-26.53
					c-4.38-15.91,8.45-24.44,22.31-24.66C2094.63,841.18,2106.45,855.17,2105.75,869.87z"/>
				<path class="st13" d="M2069.74,951.14l-2.31,39.58c-0.86,14.98-13.54,26.49-28.42,25.77c-9.96-0.48-17.71-8.72-17.71-18.64
					c0-0.31,0.03-0.65,0.03-0.96l0.03-0.48l1.31-28.04l16.64-6.1L2069.74,951.14z"/>
				<path class="st18" d="M2059.47,964.71c0,0-11.57,23.39-38.1,31.69l1.31-28.04l16.64-6.1L2059.47,964.71z"/>
				<path class="st13" d="M2077.66,913.49l-6.41,38.13c0,0-21.87,32.52-53.15,29.66c-12.88-1.17-18.88-9.34-21.46-18.5
					c-2-7.17-1.93-14.99-1.45-20.53c0.41-4.65,1.07-7.75,1.07-7.75l-4.2-19.7l10.71-20.32l41.54-13.74L2077.66,913.49z"/>
				<path class="st17" d="M2078.92,932.49c3.05-7.16,7.04-12.29,7.16-30.8c-0.91-26.31-23.74-46.57-54.85-39.74
					c-1.91,0.42-3.8,1.02-5.62,1.72c-44.34,17.02-44.33,49.77-31.4,62.33c7.38-21.4,25.91-26.54,46.88-26.74
					c6.81,21.21,22.39,33.3,33.27,32.47L2078.92,932.49z"/>
				<path class="st13" d="M2084.15,941.46c-1.7,7.1-7.15,13.48-11.82,12.83c-4.68-0.65-7.69-6.75-6.74-13.63
					c0.96-6.88,5.52-11.93,10.2-11.28C2080.46,930.02,2086.17,933,2084.15,941.46z"/>
				<g>
					<path class="st18" d="M2071.52,942.98l-1.71-0.16c0.02-0.24,0.61-5.94,4.01-7.87c1.57-0.9,3.44-0.85,5.54,0.14l-0.73,1.56
						c-1.59-0.75-2.88-0.81-3.96-0.2C2072.47,937.68,2071.65,941.58,2071.52,942.98z"/>
				</g>
			</g>
			<path class="st19" d="M2094.23,1172.61c-14.66,29.39-78.75,31.37-100.31-3.72l0.45-1.41c32.59,14.47,61.39,13.68,99.28,3.34
				L2094.23,1172.61z"/>
		</g>
		<g>
			<g>
				<line class="st20" x1="2436.1" y1="1285.87" x2="2436.1" y2="1733.69"/>
				<rect x="2239.17" y="1277.83" class="st11" width="393.86" height="20.5"/>
				<path class="st10" d="M2519.42,1741h-166.66l0,0c0-14.73,11.94-26.67,26.67-26.67h113.31
					C2507.48,1714.33,2519.42,1726.27,2519.42,1741L2519.42,1741z"/>
			</g>
			<g>
				<rect x="2351.98" y="1260.61" width="117.7" height="17.22"/>
				<polygon class="st2" points="2525.59,1277.83 2391.32,1277.83 2446.49,1146.78 2580.76,1146.78 				"/>
			</g>
		</g>
		<line class="st21" x1="191.8" y1="1738.93" x2="2775.41" y2="1738.93"/>
		<g>
			<path class="st22" d="M2367.65,719.61c-59.78,0-108.25,48.46-108.25,108.25c0,17.12,3.99,33.31,11.07,47.7l-32.31,34.71
				l46.6-12.82c19.86,23.62,49.61,38.65,82.89,38.65c59.78,0,108.25-48.46,108.25-108.25
				C2475.89,768.07,2427.43,719.61,2367.65,719.61z"/>
			<g>
				
					<ellipse transform="matrix(0.7071 -0.7071 0.7071 0.7071 93.0047 1880.2374)" class="st23" cx="2316.15" cy="827.85" rx="14.93" ry="14.93"/>
				
					<ellipse transform="matrix(0.1602 -0.9871 0.9871 0.1602 1170.8949 3031.9258)" class="st24" cx="2367.25" cy="827.85" rx="14.93" ry="14.93"/>
				
					<ellipse transform="matrix(0.2298 -0.9732 0.9732 0.2298 1057.0189 2991.304)" class="st24" cx="2418.35" cy="827.85" rx="14.93" ry="14.93"/>
			</g>
		</g>
		<g>
			<path class="st25" d="M571.52,703.49c59.78,0,108.25,48.46,108.25,108.25c0,17.12-3.99,33.31-11.07,47.7l32.31,34.71l-46.6-12.82
				c-19.86,23.62-49.61,38.65-82.89,38.65c-59.78,0-108.25-48.46-108.25-108.25C463.28,751.95,511.74,703.49,571.52,703.49z"/>
			<g>
				<circle class="st26" cx="622.4" cy="808.83" r="14.93"/>
				
					<ellipse transform="matrix(0.0151 -0.9999 0.9999 0.0151 -246.0659 1367.8571)" class="st27" cx="571.3" cy="808.83" rx="14.93" ry="14.93"/>
				
					<ellipse transform="matrix(5.139136e-03 -1 1 5.139136e-03 -291.291 1324.8757)" class="st27" cx="520.21" cy="808.83" rx="14.93" ry="14.93"/>
			</g>
		</g>
	</g>
</g>
<g>
	<linearGradient id="SVGID_1_" gradientUnits="userSpaceOnUse" x1="384.5436" y1="868.264" x2="318.5156" y2="1778.5087">
		<stop  offset="0" style="stop-color:#F3B62E"/>
		<stop  offset="1" style="stop-color:#F1B01C"/>
	</linearGradient>
	<path class="st28" d="M456.31,1481.93H227.02c-2.01,0-3.63-1.63-3.63-3.63v-37.79c0-2.01,1.63-3.63,3.63-3.63h229.29
		c2.01,0,3.63,1.63,3.63,3.63v37.79C459.94,1480.31,458.32,1481.93,456.31,1481.93z"/>
	
		<linearGradient id="SVGID_00000021827096221045203510000003118718839315249029_" gradientUnits="userSpaceOnUse" x1="388.3399" y1="868.4658" x2="322.3118" y2="1778.7109">
		<stop  offset="0" style="stop-color:#F3B62E"/>
		<stop  offset="1" style="stop-color:#F1B01C"/>
	</linearGradient>
	<path style="fill:url(#SVGID_00000021827096221045203510000003118718839315249029_);" d="M456.5,1531.91H227.2
		c-2.01,0-3.63-1.63-3.63-3.63v-37.79c0-2.01,1.63-3.63,3.63-3.63H456.5c2.01,0,3.63,1.63,3.63,3.63v37.79
		C460.13,1530.28,458.5,1531.91,456.5,1531.91z"/>
	
		<linearGradient id="SVGID_00000017516989872219073740000011758709586707776676_" gradientUnits="userSpaceOnUse" x1="392.136" y1="868.6702" x2="326.108" y2="1778.9148">
		<stop  offset="0" style="stop-color:#F3B62E"/>
		<stop  offset="1" style="stop-color:#F1B01C"/>
	</linearGradient>
	<path style="fill:url(#SVGID_00000017516989872219073740000011758709586707776676_);" d="M456.68,1581.88H227.39
		c-2.01,0-3.63-1.63-3.63-3.63v-37.79c0-2.01,1.63-3.63,3.63-3.63h229.29c2.01,0,3.63,1.63,3.63,3.63v37.79
		C460.31,1580.26,458.69,1581.88,456.68,1581.88z"/>
	
		<linearGradient id="SVGID_00000133500433527249936340000008791256292261350058_" gradientUnits="userSpaceOnUse" x1="395.9323" y1="868.8723" x2="329.9042" y2="1779.1169">
		<stop  offset="0" style="stop-color:#F3B62E"/>
		<stop  offset="1" style="stop-color:#F1B01C"/>
	</linearGradient>
	<path style="fill:url(#SVGID_00000133500433527249936340000008791256292261350058_);" d="M456.87,1631.86H227.57
		c-2.01,0-3.63-1.63-3.63-3.63v-37.79c0-2.01,1.63-3.63,3.63-3.63h229.29c2.01,0,3.63,1.63,3.63,3.63v37.79
		C460.5,1630.23,458.87,1631.86,456.87,1631.86z"/>
	
		<linearGradient id="SVGID_00000003089851157953567270000007170413895674620573_" gradientUnits="userSpaceOnUse" x1="399.7285" y1="869.074" x2="333.7004" y2="1779.3191">
		<stop  offset="0" style="stop-color:#F3B62E"/>
		<stop  offset="1" style="stop-color:#F1B01C"/>
	</linearGradient>
	<path style="fill:url(#SVGID_00000003089851157953567270000007170413895674620573_);" d="M457.05,1681.83H227.76
		c-2.01,0-3.63-1.63-3.63-3.63v-37.79c0-2.01,1.63-3.63,3.63-3.63h229.29c2.01,0,3.63,1.63,3.63,3.63v37.79
		C460.69,1680.21,459.06,1681.83,457.05,1681.83z"/>
	
		<linearGradient id="SVGID_00000087406723525248779620000014259392371223005839_" gradientUnits="userSpaceOnUse" x1="403.302" y1="869.2592" x2="337.2739" y2="1779.5038">
		<stop  offset="0" style="stop-color:#F3B62E"/>
		<stop  offset="1" style="stop-color:#F1B01C"/>
	</linearGradient>
	<path style="fill:url(#SVGID_00000087406723525248779620000014259392371223005839_);" d="M457.05,1731.28H227.76
		c-2.01,0-3.63-1.63-3.63-3.63v-37.79c0-2.01,1.63-3.63,3.63-3.63h229.29c2.01,0,3.63,1.63,3.63,3.63v37.79
		C460.69,1729.66,459.06,1731.28,457.05,1731.28z"/>
	<g>
		
			<linearGradient id="SVGID_00000170986435852475601410000013118079050229274515_" gradientUnits="userSpaceOnUse" x1="171.6537" y1="1490.4293" x2="333.5884" y2="1302.4696">
			<stop  offset="0" style="stop-color:#F3B62E"/>
			<stop  offset="1" style="stop-color:#F1B01C"/>
		</linearGradient>
		<circle style="fill:url(#SVGID_00000170986435852475601410000013118079050229274515_);" cx="336.86" cy="1298.67" r="120.73"/>
		
			<linearGradient id="SVGID_00000025433320894073758160000001926807749821983167_" gradientUnits="userSpaceOnUse" x1="325.4572" y1="1036.4246" x2="349.0045" y2="1578.0044">
			<stop  offset="0" style="stop-color:#F3B62E"/>
			<stop  offset="1" style="stop-color:#F1B01C"/>
		</linearGradient>
		<circle style="fill:url(#SVGID_00000025433320894073758160000001926807749821983167_);" cx="336.86" cy="1298.67" r="116.71"/>
		<path class="st36" d="M240.62,1252.87c-0.41,0-0.82-0.09-1.2-0.29c-1.32-0.67-1.85-2.28-1.18-3.6
			c18.91-37.46,56.7-60.73,98.63-60.73c6.7,0,13.4,0.6,19.92,1.79c1.46,0.27,2.42,1.66,2.15,3.11c-0.27,1.46-1.66,2.42-3.11,2.15
			c-6.2-1.13-12.58-1.7-18.96-1.7c-39.9,0-75.86,22.14-93.85,57.79C242.54,1252.33,241.6,1252.87,240.62,1252.87z"/>
		
			<ellipse transform="matrix(0.9906 -0.137 0.137 0.9906 -175.0923 58.778)" class="st37" cx="339.4" cy="1301.22" rx="98.78" ry="98.78"/>
		<g>
			
				<linearGradient id="SVGID_00000064343995396378498060000006101646512960321211_" gradientUnits="userSpaceOnUse" x1="367.7575" y1="1083.1555" x2="348.3322" y2="1238.558">
				<stop  offset="0" style="stop-color:#F3B62E"/>
				<stop  offset="1" style="stop-color:#F1B01C"/>
			</linearGradient>
			<path style="fill:url(#SVGID_00000064343995396378498060000006101646512960321211_);" d="M329.71,1374.65v-10.75
				c-11.2-0.45-22.28-3.09-30.16-6.54c-2.81-1.23-4.24-4.38-3.44-7.34l2.73-10.01c1-3.67,5-5.57,8.51-4.1
				c7.81,3.27,17.45,5.86,27.84,5.86c10.79,0,18.84-3.66,18.84-11.16c0-6.77-6.22-10.79-21.22-14.81
				c-21.4-5.85-36.76-15.18-36.76-34.02c0-17.01,12.44-30,34.02-33.47v-10.75c0-3.46,2.8-6.26,6.26-6.26h6.31
				c3.46,0,6.26,2.8,6.26,6.26v9.65c10.37,0.41,17.91,2.19,23.9,4.29c3.07,1.08,4.74,4.38,3.89,7.52l-2.51,9.26
				c-0.97,3.57-4.78,5.53-8.24,4.22c-5.51-2.08-13.31-4.26-23.44-4.26c-12.8,0-16.46,5.3-16.46,10.06c0,5.85,7.68,9.88,24.33,15
				c23.78,7.13,33.65,17.01,33.65,34.75c0,16.28-12.07,30.91-35.48,34.57v12.03c0,3.46-2.8,6.26-6.26,6.26h-6.31
				C332.51,1380.92,329.71,1378.11,329.71,1374.65z"/>
		</g>
	</g>
</g>
<g>
	
		<linearGradient id="SVGID_00000143584662505227952490000013735075510387640974_" gradientUnits="userSpaceOnUse" x1="656.8525" y1="1092.344" x2="567.1945" y2="1847.3538">
		<stop  offset="0" style="stop-color:#F3B62E"/>
		<stop  offset="1" style="stop-color:#F1B01C"/>
	</linearGradient>
	<path style="fill:url(#SVGID_00000143584662505227952490000013735075510387640974_);" d="M721.98,1531.91H492.68
		c-2.01,0-3.63-1.63-3.63-3.63v-37.79c0-2.01,1.63-3.63,3.63-3.63h229.29c2.01,0,3.63,1.63,3.63,3.63v37.79
		C725.61,1530.28,723.98,1531.91,721.98,1531.91z"/>
	
		<linearGradient id="SVGID_00000108310941601297844320000005096098572155212977_" gradientUnits="userSpaceOnUse" x1="662.8995" y1="1092.9625" x2="573.2415" y2="1847.972">
		<stop  offset="0" style="stop-color:#F3B62E"/>
		<stop  offset="1" style="stop-color:#F1B01C"/>
	</linearGradient>
	<path style="fill:url(#SVGID_00000108310941601297844320000005096098572155212977_);" d="M722.16,1581.88H492.87
		c-2.01,0-3.63-1.63-3.63-3.63v-37.79c0-2.01,1.63-3.63,3.63-3.63h229.29c2.01,0,3.63,1.63,3.63,3.63v37.79
		C725.8,1580.26,724.17,1581.88,722.16,1581.88z"/>
	
		<linearGradient id="SVGID_00000027566013778905407790000000448858767639410094_" gradientUnits="userSpaceOnUse" x1="668.9464" y1="1093.5809" x2="579.2885" y2="1848.5906">
		<stop  offset="0" style="stop-color:#F3B62E"/>
		<stop  offset="1" style="stop-color:#F1B01C"/>
	</linearGradient>
	<path style="fill:url(#SVGID_00000027566013778905407790000000448858767639410094_);" d="M722.35,1631.86H493.05
		c-2.01,0-3.63-1.63-3.63-3.63v-37.79c0-2.01,1.63-3.63,3.63-3.63h229.29c2.01,0,3.63,1.63,3.63,3.63v37.79
		C725.98,1630.23,724.35,1631.86,722.35,1631.86z"/>
	
		<linearGradient id="SVGID_00000030458761075308111830000018342614869701749142_" gradientUnits="userSpaceOnUse" x1="674.9933" y1="1094.1985" x2="585.3354" y2="1849.2084">
		<stop  offset="0" style="stop-color:#F3B62E"/>
		<stop  offset="1" style="stop-color:#F1B01C"/>
	</linearGradient>
	<path style="fill:url(#SVGID_00000030458761075308111830000018342614869701749142_);" d="M722.53,1681.83H493.24
		c-2.01,0-3.63-1.63-3.63-3.63v-37.79c0-2.01,1.63-3.63,3.63-3.63h229.29c2.01,0,3.63,1.63,3.63,3.63v37.79
		C726.17,1680.21,724.54,1681.83,722.53,1681.83z"/>
	
		<linearGradient id="SVGID_00000103241813930616595790000016719872421674594432_" gradientUnits="userSpaceOnUse" x1="680.7952" y1="1094.7897" x2="591.1373" y2="1849.7991">
		<stop  offset="0" style="stop-color:#F3B62E"/>
		<stop  offset="1" style="stop-color:#F1B01C"/>
	</linearGradient>
	<path style="fill:url(#SVGID_00000103241813930616595790000016719872421674594432_);" d="M722.53,1731.28H493.24
		c-2.01,0-3.63-1.63-3.63-3.63v-37.79c0-2.01,1.63-3.63,3.63-3.63h229.29c2.01,0,3.63,1.63,3.63,3.63v37.79
		C726.17,1729.66,724.54,1731.28,722.53,1731.28z"/>
	<g>
		
			<linearGradient id="SVGID_00000137118194036870123570000007268301352974661563_" gradientUnits="userSpaceOnUse" x1="433.3326" y1="1541.5894" x2="595.2673" y2="1353.6296">
			<stop  offset="0" style="stop-color:#F3B62E"/>
			<stop  offset="1" style="stop-color:#F1B01C"/>
		</linearGradient>
		<circle style="fill:url(#SVGID_00000137118194036870123570000007268301352974661563_);" cx="598.54" cy="1349.83" r="120.73"/>
		
			<linearGradient id="SVGID_00000016768393196555613810000001714274568808092333_" gradientUnits="userSpaceOnUse" x1="619.0984" y1="993.4625" x2="590.8417" y2="1483.2408">
			<stop  offset="0" style="stop-color:#F3B62E"/>
			<stop  offset="1" style="stop-color:#F1B01C"/>
		</linearGradient>
		<circle style="fill:url(#SVGID_00000016768393196555613810000001714274568808092333_);" cx="598.54" cy="1349.83" r="116.71"/>
		<path class="st36" d="M502.3,1304.03c-0.41,0-0.82-0.09-1.2-0.29c-1.32-0.67-1.85-2.28-1.18-3.6
			c18.91-37.46,56.7-60.73,98.63-60.73c6.7,0,13.4,0.6,19.92,1.79c1.46,0.27,2.42,1.66,2.15,3.11c-0.27,1.46-1.66,2.42-3.11,2.15
			c-6.2-1.13-12.58-1.7-18.96-1.7c-39.9,0-75.86,22.14-93.85,57.79C504.22,1303.49,503.27,1304.03,502.3,1304.03z"/>
		
			<ellipse transform="matrix(0.991 -0.1342 0.1342 0.991 -176.0231 92.8807)" class="st37" cx="601.08" cy="1352.38" rx="98.78" ry="98.78"/>
		<g>
			
				<linearGradient id="SVGID_00000114047949996190110680000017513075396392248996_" gradientUnits="userSpaceOnUse" x1="743.1046" y1="1046.528" x2="677.7648" y2="1189.5687">
				<stop  offset="0" style="stop-color:#F3B62E"/>
				<stop  offset="1" style="stop-color:#F1B01C"/>
			</linearGradient>
			<path style="fill:url(#SVGID_00000114047949996190110680000017513075396392248996_);" d="M591.39,1425.81v-10.75
				c-11.2-0.45-22.28-3.09-30.16-6.54c-2.81-1.23-4.24-4.38-3.44-7.34l2.73-10.01c1-3.67,5-5.57,8.51-4.1
				c7.81,3.27,17.45,5.86,27.84,5.86c10.79,0,18.84-3.66,18.84-11.16c0-6.77-6.22-10.79-21.22-14.81
				c-21.4-5.85-36.76-15.18-36.76-34.02c0-17.01,12.44-30,34.02-33.47v-10.75c0-3.46,2.8-6.26,6.26-6.26h6.31
				c3.46,0,6.26,2.8,6.26,6.26v9.65c10.37,0.41,17.91,2.19,23.9,4.29c3.07,1.08,4.74,4.38,3.89,7.52l-2.51,9.26
				c-0.97,3.57-4.78,5.53-8.24,4.22c-5.51-2.09-13.31-4.26-23.44-4.26c-12.8,0-16.46,5.3-16.46,10.06c0,5.85,7.68,9.88,24.33,15
				c23.78,7.13,33.65,17.01,33.65,34.75c0,16.28-12.07,30.91-35.48,34.57v12.03c0,3.46-2.8,6.26-6.26,6.26h-6.31
				C594.19,1432.08,591.39,1429.27,591.39,1425.81z"/>
		</g>
	</g>
</g>
<g>
	<path class="st13" d="M308.79,971.95l-0.03,5.85c0,0,1.59,18.29-20.93,20.97c-22.53,2.68-41,2.33-40.39-11.79
		c2.03-10.93,5.66-27.9,5.82-36.94c0.06-3.36-0.17-6.93-0.8-10.96l43.65-0.87l12.86,2.1L308.79,971.95z"/>
	<path class="st18" d="M308.96,940.31l-0.17,31.64c-4.64,2.16-9.87,3.47-15.73,3.47c-20.06,0-33.03-14.71-39.81-25.39
		c0.06-3.36-0.17-6.93-0.8-10.96l43.65-0.87L308.96,940.31z"/>
	<path class="st13" d="M249.1,932.05c5.06,27.26,40.24,26.36,55.44,24.65c4.28-0.48,6.97-1.02,6.97-1.02
		c4.82-1.29,7.51-8.88,8.76-18.84c2.48-19.69-0.65-48.6-3.98-55.99c-5.01-11.13-14.44-23.16-49.86-14.48
		C231.01,875.06,242.61,897.13,249.1,932.05z"/>
	<path d="M220.32,1739.07h49.84c-0.37-2.61-1.64-10.57-3.98-17.89c-0.81-2.55-1.75-5.03-2.82-7.18c-4.85-9.68-35.63-3.52-35.63-3.52
		s-2.86,2.45-5.09,11.81C221.65,1726.41,220.78,1731.88,220.32,1739.07z"/>
	<path class="st15" d="M370.93,1723.34c0.14,6.78,0.99,13.2,3.45,15.73h98.58c-1.25-3.57-4.8-8.93-14.92-10.57
		c-11.5-1.86-29.43-7.4-39.89-18.46c-3.73-3.93-6.51-8.57-7.72-13.99c-4.64-20.65-38.35,6.33-38.35,6.33
		S370.71,1713.25,370.93,1723.34z"/>
	<path class="st47" d="M305.36,1500.13c1.37,7.56,2.24,13.76,2.47,18.21c3.13,61.13,51.46,200.9,60.1,204.15
		c13.37,5.05,34.43-5.68,45.45-9.19c4.57-1.46,7.65-6.06,6.63-10.74c-23.93-110.01-32.73-268.42-35.92-362.21
		c-1.62-47.24-9.72-79.87-9.72-79.87s-117.86-31.44-118.56,8.33C255.19,1304.02,294.85,1442.06,305.36,1500.13z"/>
	<path class="st48" d="M305.36,1500.13l78.73-159.77c-1.62-47.24-9.72-79.87-9.72-79.87s-117.86-31.44-118.56,8.33
		C255.19,1304.02,294.85,1442.06,305.36,1500.13z"/>
	<path class="st47" d="M331.58,1268.96l-62.3,451.56c0,0-27.36,6.6-48.64,1.32c0,0-18.24-240.16-16.72-298.22
		c1.52-58.06-13.09-155.36,3.33-166.09C223.68,1246.79,331.58,1268.96,331.58,1268.96z"/>
	<path d="M327.16,854.91c0,0-15.59-1.2-33.98-9.19c-14.93-6.49-33.75,0.66-39.87,3.88c0.16-0.98,0.56-2.33,1.49-3.68
		c0,0-2.75,1.95-3.15,4.67c-0.28,0.21-0.41,0.35-0.34,0.4c0,0-3.11-0.57-5.11,0.33c0,0,1.4-0.2,1.9,0.7
		c0.05,0.09,0.13,0.18,0.22,0.25c-23.28,11.25-25.43,48.04-17.94,56.56c9.01,10.24,19.82,33.31,19.82,33.31s3.94-5.45,2.3-14.46
		c-1.64-9.01,6.15-9.01,15.98-13.11c9.83-4.1,1.64-15.57,10.24-22.53c8.6-6.96,40.15-2.87,39.74-8.19
		C330.2,879.55,327.16,856.1,327.16,854.91z"/>
	<path class="st49" d="M242.12,994.82l14.35,307.78c0,0,119.72,1.96,116.3-25.14c-3.42-27.09-43.15-273.22-43.15-273.22
		L242.12,994.82z"/>
	<path class="st50" d="M199.38,1169.28c7.12,21.37-6.31,93.07-11.09,117.36c-1.05,5.14-1.75,8.17-1.75,8.17
		c16.58,26.97,77.3,26.62,77.3,26.62c11.68-51.61,17.75-133.82,17.75-133.82l-46.59-204.24l-58.62,54.18c0,0,4.44,33.05,9.93,66.68
		C190.62,1130.86,195.52,1157.95,199.38,1169.28z"/>
	<path class="st50" d="M311.33,984c0,0,28,97.33,37.56,195.32c4.46,45.7,12.67,133.28,12.67,133.88c0,1.87,22.44-6.28,27.42-30.55
		c2.75-13.43-1.9-44.88-6.03-78.97c3.92,0.87,9.57-1.36,9.57-1.36s87.81-61.42,72.05-92.25c-15.48-30.39-95.41-107.99-98.24-110.74
		c-0.02-0.08-0.03-0.13-0.03-0.13S337.46,986.71,311.33,984z M380.14,1178.66c-1.94-19.47-3.1-38.59-2.06-54.59
		c0.56-8.63,0.6-17.89,0.27-27.34c0.01,0.01,0.02,0.02,0.04,0.02c0,0,0.12,0.12,0.35,0.35c18.33,11.56,35.27,21.37,35.27,25.81
		c0,0.11,0,0.35-0.12,0.47C412.18,1128.41,388.87,1165.03,380.14,1178.66z"/>
	<g>
		<path class="st51" d="M238.73,983.01c-0.15-2.94,13.77-7,13.77-7s15.92,22.08,42.16,22.46c0,0-7.47,14.55-16.29,18.32
			C278.37,1016.79,239.6,1000.45,238.73,983.01z"/>
		<path class="st51" d="M294.65,997.95c0,0,13.9-8.24,13.95-17.17c0,0,8.98-1.12,12.9,3.23c0,0,3.3,15.31-1.08,24.2
			C320.42,1008.21,300.41,1005.16,294.65,997.95z"/>
		<path class="st15" d="M285.22,996.63l18.85-4.52c0,0,2.46,0.21,2.39,3.28c-0.07,3.07-5.31,12.04-7.63,12.76
			C296.51,1008.87,280.76,1002.84,285.22,996.63z"/>
		<path class="st49" d="M240.92,981.49c-0.15-2.94,9.27-8.99,9.27-8.99s18.22,21.3,44.46,21.68c0,0-7.47,14.55-16.29,18.32
			C278.37,1012.5,241.79,998.93,240.92,981.49z"/>
		<path class="st49" d="M294.65,994.18c0,0,14.06-7.45,14.11-16.38c0,0,8.48,3.73,12.4,8.09c0,0,3.63,9.66-0.74,18.55
			C320.42,1004.44,300.41,1001.39,294.65,994.18z"/>
		<g>
			<path class="st15" d="M331.5,1206.49c-0.64,7.19-3.94,13.88-9.25,18.78l-8.35,7.69c-2.09,1.93-5.39,1.66-7.15-0.57l-10.34-13.13
				c-2.77-3.52-4.08-7.98-3.65-12.44c0.97-9.94,2.77-29.08,4.21-47.56c1.17-14.97,2.12-29.52,2.19-38.37
				c0.23-28.25-5.38-118.35-5.38-118.35l6.77,0.35c0,0,16.82,34.97,25.63,82.56c2.17,11.71,3.85,24.18,4.68,37.1
				C330.86,1122.54,334.39,1174,331.5,1206.49z"/>
			<path class="st15" d="M331.5,1206.49c-0.64,7.19-3.94,13.88-9.25,18.78l-8.35,7.69c-2.09,1.93-5.39,1.66-7.15-0.57l-10.34-13.13
				c-2.77-3.52-4.08-7.98-3.65-12.44c0.97-9.94,2.77-29.08,4.21-47.56c18.72-21.03,26.3-50.09,29.21-73.81
				c2.17,11.71,3.85,24.18,4.68,37.1C330.86,1122.54,334.39,1174,331.5,1206.49z"/>
		</g>
	</g>
	<path class="st13" d="M398.12,1207.32c0-7.85-6.9-14.14-14.66-12.97c-2.15,0.33-4.1,1.21-5.44,3.01
		c-5.34,7.11-10.42,27.78-0.96,28.74c3.85,0.39,8.79-2.31,12.6-5.2c3.87-2.94,8.45-7.54,8.45-12.4V1207.32z"/>
	<path class="st48" d="M188.28,1286.63c17.17-17.87,46.83-53.02,45.78-81.86c-1.4-40.4-47.76-100.54-47.76-100.54
		c4.32,26.62,9.22,53.72,13.08,65.04C206.5,1190.64,193.07,1262.34,188.28,1286.63z"/>
	<path class="st13" d="M188.82,1216.35c0,0,12.34,6.17,19.83,3.09c7.49-3.09,16.31-5.4,24.68,4.13c8.37,9.53,10.14,16.14,8.37,19.67
		c-1.76,3.53-21.29,2.2-24.52,0c-3.24-2.2-8.36-7.63-11.61-6.68c-8.97,2.61-16.52-4.23-20.75-9.68
		C182.27,1223.59,189.16,1221.99,188.82,1216.35z"/>
	<path class="st50" d="M234.99,983.37c0,0-49.15,5.44-60.74,26.84c-11.59,21.4-71.86,108.15-69.89,144.2
		c1.97,36.05,82.22,76.47,82.22,76.47s17.77-7.51,18.04-15.59c0.27-8.08-55.48-56.38-52.1-65.39c3.38-9.01,64.76-80.29,70.68-103.8
		C229.13,1022.61,234.99,983.37,234.99,983.37z"/>
	<path class="st48" d="M378.39,1096.76c0,0,0.12,0.12,0.35,0.35c18.33,11.56,35.27,21.37,35.27,25.81
		c2.45-7.83-21.37-40.52-29.08-47.18C377.1,1068.97,378.39,1096.76,378.39,1096.76z"/>
	<path class="st48" d="M250.19,972.5c0,0,37.31,156.28,31.37,215.15c0,0-13.72-62.91-46.73-114.44c0,0,12.05-10.6,11.39-14.5
		c0,0-8.94-2.65-17.62-0.87c0,0,0.96-67.37,6.37-74.48C240.39,976.24,250.19,972.5,250.19,972.5z"/>
	<path class="st48" d="M308.76,977.8c-0.76-0.45,36.98,152.71,40.13,201.52c0,0-3.74-87.09-3.37-112.19c0,0-15.5-8.2-15.5-11.08
		c0-2.88,16.53-10.66,16.53-10.66s-10.47-53.63-16.18-59.54C324.66,979.93,308.76,977.8,308.76,977.8z"/>
</g>
<g>
	<g>
		<g>
			<path class="st50" d="M867.92,980.13c0,0,56.83-0.48,70.51,18.7c13.68,19.18,43.67,122.37,28.02,156.71
				c-15.65,34.34-44.93-14.2-61.18-35.23C889.01,1099.27,867.92,980.13,867.92,980.13z"/>
			<path class="st13" d="M868.5,971.45l-0.03,5.88c0,0,1.6,18.37-21.02,21.06c-22.62,2.69-39.76-7.17-39.15-21.34
				c2.04-10.98,4.27-18.51,4.43-27.6c0.06-3.38-0.18-6.96-0.8-11l43.84-0.88l12.91,2.11L868.5,971.45z"/>
			<path class="st18" d="M868.67,939.68l-0.17,31.78c-4.66,2.17-9.91,3.49-15.8,3.49c-20.15,0-33.17-14.78-39.98-25.5
				c0.06-3.38-0.18-6.96-0.8-11l43.84-0.88L868.67,939.68z"/>
			<path class="st13" d="M808.56,931.39c5.09,27.37,40.41,26.48,55.67,24.75c4.3-0.48,7-1.03,7-1.03c4.84-1.29,7.55-8.92,8.8-18.92
				c2.49-19.78-0.66-48.81-4-56.23c-5.03-11.17-14.5-23.26-50.07-14.54C790.39,874.15,802.03,896.31,808.56,931.39z"/>
			<path class="st48" d="M829.84,1738.24c0,0-2.1-16.34-6.96-26.06c-4.86-9.72-35.78-3.53-35.78-3.53s-6.18,5.3-7.51,30.04
				L829.84,1738.24z"/>
			<path class="st48" d="M935.19,1738.02c-7.27-4.43-3.13-37.52-3.13-37.52s33.86-27.08,38.51-6.35
				c4.65,20.74,32.16,30.05,47.82,32.59c10.81,1.75,14.16,7.74,15.19,11.28H935.19z"/>
			<path class="st48" d="M926.04,1057.03c0,0,28.66,59.63,28.02,74.18c0,0-10.14-9.6-28.02-8.34
				C908.15,1124.13,926.04,1057.03,926.04,1057.03z"/>
			<path class="st18" d="M864.23,956.14c4.3-0.48,7-1.03,7-1.03c4.84-1.29,7.55-8.92,8.8-18.92c-9.08,2.24-13.24,9.25-14.98,12.24
				C864.27,949.79,864.11,952.8,864.23,956.14z"/>
			<path class="st13" d="M887.31,971.63c0,0,19.78-32.64,4.4-34.06c-15.38-1.42-21.56,8.99-23.78,12.81
				c-2.22,3.82,0.58,21.07,0.58,21.07L887.31,971.63z"/>
			<path class="st47" d="M865.06,1497.39c1.38,7.59,2.25,13.82,2.48,18.29c3.15,61.39,51.68,201.76,60.36,205.03
				c13.43,5.07,34.58-5.7,45.65-9.23c4.59-1.46,7.68-6.09,6.66-10.78c-24.03-110.48-32.87-269.57-36.08-363.76
				c-1.62-47.44-9.77-80.21-9.77-80.21s-118.36-31.58-119.06,8.37C814.68,1300.44,854.51,1439.08,865.06,1497.39z"/>
			<path class="st48" d="M865.06,1497.39l79.07-160.45c-1.62-47.44-9.77-80.21-9.77-80.21s-118.36-31.58-119.06,8.37
				C814.68,1300.44,854.51,1439.08,865.06,1497.39z"/>
			<path class="st47" d="M891.4,1265.23l-62.57,453.49c0,0-27.48,6.63-48.85,1.32c0,0-18.32-241.19-16.79-299.5
				c1.53-58.31-13.15-156.03,3.35-166.8C783.03,1242.98,891.4,1265.23,891.4,1265.23z"/>
			<path class="st50" d="M757.46,1240.87c0.17-1.96,0.33-3.9,0.49-5.83c0.04-0.51,0.08-1.02,0.11-1.53
				c0.12-1.52,0.24-3.04,0.35-4.54c0.03-0.44,0.06-0.88,0.1-1.32c0.28-3.84,0.54-7.64,0.77-11.39c0.03-0.42,0.05-0.83,0.08-1.26
				c0.1-1.56,0.18-3.1,0.27-4.64c0.02-0.33,0.04-0.67,0.06-1.01c0.1-1.88,0.2-3.75,0.3-5.6c0.01-0.04,0.01-0.08,0.01-0.11
				c0.09-1.77,0.18-3.52,0.26-5.26c0.02-0.41,0.04-0.82,0.06-1.22c0.07-1.5,0.14-2.99,0.2-4.47c0.01-0.31,0.03-0.61,0.04-0.91
				c0.08-1.77,0.15-3.53,0.22-5.27c0.01-0.24,0.02-0.47,0.03-0.71c0.06-1.47,0.11-2.94,0.17-4.39c0.02-0.5,0.04-1.01,0.06-1.51
				c0.04-1.24,0.09-2.48,0.14-3.71c0.01-0.47,0.03-0.94,0.05-1.41c0.05-1.5,0.1-2.99,0.15-4.47c0.05-1.14,0.08-2.26,0.12-3.38
				c0.01-0.24,0.01-0.48,0.03-0.72c0.2-5.88,0.39-11.59,0.59-17.16c0.01-0.08,0.01-0.17,0.01-0.25c0.12-3.26,0.24-6.48,0.38-9.64
				c0.01-0.19,0.02-0.38,0.03-0.57c0.05-1.3,0.11-2.59,0.17-3.87c0.01-0.34,0.02-0.67,0.04-1.01c0.06-1.36,0.13-2.72,0.2-4.07
				c0.01-0.11,0.01-0.22,0.02-0.34c0.07-1.4,0.15-2.79,0.22-4.17c0.03-0.43,0.05-0.85,0.08-1.27c0.06-0.96,0.11-1.91,0.17-2.86
				c0.03-0.5,0.06-1,0.1-1.5c0.07-1,0.13-1.98,0.2-2.97c0.05-0.6,0.09-1.2,0.14-1.8c0.06-0.84,0.12-1.68,0.19-2.52
				c0.01-0.1,0.02-0.2,0.03-0.31c0.09-1.13,0.18-2.24,0.29-3.35c0.03-0.34,0.06-0.7,0.09-1.05c0.1-1.17,0.22-2.34,0.34-3.49
				c-0.39-0.46-0.78-0.92-1.16-1.38c-27.08-32.67-41.02-74.83-30.09-90.45c17.85-25.49,74.74-35.16,74.74-35.16
				c0,9.43,20.47,21.25,36.85,20.18c2.72-0.18,5.25-0.73,7.56-1.55c5.34-13.12,9-21.83,9-21.83s6.51-13.33,29.69-5.66
				c0,0,0.7,11.79,0,29.38c-0.01,0.32-0.03,0.65-0.04,0.97c17.65,16.04,38.83,40.31,38.86,63.55c0.04,32.82,0.45,60.49,1.05,83.78
				c0.67,25.88,1.6,46.36,2.56,62.52c2.84,47.69,6,57.72,3.93,57.69c0,0-18.15,16.52-66.07,16.21c-30.13-0.18-54.66-3.54-72.89-7.32
				c-24.52-5.08-37.62-10.95-37.62-10.95C755.92,1263.93,757.03,1245.84,757.46,1240.87z"/>
			<path d="M886.95,853.91c0,0-15.66-1.2-34.13-9.23c-14.99-6.52-33.9,0.66-40.04,3.89c0.17-0.99,0.56-2.34,1.5-3.69
				c0,0-2.76,1.95-3.16,4.69c-0.28,0.21-0.41,0.35-0.34,0.4c0,0-3.12-0.57-5.13,0.33c0,0,1.4-0.2,1.91,0.7
				c0.05,0.1,0.13,0.18,0.23,0.25c-23.38,11.3-25.54,48.25-18.02,56.8c9.05,10.29,19.91,33.45,19.91,33.45s3.96-5.47,2.31-14.53
				c-1.65-9.05,6.17-9.05,16.05-13.17c9.88-4.11,1.65-15.64,10.29-22.63c8.64-7,40.32-2.88,39.91-8.23
				C890,878.66,886.95,855.11,886.95,853.91z"/>
			<path class="st48" d="M801.4,1147.96c9.28,37.26,109.63,56.51,132.44,60.43c-0.96-16.16-1.89-36.64-2.56-62.52L801.4,1147.96z"/>
			<path class="st13" d="M823.42,1160.07c-0.96,0-22.31-3.19-26.13-5.1c-3.82-1.91-21.32-26.77-9.86-33.14
				c11.45-6.37,42.2,19.12,42.2,19.12L823.42,1160.07z"/>
			<path class="st50" d="M953.29,1167.46c0,0-82.58,4.48-138-7.39c0,0-1.4-16.01,16.02-23.12c0,0,86.37-18.31,107.12-13.21
				C959.18,1128.84,953.29,1167.46,953.29,1167.46z"/>
			<path class="st48" d="M763.65,1102.65c17.14,20.66,39.54,37.53,64.24,41.49l0.01-0.01c51.37-23.19,61.77-102.81,63.51-146.56
				c0,0-24.31,88.16-57.39,118.98c-5.98,5.58-12.25,9.27-18.71,10.24c0,0-41.72-11.79-50.47-22.89
				C764.2,1103.1,763.81,1102.7,763.65,1102.65z"/>
		</g>
		<path class="st48" d="M780.69,1052.6c0,0,25.77,32.33,41.16,3.53C821.84,1056.13,805.74,1071.79,780.69,1052.6z"/>
	</g>
	<path class="st49" d="M901.15,1280.07c0,0-34.74,6.47-73.63-0.47c0,0,31.68,5.03,36.82-5.66c3.71-7.73,9.8-49.62,10.86-73.61
		C875.2,1200.33,885.46,1283.8,901.15,1280.07z"/>
	<path class="st48" d="M886.49,1048.67c-0.19,3.31,10.81,11.03,10.81,11.03c-10.6,21.37-17.49,44.41-21.84,62.93l-9.88,0.33
		c-0.35-17.98,0.41-38.52,1.64-58.39c16.19-34.11,22.43-57.62,24.53-72.88c4.56,16.3,9.32,54.65,9.32,54.65
		C893.69,1045.65,886.49,1048.67,886.49,1048.67z"/>
	<path class="st49" d="M812.17,984.76l18.56,62.71l21.99-51.79C852.71,995.68,824.01,996.92,812.17,984.76z"/>
	<g>
		<path class="st51" d="M799.08,984.97c-0.13-2.67,12.51-6.36,12.51-6.36s17.08,17.2,40.92,17.55c0,0-9.41,16.08-17.41,19.5
			C835.09,1015.66,799.87,1000.82,799.08,984.97z"/>
		<path class="st49" d="M801.07,983.59c-0.13-2.67,7.73-9.18,7.73-9.18s20.08,20.93,43.91,21.27c0,0-9.62,12.66-17.62,16.09
			C835.09,1011.77,801.86,999.44,801.07,983.59z"/>
	</g>
	<path class="st48" d="M808.74,1067.73c2-2.77,3.56-5.54,3.17-7.08c0,0-9.46-7.31-17.97-4.83c0,0-4.18-61.82,0.63-69.36
		s14.22-12.06,14.22-12.06s10.63,32.36,21.93,73.06C827.06,1054.17,819.36,1065.62,808.74,1067.73z"/>
	<path class="st50" d="M875.2,1200.33c0,0-2.54,63.28-16.14,90.75c0,0-99.81-9.79-110.42-16.86l12.81-105.93L875.2,1200.33z"/>
	<path class="st50" d="M934.7,1221.71c0.21,20.65,8.68,46.93,8.68,46.93c-8.16,7.34-41.61,19.58-41.61,19.58
		c-20.26-23.39-26.56-87.89-26.56-87.89L934.7,1221.71z"/>
</g>
</svg>
