<?xml version="1.0" encoding="utf-8"?>
<!-- Generator: Adobe Illustrator 27.2.0, SVG Export Plug-In . SVG Version: 6.00 Build 0)  -->
<svg version="1.1" id="Layer_1" xmlns="http://www.w3.org/2000/svg" xmlns:xlink="http://www.w3.org/1999/xlink" x="0px" y="0px"
	 viewBox="0 0 2880 1800" style="enable-background:new 0 0 2880 1800;" xml:space="preserve">
<style type="text/css">
	.st0{fill:#E9F1FA;stroke:#05203A;stroke-width:0.5;stroke-miterlimit:10;}
	.st1{fill:#DEE9F6;}
	.st2{fill:#ACC5E6;}
	.st3{fill:url(#SVGID_1_);}
	.st4{fill:url(#SVGID_00000168824858525423763600000000849737044227814293_);}
	.st5{fill:url(#SVGID_00000147189471985478452850000007310201874170883258_);}
	.st6{fill:url(#SVGID_00000138535802345011809470000011071285961461692597_);}
	.st7{fill:url(#SVGID_00000094582459777562773170000000727944637981395609_);}
	.st8{fill:url(#SVGID_00000162318792762136856550000007647628837103362468_);}
	.st9{fill:url(#SVGID_00000062178917681658605690000014895844462397125036_);}
	.st10{fill:url(#SVGID_00000118371260918136016420000015381249413797291434_);}
	.st11{opacity:0.7;fill:#FFFFFF;}
	.st12{opacity:0.78;fill:#FFFFFF;}
	.st13{fill:url(#SVGID_00000023974785596468278560000012635800611999644301_);}
	.st14{fill:url(#SVGID_00000109725032797396341280000006226975296707435672_);}
	.st15{fill:url(#SVGID_00000035492726392314280150000011695622154348966064_);}
	.st16{fill:url(#SVGID_00000064313384810298971600000015992052216415178381_);}
	.st17{fill:url(#SVGID_00000137132971271104363530000018241123255017566906_);}
	.st18{fill:url(#SVGID_00000078750287967485689020000015628324856871800744_);}
	.st19{fill:url(#SVGID_00000002375475350452565530000000140480240939258002_);}
	.st20{fill:url(#SVGID_00000089568171982952707090000009928769949613526966_);}
	.st21{fill:url(#SVGID_00000004512185759448677210000014451404045100962220_);}
	.st22{fill:#F58B69;}
	.st23{fill:#FFFFFF;}
	.st24{fill:#F3F3F3;}
	.st25{fill:#C4DA6A;}
	.st26{fill:#7D884E;}
	.st27{fill:#9AB13B;}
	.st28{fill:#7DA8D9;}
	.st29{fill:#385988;}
	.st30{fill:#4772AF;}
	.st31{fill:#5985C4;}
	.st32{fill:#E5F1FA;}
	.st33{fill:#C1D2EC;}
	.st34{fill:url(#SVGID_00000015355231083933737740000004467536721284502191_);}
	.st35{fill:url(#SVGID_00000138547927179546732200000003850911220772251796_);}
	.st36{fill:url(#SVGID_00000157990141751762499260000014007590058461971354_);}
	.st37{fill:#D3D3D3;}
	.st38{fill:url(#SVGID_00000163057938186963228510000012723555179277639850_);}
	.st39{fill:url(#SVGID_00000154410355052010544470000013109245305663343007_);}
	.st40{fill:url(#SVGID_00000104707891867567469610000014626733567348422789_);}
	.st41{fill:#C4C8CE;}
	.st42{fill:#CFDCF0;}
	.st43{fill:#72C06F;}
	.st44{fill:#A2CE67;}
	.st45{fill:#65B746;}
	.st46{fill:#66BB46;}
	.st47{fill:#99CC6C;}
	.st48{fill:#5881C1;}
	.st49{fill:url(#SVGID_00000004506485160812833990000001206240752250402723_);}
	.st50{fill:url(#SVGID_00000106867928935612471490000014019586155216255113_);}
	.st51{fill:url(#SVGID_00000165915077838219971570000017229218309834407584_);}
	.st52{fill:url(#SVGID_00000029753402296610457120000014542169561371900053_);}
	.st53{fill:url(#SVGID_00000116226955730193906000000018396646612921003965_);}
	.st54{fill:url(#SVGID_00000145744945985407967050000004924540193550927503_);}
	.st55{fill:#DCD0C7;}
	.st56{fill:#6D6865;}
	.st57{fill:#C5BAB4;}
	.st58{fill:#938B86;}
	.st59{fill:#A88D75;}
	.st60{fill:#23417A;}
	.st61{fill:#464972;}
	.st62{fill:#2E3048;}
	.st63{fill:#C58C6A;}
	.st64{fill:#3E4149;}
	.st65{fill:#363957;}
	.st66{fill:#8B8480;}
	.st67{fill:#5D5955;}
	.st68{fill:#B8AEA9;}
	.st69{fill:#77787B;}
	.st70{fill:#F3F4FA;}
	.st71{fill:#8B8380;}
	.st72{fill:#545456;}
	.st73{fill:#DDDEE6;}
</style>
<path class="st0" d="M2445.63,1523.94c0,0-2072.87,0.39-2072.98,0.3c-27.04-25.43-46.58-58.99-55.44-100.44
	c-22.3-104.25,27.23-238.64,125.3-345.72c90.16-98.45,164.05-131.76,140.6-303.22c-9.26-67.79-38.64-137.49-8.9-242.05
	c46.89-164.83,206.67-262.27,249.07-284.05c165.65-85.12,428.75-69.88,591.68,4.52c0.03,0.02,0.05,0.03,0.09,0.04
	c162.91,74.43,234.23,201.53,293.98,279.48c26.87,35.15,54.16,64.22,88.43,66.98c50.04,4.02,121.42-29.37,208.19-39.23
	c64.76-7.36,137.98-1.58,216.95,42.81c130.88,72.62,272.81,242.9,295.48,477.55C2533.09,1234.97,2500.68,1383.79,2445.63,1523.94z"
	/>
<g>
	<path class="st1" d="M380.5,381.43c23.18-85.6,167.62-58.85,167.62-58.85s98.08,149.79,126.61,153.36
		c28.53,3.57-58.85-144.44-58.85-144.44c55.28-5.35,196.16,62.41,196.16,62.41s-8.92,174.76,19.62,171.19
		c28.53-3.57,0-155.14,0-155.14c53.5,16.05,103.43,78.46,103.43,78.46c62.41,101.64-71.33,176.54-71.33,176.54
		s-1.78,60.63,35.66,130.18l0,0c0,0,8.45,12.84,17.04,34.67h-14.59c-1.19-3.91-2.5-7.69-3.96-11.32c0-0.03-0.01-0.05-0.03-0.07
		c-0.02-0.05-0.04-0.1-0.06-0.16c-1-2.25-2.44-5.46-4.22-9.37c0,0,0-0.01-0.01-0.02c0-0.01-0.01-0.01-0.01-0.02
		c-4.45-8.72-7.47-15.17-9.37-19.82c-0.01-0.02-0.01-0.03-0.02-0.04c-13.35-27.38-32.58-63.06-45.41-70.54c0,0,1.61-2.27,3.12-6.69
		c-1,2.13-2.03,4.36-3.12,6.69c-24.96,53.5-149.79,62.41-219.34,48.15c-69.55-14.27-39.23-33.88-1.78-65.72
		c37.45-31.84,115.91-23.44,139.09-35.93c23.18-12.48-10.7-24.97-57.06-21.4c-46.36,3.57-69.55,49.93-144.44,57.06
		c-74.9,7.13-131.96-133.74-131.96-133.74c51.71,16.05,144.44-12.48,148.01-30.31c3.57-17.83-133.74-16.05-155.14-21.4
		C394.76,509.82,357.32,467.02,380.5,381.43z"/>
	<path class="st2" d="M456.12,868.23c12.42-45.86,89.8-31.53,89.8-31.53s52.54,80.25,67.83,82.16
		c15.29,1.91-31.53-77.38-31.53-77.38c29.62-2.87,105.09,33.44,105.09,33.44s-4.78,93.62,10.51,91.71c15.29-1.91,0-83.11,0-83.11
		c28.66,8.6,55.41,42.04,55.41,42.04c33.44,54.46-38.21,94.58-38.21,94.58s-0.96,32.48,19.11,69.74l0,0c0,0,4.53,6.88,9.13,18.57
		h-7.81c-0.64-2.1-1.34-4.12-2.12-6.07c0-0.02,0-0.03-0.01-0.04c-0.01-0.03-0.02-0.06-0.03-0.08c-0.53-1.21-1.3-2.92-2.26-5.02
		c0,0,0-0.01,0-0.01c0-0.01,0-0.01,0-0.01c-2.39-4.67-4-8.12-5.02-10.62c0-0.01-0.01-0.02-0.01-0.02
		c-7.15-14.67-17.46-33.78-24.33-37.79c0,0,0.87-1.22,1.67-3.58c-0.53,1.14-1.09,2.33-1.67,3.58
		c-13.37,28.66-80.25,33.44-117.51,25.79c-37.26-7.64-21.02-18.15-0.96-35.21c20.06-17.06,62.1-12.56,74.52-19.25
		c12.42-6.69-5.73-13.37-30.57-11.46c-24.84,1.91-37.26,26.75-77.38,30.57c-40.12,3.82-70.7-71.65-70.7-71.65
		c27.71,8.6,77.38-6.69,79.29-16.24c1.91-9.55-71.65-8.6-83.11-11.46C463.77,937.02,443.7,914.09,456.12,868.23z"/>
	<path class="st1" d="M880.69,73.13c40.15-45.67,120.96,14.46,120.96,14.46s15.08,121.84,31.56,132.66
		c16.48,10.82,7.45-106.69,7.45-106.69c35.64,13.42,101.86,97.72,101.86,97.72s-58.32,104.86-39.68,111.29
		c18.64,6.43,46.9-95.48,46.9-95.48c28.07,26.05,39.93,79.56,39.93,79.56c7.68,81.43-97.27,87.09-97.27,87.09
		s-19.43,36.78-17.41,90.9l0,0c0,0,1.32,10.46,0.01,26.49l-8.98-4.41c0.45-2.77,0.78-5.49,0.99-8.16c0.01-0.02,0.01-0.03,0-0.05
		c0-0.04,0-0.08,0.01-0.12c0.07-1.69,0.15-4.1,0.23-7.04c0,0,0-0.01,0-0.01c0-0.01,0-0.01,0-0.01c-0.11-6.72-0.01-11.59,0.23-15.03
		c0-0.01,0-0.02,0-0.03c0.06-20.89-0.99-48.66-6.62-57.14c0,0,1.68-0.91,3.94-3.17c-1.26,1.01-2.57,2.07-3.94,3.17
		c-31.54,25.38-111.06-6.87-149.55-36.68c-38.49-29.81-13.9-32.71,18.77-40.99c32.67-8.27,78.43,20.61,96.47,19.94
		c18.04-0.67,0.96-18.6-28.65-30.42c-29.61-11.82-57.9,9.7-106.15-8.55c-48.25-18.25-40.78-122.21-40.78-122.21
		c26.98,25.51,92.67,35.99,100.26,26.09c7.59-9.9-77.46-50.31-89.01-60.07S840.55,118.8,880.69,73.13z"/>
</g>
<g>
	<linearGradient id="SVGID_1_" gradientUnits="userSpaceOnUse" x1="405.3179" y1="1026.8176" x2="349.786" y2="1792.3654">
		<stop  offset="0" style="stop-color:#F3B62E"/>
		<stop  offset="1" style="stop-color:#F1B01C"/>
	</linearGradient>
	<path class="st3" d="M465.25,1542.96h-192c-2.01,0-3.63-1.63-3.63-3.63v-30.69c0-2.01,1.63-3.63,3.63-3.63h192
		c2.01,0,3.63,1.63,3.63,3.63v30.69C468.89,1541.34,467.26,1542.96,465.25,1542.96z"/>
	
		<linearGradient id="SVGID_00000065757551101599131560000017210498378339780763_" gradientUnits="userSpaceOnUse" x1="408.5109" y1="1027.0521" x2="352.979" y2="1792.6002">
		<stop  offset="0" style="stop-color:#F3B62E"/>
		<stop  offset="1" style="stop-color:#F1B01C"/>
	</linearGradient>
	<path style="fill:url(#SVGID_00000065757551101599131560000017210498378339780763_);" d="M465.41,1585.06H273.41
		c-2.01,0-3.63-1.63-3.63-3.63v-30.69c0-2.01,1.63-3.63,3.63-3.63h192c2.01,0,3.63,1.63,3.63,3.63v30.69
		C469.04,1583.43,467.41,1585.06,465.41,1585.06z"/>
	
		<linearGradient id="SVGID_00000005965729627937967850000008338565706955566521_" gradientUnits="userSpaceOnUse" x1="411.7039" y1="1027.2888" x2="356.172" y2="1792.8365">
		<stop  offset="0" style="stop-color:#F3B62E"/>
		<stop  offset="1" style="stop-color:#F1B01C"/>
	</linearGradient>
	<path style="fill:url(#SVGID_00000005965729627937967850000008338565706955566521_);" d="M465.56,1627.16H273.57
		c-2.01,0-3.63-1.63-3.63-3.63v-30.69c0-2.01,1.63-3.63,3.63-3.63h192c2.01,0,3.63,1.63,3.63,3.63v30.69
		C469.2,1625.53,467.57,1627.16,465.56,1627.16z"/>
	
		<linearGradient id="SVGID_00000155130757646148856440000006185332102641025194_" gradientUnits="userSpaceOnUse" x1="414.8969" y1="1027.5237" x2="359.365" y2="1793.0714">
		<stop  offset="0" style="stop-color:#F3B62E"/>
		<stop  offset="1" style="stop-color:#F1B01C"/>
	</linearGradient>
	<path style="fill:url(#SVGID_00000155130757646148856440000006185332102641025194_);" d="M465.72,1669.25h-192
		c-2.01,0-3.63-1.63-3.63-3.63v-30.69c0-2.01,1.63-3.63,3.63-3.63h192c2.01,0,3.63,1.63,3.63,3.63v30.69
		C469.35,1667.62,467.73,1669.25,465.72,1669.25z"/>
	
		<linearGradient id="SVGID_00000010309899123488157180000001781804605097043892_" gradientUnits="userSpaceOnUse" x1="418.0899" y1="1027.7582" x2="362.5579" y2="1793.3063">
		<stop  offset="0" style="stop-color:#F3B62E"/>
		<stop  offset="1" style="stop-color:#F1B01C"/>
	</linearGradient>
	<path style="fill:url(#SVGID_00000010309899123488157180000001781804605097043892_);" d="M465.88,1711.35H273.88
		c-2.01,0-3.63-1.63-3.63-3.63v-30.69c0-2.01,1.63-3.63,3.63-3.63h192c2.01,0,3.63,1.63,3.63,3.63v30.69
		C469.51,1709.72,467.88,1711.35,465.88,1711.35z"/>
	
		<linearGradient id="SVGID_00000025418443167329240820000016967424348206146725_" gradientUnits="userSpaceOnUse" x1="421.0953" y1="1027.978" x2="365.5634" y2="1793.5258">
		<stop  offset="0" style="stop-color:#F3B62E"/>
		<stop  offset="1" style="stop-color:#F1B01C"/>
	</linearGradient>
	<path style="fill:url(#SVGID_00000025418443167329240820000016967424348206146725_);" d="M465.88,1753H273.88
		c-2.01,0-3.63-1.63-3.63-3.63v-30.69c0-2.01,1.63-3.63,3.63-3.63h192c2.01,0,3.63,1.63,3.63,3.63v30.69
		C469.51,1751.37,467.88,1753,465.88,1753z"/>
	<g>
		
			<linearGradient id="SVGID_00000009572718737448231330000004287201354390067611_" gradientUnits="userSpaceOnUse" x1="226.0495" y1="1550.1207" x2="362.4523" y2="1391.7961">
			<stop  offset="0" style="stop-color:#F3B62E"/>
			<stop  offset="1" style="stop-color:#F1B01C"/>
		</linearGradient>
		<circle style="fill:url(#SVGID_00000009572718737448231330000004287201354390067611_);" cx="365.21" cy="1388.6" r="101.69"/>
		
			<linearGradient id="SVGID_00000119814127429034333790000003685267556333544079_" gradientUnits="userSpaceOnUse" x1="355.6031" y1="1167.6979" x2="375.4378" y2="1623.8881">
			<stop  offset="0" style="stop-color:#F3B62E"/>
			<stop  offset="1" style="stop-color:#F1B01C"/>
		</linearGradient>
		<circle style="fill:url(#SVGID_00000119814127429034333790000003685267556333544079_);" cx="365.21" cy="1388.6" r="98.31"/>
		<path class="st11" d="M284.14,1350.01c-0.34,0-0.69-0.08-1.01-0.24c-1.11-0.56-1.56-1.92-1-3.03
			c15.93-31.55,47.76-51.15,83.08-51.15c5.64,0,11.28,0.51,16.78,1.51c1.23,0.22,2.04,1.4,1.81,2.62c-0.22,1.23-1.4,2.04-2.62,1.81
			c-5.23-0.95-10.6-1.44-15.97-1.44c-33.61,0-63.9,18.65-79.05,48.67C285.76,1349.56,284.96,1350.01,284.14,1350.01z"/>
		
			<ellipse transform="matrix(0.9906 -0.137 0.137 0.9906 -187.0954 63.4517)" class="st12" cx="367.35" cy="1390.74" rx="83.21" ry="83.21"/>
		<g>
			
				<linearGradient id="SVGID_00000131361950470143688820000013296959679907887745_" gradientUnits="userSpaceOnUse" x1="391.234" y1="1207.0608" x2="374.8715" y2="1337.9613">
				<stop  offset="0" style="stop-color:#F3B62E"/>
				<stop  offset="1" style="stop-color:#F1B01C"/>
			</linearGradient>
			<path style="fill:url(#SVGID_00000131361950470143688820000013296959679907887745_);" d="M359.18,1452.6v-9.05
				c-9.44-0.38-18.77-2.61-25.4-5.51c-2.37-1.04-3.57-3.69-2.89-6.19l2.3-8.43c0.84-3.09,4.21-4.69,7.17-3.45
				c6.58,2.76,14.7,4.94,23.45,4.94c9.09,0,15.87-3.08,15.87-9.4c0-5.7-5.24-9.09-17.87-12.48c-18.03-4.93-30.97-12.79-30.97-28.66
				c0-14.33,10.48-25.27,28.66-28.19v-9.05c0-2.91,2.36-5.27,5.27-5.27h5.32c2.91,0,5.27,2.36,5.27,5.27v8.13
				c8.73,0.35,15.09,1.84,20.13,3.62c2.58,0.91,4,3.69,3.28,6.34l-2.11,7.8c-0.82,3.01-4.03,4.65-6.94,3.55
				c-4.64-1.76-11.21-3.59-19.75-3.59c-10.78,0-13.87,4.47-13.87,8.47c0,4.93,6.47,8.32,20.49,12.63
				c20.03,6.01,28.35,14.33,28.35,29.27c0,13.71-10.17,26.04-29.89,29.12v10.13c0,2.91-2.36,5.27-5.27,5.27h-5.32
				C361.55,1457.87,359.18,1455.51,359.18,1452.6z"/>
		</g>
	</g>
</g>
<g>
	
		<linearGradient id="SVGID_00000145026885998180620470000002675929064025051530_" gradientUnits="userSpaceOnUse" x1="634.6605" y1="1215.5378" x2="559.2972" y2="1850.1721">
		<stop  offset="0" style="stop-color:#F3B62E"/>
		<stop  offset="1" style="stop-color:#F1B01C"/>
	</linearGradient>
	<path style="fill:url(#SVGID_00000145026885998180620470000002675929064025051530_);" d="M689.03,1585.06H497.04
		c-2.01,0-3.63-1.63-3.63-3.63v-30.69c0-2.01,1.63-3.63,3.63-3.63h191.99c2.01,0,3.63,1.63,3.63,3.63v30.69
		C692.66,1583.43,691.04,1585.06,689.03,1585.06z"/>
	
		<linearGradient id="SVGID_00000166641734142193600630000002774690399518116531_" gradientUnits="userSpaceOnUse" x1="639.7437" y1="1216.1462" x2="564.3805" y2="1850.7803">
		<stop  offset="0" style="stop-color:#F3B62E"/>
		<stop  offset="1" style="stop-color:#F1B01C"/>
	</linearGradient>
	<path style="fill:url(#SVGID_00000166641734142193600630000002774690399518116531_);" d="M689.19,1627.16h-192
		c-2.01,0-3.63-1.63-3.63-3.63v-30.69c0-2.01,1.63-3.63,3.63-3.63h192c2.01,0,3.63,1.63,3.63,3.63v30.69
		C692.82,1625.53,691.19,1627.16,689.19,1627.16z"/>
	
		<linearGradient id="SVGID_00000152976293397604521480000017979882029519762085_" gradientUnits="userSpaceOnUse" x1="644.8269" y1="1216.7544" x2="569.4636" y2="1851.3884">
		<stop  offset="0" style="stop-color:#F3B62E"/>
		<stop  offset="1" style="stop-color:#F1B01C"/>
	</linearGradient>
	<path style="fill:url(#SVGID_00000152976293397604521480000017979882029519762085_);" d="M689.34,1669.25h-192
		c-2.01,0-3.63-1.63-3.63-3.63v-30.69c0-2.01,1.63-3.63,3.63-3.63h192c2.01,0,3.63,1.63,3.63,3.63v30.69
		C692.98,1667.62,691.35,1669.25,689.34,1669.25z"/>
	
		<linearGradient id="SVGID_00000036249267800063809110000012016794230082059669_" gradientUnits="userSpaceOnUse" x1="649.9101" y1="1217.3618" x2="574.5468" y2="1851.9961">
		<stop  offset="0" style="stop-color:#F3B62E"/>
		<stop  offset="1" style="stop-color:#F1B01C"/>
	</linearGradient>
	<path style="fill:url(#SVGID_00000036249267800063809110000012016794230082059669_);" d="M689.5,1711.35H497.51
		c-2.01,0-3.63-1.63-3.63-3.63v-30.69c0-2.01,1.63-3.63,3.63-3.63H689.5c2.01,0,3.63,1.63,3.63,3.63v30.69
		C693.13,1709.72,691.51,1711.35,689.5,1711.35z"/>
	
		<linearGradient id="SVGID_00000144316958579720663820000006553080070282907573_" gradientUnits="userSpaceOnUse" x1="654.7869" y1="1217.9462" x2="579.4237" y2="1852.5801">
		<stop  offset="0" style="stop-color:#F3B62E"/>
		<stop  offset="1" style="stop-color:#F1B01C"/>
	</linearGradient>
	<path style="fill:url(#SVGID_00000144316958579720663820000006553080070282907573_);" d="M689.5,1753H497.51
		c-2.01,0-3.63-1.63-3.63-3.63v-30.69c0-2.01,1.63-3.63,3.63-3.63h192c2.01,0,3.63,1.63,3.63,3.63v30.69
		C693.13,1751.37,691.51,1753,689.5,1753z"/>
	<g>
		
			<linearGradient id="SVGID_00000110448648778512367270000005244183715085803181_" gradientUnits="userSpaceOnUse" x1="446.4701" y1="1593.2145" x2="582.8729" y2="1434.89">
			<stop  offset="0" style="stop-color:#F3B62E"/>
			<stop  offset="1" style="stop-color:#F1B01C"/>
		</linearGradient>
		<circle style="fill:url(#SVGID_00000110448648778512367270000005244183715085803181_);" cx="585.63" cy="1431.69" r="101.69"/>
		
			<linearGradient id="SVGID_00000047778920898503390830000001930591343952220849_" gradientUnits="userSpaceOnUse" x1="602.9467" y1="1131.5095" x2="579.1451" y2="1544.0657">
			<stop  offset="0" style="stop-color:#F3B62E"/>
			<stop  offset="1" style="stop-color:#F1B01C"/>
		</linearGradient>
		<circle style="fill:url(#SVGID_00000047778920898503390830000001930591343952220849_);" cx="585.63" cy="1431.69" r="98.31"/>
		<path class="st11" d="M504.56,1393.11c-0.34,0-0.69-0.08-1.01-0.24c-1.11-0.56-1.56-1.92-1-3.03
			c15.93-31.55,47.76-51.15,83.08-51.15c5.64,0,11.28,0.51,16.78,1.51c1.23,0.22,2.04,1.4,1.81,2.62c-0.22,1.23-1.4,2.04-2.62,1.81
			c-5.23-0.95-10.6-1.44-15.97-1.44c-33.61,0-63.9,18.65-79.05,48.67C506.18,1392.66,505.38,1393.11,504.56,1393.11z"/>
		
			<ellipse transform="matrix(0.991 -0.1342 0.1342 0.991 -187.0733 91.8313)" class="st12" cx="587.77" cy="1433.83" rx="83.21" ry="83.21"/>
		<g>
			
				<linearGradient id="SVGID_00000053510636976805144360000012187333134014711460_" gradientUnits="userSpaceOnUse" x1="707.401" y1="1176.2083" x2="652.3632" y2="1296.696">
				<stop  offset="0" style="stop-color:#F3B62E"/>
				<stop  offset="1" style="stop-color:#F1B01C"/>
			</linearGradient>
			<path style="fill:url(#SVGID_00000053510636976805144360000012187333134014711460_);" d="M579.6,1495.69v-9.05
				c-9.44-0.38-18.77-2.61-25.4-5.51c-2.37-1.04-3.57-3.69-2.89-6.19l2.3-8.43c0.84-3.09,4.21-4.69,7.16-3.45
				c6.58,2.76,14.7,4.94,23.45,4.94c9.09,0,15.87-3.08,15.87-9.4c0-5.7-5.24-9.09-17.87-12.48c-18.03-4.93-30.97-12.79-30.97-28.66
				c0-14.33,10.48-25.27,28.66-28.19v-9.05c0-2.91,2.36-5.27,5.27-5.27h5.32c2.91,0,5.27,2.36,5.27,5.27v8.13
				c8.73,0.35,15.09,1.84,20.13,3.62c2.58,0.91,4,3.69,3.28,6.34l-2.11,7.8c-0.82,3.01-4.03,4.65-6.94,3.55
				c-4.64-1.76-11.21-3.58-19.75-3.58c-10.78,0-13.87,4.47-13.87,8.47c0,4.93,6.47,8.32,20.49,12.63
				c20.03,6.01,28.35,14.33,28.35,29.27c0,13.71-10.17,26.04-29.89,29.12v10.13c0,2.91-2.36,5.27-5.27,5.27h-5.32
				C581.97,1500.97,579.6,1498.61,579.6,1495.69z"/>
		</g>
	</g>
</g>
<g>
	<g>
		<g>
			<path class="st22" d="M1889.99,848.51c0-13.28,9.61-25.01,24.28-25.01c13.18,0,23.86,10.77,23.86,24.05s-10.68,24.05-23.86,24.05
				S1889.99,861.79,1889.99,848.51z"/>
		</g>
		<g>
			<g>
				<g>
					<path class="st23" d="M1927.68,861.08h-26.32c-0.62,0-1.13-0.51-1.13-1.14v-4.88c0-0.63,0.51-1.14,1.13-1.14l0,0
						c0.62,0,1.13,0.51,1.13,1.14v2.6c0,0.63,0.51,1.14,1.13,1.14h21.81c0.62,0,1.13-0.51,1.13-1.14v-2.6
						c0-0.63,0.51-1.14,1.13-1.14h0c0.62,0,1.13,0.51,1.13,1.14v4.88C1928.81,860.57,1928.3,861.08,1927.68,861.08z"/>
				</g>
			</g>
			<g>
				<g>
					<path class="st23" d="M1918.06,845v-13.82c0-0.53-0.42-0.95-0.94-0.95h-4.75c-0.52,0-0.94,0.43-0.94,0.95V845
						c0,0.53-0.42,0.95-0.94,0.95h-2.39c-0.83,0-1.26,1.01-0.68,1.61l6.61,6.88c0.38,0.39,1,0.39,1.37-0.02l6.31-6.88
						c0.56-0.61,0.13-1.6-0.69-1.6H1919C1918.48,845.95,1918.06,845.52,1918.06,845z"/>
				</g>
			</g>
		</g>
	</g>
</g>
<g>
	<path class="st24" d="M1962.78,1324.14h-417.96c-13.93,0-25.22-11.29-25.22-25.22V805.34c0-13.93,11.29-25.22,25.22-25.22h417.96
		c13.93,0,25.22,11.29,25.22,25.22v493.58C1988,1312.85,1976.71,1324.14,1962.78,1324.14z"/>
</g>
<g>
	<g>
		<g>
			<path class="st25" d="M1803.94,1005.76c-17.91-50.11-65.81-80.89-116.28-79.37c-12.22,0.37-24.59,2.63-36.73,6.97
				c-36.76,13.15-63.13,42.44-73.96,77.03c-7.51,23.98-7.55,50.51,1.56,75.99c0.9,2.53,1.89,5.03,2.95,7.46
				c4.79,11.04,11.08,21.02,18.56,29.8c31.32,36.83,83.3,52.39,131.52,35.15C1793.8,1136.52,1826.21,1068.01,1803.94,1005.76z
				 M1721.46,1130.58c-36.15,12.93-75.12,1.26-98.61-26.35c-5.6-6.58-10.32-14.06-13.91-22.34c-0.79-1.83-1.54-3.69-2.21-5.6
				c-6.83-19.1-6.79-38.99-1.17-56.97c8.11-25.94,27.88-47.9,55.45-57.76c9.1-3.26,18.37-4.95,27.54-5.23
				c37.84-1.14,73.75,21.94,87.19,59.51C1792.43,1062.52,1768.13,1113.89,1721.46,1130.58z"/>
		</g>
	</g>
	<g>
		<g>
			<path class="st26" d="M1605.57,1019.32l-28.6-8.93c10.83-34.6,37.19-63.88,73.96-77.03c12.14-4.34,24.51-6.6,36.73-6.97
				l0.89,29.95c-9.16,0.28-18.44,1.97-27.54,5.23C1633.45,971.42,1613.68,993.38,1605.57,1019.32z"/>
		</g>
	</g>
	<g>
		<g>
			<path class="st27" d="M1608.95,1081.89l-27.47,11.96c-1.06-2.43-2.05-4.93-2.95-7.46c-9.12-25.48-9.07-52.01-1.56-75.99
				l28.6,8.93c-5.63,17.97-5.67,37.86,1.17,56.97C1607.41,1078.19,1608.15,1080.06,1608.95,1081.89z"/>
		</g>
	</g>
	<g>
		<g>
			<path class="st25" d="M1600.03,1123.64c-7.47-8.78-13.76-18.76-18.56-29.8l27.47-11.96c3.59,8.28,8.31,15.77,13.91,22.34
				L1600.03,1123.64z"/>
		</g>
	</g>
</g>
<g>
	<g>
		<g>
			<path class="st28" d="M1907.74,1078.88c-19.9-9.42-42.91-4.41-57.24,10.8c-3.47,3.68-6.42,7.96-8.71,12.78
				c-6.91,14.6-6.05,30.88,0.9,44.16c4.82,9.21,12.57,16.98,22.69,21.77c1,0.48,2.02,0.92,3.04,1.32c4.63,1.83,9.38,2.91,14.14,3.29
				c19.94,1.61,39.69-9.04,48.75-28.19C1943.01,1120.1,1932.46,1090.58,1907.74,1078.88z M1920.11,1139.52
				c-6.79,14.36-21.61,22.34-36.55,21.13c-3.57-0.29-7.13-1.09-10.61-2.47c-0.76-0.3-1.53-0.63-2.29-0.99
				c-7.59-3.59-13.39-9.42-17-16.32c-5.22-9.96-5.86-22.17-0.68-33.11c1.71-3.61,3.93-6.83,6.52-9.58
				c10.74-11.4,27.99-15.16,42.92-8.1C1920.97,1098.85,1928.89,1120.98,1920.11,1139.52z"/>
		</g>
	</g>
	<g>
		<g>
			<path class="st29" d="M1853.68,1140.88l-10.98,5.75c-6.95-13.29-7.81-29.56-0.9-44.16c2.29-4.82,5.25-9.1,8.71-12.78l9.02,8.5
				c-2.59,2.76-4.81,5.97-6.52,9.58C1847.82,1118.71,1848.46,1130.91,1853.68,1140.88z"/>
		</g>
	</g>
	<g>
		<g>
			<path class="st30" d="M1872.96,1158.19l-4.54,11.53c-1.02-0.41-2.04-0.84-3.04-1.32c-10.12-4.79-17.87-12.56-22.69-21.77
				l10.98-5.75c3.61,6.9,9.42,12.73,17,16.32C1871.43,1157.55,1872.2,1157.88,1872.96,1158.19z"/>
		</g>
	</g>
</g>
<g>
	<g>
		<g>
			<path class="st28" d="M1931.32,994.03c9.41-19.9,4.41-42.91-10.8-57.23c-3.68-3.47-7.96-6.42-12.78-8.7
				c-14.6-6.91-30.89-6.05-44.18,0.9c-9.21,4.82-16.98,12.56-21.77,22.68c-0.46,1.01-0.91,2.03-1.31,3.05
				c-1.83,4.63-2.91,9.39-3.29,14.14c-1.61,19.93,9.05,39.68,28.19,48.74C1890.11,1029.31,1919.62,1018.75,1931.32,994.03z
				 M1870.68,1006.41c-14.36-6.79-22.34-21.6-21.13-36.55c0.29-3.56,1.1-7.13,2.47-10.61c0.31-0.76,0.64-1.53,0.99-2.28
				c3.59-7.59,9.42-13.4,16.33-17.01c9.96-5.21,22.16-5.85,33.11-0.67c3.61,1.71,6.82,3.93,9.59,6.53
				c11.4,10.73,15.15,27.99,8.09,42.91C1911.35,1007.27,1889.21,1015.18,1870.68,1006.41z"/>
		</g>
	</g>
	<g>
		<g>
			<path class="st28" d="M1869.33,939.97l-5.76-10.98c13.29-6.95,29.57-7.81,44.18-0.9c4.82,2.28,9.1,5.24,12.78,8.7l-8.5,9.02
				c-2.77-2.6-5.98-4.82-9.59-6.53C1891.49,934.12,1879.29,934.76,1869.33,939.97z"/>
		</g>
	</g>
	<g>
		<g>
			<path class="st30" d="M1852.01,959.26l-11.53-4.54c0.4-1.02,0.85-2.04,1.31-3.05c4.79-10.12,12.56-17.86,21.77-22.68l5.76,10.98
				c-6.91,3.61-12.74,9.42-16.33,17.01C1852.65,957.73,1852.32,958.5,1852.01,959.26z"/>
		</g>
	</g>
	<g>
		<g>
			<path class="st31" d="M1837.19,968.87c0.38-4.76,1.46-9.51,3.29-14.14l11.53,4.54c-1.37,3.47-2.18,7.05-2.47,10.61
				L1837.19,968.87z"/>
		</g>
	</g>
</g>
<g>
	<polygon class="st32" points="1871.34,1205.64 1778.89,1205.64 1778.89,1203.8 1869.51,1203.8 1869.51,1168.87 1871.34,1168.87 	
		"/>
</g>
<g>
	<polygon class="st32" points="1697.22,1205.64 1576.97,1205.64 1576.97,1203.8 1695.38,1203.8 1695.38,1146.63 1697.22,1146.63 	
		"/>
</g>
<g>
	<rect x="1576.97" y="1184.68" class="st28" width="82.75" height="11.03"/>
</g>
<g>
	<rect x="1778.89" y="1184.68" class="st28" width="48.67" height="11.03"/>
</g>
<g>
	<rect x="1558.22" y="826.81" class="st28" width="39.6" height="8.47"/>
</g>
<g>
	<rect x="1723.32" y="858.68" class="st28" width="61.45" height="8.46"/>
</g>
<g>
	<rect x="1643.87" y="858.68" class="st28" width="37.51" height="8.46"/>
</g>
<g>
	<rect x="1558.22" y="858.68" class="st28" width="74.31" height="8.46"/>
</g>
<g>
	<rect x="1609.88" y="826.81" class="st28" width="58.68" height="8.47"/>
</g>
<g>
	<rect x="1693.12" y="858.68" class="st28" width="16.12" height="8.46"/>
</g>
<g>
	<rect x="1740.92" y="827.28" class="st28" width="43.84" height="8.46"/>
</g>
<g>
	<rect x="1800.39" y="858.68" class="st28" width="37.38" height="8.46"/>
</g>
<g>
	<rect x="1682.98" y="827.28" class="st28" width="46.47" height="8.46"/>
</g>
<path class="st24" d="M2103.53,755.94H995.41c-25.8,0-46.72-20.92-46.72-46.72V356.55c0-25.8,20.92-46.72,46.72-46.72h1108.12
	c25.8,0,46.72,20.92,46.72,46.72v352.67C2150.24,735.03,2129.33,755.94,2103.53,755.94z"/>
<rect x="1900.93" y="437.89" class="st33" width="146.84" height="14.73"/>
<rect x="1900.93" y="483.5" class="st33" width="168.78" height="14.73"/>
<rect x="1900.67" y="528.86" class="st33" width="87.32" height="14.73"/>
<rect x="1900.67" y="574.21" class="st33" width="134.54" height="14.73"/>
<rect x="1011.61" y="1277.44" class="st23" width="450.5" height="15.07"/>
<linearGradient id="SVGID_00000096032780810555483220000005193879258055532222_" gradientUnits="userSpaceOnUse" x1="1510.6062" y1="1214.6461" x2="867.4343" y2="1214.6461">
	<stop  offset="0" style="stop-color:#ECBD63"/>
	<stop  offset="1" style="stop-color:#DC3A57"/>
</linearGradient>
<rect x="1011.61" y="1207.11" style="fill:url(#SVGID_00000096032780810555483220000005193879258055532222_);" width="334.57" height="15.07"/>
<linearGradient id="SVGID_00000062900247211727980430000017819076156704264365_" gradientUnits="userSpaceOnUse" x1="1510.6038" y1="1249.8094" x2="867.4364" y2="1249.8094">
	<stop  offset="0" style="stop-color:#ECBD63"/>
	<stop  offset="1" style="stop-color:#DC3A57"/>
</linearGradient>
<rect x="1011.61" y="1242.28" style="fill:url(#SVGID_00000062900247211727980430000017819076156704264365_);" width="361.51" height="15.07"/>
<linearGradient id="SVGID_00000121276360812522754710000009333027621338684852_" gradientUnits="userSpaceOnUse" x1="1510.6112" y1="1284.9702" x2="867.434" y2="1284.9702">
	<stop  offset="0" style="stop-color:#ECBD63"/>
	<stop  offset="1" style="stop-color:#DC3A57"/>
</linearGradient>
<rect x="1011.61" y="1277.44" style="fill:url(#SVGID_00000121276360812522754710000009333027621338684852_);" width="234.57" height="15.07"/>
<rect x="1105.48" y="714.96" class="st37" width="130.88" height="16.13"/>
<rect x="1073.72" y="686.24" class="st37" width="194.39" height="16.12"/>
<linearGradient id="SVGID_00000147219296876697073290000004517169346622063802_" gradientUnits="userSpaceOnUse" x1="1171.2156" y1="375.9246" x2="1171.2156" y2="737.6575">
	<stop  offset="0" style="stop-color:#6AC07E"/>
	<stop  offset="1" style="stop-color:#68AAB5"/>
</linearGradient>
<path style="fill:url(#SVGID_00000147219296876697073290000004517169346622063802_);" d="M1205.01,464.9
	c0,18.66-15.13,33.79-33.8,33.79s-33.8-15.13-33.8-33.79c0-18.67,15.13-33.8,33.8-33.8S1205.01,446.23,1205.01,464.9z"/>
<linearGradient id="SVGID_00000104696090542043873890000012806942335882646459_" gradientUnits="userSpaceOnUse" x1="1170.9196" y1="375.9256" x2="1170.9196" y2="737.6605">
	<stop  offset="0" style="stop-color:#6AC07E"/>
	<stop  offset="1" style="stop-color:#68AAB5"/>
</linearGradient>
<path style="fill:url(#SVGID_00000104696090542043873890000012806942335882646459_);" d="M1232.18,575.07v64.27
	c-18.66,8.49-39.42,13.21-61.26,13.21s-42.59-4.72-61.26-13.21v-64.27c0-33.82,27.41-61.26,61.26-61.26
	C1204.76,513.81,1232.18,541.25,1232.18,575.07z"/>
<rect x="1382.41" y="414.92" class="st23" width="314.79" height="20.29"/>
<rect x="1731.01" y="414.92" class="st23" width="122.33" height="20.29"/>
<rect x="1382.41" y="368.71" class="st23" width="147.82" height="20.29"/>
<g>
	
		<linearGradient id="SVGID_00000133519251735084717990000017259294684034467476_" gradientUnits="userSpaceOnUse" x1="1170.9196" y1="399.3192" x2="1170.9196" y2="716.0908">
		<stop  offset="0" style="stop-color:#6AC07E"/>
		<stop  offset="1" style="stop-color:#68AAB5"/>
	</linearGradient>
	<path style="fill:url(#SVGID_00000133519251735084717990000017259294684034467476_);" d="M1170.92,656.57
		c-21.96,0-43.13-4.56-62.92-13.57c-54.26-24.66-89.32-79.09-89.32-138.67c0-83.95,68.3-152.24,152.24-152.24
		c83.94,0,152.24,68.29,152.24,152.24c0,59.58-35.06,114.01-89.33,138.67C1214.04,652,1192.87,656.57,1170.92,656.57z
		 M1170.92,360.12c-79.51,0-144.2,64.69-144.2,144.21c0,56.43,33.21,108,84.61,131.35c18.74,8.53,38.79,12.85,59.59,12.85
		c20.8,0,40.85-4.32,59.59-12.85c51.4-23.36,84.61-74.92,84.61-131.35C1315.12,424.81,1250.43,360.12,1170.92,360.12z"/>
</g>
<g>
	<path class="st23" d="M1799.19,1375.23h-90.8c-7.61,0-13.78-6.17-13.78-13.78v-90.8c0-7.61,6.17-13.78,13.78-13.78h90.79
		c7.61,0,13.78,6.17,13.78,13.78v90.8C1812.97,1369.06,1806.8,1375.23,1799.19,1375.23z"/>
	<rect x="1748.19" y="1292.5" class="st41" width="11.2" height="47.09"/>
	
		<rect x="1748.19" y="1292.5" transform="matrix(-1.836970e-16 1 -1 -1.836970e-16 3069.8411 -437.7415)" class="st41" width="11.2" height="47.09"/>
</g>
<g>
	<g>
		<rect x="1404.78" y="473.66" class="st42" width="8.04" height="194.9"/>
	</g>
	<g>
		<rect x="1441.71" y="473.66" class="st42" width="8.04" height="194.9"/>
	</g>
	<g>
		<rect x="1478.64" y="473.66" class="st42" width="8.04" height="194.9"/>
	</g>
	<g>
		<rect x="1515.57" y="473.66" class="st42" width="8.03" height="194.9"/>
	</g>
	<g>
		<rect x="1552.5" y="473.66" class="st42" width="8.04" height="194.9"/>
	</g>
	<g>
		<rect x="1589.43" y="473.66" class="st42" width="8.04" height="194.9"/>
	</g>
	<g>
		<rect x="1626.36" y="473.66" class="st42" width="8.04" height="194.9"/>
	</g>
	<g>
		<rect x="1663.29" y="473.66" class="st42" width="8.04" height="194.9"/>
	</g>
	<g>
		<rect x="1700.23" y="473.66" class="st42" width="8.03" height="194.9"/>
	</g>
	<g>
		<rect x="1737.16" y="473.66" class="st42" width="8.03" height="194.9"/>
	</g>
	<g>
		<rect x="1774.09" y="473.66" class="st42" width="8.04" height="194.9"/>
	</g>
	<g>
		<rect x="1811.03" y="473.66" class="st42" width="8.03" height="194.9"/>
	</g>
</g>
<g>
	<g>
		<rect x="1404.78" y="531.93" class="st43" width="8.04" height="136.63"/>
	</g>
	<g>
		<rect x="1441.71" y="579.15" class="st43" width="8.04" height="89.41"/>
	</g>
	<g>
		<rect x="1478.64" y="501.79" class="st43" width="8.04" height="166.77"/>
	</g>
	<g>
		<rect x="1515.57" y="620" class="st43" width="8.03" height="48.56"/>
	</g>
	<g>
		<rect x="1552.5" y="571.11" class="st43" width="8.04" height="97.45"/>
	</g>
	<g>
		<rect x="1589.43" y="534.61" class="st43" width="8.04" height="133.95"/>
	</g>
	<g>
		<rect x="1626.36" y="582.17" class="st43" width="8.04" height="86.4"/>
	</g>
	<g>
		<rect x="1663.29" y="522.22" class="st43" width="8.04" height="146.34"/>
	</g>
	<g>
		<rect x="1700.23" y="588.19" class="st43" width="8.03" height="80.37"/>
	</g>
	<g>
		<rect x="1737.16" y="539.97" class="st43" width="8.03" height="128.59"/>
	</g>
	<g>
		<rect x="1774.09" y="604.27" class="st43" width="8.04" height="64.3"/>
	</g>
	<g>
		<rect x="1811.03" y="539.97" class="st43" width="8.03" height="128.59"/>
	</g>
</g>
<g>
	<path class="st24" d="M1456.37,1471.53H770.63c-19.14,0-34.66-15.52-34.66-34.66V814.78c0-19.14,15.52-34.66,34.66-34.66h685.75
		c19.14,0,34.66,15.52,34.66,34.66v622.09C1491.04,1456.01,1475.52,1471.53,1456.37,1471.53z"/>
	<g>
		<g>
			<path class="st44" d="M1015.8,989.55c15.3-42.78,1.49-88.9-31.18-116.7c-7.79-6.63-16.65-12.21-26.44-16.46
				c-2.16-0.94-4.37-1.81-6.62-2.62c-22.61-8.09-46.15-8.04-67.42-1.38c-30.7,9.61-56.68,33.01-68.35,65.63
				c-3.86,10.77-5.86,21.75-6.19,32.59c-1.34,44.79,25.96,87.28,70.43,103.19C935.26,1073.54,996.05,1044.78,1015.8,989.55z
				 M888.97,1028.76c-33.34-11.92-53.81-43.79-52.8-77.36c0.25-8.13,1.75-16.36,4.64-24.43c8.74-24.46,28.23-41.99,51.24-49.2
				c15.95-4.99,33.6-5.03,50.55,1.04c1.69,0.6,3.34,1.26,4.96,1.96c7.35,3.19,13.99,7.38,19.83,12.35
				c24.49,20.83,34.85,55.41,23.38,87.49C975.96,1022.01,930.38,1043.57,888.97,1028.76z"/>
		</g>
		<g>
			<path class="st45" d="M892.05,877.77l-7.92-25.38c-30.7,9.61-56.68,33.01-68.35,65.63c-3.86,10.77-5.86,21.75-6.19,32.59
				l26.58,0.79c0.25-8.13,1.75-16.36,4.64-24.43C849.55,902.51,869.04,884.97,892.05,877.77z"/>
		</g>
		<g>
			<path class="st46" d="M947.57,880.76l10.61-24.37c-2.16-0.94-4.37-1.81-6.62-2.62c-22.61-8.09-46.15-8.04-67.42-1.38l7.92,25.38
				c15.95-4.99,33.6-5.03,50.55,1.04C944.29,879.41,945.95,880.06,947.57,880.76z"/>
		</g>
		<g>
			<path class="st47" d="M984.62,872.85c-7.79-6.63-16.65-12.21-26.44-16.46l-10.61,24.37c7.35,3.19,13.99,7.38,19.83,12.35
				L984.62,872.85z"/>
		</g>
	</g>
	<g>
		<rect x="1317" y="1205.17" class="st28" width="36.86" height="126.26"/>
	</g>
	<g>
		<rect x="1262.2" y="1240.58" class="st28" width="36.86" height="90.84"/>
	</g>
	<g>
		<rect x="1370.16" y="1146.66" class="st28" width="36.86" height="184.77"/>
	</g>
	<g>
		<polygon class="st28" points="1401.08,1054.35 1400.42,1050.36 1303.15,1066.29 1271.61,1133.5 1166.73,1140.63 1132.76,1190.74 
			1052.58,1188.75 1052.48,1192.79 1134.87,1194.83 1168.97,1144.52 1274.26,1137.38 1305.9,1069.94 		"/>
	</g>
	<path class="st48" d="M1282.2,886.11h104.82c6.62,0,11.98-5.37,11.98-11.98l0,0c0-6.62-5.36-11.98-11.98-11.98H1282.2
		c-6.62,0-11.98,5.36-11.98,11.98l0,0C1270.22,880.74,1275.58,886.11,1282.2,886.11z"/>
	<path class="st28" d="M1282.2,927.92h104.82c6.62,0,11.98-5.36,11.98-11.98l0,0c0-6.62-5.36-11.98-11.98-11.98H1282.2
		c-6.62,0-11.98,5.36-11.98,11.98l0,0C1270.22,922.55,1275.58,927.92,1282.2,927.92z"/>
	<path class="st28" d="M1282.2,969.73h104.82c6.62,0,11.98-5.36,11.98-11.99l0,0c0-6.62-5.36-11.98-11.98-11.98H1282.2
		c-6.62,0-11.98,5.36-11.98,11.98l0,0C1270.22,964.36,1275.58,969.73,1282.2,969.73z"/>
	<g>
		<polygon class="st28" points="1092.45,906.83 1032.49,906.83 1032.49,904.53 1091.5,904.53 1123.06,872.97 1161.72,872.97 
			1161.72,875.27 1124.02,875.27 		"/>
	</g>
	<g>
		<polygon class="st28" points="1149.27,1011.56 1072.11,1011.56 1047.12,986.56 1048.74,984.93 1073.07,1009.26 1149.27,1009.26 		
			"/>
	</g>
	<rect x="1128.77" y="888.2" class="st48" width="79.97" height="9.82"/>
	<rect x="1104.38" y="988.27" class="st48" width="64.38" height="9.81"/>
</g>
<g>
	
		<linearGradient id="SVGID_00000101791241776190953480000016505415720798205884_" gradientUnits="userSpaceOnUse" x1="1346.4789" y1="1582.6122" x2="1434.316" y2="1582.6122">
		<stop  offset="0" style="stop-color:#81D1E2"/>
		<stop  offset="1" style="stop-color:#6170B4"/>
	</linearGradient>
	<path style="fill:url(#SVGID_00000101791241776190953480000016505415720798205884_);" d="M1354.15,1466.54
		c7.57-3.62,15.11,20.49,15.11,20.49c12.87,17.01,30.86-5.62,29.11,19.81c-3.08,44.5,51.22,13.99,26.17,60.45
		c-25.05,46.46,22.12,26.27,6.55,63.73c-15.57,37.46,4.61,82.14-18.81,63.78c0,0-20.62-45.22-41.89-59.22
		c-21.27-13.99,12.74-30.6,6.09-49.6c-9.67-27.6-32.95-26.52-16.16-56.18C1377.1,1500.13,1328.41,1478.86,1354.15,1466.54z"/>
	<g>
		<path class="st23" d="M1419.69,1677.77c-10.15-7.14-22.03-56.9-22.74-86.53c-0.36-15.18-4.85-21.51-8.81-27.09
			c-3.78-5.33-7.05-9.94-5.15-20.52c3.64-20.21-5.93-28.94-6.02-29.03l1.11-1.26c0.43,0.37,10.39,9.37,6.57,30.59
			c-1.78,9.88,1.15,14.02,4.87,19.25c3.9,5.49,8.74,12.32,9.12,28.02c0.76,31.81,12.91,78.79,22.03,85.2L1419.69,1677.77z"/>
	</g>
	<g>
		
			<linearGradient id="SVGID_00000093858272217694901270000010355453701298929552_" gradientUnits="userSpaceOnUse" x1="1410.9142" y1="1631.6268" x2="1490.3478" y2="1631.6268">
			<stop  offset="0" style="stop-color:#81D1E2"/>
			<stop  offset="1" style="stop-color:#6170B4"/>
		</linearGradient>
		<path style="fill:url(#SVGID_00000093858272217694901270000010355453701298929552_);" d="M1423.49,1681.46
			c-1.31,0-2.73-0.15-4.29-0.47c-3.91-0.79-6.48-2.85-7.63-6.14c-2.74-7.83,3.6-20.54,8.75-26.67c0.08-0.1,8.7-10.63,7.78-25.22
			c-0.15-2.45-0.41-4.71-0.63-6.71c-0.65-5.78-1.12-9.95,1.37-12.73c2.19-2.46,6.4-3.52,14.11-3.56
			c13.51-0.06,18.85-5.66,23.15-10.15c1.82-1.91,3.55-3.71,5.64-4.85l0,0c6.73-3.68,13.86-4.22,16.96-1.29
			c1.47,1.39,2.71,4.12,0.28,9.21c-2.22,4.65-5.11,7.59-7.43,9.96c-3.12,3.18-5.18,5.28-4.11,9.47c0.25,0.98,0.54,1.98,0.83,2.97
			c2.08,7.12,4.44,15.2-7.75,20.68c-2.59,1.16-4.95,2.09-7.03,2.9c-8.51,3.34-13.65,5.36-19.45,17.6c-1.12,2.37-2.11,4.62-3.07,6.79
			C1436.4,1673.62,1432.94,1681.46,1423.49,1681.46z M1472.54,1586.43c-1.86,1.02-3.42,2.65-5.23,4.54
			c-4.51,4.72-10.13,10.61-24.35,10.67c-7.08,0.03-11.05,0.96-12.86,2.99c-1.98,2.23-1.55,6.09-0.95,11.43
			c0.23,2.02,0.48,4.3,0.64,6.79c0.96,15.28-7.8,25.96-8.17,26.41c-5.09,6.07-10.86,18.14-8.45,25.04c0.94,2.68,3.08,4.38,6.37,5.04
			c11.48,2.32,14.65-4.86,19.91-16.77c0.96-2.18,1.96-4.44,3.09-6.83c6.08-12.84,11.76-15.07,20.35-18.44
			c2.06-0.81,4.4-1.73,6.95-2.87c10.86-4.88,8.9-11.58,6.83-18.68c-0.3-1.01-0.59-2.03-0.85-3.03c-1.31-5.1,1.27-7.74,4.53-11.07
			c2.35-2.39,5.01-5.11,7.11-9.51c1.1-2.31,2.01-5.44,0.08-7.26C1485,1582.49,1478.55,1583.15,1472.54,1586.43L1472.54,1586.43z"/>
	</g>
	<g>
		
			<linearGradient id="SVGID_00000159466586966878519730000012851253328924052363_" gradientUnits="userSpaceOnUse" x1="1417.7035" y1="1643.1779" x2="1477.3237" y2="1643.1779">
			<stop  offset="0" style="stop-color:#81D1E2"/>
			<stop  offset="1" style="stop-color:#6170B4"/>
		</linearGradient>
		<path style="fill:url(#SVGID_00000159466586966878519730000012851253328924052363_);" d="M1419.38,1691.15l-1.68-0.09
			c0.08-1.58,2.2-38.71,17.11-49.58c16.36-11.92,21.52-24.74,23.97-33.34c2.89-10.13,17.63-12.84,18.25-12.95l0.29,1.65
			c-0.14,0.03-14.32,2.64-16.93,11.76c-2.53,8.84-7.82,22-24.6,34.23C1421.53,1653.25,1419.4,1690.78,1419.38,1691.15z"/>
	</g>
	
		<linearGradient id="SVGID_00000129901781145217284800000008990795840254629307_" gradientUnits="userSpaceOnUse" x1="1396.1738" y1="1595.201" x2="1465.6075" y2="1595.201">
		<stop  offset="0" style="stop-color:#81D1E2"/>
		<stop  offset="1" style="stop-color:#6170B4"/>
	</linearGradient>
	<path style="fill:url(#SVGID_00000129901781145217284800000008990795840254629307_);" d="M1453.47,1504.02
		c-10.6-3.63-8.4,16.79-12.87,31.9c-4.48,15.11-49.81,6.59-30.78,44.43c19.03,37.84-24.07,12.65-11.19,45.68
		c12.87,33.02,1.12,68.34,15.11,59.36c13.99-8.98,7.86-50.57,22.41-55.51c14.55-4.94,16.93-10.7,2.52-24.14
		c-14.41-13.43,37.75-26.77,24.88-53.89C1450.67,1524.73,1465.71,1508.22,1453.47,1504.02z"/>
	<g>
		<path class="st23" d="M1420.22,1683.81c-1.33-5.65-12.71-55.4-2.09-61.42c9.36-5.3,9.13-25.91,7.67-45.38
			c-1.29-17.23,20.84-25.29,21.78-25.62l0.56,1.58c-0.22,0.08-21.86,7.96-20.67,23.91c1.5,19.99,1.66,41.21-8.52,46.97
			c-8.06,4.57-0.64,44.55,2.9,59.57L1420.22,1683.81z"/>
	</g>
	
		<linearGradient id="SVGID_00000137119863770213208370000003323906214758162085_" gradientUnits="userSpaceOnUse" x1="1380.2412" y1="1694.7922" x2="1444.312" y2="1694.7922">
		<stop  offset="0" style="stop-color:#E59047"/>
		<stop  offset="1" style="stop-color:#F0CB52"/>
	</linearGradient>
	<polygon style="fill:url(#SVGID_00000137119863770213208370000003323906214758162085_);" points="1444.31,1666.09 1429.18,1723.49 
		1395.37,1723.49 1380.24,1666.09 	"/>
	
		<linearGradient id="SVGID_00000057834813057232556330000006224184899138498478_" gradientUnits="userSpaceOnUse" x1="1380.2412" y1="1694.7922" x2="1444.312" y2="1694.7922">
		<stop  offset="0" style="stop-color:#B27237"/>
		<stop  offset="1" style="stop-color:#F0CB52"/>
	</linearGradient>
	<path style="fill:url(#SVGID_00000057834813057232556330000006224184899138498478_);" d="M1444.31,1666.09
		c0,0-33.31,6.25-33.31,57.4h-15.63l-15.13-57.4H1444.31z"/>
</g>
<g>
	<rect x="931.65" y="1367.75" class="st55" width="126.8" height="7.53"/>
</g>
<g>
	
		<rect x="948.65" y="1394.87" transform="matrix(-1 -1.224647e-16 1.224647e-16 -1 1908.4088 3132.0459)" class="st56" width="11.11" height="342.31"/>
</g>
<g>
	<rect x="1038.61" y="1365.62" class="st57" width="88.14" height="10.75"/>
</g>
<g>
	<rect x="1065.99" y="1273.9" class="st58" width="33.37" height="101.37"/>
</g>
<g>
	<rect x="886.17" y="1375.41" class="st59" width="488.33" height="19.46"/>
</g>
<g>
	<path class="st60" d="M792.45,1257.6c0,0-5.34,74.9,9.3,83.87c9.16,5.61,45.72,24.56,44.64,28.1
		c-1.09,3.55-20.64,31.61-20.64,31.61s-70.22-46.24-72.48-60.81c-2.21-14.23,3.45-109.67,13.1-114.06
		c7.23-3.29,11.04-0.57,20.16,6.19C799.3,1241.99,792.45,1257.6,792.45,1257.6z"/>
</g>
<g>
	<g>
		<g>
			<path class="st61" d="M878.83,1690.44c0,0-2.19,15.16-2.45,17.43c-0.27,2.28-24.29-1.34-24.29-1.34l-1.95-18.04
				C850.14,1688.49,875.83,1688.3,878.83,1690.44z"/>
		</g>
	</g>
</g>
<g>
	<g>
		<g>
			<path class="st62" d="M876.63,1705.95c0,0,7.61,9.13,14.98,13.11c7.35,3.98,18.92,5.56,23.27,9.68
				c3.14,2.97,11.44,15.78-19.12,15.52c-30.56-0.26-45.3,1.81-48.58-3.1c-3.27-4.91,4.74-36.24,4.74-36.24
				S859.15,1707.52,876.63,1705.95z"/>
		</g>
	</g>
</g>
<g>
	<g>
		<g>
			<path class="st61" d="M1032.7,1690.59c0,0-2.18,15.15-2.45,17.43c-0.27,2.28-24.29-1.34-24.29-1.34l-1.95-18.04
				C1004.01,1688.63,1029.7,1688.45,1032.7,1690.59z"/>
		</g>
	</g>
</g>
<g>
	<g>
		<g>
			<path class="st62" d="M1030.5,1706.09c0,0,7.61,9.13,14.97,13.11s34.44,7.25,38.79,11.37c3.14,2.97,8.37,14.95-34.64,13.83
				c-30.55-0.79-45.3,1.81-48.58-3.1c-3.27-4.91,4.74-36.24,4.74-36.24S1012.6,1707.84,1030.5,1706.09z"/>
		</g>
	</g>
</g>
<g>
	<g>
		<g>
			<path class="st62" d="M801.37,1428.65c0,0,87.31,14.77,107.03,17.87c19.72,3.09,126.65,29.7,140.02,37.81
				c10.64,6.46-5.58,161.45-9.38,220.58h-42.12l-3.05-177.38c-50.54,1.26-86.6-11.82-123.4-6.23
				c-36.81,5.59-67.49,13.53-90.88-17.84C779.6,1503.47,778.74,1435.51,801.37,1428.65z"/>
		</g>
	</g>
</g>
<g>
	<g>
		<g>
			<path class="st62" d="M887.43,1705.06l-41.04-2.54l-4-174.99c-21.75,0.54-29.21-0.84-46.82-2.98l-33.14-77.02
				c29.04,5.8,122.09,29.27,134.5,36.8C907.57,1490.79,891.22,1645.92,887.43,1705.06z"/>
		</g>
	</g>
</g>
<g>
	<g>
		<g>
			<path class="st63" d="M841.56,1101.37c0,0,32.01-8.84,44.22,16.01c12.21,24.84,6.67,71.95-9.46,76.38
				c-16.13,4.43-39.33-0.67-46.02-16.14c-6.7-15.47-12.04-37.44-10.44-51.67C821.47,1111.72,833.06,1104.78,841.56,1101.37z"/>
		</g>
	</g>
</g>
<g>
	<g>
		<g>
			<path class="st63" d="M867.97,1188.8c0,0-0.35,18.9,1.73,22.93c2.08,4.03-44.57,3.02-44.57,3.02s7.35-22.69,3.18-42.03
				C824.18,1153.58,867.97,1188.8,867.97,1188.8z"/>
		</g>
	</g>
</g>
<g>
	<g>
		<g>
			<path class="st64" d="M825.79,1165.56c0,0,2.5,5.07,14.57,4.25c12.07-0.82,28-15.38,33.13-16.69c5.12-1.31,5.43-4.22,5.43-4.22
				l2.71,4.82l5.25,0.8c0,0-3.57-14.6,4.2-19.74c7.78-5.14-3.5-46.55-42.87-36.56c0,0-30.05,5.5-30.45,22.28
				C817.36,1137.29,819.96,1156.68,825.79,1165.56z"/>
		</g>
	</g>
</g>
<g>
	<g>
		<g>
			<path class="st55" d="M872.15,1211.24c0,0-0.13-7.7-3.62-8.44c-3.49-0.73-36.67-5.3-40.95-3.61l-1.84,10.16
				C825.74,1209.35,833.99,1214.43,872.15,1211.24z"/>
		</g>
	</g>
</g>
<g>
	<g>
		<g>
			<path class="st63" d="M881.75,1145.47c-0.89-6.31-8.07-13.56-12.17-3.73c-4.11,9.83,2.77,24.14,7.38,23.37
				C881.56,1164.34,882.97,1154.03,881.75,1145.47z"/>
		</g>
	</g>
</g>
<g>
	<g>
		<g>
			<path class="st65" d="M1011.14,1302.18c-0.02-0.01-0.04-0.01-0.06-0.01C1011.32,1302.28,1011.35,1302.29,1011.14,1302.18z"/>
		</g>
	</g>
</g>
<g>
	<g>
		<g>
			<path class="st64" d="M832.23,1105.88c0,0-39.03-1.84-6.81,59.08L832.23,1105.88z"/>
		</g>
	</g>
</g>
<g>
	<g>
		<polygon class="st66" points="745.28,1725.82 748.18,1733.99 870.84,1695.98 864.97,1679.44 		"/>
	</g>
</g>
<g>
	<g>
		<rect x="861.11" y="1556.8" class="st66" width="13.94" height="133.36"/>
	</g>
</g>
<g>
	<g>
		<rect x="826.96" y="1549.72" class="st67" width="82.23" height="7.86"/>
	</g>
</g>
<g>
	<g>
		<polygon class="st66" points="991.96,1725.82 989.06,1733.99 866.4,1695.98 871.78,1678.41 		"/>
	</g>
</g>
<g>
	<g>
		<polygon class="st66" points="905.54,1733.11 905.54,1742.61 866.4,1695.98 871.78,1678.41 		"/>
	</g>
</g>
<g>
	<g>
		<path class="st68" d="M1003.42,1737.18c0,6.33-5.13,11.47-11.46,11.47c-6.33,0-11.46-5.13-11.46-11.47
			c0-6.33,5.14-11.46,11.46-11.46C998.29,1725.71,1003.42,1730.85,1003.42,1737.18z"/>
	</g>
</g>
<g>
	<g>
		<path class="st68" d="M906.51,1737.18c0,6.33-5.14,11.47-11.46,11.47c-6.33,0-11.46-5.13-11.46-11.47
			c0-6.33,5.13-11.46,11.46-11.46C901.38,1725.71,906.51,1730.85,906.51,1737.18z"/>
	</g>
</g>
<g>
	<g>
		<path class="st68" d="M756.75,1737.18c0,6.33-5.14,11.47-11.47,11.47c-6.33,0-11.47-5.13-11.47-11.47
			c0-6.33,5.14-11.46,11.47-11.46C751.61,1725.71,756.75,1730.85,756.75,1737.18z"/>
	</g>
</g>
<g>
	<path class="st69" d="M962.56,1549.72H774.68c-1.91,0-3.47-1.55-3.47-3.47v-22.83c0-1.91,1.55-3.47,3.47-3.47h187.88
		c1.91,0,3.47,1.55,3.47,3.47v22.83C966.02,1548.17,964.47,1549.72,962.56,1549.72z"/>
</g>
<g>
	<rect x="1300.92" y="1394.87" class="st56" width="11.11" height="342.31"/>
</g>
<g>
	<path class="st69" d="M1223.52,1322.74H941.84c-6.1,0-11.05-4.95-11.05-11.05v-192.2c0-6.1,4.95-11.05,11.05-11.05h281.68
		c6.1,0,11.04,4.94,11.04,11.04v192.2C1234.56,1317.79,1229.62,1322.74,1223.52,1322.74z"/>
</g>
<g>
	<rect x="949.86" y="1130.42" class="st70" width="265.63" height="160.46"/>
</g>
<g>
	<path class="st71" d="M1203.69,1306.01c0,4.56-4.79,8.26-10.7,8.26c-5.91,0-10.71-3.7-10.71-8.26c0-4.56,4.8-8.26,10.71-8.26
		C1198.89,1297.75,1203.69,1301.45,1203.69,1306.01z"/>
</g>
<g>
	<path class="st58" d="M1142.34,1375.67v-3.62c0,0-5.09-22.5-41.06-22.5c-35.98,0-35.25,26.12-35.25,26.12H1142.34z"/>
</g>
<g>
	<g>
		<path class="st63" d="M1065.59,1352.89c0,0,7.82-0.6,10.68-2.33c2.86-1.73,19.99-13.25,24.02-11.41
			c4.03,1.85,30.81,10.05,29.88,13.96c-0.93,3.92-3.41,3.54-5.3,2.85c-1.89-0.69-21.33-4.78-23.05-4.09c0,0,19.1,6.97,19.18,12.05
			c0.08,5.08-4,6.32-5.81,8.24c-1.81,1.92-3.99,6.7-8.91,7.07c-4.92,0.36-28.94-7.99-33.89-8.37c-4.94-0.38-14.1,0.3-14.72-0.5
			C1057.05,1369.56,1065.59,1352.89,1065.59,1352.89z"/>
	</g>
</g>
<g>
	<g>
		<g>
			<path class="st60" d="M923.3,1221.91c-24.92-4.38-51.15-10.67-51.15-10.67l-46.41-1.89c0,0-42.6,9.38-59.37,16.95
				c-1.59,0.72-1.6,38-5.97,47.78l13.91,29.34c0,0,8.03,58.12,9.7,83.97c0.76,11.86-2.17,114.68-2.17,114.68s4.17,2.06,35.85,5.55
				c31.67,3.49,110.82-1.26,111.32-5c0.5-3.74-15.33-139.31-16.03-146.33c-1.07-10.78,3.12-60.57,3.12-60.57
				c5.97,8.02,21.18,44.22,37.04,61.45c9.33,10.13,55.52,16.35,64.23,16.63c18.95,0.63,53.53,4.41,54.54,2.56
				c0.81-1.1,3.02-30.69,0.84-31.41c-1.89-0.63-66.1-4.33-82.55-13.06c-6.02-3.19-24-42.42-24-42.42S937.05,1228.08,923.3,1221.91z"
				/>
		</g>
	</g>
</g>
<g>
	<path class="st69" d="M844.4,1499.1H741.35c-8.64,0-15.64-7-15.64-15.64v-154.77c0-8.64,7-15.64,15.64-15.64H844.4
		c8.64,0,15.65,7.01,15.65,15.65v154.77C860.05,1492.1,853.04,1499.1,844.4,1499.1z"/>
</g>
<g>
	<path class="st72" d="M836.24,1542.31c-19.8,0-35.87-6.65-47.75-19.77c-26.85-29.65-22.03-81.77-21.81-83.98
		c0.41-4.11,4.08-7.11,8.17-6.7c4.11,0.4,7.11,4.06,6.7,8.17c-0.06,0.59-4.34,47.83,18.04,72.5c9.05,9.98,21.04,14.82,36.64,14.82
		c4.13,0,7.47,3.35,7.47,7.47C843.72,1538.96,840.37,1542.31,836.24,1542.31z"/>
</g>
<g>
	<g>
		<g>
			<path class="st73" d="M1045.52,1151.68h-75.83c-0.54,0-0.99-0.44-0.99-0.99v-6.5c0-0.54,0.44-0.99,0.99-0.99h75.83
				c0.54,0,0.99,0.44,0.99,0.99v6.51C1046.5,1151.23,1046.06,1151.68,1045.52,1151.68z"/>
		</g>
	</g>
</g>
<g>
	<g>
		<g>
			<path class="st73" d="M1045.52,1169.86h-75.83c-0.55,0-0.99-0.44-0.99-0.99v-6.5c0-0.54,0.44-0.99,0.99-0.99h75.83
				c0.55,0,0.99,0.44,0.99,0.99v6.51C1046.5,1169.42,1046.06,1169.86,1045.52,1169.86z"/>
		</g>
	</g>
</g>
<g>
	<g>
		<g>
			<path class="st73" d="M1041.18,1278.1h-67.16c-2.94,0-5.33-2.38-5.33-5.33v-85.21c0-2.94,2.38-5.32,5.32-5.32h67.16
				c2.94,0,5.32,2.38,5.32,5.32v85.21C1046.5,1275.71,1044.12,1278.1,1041.18,1278.1z"/>
		</g>
	</g>
</g>
<g>
	<g>
		<g>
			<path class="st73" d="M1192.35,1278.1h-121.71c-4.66,0-8.43-3.77-8.43-8.43v-118.04c0-4.66,3.77-8.43,8.43-8.43h121.7
				c4.66,0,8.43,3.77,8.43,8.43v118.04C1200.78,1274.32,1197,1278.1,1192.35,1278.1z"/>
		</g>
	</g>
</g>
<g>
	<g>
		<polygon class="st62" points="2087.62,1123.49 2011.51,1165.33 1935.07,1045.05 2027.52,1012.94 		"/>
	</g>
	<g>
		<polygon class="st55" points="2082.79,1119.88 2011.61,1159.01 1940.14,1046.52 2026.58,1016.49 		"/>
	</g>
	<g>
		<path class="st63" d="M2108.86,1098.84c0,0-13.25-6.33-19.06-9.64c-5.82-3.31-20.77-7.86-21.98-8.94
			c-1.21-1.08-44.34-3.74-46.95-6c-2.61-2.25-5.16,5.29,6.02,7.74c11.17,2.45,26.73,8.44,27.58,12.81c0.85,4.37-11.48,5.4-12.73,9
			c-1.25,3.6,0.34,2.79,2.11,3.56c1.77,0.77,14.66-6.37,20.34-4.35c5.67,2.03,14.34-0.78,18.69,0.71c4.34,1.49,25.48,8.6,25.48,8.6
			L2108.86,1098.84z"/>
	</g>
	<g>
		<path class="st63" d="M2007.8,1150.24c0,0-11.13-10.02-16.51-14.21c-5.39-4.19-15.5-16.52-16.98-17.23
			c-1.49-0.72-20.79-40.33-23.93-41.91c-3.15-1.58,2.97-6.92,9.63,2.66c6.66,9.58,18.36,21.91,22.81,21.01
			c4.45-0.9,0.62-12.93,3.53-15.51c2.91-2.58,2.77-0.76,4.18,0.61c1.42,1.36-0.3,16.3,3.83,20.86c4.12,4.56,4.85,13.82,7.95,17.34
			c3.09,3.52,18.03,20.67,18.03,20.67L2007.8,1150.24z"/>
	</g>
	<g>
		<path class="st61" d="M2247.47,1685.62c0,0,2.41,16.71,2.71,19.22c0.3,2.51,26.78-1.48,26.78-1.48l2.15-19.89
			C2279.11,1683.47,2250.79,1683.26,2247.47,1685.62z"/>
	</g>
	<g>
		<path class="st62" d="M2249.9,1702.72c0,0-8.39,10.06-16.51,14.46c-8.11,4.39-20.86,6.13-25.66,10.67
			c-3.46,3.28-12.62,17.4,21.08,17.11c33.7-0.28,49.95,2,53.57-3.41c3.61-5.41-5.22-39.95-5.22-39.95
			S2269.18,1704.46,2249.9,1702.72z"/>
	</g>
	<g>
		<path class="st61" d="M2057.74,1685.62c0,0,2.41,16.71,2.71,19.22c0.29,2.51,26.78-1.48,26.78-1.48l2.15-19.89
			C2089.38,1683.47,2061.05,1683.26,2057.74,1685.62z"/>
	</g>
	<g>
		<path class="st62" d="M2060.17,1702.72c0,0-8.38,10.06-16.5,14.46c-8.11,4.39-37.97,7.99-42.78,12.53
			c-3.46,3.28-9.22,16.49,38.2,15.24c33.7-0.88,49.95,2,53.57-3.41c3.61-5.41-5.23-39.95-5.23-39.95S2079.9,1704.65,2060.17,1702.72
			z"/>
	</g>
	<g>
		<path class="st62" d="M2225.55,1256.25c0,0,24.88,39.53,23.03,75.27c-1.86,35.73,9.02,74.74,12.76,112.07
			c4.16,41.62,21.22,140.13,21.83,162.39c0.62,22.26-2.64,93.34-2.64,93.34l-34.14,0.78c0,0-28.67-172.23-36.09-189.81
			c-7.43-17.57-44.25-142.86-45.49-156.92C2163.57,1339.32,2225.55,1256.25,2225.55,1256.25z"/>
	</g>
	<g>
		<path class="st62" d="M2094.57,1261.6c0,0-18.76,97.94-21.22,119.81c-2.48,21.87-4.13,105.84-5.37,119.51
			c-1.24,13.67-8.25,178.87-14.86,199.18h43.64c0,0,33.5-120.1,33.5-176.92c0-56.82,25.88-123.53,42.59-161.03
			c16.7-37.49,54.94-38.38,65.21-107.93C2238.07,1254.22,2108.47,1239.54,2094.57,1261.6z"/>
	</g>
	<g>
		<path class="st63" d="M2184.03,923.9c0,0-33.39-12.48-48.8,12.94c-15.39,25.42-13.91,76.32,2.92,82.58
			c16.83,6.26,42.12,2.99,50.74-12.92c8.62-15.91,16.39-38.9,16.02-54.27C2204.54,936.85,2192.8,928.33,2184.03,923.9z"/>
	</g>
	<g>
		<path class="st63" d="M2141.77,1020.58c0,0,1.4,9.02-0.9,13.46c-2.29,4.44,43.27,4.56,43.27,4.56s3.7-24.16,10.71-44.57
			C2201.86,973.61,2141.77,1020.58,2141.77,1020.58z"/>
	</g>
	<g>
		<path class="st64" d="M2194.85,994.02c0,0-3.15,5.19-15.98,3.18c-12.84-2.01-28.51-19.09-33.86-20.97
			c-5.36-1.88-5.41-5.02-5.41-5.02l-3.35,4.9l-5.69,0.36c0,0,5.2-15.28-2.64-21.51c-7.84-6.23,8.13-49.45,49.29-35.06
			c0,0,31.62,8.72,30.47,26.7C2206.53,964.58,2201.92,985.07,2194.85,994.02z"/>
	</g>
	<g>
		<path class="st55" d="M2138.16,1033.5c0,0,0.15-8.49,4-9.3c3.85-0.82,42.46-4.52,47.18-2.67v9.89
			C2189.34,1031.42,2180.24,1037.02,2138.16,1033.5z"/>
	</g>
	<g>
		<path class="st63" d="M2140.45,964.66c0.73-3.01,8.39-11.63,11.33-2.41c2.94,9.23-4.44,21.65-8.56,20.58
			C2139.12,981.78,2138.63,972.31,2140.45,964.66z"/>
	</g>
	<g>
		<path class="st65" d="M1984.92,1133.77c0.02-0.01,0.04-0.01,0.06,0C1984.72,1133.88,1984.68,1133.89,1984.92,1133.77z"/>
	</g>
	<g>
		<path class="st60" d="M2253.62,1350.42c0,0-20.49,6.03-55.41,9.88c-34.93,3.85-122.19-1.39-122.74-5.52
			c-0.56-4.13,18.77-153.64,17.67-161.35c-1.1-7.69-1.69-35.13-1.69-35.13c-0.42,7.52-8.08,38.22-17.33,54.97
			c-3.34,6.04-14.55,25-19.95,20.69c-26.14-20.87-66.62-99.53-69.19-100.19c2.15-0.94,19.18-8.78,21.57-9.58
			c2.09-0.7,20.95,19.27,32.38,31.65c5.1,5.52,8.71,9.52,8.71,9.52c3.3-7.42,15.32-54.19,19.06-70.38
			c8.42-36.51,7.13-38.02,7.13-38.02c25.55-7.73,64.33-23.46,64.33-23.46l51.17-2.09c0,0,46.97,10.34,65.47,18.69
			c1.75,0.79,1.76,41.9,6.57,52.68l-15.34,32.35c0,0-8.85,64.08-10.69,92.58C2234.5,1240.81,2253.62,1350.42,2253.62,1350.42z"/>
	</g>
	<g>
		<path class="st60" d="M2263.51,1156.16c-1.34,4.31-7.4,7.96-11.35,9.55c-2.52,1.02-5.34,1.35-8.19,0.82l-2.01-0.37l0,0l-35.07-6.5
			c0,0-7.67-88.37,47.91-109.55C2256.28,1050.59,2275.78,1116.59,2263.51,1156.16z"/>
	</g>
	<g>
		<path d="M2252.16,1165.71L2252.16,1165.71c-2.52,1.02-5.34,1.35-8.19,0.82l-2.01-0.37l0,0l3.46-45.16L2252.16,1165.71z"/>
	</g>
	<g>
		<path class="st60" d="M2047.65,1165.37l-4.29,18.16c0,0-4.65-18.22-4.43-27.68C2044.03,1161.36,2047.65,1165.37,2047.65,1165.37z"
			/>
	</g>
	<g>
		<path class="st64" d="M2193.55,926.89c0,0,43.76-5.48,0.74,67.63L2193.55,926.89z"/>
	</g>
	<g>
		<polygon class="st62" points="1970.26,1038.6 1965.8,1030.95 2000.85,1018.86 2005.3,1026.46 		"/>
	</g>
</g>
</svg>
