<?xml version="1.0" encoding="utf-8"?>
<!-- Generator: Adobe Illustrator 27.2.0, SVG Export Plug-In . SVG Version: 6.00 Build 0)  -->
<svg version="1.1" id="Layer_1" xmlns="http://www.w3.org/2000/svg" xmlns:xlink="http://www.w3.org/1999/xlink" x="0px" y="0px"
	 viewBox="0 0 2880 1800" style="enable-background:new 0 0 2880 1800;" xml:space="preserve">
<style type="text/css">
	.st0{fill:#DEE9F6;}
	.st1{fill:#ACC5E6;}
	.st2{fill:#C7C8CA;}
	.st3{fill:none;stroke:#A6A5A5;stroke-width:3.9266;stroke-miterlimit:10;}
	.st4{fill:none;stroke:#A6A5A5;stroke-width:3;stroke-miterlimit:10;}
	.st5{fill:none;stroke:#77787B;stroke-width:3.9266;stroke-miterlimit:10;}
	.st6{fill:#FFFFFF;}
	.st7{fill:#515254;}
	.st8{opacity:0.3;fill:#C7C8CA;}
	.st9{fill:#77787B;}
	.st10{fill:#A6A5A5;}
	.st11{fill:#4D4E4E;}
	.st12{fill:#D29C78;}
	.st13{fill:#070B10;}
	.st14{fill:#00558C;}
	.st15{fill:#1C437D;}
	.st16{fill:#333333;}
	.st17{fill:#28387C;}
	.st18{fill:#8AAEDC;}
	.st19{fill:#3C63AD;}
</style>
<g>
	<path class="st0" d="M56.91,1263.55c-15.71-95.14,139.26-133.89,139.26-133.89s164.65,103.91,194.48,94.56
		c29.84-9.35-123.42-116.33-123.42-116.33c52.27-30.25,222.23-26.81,222.23-26.81s70.07,176.91,96.69,160.5
		c26.62-16.41-70.04-153.48-70.04-153.48c60.17-8.27,137.74,30.93,137.74,30.93c107.63,72.38,9.13,206.85,9.13,206.85
		s25.61,60.78,94.05,112.68l0,0c0,0,14.16,8.89,32.51,26.6l-14.43,6.58c-2.94-3.33-5.95-6.48-9.03-9.41
		c-0.01-0.03-0.03-0.04-0.06-0.05c-0.04-0.04-0.09-0.08-0.13-0.13c-2.01-1.78-4.87-4.3-8.41-7.36c0,0-0.01-0.01-0.01-0.01
		c0-0.01-0.01-0.01-0.02-0.01c-8.34-6.62-14.23-11.63-18.22-15.38c-0.01-0.01-0.02-0.02-0.03-0.04
		c-25.57-21.06-60.7-47.67-76.77-49.28c0,0,0.57-2.97,0.07-8.03c-0.02,2.56-0.04,5.23-0.07,8.03
		c-0.55,64.19-120.01,129.37-195.25,146.65c-75.24,17.28-54.11-15.81-31.43-64.21c22.67-48.4,104.08-75.52,121.38-98.33
		c17.3-22.81-21.85-19.87-66.11,4.59c-44.26,24.46-46.26,80.79-117.13,121.66c-70.87,40.87-190.92-72.74-190.92-72.74
		c58.4-7.47,137.26-77.56,132.74-96.81c-4.52-19.25-139.55,44.5-163.14,48.87C128.98,1384.12,72.62,1358.69,56.91,1263.55z"/>
	<path class="st1" d="M296.99,1591.57c-8.42-50.97,74.61-71.73,74.61-71.73s88.21,55.67,104.19,50.66
		c15.98-5.01-66.12-62.32-66.12-62.32c28-16.2,119.05-14.36,119.05-14.36s37.54,94.77,51.8,85.98
		c14.26-8.79-37.52-82.22-37.52-82.22c32.23-4.43,73.79,16.57,73.79,16.57c57.66,38.78,4.89,110.81,4.89,110.81
		s13.72,32.56,50.38,60.37l0,0c0,0,7.58,4.76,17.42,14.25l-7.73,3.53c-1.58-1.78-3.19-3.47-4.84-5.04
		c-0.01-0.01-0.02-0.02-0.03-0.03c-0.02-0.02-0.05-0.04-0.07-0.07c-1.07-0.95-2.61-2.31-4.5-3.94c0,0,0,0-0.01-0.01
		c0-0.01-0.01,0-0.01-0.01c-4.47-3.55-7.62-6.23-9.76-8.24c-0.01-0.01-0.01-0.01-0.02-0.02c-13.7-11.28-32.52-25.54-41.13-26.4
		c0,0,0.31-1.59,0.04-4.3c-0.01,1.37-0.02,2.8-0.04,4.3c-0.29,34.39-64.29,69.3-104.6,78.56c-40.31,9.26-28.99-8.47-16.84-34.4
		c12.15-25.93,55.76-40.46,65.03-52.68c9.27-12.22-11.71-10.64-35.42,2.46c-23.71,13.1-24.78,43.28-62.75,65.18
		c-37.97,21.89-102.28-38.97-102.28-38.97c31.29-4,73.53-41.55,71.11-51.86c-2.42-10.31-74.76,23.84-87.4,26.18
		C335.6,1656.16,305.41,1642.54,296.99,1591.57z"/>
	<path class="st0" d="M241.71,741.98c19.1-63.3,126.19-40.3,126.19-40.3S437.81,815.4,459,818.67
		c21.19,3.26-40.79-108.91-40.79-108.91c41.32-2.81,144.88,50.69,144.88,50.69s-10.36,130.06,10.98,128.01
		c21.34-2.05,3.3-115.63,3.3-115.63c39.53,13.1,75.42,60.68,75.42,60.68c44.36,77.09-56.91,130.07-56.91,130.07
		s-2.62,45.15,23.82,97.78l0,0c0,0,6.03,9.75,11.97,26.2l-10.87-0.31c-0.8-2.94-1.7-5.79-2.71-8.52c0-0.02-0.01-0.04-0.02-0.05
		c-0.01-0.04-0.03-0.08-0.04-0.12c-0.7-1.7-1.7-4.12-2.95-7.07c0,0,0-0.01-0.01-0.01c0-0.01-0.01-0.01-0.01-0.01
		c-3.14-6.6-5.24-11.46-6.56-14.97c-0.01-0.01-0.01-0.02-0.01-0.03c-9.37-20.69-22.95-47.69-32.35-53.54c0,0,1.25-1.66,2.47-4.92
		c-0.79,1.57-1.61,3.2-2.47,4.92c-19.74,39.34-112.97,43.34-164.5,31.23c-51.53-12.11-28.52-26.09,0.07-49.02
		c28.59-22.93,86.89-15.01,104.43-23.82c17.54-8.81-7.44-18.83-42.08-17.16c-34.63,1.67-52.9,35.74-108.87,39.46
		c-55.97,3.73-95.51-102.49-95.51-102.49c38.2,13.06,107.92-6.24,110.96-19.45c3.04-13.22-99.34-14.8-115.18-19.24
		C249.61,837.97,222.61,805.28,241.71,741.98z"/>
</g>
<g id="cloud">
	<g>
		<rect x="2076.4" y="296.85" class="st2" width="7.65" height="5.73"/>
		<path class="st2" d="M2084.05,518.35h-7.65v-11.99h7.65V518.35z M2084.05,494.38h-7.65v-11.99h7.65V494.38z M2084.05,470.41h-7.65
			v-11.99h7.65V470.41z M2084.05,446.43h-7.65v-11.99h7.65V446.43z M2084.05,422.46h-7.65v-11.99h7.65V422.46z M2084.05,398.48
			h-7.65V386.5h7.65V398.48z M2084.05,374.51h-7.65v-11.99h7.65V374.51z M2084.05,350.54h-7.65v-11.99h7.65V350.54z M2084.05,326.56
			h-7.65v-11.99h7.65V326.56z"/>
		<rect x="2076.4" y="530.34" class="st2" width="7.65" height="5.73"/>
	</g>
	<g>
		<rect x="2013.93" y="296.85" class="st2" width="7.65" height="5.73"/>
		<path class="st2" d="M1953,737.21h-11.49v-7.64H1953V737.21z M1930.03,737.21h-11.49v-7.64h11.49V737.21z M1907.05,737.21h-11.49
			v-7.64h11.49V737.21z M1884.07,737.21h-11.49v-7.64h11.49V737.21z M1861.1,737.21h-11.49v-7.64h11.49V737.21z M1838.12,737.21
			h-11.49v-7.64h11.49V737.21z M1815.15,737.21h-11.49v-7.64h11.49V737.21z M1792.17,737.21h-11.49v-7.64h11.49V737.21z
			 M1769.19,737.21h-11.49v-7.64h11.49V737.21z M1746.22,737.21h-11.49v-7.64h11.49V737.21z M1723.24,737.21h-11.49v-7.64h11.49
			V737.21z M1700.26,737.21h-11.49v-7.64h11.49V737.21z M1677.29,737.21h-11.49v-7.64h11.49V737.21z M1654.31,737.21h-11.49v-7.64
			h11.49V737.21z M1631.34,737.21h-11.49v-7.64h11.49V737.21z M1608.36,737.21h-11.49v-7.64h11.49V737.21z M1585.38,737.21h-11.49
			v-7.64h11.49V737.21z M1562.41,737.21h-11.49v-7.64h11.49V737.21z M1539.43,737.21h-11.49v-7.64h11.49V737.21z M1516.46,737.21
			h-11.49v-7.64h11.49V737.21z M1493.48,737.21h-11.49v-7.64h11.49V737.21z M1470.5,737.21h-11.49v-7.64h11.49V737.21z
			 M1447.53,737.21h-11.49v-7.64h11.49V737.21z M1424.55,737.21h-11.49v-7.64h11.49V737.21z M1401.57,737.21h-11.49v-7.64h11.49
			V737.21z M1378.6,737.21h-11.49v-7.64h11.49V737.21z M1355.62,737.21h-11.49v-7.64h11.49V737.21z M1332.65,737.21h-11.49v-7.64
			h11.49V737.21z M1309.67,737.21h-11.49v-7.64h11.49V737.21z M1286.69,737.21h-11.49v-7.64h11.49V737.21z M1263.72,737.21h-11.49
			v-7.64h11.49V737.21z M1240.74,737.21h-11.49v-7.64h11.49V737.21z M1217.77,737.21h-11.49v-7.64h11.49V737.21z M1194.79,737.21
			h-11.49v-7.64h11.49V737.21z M1171.81,737.21h-11.49v-7.64h11.49V737.21z M1148.84,737.21h-11.49v-7.64h11.49V737.21z
			 M1125.86,737.21h-11.49v-7.64h11.49V737.21z M1102.88,737.21h-11.49v-7.64h11.49V737.21z M1079.91,737.21h-11.49v-7.64h11.49
			V737.21z M1056.93,737.21h-11.49v-7.64h11.49V737.21z M1033.95,737.21h-11.49v-7.64h11.49V737.21z M1010.98,737.21h-11.49v-7.64
			h11.49V737.21z M988,737.21h-11.49v-7.64H988V737.21z M965.03,737.21h-11.49v-7.64h11.49V737.21z M942.05,737.21h-11.49v-7.64
			h11.49V737.21z M919.07,737.21h-11.49v-7.64h11.49V737.21z M896.1,737.21h-11.49v-7.64h11.49V737.21z M873.12,737.21h-11.49v-7.64
			h11.49V737.21z M850.14,737.21h-11.49v-7.64h11.49V737.21z M827.17,737.21h-11.49v-7.64h11.49V737.21z M804.19,737.21H792.7v-7.64
			h11.49V737.21z M781.22,737.21h-11.49v-7.64h11.49V737.21z M758.24,737.21h-11.49v-7.64h11.49V737.21z M735.26,737.21h-11.49
			v-7.64h11.49V737.21z M712.29,737.21H700.8v-7.64h11.49V737.21z M689.31,737.21h-11.49v-7.64h11.49V737.21z M666.34,737.21h-11.49
			v-7.64h11.49V737.21z M1964.75,737.06l-0.52-7.63c3.57-0.25,7.12-0.85,10.54-1.8l2.04,7.37
			C1972.89,736.09,1968.83,736.78,1964.75,737.06z M1988.21,730.57l-3.47-6.81c3.17-1.62,6.2-3.57,9-5.79l4.76,5.98
			C1995.3,726.5,1991.84,728.72,1988.21,730.57z M2007.26,715.43l-5.85-4.92c2.3-2.74,4.33-5.71,6.04-8.84l6.71,3.66
			C2012.21,708.9,2009.89,712.3,2007.26,715.43z M2018.9,694.05l-7.31-2.24c1.04-3.4,1.75-6.93,2.09-10.49l7.61,0.73
			C2020.9,686.12,2020.1,690.16,2018.9,694.05z M2021.58,670.21h-7.65v-11.49h7.65V670.21z M2021.58,647.23h-7.65v-11.49h7.65
			V647.23z M2021.58,624.25h-7.65v-11.49h7.65V624.25z M2021.58,601.28h-7.65v-11.49h7.65V601.28z M2021.58,578.3h-7.65v-11.49h7.65
			V578.3z M2021.58,555.33h-7.65v-11.49h7.65V555.33z M2021.58,532.35h-7.65v-11.49h7.65V532.35z M2021.58,509.37h-7.65v-11.49h7.65
			V509.37z M2021.58,486.4h-7.65v-11.49h7.65V486.4z M2021.58,463.42h-7.65v-11.49h7.65V463.42z M2021.58,440.44h-7.65v-11.49h7.65
			V440.44z M2021.58,417.47h-7.65v-11.49h7.65V417.47z M2021.58,394.49h-7.65V383h7.65V394.49z M2021.58,371.52h-7.65v-11.49h7.65
			V371.52z M2021.58,348.54h-7.65v-11.49h7.65V348.54z M2021.58,325.56h-7.65v-11.49h7.65V325.56z"/>
		<rect x="403.76" y="820.96" class="st2" width="7.64" height="5.73"/>
	</g>
	<g>
		<rect x="2122.38" y="296.85" class="st2" width="7.65" height="5.73"/>
		<path class="st2" d="M2130.02,421.89h-7.65v-11.93h7.65V421.89z M2130.02,398.03h-7.65V386.1h7.65V398.03z M2130.02,374.17h-7.65
			v-11.93h7.65V374.17z M2130.02,350.31h-7.65v-11.93h7.65V350.31z M2130.02,326.45h-7.65v-11.93h7.65V326.45z"/>
		<polygon class="st2" points="2131.93,443.37 2122.38,443.37 2122.38,433.82 2130.02,433.82 2130.02,435.73 2131.93,435.73 		"/>
		<path class="st2" d="M2407.65,780.62h-7.65v-11.4h7.65V780.62z M2407.65,757.81h-7.65v-11.4h7.65V757.81z M2407.65,735h-7.65
			v-11.4h7.65V735z M2407.65,712.19h-7.65v-11.4h7.65V712.19z M2407.65,689.38h-7.65v-11.4h7.65V689.38z M2407.65,666.57h-7.65
			v-11.4h7.65V666.57z M2407.65,643.76h-7.65v-11.4h7.65V643.76z M2407.65,620.95h-7.65v-11.4h7.65V620.95z M2407.65,598.15h-7.65
			v-11.4h7.65V598.15z M2407.65,575.34h-7.65v-11.4h7.65V575.34z M2407.65,552.53h-7.65v-11.4h7.65V552.53z M2407.65,529.72h-7.65
			v-11.4h7.65V529.72z M2407.65,506.91h-7.65v-11.4h7.65V506.91z M2399.97,484.26c-0.14-3.5-0.72-6.96-1.7-10.3l7.33-2.16
			c1.16,3.93,1.83,8.02,2.01,12.14L2399.97,484.26z M2394.11,464.4c-1.77-3-3.91-5.79-6.36-8.28l5.45-5.36
			c2.89,2.93,5.41,6.22,7.5,9.75L2394.11,464.4z M2379.57,449.62c-2.98-1.82-6.17-3.27-9.5-4.31l2.28-7.3
			c3.93,1.23,7.7,2.94,11.21,5.09L2379.57,449.62z M2359.8,443.44c-0.82-0.05-1.65-0.07-2.48-0.07h-8.7v-7.64h8.7
			c0.98,0,1.96,0.03,2.92,0.08L2359.8,443.44z M2337.21,443.37h-11.4v-7.64h11.4V443.37z M2314.4,443.37H2303v-7.64h11.41V443.37z
			 M2291.6,443.37h-11.41v-7.64h11.41V443.37z M2268.79,443.37h-11.4v-7.64h11.4V443.37z M2245.98,443.37h-11.4v-7.64h11.4V443.37z
			 M2223.17,443.37h-11.4v-7.64h11.4V443.37z M2200.36,443.37h-11.4v-7.64h11.4V443.37z M2177.55,443.37h-11.4v-7.64h11.4V443.37z
			 M2154.74,443.37h-11.41v-7.64h11.41V443.37z"/>
		<rect x="2400.01" y="792.07" class="st2" width="7.65" height="5.73"/>
	</g>
	<g>
		<path class="st2" d="M2028.57,296.37c0.15-1.96,0.25-3.94,0.25-5.94c0-41.84-33.92-75.77-75.77-75.77s-75.77,33.92-75.77,75.77
			c0,2,0.1,3.97,0.25,5.94H2028.57z"/>
		<path class="st2" d="M2277.48,296.37c0.15-1.96,0.25-3.94,0.25-5.94c0-41.84-33.92-75.77-75.77-75.77s-75.77,33.92-75.77,75.77
			c0,2,0.1,3.97,0.25,5.94H2277.48z"/>
		<path class="st2" d="M2190.33,296.37c0.59-4.63,0.89-9.34,0.89-14.12c0-61.3-49.69-110.99-110.99-110.99
			c-61.3,0-110.99,49.69-110.99,110.99c0,4.78,0.3,9.5,0.89,14.12H2190.33z"/>
	</g>
</g>
<g id="Gear_00000078725060125869593870000004686937244968745113_">
	<g>
		<path class="st3" d="M1232.9,440.37c7.86-31.03,9.15-62.37,4.67-92.24l9.49-1.43l18.74-2.8l0.24-0.05
			c-5.09-34.2-16.77-66.8-34.27-96.02l-24.69,14.71c-15.84-26.44-36.72-49.88-61.99-68.45l17.14-23.16
			c-26.72-19.96-57.83-35.05-92.14-43.75l-7.08,27.95c-31.13-7.89-62.37-9.15-92.24-4.67L966.48,122
			c-34.2,5.08-66.82,16.88-96.02,34.27l14.71,24.69c-26.44,15.84-49.88,36.72-68.45,61.99l-23.15-17.14
			c-19.96,26.72-35.05,57.83-43.75,92.14l27.96,7.08c-7.89,31.13-9.16,62.37-4.67,92.24l-20.15,3.01l-8.22,1.3l-0.11-0.03
			c5.08,34.19,16.88,66.82,34.27,96.02l24.69-14.71c15.84,26.44,36.83,49.9,62.09,68.48l-17.14,23.16
			c26.72,19.96,57.73,35.03,92.04,43.72l7.08-27.96c31.13,7.89,62.47,9.18,92.35,4.69l3.29,22.13l0.99,6.34
			c34.2-5.08,66.72-16.9,95.92-34.29l-14.7-24.69c26.44-15.84,49.9-36.83,68.58-62.07l23.15,17.14
			c19.85-26.75,34.92-57.75,43.61-92.06L1232.9,440.37z M974.02,506.28c-68.3-17.31-109.57-86.59-92.26-154.89
			c17.28-68.2,86.57-109.46,154.87-92.16c68.2,17.28,109.46,86.56,92.18,154.76C1111.5,482.29,1042.21,523.56,974.02,506.28z"/>
	</g>
	<g>
		<path class="st4" d="M666.27,476.71c-10.5-13.18-23.22-23.71-37.18-31.35l2.43-4.43l4.8-8.75l0.05-0.12
			c-15.95-8.76-33.34-14.25-51.17-16.23l-1.7,15.03c-16.13-1.79-32.61-0.5-48.44,4.17l-4.24-14.56
			c-16.88,4.84-33.12,13.07-47.7,24.68l9.46,11.88c-13.23,10.54-23.71,23.22-31.35,37.18l-13.3-7.28
			c-8.77,15.95-14.22,33.39-16.23,51.17l15.03,1.7c-1.79,16.13-0.5,32.61,4.17,48.44l-14.56,4.24c4.84,16.88,13.07,33.12,24.68,47.7
			l11.88-9.46c10.54,13.23,23.22,23.71,37.17,31.35l-5.16,9.4l-2.07,3.86l-0.05,0.04c15.95,8.76,33.39,14.22,51.17,16.23l1.7-15.03
			c16.13,1.79,32.65,0.47,48.49-4.21l4.24,14.56c16.88-4.84,33.08-13.04,47.65-24.65l-9.46-11.88
			c13.23-10.54,23.75-23.26,31.39-37.21l10.33,5.67l2.97,1.61c8.77-15.95,14.17-33.35,16.19-51.13l-15.03-1.7
			c1.79-16.13,0.47-32.65-4.16-48.52l14.56-4.24c-4.89-16.84-13.08-33.04-24.69-47.62L666.27,476.71z M611.41,606.22
			c-29.02,23.11-71.21,18.33-94.32-10.68c-23.08-28.97-18.3-71.16,10.72-94.28c28.97-23.08,71.16-18.3,94.24,10.67
			C645.16,540.96,640.38,583.15,611.41,606.22z"/>
	</g>
	<g>
		<path class="st5" d="M2748.28,1455.43c-12.12-15.21-26.8-27.36-42.9-36.17l2.8-5.11l5.54-10.1l0.06-0.13
			c-18.41-10.11-38.47-16.45-59.05-18.73l-1.96,17.35c-18.61-2.06-37.63-0.58-55.9,4.82l-4.9-16.8
			c-19.48,5.59-38.22,15.08-55.04,28.48l10.92,13.71c-15.26,12.16-27.36,26.8-36.17,42.9l-15.34-8.4
			c-10.12,18.41-16.41,38.53-18.73,59.04l17.35,1.96c-2.06,18.61-0.58,37.63,4.81,55.9l-16.8,4.9
			c5.59,19.48,15.08,38.22,28.48,55.04l13.71-10.92c12.16,15.26,26.8,27.36,42.9,36.17l-5.95,10.85l-2.39,4.45l-0.05,0.04
			c18.41,10.11,38.53,16.41,59.04,18.73l1.97-17.35c18.61,2.06,37.68,0.54,55.95-4.85l4.9,16.8c19.48-5.59,38.17-15.04,54.99-28.44
			l-10.92-13.71c15.26-12.16,27.41-26.84,36.23-42.94l11.92,6.55l3.43,1.85c10.12-18.41,16.36-38.48,18.68-59l-17.35-1.97
			c2.06-18.61,0.54-37.68-4.8-55.99l16.8-4.9c-5.64-19.44-15.09-38.13-28.49-54.95L2748.28,1455.43z M2684.97,1604.88
			c-33.49,26.67-82.17,21.16-108.84-12.33c-26.63-33.43-21.11-82.12,12.37-108.79c33.43-26.63,82.12-21.12,108.75,12.32
			C2723.92,1529.57,2718.4,1578.25,2684.97,1604.88z"/>
	</g>
</g>
<path d="M2535.2,1785H377.91c-7.06,0-12.78-5.72-12.78-12.78l0,0c0-7.06,5.72-12.78,12.78-12.78H2535.2
	c7.06,0,12.78,5.72,12.78,12.78l0,0C2547.98,1779.28,2542.26,1785,2535.2,1785z"/>
<g id="laptop_1_">
	<path d="M563.02,1657.26V572.9c0-16.24,13.16-29.4,29.4-29.4h1741.29c16.24,0,29.4,13.16,29.4,29.4v1084.36
		c0,16.24-13.17,29.41-29.41,29.41H592.43C576.19,1686.66,563.02,1673.5,563.02,1657.26z"/>
	<g>
		<rect x="661.26" y="610.49" class="st6" width="1605.46" height="1003.8"/>
	</g>
	<path class="st7" d="M2495.16,1694.49v28.22c0,1.44-0.08,2.86-0.26,4.25c-2.09,18.28-17.62,32.48-36.47,32.48H444.3
		c-18.85,0-34.36-14.2-36.46-32.48c-0.18-1.39-0.26-2.81-0.26-4.25v-28.22H2495.16z"/>
	<path class="st7" d="M2494.9,1726.96c-2.09,18.28-17.62,32.48-36.47,32.48H444.3c-18.85,0-34.36-14.2-36.46-32.48H2494.9z"/>
</g>
<g id="login">
	<path class="st8" d="M1945.24,1443.95H993.43c-21.96,0-39.77-17.81-39.77-39.77v-557.1c0-21.96,17.81-39.77,39.77-39.77h951.81
		c21.96,0,39.77,17.81,39.77,39.77v557.1C1985.01,1426.15,1967.2,1443.95,1945.24,1443.95z"/>
	<g>
		<path class="st9" d="M1644.84,1278.8H1454.9c-2.25,0-4.09-1.84-4.09-4.09v-38.43c0-2.25,1.84-4.09,4.09-4.09h189.94
			c2.25,0,4.09,1.84,4.09,4.09v38.43C1648.94,1276.96,1647.09,1278.8,1644.84,1278.8z"/>
		<path class="st6" d="M1754.88,1093.09h-369.03c-2.25,0-4.09-1.84-4.09-4.09v-38.43c0-2.25,1.84-4.09,4.09-4.09h369.03
			c2.25,0,4.09,1.84,4.09,4.09V1089C1758.97,1091.25,1757.13,1093.09,1754.88,1093.09z"/>
		<path class="st6" d="M1754.88,1180.84h-369.03c-2.25,0-4.09-1.84-4.09-4.09v-38.43c0-2.25,1.84-4.09,4.09-4.09h369.03
			c2.25,0,4.09,1.84,4.09,4.09v38.43C1758.97,1179,1757.13,1180.84,1754.88,1180.84z"/>
		<g>
			<path class="st10" d="M1460.99,1159.59c0,4.53-3.67,8.21-8.21,8.21c-4.53,0-8.21-3.67-8.21-8.21c0-4.53,3.67-8.21,8.21-8.21
				C1457.32,1151.39,1460.99,1155.06,1460.99,1159.59z"/>
			<path class="st10" d="M1489.13,1159.59c0,4.53-3.67,8.21-8.21,8.21s-8.21-3.67-8.21-8.21c0-4.53,3.67-8.21,8.21-8.21
				S1489.13,1155.06,1489.13,1159.59z"/>
			<path class="st10" d="M1517.27,1159.59c0,4.53-3.67,8.21-8.21,8.21c-4.53,0-8.21-3.67-8.21-8.21c0-4.53,3.67-8.21,8.21-8.21
				C1513.59,1151.39,1517.27,1155.06,1517.27,1159.59z"/>
			<path class="st10" d="M1545.4,1159.59c0,4.53-3.67,8.21-8.21,8.21c-4.53,0-8.21-3.67-8.21-8.21c0-4.53,3.67-8.21,8.21-8.21
				C1541.73,1151.39,1545.4,1155.06,1545.4,1159.59z"/>
			<path class="st10" d="M1573.54,1159.59c0,4.53-3.67,8.21-8.21,8.21c-4.53,0-8.21-3.67-8.21-8.21c0-4.53,3.67-8.21,8.21-8.21
				C1569.86,1151.39,1573.54,1155.06,1573.54,1159.59z"/>
			<path class="st10" d="M1601.67,1159.59c0,4.53-3.67,8.21-8.21,8.21c-4.53,0-8.21-3.67-8.21-8.21c0-4.53,3.67-8.21,8.21-8.21
				C1598,1151.39,1601.67,1155.06,1601.67,1159.59z"/>
			<path class="st10" d="M1629.81,1159.59c0,4.53-3.67,8.21-8.21,8.21s-8.21-3.67-8.21-8.21c0-4.53,3.67-8.21,8.21-8.21
				S1629.81,1155.06,1629.81,1159.59z"/>
			<path class="st10" d="M1657.94,1159.59c0,4.53-3.67,8.21-8.21,8.21c-4.53,0-8.21-3.67-8.21-8.21c0-4.53,3.67-8.21,8.21-8.21
				C1654.27,1151.39,1657.94,1155.06,1657.94,1159.59z"/>
			<path class="st10" d="M1686.08,1159.59c0,4.53-3.67,8.21-8.21,8.21c-4.53,0-8.21-3.67-8.21-8.21c0-4.53,3.67-8.21,8.21-8.21
				C1682.41,1151.39,1686.08,1155.06,1686.08,1159.59z"/>
		</g>
		<g>
			<circle class="st6" cx="1560.17" cy="944.64" r="48.69"/>
			<g>
				<g>
					<path class="st9" d="M1560.24,942.68c4.75,0,9.14-2.32,11.94-5.85c2.07-2.56,3.29-5.85,3.29-9.51
						c0-8.41-6.83-15.36-15.24-15.36c-8.53,0-15.36,6.95-15.36,15.36c0,3.66,1.22,6.95,3.29,9.51
						C1550.98,940.36,1555.36,942.68,1560.24,942.68z"/>
				</g>
				<path class="st9" d="M1587.23,970.05c0,9.69-54.12,9.69-54.12,0l0.02-11.29c2.14-15.44,49.71-16.09,54.12,0L1587.23,970.05z"/>
			</g>
		</g>
		<path class="st11" d="M1424.46,1154.22v-1.25c0-5.06-4.11-9.17-9.17-9.17s-9.17,4.11-9.17,9.17v1.25h-1.39v16.53
			c0,2.86,21.19,2.86,21.19,0v-16.53H1424.46z M1409.38,1152.97c0-3.17,1.96-6.05,5.9-6.05c3.94,0,5.96,2.7,5.96,6.05v1.25h-11.87
			V1152.97z M1416.85,1162.55v4.77c0,0.86-0.74,1.47-1.59,1.47c-0.86,0-1.47-0.61-1.47-1.47v-4.77c-0.86-0.49-1.47-1.35-1.47-2.45
			c0-1.59,1.35-2.94,2.94-2.94c1.59,0,2.94,1.35,2.94,2.94C1418.19,1161.2,1417.58,1162.06,1416.85,1162.55z"/>
		<g>
			<g>
				<g>
					<path class="st11" d="M1415.34,1068.09c1.85,0,3.57-0.9,4.66-2.28c0.81-1,1.28-2.28,1.28-3.71c0-3.28-2.66-5.99-5.95-5.99
						c-3.33,0-5.99,2.71-5.99,5.99c0,1.43,0.48,2.71,1.28,3.71C1411.72,1067.18,1413.44,1068.09,1415.34,1068.09z"/>
				</g>
				<path class="st11" d="M1425.87,1078.77c0,3.78-21.23,3.78-21.23,0l0.11-4.41c0.83-6.03,19.4-6.28,21.12,0L1425.87,1078.77z"/>
			</g>
			<path class="st10" d="M1537.27,1076.62h-85.85c-3.76,0-6.84-3.08-6.84-6.84l0,0c0-3.76,3.08-6.84,6.84-6.84h85.85
				c3.76,0,6.84,3.08,6.84,6.84l0,0C1544.11,1073.54,1541.04,1076.62,1537.27,1076.62z"/>
			<path class="st10" d="M1484.07,1026.71h-82.89c-3.76,0-6.84-3.08-6.84-6.84l0,0c0-3.76,3.08-6.84,6.84-6.84h82.89
				c3.76,0,6.84,3.08,6.84,6.84l0,0C1490.91,1023.63,1487.83,1026.71,1484.07,1026.71z"/>
			<path class="st10" d="M1650.5,1076.62h-85.85c-3.76,0-6.84-3.08-6.84-6.84l0,0c0-3.76,3.08-6.84,6.84-6.84h85.85
				c3.76,0,6.84,3.08,6.84,6.84l0,0C1657.34,1073.54,1654.27,1076.62,1650.5,1076.62z"/>
		</g>
		<g>
			<path class="st6" d="M1122.97,1066.72v120.91c0,13.44,164.4,13.44,164.4,0v-120.91H1122.97z"/>
			<g>
				<circle class="st9" cx="1205.17" cy="1112.39" r="20.3"/>
				<path class="st9" d="M1205.17,1173.51L1205.17,1173.51c-4.59,0-8.32-3.72-8.32-8.32v-46.55h16.64v46.55
					C1213.49,1169.79,1209.76,1173.51,1205.17,1173.51z"/>
			</g>
			<path class="st6" d="M1272.96,1058.11h-16.64v-8.14c0-28.21-22.95-51.16-51.16-51.16s-51.16,22.95-51.16,51.16v8.14h-16.64v-8.14
				c0-37.38,30.41-67.79,67.79-67.79s67.79,30.41,67.79,67.79V1058.11z"/>
		</g>
	</g>
</g>
<g id="female_2_">
	<path class="st12" d="M1912.23,1060.09l7.86,31.58l1.43,5.87c1.59,7.46,50.87,4.29,47.38-4.44l-2.94-6.43l-15.16-33.25
		L1912.23,1060.09z"/>
	<g>
		<g>
			<path class="st12" d="M1883.42,1013.24c-0.5,34.25,15.4,62.1,40.27,61.98c24.88-0.12,48.95-21.23,49.82-62.41
				c0.55-26.24-20.4-47.42-45.28-47.3C1903.35,965.62,1883.8,987,1883.42,1013.24z"/>
		</g>
		<path d="M1927.48,956.09c0,0-49.57,2.45-53.7,39.99c-5.5,32.95,19.22,8.73,29.31,30.84c11.56,25.33-0.22,43.87-15.25,48.9
			c13.36,18.65,89.74,17.98,109.4-14.74C2010.71,1020.03,1991.66,958.36,1927.48,956.09z"/>
		<path class="st12" d="M1892.72,1025.56c-0.41,5.08,3.37,9.54,8.46,9.95c5.08,0.41,9.54-3.37,9.95-8.46
			c0.41-5.08-3.37-9.54-8.46-9.95C1897.59,1016.69,1893.14,1020.48,1892.72,1025.56z"/>
	</g>
	<path class="st6" d="M1900.32,1662.72c-2.32-2.46-13.29-2.5-14.29,1.14c-1,3.64,0.93,6.24-3.69,12.01c2.66,0.77,12.1,0.84,14.99,0
		C1900.22,1675.03,1902.64,1665.18,1900.32,1662.72z"/>
	<path class="st13" d="M1918.43,1675.16h-26.71c-2.5-113.03-2.02-236.08-1.12-328.75c0.32-33.19,1.24-49.97,7.26-69.9
		c12.16-40.23,69.31-27.85,73.37,8.62c1.69,20.24,2.93,59.72-34.48,193.86C1952.94,1538.06,1924.68,1608.87,1918.43,1675.16z"/>
	<path class="st6" d="M1876.76,1676.88c3.93-0.21,13.12-4,14.85-6.61c2.55,2.85,7.87,3.64,14.29,2.69
		c7.58-1.13,8.58-4.65,14.02-4.18c2.29,6.37,7.88,20.68,2.49,23.99c0,0-31.85,0-56.16,0
		C1861.23,1688.18,1861.36,1678.41,1876.76,1676.88z"/>
	<g>
		<path class="st6" d="M2036.31,1665.58c-1.95-2.07-11.16-2.1-12.01,0.96c-0.84,3.06,0.78,5.24-3.1,10.09
			c2.24,0.65,10.17,0.71,12.6,0S2038.26,1667.65,2036.31,1665.58z"/>
		<path class="st13" d="M1948.28,1284.1c5.46-41.67,79.6-37.39,84.53-1.01c1.78,19.58,7.22,49.05-6.71,194.48
			c29.39,55.5,21.08,135.13,29.86,193.75c0.97,8.92-24.3,11.06-26.26,3.11c-26.93-108.76-64.55-230.78-78.54-321.26
			C1946.09,1320.38,1945.58,1304.74,1948.28,1284.1z"/>
		<path class="st6" d="M2016.43,1675.16c3.93-0.21,9.74-5.33,11.47-7.94c2.55,2.85,7.43,6.7,13.84,5.74
			c7.58-1.13,8.58-4.65,14.02-4.18c2.29,6.37,7.88,20.68,2.49,23.99c0,0-30.32,0-54.63,0
			C1998.61,1688.18,2001.04,1676.69,2016.43,1675.16z"/>
	</g>
	<g>
		<path class="st12" d="M1712.08,1225.2l-2.77-13.89c6.79-2.64,17.07-8.13,29.04-12.79l6.57,22.52
			C1731.67,1223.01,1719.93,1224.45,1712.08,1225.2z"/>
		<path class="st14" d="M1738.35,1198.52c23.06-10.72,62.57-34.04,71.65-38.27l97.48-59.85c21.02-6.38,45.54,35.23,18.96,54.01
			c0,0-150.74,62.05-181.52,66.62L1738.35,1198.52z"/>
		<g>
			<path class="st12" d="M1702.22,1236.37c-9.43-2.83-12.69-16.72-12.94-17.77l19.51-7.12c9.49-3.84,14.93,7.64,8.94,15.92
				C1717.73,1227.4,1711.2,1238.46,1702.22,1236.37z"/>
			<path class="st12" d="M1693.81,1224.02c-22.54,4.84-21.66-0.68-21.66-0.68s7.6-2.52,21.33-6.27
				C1701.42,1215.29,1699.23,1222.26,1693.81,1224.02z"/>
		</g>
	</g>
	<path id="XMLID_00000160911881709217297750000002381978999105160832_" class="st14" d="M1891.18,1159.88
		c-4.69-22.8-7.2-45.31,16.3-59.47c13.93-8.39,58.72-14.39,79.66-7.46c21.1,9.43,16.54,50.56,20.49,115.51
		c14.54,32.41,20.86,43.06,25.17,74.63c0,0-7.78,23.79-62.58,23.82c-24.89,0.01-61.54-2.2-78.21-14.89
		c1.66-21.53,10.67-42.27,14.42-72.75C1906.43,1219.27,1891.52,1162.49,1891.18,1159.88z"/>
	<g>
		<g>
			<path class="st14" d="M1998.4,1097.54c25.72,19.64,50.81,50.52,62.67,66.92c11.86,16.4,42.57,82.31,42.57,82.31l-19.55,14.41
				l-52.87-72.04l-64.59-52.98C1944.22,1113.28,1973.35,1078.41,1998.4,1097.54z"/>
			<path class="st12" d="M2111.83,1263.48l-12.67-26.18c-2.98,7.87-17.49,15.05-21.65,14.9c0,0,13.62,19.6,16.95,22.94
				S2111.56,1272.83,2111.83,1263.48z"/>
		</g>
		<g>
			<path class="st12" d="M2091.26,1270.77c0.05,0.2-0.01,0.46,0.04,0.65c0.64,9.53,7.96,14.03,9.94,15.1
				c0.16,0.13,0.33,0.16,0.51,0.2c-6.89-1.38-8.95,7.85-5.45,9.98c10.14,6.86,24.58-2.58,25.8-8.3
				c1.24-5.81-10.31-25.03-10.31-25.03C2105.92,1258.61,2090.84,1259.35,2091.26,1270.77z"/>
			<path class="st12" d="M2091.31,1271.42c0.41,10.77,10.11,15.2,10.29,15.23c5.68-0.16,7.7-0.5,13.12-0.49
				c-3.54-1.72-10.79-6.31-7.98-15.22C2101.18,1266.7,2092.82,1270.41,2091.31,1271.42z"/>
			<path class="st12" d="M2091.16,1270.2c-1.49,8.89-0.86,21.55,1.25,27.12c0,0,5.45,0.29,4.94-10c-0.13-2.68,0.25-8.49,2.9-10.43
				c8.16-5.39,9.47-10.33,6.48-14.39C2102.74,1257.09,2091.47,1262.58,2091.16,1270.2z"/>
			<path class="st12" d="M2116.4,1294.49c-4.43,3.07-16.14,9.02-17.99,7.55c-1.85-1.47,7.52-11.44,13.56-12.76
				C2118.03,1287.96,2118.67,1292.91,2116.4,1294.49z"/>
		</g>
	</g>
</g>
<g id="male_01_2_">
	<path class="st12" d="M858.49,1001.98c3.06,28.83-11.47,59.56-29.74,59.34c-25.07-0.31-57.49-20.94-60.54-49.76
		c-3.06-28.83,14.68-54.34,39.61-56.98C832.74,951.93,855.43,973.16,858.49,1001.98z"/>
	<g>
		<path class="st6" d="M703.13,1665.58c0,0,26.33-2.95,46.86,0c17.03,11.24,24.37,10.59,24.37,10.59c7.28,1.9,10.52,11.9,4.21,11.9
			H701L703.13,1665.58z"/>
		<path class="st6" d="M828.73,1665.58c0,0,25.88-2.95,46.86,0c18.75,11.24,25.99,10.59,25.99,10.59c7.57,1.9,12.34,11.9,6.03,11.9
			h-77.56L828.73,1665.58z"/>
		<polygon class="st12" points="804.61,1095.44 755.86,1078.98 791.17,1005.44 825.45,1021.9 		"/>
		<path class="st15" d="M852.99,1147.02c0,0,37.82,27.71,19.36,57.11c-13.76,21.91-57.79-1.82-57.79-27.31
			C814.57,1153.85,832.26,1140.3,852.99,1147.02z"/>
		<path class="st16" d="M736.18,1261.09c0,0-9.09,15.76-15.18,47.16c-2.16,11.16,0.37,61.62-0.35,146.62
			C702.96,1564.78,701,1674.86,701,1674.86l48.98-9.28l74.99-399.91L736.18,1261.09z"/>
		<path class="st16" d="M847.06,1271.29c9.63,75.46,16.59,143.19,17.21,192.59l11.32,201.71l-46.57,8.9
			c-9.55-62.59-25.44-140.77-27.95-213.28l-50.78-189.33L847.06,1271.29z"/>
		<path class="st15" d="M721.68,1267.41c3.23,19.5,4.99,20.82,4.99,20.82l124.08,2.74c0,0-3.69-19.69-0.57-29.88
			c0.58-1.88,0.72-7.78-0.11-16.58c-1.18-12.63-3.86-31.05-7.46-51.22c-7.74-43.35-19.73-94.76-30.28-114.08l-54.17-13
			c0,0-24.16,24.5-29.47,46.19C723.37,1134.09,718.45,1247.92,721.68,1267.41z"/>
		<path class="st12" d="M794.15,1162.72c0,0-14.57,31.39,0.56,39.79c15.13,8.41,30.26-18.49,30.26-18.49L794.15,1162.72z"/>
		<path class="st15" d="M854.16,1079.08l-10.49,67.73l-32.64-38.42c0,0-29.33-29.74-52.88-2.89
			c-23.55,26.85,13.22,53.71,13.22,53.71s53.71,43.71,88,39.17c34.29-4.54,12.89-118,12.89-118L854.16,1079.08z"/>
		<path class="st12" d="M854.16,1079.08l-5.29-25.79l13.48-20.47c0,0,5.02-3.7,6.87,7.67c3.69,5.29,8.2,9.21,7.67,15.18
			c-0.53,5.97-4.64,24.71-4.64,24.71L854.16,1079.08z"/>
		<polygon class="st17" points="758.17,1066.21 762.01,1056.3 819.39,1079.08 823.9,1103.99 		"/>
		<path d="M774.3,1041.07c0,0-18.72-26.94-12.86-59.15c5.86-32.21,53.59-38.95,53.59-38.95s49.78-2.93,60.91,47.73
			c-5.27,6.74-26.94-4.39-26.94-4.39l-35.62,32.5c0,0,0.42-25.48-12.14-19.03c-12.56,6.44-8.81,26.94-8.81,26.94
			S780.72,1039.02,774.3,1041.07z"/>
	</g>
</g>
<g>
	<g>
		<g>
			<path class="st15" d="M2143.26,872.79L2143.26,872.79c0-0.88,0.01-1.26,0.01-1.35C2143.27,871.6,2143.26,872.79,2143.26,872.79z"
				/>
			<path class="st15" d="M2143.26,872.79L2143.26,872.79c0-0.88,0.01-1.26,0.01-1.35C2143.27,871.6,2143.26,872.79,2143.26,872.79z"
				/>
			<path class="st15" d="M2665.53,875.12c0,0,0.01-1.19,0.01-1.35C2665.54,873.86,2665.54,874.25,2665.53,875.12L2665.53,875.12z"/>
			<path class="st15" d="M2665.53,875.12c0,0,0.01-1.19,0.01-1.35C2665.54,873.86,2665.54,874.25,2665.53,875.12L2665.53,875.12z"/>
			<path class="st15" d="M2405.36,750.06c-57.81,61.93-150.06,112.68-248.78,134.31c-0.03,6.59-0.19,43.12-0.95,211.48
				c-1,224.59,212.74,334.35,245.93,351.19c32.15-14.8,248.6-124.38,249.6-348.97c0.75-168.36,0.92-204.89,0.95-211.48
				C2553.59,864.08,2462.62,812.51,2405.36,750.06z"/>
		</g>
	</g>
	<g>
		<path class="st18" d="M2404.84,774.42c-59.6,54.67-142.17,97.64-232.96,121.07l-0.9,200.33c-0.41,91.66,36,174.58,108.24,246.47
			c47.46,47.23,97.36,76.53,122.68,89.7c1.09-0.55,2.28-1.18,3.46-1.79V774.89C2405.19,774.73,2405.01,774.58,2404.84,774.42z"/>
		<path class="st19" d="M2405.36,774.89v655.31c26.33-13.7,74.19-42.01,120.02-86.81c72.87-71.24,110.02-153.83,110.43-245.5
			l0.9-200.33C2546.39,873.4,2464.43,829.87,2405.36,774.89z"/>
	</g>
	<path class="st6" d="M2587.28,975.68c-69.12,10.66-163.25,73.7-222.63,149.51c-8.33-35.74-45.72-68.37-65.28-75.51l-59.27,59.57
		c37.01,16.68,77.44,63.93,82.8,112.3l59.2,9.18c24.96-49.31,89.43-167.25,217.68-230.67
		C2597.33,990.41,2588.28,977.06,2587.28,975.68z"/>
</g>
</svg>
