<?xml version="1.0" encoding="utf-8"?>
<!-- Generator: Adobe Illustrator 27.2.0, SVG Export Plug-In . SVG Version: 6.00 Build 0)  -->
<svg version="1.1" id="Layer_1" xmlns="http://www.w3.org/2000/svg" xmlns:xlink="http://www.w3.org/1999/xlink" x="0px" y="0px"
	 viewBox="0 0 2880 1800" style="enable-background:new 0 0 2880 1800;" xml:space="preserve">
<style type="text/css">
	.st0{fill:#84BDE7;}
	.st1{fill:#0D2D3D;}
	.st2{fill:#23417A;}
	.st3{fill:#D29C78;}
	.st4{fill:#1C3B54;}
	.st5{fill:#ECD9D2;}
	.st6{fill:#D5C4BD;}
	.st7{fill:#F9E4DC;}
	.st8{fill:#00558C;}
	.st9{fill:#EDA885;}
	.st10{fill:#A9CA92;}
	.st11{fill:#A67861;}
	.st12{fill:#5CA3D9;}
	.st13{fill:#5273B8;}
	.st14{fill:#1D4154;}
	.st15{fill:#2A617D;}
	.st16{fill:#D4D7E7;}
	.st17{fill:#A9ACB9;}
	.st18{fill:#73B1E0;}
	.st19{fill:#2173B4;}
	.st20{fill:#28387C;}
	.st21{fill:#161F2E;}
	.st22{fill:#354052;}
	.st23{fill:#A5D0EF;}
	.st24{fill:#C7C8CA;}
	.st25{fill:#D9E7F3;}
	.st26{fill:#185A8C;}
	.st27{fill:#41A0D8;}
	.st28{fill:#E4F1FB;}
	.st29{fill:#7FBBE5;}
	.st30{opacity:0.83;}
	.st31{fill:#E0F0FA;}
	.st32{opacity:0.82;}
	.st33{fill:#8FC4EA;}
	.st34{opacity:0.86;}
</style>
<g>
	<polygon class="st0" points="522.15,750.73 391.2,750.8 391.25,845.71 391.26,865.7 411.24,845.7 522.19,845.64 	"/>
</g>
<g>
	<g>
		<g>
			<g>
				<path class="st1" d="M327.07,788.2c0,0,32.04,15.65,24.14,58.28c-7.9,42.63-11.4,48.38-2.53,65.03
					c8.87,16.65,19.36,87.7,11.39,101.17c-7.97,13.47-98.72-59.13-111.34-120.08c-12.61-60.94,7.93-88.07,15.19-98.17
					C271.19,784.33,298.78,773.86,327.07,788.2z"/>
			</g>
		</g>
	</g>
</g>
<g>
	<g>
		<path class="st2" d="M336.03,942.08c0,0,16.3,3.31,25.47,16.78c6.38,9.37,6.9,30.2,7.82,34.12c0.92,3.92,13.1,48.31,13.1,48.31
			l-33.95,22.78L336.03,942.08z"/>
	</g>
</g>
<g>
	<g>
		<path d="M461.65,1701.16c0,0,22.16,29.84,19.12,34.57c-3.04,4.73-26.35,5.4-40.53,0c-14.19-5.4-14.52-40.37-20.95-55.4
			c-2.69-6.29,3.07-24.86,11.15-26.21c8.09-1.35,16.88,2.61,16.88,2.61S438.94,1677.89,461.65,1701.16z"/>
	</g>
</g>
<g>
	<g>
		<g>
			<path class="st3" d="M447.47,1656.48c0,0,4.66,12.71,6.37,24.84c1.41,10.07,15.79,31.43,15.12,34.13
				c-0.68,2.71-18.92,5.15-26.35-1.81c-7.43-6.97-12.21-27.23-13.85-39.35c-1.53-11.29-3.45-16.87-3.45-16.87
				S440.37,1649.06,447.47,1656.48z"/>
		</g>
	</g>
</g>
<g>
	<g>
		<path d="M268.73,1701.65c0,0,21.36,29.35,18.32,34.07c-3.04,4.73-26.35,5.4-40.53,0c-14.19-5.4-14.53-40.37-20.95-55.4
			c-2.69-6.29,3.06-24.86,11.15-26.21c8.08-1.35,17.57,2.89,17.57,2.89S246.01,1678.39,268.73,1701.65z"/>
	</g>
</g>
<g>
	<g>
		<g>
			<path class="st3" d="M254.28,1657.01c0,0,1.69,13.86,4.39,23.65c2.7,9.8,17.23,32.1,16.55,34.8c-0.68,2.71-18.92,5.15-26.35-1.81
				c-7.43-6.97-13.17-27.14-13.85-39.35c-0.67-12.22,1.69-20.18,1.69-20.18S247.19,1649.58,254.28,1657.01z"/>
		</g>
	</g>
</g>
<g>
	<g>
		<g>
			<path class="st3" d="M361.03,1171.23c0,0,19.07,88.47,23.44,110.74c4.38,22.28,16.67,130.16,17.99,148.51
				c1.32,18.35,19.9,87.47,19.02,94.02c-0.87,6.55,27.55,138.16,27.55,138.16s-9.68,7.8-19.89,0.71
				c-5.25-3.64-62.28-123.19-62.3-155.95c-0.02-45.28-33.54-104.37-37.87-114.51c-40.19-94.09-32.3-122.88-37.55-128.99
				c-5.24-6.11-5.69,3.78-8.75,17.32c-3.05,13.54-9.54,130.61-13.46,145.47c-3.92,14.86-0.84,65.09-3.02,90.42
				s-11.7,139.94-11.7,139.94s-7.42,11.65-17.85,0.31c-2.24-2.44-18.05-127.65-18.51-157.79c-0.45-30.14-0.94-71.7-1.79-84.74
				c-8.16-124.89-28.06-142.72,3.22-231.13C278.17,1018.18,361.03,1171.23,361.03,1171.23z"/>
		</g>
	</g>
</g>
<g>
	<g>
		<path d="M233.29,1146.57c0,0-54.14,75.86-30.73,237.17c0,0,128.53,17.42,197.37-20.33c0,0-28.56-166.31-38.89-192.18
			C350.7,1145.34,233.29,1146.57,233.29,1146.57z"/>
	</g>
</g>
<g>
	<g>
		<polygon class="st4" points="418.7,1677.7 418.7,1708.94 422.75,1708.94 422.75,1684.8 		"/>
	</g>
</g>
<g>
	<g>
		<polygon points="224.98,1677.7 224.98,1708.94 229.03,1708.94 229.03,1684.8 		"/>
	</g>
</g>
<g>
	<g>
		<path class="st5" d="M305.9,931.03c0,0,19.97,9.42,26.9,10.8c6.93,1.38,33.85,36.3,38.56,49.06s0.02,31.88-9.68,54.34
			c-9.69,22.46-0.54,29.95-4.96,52.41c-4.42,22.46-8.28,70.01-7.44,82.49c0.84,12.48-112.14,14.89-137.93-7.84
			c0,0,25.9-38.83,29.22-44.37c3.33-5.55,0.54-35.77-2.52-43.52c-3.05-7.77-23.39-73.77-23.39-73.77s-16.63-50.7-1.64-62.35
			c13.03-10.14,48.54-13.75,54.92-15.98C274.31,930.07,292.86,929.09,305.9,931.03z"/>
	</g>
</g>
<g>
	<g>
		<path class="st6" d="M312.3,975.53l12.12-14.21l-10.55-37.39C313.87,923.92,310.34,944.75,312.3,975.53z"/>
	</g>
</g>
<g>
	<g>
		<path class="st3" d="M315.41,907.99c0,0-0.54,5-1.19,11.93c-0.28,3.07-0.58,6.51-0.87,10.07c-0.81,10.09-1.46,21-1.07,26.55
			c0,0-20.73,20.8-44.35-24.24c0,0,9.92-18.57,2.43-43.88C262.88,863.13,315.41,907.99,315.41,907.99z"/>
	</g>
</g>
<g>
	<g>
		<polygon class="st3" points="312.29,956.53 312.3,975.53 288.41,957.7 		"/>
	</g>
</g>
<g>
	<g>
		<polygon class="st6" points="312.3,975.53 302.38,963.26 268.97,930 258.18,940.42 		"/>
	</g>
</g>
<g>
	<g>
		<path class="st2" d="M264.34,933.19c0,0,28.04,42.51,29.39,61.22c1.35,18.71-10.33,158.72-19.71,203.72
			c-9.39,45-77.41-5.04-77.41-5.04s45.65-73.98,28.08-133.19c-17.57-59.21-23.96-82.89-23.96-82.89s6.02-32.98,27.4-37.62
			C246.88,935.31,264.34,933.19,264.34,933.19z"/>
	</g>
</g>
<g>
	<g>
		<path class="st2" d="M373.21,996.56c0,0,5.06,17.88-14.6,57.42c0,0,0.34,50.59,0.9,66.39c0.56,15.8,11.77,72.63,11.77,72.63
			l-26.89,14.34c-3.92,2.3-8.78-0.89-8.23-5.39c5.49-45.49,23.34-218.01-15.44-264.36l15.55,4.58
			C336.26,942.16,363.9,964.75,373.21,996.56z"/>
	</g>
</g>
<g>
	<g>
		<polygon class="st7" points="324.42,961.31 339.71,965.53 313.87,923.92 		"/>
	</g>
</g>
<g>
	<g>
		<polygon class="st7" points="302.38,963.26 288.43,981.57 259.74,933.8 268.97,930 		"/>
	</g>
</g>
<g>
	
		<rect x="340.64" y="1029.22" transform="matrix(0.7842 -0.6205 0.6205 0.7842 -583.0945 441.441)" class="st8" width="5.05" height="59.78"/>
</g>
<g>
	<path class="st3" d="M320.36,1078.83c0,0,3.54,0.06,5.87-1.7c4.02-3.03,5.47-10.5,12.57-9.96c7.1,0.54,10.4,22.8,8.63,27.02
		c-1.77,4.21-11.63,6.33-26.2,3.43C306.64,1094.72,320.36,1078.83,320.36,1078.83z"/>
</g>
<g>
	<path class="st3" d="M336.36,1067.32c0,0,10.2-3.48,21.98-6.03c10.33-2.24,22.68-2.98,23.89-1.19c1.34,2-10.07,3.73-20.19,6.61
		c-9.32,2.65-7.1,3.62-7.1,3.62s-0.61-0.3,10.03-1.31c11.44-1.07,23.23-1.06,24.4,1.23c0.56,1.11,0.17,1.86-3.95,2.91
		c2.48-0.12,2.83,0.53,2.92,1.52c0.49,5.15-16.2,9.27-22.83,10.9c5.1-1.22,8.95-1.6,7.12,1.86c-2.1,3.95-25.92,8.74-34.32,11.24
		C329.14,1101.41,336.36,1067.32,336.36,1067.32z"/>
</g>
<g>
	<path class="st2" d="M232.08,940.15c-7.02-2.27-27.63,5.05-31.1,26.18c-3.47,21.13-4.85,44.59-8.1,55.97
		c-3.25,11.38-11.5,61.8-4.53,65.97c6.97,4.18,20.16,7.99,38.67,7.98c19.11-0.01,93.21,3.27,93.21,3.27l4.63-26.32
		c0,0-28.14-1.44-42.72-3.64c-12.98-1.97-30.97-7.48-52.15-9.79c0,0,4.47-31.23,7.72-40.05
		C240.95,1010.89,263.67,950.35,232.08,940.15z"/>
</g>
<g>
	<polygon class="st9" points="367.67,1075.2 371.15,1083.67 363.71,1078.35 	"/>
</g>
<g>
	<g>
		<polygon class="st10" points="326.92,1119.36 401.56,1104.56 456.91,986.12 377.25,994.49 		"/>
	</g>
</g>
<g>
	<g>
		<g>
			<path class="st3" d="M410.8,1084.43c0,0,4.09-3.8,7.73-9.13c3.64-5.32,15.56-25.63,14.47-26.9c-1.09-1.28-18.8-1.7-22.01,1.19
				c-3.21,2.89,3.16,4.02,3.16,4.02s-9.68,1-8.99,3.73c0.69,2.73,6.52,1.98,6.52,1.98s-7.79,1.5-6.61,3.89
				c1.18,2.4,4.93,2.37,4.93,2.37s-6.9,0.87-6.05,3.49c0.86,2.62,11.78,5.08,10.32,7.27C412.82,1078.52,410.8,1084.43,410.8,1084.43
				z"/>
		</g>
	</g>
</g>
<g>
	<g>
		<g>
			<g>
				<path class="st3" d="M322.43,792.93c0,0,46.52,14.59,21.31,94.87c-25.21,80.28-88.78-9.26-82.16-58.17
					C268.2,780.73,322.43,792.93,322.43,792.93z"/>
			</g>
		</g>
	</g>
</g>
<g>
	<g>
		<g>
			<g>
				<path class="st1" d="M348.47,839.75c0,0-23.1,22.69-61.78,25.55c0,0-14.85,17.44-15.99,24.28c0,0-34.54-58.8,7.86-94.09
					C320.96,760.21,364.05,825.21,348.47,839.75z"/>
			</g>
		</g>
	</g>
</g>
<g>
	<g>
		<g>
			<g>
				<path class="st3" d="M287.16,866.89c-0.3-5.84-3.91-19.13-12.59-15.41c-8.68,3.73,0.55,30.79,6.31,29.13
					C280.88,880.61,287.87,880.71,287.16,866.89z"/>
			</g>
		</g>
	</g>
</g>
<g>
	<path class="st11" d="M314.23,919.91c-0.28,3.07-0.58,6.51-0.87,10.07h-0.01c-26.9-13.26-31.03-32.41-31.15-33
		C301.38,921.73,314.23,919.91,314.23,919.91z"/>
</g>
<g>
	<path class="st12" d="M2454.05,452.03v721.05c0,47.65-38.63,86.29-86.28,86.29h-474.65V365.76h474.65
		C2415.42,365.76,2454.05,404.38,2454.05,452.03z"/>
</g>
<g>
	<g>
		<path class="st3" d="M932.92,853.19c0,0,47.62,8.5,48.04,48.83c0.42,40.33-36.47,98.74-60.46,94.42
			c-23.98-4.32-51.25-25.61-50.33-50.14c0.93-24.53,7.72-56.76,18.78-74.45C900.01,854.15,919.62,852.31,932.92,853.19z"/>
	</g>
</g>
<g>
	<g>
		<path d="M871.84,927.62c0,0,0.09,8.23,16.47,14.75c16.38,6.52,46.47-2.61,54.03-1.09c7.56,1.51,9.79-2.13,9.79-2.13l0.53,8.05
			l6.4,4.35c0,0,4.49-21.43,17.94-23.29c13.45-1.87,24.67-63.37-33.35-75.01c0,0-42.95-11.67-54.03,10.13
			C878.54,885.17,869.76,912.27,871.84,927.62z"/>
	</g>
</g>
<g>
	<path class="st3" d="M1021.66,1169.16c0,0,4.67-0.61,7.39-3.38c4.69-4.78,5.12-14.88,14.56-15.56
		c9.44-0.68,18.15,27.94,16.64,33.83c-1.51,5.88-14.05,10.6-33.78,9.65C1006.75,1192.75,1021.66,1169.16,1021.66,1169.16z"/>
</g>
<g>
	<path class="st3" d="M1040.44,1150.9c0,0,12.73-6.58,27.71-12.24c13.15-4.97,29.4-8.51,31.17-6.25
		c3.92,5.02-11.41,8.56-24.15,14.34c-11.74,5.31-9.72,4.46-9.72,4.46s-0.87-0.29,12.93-3.69c14.83-3.66,30.34-5.95,32.31-3.17
		c0.96,1.35,2.69,6.06-3.53,5.87c3.24-0.63,2.73-1.13,3.05,0.16c1.66,6.68-19.48,15.36-27.87,18.81c6.46-2.61,11.45-3.86,9.72,1.05
		c-1.98,5.61-32.35,16.58-42.91,21.52C1037.63,1197.13,1040.44,1150.9,1040.44,1150.9z"/>
</g>
<g>
	<path class="st2" d="M814.91,971.95c0,0-29.76-2.15-50.76,0c-21,2.15-50.02,19.33-67.58,24.29c-17.56,4.96-59.94,33.44-58.8,37.34
		c1.14,3.9,17.56,50.24,47.92,87.9C711.67,1153.7,814.91,971.95,814.91,971.95z"/>
</g>
<g>
	<path class="st13" d="M750.7,990.62c0,0-32.08,23.75-43.25,45.52c-11.17,21.76-14.98,47.69-14.98,47.69L750.7,990.62z"/>
</g>
<g>
	<path class="st14" d="M775.01,1697.91c0,0,9.17,9.74,14.46,12.32c5.3,2.58,68.58,13.46,72.88,18.61
		c4.29,5.16,4.29,25.49-12.03,25.49c-16.32,0-70.73-0.29-79.89,0c-9.16,0.28-47.87,8.02-51.85,0c-3.98-8.01-3.62-45.44,3.46-54.4
		C729.11,1690.95,775.01,1697.91,775.01,1697.91z"/>
</g>
<g>
	<path class="st15" d="M773.06,1686.55l1.95,11.36c0,0-16.89,7.73-52.98,2.01v-11.75L773.06,1686.55z"/>
</g>
<g>
	<path class="st14" d="M370.49,1672.05c0,0-7.09,8.23-10.59,18.9c-2.24,6.83-12.89,38.66-8.31,46.39
		c4.58,7.74,40.66,8.88,58.71,6.02c18.04-2.86,57.27,3.15,61.28-4.58c4.01-7.73,6.3-19.01-5.44-23.4
		c-11.74-4.38-38.66-15.84-43.53-27.87C417.74,1675.48,370.49,1672.05,370.49,1672.05z"/>
</g>
<g>
	<path class="st15" d="M427.76,1674.63l-5,12.88c0,0-51.69-3.88-52.12-15.46l16.32-23.77L427.76,1674.63z"/>
</g>
<g>
	<g>
		<g>
			<path class="st3" d="M870.25,950c0,0-28.81,24.47-37.01,22.47c-8.2-2,28.26,51.76,28.26,51.76s34.71-34.17,42.53-35.2
				C911.85,988,870.25,950,870.25,950z"/>
		</g>
	</g>
</g>
<g>
	<path class="st2" d="M872.21,1046.63c-9.81,5.93-11.46,7.83-10.31,35.9c1.14,28.06,12.79,50.68,13.65,58.42
		c0.86,7.73,16.45,84.42,20.74,88.72c4.29,4.29,55.63-5.71,66.02-8.93c15.54-4.82,81.33-27.1,81.33-27.1l-14.47-30.18
		c0,0-83.04,18.52-85.72,12.03c-2.67-6.49-9.17-61-11.47-72.84c-2.29-11.84,1.7-30.44-12.44-58.52
		C906.88,1019,872.21,1046.63,872.21,1046.63z"/>
</g>
<g>
	<path d="M774.83,1257.78c0,0,17.6,18.72,22.53,24.81c33.71,41.66,79.61,118.17,85.33,131.54c5.73,13.36-28.37,107.87-42.38,140.88
		c-7.35,17.32-55.94,136.6-54.41,139.27c1.53,2.67-51.4,4.44-75.07-7.78c0,0,34.04-100.84,41.2-120.61
		c10.83-29.86,48.37-112.56,49.52-120.57c1.14-8.02-60.69-74.14-81.31-86.74c-20.62-12.6-71.01-57.27-76.74-63
		c-5.73-5.73-38.18-21-35.13-50.02c3.06-29.02,24.63-51.92,24.63-51.92L774.83,1257.78z"/>
</g>
<g>
	<path d="M670.56,1349.36c0,0-3.22,8.47-7.74,20.36c-9.71,25.5-25.41,66.67-28.02,73.18c-3.81,9.55-22.91,50.78-32.07,58.81
		c-9.16,8.01-159.97,188.99-160.36,190.52c-0.37,1.53-56.5-27.5-59.94-38.57c0,0,81.7-106.53,94.3-122.17
		c12.6-15.66,38.94-38.94,47.73-75.98c8.78-37.04,71.76-179.45,71.96-184.8c0,0,10.14-43.9,24.83-57.27
		c14.7-13.37,68.16,2.29,76.55,30.16C706.2,1271.47,670.56,1349.36,670.56,1349.36z"/>
</g>
<g>
	<path class="st16" d="M830.64,972.22l12.17-4.8c0,0,30.74,7.06,48.49,31.69l-1.53,7.36C889.77,1006.47,842.9,996.3,830.64,972.22z"
		/>
</g>
<g>
	<path class="st17" d="M877.56,1151.49c-2.47,3.44-4.47,5.89-5.74,7.02c-0.87,0.75-1.92,1.63-3.14,2.62
		c-0.01,0.01-0.02,0.01-0.02,0.01l-1.16-46.19c0,0,5.79,17.8,6.65,20.43C875.03,1138.04,877.56,1151.49,877.56,1151.49z"/>
</g>
<g>
	<path d="M682.31,1329.57c0,0-3.22,8.47-7.74,20.36c-10.26-11.82-33.69-56.46-33.69-56.46c1.53,1.09,6.43,5.69,7.56,6.71
		C649.56,1301.21,682.31,1329.57,682.31,1329.57z"/>
</g>
<g>
	<g>
		<path class="st3" d="M944.6,937.64c1.08-3.5-1.53-16.87-10.07-9.26c-8.53,7.62-8.5,24.67-3.68,26.06
			C935.67,955.84,941.86,946.52,944.6,937.64z"/>
	</g>
</g>
<g>
	<g>
		<path d="M912.69,862.57c0,0-41.32-29.38-41.55,70.81L912.69,862.57z"/>
	</g>
</g>
<g>
	<path class="st2" d="M877.56,1151.49c-2.47,3.44-4.47,5.89-5.74,7.02c-0.87,0.75-1.92,1.63-3.14,2.62
		c-0.01,0.01-0.02,0.01-0.02,0.01c-11.66,9.32-37.82,27.46-49.91,34.02c-13.37,7.27-38.71,68.4-38.71,68.4
		s-119.56-8.07-147.05-69.91c0,0,19.47-43.53,37.23-69.3c17.75-25.77,56.7-118.56,77.32-131.73c20.62-13.17,38.37-21.77,79.04-20.62
		c40.66,1.15,63.19,33.41,63.19,33.41s30.93,33.22,33.97,50.79C926.38,1071.29,892.81,1130.25,877.56,1151.49z"/>
</g>
<g>
	<path class="st18" d="M1774.89,1039.74h-173.47c-0.94,0-1.7-0.76-1.7-1.7v-43.77c0-0.94,0.76-1.7,1.7-1.7h173.47
		c0.94,0,1.7,0.76,1.7,1.7v43.77C1776.59,1038.98,1775.83,1039.74,1774.89,1039.74z"/>
</g>
<g>
	<path class="st12" d="M1774.9,1116.62h-173.47c-0.94,0-1.7-0.76-1.7-1.7v-43.76c0-0.94,0.76-1.7,1.7-1.7h173.47
		c0.94,0,1.7,0.76,1.7,1.7v43.76C1776.59,1115.86,1775.83,1116.62,1774.9,1116.62z"/>
</g>
<g>
	<path class="st19" d="M1774.9,1193.5h-173.47c-0.94,0-1.7-0.76-1.7-1.7v-43.76c0-0.94,0.76-1.7,1.7-1.7h173.47
		c0.94,0,1.7,0.76,1.7,1.7v43.76C1776.59,1192.74,1775.83,1193.5,1774.9,1193.5z"/>
</g>
<g>
	<g>
		<path class="st20" d="M2421.73,1134.58c0,0,85.6,27.62,105.36,22.76c10.45-2.58,26.78-17.39,41.96-33.36
			c2.51-2.65,4.98-5.33,7.41-7.98c16.73-18.41,30.41-35.96,30.41-35.96s41.46-48.59,8.19-70.25c0,0-14.68,1.38-25.77,13.27
			c-11.09,11.88-21.5,30.83-24.4,37.17c-2.9,6.34-43.62,65.07-45.74,66.39c-2.11,1.32-19.9-3.36-34.16-4.54
			c-23.27-1.94-58.08-13.8-58.08-13.8L2421.73,1134.58z"/>
	</g>
</g>
<g>
	<path class="st21" d="M2539.4,1661.94c0,0-10.89,19.49-17.37,23.44c-8.06,4.92-23.71,20.7-29.18,21.43
		c-5.46,0.72-25.1,4.21-21.31,15.3c3.11,9.1,49.97,7.79,55.25,3.23c5.29-4.55,21.09-20.9,27.47-20.53
		c6.38,0.37,4.01,23.58,4.01,23.58h6.92c0,0,2.42-22.59,2.71-26.48c0.86-11.49-7.33-19.95-7.69-26.51
		c-0.37-6.56-0.74-11.45-0.74-11.45L2539.4,1661.94z"/>
</g>
<g>
	<path class="st3" d="M2494.43,1706.28c0,0,15.44,5.33,27.33-1.5c11.88-6.83,34.7-17.21,42.77-17.28c0,0-4.4-13.46-4.49-14.96
		c-0.09-1.51-0.57-8.59-0.57-8.59l-19.95-3.2c0,0-12.94,18.99-18.64,23.47C2515.18,1688.69,2500.57,1699.84,2494.43,1706.28z"/>
</g>
<g>
	<path class="st3" d="M2727.73,1680.27c0,0-1.93,13.48-4.03,17.16c-2.1,3.68-7.88,22.42-10.51,25.92c-2.63,3.51-8.41,29.78,0,32.93
		c8.41,3.15,28.2,8.41,34.85-2.1c6.66-10.51,7.53-21.02,6.48-29.07c-1.05-8.06-9.04-45.03-8.93-48.69
		C2745.7,1672.76,2727.73,1680.27,2727.73,1680.27z"/>
</g>
<g>
	<path class="st21" d="M2716.55,1716.08c0,0-0.91,20.41,14.5,20.41c15.42,0,22.24-18.57,22.24-18.57s5.25,9.12,0,28.55
		c-5.25,19.45-27.14,15.42-32.05,14.71C2716.34,1760.49,2693.1,1754.33,2716.55,1716.08z"/>
</g>
<g>
	<path d="M2702.3,1215.31c0,0,19.93,25.39,26.96,42.18s18.74,53.61,17.18,82.13c-1.56,28.51-10.94,82.03-8.2,94.13
		c2.73,12.11,5.46,37.1,8.4,45.7c2.93,8.6,14.65,33.59,15.82,59.37c1.17,25.78-8.34,138.87-7.56,149.42
		c0.78,10.54-34.13,4.1-34.13,4.1s-0.89-101.95-4.79-119.52c-3.91-17.58-8.6-77.35-12.11-81.64c-3.51-4.29-13.38-49.61-14.01-57
		c-0.61-7.16-42.41-131.04-44.74-152.13c-2.35-21.09-54.67-66.73-54.67-66.73S2641.76,1195.68,2702.3,1215.31z"/>
</g>
<g>
	<path d="M2572.51,1667.53c7.43-1.17,27.31-115.43,24.96-135.74c-2.35-20.31-4.69-63.61,1.96-81.22
		c4.36-11.55,31.58-70.33,49.9-111.6c2.58-5.83,4.99-11.3,7.13-16.25c5.81-13.42,9.66-22.94,9.76-24.9
		c0.4-7.81,25.86-142.38-74.76-82.51c0,0-1.02,10.64-2.19,14.54c-1.18,3.9-28.13,103.51-30.86,141.79
		c-2.74,38.28-9.77,70.74-10.94,78.93c-1.17,8.18,1.17,35.52,3.51,42.55c2.34,7.03-15.24,165.77-16.41,169.68
		C2533.41,1666.72,2565.1,1668.7,2572.51,1667.53z"/>
</g>
<g>
	<g>
		<path class="st5" d="M2630.93,1002.69c0,0-19.04,8.99-25.65,10.31c-6.61,1.32-32.26,34.63-36.77,46.79
			c-4.5,12.16-0.01,30.41,9.24,51.83c9.25,21.42,0.52,28.56,4.75,49.98c4.23,21.41,7.92,66.76,7.12,78.66
			c-0.8,11.9,106.94,14.17,131.54-7.5c0,0-24.7-37.02-27.87-42.31c-3.17-5.29-0.52-34.11,2.39-41.51
			c2.91-7.41,23.53-68.56,23.53-68.56s14.61-50.15,0.3-61.26c-12.42-9.65-46.29-13.1-52.37-15.21
			C2661.05,1001.77,2643.36,1000.85,2630.93,1002.69z"/>
	</g>
</g>
<g>
	<g>
		<path class="st6" d="M2624.84,1045.13l-11.56-13.54l10.05-35.67C2623.33,995.92,2626.7,1015.78,2624.84,1045.13z"/>
	</g>
</g>
<g>
	<g>
		<path class="st3" d="M2621.85,980.72c0,0,3.79,34.93,3,46.3c0,0,19.77,19.83,42.28-23.13c0,0-9.46-17.71-2.34-41.85
			C2671.93,937.92,2621.85,980.72,2621.85,980.72z"/>
	</g>
</g>
<g>
	<g>
		<polygon class="st3" points="2624.85,1027.02 2624.84,1045.13 2647.61,1028.13 		"/>
	</g>
</g>
<g>
	<g>
		<polygon class="st6" points="2624.84,1045.13 2634.3,1033.43 2666.14,1001.7 2676.44,1011.63 		"/>
	</g>
</g>
<g>
	<g>
		<path class="st20" d="M2661.41,1257.42c8.96,42.92,73.82-4.83,73.82-4.83s-42.05-70.66-25.31-127.14c0.13-0.45,0.26-0.89,0.4-1.34
			c1.07-3.57,2.13-6.96,3.2-10.19c0.19-0.58,0.38-1.17,0.57-1.74c3.65-11.1,6.64-20.28,9.06-27.84v-0.01
			c7.48-23.24,9.64-30.9,9.64-30.9s-3.2-36.18-21.07-40.15c-17.94-3.98-36.9-7.73-36.9-7.73s-30.98,39.72-32.26,57.58
			C2641.27,1080.98,2652.45,1214.49,2661.41,1257.42z"/>
	</g>
</g>
<g>
	<g>
		<path class="st20" d="M2565.86,1068.01c0,0-2.01,24.61,14.89,56.92c0,0-0.36,43.27-0.89,58.34c-0.53,15.07-4.12,72.05-4.12,72.05
			l18.57,10.89c3.74,2.19,8.37-0.84,7.85-5.15c-5.25-43.37-22.31-207.9,14.65-252.11l-16.47,5.69
			C2600.34,1014.64,2565.86,1050.8,2565.86,1068.01z"/>
	</g>
</g>
<g>
	<g>
		<polygon class="st7" points="2613.28,1031.58 2598.7,1035.6 2623.33,995.92 		"/>
	</g>
</g>
<g>
	<g>
		<polygon class="st7" points="2634.3,1033.43 2647.6,1050.89 2674.82,1005.56 2666.14,1001.7 		"/>
	</g>
</g>
<g>
	<path class="st3" d="M2635.63,867.99c-13.93-1.34-45.23,4.21-51.76,40.99c0,0,0.64,10.03,2.69,17.99
		c2.05,7.95-6.08,30.73-4.29,31.96c1.77,1.22,9.28,3.05,9.28,3.05s6.95,25.63,15.82,25.83c8.87,0.21,42.76-5.12,60.06-35.79
		C2684.72,921.36,2691.89,873.4,2635.63,867.99z"/>
</g>
<g>
	<path class="st22" d="M2583.87,908.98c0,0,21.93,16.53,44.28,20.72c22.35,4.19,34.44,43.07,34.44,43.07s37.48-56.33,11.52-92.41
		C2648.14,844.3,2581.03,865.62,2583.87,908.98z"/>
</g>
<g>
	<path class="st3" d="M2637.55,929.12c0.33-4.35,5.49-10.66,12.34-4.36c6.85,6.29-3.73,26.54-9.48,24.23
		C2634.66,946.68,2637.21,933.61,2637.55,929.12z"/>
</g>
<g>
	<path class="st11" d="M2621.8,985.77c0.51,2.71,1.02,5.89,1.45,9.25c18.75-10.7,28.58-24.31,28.58-24.31
		C2640.98,979.62,2621.8,985.77,2621.8,985.77z"/>
</g>
<g>
	<path class="st23" d="M2229.03,1164.61l86.52,0.43c1.53,0.01,2.77-1.22,2.78-2.75l0.01-3.22c0.01-1.53-1.22-2.78-2.75-2.78
		l-86.52-0.43c-1.53-0.01-2.77,1.22-2.78,2.75l-0.01,3.23C2226.27,1163.36,2227.5,1164.61,2229.03,1164.61z"/>
</g>
<g>
	<g>
		<path class="st3" d="M2539.89,1145.31c0,0-3.28,0.76-5.79-0.41c-4.34-2.03-7.16-8.69-13.66-6.78c-6.5,1.91-5.17,23.26-2.67,26.83
			c2.48,3.57,12.07,3.58,25.04-1.99C2555.78,1157.38,2539.89,1145.31,2539.89,1145.31z"/>
	</g>
	<g>
		<path class="st3" d="M2522.73,1137.78c0,0-10.18-1.22-21.63-1.27c-10.05-0.04-21.68,1.71-22.45,3.62
			c-0.85,2.12,10.1,1.47,20.08,2.15c9.18,0.63,7.32,1.97,7.32,1.97s0.51-0.41-9.59,0.76c-10.86,1.26-21.81,3.61-22.44,5.96
			c-0.31,1.15,0.2,1.77,4.25,1.93c-2.33,0.38-2.53,1.05-2.42,1.99c0.56,4.89,16.89,5.42,23.38,5.62c-4.98-0.13-8.64,0.28-6.25,3.13
			c2.73,3.26,25.83,3,34.13,3.67C2536.19,1168.04,2522.73,1137.78,2522.73,1137.78z"/>
	</g>
</g>
<g>
	<path class="st22" d="M2658.48,921.31c-6.85,15.59-2.71,32.49,9.25,37.75c11.96,5.26,27.21-3.12,34.06-18.71
		c6.85-15.59,2.71-32.5-9.25-37.75C2680.58,897.34,2665.32,905.72,2658.48,921.31z"/>
</g>
<g>
	<g>
		<path class="st20" d="M2715.36,1014.64c0,0-17.74,3.27-26.52,16.95c-8.77,13.68-17.75,33.15-19.47,39.91
			c-1.71,6.76-34.99,68.79-36.83,70.47c-1.84,1.68-20.19,0.28-34.42,1.67c-23.24,2.27-59.61-3.13-59.61-3.13l-0.36,26.79
			c0,0,89.19,11.79,107.74,3.44c22.69-10.2,77.61-86.89,77.61-86.89S2751.98,1029.96,2715.36,1014.64z"/>
	</g>
</g>
<g>
	<path class="st20" d="M2679.32,1140.03l34.76-27.84c3.65-11.1,6.64-20.28,9.06-27.84
		C2723.14,1084.35,2687.9,1130.51,2679.32,1140.03z"/>
</g>
<g>
	<path class="st20" d="M2569.05,1123.98c2.51-2.65,4.98-5.33,7.41-7.98c0,0-9.42-25.04-10.04-35.64
		C2566.41,1080.36,2564.21,1104.04,2569.05,1123.98z"/>
</g>
<g>
	<g>
		<rect x="1163.23" y="215.39" class="st0" width="6.31" height="755.6"/>
	</g>
	<g>
		<rect x="700.2" y="759.06" class="st0" width="521.64" height="6.32"/>
	</g>
	<g>
		<path class="st12" d="M2464.54,1356.08H1440.42c-47.54,0-86.22-40.41-86.22-90.08V544.95c0-49.66,38.68-90.06,86.22-90.06h1024.12
			c47.54,0,86.22,40.4,86.22,90.06v721.06C2550.76,1315.68,2512.08,1356.08,2464.54,1356.08z M1440.42,462.46
			c-43.36,0-78.64,37-78.64,82.48v721.06c0,45.48,35.28,82.49,78.64,82.49h1024.12c43.36,0,78.64-37.01,78.64-82.49V544.95
			c0-45.48-35.28-82.48-78.64-82.48H1440.42z"/>
	</g>
	<g>
		<path class="st24" d="M2668.14,289.95c-5.21-20.15-13.19-39.17-23.51-56.67l23.92-35.99l-33.19-33.19l-33.19-33.19l-35.99,23.93
			c-17.5-10.31-36.52-18.3-56.67-23.5L2501,89h-46.95h-46.94l-8.52,42.33c-20.14,5.21-39.18,13.19-56.67,23.5l-35.98-23.93
			l-33.19,33.19l-33.19,33.19l23.92,35.99c-10.31,17.49-18.3,36.52-23.5,56.67l-42.33,8.52v46.95v46.95l42.33,8.52
			c5.21,20.15,13.19,39.18,23.5,56.67l-23.92,35.99l33.19,33.19l33.19,33.2l35.98-23.93c17.49,10.31,36.52,18.3,56.67,23.5
			l8.52,42.33h46.94H2501l8.52-42.33c20.15-5.2,39.17-13.19,56.67-23.5l35.99,23.93l33.19-33.2l33.19-33.19l-23.92-35.99
			c10.32-17.49,18.3-36.52,23.51-56.67l42.33-8.52v-46.95v-46.95L2668.14,289.95z M2454.05,509.92c-90.85,0-164.5-73.65-164.5-164.5
			c0-90.85,73.65-164.5,164.5-164.5c90.86,0,164.5,73.65,164.5,164.5C2618.55,436.27,2544.91,509.92,2454.05,509.92z"/>
	</g>
	<g>
		<path class="st25" d="M2454.05,452.03v721.05c0,47.65-38.63,86.29-86.28,86.29H1295.68c-47.66,0-86.29-38.64-86.29-86.29V452.03
			c0-47.66,38.63-86.28,86.29-86.28h1072.08C2415.42,365.76,2454.05,404.38,2454.05,452.03z"/>
	</g>
	<g>
		<g>
			<path class="st0" d="M1786.64,591.42c-38.23-106.88-140.38-172.53-248.04-169.3c-26.06,0.78-52.45,5.6-78.34,14.86
				c-78.42,28.05-134.65,90.52-157.75,164.31c-16.01,51.14-16.11,107.73,3.33,162.08c1.93,5.4,4.03,10.72,6.29,15.92
				c10.23,23.54,23.64,44.84,39.58,63.56c66.81,78.55,177.68,111.74,280.52,74.97C1764.99,870.32,1834.13,724.19,1786.64,591.42z
				 M1610.7,857.64c-77.11,27.58-160.22,2.69-210.32-56.19c-11.94-14.03-22.01-30-29.66-47.66c-1.69-3.9-3.27-7.88-4.72-11.94
				c-14.57-40.75-14.49-83.17-2.49-121.51c17.32-55.34,59.47-102.17,118.27-123.19c19.41-6.94,39.19-10.55,58.73-11.15
				c80.71-2.44,157.31,46.79,185.97,126.93C1762.08,712.48,1710.24,822.03,1610.7,857.64z"/>
		</g>
		<g>
			<path class="st26" d="M1363.5,620.34l-61-19.05c23.1-73.79,79.33-136.26,157.75-164.31c25.9-9.26,52.28-14.08,78.34-14.86
				l1.9,63.88c-19.54,0.6-39.33,4.21-58.73,11.15C1422.98,518.17,1380.82,565,1363.5,620.34z"/>
		</g>
		<g>
			<path class="st19" d="M1370.72,753.78l-58.6,25.5c-2.25-5.19-4.35-10.51-6.29-15.92c-19.44-54.35-19.34-110.94-3.33-162.08
				l61,19.05c-12,38.34-12.08,80.76,2.49,121.51C1367.45,745.9,1369.02,749.89,1370.72,753.78z"/>
		</g>
		<g>
			<path class="st12" d="M1351.7,842.84c-15.94-18.72-29.35-40.01-39.58-63.56l58.6-25.5c7.66,17.65,17.72,33.62,29.66,47.66
				L1351.7,842.84z"/>
		</g>
	</g>
	<g>
		<g>
			<path class="st27" d="M1367.59,1210c52,24.6,112.13,11.53,149.55-28.22c9.06-9.62,16.79-20.8,22.75-33.4
				c18.04-38.15,15.81-80.69-2.36-115.41c-12.59-24.06-32.83-44.38-59.27-56.88c-2.63-1.25-5.29-2.4-7.95-3.46
				c-12.1-4.77-24.54-7.59-36.96-8.59c-52.09-4.21-103.71,23.62-127.39,73.66C1275.4,1102.29,1302.99,1179.43,1367.59,1210z
				 M1335.24,1051.55c17.75-37.52,56.45-58.38,95.5-55.23c9.31,0.75,18.64,2.86,27.71,6.45c2,0.78,3.99,1.65,5.97,2.58
				c19.83,9.38,35,24.61,44.43,42.66c13.62,26.03,15.3,57.92,1.76,86.52c-4.47,9.45-10.26,17.83-17.05,25.05
				c-28.05,29.79-73.14,39.6-112.13,21.16C1333.01,1157.81,1312.32,1099.98,1335.24,1051.55z"/>
		</g>
		<g>
			<path class="st26" d="M1508.85,1048.01l28.68-15.04c18.17,34.72,20.4,77.26,2.36,115.41c-5.96,12.59-13.69,23.77-22.75,33.4
				l-23.57-22.2c6.79-7.22,12.58-15.6,17.05-25.05C1524.15,1105.93,1522.47,1074.04,1508.85,1048.01z"/>
		</g>
		<g>
			<path class="st19" d="M1458.45,1002.77l11.86-30.14c2.67,1.05,5.33,2.21,7.95,3.46c26.44,12.51,46.68,32.82,59.27,56.88
				l-28.68,15.04c-9.44-18.04-24.61-33.28-44.43-42.66C1462.44,1004.42,1460.45,1003.55,1458.45,1002.77z"/>
		</g>
		<g>
			<path class="st12" d="M1433.35,964.04c12.42,1,24.86,3.82,36.96,8.59l-11.86,30.14c-9.07-3.59-18.4-5.7-27.71-6.45
				L1433.35,964.04z"/>
		</g>
	</g>
	<g>
		<path class="st28" d="M2380.34,503.89h-413.52c-0.9,0-1.63-0.73-1.63-1.63v-42.15c0-0.9,0.73-1.63,1.63-1.63h413.52
			c0.9,0,1.63,0.73,1.63,1.63v42.15C2381.97,503.16,2381.24,503.89,2380.34,503.89z"/>
	</g>
	<g>
		<path class="st29" d="M2380.34,601.29h-413.52c-0.9,0-1.63-0.73-1.63-1.63v-42.15c0-0.9,0.73-1.63,1.63-1.63h413.52
			c0.9,0,1.63,0.73,1.63,1.63v42.15C2381.97,600.56,2381.24,601.29,2380.34,601.29z"/>
	</g>
	<g>
		<path class="st27" d="M2376.5,1181.05h-405.82c-3.02,0-5.47-2.45-5.47-5.47V673.06c0-3.02,2.45-5.47,5.47-5.47h405.82
			c3.02,0,5.47,2.45,5.47,5.47v502.52C2381.97,1178.6,2379.52,1181.05,2376.5,1181.05z"/>
	</g>
	<g class="st30">
		<path class="st31" d="M2079.35,1026.3h-134.54c-3.72,0-6.73-3.01-6.73-6.73v-367.1c0-3.72,3.01-6.73,6.73-6.73h134.54
			c3.72,0,6.73,3.01,6.73,6.73v367.1C2086.07,1023.28,2083.06,1026.3,2079.35,1026.3z"/>
	</g>
	<g>
		<rect x="974.3" y="324.47" class="st0" width="951.15" height="6.32"/>
	</g>
	<g>
		<path class="st12" d="M1069.56,272.24c-28.11,0-50.98-22.87-50.98-50.98c0-28.11,22.87-50.98,50.98-50.98
			c28.11,0,50.98,22.87,50.98,50.98C1120.54,249.37,1097.67,272.24,1069.56,272.24z M1069.56,177.86c-23.93,0-43.4,19.47-43.4,43.4
			c0,23.93,19.47,43.4,43.4,43.4c23.93,0,43.4-19.47,43.4-43.4C1112.96,197.33,1093.49,177.86,1069.56,177.86z"/>
	</g>
	<g class="st32">
		<path class="st33" d="M1274.34,1628.81H805.93c-4.45,0-8.05-3.61-8.05-8.05v-468.42c0-4.45,3.61-8.05,8.05-8.05h468.42
			c4.45,0,8.05,3.61,8.05,8.05v468.42C1282.4,1625.21,1278.79,1628.81,1274.34,1628.81z"/>
	</g>
	<g>
		<path class="st28" d="M1244.86,414.3v270.92c0,26.81-21.73,48.54-48.54,48.54H808.86c-26.81,0-48.54-21.73-48.54-48.54V414.3
			c0-26.81,21.73-48.54,48.54-48.54h387.46C1223.13,365.76,1244.86,387.49,1244.86,414.3z"/>
	</g>
	<g>
		<path class="st28" d="M1243.75,1267.63h-184.91c-0.91,0-1.65-0.74-1.65-1.65v-48.83c0-0.91,0.74-1.65,1.65-1.65h184.91
			c0.91,0,1.65,0.74,1.65,1.65v48.83C1245.4,1266.89,1244.66,1267.63,1243.75,1267.63z"/>
	</g>
	<g>
		<path class="st28" d="M1241.61,1570.35h-180.63c-2.09,0-3.79-1.7-3.79-3.79v-268.65c0-2.09,1.7-3.79,3.79-3.79h180.63
			c2.09,0,3.79,1.7,3.79,3.79v268.65C1245.4,1568.65,1243.7,1570.35,1241.61,1570.35z"/>
	</g>
	<g>
		<g>
			<path class="st28" d="M906.74,1362.46c8.37,2.84,17.33,4.42,26.66,4.54c28.24,0.37,53.51-12.84,69.58-33.55
				c11.14-14.36,17.87-32.33,18.11-51.91c0.03-1.95-0.01-3.89-0.11-5.8c-0.46-8.7-2.21-17.05-5.06-24.89
				c-11.94-32.86-43.24-56.52-80.28-57.01c-19.96-0.26-38.42,6.25-53.21,17.41c-20.66,15.58-34.14,40.19-34.49,68.06
				C847.44,1317.8,872.14,1350.75,906.74,1362.46z M869.59,1279.59c0.27-20.74,10.24-39.09,25.54-50.77
				c11.15-8.52,25.11-13.5,40.21-13.31c27.77,0.35,51.24,18.1,60.19,42.75l0.01,0.03c2.13,5.86,3.43,12.11,3.78,18.62
				c0.07,1.43,0.1,2.88,0.08,4.35c-0.19,14.67-5.24,28.14-13.58,38.91c-12.05,15.54-30.98,25.44-52.16,25.16
				c-7-0.09-13.71-1.28-19.99-3.4C887.75,1333.17,869.23,1308.47,869.59,1279.59z"/>
		</g>
		<g>
			<path class="st26" d="M985.84,1320.17l17.13,13.28c-16.07,20.72-41.33,33.92-69.57,33.56c-9.32-0.13-18.28-1.71-26.66-4.54
				l6.95-20.53c6.28,2.13,12.99,3.31,19.99,3.4C954.85,1345.61,973.79,1335.71,985.84,1320.17z"/>
		</g>
		<g>
			<path class="st19" d="M999.33,1276.91l21.64-1.17c0.1,1.92,0.14,3.86,0.11,5.81c-0.25,19.57-6.98,37.54-18.12,51.91l-17.13-13.28
				c8.35-10.76,13.39-24.24,13.58-38.91C999.44,1279.8,999.41,1278.35,999.33,1276.91z"/>
		</g>
		<g>
			<path class="st19" d="M999.34,1276.92c-0.35-6.51-1.66-12.76-3.78-18.62l-0.01-0.03l20.37-7.41c2.85,7.84,4.6,16.19,5.06,24.89
				L999.34,1276.92z"/>
		</g>
		<g>
			<path class="st12" d="M882.43,1211.26c14.79-11.16,33.25-17.67,53.21-17.41c37.03,0.49,68.34,24.15,80.28,57.01l-20.36,7.44
				l-0.01-0.03c-8.96-24.65-32.43-42.4-60.19-42.75c-15.1-0.19-29.07,4.79-40.21,13.31L882.43,1211.26z"/>
		</g>
	</g>
	<g>
		<path class="st27" d="M1244.86,414.3l-0.84,26.94H759.48l0.84-26.94c0-26.81,21.73-48.54,48.54-48.54h387.46
			C1223.13,365.76,1244.86,387.49,1244.86,414.3z"/>
	</g>
	<g>
		<path class="st0" d="M912.31,702.76h-97.49c-12.6,0-22.85-10.25-22.85-22.84V485.56c0-12.6,10.25-22.84,22.85-22.84h97.49
			c12.6,0,22.85,10.25,22.85,22.84v194.35C935.16,692.51,924.91,702.76,912.31,702.76z M814.82,470.3
			c-8.42,0-15.27,6.85-15.27,15.26v194.35c0,8.42,6.85,15.26,15.27,15.26h97.49c8.42,0,15.27-6.85,15.27-15.26V485.56
			c0-8.42-6.85-15.26-15.27-15.26H814.82z"/>
	</g>
	<g>
		<path class="st0" d="M1207.36,486.72H962.12c-0.61,0-1.1-0.49-1.1-1.1v-18.02c0-0.61,0.49-1.1,1.1-1.1h245.25
			c0.61,0,1.1,0.49,1.1,1.1v18.02C1208.46,486.23,1207.97,486.72,1207.36,486.72z"/>
	</g>
	<g>
		<path class="st0" d="M1207.36,527.78H962.12c-0.61,0-1.1-0.49-1.1-1.1v-18.02c0-0.61,0.49-1.1,1.1-1.1h245.25
			c0.61,0,1.1,0.49,1.1,1.1v18.02C1208.46,527.29,1207.97,527.78,1207.36,527.78z"/>
	</g>
	<g>
		<path class="st28" d="M837.88,406.71c0,11.63-9.43,21.06-21.06,21.06c-11.63,0-21.05-9.43-21.05-21.06
			c0-11.63,9.43-21.05,21.05-21.05C828.45,385.66,837.88,395.08,837.88,406.71z"/>
	</g>
	<g class="st34">
		<path class="st31" d="M2223.03,1221.79l277.99,1.37c15.22,0.07,27.62-12.2,27.7-27.42l0.92-185.49
			c0.07-15.23-12.21-27.63-27.43-27.7l-277.99-1.37c-15.22-0.07-27.62,12.2-27.7,27.43l-0.92,185.49
			C2195.53,1209.31,2207.81,1221.71,2223.03,1221.79z"/>
	</g>
	<g>
		<path class="st23" d="M2346.81,1203.17l141.68,0.7c9.98,0.04,18.11-8.01,18.16-17.98l0.78-157.58c0.05-9.97-8-18.1-17.98-18.16
			l-141.69-0.7c-9.97-0.05-18.11,7.99-18.16,17.98l-0.78,157.57C2328.77,1194.99,2336.83,1203.12,2346.81,1203.17z"/>
	</g>
	<g>
		<path class="st23" d="M2227.96,1203.08l88.55,0.44c0.97,0,1.75-0.77,1.76-1.74l0.13-26.06c0-0.97-0.77-1.75-1.74-1.76l-88.54-0.44
			c-0.97,0-1.75,0.77-1.76,1.74l-0.14,26.06C2226.21,1202.29,2226.99,1203.08,2227.96,1203.08z"/>
	</g>
	<g>
		<g>
			<path class="st29" d="M2305.27,1032.25c-6.09-17.03-22.36-27.48-39.51-26.97c-4.15,0.13-8.35,0.89-12.48,2.37
				c-12.49,4.46-21.45,14.42-25.13,26.17c-2.55,8.15-2.57,17.16,0.53,25.82c0.31,0.86,0.64,1.71,1.01,2.53
				c1.63,3.75,3.77,7.14,6.31,10.12c10.64,12.51,28.3,17.8,44.68,11.94C2301.82,1076.68,2312.83,1053.39,2305.27,1032.25z
				 M2277.25,1074.65c-12.28,4.4-25.52,0.43-33.5-8.95c-1.9-2.24-3.51-4.77-4.73-7.58c-0.27-0.63-0.52-1.26-0.75-1.9
				c-2.32-6.49-2.31-13.25-0.4-19.35c2.76-8.81,9.47-16.27,18.84-19.62c3.09-1.11,6.24-1.68,9.35-1.78
				c12.86-0.38,25.05,7.46,29.62,20.22C2301.35,1051.53,2293.1,1068.99,2277.25,1074.65z"/>
		</g>
		<g>
			<path class="st29" d="M2237.88,1036.86l-9.72-3.04c3.68-11.75,12.63-21.7,25.13-26.17c4.12-1.48,8.33-2.24,12.48-2.37l0.3,10.18
				c-3.11,0.09-6.27,0.67-9.35,1.78C2247.35,1020.58,2240.64,1028.05,2237.88,1036.86z"/>
		</g>
		<g>
			<path class="st29" d="M2239.02,1058.11l-9.33,4.06c-0.37-0.82-0.7-1.67-1.01-2.53c-3.09-8.66-3.08-17.67-0.53-25.82l9.72,3.04
				c-1.91,6.1-1.93,12.86,0.4,19.35C2238.5,1056.85,2238.75,1057.49,2239.02,1058.11z"/>
		</g>
		<g>
			<path class="st29" d="M2236,1072.29c-2.54-2.98-4.68-6.37-6.31-10.12l9.33-4.06c1.22,2.81,2.82,5.35,4.73,7.58L2236,1072.29z"/>
		</g>
	</g>
	<g>
		<g>
			<path class="st29" d="M2259.48,1103.63c-2.5-6.99-9.18-11.29-16.23-11.07c-1.71,0.05-3.44,0.37-5.12,0.97
				c-5.13,1.84-8.81,5.91-10.32,10.75c-1.05,3.34-1.06,7.05,0.22,10.6c0.12,0.35,0.26,0.7,0.41,1.04c0.68,1.54,1.55,2.94,2.59,4.16
				c4.37,5.14,11.63,7.31,18.35,4.9C2258.06,1121.87,2262.58,1112.31,2259.48,1103.63z M2247.96,1121.04
				c-5.04,1.8-10.48,0.18-13.75-3.67c-0.78-0.92-1.44-1.97-1.95-3.12c-0.11-0.25-0.21-0.52-0.3-0.78c-0.96-2.67-0.95-5.44-0.16-7.95
				c1.13-3.62,3.89-6.68,7.73-8.06c1.27-0.45,2.57-0.69,3.84-0.72c5.28-0.16,10.29,3.06,12.17,8.3
				C2257.87,1111.55,2254.48,1118.71,2247.96,1121.04z"/>
		</g>
		<g>
			<path class="st29" d="M2231.8,1105.52l-3.99-1.24c1.51-4.84,5.19-8.91,10.32-10.75c1.69-0.61,3.42-0.93,5.12-0.97l0.12,4.18
				c-1.28,0.03-2.57,0.28-3.84,0.72C2235.69,1098.83,2232.93,1101.9,2231.8,1105.52z"/>
		</g>
		<g>
			<path class="st29" d="M2232.26,1114.25l-3.84,1.67c-0.15-0.34-0.28-0.69-0.41-1.04c-1.28-3.55-1.27-7.26-0.22-10.6l3.99,1.24
				c-0.79,2.51-0.8,5.28,0.16,7.95C2232.06,1113.73,2232.16,1114,2232.26,1114.25z"/>
		</g>
		<g>
			<path class="st29" d="M2231.02,1120.07c-1.04-1.22-1.92-2.62-2.59-4.16l3.84-1.67c0.51,1.15,1.16,2.2,1.95,3.12L2231.02,1120.07z
				"/>
		</g>
	</g>
	<g>
		<rect x="966.78" y="590.41" class="st0" width="29.51" height="108.56"/>
	</g>
	<g>
		<rect x="1008.78" y="579.46" class="st0" width="29.52" height="119.51"/>
	</g>
	<g>
		<rect x="1051.34" y="602.2" class="st0" width="29.51" height="96.77"/>
	</g>
	<g>
		<rect x="1093.91" y="557.35" class="st0" width="29.51" height="141.62"/>
	</g>
	<g>
		<rect x="1138.56" y="571.46" class="st0" width="29.51" height="127.51"/>
	</g>
</g>
</svg>
