<?xml version="1.0" encoding="UTF-8"?>
<svg width="89px" height="91px" viewBox="0 0 89 91" version="1.1" xmlns="http://www.w3.org/2000/svg" xmlns:xlink="http://www.w3.org/1999/xlink">
    <!-- Generator: Sketch 54.1 (76490) - https://sketchapp.com -->
    <title>combination</title>
    <desc>Created with Sketch.</desc>
    <g id="Page-1" stroke="none" stroke-width="1" fill="none" fill-rule="evenodd">
        <g id="Desktop" transform="translate(-179.000000, -753.000000)" fill="#173CF2" fill-rule="nonzero">
            <g id="combination" transform="translate(179.000000, 753.000000)">
                <path d="M8.19962085,72.9479262 L9.20690496,73.6116878 L9.20690496,89.4833333 C9.20689326,89.8855819 9.36855772,90.2713587 9.65633153,90.5557914 C9.94410533,90.8402241 10.3344137,91.0000116 10.7413874,91 L29.1551761,91 C29.5621497,91.0000116 29.9524581,90.8402241 30.2402319,90.5557914 C30.5280057,90.2713587 30.6896702,89.8855819 30.6896585,89.4833333 L30.6896585,63.7 L58.3103415,63.7 L58.3103415,89.4833333 C58.3103298,89.8855819 58.4719943,90.2713587 58.7597681,90.5557914 C59.0475419,90.8402241 59.4378503,91.0000116 59.8448239,91 L78.2586126,91 C78.6655862,91.0000116 79.0558946,90.8402241 79.3436685,90.5557914 C79.6314423,90.2713587 79.7931067,89.8855819 79.793095,89.4833333 L79.793095,73.611665 L80.8002909,72.9479338 C85.9280478,69.577028 89.0066002,63.8915387 88.9999894,57.8046806 L88.9999894,42.4665738 C89.000916,40.9591614 88.2459701,39.5492725 86.9843535,38.7023006 C85.722737,37.8553287 84.1184524,37.6813752 82.7010619,38.2378606 C82.3649754,37.0168667 81.5294915,35.9894298 80.3953505,35.4024105 C79.2612096,34.8153912 77.9309279,34.721851 76.7241302,35.1442645 L76.7241302,7.58333333 C76.7193513,3.39713206 73.2870933,0.00472345049 69.0517183,0 L19.9482817,0 C15.7129067,0.00472345049 12.2806487,3.39713206 12.2758697,7.58333333 L12.2758697,13.65 C12.275858,14.0522486 12.4375225,14.4380254 12.7252963,14.7224581 C13.0130701,15.0068907 13.4033785,15.1666782 13.8103521,15.1666667 L18.052469,15.1666667 C18.48889,15.1666783 18.9046666,14.983002 19.1957447,14.6616053 C19.7781299,14.0186715 20.6096639,13.6508634 21.4827641,13.65 C22.3312019,13.6500168 23.1417852,13.9971598 23.7220147,14.6089886 C24.3022441,15.2208174 24.6003534,16.0427466 24.5455468,16.8795824 C24.4324144,18.4026612 23.2015069,19.6107123 21.6597762,19.7117678 C20.725923,19.7661168 19.818219,19.3952674 19.1957447,18.705069 C18.904668,18.3836695 18.4888912,18.1999903 18.052469,18.2 L13.8103521,18.2 C13.4033785,18.1999884 13.0130701,18.3597759 12.7252963,18.6442086 C12.4375225,18.9286413 12.275858,19.3144181 12.2758697,19.7166667 L12.2758697,35.1442531 C11.0691678,34.7218127 9.73895073,34.8154168 8.60496986,35.4025651 C7.47098898,35.9897134 6.63579724,37.0173066 6.30015415,38.2383365 C4.88270832,37.6813738 3.27812032,37.855021 2.01619202,38.7019434 C0.754263713,39.5488657 -0.000911148644,40.9589344 1.06051895e-05,42.4665738 L1.06051895e-05,57.8046806 C-0.00659387002,63.8915136 3.07191766,69.5769858 8.19962085,72.9479262 Z M27.6206937,87.9666667 L12.2758697,87.9666667 L12.2758697,74.3166667 L27.6206937,74.3166667 L27.6206937,87.9666667 Z M15.3438045,56.8564853 L15.3445411,53.0833333 L15.3448345,53.0833333 L15.3448345,33.3666667 L42.9655176,33.3666667 L42.9655176,42.4666667 L40.887253,42.4666667 C38.4197783,40.3148964 34.6745486,40.4689508 32.3964958,42.8159213 C30.118443,45.1628918 30.1179854,48.8678427 32.3954583,51.2153629 C34.6729312,53.5628831 38.4181228,53.7178414 40.886129,51.5666667 L42.9655176,51.5666667 L42.9655176,60.6666667 L18.5781328,60.6666667 C17.7885247,59.1823323 16.6855352,57.8829621 15.3438045,56.8564853 L15.3438045,56.8564853 Z M44.5,48.5333333 L40.2579771,48.5333333 C39.8215561,48.5333217 39.4057795,48.716998 39.1147014,49.0383947 C38.5322904,49.6813472 37.7007195,50.0491565 36.827588,50.05 C35.9791502,50.0499832 35.1685669,49.7028402 34.5883375,49.0910114 C34.008108,48.4791826 33.7099987,47.6572534 33.7648053,46.8204176 C33.8779481,45.2973081 35.1089048,44.0892481 36.6506699,43.9882322 C37.584482,43.9341249 38.4920836,44.3049325 39.1147014,44.994931 C39.4057781,45.3163305 39.8215549,45.5000097 40.2579771,45.5 L44.5,45.5 C44.9069736,45.5000116 45.297282,45.3402241 45.5850558,45.0557914 C45.8728296,44.7713587 46.0344941,44.3855819 46.0344824,43.9833333 L46.0344824,33.3666667 L55.2413767,33.3666667 L55.2413767,35.4219984 C53.065842,37.8611812 53.2230274,41.56199 55.5977431,43.8123706 C57.9724588,46.0627511 61.7200375,46.0622611 64.0941507,43.8112596 C66.468264,41.5602581 66.6244587,37.8594083 64.4482711,35.4207945 L64.4482711,33.3666667 L73.6551654,33.3666667 L73.6551654,56.8573195 C72.3139106,57.8836694 71.2112906,59.1827383 70.4218787,60.6666667 L46.0344824,60.6666667 L46.0344824,50.05 C46.0344941,49.6477514 45.8728296,49.2619746 45.5850558,48.9775419 C45.297282,48.6931093 44.9069736,48.5333218 44.5,48.5333333 L44.5,48.5333333 Z M76.7241302,87.9666667 L61.3793063,87.9666667 L61.3793063,74.3166667 L76.7241302,74.3166667 L76.7241302,87.9666667 Z M84.3966362,40.95 C85.243669,40.9509215 85.9300922,41.6293752 85.9310246,42.4665738 L85.9310246,57.8046806 C85.9365408,62.8770929 83.3710511,67.6150271 79.0978767,70.4241056 L77.7939541,71.2833333 L61.3793063,71.2833333 L61.3793063,63.7 L69.3133744,63.7 C69.1406529,64.500879 69.0529593,65.3173867 69.0517183,66.1362577 L69.0517183,68.25 L72.1206831,68.25 L72.1206831,66.1362577 C72.1175163,63.2255672 73.5897616,60.5068358 76.0419301,58.8950616 C76.4689742,58.6137378 76.7254497,58.140025 76.7253501,57.6327779 L76.7241302,51.5668562 C76.7239491,50.7292244 77.4108134,50.0500445 78.2582846,50.0498655 C79.1057558,50.0496864 79.7929138,50.728576 79.793095,51.5662079 L79.793095,59.15 L82.8620598,59.15 L82.8620598,53.0827779 L82.8625278,53.0827779 L82.8621538,42.4667596 C82.8630818,41.6294929 83.5495345,40.9509686 84.3966362,40.95 Z M78.2587066,37.9166667 C78.6656674,37.9166687 79.0559581,38.0764635 79.343714,38.3608959 C79.6314699,38.6453283 79.7931179,39.0310975 79.793095,39.4333333 L79.792767,47.2774708 C78.8001724,46.9306369 77.7174276,46.9297064 76.7242242,47.2748337 L76.7242242,39.4332404 C76.725201,38.5960238 77.4116555,37.9175808 78.2587066,37.9166667 Z M73.6551654,7.58333333 L73.6551654,30.3333333 L62.9137887,30.3333333 C62.5068151,30.3333218 62.1165067,30.4931093 61.8287329,30.7775419 C61.5409591,31.0619746 61.3792946,31.4477514 61.3793063,31.85 L61.3793063,36.0428648 C61.3792945,36.4742189 61.5651284,36.8851682 61.8903005,37.1728668 C62.5883316,37.7883068 62.9634797,38.6853346 62.9088247,39.6082903 C62.8065929,41.1320886 61.5844035,42.3486954 60.0434703,42.4605564 C59.1967897,42.5147506 58.3651823,42.2201134 57.7461465,41.6466181 C57.1271107,41.0731229 56.7758767,40.2719367 56.7758591,39.4333333 C56.7767327,38.5703701 57.1488613,37.7484903 57.7993474,37.1728668 C58.1245194,36.8851682 58.3103533,36.4742189 58.3103415,36.0428648 L58.3103415,31.85 C58.3103532,31.4477514 58.1486888,31.0619746 57.860915,30.7775419 C57.5731412,30.4931093 57.1828328,30.3333218 56.7758591,30.3333333 L46.0344824,30.3333333 L46.0344824,21.2333333 L48.112747,21.2333333 C50.5802083,23.3851685 54.3254812,23.2311685 56.6035872,20.8842028 C58.8816932,18.537237 58.8821891,14.8322458 56.6047114,12.4846843 C54.3272338,10.1371229 50.5820022,9.98214351 48.113965,12.1333333 L46.0344824,12.1333333 L46.0344824,3.03333333 L69.0517183,3.03333333 C71.5929269,3.03620639 73.6522586,5.07162874 73.6551654,7.58333333 Z M15.3448345,21.2333333 L17.4230991,21.2333333 C19.8905605,23.3851685 23.6358333,23.2311685 25.9139394,20.8842028 C28.1920454,18.537237 28.1925413,14.8322458 25.9150636,12.4846843 C23.6375859,10.1371229 19.8923544,9.98214351 17.4243171,12.1333333 L15.3448345,12.1333333 L15.3448345,7.58333333 C15.3477076,5.0716149 17.407059,3.03617303 19.9482817,3.03333333 L42.9655176,3.03333333 L42.9655176,13.65 C42.9655059,14.0522486 43.1271704,14.4380254 43.4149442,14.7224581 C43.702718,15.0068907 44.0930264,15.1666782 44.5,15.1666667 L48.7421168,15.1666667 C49.1785378,15.1666783 49.5943145,14.983002 49.8853925,14.6616053 C50.4677777,14.0186715 51.2993118,13.6508634 52.172412,13.65 C53.0208497,13.6500168 53.8314331,13.9971598 54.4116625,14.6089886 C54.9918919,15.2208174 55.2900013,16.0427466 55.2351947,16.8795824 C55.1220623,18.4026612 53.8911548,19.6107123 52.3494241,19.7117678 C51.4155891,19.7660095 50.5079306,19.3951787 49.8853925,18.705069 C49.5943158,18.3836695 49.178539,18.1999903 48.7421168,18.2 L44.5,18.2 C44.0930264,18.1999884 43.702718,18.3597759 43.4149442,18.6442086 C43.1271704,18.9286413 42.9655059,19.3144181 42.9655176,19.7166667 L42.9655176,30.3333333 L15.3448345,30.3333333 L15.3448345,21.2333333 Z M10.7412934,37.9166667 C11.5883628,37.9176247 12.2748065,38.5960986 12.2757758,39.4333333 L12.2754478,47.2747294 C11.2822202,46.9296661 10.199473,46.9306742 9.20690496,47.2775864 L9.20690496,39.4332404 C9.20783733,38.5960419 9.89426055,37.9175882 10.7412934,37.9166667 Z M3.06897539,42.4665738 C3.06837905,41.9243338 3.36072215,41.4230328 3.83573835,41.1517521 C4.31075454,40.8804714 4.89616533,40.8804891 5.37116472,41.1517986 C5.8461641,41.423108 6.13847613,41.9244267 6.13784619,42.4666667 L6.13746257,53.0827779 L6.13794018,53.0827779 L6.13794018,59.15 L9.20690496,59.15 L9.20690496,51.5664771 C9.20701091,50.7288452 9.89410795,50.0498953 10.7415792,50.05 C11.5890504,50.0501047 12.2759757,50.7292244 12.2758697,51.5668563 L12.2746518,57.6327816 C12.2745522,58.1400288 12.5310277,58.6137416 12.9580718,58.8950654 C15.4102384,60.5068393 16.8824829,63.225569 16.8793169,66.1362577 L16.8793169,68.25 L19.9482817,68.25 L19.9482817,66.1362577 C19.9470407,65.3173867 19.8593471,64.500879 19.6866256,63.7 L27.6206937,63.7 L27.6206937,71.2833333 L11.2060209,71.2833333 L9.90202548,70.4240981 C5.62890901,67.6149823 3.06346411,62.8770659 3.06897539,57.8046806 L3.06897539,42.4665738 Z" id="Shape"></path>
            </g>
        </g>
    </g>
</svg>