<svg width="162" height="42" viewBox="0 0 162 42" fill="none" xmlns="http://www.w3.org/2000/svg">
<path d="M12.9536 31.359C12.4333 31.359 11.9952 31.1812 11.6392 30.8256C11.2831 30.4701 11.1051 30.0325 11.1051 29.5128V6.00513H2.72527C2.23233 6.00513 1.82156 5.84102 1.49293 5.51282C1.16431 5.18462 1 4.77436 1 4.28205C1 3.78974 1.16431 3.37949 1.49293 3.05128C1.82156 2.69573 2.23233 2.51795 2.72527 2.51795H23.182C23.675 2.51795 24.0857 2.69573 24.4144 3.05128C24.7704 3.37949 24.9484 3.78974 24.9484 4.28205C24.9484 4.77436 24.7704 5.18462 24.4144 5.51282C24.0857 5.84102 23.675 6.00513 23.182 6.00513H14.8432V29.5128C14.8432 30.0325 14.6515 30.4701 14.2681 30.8256C13.9121 31.1812 13.474 31.359 12.9536 31.359Z" fill="url(#paint0_linear_66_1250)"/>
<path d="M30.7936 31.5641C29.5887 31.5641 28.4659 31.3179 27.4252 30.8256C26.412 30.3333 25.6041 29.6222 25.0016 28.6923C24.3992 27.735 24.0979 26.641 24.0979 25.4103C24.0979 23.3863 24.8921 21.7726 26.4804 20.5692C28.0962 19.3658 30.4513 18.7641 33.5458 18.7641H38.5162V18.4359C38.5162 16.6308 38.0644 15.3316 37.1607 14.5385C36.2843 13.7453 34.9014 13.3487 33.0118 13.3487C31.9712 13.3487 31.0401 13.4308 30.2185 13.5949C29.4243 13.759 28.5343 14.0051 27.5485 14.3333C27.3294 14.388 27.1514 14.4154 27.0145 14.4154C26.6037 14.4154 26.2477 14.265 25.9464 13.9641C25.6452 13.6632 25.4946 13.294 25.4946 12.8564C25.4946 12.1179 25.8506 11.5983 26.5626 11.2974C28.8903 10.3128 31.2592 9.82051 33.6691 9.82051C35.5586 9.82051 37.147 10.2034 38.4341 10.9692C39.7486 11.735 40.7071 12.7333 41.3095 13.9641C41.9394 15.1675 42.2543 16.4803 42.2543 17.9026V29.5128C42.2543 30.0325 42.0626 30.4701 41.6792 30.8256C41.3232 31.1812 40.8851 31.359 40.3647 31.359C39.8444 31.359 39.4063 31.1812 39.0502 30.8256C38.6942 30.4701 38.5162 30.0325 38.5162 29.5128V28.4462C36.4897 30.5248 33.9155 31.5641 30.7936 31.5641ZM32.1903 28.282C33.3952 28.282 34.5591 27.9949 35.6819 27.4205C36.8047 26.8188 37.7495 26.0803 38.5162 25.2051V21.759H34.0388C29.9036 21.759 27.836 22.8393 27.836 25C27.836 25.9846 28.1646 26.7778 28.8219 27.3795C29.5065 27.9812 30.6293 28.282 32.1903 28.282Z" fill="url(#paint1_linear_66_1250)"/>
<path d="M58.2962 41C56.7078 41 55.1058 40.7949 53.4901 40.3846C51.8743 39.9744 50.5462 39.4684 49.5055 38.8667C49.0126 38.5658 48.7661 38.0872 48.7661 37.4308C48.7661 36.9932 48.9167 36.5966 49.218 36.241C49.5466 35.9128 49.9437 35.7487 50.4092 35.7487C50.6283 35.7487 50.8748 35.8034 51.1486 35.9128C53.2299 36.9521 55.4892 37.4718 57.9265 37.4718C62.1164 37.4718 64.2114 35.2427 64.2114 30.7846V28.0359C62.267 30.1145 59.9256 31.1538 57.1871 31.1538C55.5713 31.1538 53.9967 30.7573 52.4631 29.9641C50.9569 29.1436 49.7109 27.9402 48.725 26.3538C47.7392 24.7402 47.2462 22.7846 47.2462 20.4872C47.2462 18.1897 47.7392 16.2479 48.725 14.6615C49.7109 13.0479 50.9569 11.8444 52.4631 11.0513C53.9967 10.2308 55.5713 9.82051 57.1871 9.82051C59.9256 9.82051 62.267 10.8598 64.2114 12.9385V11.9128C64.2114 11.3932 64.3894 10.9556 64.7454 10.6C65.1014 10.2171 65.5396 10.0256 66.0599 10.0256C66.5802 10.0256 67.0184 10.2171 67.3744 10.6C67.7578 10.9556 67.9495 11.3932 67.9495 11.9128V30.2513C67.9495 33.6974 67.1142 36.3504 65.4437 38.2103C63.7732 40.0701 61.3907 41 58.2962 41ZM57.9675 27.7487C59.2547 27.7487 60.3911 27.4752 61.377 26.9282C62.3629 26.3812 63.3077 25.6427 64.2114 24.7128V16.2615C63.3077 15.3316 62.3629 14.5932 61.377 14.0462C60.3911 13.4991 59.2547 13.2256 57.9675 13.2256C55.9137 13.2256 54.2295 13.8547 52.915 15.1128C51.6279 16.3436 50.9843 18.135 50.9843 20.4872C50.9843 22.8393 51.6279 24.6444 52.915 25.9026C54.2295 27.1333 55.9137 27.7487 57.9675 27.7487Z" fill="url(#paint2_linear_66_1250)"/>
<path d="M76.2825 31.359C75.7622 31.359 75.324 31.1812 74.968 30.8256C74.612 30.4701 74.434 30.0325 74.434 29.5128V2.88718C74.434 2.36752 74.612 1.92991 74.968 1.57436C75.324 1.19145 75.7622 1 76.2825 1C76.8028 1 77.241 1.19145 77.597 1.57436C77.9804 1.92991 78.1721 2.36752 78.1721 2.88718V13.5949C79.2127 12.4462 80.3355 11.5299 81.5404 10.8462C82.7454 10.1624 84.1694 9.82051 85.8125 9.82051C87.3187 9.82051 88.6195 10.1761 89.7149 10.8872C90.8377 11.5983 91.6867 12.5692 92.2617 13.8C92.8642 15.0308 93.1655 16.3846 93.1655 17.8615V29.5128C93.1655 30.0325 92.9738 30.4701 92.5904 30.8256C92.2344 31.1812 91.7962 31.359 91.2759 31.359C90.7556 31.359 90.3174 31.1812 89.9614 30.8256C89.6054 30.4701 89.4274 30.0325 89.4274 29.5128V18.2718C89.4274 14.935 87.9212 13.2667 84.9088 13.2667C83.5396 13.2667 82.3072 13.6222 81.2118 14.3333C80.1438 15.0444 79.1305 16.0017 78.1721 17.2051V29.5128C78.1721 30.0325 77.9804 30.4701 77.597 30.8256C77.241 31.1812 76.8028 31.359 76.2825 31.359Z" fill="url(#paint3_linear_66_1250)"/>
<path d="M104.806 31.5641C103.601 31.5641 102.478 31.3179 101.438 30.8256C100.424 30.3333 99.6164 29.6222 99.0139 28.6923C98.4114 27.735 98.1102 26.641 98.1102 25.4103C98.1102 23.3863 98.9044 21.7726 100.493 20.5692C102.108 19.3658 104.464 18.7641 107.558 18.7641H112.529V18.4359C112.529 16.6308 112.077 15.3316 111.173 14.5385C110.297 13.7453 108.914 13.3487 107.024 13.3487C105.983 13.3487 105.052 13.4308 104.231 13.5949C103.437 13.759 102.547 14.0051 101.561 14.3333C101.342 14.388 101.164 14.4154 101.027 14.4154C100.616 14.4154 100.26 14.265 99.9587 13.9641C99.6575 13.6632 99.5068 13.294 99.5068 12.8564C99.5068 12.1179 99.8628 11.5983 100.575 11.2974C102.903 10.3128 105.271 9.82051 107.681 9.82051C109.571 9.82051 111.159 10.2034 112.446 10.9692C113.761 11.735 114.719 12.7333 115.322 13.9641C115.952 15.1675 116.267 16.4803 116.267 17.9026V29.5128C116.267 30.0325 116.075 30.4701 115.692 30.8256C115.335 31.1812 114.897 31.359 114.377 31.359C113.857 31.359 113.419 31.1812 113.063 30.8256C112.707 30.4701 112.529 30.0325 112.529 29.5128V28.4462C110.502 30.5248 107.928 31.5641 104.806 31.5641ZM106.203 28.282C107.407 28.282 108.571 27.9949 109.694 27.4205C110.817 26.8188 111.762 26.0803 112.529 25.2051V21.759H108.051C103.916 21.759 101.848 22.8393 101.848 25C101.848 25.9846 102.177 26.7778 102.834 27.3795C103.519 27.9812 104.642 28.282 106.203 28.282Z" fill="url(#paint4_linear_66_1250)"/>
<path d="M129.31 31.5641C126.571 31.5641 124.079 30.9487 121.834 29.7179C121.368 29.3897 121.135 28.9385 121.135 28.3641C121.135 27.9265 121.286 27.5436 121.587 27.2154C121.888 26.8872 122.272 26.7231 122.737 26.7231C122.984 26.7231 123.23 26.7778 123.477 26.8872C124.353 27.2701 125.229 27.5709 126.106 27.7897C126.982 28.0085 127.968 28.1179 129.063 28.1179C132.103 28.1179 133.623 27.147 133.623 25.2051C133.623 24.5761 133.267 24.0974 132.555 23.7692C131.87 23.441 130.734 23.0718 129.145 22.6615C127.53 22.2786 126.188 21.882 125.12 21.4718C124.079 21.0615 123.175 20.4462 122.409 19.6256C121.669 18.7778 121.3 17.6701 121.3 16.3026C121.3 14.388 121.984 12.8291 123.353 11.6256C124.75 10.4222 126.736 9.82051 129.31 9.82051C131.418 9.82051 133.404 10.1624 135.266 10.8462C135.649 10.9556 135.937 11.1607 136.129 11.4615C136.348 11.7624 136.457 12.0769 136.457 12.4051C136.457 12.8427 136.293 13.2256 135.964 13.5538C135.663 13.8821 135.28 14.0462 134.814 14.0462C134.677 14.0462 134.499 14.0188 134.28 13.9641C132.692 13.4718 131.131 13.2256 129.597 13.2256C128.118 13.2256 126.955 13.4991 126.106 14.0462C125.284 14.5658 124.873 15.2496 124.873 16.0974C124.873 16.9179 125.257 17.5197 126.024 17.9026C126.79 18.2855 127.982 18.6547 129.597 19.0103C131.213 19.4205 132.528 19.8308 133.541 20.241C134.554 20.6239 135.417 21.2393 136.129 22.0872C136.868 22.935 137.238 24.0701 137.238 25.4923C137.238 27.2427 136.539 28.6923 135.143 29.841C133.774 30.9897 131.829 31.5641 129.31 31.5641Z" fill="url(#paint5_linear_66_1250)"/>
<path d="M144.117 31.359C143.597 31.359 143.159 31.1812 142.803 30.8256C142.447 30.4701 142.269 30.0325 142.269 29.5128V2.88718C142.269 2.36752 142.447 1.92991 142.803 1.57436C143.159 1.19145 143.597 1 144.117 1C144.637 1 145.076 1.19145 145.432 1.57436C145.815 1.92991 146.007 2.36752 146.007 2.88718V13.5949C147.047 12.4462 148.17 11.5299 149.375 10.8462C150.58 10.1624 152.004 9.82051 153.647 9.82051C155.153 9.82051 156.454 10.1761 157.549 10.8872C158.672 11.5983 159.521 12.5692 160.096 13.8C160.699 15.0308 161 16.3846 161 17.8615V29.5128C161 30.0325 160.808 30.4701 160.425 30.8256C160.069 31.1812 159.631 31.359 159.11 31.359C158.59 31.359 158.152 31.1812 157.796 30.8256C157.44 30.4701 157.262 30.0325 157.262 29.5128V18.2718C157.262 14.935 155.756 13.2667 152.743 13.2667C151.374 13.2667 150.142 13.6222 149.046 14.3333C147.978 15.0444 146.965 16.0017 146.007 17.2051V29.5128C146.007 30.0325 145.815 30.4701 145.432 30.8256C145.076 31.1812 144.637 31.359 144.117 31.359Z" fill="url(#paint6_linear_66_1250)"/>
<path d="M12.9536 31.359C12.4333 31.359 11.9952 31.1812 11.6392 30.8256C11.2831 30.4701 11.1051 30.0325 11.1051 29.5128V6.00513H2.72527C2.23233 6.00513 1.82156 5.84102 1.49293 5.51282C1.16431 5.18462 1 4.77436 1 4.28205C1 3.78974 1.16431 3.37949 1.49293 3.05128C1.82156 2.69573 2.23233 2.51795 2.72527 2.51795H23.182C23.675 2.51795 24.0857 2.69573 24.4144 3.05128C24.7704 3.37949 24.9484 3.78974 24.9484 4.28205C24.9484 4.77436 24.7704 5.18462 24.4144 5.51282C24.0857 5.84102 23.675 6.00513 23.182 6.00513H14.8432V29.5128C14.8432 30.0325 14.6515 30.4701 14.2681 30.8256C13.9121 31.1812 13.474 31.359 12.9536 31.359Z" stroke="url(#paint7_linear_66_1250)"/>
<path d="M30.7936 31.5641C29.5887 31.5641 28.4659 31.3179 27.4252 30.8256C26.412 30.3333 25.6041 29.6222 25.0016 28.6923C24.3992 27.735 24.0979 26.641 24.0979 25.4103C24.0979 23.3863 24.8921 21.7726 26.4804 20.5692C28.0962 19.3658 30.4513 18.7641 33.5458 18.7641H38.5162V18.4359C38.5162 16.6308 38.0644 15.3316 37.1607 14.5385C36.2843 13.7453 34.9014 13.3487 33.0118 13.3487C31.9712 13.3487 31.0401 13.4308 30.2185 13.5949C29.4243 13.759 28.5343 14.0051 27.5485 14.3333C27.3294 14.388 27.1514 14.4154 27.0145 14.4154C26.6037 14.4154 26.2477 14.265 25.9464 13.9641C25.6452 13.6632 25.4946 13.294 25.4946 12.8564C25.4946 12.1179 25.8506 11.5983 26.5626 11.2974C28.8903 10.3128 31.2592 9.82051 33.6691 9.82051C35.5586 9.82051 37.147 10.2034 38.4341 10.9692C39.7486 11.735 40.7071 12.7333 41.3095 13.9641C41.9394 15.1675 42.2543 16.4803 42.2543 17.9026V29.5128C42.2543 30.0325 42.0626 30.4701 41.6792 30.8256C41.3232 31.1812 40.8851 31.359 40.3647 31.359C39.8444 31.359 39.4063 31.1812 39.0502 30.8256C38.6942 30.4701 38.5162 30.0325 38.5162 29.5128V28.4462C36.4897 30.5248 33.9155 31.5641 30.7936 31.5641ZM32.1903 28.282C33.3952 28.282 34.5591 27.9949 35.6819 27.4205C36.8047 26.8188 37.7495 26.0803 38.5162 25.2051V21.759H34.0388C29.9036 21.759 27.836 22.8393 27.836 25C27.836 25.9846 28.1646 26.7778 28.8219 27.3795C29.5065 27.9812 30.6293 28.282 32.1903 28.282Z" stroke="url(#paint8_linear_66_1250)"/>
<path d="M58.2962 41C56.7078 41 55.1058 40.7949 53.4901 40.3846C51.8743 39.9744 50.5462 39.4684 49.5055 38.8667C49.0126 38.5658 48.7661 38.0872 48.7661 37.4308C48.7661 36.9932 48.9167 36.5966 49.218 36.241C49.5466 35.9128 49.9437 35.7487 50.4092 35.7487C50.6283 35.7487 50.8748 35.8034 51.1486 35.9128C53.2299 36.9521 55.4892 37.4718 57.9265 37.4718C62.1164 37.4718 64.2114 35.2427 64.2114 30.7846V28.0359C62.267 30.1145 59.9256 31.1538 57.1871 31.1538C55.5713 31.1538 53.9967 30.7573 52.4631 29.9641C50.9569 29.1436 49.7109 27.9402 48.725 26.3538C47.7392 24.7402 47.2462 22.7846 47.2462 20.4872C47.2462 18.1897 47.7392 16.2479 48.725 14.6615C49.7109 13.0479 50.9569 11.8444 52.4631 11.0513C53.9967 10.2308 55.5713 9.82051 57.1871 9.82051C59.9256 9.82051 62.267 10.8598 64.2114 12.9385V11.9128C64.2114 11.3932 64.3894 10.9556 64.7454 10.6C65.1014 10.2171 65.5396 10.0256 66.0599 10.0256C66.5802 10.0256 67.0184 10.2171 67.3744 10.6C67.7578 10.9556 67.9495 11.3932 67.9495 11.9128V30.2513C67.9495 33.6974 67.1142 36.3504 65.4437 38.2103C63.7732 40.0701 61.3907 41 58.2962 41ZM57.9675 27.7487C59.2547 27.7487 60.3911 27.4752 61.377 26.9282C62.3629 26.3812 63.3077 25.6427 64.2114 24.7128V16.2615C63.3077 15.3316 62.3629 14.5932 61.377 14.0462C60.3911 13.4991 59.2547 13.2256 57.9675 13.2256C55.9137 13.2256 54.2295 13.8547 52.915 15.1128C51.6279 16.3436 50.9843 18.135 50.9843 20.4872C50.9843 22.8393 51.6279 24.6444 52.915 25.9026C54.2295 27.1333 55.9137 27.7487 57.9675 27.7487Z" stroke="url(#paint9_linear_66_1250)"/>
<path d="M76.2825 31.359C75.7622 31.359 75.324 31.1812 74.968 30.8256C74.612 30.4701 74.434 30.0325 74.434 29.5128V2.88718C74.434 2.36752 74.612 1.92991 74.968 1.57436C75.324 1.19145 75.7622 1 76.2825 1C76.8028 1 77.241 1.19145 77.597 1.57436C77.9804 1.92991 78.1721 2.36752 78.1721 2.88718V13.5949C79.2127 12.4462 80.3355 11.5299 81.5404 10.8462C82.7454 10.1624 84.1694 9.82051 85.8125 9.82051C87.3187 9.82051 88.6195 10.1761 89.7149 10.8872C90.8377 11.5983 91.6867 12.5692 92.2617 13.8C92.8642 15.0308 93.1655 16.3846 93.1655 17.8615V29.5128C93.1655 30.0325 92.9738 30.4701 92.5904 30.8256C92.2344 31.1812 91.7962 31.359 91.2759 31.359C90.7556 31.359 90.3174 31.1812 89.9614 30.8256C89.6054 30.4701 89.4274 30.0325 89.4274 29.5128V18.2718C89.4274 14.935 87.9212 13.2667 84.9088 13.2667C83.5396 13.2667 82.3072 13.6222 81.2118 14.3333C80.1438 15.0444 79.1305 16.0017 78.1721 17.2051V29.5128C78.1721 30.0325 77.9804 30.4701 77.597 30.8256C77.241 31.1812 76.8028 31.359 76.2825 31.359Z" stroke="url(#paint10_linear_66_1250)"/>
<path d="M104.806 31.5641C103.601 31.5641 102.478 31.3179 101.438 30.8256C100.424 30.3333 99.6164 29.6222 99.0139 28.6923C98.4114 27.735 98.1102 26.641 98.1102 25.4103C98.1102 23.3863 98.9044 21.7726 100.493 20.5692C102.108 19.3658 104.464 18.7641 107.558 18.7641H112.529V18.4359C112.529 16.6308 112.077 15.3316 111.173 14.5385C110.297 13.7453 108.914 13.3487 107.024 13.3487C105.983 13.3487 105.052 13.4308 104.231 13.5949C103.437 13.759 102.547 14.0051 101.561 14.3333C101.342 14.388 101.164 14.4154 101.027 14.4154C100.616 14.4154 100.26 14.265 99.9587 13.9641C99.6575 13.6632 99.5068 13.294 99.5068 12.8564C99.5068 12.1179 99.8628 11.5983 100.575 11.2974C102.903 10.3128 105.271 9.82051 107.681 9.82051C109.571 9.82051 111.159 10.2034 112.446 10.9692C113.761 11.735 114.719 12.7333 115.322 13.9641C115.952 15.1675 116.267 16.4803 116.267 17.9026V29.5128C116.267 30.0325 116.075 30.4701 115.692 30.8256C115.335 31.1812 114.897 31.359 114.377 31.359C113.857 31.359 113.419 31.1812 113.063 30.8256C112.707 30.4701 112.529 30.0325 112.529 29.5128V28.4462C110.502 30.5248 107.928 31.5641 104.806 31.5641ZM106.203 28.282C107.407 28.282 108.571 27.9949 109.694 27.4205C110.817 26.8188 111.762 26.0803 112.529 25.2051V21.759H108.051C103.916 21.759 101.848 22.8393 101.848 25C101.848 25.9846 102.177 26.7778 102.834 27.3795C103.519 27.9812 104.642 28.282 106.203 28.282Z" stroke="url(#paint11_linear_66_1250)"/>
<path d="M129.31 31.5641C126.571 31.5641 124.079 30.9487 121.834 29.7179C121.368 29.3897 121.135 28.9385 121.135 28.3641C121.135 27.9265 121.286 27.5436 121.587 27.2154C121.888 26.8872 122.272 26.7231 122.737 26.7231C122.984 26.7231 123.23 26.7778 123.477 26.8872C124.353 27.2701 125.229 27.5709 126.106 27.7897C126.982 28.0085 127.968 28.1179 129.063 28.1179C132.103 28.1179 133.623 27.147 133.623 25.2051C133.623 24.5761 133.267 24.0974 132.555 23.7692C131.87 23.441 130.734 23.0718 129.145 22.6615C127.53 22.2786 126.188 21.882 125.12 21.4718C124.079 21.0615 123.175 20.4462 122.409 19.6256C121.669 18.7778 121.3 17.6701 121.3 16.3026C121.3 14.388 121.984 12.8291 123.353 11.6256C124.75 10.4222 126.736 9.82051 129.31 9.82051C131.418 9.82051 133.404 10.1624 135.266 10.8462C135.649 10.9556 135.937 11.1607 136.129 11.4615C136.348 11.7624 136.457 12.0769 136.457 12.4051C136.457 12.8427 136.293 13.2256 135.964 13.5538C135.663 13.8821 135.28 14.0462 134.814 14.0462C134.677 14.0462 134.499 14.0188 134.28 13.9641C132.692 13.4718 131.131 13.2256 129.597 13.2256C128.118 13.2256 126.955 13.4991 126.106 14.0462C125.284 14.5658 124.873 15.2496 124.873 16.0974C124.873 16.9179 125.257 17.5197 126.024 17.9026C126.79 18.2855 127.982 18.6547 129.597 19.0103C131.213 19.4205 132.528 19.8308 133.541 20.241C134.554 20.6239 135.417 21.2393 136.129 22.0872C136.868 22.935 137.238 24.0701 137.238 25.4923C137.238 27.2427 136.539 28.6923 135.143 29.841C133.774 30.9897 131.829 31.5641 129.31 31.5641Z" stroke="url(#paint12_linear_66_1250)"/>
<path d="M144.117 31.359C143.597 31.359 143.159 31.1812 142.803 30.8256C142.447 30.4701 142.269 30.0325 142.269 29.5128V2.88718C142.269 2.36752 142.447 1.92991 142.803 1.57436C143.159 1.19145 143.597 1 144.117 1C144.637 1 145.076 1.19145 145.432 1.57436C145.815 1.92991 146.007 2.36752 146.007 2.88718V13.5949C147.047 12.4462 148.17 11.5299 149.375 10.8462C150.58 10.1624 152.004 9.82051 153.647 9.82051C155.153 9.82051 156.454 10.1761 157.549 10.8872C158.672 11.5983 159.521 12.5692 160.096 13.8C160.699 15.0308 161 16.3846 161 17.8615V29.5128C161 30.0325 160.808 30.4701 160.425 30.8256C160.069 31.1812 159.631 31.359 159.11 31.359C158.59 31.359 158.152 31.1812 157.796 30.8256C157.44 30.4701 157.262 30.0325 157.262 29.5128V18.2718C157.262 14.935 155.756 13.2667 152.743 13.2667C151.374 13.2667 150.142 13.6222 149.046 14.3333C147.978 15.0444 146.965 16.0017 146.007 17.2051V29.5128C146.007 30.0325 145.815 30.4701 145.432 30.8256C145.076 31.1812 144.637 31.359 144.117 31.359Z" stroke="url(#paint13_linear_66_1250)"/>
<defs>
<linearGradient id="paint0_linear_66_1250" x1="1" y1="21" x2="161" y2="21" gradientUnits="userSpaceOnUse">
<stop stop-color="#1536F1"/>
<stop offset="1" stop-color="#379AFF"/>
</linearGradient>
<linearGradient id="paint1_linear_66_1250" x1="1" y1="21" x2="161" y2="21" gradientUnits="userSpaceOnUse">
<stop stop-color="#1536F1"/>
<stop offset="1" stop-color="#379AFF"/>
</linearGradient>
<linearGradient id="paint2_linear_66_1250" x1="1" y1="21" x2="161" y2="21" gradientUnits="userSpaceOnUse">
<stop stop-color="#1536F1"/>
<stop offset="1" stop-color="#379AFF"/>
</linearGradient>
<linearGradient id="paint3_linear_66_1250" x1="1" y1="21" x2="161" y2="21" gradientUnits="userSpaceOnUse">
<stop stop-color="#1536F1"/>
<stop offset="1" stop-color="#379AFF"/>
</linearGradient>
<linearGradient id="paint4_linear_66_1250" x1="1" y1="21" x2="161" y2="21" gradientUnits="userSpaceOnUse">
<stop stop-color="#1536F1"/>
<stop offset="1" stop-color="#379AFF"/>
</linearGradient>
<linearGradient id="paint5_linear_66_1250" x1="1" y1="21" x2="161" y2="21" gradientUnits="userSpaceOnUse">
<stop stop-color="#1536F1"/>
<stop offset="1" stop-color="#379AFF"/>
</linearGradient>
<linearGradient id="paint6_linear_66_1250" x1="1" y1="21" x2="161" y2="21" gradientUnits="userSpaceOnUse">
<stop stop-color="#1536F1"/>
<stop offset="1" stop-color="#379AFF"/>
</linearGradient>
<linearGradient id="paint7_linear_66_1250" x1="1" y1="21" x2="161" y2="21" gradientUnits="userSpaceOnUse">
<stop stop-color="#1536F1"/>
<stop offset="1" stop-color="#379AFF"/>
</linearGradient>
<linearGradient id="paint8_linear_66_1250" x1="1" y1="21" x2="161" y2="21" gradientUnits="userSpaceOnUse">
<stop stop-color="#1536F1"/>
<stop offset="1" stop-color="#379AFF"/>
</linearGradient>
<linearGradient id="paint9_linear_66_1250" x1="1" y1="21" x2="161" y2="21" gradientUnits="userSpaceOnUse">
<stop stop-color="#1536F1"/>
<stop offset="1" stop-color="#379AFF"/>
</linearGradient>
<linearGradient id="paint10_linear_66_1250" x1="1" y1="21" x2="161" y2="21" gradientUnits="userSpaceOnUse">
<stop stop-color="#1536F1"/>
<stop offset="1" stop-color="#379AFF"/>
</linearGradient>
<linearGradient id="paint11_linear_66_1250" x1="1" y1="21" x2="161" y2="21" gradientUnits="userSpaceOnUse">
<stop stop-color="#1536F1"/>
<stop offset="1" stop-color="#379AFF"/>
</linearGradient>
<linearGradient id="paint12_linear_66_1250" x1="1" y1="21" x2="161" y2="21" gradientUnits="userSpaceOnUse">
<stop stop-color="#1536F1"/>
<stop offset="1" stop-color="#379AFF"/>
</linearGradient>
<linearGradient id="paint13_linear_66_1250" x1="1" y1="21" x2="161" y2="21" gradientUnits="userSpaceOnUse">
<stop stop-color="#1536F1"/>
<stop offset="1" stop-color="#379AFF"/>
</linearGradient>
</defs>
</svg>
