<?xml version="1.0" encoding="utf-8"?>
<!-- Generator: Adobe Illustrator 27.2.0, SVG Export Plug-In . SVG Version: 6.00 Build 0)  -->
<svg version="1.1" id="Layer_1" xmlns="http://www.w3.org/2000/svg" xmlns:xlink="http://www.w3.org/1999/xlink" x="0px" y="0px"
	 viewBox="0 0 2880 1800" style="enable-background:new 0 0 2880 1800;" xml:space="preserve">
<style type="text/css">
	.st0{opacity:0.5;fill:#EBF7FD;stroke:#263238;stroke-width:1.1041;stroke-miterlimit:10;}
	.st1{fill:#77787B;}
	.st2{fill:#515254;}
	.st3{fill:#FFFFFF;}
	.st4{opacity:0.7;}
	.st5{fill:#C7C8CA;}
	.st6{opacity:0.24;fill:#C7C8CA;}
	.st7{fill:none;stroke:#FFFFFF;stroke-width:6.7615;stroke-miterlimit:10;}
	.st8{fill:none;stroke:#FFFFFF;stroke-width:6.7615;stroke-linecap:round;stroke-miterlimit:10;}
	.st9{fill:#85D2E6;}
	.st10{fill:#B8E3F0;}
	.st11{opacity:0.6;}
	.st12{opacity:0.4;}
	.st13{fill:#DDF0F8;}
	.st14{fill:none;stroke:#A9A9A9;stroke-width:2.4284;stroke-linecap:round;stroke-miterlimit:10;}
	.st15{fill:#F8DBDF;}
	.st16{opacity:0.8;fill:#C7C8CA;}
	.st17{fill:#E2EEF3;}
	.st18{fill:#33BDBA;}
	.st19{fill:#1F417F;}
	.st20{fill:#D29C78;}
	.st21{fill:#273A84;}
	.st22{fill:#233974;}
	.st23{fill:#9C9BCC;}
	.st24{opacity:0.2;fill:#FFFFFF;}
	.st25{opacity:0.08;fill:#FFFFFF;}
	.st26{fill:#494848;}
	.st27{opacity:0.67;}
	.st28{fill:#A67861;}
</style>
<g>
	<path class="st0" d="M525.99,1684.57c0,0-170.32-88.55-153.84-264.46c18.34-195.82,172.83-224.48,193.75-343.9
		c42.73-243.91-125.47-215.08-121.1-504.96c4.51-299.19,273.54-590.9,668.69-434.68c351.38,138.92,429.22,279.26,666.57,284.12
		s419.29-137.57,622.61,19.43c137.89,106.47,221.55,336.24,59.16,602.8c-162.39,266.56-38.46,329.67,25.64,446.24
		c64.1,116.58,25.64,195.41,25.64,195.41H525.99z"/>
</g>
<g>
	<g>
		<polygon class="st1" points="1688.09,1648.47 1367.5,1648.47 1402.32,1511.56 1410.21,1480.51 1425.53,1420.39 1630.05,1420.39 
			1645.37,1480.51 1653.26,1511.56 		"/>
		<path d="M2281.97,534.49v907.61c0,18.46-12.19,33.96-28.66,38.07c-2.78,0.71-5.7,1.06-8.66,1.06H815.51
			c-7.38,0-14.26-2.25-20.05-6.09c-2.12-1.46-4.11-3.09-5.92-4.95c-6.98-7.07-11.35-17.05-11.35-28.09V534.49
			c0-21.55,16.69-39.13,37.32-39.13h1429.14C2265.27,495.36,2281.97,512.94,2281.97,534.49z"/>
		<polygon class="st2" points="1653.26,1511.56 1402.32,1511.56 1410.21,1480.51 1645.37,1480.51 		"/>
		<path class="st1" d="M1811.11,1686.29h-566.65c-13.6,0-24.62-11.02-24.62-24.62l0,0c0-13.6,11.02-24.62,24.62-24.62h566.65
			c13.6,0,24.62,11.02,24.62,24.62l0,0C1835.73,1675.27,1824.71,1686.29,1811.11,1686.29z"/>
		<path d="M2281.96,534.51v782.5H778.17v-782.5c0-21.59,16.7-39.14,37.35-39.14h1429.13
			C2265.26,495.38,2281.96,512.92,2281.96,534.51z"/>
		<rect x="821.81" y="541.66" class="st3" width="1416.5" height="734.83"/>
		<g class="st4">
			<defs>
				<rect id="SVGID_1_" x="821.81" y="541.66" class="st4" width="1416.5" height="734.83"/>
			</defs>
			<clipPath id="SVGID_00000120523763789973316160000017602113804567786160_">
				<use xlink:href="#SVGID_1_"  style="overflow:visible;"/>
			</clipPath>
		</g>
		<path class="st5" d="M1527.71,1431.34L1527.71,1431.34c-19.98,0-36.32-16.34-36.32-36.32l0,0c0-19.98,16.35-36.32,36.32-36.32l0,0
			c19.98,0,36.32,16.35,36.32,36.32l0,0C1564.03,1414.99,1547.69,1431.34,1527.71,1431.34z"/>
	</g>
	<g>
		<path class="st6" d="M2052.32,911.68c0,13.64-5.54,26.05-14.5,35c-8.95,8.95-21.32,14.5-35,14.5h-925.92
			c-27.33,0-49.5-22.17-49.5-49.5c0-13.69,5.54-26.09,14.5-35.05c8.95-8.95,21.32-14.5,35-14.5h925.92
			C2030.15,862.14,2052.32,884.31,2052.32,911.68z"/>
		<path class="st5" d="M2052.32,911.68c0,13.64-5.54,26.05-14.5,35c-8.95,8.95-21.32,14.5-35,14.5h-99.68v-99.04h99.68
			C2030.15,862.14,2052.32,884.31,2052.32,911.68z"/>
		<g>
			<path class="st7" d="M1983.67,891.8c8.58,8.58,8.58,22.5,0,31.08c-8.58,8.58-22.5,8.58-31.08,0c-8.58-8.58-8.58-22.5,0-31.08
				C1961.17,883.22,1975.09,883.22,1983.67,891.8z"/>
			<line class="st8" x1="1983.67" y1="922.88" x2="2001.1" y2="940.31"/>
		</g>
		<path d="M1091.74,945.69h-4.25c-0.31,0-0.56-0.25-0.56-0.56V878.2c0-0.31,0.25-0.56,0.56-0.56h4.25c0.31,0,0.56,0.25,0.56,0.56
			v66.93C1092.31,945.44,1092.05,945.69,1091.74,945.69z"/>
	</g>
</g>
<g>
	<g>
		<g>
			
				<rect x="1657.97" y="297.56" transform="matrix(0.9684 -0.2495 0.2495 0.9684 -32.9298 446.116)" class="st9" width="170.36" height="110.76"/>
			<polygon class="st9" points="1811.82,278.06 1646.85,320.57 1711.86,231.5 			"/>
			
				<rect x="1672.92" y="289.28" transform="matrix(0.9684 -0.2495 0.2495 0.9684 -31.4821 445.4044)" class="st3" width="136.38" height="115.2"/>
			<polygon class="st10" points="1646.85,320.57 1674.48,427.83 1744.13,356.73 			"/>
			<polygon class="st10" points="1811.82,278.06 1839.45,385.32 1744.13,356.73 			"/>
			<polygon class="st10" points="1839.45,385.32 1674.48,427.83 1739.49,338.75 			"/>
		</g>
		<path class="st9" d="M1674.48,427.83c4.84-7.85,10.01-15.45,15-23.18c5.12-7.64,10.26-15.26,15.51-22.81
			c5.18-7.6,10.55-15.06,15.82-22.58l16.11-22.37l1.53-2.13l2.38,1.12c16.64,7.81,33.24,15.69,49.69,23.91
			c8.24,4.07,16.43,8.26,24.6,12.48c8.11,4.36,16.31,8.52,24.33,13.06c-8.64-3.23-17.1-6.82-25.65-10.22
			c-8.49-3.54-16.96-7.12-25.38-10.8c-16.87-7.3-33.59-14.94-50.27-22.65l3.92-1.01l-16.4,22.16c-5.56,7.32-11.03,14.7-16.68,21.95
			c-5.59,7.3-11.28,14.52-17,21.72C1686.15,413.59,1680.48,420.83,1674.48,427.83z"/>
	</g>
	<g>
		<g class="st11">
			<g class="st12">
				<path class="st10" d="M544.87,572.29c-42.41,0.04-76.95-34.44-76.98-76.85c-0.04-42.41,34.44-76.95,76.85-76.98
					c42.41-0.04,76.94,34.44,76.98,76.85S587.28,572.25,544.87,572.29z M544.75,430.33c-35.87,0.03-65.02,29.23-64.99,65.1
					c0.03,35.87,29.23,65.02,65.1,64.99c35.87-0.03,65.02-29.23,64.99-65.1C609.82,459.45,580.61,430.3,544.75,430.33z"/>
			</g>
			<g>
				<path class="st10" d="M591.82,495.34L591.82,495.34c0-2.14,1.75-3.9,3.89-3.9l6.68-0.01c2.14,0,3.9,1.75,3.9,3.89l0,0
					c0,2.14-1.75,3.9-3.89,3.9l-6.68,0.01C593.57,499.23,591.82,497.48,591.82,495.34z"/>
				<path class="st10" d="M483.32,495.43L483.32,495.43c0-2.14,1.75-3.9,3.89-3.9l6.68-0.01c2.14,0,3.9,1.75,3.9,3.89l0,0
					c0,2.14-1.75,3.9-3.89,3.9l-6.68,0.01C485.08,499.32,483.32,497.57,483.32,495.43z"/>
			</g>
			<g>
				<path class="st10" d="M544.84,542.39L544.84,542.39c2.14,0,3.9,1.75,3.9,3.89l0.01,6.68c0,2.14-1.75,3.9-3.89,3.9l0,0
					c-2.14,0-3.9-1.75-3.9-3.89l-0.01-6.68C540.95,544.15,542.7,542.39,544.84,542.39z"/>
				<path class="st10" d="M544.75,433.89L544.75,433.89c2.14,0,3.9,1.75,3.9,3.89l0.01,6.68c0,2.14-1.75,3.9-3.89,3.9l0,0
					c-2.14,0-3.9-1.75-3.9-3.89l-0.01-6.68C540.86,435.65,542.61,433.9,544.75,433.89z"/>
			</g>
			<g>
				<path class="st10" d="M511.59,528.65L511.59,528.65c1.52,1.51,1.52,3.99,0,5.51l-4.72,4.73c-1.51,1.52-3.99,1.52-5.51,0l0,0
					c-1.52-1.51-1.52-3.99,0-5.51l4.72-4.73C507.59,527.14,510.07,527.14,511.59,528.65z"/>
				<path class="st10" d="M588.24,451.86L588.24,451.86c1.52,1.51,1.52,3.99,0,5.51l-4.72,4.73c-1.51,1.52-3.99,1.52-5.51,0l0,0
					c-1.52-1.51-1.52-3.99,0-5.51l4.72-4.73C584.24,450.35,586.72,450.35,588.24,451.86z"/>
			</g>
			<g>
				<path class="st10" d="M511.53,462.16L511.53,462.16c-1.51,1.52-3.99,1.52-5.51,0l-4.73-4.72c-1.52-1.51-1.52-3.99-0.01-5.51l0,0
					c1.51-1.52,3.99-1.52,5.51,0l4.73,4.72C513.04,458.16,513.04,460.64,511.53,462.16z"/>
				<path class="st10" d="M588.31,538.81L588.31,538.81c-1.51,1.52-3.99,1.52-5.51,0l-4.73-4.72c-1.52-1.51-1.52-3.99,0-5.51l0,0
					c1.51-1.52,3.99-1.52,5.51,0l4.73,4.72C589.83,534.82,589.83,537.3,588.31,538.81z"/>
			</g>
		</g>
		<g class="st11">
			<path class="st10" d="M551.16,495.37c0,3.51-2.84,6.36-6.36,6.37c-3.52,0-6.37-2.84-6.37-6.36c0-3.51,2.84-6.36,6.36-6.37
				C548.31,489.01,551.16,491.86,551.16,495.37z"/>
			<path class="st10" d="M544.8,487.41L544.8,487.41c-0.68,0-1.24-0.55-1.24-1.24l-0.03-32.52c0-0.68,0.55-1.24,1.24-1.24l0,0
				c0.68,0,1.24,0.55,1.24,1.24l0.03,32.52C546.03,486.85,545.48,487.4,544.8,487.41z"/>
			<path class="st10" d="M553.58,495.37L553.58,495.37c0-0.68,0.55-1.24,1.24-1.24l21.48-0.02c0.68,0,1.24,0.55,1.24,1.24l0,0
				c0,0.68-0.55,1.24-1.24,1.24l-21.48,0.02C554.13,496.6,553.58,496.05,553.58,495.37z"/>
		</g>
	</g>
	<g>
		<path class="st13" d="M1298.05,459.85H849.4c-0.89,0-1.62-0.72-1.62-1.62V355.32c0-0.89,0.72-1.62,1.62-1.62h448.65
			c0.89,0,1.62,0.72,1.62,1.62v102.92C1299.67,459.13,1298.95,459.85,1298.05,459.85z"/>
		<path class="st10" d="M1286.43,448.82H838.61c-1.12,0-2.03-0.91-2.03-2.03V344.69c0-1.12,0.91-2.03,2.03-2.03h447.82
			c1.12,0,2.03,0.91,2.03,2.03v102.09C1288.46,447.91,1287.55,448.82,1286.43,448.82z"/>
		<g>
			<path class="st3" d="M1234.77,413.84H890.27c-10,0-18.1-8.1-18.1-18.1l0,0c0-10,8.1-18.1,18.1-18.1h344.49
				c10,0,18.1,8.1,18.1,18.1l0,0C1252.87,405.74,1244.76,413.84,1234.77,413.84z"/>
			
				<ellipse transform="matrix(0.973 -0.2306 0.2306 0.973 -58.5787 290.3799)" class="st3" cx="1212.7" cy="395.74" rx="40.16" ry="40.16"/>
			<line class="st14" x1="893.32" y1="387.43" x2="893.32" y2="404.19"/>
			<path class="st15" d="M1229.45,409.32l-7.46-6.46c1.95-2.55,3.16-5.66,3.16-9.11c0-8.21-6.66-14.92-14.92-14.92
				c-8.21,0-14.92,6.71-14.92,14.92s6.71,14.92,14.92,14.92c3.46,0,6.56-1.2,9.06-3.15l7.71,6.71c0.35,0.3,0.8,0.45,1.2,0.45
				c0.55,0,1.05-0.25,1.45-0.65C1230.35,411.22,1230.25,410.02,1229.45,409.32z M1210.22,404.86c-6.16,0-11.12-4.96-11.12-11.12
				s4.96-11.17,11.12-11.17c6.16,0,11.17,5.01,11.17,11.17S1216.38,404.86,1210.22,404.86z"/>
		</g>
	</g>
	<path class="st10" d="M2543.2,1051.55c-6.8,0-12.86,2.96-17.11,7.61l-18.43-12.96c0.87-1.95,1.38-4.09,1.38-6.36
		c0-8.61-6.98-15.6-15.6-15.6c-8.61,0-15.6,6.98-15.6,15.6c0,8.61,6.98,15.6,15.6,15.6c4.2,0,7.99-1.68,10.8-4.38l18.46,12.98
		c-1.71,3.24-2.76,6.87-2.76,10.78c0,5.54,2.02,10.56,5.25,14.56l-9.46,9.9c-2.43-1.56-5.31-2.5-8.41-2.5
		c-8.61,0-15.6,6.98-15.6,15.6c0,8.61,6.98,15.6,15.6,15.6c8.61,0,15.6-6.98,15.6-15.6c0-3.36-1.08-6.45-2.89-8.99l9.44-9.88
		c3.86,2.85,8.59,4.58,13.75,4.58c12.85,0,23.27-10.42,23.27-23.27C2566.47,1061.97,2556.05,1051.55,2543.2,1051.55z"/>
</g>
<g>
	<path class="st16" d="M2281.7,949.59c-0.22,1.68-0.35,3.4-0.4,5.08c-1.94,3.8-2.56,9.1-2.74,13.25c-0.09,3.22,1.19,5.03,3,6.18
		c-2.03,8.79-3.75,20.4,0.4,28.44V947.6C2281.88,948.26,2281.79,948.93,2281.7,949.59z M2252.89,1056.95c0,0-1.02,0.66-2.65,2.08
		c-0.22,0.18-0.49,0.4-0.66,0.53c-0.09,0.09-0.13,0.18-0.22,0.22c-4.37,4.02-12.28,12.41-19.79,26.81
		c-7.64,14.66-15.63,44.83-21.2,67.17c-1.81-1.9-3.67-3.8-5.52-5.7l-72.12-109.17c40.68-32.42,68.5-77.6,79.01-129.22
		c11.92-58.21,0.4-117.61-32.37-167.2c-67.61-102.37-205.98-130.64-308.35-63.02c-49.6,32.77-83.47,82.9-95.35,141.15
		s-0.4,117.61,32.37,167.2c42.75,64.74,113.72,99.81,186.02,99.81c35.73,0,71.81-8.61,104.93-26.45l9.98,15.06
		c-0.53,2.25-1.1,5.74-0.93,9.76c-0.35,2.21-0.53,4.37-0.53,6.23c0,2.08,0.22,3.75,0.66,4.55c1.81,3.31,9.67,7.07,12.5,9.41
		c2.83,2.34,5.61,7.24,5.61,7.24c-0.62,1.24-0.79,2.21-0.22,2.78c2.52,2.43,35.11,48.98,61.3,78.7l57.59,87.14l25.53,38.6
		c-0.44,18.95-0.84,40.01-0.88,55.38c-1.28,30.52-3.09,76.58-4.42,104.18c16.47-4.11,28.66-19.61,28.66-38.07v-403.17
		C2273.91,1042.55,2260.88,1050.77,2252.89,1056.95z M1993.56,1041.8c-97.6,0-176.66-79.1-176.66-176.66s79.05-176.66,176.66-176.66
		c97.56,0,176.66,79.1,176.66,176.66S2091.12,1041.8,1993.56,1041.8z M2270.86,1251.05l-34.49-52.2
		c9.76-14.31,18.95-30.69,28.18-47.87c1.63,7.99,3.44,15.68,5.65,22.04C2273.38,1182.16,2271.88,1231.93,2270.86,1251.05z"/>
	<g>
		<ellipse class="st17" cx="2359.19" cy="1759.52" rx="175.33" ry="18.48"/>
		<path d="M2270.98,1733.29c-1.47,2.86-8.52,9.49-18.29,13.86c-9.76,4.36-30.47,6.41-18.97,10.25c11.5,3.84,24.91,1.51,31.7,0.43
			c6.79-1.1,13.37-1.24,21.38-1.29c10.57-0.07,10.65-0.72,9.22-12.64C2294.07,1727.49,2275.74,1724.02,2270.98,1733.29z"/>
		<path d="M2462.4,1727.34c-0.59,3.31,4.1,13.33-4.29,20.69c-8.39,7.35-27.47,15.1-14.83,15.39c12.64,0.29,24.77-2.64,31.21-5.81
			c6.43-3.18,1.3-8.18,9.27-10.69c10.51-3.32,8.34-11.04,2.88-15.82C2479.64,1715.35,2464.29,1716.64,2462.4,1727.34z"/>
		<path d="M2422.13,1393.6c0,0,25.18-74.02-46.25-135.01c0,0-38.28,15.24-68.94,17.08c-24.14,1.45-36.4-0.77-36.4-0.77
			s-2.03,65.76-2.12,101.21L2422.13,1393.6z"/>
		<path d="M2278.19,1315.49c-5.61,2.12-7.55,19.09-8.4,30.71c-0.84,11.61-5.24,132.09-6.88,153.91c-0.28,3.74-0.25,7.07,0,10.1
			c-0.25,1.95-0.37,4.04-0.28,6.35c1.48,35.39,9.04,147.29,8.25,215.73c0,0,1.94,4.46,5.51,6.09c5.18,2.36,13.8,0.81,18.94-1.18
			c4.78-53.83,39.78-165.3,17.65-218.99c-1-2.42-1.23-5.08-0.45-7.58c10.59-33.85,31.6-99.46,35.99-125.42
			C2355.9,1341.59,2306.26,1304.9,2278.19,1315.49z"/>
		<path d="M2430.72,1527.13c-1.69-1.82-2.73-4.12-2.85-6.6c-1.79-36.91-1.21-120.32-7.01-146.55
			c-9.53-43.19-59.27-61.09-81.31-40.73c-4.41,4.07-5.39,26.94-1.81,38.03c3.58,11.08,32.11,134.23,38.78,155.06
			c0.95,2.97,2,5.64,3.12,8.02c0.34,1.88,0.83,3.86,1.59,5.98c11.85,33.38,60.66,125.87,80.08,191.51c0,0,1.78,2.7,5.7,2.91
			c3.69,0.2,14.25-1.43,20.89-5.98C2476.54,1675.67,2474.43,1574.29,2430.72,1527.13z"/>
		<g>
			<g>
				<path class="st18" d="M2230.43,1086.57c-11.99,23.04-24.87,84.17-27.81,93.54c0,0,31.36,7.29,22.34,35.14
					c15.54-18.58,29.22-43.35,43.23-69.43c7.12-13.25,17.26-8.99,17.26-8.99l-31.72-79.91
					C2253.73,1056.92,2241.61,1065.08,2230.43,1086.57z"/>
				<path class="st18" d="M2144.54,1095.22c0,0-23.24,17.41-19.62,20.95c3.63,3.54,71.87,101.7,89.9,103.07
					c7.43,0.57,17.09-8.3,19.06-17.73c0.74-3.52,1.31-7.18,1.79-10.92C2228.27,1162.27,2144.54,1095.22,2144.54,1095.22z"/>
			</g>
			<g>
				<path class="st19" d="M2230.43,1086.57c-11.99,23.04-24.87,84.17-27.81,93.54c0,0,31.36,7.29,22.34,35.14
					c15.54-18.58,29.22-43.35,43.23-69.43c7.12-13.25,17.26-8.99,17.26-8.99l-31.72-79.91
					C2253.73,1056.92,2241.61,1065.08,2230.43,1086.57z"/>
				<path class="st19" d="M2144.54,1095.22c0,0-23.24,17.41-19.62,20.95c3.63,3.54,71.87,101.7,89.9,103.07
					c7.43,0.57,17.09-8.3,19.06-17.73c0.74-3.52,1.31-7.18,1.79-10.92C2228.27,1162.27,2144.54,1095.22,2144.54,1095.22z"/>
			</g>
		</g>
		<path class="st20" d="M2108.51,1073.65c0,0-1.92,5.43-1.64,12.31l5.03-6.15L2108.51,1073.65z"/>
		<g>
			<g>
				<path d="M2308.86,913.18c-6.29,1.82-9.62,9.94-11.75,15.5c-2.57,6.69-3.86,13.81-4.7,20.91c-0.59,4.94-0.94,10.14,1.03,14.71
					c1,2.33,2.56,4.38,4.1,6.4c0.87,1.14,1.77,2.31,2.96,3.12c1.19,0.81,2.75,1.22,4.09,0.7c1.96-0.76,2.75-3.06,3.3-5.08
					c3.63-13.21,7.59-26.56,15.04-38.05"/>
			</g>
			<g>
				<path class="st20" d="M2301.88,955c-0.12-4.21-4.55-6.94-8.38-2.59c-3.17,3.6-4.02,10.44-4.2,15.5
					c-0.22,6.06,4.48,7.25,8.34,8.09"/>
			</g>
			<path class="st19" d="M2250.41,1059.58c9.86-8.2,31.51-23.63,64.44-22.59c22.69,0.72,84.5,4.46,91.4,19.64
				c3.53,7.76,7.32,87.23,2.15,114.63c-3.89,20.6-13.83,71.65-13.83,83.97c0,12.32,6.62,17.6,3.53,21.18
				c-6.92,8.01-54.21,11.38-76.41,11.38c-19.76,0-53.4-5.27-55.1-11.6c-2.53-9.4,3.86-9.05,4.72-18.9
				c0.87-9.85,3.36-73.8-0.27-84.26c-6.55-18.9-9.72-49.71-14.92-63.68C2252.19,1098.74,2241.33,1067.13,2250.41,1059.58z"/>
			<path class="st21" d="M2391.04,1123.82c2.35,4.9,18.35,30.62,18.35,30.62l0.65,3.08c-0.39,5.33-0.93,10.03-1.63,13.74
				c-3.89,20.6-13.83,71.65-13.83,83.97c0,12.32,6.34,17.37,3.53,21.18c-5.45,7.39-94.62,24.01-90.23,3.38
				c0.4-1.87,74.84-58.67,75.24-60.57c3.43-16.3,6.42-28.04,7.92-39.93C2394.66,1150.67,2388.69,1118.92,2391.04,1123.82z"/>
			<path class="st20" d="M2307.26,1009.87c0,0-0.21,25.85-1.25,26.9c-1.04,1.04-6.15,3.46-6.15,3.46s3.64,22.47,9.27,20.8
				s42.81-20.44,42.81-20.44s-5.27-2.15-5.27-4.23c0-2.09,5-42.74,5-42.74"/>
			<path class="st20" d="M2333.08,915.97c-5.42,1.48-19.7-1.48-23.64,4.43c-3.94,5.91-7.39,20.19-8.86,24.13
				c-2.94,7.84-4.86,16.23-6.99,24.31c-2.78,10.54-7.37,29.84,2.93,38.65c2.96,2.53,4.28,3.37,7.95,4.03
				c4.88,0.88,9.74,1.88,14.62,2.76c7.56,1.36,15.94,2.94,23.45,0.5c10.04-3.26,15.54-17.06,18.12-26.43l14.77-53.68L2333.08,915.97
				z"/>
			<path class="st3" d="M2306.34,1071.1c0,0-2.18,100.87-6.28,162.23l14.83,20.46l10.2-25.62c0,0,4.3-74.01-9.65-156.37
				L2306.34,1071.1z"/>
			<path class="st3" d="M2302.92,1062.24l0.35,1.39c0.66,2.62,1.69,5.14,3.07,7.47l0,0l9.1,0.7c0,0,6.19-3.24,7.01-6.73
				c0.82-3.48-10.16-9.19-10.16-9.19l-1.33,0.52c-3.08,1.21-5.8,3.17-7.92,5.7L2302.92,1062.24z"/>
			<path class="st22" d="M2347.3,1030.06c0,0,5.82,3.61,10.38,10.52c-4.68,10.71-15.26,29.73-26.91,38.4
				c-5.45-14.61-18.48-23.1-18.48-23.1S2344.04,1050.23,2347.3,1030.06z"/>
			<path class="st22" d="M2312.29,1055.88c0,0-11.36,4.5-18.1,17.21c0,0-2.18-17.18,2.46-31.93c0,0,7.45-9.54,10.03-9.73
				C2305.62,1043.58,2312.29,1055.88,2312.29,1055.88z"/>
			<g>
				<g>
					<path class="st23" d="M2306.68,1281.32c-11.28,1.7-15.44,5.89-21.8,12.16c-0.52,0.51-1.07,1.16-0.95,1.88
						c0.15,0.9,1.2,1.3,2.1,1.44c5.24,0.84,6.09-2.5,10.99-4.55c3.31-1.38,6.59-2.81,9.87-4.24"/>
				</g>
				<g>
					<path class="st2" d="M2360.95,1439.41c-6.55,0-12.98-3.18-16.86-9.06l-243.77-368.94c-6.15-9.3-3.59-21.82,5.71-27.97
						c9.3-6.14,21.83-3.59,27.97,5.71l243.77,368.94c6.15,9.3,3.59,21.82-5.71,27.97
						C2368.64,1438.33,2364.77,1439.41,2360.95,1439.41z"/>
					<path class="st1" d="M2377.36,1430.98c-1.41,1.99-3.16,3.69-5.27,5.09c-3.45,2.28-7.32,3.34-11.12,3.34
						c-6.56,0-13-3.16-16.86-9.08l-243.8-368.92c-6.15-9.31-3.57-21.84,5.74-27.99c1.11-0.76,2.34-1.41,3.57-1.82
						c-4.8,6.62-5.27,15.69-0.53,22.89l243.8,368.98c3.86,5.85,10.3,9.02,16.86,9.02C2372.32,1432.5,2374.9,1432.03,2377.36,1430.98
						z"/>
					
						<ellipse transform="matrix(0.7071 -0.7071 0.7071 0.7071 -30.4556 1663.1591)" class="st24" cx="1992.38" cy="868.34" rx="187.09" ry="187.09"/>
					<path class="st25" d="M2141.5,794.72c-29.16-27.35-68.33-44.01-111.39-44.01c-90.11,0-163.11,73-163.11,163.06
						c0,26.4,6.25,51.33,17.45,73.34c-31.69-29.66-51.44-71.88-51.44-118.76c0-90.06,73-163.06,163.06-163.06
						C2059.61,705.28,2114.65,741.64,2141.5,794.72z"/>
					<path class="st1" d="M1996.18,1077.65c-68.55,0-135.86-33.28-176.4-94.64c-31.08-47.03-41.98-103.35-30.7-158.58
						c11.28-55.23,43.4-102.76,90.44-133.84c97.08-64.14,228.27-37.35,292.41,59.74l0,0c31.08,47.03,41.98,103.35,30.7,158.58
						c-11.28,55.23-43.4,102.76-90.44,133.84C2076.46,1066.36,2036.1,1077.65,1996.18,1077.65z M1995.58,689.19
						c-33.59,0-67.53,9.49-97.6,29.36c-39.57,26.14-66.58,66.13-76.08,112.59c-9.49,46.46-0.32,93.84,25.82,133.41
						c53.96,81.68,164.31,104.22,246,50.26c39.57-26.14,66.58-66.13,76.08-112.59c9.49-46.46,0.32-93.84-25.82-133.41l0,0
						C2109.88,717.19,2053.25,689.19,1995.58,689.19z"/>
					<path class="st26" d="M1996.2,1089.15c-72.29,0-143.27-35.1-186.02-99.8c-32.77-49.6-44.26-108.99-32.37-167.23
						c11.9-58.24,45.76-108.36,95.37-141.13c102.37-67.64,240.71-39.38,308.35,63l0,0c32.77,49.6,44.26,108.99,32.37,167.23
						c-11.9,58.24-45.76,108.36-95.37,141.13C2080.85,1077.25,2038.3,1089.15,1996.2,1089.15z M1995.56,679.51
						c-35.43,0-71.21,10.01-102.92,30.96c-41.72,27.57-70.21,69.73-80.22,118.73c-10.01,49-0.34,98.96,27.23,140.68
						c56.91,86.13,173.27,109.9,259.41,53c41.72-27.57,70.21-69.73,80.22-118.73c10.01-49,0.34-98.96-27.23-140.68l0,0
						C2116.1,709.04,2056.38,679.51,1995.56,679.51z"/>
				</g>
				<g>
					<path class="st20" d="M2338.44,1272.38c-8.75,1.82-32.05,8.78-34.5,9.93c-2.92,1.38-12.58,8.7-14.86,10.99
						c-8.77,8.79-4.29,12.9-7.74,24.83c-0.18,0.62-0.21,1.25-0.21,1.89c-0.01,1.25,1.68,2.32,3.38,1.15
						c0.91,1.54,3.62,0.59,4.93-1.09c-0.02,1.19,1.65,1.94,4.33,0.46c1.45-0.8,1.19-0.73,4.54-3.72c2.4-2.14,5.18-3.83,9.49-5.78
						c2.9-1.31,6.6-2.48,9.25-4.23c3.54-2.33,9.86-2.89,12.97-12.99c0.69-2.23,2.88-3.61,4.86-4.86c4.75-2.98,9.5-5.96,14.25-8.94"
						/>
				</g>
				<path class="st19" d="M2392.18,1108.34c3.71,13.22,19.14,104.86,19.14,104.86l-86.9,62.93l7.23,19.01
					c0,0,103.97-34.91,112.16-58.77c8.19-23.86,7.81-131.66-21.06-169.48c-9.19-12.04-27.61-18.11-27.61-18.11"/>
				<g>
					<path class="st23" d="M2303.06,1305.37c-1.68,1.64-3.52,3.1-5.18,4.72c-2.6,2.84-4.74,6.23-7.89,8.59
						c1.91-3.51,4.01-6.86,7.01-9.56C2298.87,1307.63,2300.91,1306.43,2303.06,1305.37L2303.06,1305.37z"/>
				</g>
				<g>
					<path class="st23" d="M2298.27,1299.62c-2.5,2.33-4.27,5.36-6.08,8.23c-1.84,4.05-3.89,8.03-6.78,11.46
						c1.13-3.27,3.35-7.65,4.81-10.82c0.82-1.84,2.21-3.45,3.49-4.99C2295.05,1302.03,2296.45,1300.46,2298.27,1299.62
						L2298.27,1299.62z"/>
				</g>
				<g>
					<path class="st23" d="M2292.78,1294.96c-1.17,2.18-3.35,4.2-4.59,6.32c-0.19,0.42-1.17,2.8-1.37,3.27
						c-1.47,3.54-2.69,7.09-4.13,10.67c0.14-5.12,1.88-10.12,4.49-14.5C2288.72,1298.5,2290.99,1296.95,2292.78,1294.96
						L2292.78,1294.96z"/>
				</g>
				<path class="st20" d="M2115.71,1096.24c0,0,4.49-11.48,5.84-14.49c1.36-3.01,2.81-5.73,3.69-5.05c0.87,0.68,1.16,1.84,0.68,4.17
					c-0.49,2.33-3.11,9.9-3.11,9.9"/>
			</g>
			<g>
				<path d="M2366.2,979.05c-3.41-1.99-6.02-4.09-8.23-0.83c-1.18,1.73-1.89,4.12-3.89,4.71c-2,0.59-4.07-1.2-4.56-3.23
					c-0.49-2.02,0.13-4.14,0.75-6.13c1.37-4.4,2.74-8.81,4.1-13.21c1.34-4.31,2.67-9.05,0.96-13.23c-0.86-2.11-2.44-3.86-4.17-5.34
					c-5.64-4.84-12.99-7.18-20.27-8.67c-7.28-1.49-14.74-2.25-21.82-4.48c-2.98-0.94-5.93-2.16-8.31-4.18
					c-3.85-3.26-5.83-8.39-5.89-13.44c-0.06-5.04,1.68-9.99,4.26-14.32c0.53,1.73,1.27,3.4,2.18,4.97c0.89-2.32,2.25-4.45,3.97-6.23
					c2.12,11.82,51.91,7.87,63.54,13.09c8.06,3.61,14.73,5.98,14.49,19.04c0.23,0.85,0.93,1.48,1.58,2.08
					c7.14,6.57,10.24,14.55,11.14,26.4c1.1,14.5-7.35,30.21-15.63,42.17c-2.08,3.01-3.24,5.14-6.15,7.35
					c-2.91,2.21-7.98,3.3-11.57,2.61c-3.59-0.69-10.66-0.38-10.73-4.03c-0.05-2.62,5.54-7.28,7.09-9.39"/>
			</g>
			<g>
				<path class="st20" d="M2353.16,992.76c0,0-0.59,2.43,0.93,4.35c1.33,1.68,4.04,1.44,5.89,0.83c5.29-1.71,8.94-6.87,9.93-12.19
					c1.17-6.27-2.2-12.55-7.94-10.92c-3.36,0.95-5.46,4.76-5.42,8.26"/>
			</g>
			<g class="st27">
				<path class="st28" d="M2307.28,1012.08l15.97,2.94c0,0-5.33,5.97-16.18,5.97"/>
			</g>
		</g>
		<path class="st20" d="M2125.14,1113.37c0,0-2.8-4.89-5.61-7.23c-2.81-2.35-10.7-6.1-12.5-9.38c-1.8-3.28,0.07-20.64,5.23-22.28
			c5.16-1.64,10.52,11.49,12.88,16.42c2.36,4.93,0.52,11.85,0.52,11.85l3.63,5.49C2129.29,1108.24,2126.74,1111.11,2125.14,1113.37z
			"/>
		<path class="st20" d="M2108.51,1079.41c0,0,3.5-8.48,4.86-11.49c1.36-3.01,2.82-5.73,3.69-5.05c0.87,0.68,1.4,2.42,0.91,4.75
			c-0.49,2.33-3.11,9.9-3.11,9.9"/>
		<path class="st20" d="M2110.83,1084.87c0,0,5.41-13.86,7.05-17.49c1.64-3.63,3.4-6.91,4.45-6.09c1.05,0.82,1.41,2.23,0.82,5.04
			c-0.59,2.81-3.75,11.95-3.75,11.95"/>
		<path class="st20" d="M2114.51,1088.66c0,0,4.49-11.48,5.84-14.49s2.81-5.73,3.69-5.05c0.87,0.68,1.16,1.84,0.68,4.17
			c-0.49,2.33-3.11,9.9-3.11,9.9"/>
	</g>
</g>
</svg>
