<?xml version="1.0" encoding="utf-8"?>
<!-- Generator: Adobe Illustrator 27.2.0, SVG Export Plug-In . SVG Version: 6.00 Build 0)  -->
<svg version="1.1" id="Layer_1" xmlns="http://www.w3.org/2000/svg" xmlns:xlink="http://www.w3.org/1999/xlink" x="0px" y="0px"
	 viewBox="0 0 2880 1800" style="enable-background:new 0 0 2880 1800;" xml:space="preserve">
<style type="text/css">
	.st0{opacity:0.36;clip-path:url(#XMLID_00000173864366365355142450000012767466389379995029_);fill:#A9C0E4;}
	.st1{opacity:0.36;fill:#A9C0E4;}
	.st2{clip-path:url(#XMLID_00000028319920712935623140000007123835160529916838_);fill:#0E5286;}
	.st3{opacity:0.43;clip-path:url(#XMLID_00000039827480480942830060000006065017170323610548_);fill:#1D3F77;}
	.st4{fill:#39385C;}
	.st5{fill:#C7C8CA;stroke:#05203A;stroke-width:1.1284;stroke-miterlimit:10;}
	.st6{fill:#515254;}
	.st7{fill:#F8A91C;}
	.st8{fill:#FFD23D;}
	.st9{fill:#FDF4E2;}
	.st10{fill:#7297BE;}
	.st11{fill:#3F6599;}
	.st12{fill:#C58C6A;}
	.st13{fill:#191934;}
	.st14{clip-path:url(#XMLID_00000109021136704454623610000012237782264129241791_);fill:#C58C6A;}
	.st15{clip-path:url(#XMLID_00000065793980059692423980000014546490459326904487_);fill:#C58C6A;}
	.st16{clip-path:url(#XMLID_00000166670910790571077690000008234700814166219701_);fill:#23417A;}
	.st17{fill:#2E180C;}
	.st18{clip-path:url(#XMLID_00000076575713372573248230000007198770318059495596_);fill:#C58C6A;}
	.st19{clip-path:url(#XMLID_00000091709184498509614270000009752982974757795750_);fill:#C58C6A;}
	.st20{fill:#0091C8;}
	.st21{fill:#A9C0E4;}
	.st22{fill:#FFFFFF;stroke:#000000;stroke-width:1.1284;stroke-miterlimit:10;}
	.st23{fill:#389CC8;}
	.st24{opacity:0.6;fill:#D6D1C6;stroke:#000000;stroke-width:1.1284;stroke-miterlimit:10;}
	.st25{fill:#00558C;}
	.st26{fill:#243D68;stroke:#000000;stroke-width:1.1284;stroke-miterlimit:10;}
	.st27{fill:#00558C;stroke:#00558C;stroke-width:4.5136;stroke-miterlimit:10;}
	.st28{fill:#FFFFFF;stroke:#00558C;stroke-width:4.5136;stroke-linecap:round;stroke-linejoin:round;stroke-miterlimit:10;}
</style>
<g>
	<defs>
		<path id="XMLID_00000183207598687388318130000014341823254912605084_" d="M389.33,1737.73h2267.18
			c31.63-231.38,247.98-660.77-4.48-837.68c-165.26-113.16-413.63-421.86-644.18-335.87c-201.05,34.16-860.47,302.87-1057.6,211.44
			c-211.57-90.12-423.24-56.66-557.94,140.63C193.71,1121.23,350.43,1501.62,389.33,1737.73z"/>
	</defs>
	<use xlink:href="#XMLID_00000183207598687388318130000014341823254912605084_"  style="overflow:visible;fill:#E9F1FA;"/>
	<clipPath id="XMLID_00000019660619671870546040000008641846755534361499_">
		<use xlink:href="#XMLID_00000183207598687388318130000014341823254912605084_"  style="overflow:visible;"/>
	</clipPath>
	<polygon style="opacity:0.36;clip-path:url(#XMLID_00000019660619671870546040000008641846755534361499_);fill:#A9C0E4;" points="
		2101.21,1757.19 2101.21,1118.73 1947.33,1118.73 1947.33,1756.7 	"/>
	<path style="opacity:0.36;clip-path:url(#XMLID_00000019660619671870546040000008641846755534361499_);fill:#A9C0E4;" d="
		M2680.36,870.87c0,0-178.8,616.1-206.38,639.88c-27.59,23.78-1455.77,252.36-1455.77,252.36l1711.71,56.15
		c0,0,143.03-578.66,139.22-675.44C2865.33,1047.05,2680.36,870.87,2680.36,870.87"/>
	
		<use xlink:href="#XMLID_00000183207598687388318130000014341823254912605084_"  style="overflow:visible;fill:none;stroke:#05203A;stroke-width:2.2568;stroke-miterlimit:10;"/>
</g>
<g>
	<path class="st1" d="M1412.28,1450.69c9.87-44.78,9.87-91.29,0-136.07h-99.29c-3.45-10.59-7.74-20.97-12.85-31.03l70.21-70.21
		c-23.84-37.72-58.5-72.37-96.22-96.22l-70.21,70.21c-10.07-5.11-20.44-9.4-31.03-12.85v-99.29c-44.78-9.87-91.29-9.87-136.07,0
		v99.29c-10.59,3.45-20.97,7.74-31.03,12.85l-70.21-70.21c-37.72,23.84-72.37,58.5-96.22,96.22l70.21,70.21
		c-5.11,10.07-9.4,20.44-12.85,31.03h-99.29c-9.87,44.78-9.87,91.29,0,136.07l99.29,0c3.45,10.59,7.74,20.97,12.85,31.03
		l-70.21,70.21c23.84,37.72,58.5,72.37,96.22,96.22l70.21-70.21c10.07,5.11,20.44,9.4,31.03,12.85v99.29
		c44.78,9.87,91.29,9.87,136.07,0v-99.29c10.59-3.45,20.97-7.74,31.03-12.85l70.21,70.21c37.72-23.84,72.37-58.5,96.22-96.22
		l-70.21-70.21c5.11-10.07,9.4-20.44,12.85-31.03L1412.28,1450.69z M1172.88,1450.67c-90.94,87.89-223.93-45.13-136.04-136.04
		C1127.78,1226.74,1260.76,1359.76,1172.88,1450.67z"/>
	<g>
		<g>
			<g>
				<g>
					<g>
						<defs>
							
								<rect id="XMLID_00000078742482555327676660000014336705678385888166_" x="1483.38" y="1117.22" width="426.16" height="620.51"/>
						</defs>
						<use xlink:href="#XMLID_00000078742482555327676660000014336705678385888166_"  style="overflow:visible;fill:#D9E8F7;"/>
						<clipPath id="XMLID_00000037652531581556862020000005793801082901529754_">
							<use xlink:href="#XMLID_00000078742482555327676660000014336705678385888166_"  style="overflow:visible;"/>
						</clipPath>
						<polyline style="clip-path:url(#XMLID_00000037652531581556862020000005793801082901529754_);fill:#0E5286;" points="
							1909.54,1677.11 1457.96,1711.45 1453.43,1739.75 1926.66,1755.6 1909.54,1677.11 						"/>
					</g>
					<g>
						<defs>
							<rect id="XMLID_262_" x="1909.54" y="1117.22" width="114.72" height="620.51"/>
						</defs>
						<use xlink:href="#XMLID_262_"  style="overflow:visible;fill:#0E5286;"/>
						<clipPath id="XMLID_00000035507879077707704240000012206819665994555070_">
							<use xlink:href="#XMLID_262_"  style="overflow:visible;"/>
						</clipPath>
						<path style="opacity:0.43;clip-path:url(#XMLID_00000035507879077707704240000012206819665994555070_);fill:#1D3F77;" d="
							M2005.65,1079.86c0,0-20.91,502.47-20.91,518.92s-117.65,114.97-117.65,114.97v27.71h157.17l17.76-651.23L2005.65,1079.86z"/>
					</g>
				</g>
				<g>
					<g>
						<path class="st4" d="M1658.31,1541.1v-19.55c197.39-3.56,197.26-296.8,0-300.31v-19.55
							C1881.4,1205.71,1881.25,1537.14,1658.31,1541.1z"/>
						<path class="st4" d="M1076.9,1676.26c-400.32-12.1-400-593.55,0-605.51v18.21c-376.23,11.37-375.94,557.84,0,569.08V1676.26z"
							/>
						<g>
							<g>
								<path class="st4" d="M1679.69,1222.48c-0.53,0.67-572.07-136.15-573.12-136.1c-4.9-1.17-7.92-6.08-6.75-10.97
									s6.07-7.92,10.97-6.75l571.01,135.86C1692.01,1206.66,1690.19,1222.8,1679.69,1222.48z"/>
							</g>
							<g>
								<path class="st4" d="M1108.67,1673.03c-10.34,0.27-12.53-15.87-2.02-17.99c0,0,571.01-130.29,571.01-130.29
									c4.9-1.12,9.78,1.95,10.9,6.85c1.12,4.9-1.95,9.78-6.85,10.9C1678.76,1542.93,1111.27,1673.14,1108.67,1673.03z"/>
							</g>
							<g>
								<defs>
									<path id="XMLID_00000053527217062982564450000011368665246193241520_" d="M1275.09,1441.54l99.29,0
										c9.87-44.78,9.87-91.29,0-136.07l-99.29,0c-3.45-10.59-7.74-20.97-12.85-31.03l70.21-70.21
										c-23.84-37.72-58.5-72.37-96.22-96.22l-70.21,70.21c-10.07-5.11-20.44-9.4-31.03-12.85v-99.29
										c-44.78-9.87-91.29-9.87-136.07,0v99.29c-10.59,3.45-20.97,7.74-31.03,12.85l-70.21-70.21
										c-37.72,23.84-72.37,58.5-96.22,96.22l70.21,70.21c-5.11,10.07-9.4,20.44-12.85,31.03h-99.29
										c-9.87,44.78-9.87,91.29,0,136.07l99.29,0c3.45,10.59,7.74,20.97,12.85,31.03l-70.21,70.21
										c23.84,37.72,58.5,72.37,96.22,96.22l70.21-70.21c10.07,5.11,20.44,9.4,31.03,12.85v99.29c44.78,9.87,91.29,9.87,136.07,0
										v-99.29c10.59-3.45,20.97-7.74,31.03-12.85l70.21,70.21c37.72-23.84,72.37-58.5,96.22-96.22l-70.21-70.21
										C1267.35,1462.51,1271.64,1452.13,1275.09,1441.54z M998.94,1441.52c-87.89-90.94,45.13-223.93,136.04-136.04
										C1222.86,1396.42,1089.85,1529.41,998.94,1441.52z"/>
								</defs>
								<use xlink:href="#XMLID_00000053527217062982564450000011368665246193241520_"  style="overflow:visible;fill:#C7C8CA;"/>
								<clipPath id="XMLID_00000030450735617137000740000007175966222218724793_">
									<use xlink:href="#XMLID_00000053527217062982564450000011368665246193241520_"  style="overflow:visible;"/>
								</clipPath>
								
									<use xlink:href="#XMLID_00000053527217062982564450000011368665246193241520_"  style="overflow:visible;fill:none;stroke:#05203A;stroke-width:1.1284;stroke-miterlimit:10;"/>
							</g>
							<path class="st5" d="M1792.98,1328.32l46.96-36.9c-11.98-24.84-29.27-46.84-50.58-64.35l-46.96,36.9
								c-5.57-3.73-11.45-7.04-17.61-9.9l7.11-59.3c-25.3-8.98-54.57-12.49-81.27-9.74l-7.11,59.3c-6.66,1.33-13.16,3.15-19.45,5.46
								l-36.9-46.96c-24.84,11.98-46.84,29.27-64.35,50.58l36.9,46.96c-3.73,5.57-7.04,11.45-9.9,17.61l-59.3-7.11
								c-8.98,25.3-12.49,54.57-9.74,81.27l59.3,7.11c1.33,6.66,3.15,13.16,5.46,19.45l-46.96,36.9
								c11.98,24.84,29.27,46.84,50.58,64.35l46.96-36.9c5.57,3.73,11.45,7.04,17.61,9.9l-7.11,59.3
								c25.3,8.98,54.57,12.49,81.27,9.74l7.11-59.3c6.66-1.33,13.16-3.15,19.45-5.46l36.9,46.96
								c24.84-11.98,46.84-29.27,64.35-50.58l-36.9-46.96c3.73-5.57,7.04-11.45,9.9-17.61l59.3,7.11
								c8.98-25.3,12.49-54.57,9.74-81.27l-59.3-7.11C1797.11,1341.11,1795.28,1334.61,1792.98,1328.32z M1662.36,1430.96
								c-75.37-10.34-61.89-122.68,13.78-114.91C1751.51,1326.39,1738.03,1438.73,1662.36,1430.96z"/>
						</g>
					</g>
				</g>
			</g>
			<path class="st6" d="M1701.96,1373.5c-0.73,43-64.7,42.99-65.43,0C1637.27,1330.5,1701.24,1330.51,1701.96,1373.5z"/>
			<path class="st6" d="M1131.41,1373.5c-1.45,84.72-127.47,84.71-128.91,0C1003.95,1288.78,1129.98,1288.79,1131.41,1373.5z"/>
		</g>
		<g id="kc5eA8.tif_00000104666766715932030030000016057243757576467868_">
			<g>
				<path class="st7" d="M1723.76,953.04c20.93,0,41.87-0.41,62.78,0.18c10.34,0.29,16.05-3.7,18.22-13.6
					c9.3-42.41,30.48-79.19,53.39-115.39c22.81-36.03,27.87-76.44,17.18-116.69c-17.38-65.41-61.63-106.2-128.05-116.55
					c-63.7-9.93-116.88,14.46-152.18,68.57c-36.98,56.68-35.34,115.84,1.13,173.18c20.09,31.58,37.42,64.37,46.38,100.91
					c3.48,14.18,9.46,21.13,25.36,19.79C1686.45,951.86,1705.15,953.05,1723.76,953.04z M1651.34,1004.87
					c46.02,0,91.42-0.14,136.83,0.1c11.69,0.06,14.22-6.4,14.17-16.29c-0.04-9.03-2.6-15.03-12.95-15.01
					c-46.17,0.08-92.34,0.03-138.29,0.03C1647.66,984.52,1647.48,992.76,1651.34,1004.87z M1924.35,752.09
					c16.4,9.99,32.73,8.53,48.53,9.24c4.87,0.22,9.11-2.99,9.83-8.05c0.36-2.47-1.37-5.98-3.28-7.9
					C1971.05,736.93,1935.01,740.39,1924.35,752.09z M1488.36,754.68c10.03-3.43,31.06,5.73,29.55-13.06
					c-1.24-15.4-20.34-6.44-31.67-6.88c-5.25-0.2-10.65,1.24-15.86,2.45c-5.09,1.18-7.82,4.57-6.98,10.1
					c0.67,4.46,3.89,6.83,7.81,7.25C1476.5,755.11,1481.91,754.68,1488.36,754.68z M1940.5,880.23c0.2-9.22-36.55-35.18-44.6-31.7
					c-7.86,3.4-7.77,9.98-2.23,14.52c10.58,8.68,21.86,16.65,33.56,23.73C1933.61,890.65,1938.91,887.43,1940.5,880.23z
					 M1862.45,524.54c-1.27-2.4-2.06-5.67-4.14-7.44c-3.24-2.75-7.82-2.48-10.53,0.61c-9.72,11.07-17.57,23.43-22.83,37.26
					c-1.49,3.9-0.03,7.83,3.2,10.39c3.39,2.69,8.15,2.82,10.56-0.33C1848.08,552.79,1856.58,539.94,1862.45,524.54z M1547.59,638.35
					c-12.88-20.79-30.12-28-48.19-30.96c-9.35-1.53-11.32,8.92-4.21,13.78C1509.05,630.64,1522.36,643.71,1547.59,638.35z
					 M1911.35,648.25c0.76-0.07,1.67,0.11,2.26-0.24c13.62-8.14,30.8-10.85,40.16-25.34c2.24-3.46-1.04-8.62-4.81-8.97
					c-17.56-1.61-29.43,11.16-43.35,18.63c-3.56,1.91-4.94,5.91-3.33,10.05C1903.85,646.39,1907.14,648.13,1911.35,648.25z
					 M1556.09,850.18c-0.65-7.23-5.83-11.73-12.26-8.09c-12.62,7.15-24.76,15.54-35.76,24.99c-5.16,4.43-3.78,11.73,4.16,14.36
					C1518.8,883.62,1555.4,857.7,1556.09,850.18z M1612.22,560.07c7.51-0.56,10.03-4.97,8.59-9.64
					c-4.55-14.74-13.08-27.52-22.79-39.27c-3.03-3.67-8.79-3.25-11.99,1.25c-4.26,5.99-1.89,12.22,2.12,16.99
					C1596.69,539.57,1598.28,555.63,1612.22,560.07z M1734.39,508.39c0-4.43,0.13-7.51-0.03-10.58c-0.4-7.57,0.73-17.06-10.49-16.81
					c-11.35,0.25-9.09,10.16-9.82,17.43c-0.31,3.05-0.6,6.23-0.07,9.21c1.83,10.24-6.07,28.17,10.56,27.84
					C1741.08,535.15,1731.58,517.05,1734.39,508.39z"/>
				<path class="st8" d="M1723.76,953.04c-18.6,0.01-37.31-1.18-55.78,0.37c-15.91,1.34-21.89-5.62-25.36-19.79
					c-8.96-36.54-26.29-69.33-46.38-100.91c-36.47-57.34-38.11-116.49-1.13-173.18c35.3-54.11,88.48-78.5,152.18-68.57
					c66.43,10.36,110.67,51.14,128.05,116.55c10.69,40.25,5.63,80.66-17.18,116.69c-22.92,36.2-44.09,72.97-53.39,115.39
					c-2.17,9.91-7.88,13.9-18.22,13.6C1765.63,952.62,1744.69,953.04,1723.76,953.04z M1724.63,929.04
					c10.84,0,21.82-1.11,32.49,0.25c17.48,2.22,26.49-4.03,31.74-21.4c9.68-32.03,25.65-61.2,44.06-89.3
					c25.96-39.63,29.94-82.14,11.51-126.36c-26.34-63.2-100.36-94.4-166.77-70.13c-63.46,23.19-99.01,97.1-78.2,161.22
					c11.39,35.1,40.33,61.32,49.64,96.76C1659.86,921.06,1680.5,942.06,1724.63,929.04z"/>
				<path class="st8" d="M1651.17,1023.57c46.38,0,93.26-0.26,140.14,0.19c11.09,0.11,10.2,9.15,9.85,17.21
					c-1.94,43.7-40.64,75.92-85.79,71.27C1673.82,1107.97,1644.59,1069.29,1651.17,1023.57z"/>
				<path class="st8" d="M1651.34,1004.87c-3.86-12.11-3.68-20.36-0.24-31.16c45.95,0,92.12,0.04,138.29-0.03
					c10.35-0.02,12.92,5.98,12.95,15.01c0.04,9.89-2.49,16.35-14.17,16.29C1742.77,1004.73,1697.36,1004.87,1651.34,1004.87z"/>
				<path class="st8" d="M1924.35,752.09c10.66-11.7,46.7-15.16,55.08-6.7c1.91,1.92,3.63,5.43,3.28,7.9
					c-0.73,5.05-4.96,8.27-9.83,8.05C1957.08,760.61,1940.75,762.07,1924.35,752.09z"/>
				<path class="st8" d="M1488.36,754.68c-6.45,0-11.86,0.43-17.15-0.14c-3.92-0.42-7.13-2.79-7.81-7.25
					c-0.84-5.53,1.9-8.92,6.98-10.1c5.21-1.21,10.6-2.65,15.86-2.45c11.33,0.44,30.43-8.52,31.67,6.88
					C1519.42,760.41,1498.39,751.25,1488.36,754.68z"/>
				<path class="st8" d="M1940.5,880.23c-1.59,7.19-6.89,10.42-13.27,6.55c-11.7-7.08-22.98-15.05-33.56-23.73
					c-5.53-4.54-5.62-11.12,2.23-14.52C1903.94,845.06,1940.7,871.01,1940.5,880.23z"/>
				<path class="st8" d="M1862.45,524.54c-5.87,15.41-14.37,28.26-23.73,40.48c-2.41,3.15-7.17,3.02-10.56,0.33
					c-3.24-2.57-4.69-6.49-3.2-10.39c5.26-13.82,13.11-26.19,22.83-37.26c2.71-3.09,7.29-3.36,10.53-0.61
					C1860.39,518.86,1861.19,522.14,1862.45,524.54z"/>
				<path class="st8" d="M1547.59,638.35c-25.23,5.36-38.55-7.72-52.4-17.18c-7.11-4.86-5.14-15.31,4.21-13.78
					C1517.48,610.36,1534.71,617.56,1547.59,638.35z"/>
				<path class="st8" d="M1911.34,648.26c-4.2-0.12-7.49-1.86-9.06-5.88c-1.61-4.14-0.23-8.14,3.33-10.05
					c13.93-7.47,25.79-20.24,43.35-18.63c3.77,0.35,7.04,5.51,4.81,8.97c-9.36,14.49-26.54,17.2-40.16,25.34
					C1913.02,648.36,1912.11,648.18,1911.34,648.26z"/>
				<path class="st8" d="M1556.09,850.18c-0.69,7.51-37.29,33.44-43.86,31.26c-7.95-2.63-9.32-9.94-4.16-14.36
					c11-9.45,23.14-17.84,35.76-24.99C1550.26,838.45,1555.44,842.95,1556.09,850.18z"/>
				<path class="st8" d="M1612.22,560.07c-13.95-4.44-15.53-20.51-24.06-30.67c-4-4.77-6.38-11-2.12-16.99
					c3.2-4.5,8.96-4.92,11.99-1.25c9.7,11.76,18.23,24.54,22.79,39.27C1622.26,555.1,1619.73,559.51,1612.22,560.07z"/>
				<path class="st8" d="M1734.39,508.39c-2.81,8.65,6.69,26.75-9.85,27.09c-16.63,0.33-8.72-17.59-10.56-27.84
					c-0.53-2.97-0.24-6.16,0.07-9.21c0.73-7.26-1.53-17.17,9.82-17.43c11.22-0.25,10.09,9.24,10.49,16.81
					C1734.52,500.88,1734.39,503.96,1734.39,508.39z"/>
				<path class="st7" d="M1724.63,929.04c-44.14,13.02-64.77-7.98-75.54-48.95c-9.31-35.44-38.25-61.66-49.64-96.76
					c-20.81-64.13,14.74-138.03,78.2-161.22c66.41-24.27,140.43,6.93,166.77,70.13c18.43,44.22,14.45,86.73-11.51,126.36
					c-18.41,28.1-34.38,57.27-44.06,89.3c-5.25,17.38-14.26,23.63-31.74,21.4C1746.45,927.94,1735.47,929.04,1724.63,929.04z
					 M1618.07,720.88c5.2,0.16,9.12-2.15,10.43-7.85c5.47-23.9,23.56-38.09,40.34-53.17c5.61-5.04,16.08-8.63,10.9-17.38
					c-6.34-10.69-14.9-1.76-21.94,1.85c-26.92,13.79-32.15,43.66-47.6,65.93C1606.61,715.43,1612.46,719.91,1618.07,720.88z"/>
				<path class="st7" d="M1677.7,1044.58c32.05,0,63.55,0,95.77,0c-8.66,30.89-26.05,44.78-51.81,43.39
					C1699.2,1086.75,1683.82,1072.27,1677.7,1044.58z"/>
				<path class="st9" d="M1618.07,720.88c-5.61-0.97-11.46-5.45-7.88-10.61c15.45-22.27,20.68-52.14,47.6-65.93
					c7.03-3.6,15.59-12.54,21.94-1.85c5.19,8.75-5.29,12.34-10.9,17.38c-16.78,15.07-34.87,29.26-40.34,53.17
					C1627.19,718.73,1623.27,721.04,1618.07,720.88z"/>
			</g>
		</g>
		<g>
			<path class="st10" d="M1789.92,982.84h-38.24c66.7,1.19,42.19,93.1,46.47,134.38h38.24
				C1832.1,1075.78,1856.63,984.1,1789.92,982.84z"/>
			<path class="st11" d="M1751.68,982.84c-141.09-2.72-135.83-5.44-133.6,134.38h180.07
				C1793.86,1075.78,1818.39,984.1,1751.68,982.84z"/>
		</g>
	</g>
</g>
<g>
	<g>
		<defs>
			<path id="XMLID_00000061447455358869484830000008857663538784915841_" d="M345.18,1508.61l51.73-159.46h5.01H534.7l131.59,97.02
				c37.36,26.16,40.21,85.25,5.5,114.86c0,0-137.09,122.93-137.09,122.93l-54.16-26.11l112.55-141.29
				c-15.05-5.51-110.55-34.59-122.44-41.8l-34.05,64.67c-8.07,26.61-164.99,133.02-186.02,152.79l-42.76-31.09L345.18,1508.61z"/>
		</defs>
		<use xlink:href="#XMLID_00000061447455358869484830000008857663538784915841_"  style="overflow:visible;fill:#39385C;"/>
		<clipPath id="XMLID_00000006701574744942513260000006084422188673960322_">
			<use xlink:href="#XMLID_00000061447455358869484830000008857663538784915841_"  style="overflow:visible;"/>
		</clipPath>
	</g>
	<path class="st12" d="M848.77,1136.14c-28.39,12.22-142.45,85.31-173.27,82.67c0,0-59.93,3.13-59.93,3.13l11.28-60.54
		c45.54,3.3,174.04-23.57,220.54-30.84L848.77,1136.14z"/>
	<path class="st13" d="M470.08,1474.46l30.36-56.28c0,0,13.95,53.9,92.66,98.37C593.09,1516.55,493.05,1489.92,470.08,1474.46z"/>
	<g>
		<defs>
			<path id="XMLID_00000135659445165204366100000000370107789007908762_" d="M861.01,1160.93c-29.21,9.77-135.91,65.02-166.14,62.28
				c0,0-60.01,0-60.01,0l14.42-59.87l48.67,0.93c7.75,3.51,138.37-31.94,149.45-33.69c11.22-7,25.77-18.42,39.96-15.67l-18.22,15.67
				l42.28-9.01c6.75-1.44,12.7,4.64,11.12,11.36C915.45,1162.94,885.48,1161.21,861.01,1160.93z"/>
		</defs>
		<use xlink:href="#XMLID_00000135659445165204366100000000370107789007908762_"  style="overflow:visible;fill:#C58C6A;"/>
		<clipPath id="XMLID_00000160153739255121664800000014110995677478044038_">
			<use xlink:href="#XMLID_00000135659445165204366100000000370107789007908762_"  style="overflow:visible;"/>
		</clipPath>
		<polygon style="clip-path:url(#XMLID_00000160153739255121664800000014110995677478044038_);fill:#C58C6A;" points="
			658.16,1157.68 673.85,1230.76 622.2,1229.61 634.86,1155.77 		"/>
	</g>
	<g>
		<defs>
			<path id="XMLID_00000153705491795141576440000007418497145824181684_" d="M574.43,1047.04l17.65,54.09
				c3.18,9.76-3.24,20.02-13.41,21.43l-28.01,3.87l-9.2,45.57h-44.46l32.74-124.95H574.43z"/>
		</defs>
		<use xlink:href="#XMLID_00000153705491795141576440000007418497145824181684_"  style="overflow:visible;fill:#C58C6A;"/>
		<clipPath id="XMLID_00000005971907174464345500000011875895460188674200_">
			<use xlink:href="#XMLID_00000153705491795141576440000007418497145824181684_"  style="overflow:visible;"/>
		</clipPath>
		<path style="clip-path:url(#XMLID_00000005971907174464345500000011875895460188674200_);fill:#C58C6A;" d="M592.91,1114.45
			c0,0-21.88,5.67-46.65-2.4c0,0,5.42,9.41,3.89,16.96c-1.52,7.55,0,0,0,0S589.47,1128.04,592.91,1114.45z"/>
	</g>
	<g>
		<defs>
			<path id="XMLID_4_" d="M511.63,1143.88L653.6,1151l-21.1,86.79l-72.19-2.23v139.35c0,0-105.41,30.1-180.41,6.95l93.82-214.51
				C480.25,1152.4,495.34,1143.06,511.63,1143.88z"/>
		</defs>
		<use xlink:href="#XMLID_4_"  style="overflow:visible;fill:#23417A;"/>
		<clipPath id="XMLID_00000028316872498606935190000005688442124513822613_">
			<use xlink:href="#XMLID_4_"  style="overflow:visible;"/>
		</clipPath>
		<path style="clip-path:url(#XMLID_00000028316872498606935190000005688442124513822613_);fill:#23417A;" d="M560.3,1235.56H536
			c0,0,6.74,144.91-53.36,157.83l83.13-11.8L560.3,1235.56"/>
	</g>
	<path class="st17" d="M575.65,1050.75c0,0-3.49,35.9-28.88,37.41v-12.12c0,0-16.49,9.8-1.81,18.81l-24.26,19.6h-8.61l2.4-63.11
		c0.41-10.74,7.54-20.06,17.81-23.25c19.13-5.95,50.41-12.18,73.43,0.53c0,0-9.1,12.64-26.84,13.78c0,0,9.24,2.63,25.73-2
		C604.62,1040.4,593.91,1057.96,575.65,1050.75z"/>
	<path class="st4" d="M461.51,1692.21c0,0,11.01,18.92,46.88,7.58c19.9,8.16,47.21,16.51,57.74,37.12H444.86
		C443.65,1719.28,446.9,1703.58,461.51,1692.21z"/>
	<g>
		<defs>
			<path id="XMLID_3_" d="M461.51,1692.21l27.01-30.53l40.54,19.55l-20.66,18.56C501.17,1705.65,466.97,1705.54,461.51,1692.21z"/>
		</defs>
		<use xlink:href="#XMLID_3_"  style="overflow:visible;fill:#C58C6A;"/>
		<clipPath id="XMLID_00000015330143254696737850000015042063752174405819_">
			<use xlink:href="#XMLID_3_"  style="overflow:visible;"/>
		</clipPath>
		<polygon style="clip-path:url(#XMLID_00000015330143254696737850000015042063752174405819_);fill:#C58C6A;" points="
			524.3,1697.39 479.09,1667.57 489.36,1655.71 533.6,1677.83 		"/>
	</g>
	<g>
		<defs>
			<path id="XMLID_2_" d="M246.65,1689.35l-15.09,13.23l-28.43,5.71l-17.9-10.66c-0.76-4.08,25.52-29.43,28.01-32.58L246.65,1689.35
				z"/>
		</defs>
		<use xlink:href="#XMLID_2_"  style="overflow:visible;fill:#C58C6A;"/>
		<clipPath id="XMLID_00000128450138042196760950000002477073725535998120_">
			<use xlink:href="#XMLID_2_"  style="overflow:visible;"/>
		</clipPath>
		<path style="clip-path:url(#XMLID_00000128450138042196760950000002477073725535998120_);fill:#C58C6A;" d="M207.83,1667.49
			l31.41,32.15c0,0,12.56-11.55,12.06-11.89c-0.5-0.33-37.85-26.96-37.85-26.96L207.83,1667.49z"/>
	</g>
	<path class="st4" d="M187.58,1692.21c0,0,11.01,18.92,46.88,7.58c19.9,8.16,47.21,16.51,57.74,37.12H170.92
		C169.72,1719.28,172.97,1703.58,187.58,1692.21z"/>
</g>
<rect x="88.2" y="1732.84" class="st4" width="2757.71" height="8.16"/>
<g>
	<polygon class="st20" points="873.04,860.02 816.39,782.44 759.74,860.02 783.63,860.02 783.63,979.37 849.16,979.37 
		849.16,860.02 	"/>
	<polygon class="st20" points="987.1,723.44 930.45,645.86 873.81,723.44 897.69,723.44 897.69,842.79 963.22,842.79 963.22,723.44 
			"/>
	<rect x="898" y="859.45" class="st20" width="65.36" height="21.46"/>
	<rect x="898" y="895.2" class="st20" width="65.36" height="10.73"/>
</g>
<g>
	<polygon class="st21" points="2146.7,932.15 2186.62,877.47 2226.55,932.15 2209.71,932.15 2209.71,1016.26 2163.53,1016.26 
		2163.53,932.15 	"/>
	<polygon class="st21" points="2066.31,835.9 2106.24,781.22 2146.16,835.9 2129.33,835.9 2129.33,920.01 2083.15,920.01 
		2083.15,835.9 	"/>
	
		<rect x="2083.05" y="931.75" transform="matrix(-1 -1.224647e-16 1.224647e-16 -1 4212.1548 1878.614)" class="st21" width="46.06" height="15.12"/>
	
		<rect x="2083.05" y="956.94" transform="matrix(-1 -1.224647e-16 1.224647e-16 -1 4212.1548 1921.4478)" class="st21" width="46.06" height="7.56"/>
</g>
<g>
	<g>
		<path class="st22" d="M2623.21,1016.68c0-2.41-0.95-4.68-2.69-6.39c-1.74-1.72-4.04-2.65-6.48-2.66h-0.03l-334.68,0.04
			c-2.46,0-4.76,0.95-6.51,2.66c-1.74,1.71-2.7,3.98-2.69,6.39l0.05,429.77c0.01,4.98,4.12,9.03,9.17,9.04h0.03l334.68-0.04
			c5.07,0.01,9.2-4.05,9.21-9.05L2623.21,1016.68z M2282.39,1444.06c-2.37,0-4.29-1.92-4.29-4.29c0-2.37,1.92-4.29,4.29-4.29
			c2.37,0,4.29,1.92,4.29,4.29C2286.68,1442.14,2284.76,1444.06,2282.39,1444.06z M2282.39,1423.45c-2.37,0-4.29-1.92-4.29-4.29
			c0-2.37,1.92-4.29,4.29-4.29c2.37,0,4.29,1.92,4.29,4.29C2286.68,1421.53,2284.76,1423.45,2282.39,1423.45z M2282.39,1402.83
			c-2.37,0-4.29-1.92-4.29-4.29c0-2.37,1.92-4.29,4.29-4.29c2.37,0,4.29,1.92,4.29,4.29
			C2286.68,1400.91,2284.76,1402.83,2282.39,1402.83z M2282.39,1382.22c-2.37,0-4.29-1.92-4.29-4.29c0-2.37,1.92-4.29,4.29-4.29
			c2.37,0,4.29,1.92,4.29,4.29C2286.68,1380.3,2284.76,1382.22,2282.39,1382.22z M2282.39,1361.61c-2.37,0-4.29-1.92-4.29-4.29
			c0-2.37,1.92-4.29,4.29-4.29c2.37,0,4.29,1.92,4.29,4.29C2286.68,1359.68,2284.76,1361.61,2282.39,1361.61z M2282.39,1340.99
			c-2.37,0-4.29-1.92-4.29-4.29c0-2.37,1.92-4.29,4.29-4.29c2.37,0,4.29,1.92,4.29,4.29
			C2286.68,1339.07,2284.76,1340.99,2282.39,1340.99z M2282.39,1320.38c-2.37,0-4.29-1.92-4.29-4.29c0-2.37,1.92-4.29,4.29-4.29
			c2.37,0,4.29,1.92,4.29,4.29C2286.68,1318.45,2284.76,1320.38,2282.39,1320.38z M2282.39,1299.76c-2.37,0-4.29-1.92-4.29-4.29
			c0-2.37,1.92-4.29,4.29-4.29c2.37,0,4.29,1.92,4.29,4.29C2286.68,1297.84,2284.76,1299.76,2282.39,1299.76z M2282.39,1279.15
			c-2.37,0-4.29-1.92-4.29-4.29c0-2.37,1.92-4.29,4.29-4.29c2.37,0,4.29,1.92,4.29,4.29
			C2286.68,1277.22,2284.76,1279.15,2282.39,1279.15z M2282.39,1258.53c-2.37,0-4.29-1.92-4.29-4.29c0-2.37,1.92-4.29,4.29-4.29
			c2.37,0,4.29,1.92,4.29,4.29C2286.68,1256.61,2284.76,1258.53,2282.39,1258.53z M2282.39,1237.92c-2.37,0-4.29-1.92-4.29-4.29
			c0-2.37,1.92-4.29,4.29-4.29c2.37,0,4.29,1.92,4.29,4.29C2286.68,1236,2284.76,1237.92,2282.39,1237.92z M2282.39,1217.3
			c-2.37,0-4.29-1.92-4.29-4.29c0-2.37,1.92-4.29,4.29-4.29c2.37,0,4.29,1.92,4.29,4.29
			C2286.68,1215.38,2284.76,1217.3,2282.39,1217.3z M2282.39,1196.69c-2.37,0-4.29-1.92-4.29-4.29c0-2.37,1.92-4.29,4.29-4.29
			c2.37,0,4.29,1.92,4.29,4.29C2286.68,1194.77,2284.76,1196.69,2282.39,1196.69z M2282.39,1176.07c-2.37,0-4.29-1.92-4.29-4.29
			s1.92-4.29,4.29-4.29c2.37,0,4.29,1.92,4.29,4.29S2284.76,1176.07,2282.39,1176.07z M2282.39,1155.46c-2.37,0-4.29-1.92-4.29-4.29
			c0-2.37,1.92-4.29,4.29-4.29c2.37,0,4.29,1.92,4.29,4.29C2286.68,1153.54,2284.76,1155.46,2282.39,1155.46z M2282.39,1134.85
			c-2.37,0-4.29-1.92-4.29-4.29c0-2.37,1.92-4.29,4.29-4.29c2.37,0,4.29,1.92,4.29,4.29
			C2286.68,1132.92,2284.76,1134.85,2282.39,1134.85z M2282.39,1114.23c-2.37,0-4.29-1.92-4.29-4.29c0-2.37,1.92-4.29,4.29-4.29
			c2.37,0,4.29,1.92,4.29,4.29C2286.68,1112.31,2284.76,1114.23,2282.39,1114.23z M2282.39,1093.62c-2.37,0-4.29-1.92-4.29-4.29
			c0-2.37,1.92-4.29,4.29-4.29c2.37,0,4.29,1.92,4.29,4.29C2286.68,1091.69,2284.76,1093.62,2282.39,1093.62z M2282.39,1073
			c-2.37,0-4.29-1.92-4.29-4.29c0-2.37,1.92-4.29,4.29-4.29c2.37,0,4.29,1.92,4.29,4.29C2286.68,1071.08,2284.76,1073,2282.39,1073z
			 M2282.39,1052.39c-2.37,0-4.29-1.92-4.29-4.29c0-2.37,1.92-4.29,4.29-4.29c2.37,0,4.29,1.92,4.29,4.29
			C2286.68,1050.46,2284.76,1052.39,2282.39,1052.39z M2282.39,1031.77c-2.37,0-4.29-1.92-4.29-4.29c0-2.37,1.92-4.29,4.29-4.29
			c2.37,0,4.29,1.92,4.29,4.29C2286.68,1029.85,2284.76,1031.77,2282.39,1031.77z"/>
		<rect x="2340.15" y="1052.24" class="st11" width="233.52" height="45.03"/>
		<rect x="2303.99" y="1131.64" class="st23" width="50.73" height="45.03"/>
		<g>
			<rect x="2374.5" y="1137.36" class="st24" width="223.61" height="4.6"/>
			<rect x="2374.5" y="1149.75" class="st24" width="223.61" height="4.6"/>
			<rect x="2374.5" y="1162.14" class="st24" width="223.61" height="4.6"/>
		</g>
		<g>
			<rect x="2374.5" y="1212.7" class="st24" width="223.61" height="4.6"/>
			<rect x="2374.5" y="1225.09" class="st24" width="223.61" height="4.6"/>
			<rect x="2374.5" y="1237.48" class="st24" width="223.61" height="4.59"/>
		</g>
		<g>
			<rect x="2374.5" y="1288.04" class="st24" width="223.61" height="4.6"/>
			<rect x="2374.5" y="1300.43" class="st24" width="223.61" height="4.6"/>
			<rect x="2374.5" y="1312.82" class="st24" width="223.61" height="4.6"/>
		</g>
		<g>
			<rect x="2374.5" y="1363.38" class="st24" width="223.61" height="4.6"/>
			<rect x="2374.5" y="1375.77" class="st24" width="223.61" height="4.6"/>
			<rect x="2374.5" y="1388.16" class="st24" width="223.61" height="4.6"/>
		</g>
		<rect x="2303.99" y="1205.72" class="st10" width="50.73" height="45.03"/>
		<rect x="2303.99" y="1279.79" class="st25" width="50.73" height="45.03"/>
		<rect x="2303.99" y="1353.87" class="st23" width="50.73" height="45.03"/>
	</g>
	<rect x="2309.48" y="991.07" class="st26" width="37.97" height="37.97"/>
	<rect x="2367.83" y="991.07" class="st26" width="37.97" height="37.97"/>
	<rect x="2426.18" y="991.07" class="st26" width="37.97" height="37.97"/>
	<rect x="2484.54" y="991.07" class="st26" width="37.97" height="37.97"/>
	<rect x="2542.89" y="991.07" class="st26" width="37.97" height="37.97"/>
</g>
<g>
	<g>
		<circle class="st27" cx="644.29" cy="901.37" r="96.39"/>
		<ellipse class="st27" cx="576.96" cy="977.47" rx="13.37" ry="12.91"/>
		<path class="st27" d="M566.73,993.98c0,5.14-4.32,9.31-9.64,9.31c-5.33,0-9.64-4.17-9.64-9.31c0-5.14,4.32-9.31,9.64-9.31
			C562.41,984.67,566.73,988.84,566.73,993.98z"/>
	</g>
	<g>
		<g>
			<circle class="st28" cx="640.6" cy="894.91" r="96.39"/>
			<ellipse class="st28" cx="573.27" cy="971.01" rx="13.37" ry="12.91"/>
			<path class="st28" d="M563.04,987.52c0,5.14-4.32,9.31-9.64,9.31c-5.33,0-9.64-4.17-9.64-9.31c0-5.14,4.32-9.31,9.64-9.31
				C558.72,978.21,563.04,982.38,563.04,987.52z"/>
		</g>
		<circle class="st28" cx="596.52" cy="894.91" r="13.01"/>
		<circle class="st28" cx="640.6" cy="894.91" r="13.01"/>
		<circle class="st28" cx="687.15" cy="894.91" r="13.01"/>
	</g>
</g>
</svg>
