<?xml version="1.0" encoding="utf-8"?>
<!-- Generator: Adobe Illustrator 27.2.0, SVG Export Plug-In . SVG Version: 6.00 Build 0)  -->
<svg version="1.1" id="Layer_1" xmlns="http://www.w3.org/2000/svg" xmlns:xlink="http://www.w3.org/1999/xlink" x="0px" y="0px"
	 viewBox="0 0 2880 1800" style="enable-background:new 0 0 2880 1800;" xml:space="preserve">
<style type="text/css">
	.st0{fill:#DEE9F6;}
	.st1{fill:#ACC5E6;}
	.st2{fill:#C7C8CA;}
	.st3{opacity:0.5;}
	.st4{fill:#E3F4FB;stroke:#000000;stroke-width:2.3562;stroke-miterlimit:10;}
	.st5{fill:#191F1D;}
	.st6{fill:#77787B;}
	.st7{fill:#3B3B3C;}
	.st8{fill:#605947;}
	.st9{fill:#A9CA92;}
	.st10{fill:#FFF2E3;}
	.st11{fill:#CC6F28;}
	.st12{fill:#8F3E1F;}
	.st13{fill:#F9A122;}
	.st14{opacity:0.3;}
	.st15{opacity:0.2;}
	.st16{fill:#F8A91C;}
	.st17{fill:#FFD23D;}
	.st18{fill:#FDF4E2;}
	.st19{fill:#0D2D3D;}
	.st20{fill:#285173;}
	.st21{fill:#1C3B54;}
	.st22{fill:#D29C78;}
	.st23{fill:#ECD9D2;}
	.st24{fill:#D5C4BD;}
	.st25{fill:#1C437D;}
	.st26{fill:#28387C;}
	.st27{fill:#F9E4DC;}
	.st28{fill:#E94647;}
	.st29{fill:#1F417F;}
	.st30{fill:#EDA885;}
	.st31{fill:#E7744D;}
	.st32{fill:#A67861;}
</style>
<g>
	<path class="st0" d="M1275.79,136.88c-43.72-12.4-70.08,58.1-70.08,58.1s39.92,82.61,33.96,96.08
		c-5.96,13.47-47.92-63.96-47.92-63.96c-16.94,22.87-24.34,102.63-24.34,102.63s79.12,42.19,70.02,53.79
		c-9.09,11.59-68.15-40.93-68.15-40.93c-7.07,27.73,7.18,66.13,7.18,66.13c28.18,54.23,96.37,15.25,96.37,15.25
		s27.1,15.21,47.77,50.01l0,0c0,0,3.41,7.1,10.73,16.63l3.85-6.41c-1.4-1.56-2.72-3.13-3.93-4.73c-0.01-0.01-0.02-0.02-0.02-0.03
		c-0.02-0.02-0.03-0.05-0.05-0.07c-0.73-1.03-1.76-2.51-3-4.33c0,0,0,0,0-0.01c0,0,0-0.01-0.01-0.01c-2.66-4.26-4.69-7.28-6.23-9.34
		c0-0.01-0.01-0.01-0.02-0.02c-8.5-13.09-19.1-30.95-19-38.56c0,0-1.42,0.11-3.76-0.39c1.2,0.13,2.45,0.26,3.76,0.39
		c30.09,3.15,66.94-49.33,79.02-83.64c12.08-34.31-4.53-26.17-28.4-18.12c-23.87,8.05-40.88,44.73-52.48,51.62
		c-11.6,6.89-8.14-11.29,5.66-30.71c13.8-19.43,40.28-17.38,63.18-48.39c22.89-31.02-23.93-93.25-23.93-93.25
		c-6.59,26.95-43.59,60.15-52.37,57.02c-8.77-3.14,28.24-62.98,31.53-73.79C1328.42,177.02,1319.5,149.28,1275.79,136.88z"/>
	<path class="st1" d="M1516.17,395.27c-23.42-6.64-37.54,31.13-37.54,31.13s21.39,44.25,18.19,51.47
		c-3.19,7.22-25.67-34.27-25.67-34.27c-9.07,12.25-13.04,54.98-13.04,54.98s42.39,22.6,37.51,28.81
		c-4.87,6.21-36.51-21.93-36.51-21.93c-3.79,14.86,3.84,35.43,3.84,35.43c15.1,29.06,51.63,8.17,51.63,8.17s14.52,8.15,25.59,26.79
		v0c0,0,1.83,3.8,5.75,8.91l2.06-3.43c-0.75-0.83-1.46-1.68-2.1-2.53c-0.01,0-0.01-0.01-0.01-0.02c-0.01-0.01-0.02-0.02-0.03-0.04
		c-0.39-0.55-0.94-1.34-1.61-2.32c0,0,0,0,0,0c0,0,0,0,0,0c-1.42-2.28-2.51-3.9-3.34-5.01c0,0-0.01-0.01-0.01-0.01
		c-4.56-7.01-10.23-16.58-10.18-20.66c0,0-0.76,0.06-2.02-0.21c0.64,0.07,1.31,0.14,2.02,0.21c16.12,1.69,35.86-26.43,42.33-44.81
		c6.47-18.38-2.43-14.02-15.21-9.71c-12.79,4.31-21.9,23.96-28.12,27.65c-6.21,3.69-4.36-6.05,3.03-16.45
		c7.39-10.41,21.58-9.31,33.85-25.93c12.27-16.62-12.82-49.96-12.82-49.96c-3.53,14.44-23.35,32.23-28.06,30.55
		c-4.7-1.68,15.13-33.74,16.89-39.53C1544.36,416.78,1539.59,401.92,1516.17,395.27z"/>
	<path class="st0" d="M1054.88,371.98c-30.65,5.58-25.56,56.95-25.56,56.95s49.54,38.77,49.95,48.87
		c0.4,10.1-48.83-24.88-48.83-24.88c-3.51,19.2,16.05,70.52,16.05,70.52s61.45,2.05,59.36,11.93c-2.09,9.88-54.32-4.59-54.32-4.59
		c4.04,19.21,24.41,38.53,24.41,38.53c33.74,24.86,63.92-19.75,63.92-19.75s21.28,1.17,44.52,16.34l0,0c0,0,4.25,3.34,11.63,6.99
		l0.43-5.11c-1.33-0.53-2.62-1.1-3.85-1.72c-0.01,0-0.02,0-0.02-0.01c-0.02-0.01-0.04-0.02-0.05-0.03
		c-0.76-0.42-1.84-1.01-3.15-1.76c0,0,0,0,0,0c0,0,0,0-0.01,0c-2.92-1.82-5.09-3.06-6.66-3.87c0,0-0.01,0-0.01-0.01
		c-9.19-5.48-21.11-13.27-23.35-17.99c0,0-0.84,0.5-2.43,0.9c0.78-0.29,1.59-0.58,2.43-0.9c19.47-7.16,26.28-50.6,23.35-75.37
		c-2.94-24.77-10.7-14.74-22.96-2.57c-12.25,12.17-11.64,39.89-16.69,47.64c-5.06,7.75-8.42-4.48-5.8-20.61
		c2.62-16.13,19.54-22.87,24.25-48.88c4.71-26.01-42.92-50.16-42.92-50.16c4.09,18.58-8.64,50.2-14.99,50.92
		c-6.35,0.72-1.66-47.3-2.9-54.95C1099.41,380.78,1085.54,366.4,1054.88,371.98z"/>
</g>
<g>
	<g>
		<ellipse class="st2" cx="1309.99" cy="1717.35" rx="1150.99" ry="35.65"/>
	</g>
</g>
<g>
	<g>
		<g class="st3">
			<g>
				<path class="st4" d="M2168.66,828.97c-0.03-190.52-158.66-399.3-356.1-411.91c-3.47-0.22-6.97-0.42-10.51-0.58
					c-283.04-13.19-304.61,332.02-560.69,370.96c-256.08,38.93-520.75-147.38-758.93-20.38
					c-263.25,140.36-348.89,753.36,459.72,779.32C1589.1,1567.14,2168.74,1397.4,2168.66,828.97z"/>
			</g>
		</g>
	</g>
</g>
<g>
	<g>
		<g>
			<g>
				<path class="st5" d="M1807.91,1717.35H891.55c-3.05,0-5.53-2.48-5.53-5.53v-41.07c0-3.05,2.48-5.53,5.53-5.53h916.35
					c3.05,0,5.53,2.48,5.53,5.53v41.07C1813.44,1714.88,1810.96,1717.35,1807.91,1717.35z"/>
			</g>
		</g>
		<g>
			<g>
				<path class="st6" d="M1660.14,1604.49v61.7h-620.82v-61.7c0-20.94,16.97-37.91,37.92-37.91h544.99
					C1643.16,1566.58,1660.14,1583.55,1660.14,1604.49z"/>
			</g>
		</g>
		<g>
			<g>
				<rect x="1039.32" y="1642.44" class="st7" width="620.82" height="23.74"/>
			</g>
		</g>
		<g>
			<g>
				<rect x="1333.87" y="475.51" class="st5" width="31.71" height="1053.14"/>
			</g>
		</g>
		<g>
			<g>
				<rect x="1309.99" y="1191.64" class="st5" width="79.49" height="374.94"/>
			</g>
		</g>
		<g>
			<g>
				<rect x="1309.99" y="1484.74" class="st8" width="79.49" height="10.22"/>
			</g>
		</g>
		<g>
			<g>
				<rect x="1309.99" y="1421.01" class="st8" width="79.49" height="10.22"/>
			</g>
		</g>
		<g>
			<g>
				<rect x="1309.99" y="1357.29" class="st8" width="79.49" height="10.22"/>
			</g>
		</g>
		<g>
			<g>
				
					<ellipse transform="matrix(0.7071 -0.7071 0.7071 0.7071 -428.4064 1295.8123)" class="st6" cx="1349.98" cy="1165.04" rx="54.75" ry="54.75"/>
			</g>
		</g>
		<g>
			<g>
				<path class="st5" d="M747.75,694.38l610.87-78.44l-17.44-135.82c0,0-52.44,0.07-202.17,72.44
					c-95,45.91-257.31,86.99-391.26,113.79V694.38z"/>
			</g>
		</g>
		<g>
			<g>
				<path class="st5" d="M1966.45,521.12c0,6.16-1.36,12.01-3.81,17.25l-68.71,8.83l-535.32,68.74l-17.44-135.82
					c0,0,50.76-13.18,213.92,19c84.62,16.69,211.94,18.9,330.1,14.82c27.3-0.94,54.11-2.22,79.79-3.74
					C1965.94,513.68,1966.45,517.34,1966.45,521.12z"/>
			</g>
		</g>
		<g>
			<g>
				<path class="st5" d="M1300.7,483.89c0,0-1-61.97,49.03-146.31v358.57c0,0-25.53-4.15-40.88-81.96L1300.7,483.89z"/>
			</g>
		</g>
		<g>
			<g>
				<path class="st5" d="M1398.76,483.89c0,0,1-61.97-49.03-146.31v358.57c0,0,25.53-4.15,40.88-81.96L1398.76,483.89z"/>
			</g>
		</g>
		<g>
			<g>
				<circle class="st7" cx="1349.98" cy="343.47" r="54.75"/>
			</g>
		</g>
		<g>
			<g>
				<path class="st6" d="M1349.98,375.43c-17.62,0-31.96-14.34-31.96-31.96s14.34-31.96,31.96-31.96
					c17.62,0,31.96,14.34,31.96,31.96S1367.6,375.43,1349.98,375.43z"/>
			</g>
		</g>
		<g>
			<g>
				<g>
					<path class="st6" d="M442.16,1212.28c0,0,134.5-43.74,347.05-43.74c212.56,0,328.88,43.74,328.88,43.74
						s-149.91,53.97-329.04,53.97C609.92,1266.26,442.16,1212.28,442.16,1212.28z"/>
				</g>
			</g>
			<g>
				<g>
					
						<ellipse transform="matrix(0.7071 -0.7071 0.7071 0.7071 -586.4513 880.7312)" class="st9" cx="769.91" cy="1148.27" rx="161.72" ry="161.72"/>
				</g>
				<g>
					<g>
						<g>
							<polygon class="st10" points="725.31,1227.78 681.66,1167.28 707.85,1148.38 728.84,1177.47 834.52,1067.36 857.82,1089.72 
															"/>
						</g>
					</g>
				</g>
			</g>
			<g>
				<g>
					<path class="st5" d="M503.11,1225.26c-1.11,0-2.23-0.25-3.28-0.79c-3.59-1.82-5.03-6.2-3.21-9.79l274.96-543.7
						c1.82-3.59,6.2-5.03,9.79-3.21c3.59,1.82,5.03,6.2,3.21,9.79l-274.96,543.7C508.34,1223.8,505.77,1225.26,503.11,1225.26z"/>
				</g>
			</g>
			<g>
				<g>
					<path class="st5" d="M1057.85,1226.41c-2.65,0-5.2-1.44-6.49-3.96L771.6,677.6c-1.84-3.58-0.43-7.97,3.15-9.81
						c3.58-1.84,7.97-0.43,9.81,3.15l279.76,544.85c1.84,3.58,0.43,7.97-3.15,9.81C1060.1,1226.15,1058.97,1226.41,1057.85,1226.41z
						"/>
				</g>
			</g>
			<g>
				<g>
					<path class="st7" d="M442.16,1212.28c238.5,48.05,465.57,54.48,675.94,0c0,0-46.9,233.07-337.97,233.07
						S442.16,1212.28,442.16,1212.28z"/>
				</g>
			</g>
		</g>
		<g>
			<g>
				<g>
					<path class="st6" d="M1587.53,1059.13c0,0,134.5-43.74,347.05-43.74c212.56,0,328.88,43.74,328.88,43.74
						s-149.91,53.97-329.04,53.97C1755.29,1113.1,1587.53,1059.13,1587.53,1059.13z"/>
				</g>
			</g>
			<g>
				<g>
					<g>
						<path class="st11" d="M2126.13,1191.05c0.01,0.19,0.01,0.38,0.01,0.57c0,7.01-3.74,13.75-10.63,20.03
							c-1.68,1.54-3.56,3.05-5.6,4.52c-5.73,4.14-12.87,8.04-21.22,11.66c-1.81,0.78-3.68,1.55-5.6,2.31
							c-6.48,2.55-13.57,4.94-21.22,7.14c-1.83,0.53-3.7,1.05-5.6,1.56c-6.7,1.8-13.79,3.45-21.23,4.97
							c-1.85,0.38-3.71,0.74-5.6,1.1c-6.81,1.29-13.9,2.46-21.22,3.5c-1.85,0.27-3.72,0.52-5.6,0.77
							c-6.89,0.9-13.97,1.68-21.22,2.34c-1.86,0.17-3.73,0.33-5.6,0.48c-6.93,0.57-14.02,1.02-21.22,1.36
							c-1.86,0.09-3.73,0.17-5.6,0.24c-6.97,0.26-14.05,0.42-21.23,0.46c-1.24,0.01-2.5,0.01-3.75,0.01c-0.62,0-1.24,0-1.85-0.01
							c-7.17-0.02-14.25-0.15-21.23-0.4c-1.88-0.06-3.74-0.14-5.6-0.22c-5.31-0.23-10.55-0.54-15.72-0.89
							c-1.85-0.13-3.68-0.26-5.5-0.41c-1.88-0.15-3.74-0.3-5.6-0.47c-7.25-0.63-14.33-1.4-21.22-2.27c-1.88-0.24-3.75-0.48-5.6-0.74
							c-4.39-0.6-8.69-1.26-12.91-1.95c-2.81-0.47-5.58-0.95-8.31-1.45c-1.88-0.35-3.76-0.71-5.6-1.08
							c-7.42-1.47-14.52-3.09-21.23-4.84c-1.33-0.34-2.64-0.7-3.94-1.05c-0.56-0.15-1.11-0.31-1.66-0.47
							c-3.03-0.85-5.99-1.73-8.85-2.64c-4.33-1.38-8.46-2.81-12.38-4.3c-1.92-0.74-3.79-1.48-5.6-2.24c-7.16-3-13.47-6.2-18.83-9.58
							c-0.82-0.52-1.63-1.04-2.4-1.57c-0.97-0.66-1.91-1.32-2.8-1.99c-0.98-0.73-1.91-1.46-2.8-2.21
							c-8.1-6.74-12.52-14.05-12.52-21.67c0-0.53,0.02-1.07,0.08-1.6l0.02-43.16l12.42-0.02l5.6-0.01l21.23-0.03l5.6-0.01
							l16.56-0.02l4.66-0.01l5.6-0.01l21.23-0.03l5.6-0.01l21.23-0.03l5.6-0.01l21.22-0.04l5.6-0.01l21.22-0.03l5.6-0.01l21.23-0.03
							l5.6-0.01l21.23-0.03l5.6-0.01l21.22-0.03l5.6-0.01l21.22-0.03l5.6-0.01l21.22-0.03l5.6-0.01l21.23-0.03l5.6-0.01h1.38
							l19.84-0.03l5.6-0.01l21.22-0.04l5.6-0.01l10.55-0.02L2126.13,1191.05L2126.13,1191.05z"/>
					</g>
					<g>
						<g>
							<path class="st12" d="M1739.9,1146.83v70.66c-0.97-0.66-1.91-1.32-2.8-1.99c-0.98-0.73-1.91-1.46-2.8-2.21v-66.45
								L1739.9,1146.83z"/>
						</g>
						<g>
							<path class="st12" d="M1766.73,1146.79v84.09c-1.92-0.74-3.79-1.48-5.6-2.24v-81.84L1766.73,1146.79z"/>
						</g>
						<g>
							<path class="st12" d="M1793.56,1146.75v92.59c-1.33-0.34-2.64-0.7-3.94-1.05c-0.56-0.15-1.11-0.31-1.66-0.47v-91.06
								L1793.56,1146.75z"/>
						</g>
						<g>
							<path class="st12" d="M1820.39,1146.72v98.55c-1.88-0.35-3.76-0.71-5.6-1.08v-97.47L1820.39,1146.72z"/>
						</g>
						<g>
							<path class="st12" d="M1847.22,1146.68v102.74c-1.88-0.24-3.75-0.48-5.6-0.74v-101.99L1847.22,1146.68z"/>
						</g>
						<g>
							<path class="st12" d="M1874.05,1146.63v105.52c-1.88-0.15-3.74-0.3-5.6-0.47v-105.04L1874.05,1146.63z"/>
						</g>
						<g>
							<path class="st12" d="M1900.88,1146.6v107.08c-1.88-0.06-3.74-0.14-5.6-0.22v-106.85L1900.88,1146.6z"/>
						</g>
						<g>
							<path class="st12" d="M1927.71,1146.55v107.51c-1.24,0.01-2.5,0.01-3.75,0.01c-0.62,0-1.24,0-1.85-0.01v-107.5
								L1927.71,1146.55z"/>
						</g>
						<g>
							<path class="st12" d="M1954.54,1146.52v106.85c-1.86,0.09-3.73,0.17-5.6,0.24v-107.08L1954.54,1146.52z"/>
						</g>
						<g>
							<path class="st12" d="M1981.37,1146.48v105.04c-1.86,0.17-3.73,0.33-5.6,0.48v-105.52L1981.37,1146.48z"/>
						</g>
						<g>
							<path class="st12" d="M2008.19,1146.44v101.97c-1.85,0.27-3.72,0.52-5.6,0.77v-102.73L2008.19,1146.44z"/>
						</g>
						<g>
							<path class="st12" d="M2035.02,1146.4v97.42c-1.85,0.38-3.71,0.74-5.6,1.1v-98.51L2035.02,1146.4z"/>
						</g>
						<g>
							<path class="st12" d="M2061.86,1146.36v90.94c-1.83,0.53-3.7,1.05-5.6,1.56v-92.48L2061.86,1146.36z"/>
						</g>
						<g>
							<path class="st12" d="M2088.69,1146.32v81.52c-1.81,0.78-3.68,1.55-5.6,2.31v-83.83L2088.69,1146.32z"/>
						</g>
						<g>
							<path class="st12" d="M2115.51,1146.28v65.38c-1.68,1.54-3.56,3.05-5.6,4.52v-69.89L2115.51,1146.28z"/>
						</g>
					</g>
				</g>
				<g>
					<g>
						<g>
							<path class="st13" d="M2126.09,1146.81c0,31.7-90.48,57.4-202.12,57.4c-15.25,0-30.11-0.48-44.4-1.39
								c-17.97-1.14-35.03-2.97-50.83-5.37c-14.11-2.14-27.22-4.75-39.07-7.75c-3.62-0.92-7.13-1.87-10.51-2.86
								c-14.86-4.33-27.33-9.33-36.79-14.82c-1.85-1.07-3.59-2.16-5.2-3.27c-9.87-6.76-15.32-14.18-15.32-21.95
								c0-0.71,0.05-1.42,0.16-2.13c3.92-30.71,92.84-55.27,201.96-55.27c26.85,0,52.48,1.49,75.91,4.19
								c4.53,0.52,8.97,1.09,13.33,1.7c19.04,2.66,36.38,6.15,51.45,10.31c3.32,0.92,6.53,1.86,9.63,2.84
								c11.01,3.48,20.54,7.33,28.32,11.5c8.02,4.29,14.18,8.91,18.17,13.76c2.91,3.54,4.67,7.22,5.15,10.98
								C2126.05,1145.39,2126.09,1146.1,2126.09,1146.81z"/>
						</g>
						<g class="st14">
							<g>
								<path class="st10" d="M2120.79,1133.7l-241.21,69.12c-17.97-1.14-35.03-2.97-50.83-5.37l273.87-77.52
									C2110.63,1124.23,2116.79,1128.84,2120.79,1133.7z"/>
							</g>
						</g>
						<g class="st14">
							<g>
								<path class="st10" d="M2013.22,1095.29l-270.85,76.74c-1.85-1.07-3.59-2.16-5.2-3.27l262.72-75.17
									C2004.42,1094.12,2008.86,1094.68,2013.22,1095.29z"/>
							</g>
						</g>
						<g class="st14">
							<g>
								<path class="st10" d="M2074.29,1108.44l-284.62,81.27c-3.62-0.92-7.13-1.87-10.51-2.86l285.51-81.25
									C2067.99,1106.51,2071.2,1107.46,2074.29,1108.44z"/>
							</g>
						</g>
						<g>
							<path class="st12" d="M2085.52,1146.81c0,0.7-0.07,1.41-0.16,2.11c-3.9,24.33-74.79,43.77-161.39,43.77
								c-86.6,0-157.49-19.45-161.39-43.77c-0.09-0.7-0.16-1.4-0.16-2.11c0-25.3,72.47-45.88,161.55-45.88
								S2085.52,1121.51,2085.52,1146.81z"/>
						</g>
						<g>
							<path class="st11" d="M2085.37,1148.92c-3.9,24.33-74.79,43.77-161.39,43.77c-1.94,0-3.85-0.01-5.77-0.03
								c-19.32-0.19-37.78-1.35-54.82-3.32c-17.04-1.96-32.64-4.73-46.21-8.14c-3.45-0.86-6.76-1.77-9.96-2.72
								c-14.47-4.31-26.06-9.4-33.79-15.05c-1.87-1.35-3.52-2.74-4.91-4.15c-3.34-3.32-5.34-6.8-5.93-10.38
								c3.9-24.33,74.79-43.78,161.39-43.78c10.95,0,21.66,0.31,32.03,0.91c5.28,0.3,10.48,0.68,15.58,1.13
								c20.81,1.82,39.83,4.81,56.13,8.7c3.52,0.84,6.92,1.72,10.19,2.65c12.69,3.58,23.31,7.77,31.26,12.38
								c7.75,4.5,12.98,9.4,15.19,14.57C2084.85,1146.61,2085.19,1147.76,2085.37,1148.92z"/>
						</g>
						<g class="st15">
							<g>
								<path class="st10" d="M2084.35,1145.47l-166.15,47.19c-19.32-0.19-37.78-1.35-54.82-3.32l205.77-58.44
									C2076.91,1135.4,2082.14,1140.31,2084.35,1145.47z"/>
							</g>
						</g>
						<g class="st15">
							<g>
								<path class="st10" d="M1971.58,1107.17l-198.15,56.27c-1.87-1.35-3.52-2.74-4.91-4.15l187.49-53.25
									C1961.28,1106.35,1966.49,1106.72,1971.58,1107.17z"/>
							</g>
						</g>
						<g class="st15">
							<g>
								<path class="st10" d="M2037.9,1118.52l-220.72,62.68c-3.45-0.86-6.76-1.77-9.96-2.72l220.49-62.62
									C2031.22,1116.71,2034.63,1117.59,2037.9,1118.52z"/>
							</g>
						</g>
						<g>
							<g>
								<g>
									<path class="st12" d="M1946.44,1172.84v7.62h-34.09v-7.28c-24.18-0.41-47.64-2.27-62.14-4.81l18.38-11.81
										c15.96,2.68,37.24,4.4,55.86,4.4c16.2,0,22-0.96,22-2.61c0-6.04-93.58-1.17-93.58-19.09c0-7.76,19.83-14.28,59.48-15.86
										v-7.49h34.09v7.35c17.89,0.48,35.3,1.79,49.09,3.98l-17.17,11.74c-16.68-2.4-32.4-3.57-47.15-3.57
										c-16.68,0-22,1.37-22,3.02c0,5.77,93.58,0.96,93.58,18.68C2002.78,1164.53,1983.92,1170.99,1946.44,1172.84z"/>
								</g>
							</g>
							<g>
								<g>
									<path class="st13" d="M1945.45,1170.3v7.62h-34.09v-7.28c-24.18-0.41-47.64-2.27-62.14-4.81l18.38-11.81
										c15.96,2.68,37.24,4.39,55.86,4.39c16.2,0,22-0.96,22-2.61c0-6.04-93.58-1.17-93.58-19.09c0-7.76,19.83-14.28,59.48-15.86
										v-7.48h34.09v7.35c17.89,0.48,35.3,1.79,49.09,3.98l-17.17,11.74c-16.68-2.4-32.4-3.57-47.15-3.57
										c-16.68,0-22,1.37-22,3.02c0,5.77,93.58,0.96,93.58,18.68C2001.79,1161.99,1982.93,1168.45,1945.45,1170.3z"/>
								</g>
							</g>
						</g>
					</g>
				</g>
			</g>
			<g>
				<g>
					<g>
						<path class="st11" d="M2138.84,1120.25c0.01,0.19,0.01,0.38,0.01,0.57c0,7.01-3.74,13.75-10.63,20.03
							c-1.68,1.54-3.56,3.05-5.6,4.52c-5.74,4.14-12.87,8.04-21.23,11.67c-1.81,0.78-3.68,1.55-5.6,2.31
							c-6.48,2.55-13.58,4.94-21.23,7.14c-1.83,0.53-3.7,1.05-5.6,1.56c-6.7,1.8-13.79,3.46-21.23,4.97
							c-1.85,0.38-3.71,0.74-5.6,1.1c-6.81,1.29-13.9,2.46-21.22,3.49c-1.85,0.27-3.72,0.52-5.6,0.77
							c-6.89,0.9-13.97,1.68-21.23,2.34c-1.86,0.17-3.73,0.33-5.6,0.48c-6.93,0.57-14.02,1.02-21.22,1.36
							c-1.86,0.09-3.72,0.17-5.6,0.24c-6.97,0.26-14.05,0.42-21.22,0.46c-1.24,0.01-2.5,0.01-3.75,0.01c-0.62,0-1.24,0-1.85,0
							c-7.17-0.02-14.25-0.15-21.23-0.4c-1.88-0.06-3.74-0.14-5.6-0.22c-5.31-0.23-10.55-0.53-15.72-0.89
							c-1.85-0.13-3.68-0.26-5.5-0.41c-1.88-0.14-3.74-0.3-5.6-0.47c-7.25-0.63-14.33-1.4-21.22-2.27c-1.88-0.24-3.75-0.48-5.6-0.74
							c-4.39-0.61-8.69-1.26-12.91-1.95c-2.81-0.47-5.58-0.95-8.31-1.45c-1.89-0.35-3.76-0.71-5.6-1.08
							c-7.42-1.47-14.52-3.09-21.23-4.84c-1.33-0.34-2.64-0.7-3.94-1.05c-0.56-0.15-1.11-0.31-1.66-0.47
							c-3.03-0.85-5.99-1.73-8.85-2.64c-4.33-1.38-8.46-2.81-12.37-4.3c-1.92-0.74-3.79-1.48-5.6-2.24c-7.16-3-13.47-6.2-18.83-9.58
							c-0.82-0.52-1.63-1.04-2.4-1.57c-0.97-0.66-1.91-1.32-2.8-1.99c-0.98-0.73-1.91-1.47-2.8-2.21
							c-8.1-6.75-12.52-14.05-12.52-21.67c0-0.53,0.03-1.07,0.08-1.6l0.02-43.16l12.42-0.02l5.6-0.01l21.23-0.03l5.6-0.01
							l16.57-0.02l4.66-0.01l5.6-0.01l21.23-0.03l5.6-0.01l21.22-0.03l5.6-0.01l21.22-0.03l5.6-0.01l21.23-0.03l5.6-0.01l21.23-0.03
							l5.6-0.01l21.22-0.03l5.6-0.01l21.22-0.04l5.6,0l21.23-0.04l5.6-0.01l21.22-0.03l5.6-0.01l21.23-0.03l5.6-0.01h1.38
							l19.84-0.03l5.6-0.01l21.23-0.03l5.6,0l10.55-0.02L2138.84,1120.25L2138.84,1120.25z"/>
					</g>
					<g>
						<g>
							<path class="st12" d="M1752.6,1076.02v70.66c-0.97-0.66-1.91-1.32-2.8-1.99c-0.98-0.73-1.91-1.47-2.8-2.21v-66.45
								L1752.6,1076.02z"/>
						</g>
						<g>
							<path class="st12" d="M1779.43,1075.98v84.09c-1.92-0.74-3.79-1.48-5.6-2.24v-81.84L1779.43,1075.98z"/>
						</g>
						<g>
							<path class="st12" d="M1806.26,1075.94v92.59c-1.33-0.34-2.64-0.7-3.94-1.05c-0.56-0.15-1.11-0.31-1.66-0.47v-91.07
								L1806.26,1075.94z"/>
						</g>
						<g>
							<path class="st12" d="M1833.1,1075.91v98.55c-1.89-0.35-3.76-0.71-5.6-1.08v-97.47L1833.1,1075.91z"/>
						</g>
						<g>
							<path class="st12" d="M1859.92,1075.87v102.74c-1.88-0.24-3.75-0.48-5.6-0.74v-101.99L1859.92,1075.87z"/>
						</g>
						<g>
							<path class="st12" d="M1886.75,1075.83v105.52c-1.88-0.14-3.74-0.3-5.6-0.47v-105.04L1886.75,1075.83z"/>
						</g>
						<g>
							<path class="st12" d="M1913.58,1075.79v107.08c-1.88-0.06-3.74-0.14-5.6-0.22V1075.8L1913.58,1075.79z"/>
						</g>
						<g>
							<path class="st12" d="M1940.41,1075.74v107.51c-1.24,0.01-2.5,0.01-3.75,0.01c-0.62,0-1.24,0-1.85,0v-107.5L1940.41,1075.74z
								"/>
						</g>
						<g>
							<path class="st12" d="M1967.24,1075.71v106.85c-1.86,0.09-3.72,0.17-5.6,0.24v-107.08L1967.24,1075.71z"/>
						</g>
						<g>
							<path class="st12" d="M1994.07,1075.67v105.04c-1.86,0.17-3.73,0.33-5.6,0.48v-105.52L1994.07,1075.67z"/>
						</g>
						<g>
							<path class="st12" d="M2020.9,1075.63v101.97c-1.85,0.27-3.72,0.52-5.6,0.77v-102.73L2020.9,1075.63z"/>
						</g>
						<g>
							<path class="st12" d="M2047.72,1075.59v97.42c-1.85,0.38-3.71,0.74-5.6,1.1v-98.51L2047.72,1075.59z"/>
						</g>
						<g>
							<path class="st12" d="M2074.56,1075.55v90.94c-1.83,0.53-3.7,1.05-5.6,1.56v-92.48L2074.56,1075.55z"/>
						</g>
						<g>
							<path class="st12" d="M2101.39,1075.51v81.52c-1.81,0.78-3.68,1.55-5.6,2.31v-83.82L2101.39,1075.51z"/>
						</g>
						<g>
							<path class="st12" d="M2128.22,1075.47v65.37c-1.68,1.54-3.56,3.05-5.6,4.52v-69.89L2128.22,1075.47z"/>
						</g>
					</g>
				</g>
				<g>
					<g>
						<g>
							<path class="st13" d="M2138.8,1076c0,31.7-90.48,57.4-202.12,57.4c-15.25,0-30.11-0.48-44.4-1.39
								c-17.97-1.14-35.03-2.97-50.83-5.37c-14.11-2.14-27.22-4.75-39.07-7.75c-3.62-0.92-7.13-1.87-10.51-2.86
								c-14.86-4.33-27.33-9.33-36.79-14.82c-1.85-1.07-3.59-2.16-5.2-3.27c-9.87-6.76-15.32-14.18-15.32-21.95
								c0-0.71,0.05-1.42,0.16-2.13c3.92-30.71,92.84-55.27,201.96-55.27c26.85,0,52.48,1.49,75.91,4.19
								c4.53,0.52,8.97,1.09,13.33,1.7c19.04,2.66,36.38,6.15,51.45,10.31c3.32,0.92,6.53,1.86,9.63,2.84
								c11.01,3.48,20.54,7.33,28.32,11.5c8.02,4.29,14.18,8.91,18.17,13.76c2.91,3.55,4.67,7.22,5.15,10.98
								C2138.75,1074.58,2138.8,1075.29,2138.8,1076z"/>
						</g>
						<g class="st14">
							<g>
								<path class="st10" d="M2133.49,1062.89l-241.21,69.12c-17.97-1.14-35.03-2.97-50.83-5.37l273.87-77.52
									C2123.34,1053.42,2129.5,1058.03,2133.49,1062.89z"/>
							</g>
						</g>
						<g class="st14">
							<g>
								<path class="st10" d="M2025.92,1024.48l-270.85,76.74c-1.85-1.07-3.59-2.16-5.2-3.27l262.72-75.17
									C2017.12,1023.31,2021.56,1023.87,2025.92,1024.48z"/>
							</g>
						</g>
						<g class="st14">
							<g>
								<path class="st10" d="M2087,1037.63l-284.62,81.27c-3.62-0.92-7.13-1.87-10.51-2.86l285.51-81.25
									C2080.69,1035.7,2083.9,1036.65,2087,1037.63z"/>
							</g>
						</g>
						<g>
							<path class="st12" d="M2098.23,1076c0,0.7-0.07,1.41-0.16,2.11c-3.9,24.33-74.79,43.77-161.39,43.77
								c-86.6,0-157.49-19.45-161.39-43.77c-0.09-0.7-0.16-1.4-0.16-2.11c0-25.3,72.47-45.88,161.55-45.88
								C2025.76,1030.12,2098.23,1050.7,2098.23,1076z"/>
						</g>
						<g>
							<path class="st11" d="M2098.07,1078.11c-3.9,24.33-74.79,43.77-161.39,43.77c-1.94,0-3.85-0.01-5.77-0.03
								c-19.32-0.19-37.78-1.35-54.82-3.32c-17.04-1.97-32.64-4.73-46.21-8.14c-3.45-0.86-6.76-1.77-9.96-2.71
								c-14.47-4.31-26.06-9.4-33.79-15.05c-1.87-1.35-3.52-2.74-4.91-4.15c-3.34-3.32-5.34-6.8-5.93-10.38
								c3.9-24.33,74.79-43.78,161.39-43.78c10.95,0,21.66,0.31,32.03,0.91c5.27,0.3,10.48,0.68,15.58,1.13
								c20.8,1.82,39.83,4.81,56.12,8.7c3.52,0.84,6.92,1.72,10.19,2.65c12.69,3.58,23.31,7.76,31.26,12.38
								c7.75,4.5,12.98,9.4,15.19,14.57C2097.55,1075.8,2097.89,1076.95,2098.07,1078.11z"/>
						</g>
						<g class="st15">
							<g>
								<path class="st10" d="M2097.05,1074.66l-166.15,47.18c-19.32-0.19-37.78-1.35-54.82-3.32l205.77-58.44
									C2089.62,1064.59,2094.85,1069.5,2097.05,1074.66z"/>
							</g>
						</g>
						<g class="st15">
							<g>
								<path class="st10" d="M1984.29,1036.36l-198.16,56.27c-1.87-1.35-3.52-2.74-4.91-4.15l187.49-53.25
									C1973.98,1035.54,1979.19,1035.92,1984.29,1036.36z"/>
							</g>
						</g>
						<g class="st15">
							<g>
								<path class="st10" d="M2050.6,1047.71l-220.72,62.68c-3.45-0.86-6.76-1.77-9.96-2.71l220.49-62.62
									C2043.93,1045.9,2047.33,1046.79,2050.6,1047.71z"/>
							</g>
						</g>
						<g>
							<g>
								<g>
									<path class="st12" d="M1959.14,1102.03v7.62h-34.09v-7.28c-24.18-0.41-47.64-2.27-62.14-4.81l18.38-11.81
										c15.96,2.68,37.24,4.4,55.86,4.4c16.2,0,22-0.96,22-2.61c0-6.04-93.58-1.17-93.58-19.09c0-7.76,19.83-14.28,59.48-15.86
										v-7.49h34.09v7.35c17.89,0.48,35.3,1.79,49.09,3.98l-17.17,11.74c-16.68-2.4-32.4-3.57-47.15-3.57
										c-16.68,0-22,1.37-22,3.02c0,5.77,93.58,0.96,93.58,18.68C2015.48,1093.72,1996.62,1100.18,1959.14,1102.03z"/>
								</g>
							</g>
							<g>
								<g>
									<path class="st13" d="M1958.15,1099.5v7.62h-34.09v-7.28c-24.18-0.41-47.64-2.27-62.14-4.81l18.38-11.81
										c15.96,2.68,37.24,4.39,55.86,4.39c16.2,0,22-0.96,22-2.61c0-6.04-93.58-1.17-93.58-19.09c0-7.76,19.83-14.28,59.48-15.86
										v-7.48h34.09v7.35c17.89,0.48,35.3,1.79,49.09,3.98l-17.17,11.74c-16.68-2.4-32.4-3.57-47.15-3.57
										c-16.68,0-22,1.37-22,3.02c0,5.77,93.58,0.96,93.58,18.68C2014.49,1091.19,1995.63,1097.64,1958.15,1099.5z"/>
								</g>
							</g>
						</g>
					</g>
				</g>
			</g>
			<g>
				<g>
					<g>
						<path class="st11" d="M2136.98,1049.44c0.01,0.19,0.01,0.38,0.01,0.57c0,7.01-3.74,13.75-10.63,20.03
							c-1.68,1.54-3.56,3.05-5.6,4.52c-5.74,4.14-12.87,8.04-21.22,11.66c-1.81,0.78-3.68,1.55-5.6,2.31
							c-6.48,2.55-13.58,4.94-21.23,7.14c-1.83,0.53-3.7,1.05-5.6,1.56c-6.7,1.8-13.79,3.45-21.23,4.97
							c-1.85,0.38-3.71,0.74-5.6,1.1c-6.82,1.29-13.9,2.46-21.22,3.5c-1.85,0.27-3.72,0.52-5.6,0.77
							c-6.89,0.89-13.97,1.68-21.22,2.34c-1.86,0.17-3.72,0.33-5.6,0.48c-6.93,0.57-14.02,1.02-21.22,1.36
							c-1.86,0.09-3.73,0.17-5.6,0.24c-6.97,0.26-14.05,0.42-21.23,0.46c-1.24,0.01-2.5,0.01-3.75,0.01c-0.62,0-1.24,0-1.85-0.01
							c-7.17-0.02-14.25-0.15-21.23-0.4c-1.88-0.06-3.74-0.14-5.6-0.22c-5.31-0.23-10.55-0.54-15.72-0.89
							c-1.85-0.13-3.68-0.26-5.5-0.41c-1.88-0.15-3.74-0.3-5.6-0.47c-7.25-0.63-14.33-1.4-21.22-2.27c-1.88-0.24-3.75-0.48-5.6-0.74
							c-4.39-0.6-8.69-1.26-12.91-1.95c-2.81-0.47-5.58-0.95-8.31-1.45c-1.88-0.35-3.76-0.71-5.6-1.08
							c-7.42-1.47-14.52-3.09-21.23-4.84c-1.33-0.34-2.64-0.7-3.94-1.05c-0.56-0.15-1.11-0.31-1.67-0.47
							c-3.03-0.85-5.99-1.73-8.85-2.64c-4.33-1.38-8.46-2.81-12.37-4.3c-1.92-0.74-3.79-1.48-5.6-2.24c-7.16-3-13.47-6.2-18.83-9.58
							c-0.82-0.52-1.63-1.04-2.4-1.57c-0.97-0.66-1.91-1.32-2.8-1.99c-0.98-0.73-1.91-1.46-2.8-2.21
							c-8.1-6.75-12.52-14.05-12.52-21.67c0-0.53,0.03-1.07,0.08-1.6l0.02-43.16l12.42-0.02l5.6-0.01l21.23-0.03l5.6-0.01
							l16.56-0.02l4.66-0.01l5.6-0.01l21.23-0.03l5.6,0l21.22-0.04l5.6-0.01l21.22-0.03l5.6-0.01l21.23-0.03l5.6-0.01l21.23-0.03
							l5.6-0.01l21.23-0.03l5.6-0.01l21.22-0.03l5.6-0.01l21.22-0.03l5.6-0.01l21.22-0.03l5.6-0.01l21.23-0.03l5.6-0.01h1.38
							l19.84-0.03l5.6-0.01l21.22-0.04l5.6-0.01l10.55-0.02L2136.98,1049.44L2136.98,1049.44z"/>
					</g>
					<g>
						<g>
							<path class="st12" d="M1750.75,1005.21v70.66c-0.97-0.66-1.91-1.32-2.8-1.99c-0.98-0.73-1.91-1.46-2.8-2.21v-66.45
								L1750.75,1005.21z"/>
						</g>
						<g>
							<path class="st12" d="M1777.58,1005.17v84.09c-1.92-0.74-3.79-1.48-5.6-2.24v-81.84L1777.58,1005.17z"/>
						</g>
						<g>
							<path class="st12" d="M1804.41,1005.13v92.59c-1.33-0.34-2.64-0.7-3.94-1.05c-0.56-0.15-1.11-0.31-1.67-0.47v-91.07
								L1804.41,1005.13z"/>
						</g>
						<g>
							<path class="st12" d="M1831.24,1005.1v98.55c-1.88-0.35-3.76-0.71-5.6-1.08v-97.47L1831.24,1005.1z"/>
						</g>
						<g>
							<path class="st12" d="M1858.07,1005.06v102.74c-1.88-0.24-3.75-0.48-5.6-0.74v-101.99L1858.07,1005.06z"/>
						</g>
						<g>
							<path class="st12" d="M1884.9,1005.02v105.52c-1.88-0.15-3.74-0.3-5.6-0.47v-105.04L1884.9,1005.02z"/>
						</g>
						<g>
							<path class="st12" d="M1911.73,1004.98v107.08c-1.88-0.06-3.74-0.14-5.6-0.22v-106.85L1911.73,1004.98z"/>
						</g>
						<g>
							<path class="st12" d="M1938.56,1004.94v107.51c-1.24,0.01-2.5,0.01-3.75,0.01c-0.62,0-1.24,0-1.85-0.01v-107.5
								L1938.56,1004.94z"/>
						</g>
						<g>
							<path class="st12" d="M1965.39,1004.9v106.85c-1.86,0.09-3.73,0.17-5.6,0.24v-107.08L1965.39,1004.9z"/>
						</g>
						<g>
							<path class="st12" d="M1992.22,1004.86v105.04c-1.86,0.17-3.72,0.33-5.6,0.48v-105.52L1992.22,1004.86z"/>
						</g>
						<g>
							<path class="st12" d="M2019.05,1004.82v101.97c-1.85,0.27-3.72,0.52-5.6,0.77v-102.73L2019.05,1004.82z"/>
						</g>
						<g>
							<path class="st12" d="M2045.87,1004.78v97.42c-1.85,0.38-3.71,0.74-5.6,1.1v-98.51L2045.87,1004.78z"/>
						</g>
						<g>
							<path class="st12" d="M2072.71,1004.74v90.94c-1.83,0.53-3.7,1.05-5.6,1.56v-92.48L2072.71,1004.74z"/>
						</g>
						<g>
							<path class="st12" d="M2099.54,1004.7v81.52c-1.81,0.78-3.68,1.55-5.6,2.31v-83.83L2099.54,1004.7z"/>
						</g>
						<g>
							<path class="st12" d="M2126.36,1004.66v65.38c-1.68,1.54-3.56,3.05-5.6,4.52v-69.89L2126.36,1004.66z"/>
						</g>
					</g>
				</g>
				<g>
					<g>
						<g>
							<path class="st13" d="M2136.94,1005.19c0,31.7-90.48,57.4-202.12,57.4c-15.25,0-30.11-0.48-44.4-1.39
								c-17.97-1.14-35.03-2.97-50.83-5.37c-14.11-2.14-27.22-4.75-39.07-7.75c-3.62-0.91-7.13-1.87-10.51-2.85
								c-14.86-4.33-27.33-9.33-36.79-14.82c-1.85-1.07-3.59-2.16-5.2-3.27c-9.87-6.76-15.32-14.18-15.32-21.95
								c0-0.71,0.05-1.42,0.16-2.13c3.92-30.71,92.84-55.27,201.96-55.27c26.85,0,52.48,1.49,75.91,4.19
								c4.53,0.52,8.97,1.09,13.33,1.7c19.04,2.66,36.38,6.16,51.45,10.31c3.32,0.91,6.53,1.86,9.62,2.84
								c11.01,3.48,20.54,7.33,28.32,11.5c8.02,4.29,14.18,8.91,18.17,13.76c2.91,3.54,4.67,7.22,5.15,10.98
								C2136.9,1003.77,2136.94,1004.48,2136.94,1005.19z"/>
						</g>
						<g class="st14">
							<g>
								<path class="st10" d="M2131.64,992.08l-241.21,69.12c-17.97-1.14-35.03-2.97-50.83-5.37l273.87-77.52
									C2121.48,982.61,2127.64,987.22,2131.64,992.08z"/>
							</g>
						</g>
						<g class="st14">
							<g>
								<path class="st10" d="M2024.07,953.67l-270.85,76.74c-1.85-1.07-3.59-2.16-5.2-3.27l262.72-75.17
									C2015.26,952.5,2019.71,953.06,2024.07,953.67z"/>
							</g>
						</g>
						<g class="st14">
							<g>
								<path class="st10" d="M2085.14,966.82l-284.62,81.27c-3.62-0.91-7.13-1.87-10.51-2.85l285.51-81.25
									C2078.84,964.9,2082.05,965.84,2085.14,966.82z"/>
							</g>
						</g>
						<g>
							<path class="st12" d="M2096.37,1005.19c0,0.7-0.07,1.41-0.16,2.11c-3.9,24.33-74.79,43.77-161.39,43.77
								c-86.6,0-157.49-19.45-161.39-43.77c-0.09-0.7-0.16-1.4-0.16-2.11c0-25.3,72.47-45.88,161.55-45.88
								C2023.91,959.31,2096.37,979.89,2096.37,1005.19z"/>
						</g>
						<g>
							<path class="st11" d="M2096.22,1007.3c-3.9,24.33-74.79,43.77-161.39,43.77c-1.94,0-3.86-0.01-5.77-0.03
								c-19.32-0.19-37.78-1.35-54.82-3.32c-17.04-1.97-32.64-4.73-46.21-8.14c-3.45-0.86-6.76-1.77-9.96-2.71
								c-14.47-4.31-26.06-9.4-33.79-15.05c-1.87-1.35-3.52-2.74-4.91-4.15c-3.34-3.32-5.34-6.8-5.93-10.38
								c3.9-24.33,74.79-43.78,161.39-43.78c10.95,0,21.66,0.31,32.03,0.91c5.27,0.3,10.48,0.68,15.58,1.13
								c20.8,1.82,39.83,4.81,56.12,8.7c3.52,0.84,6.92,1.72,10.19,2.65c12.69,3.59,23.31,7.76,31.26,12.38
								c7.75,4.5,12.98,9.4,15.19,14.57C2095.7,1004.99,2096.04,1006.14,2096.22,1007.3z"/>
						</g>
						<g class="st15">
							<g>
								<path class="st10" d="M2095.2,1003.85l-166.15,47.19c-19.32-0.19-37.78-1.35-54.82-3.32l205.77-58.44
									C2087.76,993.78,2092.99,998.69,2095.2,1003.85z"/>
							</g>
						</g>
						<g class="st15">
							<g>
								<path class="st10" d="M1982.43,965.55l-198.16,56.27c-1.87-1.35-3.52-2.74-4.91-4.15l187.49-53.25
									C1972.13,964.73,1977.34,965.11,1982.43,965.55z"/>
							</g>
						</g>
						<g class="st15">
							<g>
								<path class="st10" d="M2048.75,976.9l-220.72,62.68c-3.45-0.86-6.76-1.77-9.96-2.71l220.49-62.62
									C2042.07,975.09,2045.48,975.98,2048.75,976.9z"/>
							</g>
						</g>
						<g>
							<g>
								<g>
									<path class="st12" d="M1957.29,1031.22v7.62h-34.09v-7.28c-24.18-0.41-47.64-2.27-62.14-4.81l18.38-11.81
										c15.96,2.68,37.24,4.39,55.86,4.39c16.2,0,22-0.96,22-2.61c0-6.04-93.58-1.17-93.58-19.09c0-7.76,19.83-14.29,59.48-15.86
										v-7.49h34.09v7.35c17.89,0.48,35.3,1.78,49.09,3.98l-17.17,11.74c-16.68-2.4-32.4-3.57-47.15-3.57
										c-16.68,0-22,1.37-22,3.02c0,5.77,93.58,0.96,93.58,18.68C2013.63,1022.91,1994.77,1029.37,1957.29,1031.22z"/>
								</g>
							</g>
							<g>
								<g>
									<path class="st13" d="M1956.3,1028.69v7.62h-34.09v-7.28c-24.18-0.41-47.64-2.27-62.14-4.81l18.38-11.81
										c15.96,2.68,37.24,4.39,55.86,4.39c16.2,0,22-0.96,22-2.61c0-6.04-93.58-1.17-93.58-19.09c0-7.76,19.83-14.28,59.48-15.86
										v-7.49h34.09v7.35c17.89,0.48,35.3,1.79,49.09,3.98l-17.17,11.74c-16.68-2.4-32.4-3.57-47.15-3.57
										c-16.68,0-22,1.37-22,3.02c0,5.77,93.58,0.96,93.58,18.68C2012.64,1020.38,1993.78,1026.83,1956.3,1028.69z"/>
								</g>
							</g>
						</g>
					</g>
				</g>
			</g>
			<g>
				<g>
					<g>
						<path class="st11" d="M2128.9,977.47c0.01,0.19,0.01,0.38,0.01,0.57c0,7.01-3.74,13.75-10.63,20.03
							c-1.68,1.54-3.56,3.05-5.6,4.52c-5.74,4.14-12.87,8.04-21.22,11.66c-1.81,0.78-3.68,1.55-5.6,2.31
							c-6.48,2.55-13.58,4.94-21.23,7.14c-1.83,0.53-3.7,1.05-5.6,1.56c-6.7,1.8-13.79,3.45-21.23,4.97
							c-1.85,0.38-3.71,0.74-5.6,1.1c-6.82,1.29-13.9,2.46-21.22,3.5c-1.85,0.27-3.72,0.52-5.6,0.77
							c-6.89,0.89-13.97,1.68-21.22,2.34c-1.86,0.17-3.73,0.33-5.6,0.48c-6.94,0.57-14.02,1.02-21.23,1.36
							c-1.86,0.09-3.73,0.17-5.6,0.24c-6.97,0.26-14.05,0.42-21.23,0.46c-1.24,0.01-2.5,0.01-3.75,0.01c-0.62,0-1.24,0-1.85-0.01
							c-7.17-0.02-14.25-0.15-21.23-0.4c-1.88-0.06-3.74-0.14-5.6-0.22c-5.31-0.23-10.55-0.54-15.72-0.89
							c-1.85-0.13-3.68-0.26-5.5-0.41c-1.88-0.15-3.74-0.3-5.6-0.47c-7.25-0.63-14.33-1.4-21.22-2.27c-1.88-0.24-3.75-0.48-5.6-0.74
							c-4.39-0.6-8.69-1.26-12.91-1.95c-2.81-0.47-5.58-0.95-8.31-1.45c-1.89-0.35-3.76-0.71-5.6-1.08
							c-7.43-1.47-14.52-3.09-21.23-4.84c-1.33-0.34-2.64-0.7-3.94-1.05c-0.56-0.15-1.11-0.31-1.67-0.46
							c-3.03-0.85-5.99-1.73-8.85-2.64c-4.33-1.38-8.46-2.81-12.37-4.3c-1.92-0.74-3.79-1.48-5.6-2.24c-7.16-3-13.47-6.2-18.83-9.58
							c-0.82-0.52-1.63-1.04-2.4-1.57c-0.97-0.66-1.91-1.32-2.8-1.99c-0.98-0.73-1.91-1.46-2.8-2.21
							c-8.1-6.75-12.52-14.05-12.52-21.67c0-0.53,0.03-1.07,0.07-1.6l0.02-43.16l12.42-0.02l5.6-0.01l21.22-0.03l5.6-0.01
							l16.57-0.02l4.66-0.01l5.6-0.01l21.23-0.03l5.6-0.01l21.22-0.03l5.6-0.01l21.22-0.04l5.6-0.01l21.22-0.03l5.6-0.01l21.23-0.03
							l5.6-0.01l21.23-0.03l5.6-0.01l21.23-0.03l5.6-0.01l21.22-0.03l5.6-0.01l21.22-0.03l5.6-0.01l21.23-0.03l5.6-0.01h1.38
							l19.84-0.03l5.6-0.01l21.22-0.04l5.6-0.01l10.55-0.02L2128.9,977.47L2128.9,977.47z"/>
					</g>
					<g>
						<g>
							<path class="st12" d="M1742.67,933.25v70.66c-0.97-0.66-1.91-1.32-2.8-1.99c-0.98-0.73-1.91-1.46-2.8-2.21v-66.45
								L1742.67,933.25z"/>
						</g>
						<g>
							<path class="st12" d="M1769.5,933.21v84.09c-1.92-0.74-3.79-1.48-5.6-2.24v-81.84L1769.5,933.21z"/>
						</g>
						<g>
							<path class="st12" d="M1796.32,933.17v92.59c-1.33-0.34-2.64-0.7-3.94-1.05c-0.56-0.15-1.11-0.31-1.67-0.46v-91.07
								L1796.32,933.17z"/>
						</g>
						<g>
							<path class="st12" d="M1823.16,933.14v98.55c-1.89-0.35-3.76-0.71-5.6-1.08v-97.47L1823.16,933.14z"/>
						</g>
						<g>
							<path class="st12" d="M1849.99,933.1v102.74c-1.88-0.24-3.75-0.48-5.6-0.74V933.1L1849.99,933.1z"/>
						</g>
						<g>
							<path class="st12" d="M1876.81,933.05v105.52c-1.88-0.15-3.74-0.3-5.6-0.47V933.06L1876.81,933.05z"/>
						</g>
						<g>
							<path class="st12" d="M1903.64,933.01v107.08c-1.88-0.06-3.74-0.14-5.6-0.22V933.03L1903.64,933.01z"/>
						</g>
						<g>
							<path class="st12" d="M1930.48,932.97v107.51c-1.24,0.01-2.5,0.01-3.75,0.01c-0.62,0-1.24,0-1.85-0.01v-107.5L1930.48,932.97
								z"/>
						</g>
						<g>
							<path class="st12" d="M1957.3,932.94v106.85c-1.86,0.09-3.73,0.17-5.6,0.24V932.94L1957.3,932.94z"/>
						</g>
						<g>
							<path class="st12" d="M1984.13,932.9v105.04c-1.86,0.17-3.73,0.33-5.6,0.48V932.9L1984.13,932.9z"/>
						</g>
						<g>
							<path class="st12" d="M2010.96,932.86v101.97c-1.85,0.27-3.72,0.52-5.6,0.77V932.86L2010.96,932.86z"/>
						</g>
						<g>
							<path class="st12" d="M2037.79,932.82v97.42c-1.85,0.38-3.71,0.74-5.6,1.1v-98.51L2037.79,932.82z"/>
						</g>
						<g>
							<path class="st12" d="M2064.62,932.78v90.94c-1.83,0.53-3.7,1.05-5.6,1.56v-92.48L2064.62,932.78z"/>
						</g>
						<g>
							<path class="st12" d="M2091.45,932.74v81.52c-1.81,0.78-3.68,1.55-5.6,2.31v-83.83L2091.45,932.74z"/>
						</g>
						<g>
							<path class="st12" d="M2118.28,932.7v65.38c-1.68,1.54-3.56,3.05-5.6,4.52v-69.89L2118.28,932.7z"/>
						</g>
					</g>
				</g>
				<g>
					<g>
						<g>
							<path class="st13" d="M2128.86,933.23c0,31.7-90.48,57.4-202.12,57.4c-15.25,0-30.11-0.48-44.4-1.39
								c-17.97-1.14-35.03-2.97-50.83-5.37c-14.11-2.14-27.22-4.75-39.07-7.75c-3.62-0.91-7.13-1.87-10.51-2.86
								c-14.86-4.33-27.33-9.33-36.79-14.82c-1.85-1.07-3.59-2.16-5.2-3.27c-9.87-6.76-15.32-14.18-15.32-21.95
								c0-0.71,0.05-1.42,0.16-2.13c3.92-30.71,92.84-55.27,201.96-55.27c26.85,0,52.48,1.49,75.91,4.19
								c4.53,0.52,8.97,1.09,13.33,1.7c19.04,2.66,36.38,6.16,51.45,10.31c3.32,0.91,6.53,1.86,9.63,2.84
								c11.01,3.48,20.54,7.33,28.32,11.5c8.02,4.29,14.18,8.91,18.17,13.76c2.91,3.54,4.67,7.22,5.15,10.98
								C2128.82,931.81,2128.86,932.52,2128.86,933.23z"/>
						</g>
						<g class="st14">
							<g>
								<path class="st10" d="M2123.55,920.12l-241.21,69.12c-17.97-1.14-35.03-2.97-50.83-5.37l273.87-77.52
									C2113.4,910.65,2119.56,915.26,2123.55,920.12z"/>
							</g>
						</g>
						<g class="st14">
							<g>
								<path class="st10" d="M2015.98,881.71l-270.85,76.74c-1.85-1.07-3.59-2.16-5.2-3.27l262.72-75.17
									C2007.18,880.54,2011.63,881.1,2015.98,881.71z"/>
							</g>
						</g>
						<g class="st14">
							<g>
								<path class="st10" d="M2077.06,894.86l-284.62,81.27c-3.62-0.91-7.13-1.87-10.51-2.86l285.51-81.25
									C2070.75,892.93,2073.96,893.88,2077.06,894.86z"/>
							</g>
						</g>
						<g>
							<path class="st12" d="M2088.29,933.23c0,0.7-0.07,1.41-0.16,2.11c-3.9,24.33-74.79,43.77-161.39,43.77
								c-86.6,0-157.49-19.45-161.39-43.77c-0.09-0.7-0.16-1.4-0.16-2.11c0-25.3,72.47-45.88,161.55-45.88
								C2015.82,887.35,2088.29,907.93,2088.29,933.23z"/>
						</g>
						<g>
							<path class="st11" d="M2088.13,935.34c-3.9,24.33-74.79,43.77-161.39,43.77c-1.94,0-3.85-0.01-5.77-0.03
								c-19.32-0.19-37.78-1.35-54.82-3.32c-17.04-1.97-32.64-4.73-46.21-8.14c-3.45-0.86-6.76-1.77-9.96-2.71
								c-14.47-4.31-26.06-9.4-33.79-15.05c-1.87-1.35-3.52-2.74-4.91-4.15c-3.34-3.32-5.34-6.8-5.93-10.38
								c3.9-24.33,74.79-43.78,161.39-43.78c10.95,0,21.66,0.31,32.03,0.91c5.28,0.3,10.48,0.68,15.58,1.13
								c20.8,1.82,39.83,4.81,56.12,8.7c3.52,0.84,6.92,1.72,10.19,2.65c12.69,3.58,23.31,7.76,31.26,12.38
								c7.75,4.5,12.98,9.4,15.19,14.57C2087.61,933.03,2087.95,934.18,2088.13,935.34z"/>
						</g>
						<g class="st15">
							<g>
								<path class="st10" d="M2087.12,931.89l-166.15,47.19c-19.32-0.19-37.78-1.35-54.82-3.32l205.77-58.44
									C2079.68,921.82,2084.91,926.73,2087.12,931.89z"/>
							</g>
						</g>
						<g class="st15">
							<g>
								<path class="st10" d="M1974.35,893.59l-198.16,56.27c-1.87-1.35-3.52-2.74-4.91-4.15l187.49-53.25
									C1964.05,892.77,1969.25,893.14,1974.35,893.59z"/>
							</g>
						</g>
						<g class="st15">
							<g>
								<path class="st10" d="M2040.66,904.94l-220.72,62.68c-3.45-0.86-6.76-1.77-9.96-2.71l220.49-62.62
									C2033.99,903.13,2037.39,904.01,2040.66,904.94z"/>
							</g>
						</g>
						<g>
							<g>
								<g>
									<path class="st12" d="M1949.21,959.26v7.62h-34.09v-7.28c-24.18-0.41-47.64-2.27-62.14-4.81l18.38-11.81
										c15.96,2.68,37.24,4.39,55.86,4.39c16.2,0,22-0.96,22-2.61c0-6.04-93.58-1.17-93.58-19.09c0-7.76,19.83-14.29,59.48-15.86
										v-7.49h34.09v7.35c17.89,0.48,35.3,1.78,49.09,3.98l-17.17,11.74c-16.68-2.4-32.4-3.57-47.15-3.57
										c-16.68,0-22,1.37-22,3.02c0,5.77,93.58,0.96,93.58,18.68C2005.55,950.95,1986.69,957.41,1949.21,959.26z"/>
								</g>
							</g>
							<g>
								<g>
									<path class="st13" d="M1948.21,956.72v7.62h-34.09v-7.28c-24.18-0.41-47.64-2.27-62.14-4.81l18.38-11.81
										c15.96,2.68,37.24,4.39,55.86,4.39c16.2,0,22-0.96,22-2.61c0-6.04-93.58-1.17-93.58-19.09c0-7.76,19.83-14.28,59.48-15.86
										v-7.49h34.09v7.35c17.89,0.48,35.3,1.79,49.09,3.98l-17.17,11.74c-16.68-2.4-32.4-3.57-47.15-3.57
										c-16.68,0-22,1.37-22,3.02c0,5.77,93.58,0.96,93.58,18.68C2004.55,948.41,1985.69,954.87,1948.21,956.72z"/>
								</g>
							</g>
						</g>
					</g>
				</g>
			</g>
			<g>
				<g>
					<g>
						<path class="st11" d="M2161.96,916.54c0.01,0.19,0.01,0.38,0.01,0.57c0,7.01-3.74,13.75-10.63,20.03
							c-1.68,1.54-3.56,3.05-5.6,4.52c-5.73,4.14-12.87,8.04-21.23,11.66c-1.81,0.78-3.68,1.55-5.6,2.31
							c-6.48,2.55-13.57,4.94-21.23,7.14c-1.83,0.53-3.7,1.05-5.6,1.56c-6.7,1.8-13.79,3.45-21.23,4.97
							c-1.85,0.38-3.71,0.74-5.6,1.1c-6.82,1.29-13.9,2.46-21.22,3.5c-1.85,0.27-3.72,0.52-5.6,0.77
							c-6.89,0.89-13.97,1.68-21.22,2.34c-1.86,0.17-3.72,0.33-5.6,0.48c-6.93,0.57-14.02,1.02-21.22,1.36
							c-1.86,0.09-3.73,0.17-5.6,0.24c-6.97,0.26-14.05,0.42-21.23,0.46c-1.24,0.01-2.5,0.01-3.75,0.01c-0.62,0-1.24,0-1.85-0.01
							c-7.17-0.02-14.25-0.15-21.23-0.4c-1.88-0.06-3.74-0.14-5.6-0.22c-5.31-0.23-10.55-0.54-15.72-0.89
							c-1.85-0.13-3.68-0.26-5.5-0.41c-1.88-0.15-3.74-0.3-5.6-0.47c-7.25-0.63-14.33-1.4-21.22-2.27c-1.88-0.24-3.75-0.48-5.6-0.74
							c-4.39-0.6-8.69-1.26-12.91-1.95c-2.81-0.46-5.58-0.95-8.31-1.45c-1.88-0.35-3.76-0.71-5.6-1.08
							c-7.42-1.47-14.52-3.09-21.23-4.84c-1.33-0.34-2.64-0.7-3.94-1.05c-0.56-0.15-1.11-0.31-1.67-0.47
							c-3.03-0.85-5.99-1.73-8.85-2.64c-4.33-1.38-8.46-2.81-12.38-4.3c-1.92-0.74-3.79-1.48-5.6-2.24c-7.16-3-13.47-6.2-18.83-9.58
							c-0.82-0.52-1.63-1.04-2.4-1.57c-0.97-0.66-1.91-1.32-2.8-1.99c-0.98-0.73-1.91-1.46-2.8-2.21
							c-8.1-6.75-12.52-14.05-12.52-21.67c0-0.53,0.03-1.07,0.08-1.6l0.02-43.16l12.42-0.02l5.6-0.01l21.22-0.03l5.6-0.01
							l16.57-0.02l4.66-0.01l5.6-0.01l21.23-0.03l5.6,0l21.22-0.04l5.6-0.01l21.22-0.03l5.6-0.01l21.22-0.03l5.6-0.01l21.23-0.03
							l5.6-0.01l21.23-0.03l5.6-0.01l21.22-0.03l5.6-0.01l21.22-0.03l5.6-0.01l21.22-0.03l5.6-0.01l21.23-0.03l5.6-0.01h1.38
							l19.84-0.03l5.6-0.01l21.23-0.03l5.6-0.01l10.55-0.02L2161.96,916.54L2161.96,916.54z"/>
					</g>
					<g>
						<g>
							<path class="st12" d="M1775.73,872.31v70.66c-0.97-0.66-1.91-1.32-2.8-1.99c-0.98-0.73-1.91-1.46-2.8-2.21v-66.45
								L1775.73,872.31z"/>
						</g>
						<g>
							<path class="st12" d="M1802.55,872.27v84.09c-1.92-0.74-3.79-1.48-5.6-2.24v-81.84L1802.55,872.27z"/>
						</g>
						<g>
							<path class="st12" d="M1829.38,872.23v92.59c-1.33-0.34-2.64-0.7-3.94-1.05c-0.56-0.15-1.11-0.31-1.67-0.47v-91.06
								L1829.38,872.23z"/>
						</g>
						<g>
							<path class="st12" d="M1856.22,872.2v98.55c-1.88-0.35-3.76-0.71-5.6-1.08V872.2L1856.22,872.2z"/>
						</g>
						<g>
							<path class="st12" d="M1883.05,872.16V974.9c-1.88-0.24-3.75-0.48-5.6-0.74V872.16L1883.05,872.16z"/>
						</g>
						<g>
							<path class="st12" d="M1909.87,872.12v105.52c-1.88-0.15-3.74-0.3-5.6-0.47V872.12L1909.87,872.12z"/>
						</g>
						<g>
							<path class="st12" d="M1936.7,872.08v107.08c-1.88-0.06-3.74-0.14-5.6-0.22V872.09L1936.7,872.08z"/>
						</g>
						<g>
							<path class="st12" d="M1963.53,872.04v107.51c-1.24,0.01-2.5,0.01-3.75,0.01c-0.62,0-1.24,0-1.85-0.01v-107.5L1963.53,872.04
								z"/>
						</g>
						<g>
							<path class="st12" d="M1990.36,872v106.85c-1.86,0.09-3.73,0.17-5.6,0.24V872.01L1990.36,872z"/>
						</g>
						<g>
							<path class="st12" d="M2017.19,871.96V977c-1.86,0.17-3.72,0.33-5.6,0.48V871.97L2017.19,871.96z"/>
						</g>
						<g>
							<path class="st12" d="M2044.02,871.92v101.97c-1.85,0.27-3.72,0.52-5.6,0.77V871.93L2044.02,871.92z"/>
						</g>
						<g>
							<path class="st12" d="M2070.85,871.88v97.42c-1.85,0.38-3.71,0.74-5.6,1.1v-98.51L2070.85,871.88z"/>
						</g>
						<g>
							<path class="st12" d="M2097.68,871.84v90.94c-1.83,0.53-3.7,1.05-5.6,1.56v-92.48L2097.68,871.84z"/>
						</g>
						<g>
							<path class="st12" d="M2124.51,871.8v81.52c-1.81,0.78-3.68,1.55-5.6,2.31v-83.83L2124.51,871.8z"/>
						</g>
						<g>
							<path class="st12" d="M2151.34,871.76v65.38c-1.68,1.54-3.56,3.05-5.6,4.52v-69.89L2151.34,871.76z"/>
						</g>
					</g>
				</g>
				<g>
					<g>
						<g>
							<path class="st13" d="M2161.92,872.29c0,31.7-90.48,57.4-202.12,57.4c-15.25,0-30.11-0.48-44.4-1.39
								c-17.97-1.14-35.03-2.97-50.83-5.37c-14.11-2.14-27.22-4.75-39.07-7.75c-3.62-0.91-7.13-1.87-10.51-2.85
								c-14.86-4.33-27.33-9.33-36.79-14.82c-1.85-1.07-3.59-2.16-5.2-3.27c-9.87-6.76-15.32-14.18-15.32-21.95
								c0-0.71,0.05-1.42,0.16-2.13c3.92-30.71,92.84-55.27,201.96-55.27c26.85,0,52.48,1.49,75.91,4.19
								c4.53,0.52,8.97,1.09,13.33,1.7c19.04,2.66,36.38,6.16,51.45,10.31c3.32,0.91,6.53,1.86,9.62,2.84
								c11.01,3.48,20.54,7.33,28.32,11.5c8.02,4.29,14.18,8.91,18.17,13.76c2.91,3.54,4.67,7.22,5.15,10.98
								C2161.87,870.87,2161.92,871.58,2161.92,872.29z"/>
						</g>
						<g class="st14">
							<g>
								<path class="st10" d="M2156.61,859.18L1915.4,928.3c-17.97-1.14-35.03-2.97-50.83-5.37l273.87-77.52
									C2146.46,849.71,2152.62,854.33,2156.61,859.18z"/>
							</g>
						</g>
						<g class="st14">
							<g>
								<path class="st10" d="M2049.04,820.77l-270.85,76.74c-1.85-1.07-3.59-2.16-5.2-3.27l262.72-75.17
									C2040.24,819.6,2044.69,820.16,2049.04,820.77z"/>
							</g>
						</g>
						<g class="st14">
							<g>
								<path class="st10" d="M2110.12,833.92l-284.62,81.27c-3.62-0.91-7.13-1.87-10.51-2.85l285.51-81.25
									C2103.81,832,2107.02,832.94,2110.12,833.92z"/>
							</g>
						</g>
						<g>
							<path class="st12" d="M2121.35,872.29c0,0.7-0.07,1.41-0.16,2.11c-3.9,24.32-74.79,43.77-161.39,43.77
								c-86.6,0-157.49-19.45-161.39-43.77c-0.09-0.7-0.16-1.4-0.16-2.11c0-25.3,72.47-45.88,161.55-45.88
								C2048.88,826.41,2121.35,847,2121.35,872.29z"/>
						</g>
						<g>
							<path class="st11" d="M2121.19,874.4c-3.9,24.32-74.79,43.77-161.39,43.77c-1.94,0-3.86-0.01-5.77-0.03
								c-19.32-0.19-37.78-1.35-54.82-3.32c-17.04-1.97-32.64-4.73-46.21-8.14c-3.45-0.86-6.76-1.77-9.96-2.71
								c-14.47-4.31-26.06-9.4-33.79-15.05c-1.87-1.35-3.52-2.74-4.91-4.15c-3.34-3.32-5.34-6.8-5.93-10.38
								c3.9-24.33,74.79-43.78,161.39-43.78c10.95,0,21.66,0.31,32.03,0.91c5.27,0.3,10.48,0.68,15.58,1.13
								c20.8,1.82,39.83,4.81,56.12,8.7c3.52,0.84,6.92,1.72,10.19,2.65c12.69,3.58,23.31,7.76,31.26,12.38
								c7.75,4.5,12.98,9.4,15.19,14.57C2120.67,872.09,2121.01,873.24,2121.19,874.4z"/>
						</g>
						<g class="st15">
							<g>
								<path class="st10" d="M2120.18,870.96l-166.15,47.19c-19.32-0.19-37.78-1.35-54.82-3.32l205.77-58.44
									C2112.74,860.89,2117.97,865.79,2120.18,870.96z"/>
							</g>
						</g>
						<g class="st15">
							<g>
								<path class="st10" d="M2007.41,832.66l-198.16,56.27c-1.87-1.35-3.52-2.74-4.91-4.15l187.49-53.25
									C1997.1,831.83,2002.31,832.21,2007.41,832.66z"/>
							</g>
						</g>
						<g class="st15">
							<g>
								<path class="st10" d="M2073.72,844.01L1853,906.69c-3.45-0.86-6.76-1.77-9.96-2.71l220.49-62.62
									C2067.05,842.19,2070.45,843.08,2073.72,844.01z"/>
							</g>
						</g>
						<g>
							<g>
								<g>
									<path class="st12" d="M1982.27,898.32v7.62h-34.09v-7.28c-24.18-0.41-47.64-2.27-62.14-4.81l18.38-11.81
										c15.96,2.68,37.24,4.39,55.86,4.39c16.2,0,22-0.96,22-2.61c0-6.04-93.58-1.17-93.58-19.09c0-7.76,19.83-14.28,59.48-15.86
										v-7.49h34.09v7.35c17.89,0.48,35.3,1.78,49.09,3.98l-17.17,11.74c-16.68-2.4-32.4-3.57-47.15-3.57
										c-16.69,0-22,1.37-22,3.02c0,5.77,93.58,0.96,93.58,18.68C2038.61,890.01,2019.74,896.47,1982.27,898.32z"/>
								</g>
							</g>
							<g>
								<g>
									<path class="st13" d="M1981.27,895.79v7.62h-34.09v-7.28c-24.18-0.41-47.64-2.27-62.14-4.81l18.38-11.81
										c15.96,2.68,37.24,4.39,55.86,4.39c16.2,0,22-0.96,22-2.61c0-6.04-93.58-1.17-93.58-19.09c0-7.76,19.83-14.28,59.48-15.86
										v-7.49h34.09v7.35c17.89,0.48,35.3,1.79,49.09,3.98l-17.17,11.74c-16.68-2.4-32.4-3.57-47.15-3.57
										c-16.68,0-22,1.37-22,3.02c0,5.77,93.58,0.96,93.58,18.68C2037.61,887.48,2018.75,893.93,1981.27,895.79z"/>
								</g>
							</g>
						</g>
					</g>
				</g>
			</g>
			<g>
				<g>
					<g>
						<path class="st11" d="M2116.43,845.73c0.01,0.19,0.01,0.38,0.01,0.57c0,7.01-3.74,13.75-10.63,20.03
							c-1.68,1.54-3.56,3.05-5.6,4.52c-5.74,4.14-12.87,8.04-21.23,11.66c-1.81,0.78-3.68,1.55-5.6,2.31
							c-6.48,2.55-13.57,4.94-21.23,7.14c-1.83,0.53-3.7,1.05-5.6,1.56c-6.7,1.8-13.79,3.45-21.23,4.97
							c-1.85,0.38-3.71,0.74-5.6,1.1c-6.82,1.29-13.9,2.46-21.22,3.5c-1.85,0.27-3.72,0.52-5.6,0.77
							c-6.89,0.9-13.97,1.68-21.22,2.34c-1.86,0.17-3.73,0.33-5.6,0.48c-6.93,0.57-14.02,1.02-21.22,1.36
							c-1.86,0.09-3.72,0.17-5.6,0.24c-6.97,0.26-14.05,0.42-21.23,0.46c-1.24,0.01-2.5,0.01-3.75,0.01c-0.62,0-1.24,0-1.85-0.01
							c-7.17-0.02-14.25-0.15-21.23-0.4c-1.88-0.06-3.74-0.14-5.6-0.22c-5.31-0.23-10.55-0.54-15.72-0.89
							c-1.85-0.13-3.68-0.26-5.5-0.41c-1.88-0.15-3.74-0.3-5.6-0.47c-7.25-0.63-14.33-1.4-21.22-2.27c-1.88-0.24-3.75-0.48-5.6-0.74
							c-4.39-0.6-8.69-1.26-12.91-1.95c-2.81-0.47-5.58-0.95-8.31-1.45c-1.88-0.35-3.76-0.71-5.6-1.08
							c-7.42-1.47-14.52-3.09-21.23-4.84c-1.32-0.34-2.64-0.7-3.94-1.05c-0.56-0.15-1.11-0.31-1.67-0.47
							c-3.03-0.85-5.99-1.73-8.85-2.64c-4.33-1.38-8.46-2.81-12.38-4.3c-1.92-0.74-3.79-1.48-5.6-2.24c-7.16-3-13.47-6.2-18.83-9.58
							c-0.82-0.52-1.63-1.04-2.4-1.57c-0.97-0.66-1.91-1.32-2.8-1.99c-0.98-0.73-1.91-1.46-2.8-2.21
							c-8.1-6.75-12.52-14.05-12.52-21.67c0-0.53,0.03-1.07,0.08-1.6l0.02-43.16l12.42-0.02l5.6-0.01l21.22-0.03l5.6-0.01
							l16.57-0.02l4.66-0.01l5.6-0.01l21.23-0.03l5.6-0.01l21.22-0.03l5.6-0.01l21.22-0.04l5.6-0.01l21.22-0.03l5.6-0.01l21.23-0.03
							l5.6-0.01l21.23-0.03l5.6-0.01l21.22-0.03l5.6-0.01l21.22-0.03l5.6-0.01l21.22-0.03l5.6-0.01l21.23-0.03l5.6-0.01h1.38
							l19.84-0.03l5.6-0.01l21.23-0.04l5.6-0.01l10.55-0.02L2116.43,845.73L2116.43,845.73z"/>
					</g>
					<g>
						<g>
							<path class="st12" d="M1730.2,801.51v70.66c-0.97-0.66-1.91-1.32-2.8-1.99c-0.98-0.73-1.91-1.46-2.8-2.21v-66.45
								L1730.2,801.51z"/>
						</g>
						<g>
							<path class="st12" d="M1757.03,801.47v84.09c-1.92-0.74-3.79-1.48-5.6-2.24v-81.84L1757.03,801.47z"/>
						</g>
						<g>
							<path class="st12" d="M1783.85,801.42v92.59c-1.32-0.34-2.64-0.7-3.94-1.05c-0.56-0.15-1.11-0.31-1.67-0.47v-91.07
								L1783.85,801.42z"/>
						</g>
						<g>
							<path class="st12" d="M1810.69,801.39v98.55c-1.88-0.35-3.76-0.71-5.6-1.08V801.4L1810.69,801.39z"/>
						</g>
						<g>
							<path class="st12" d="M1837.52,801.35v102.74c-1.88-0.24-3.75-0.48-5.6-0.74V801.36L1837.52,801.35z"/>
						</g>
						<g>
							<path class="st12" d="M1864.34,801.31v105.52c-1.88-0.15-3.74-0.3-5.6-0.47V801.31L1864.34,801.31z"/>
						</g>
						<g>
							<path class="st12" d="M1891.17,801.27v107.08c-1.88-0.06-3.74-0.14-5.6-0.22V801.28L1891.17,801.27z"/>
						</g>
						<g>
							<path class="st12" d="M1918.01,801.23v107.51c-1.24,0.01-2.5,0.01-3.75,0.01c-0.62,0-1.24,0-1.85-0.01v-107.5L1918.01,801.23
								z"/>
						</g>
						<g>
							<path class="st12" d="M1944.83,801.19v106.85c-1.86,0.09-3.72,0.17-5.6,0.24V801.2L1944.83,801.19z"/>
						</g>
						<g>
							<path class="st12" d="M1971.66,801.15v105.04c-1.86,0.17-3.73,0.33-5.6,0.48V801.16L1971.66,801.15z"/>
						</g>
						<g>
							<path class="st12" d="M1998.49,801.11v101.97c-1.85,0.27-3.72,0.52-5.6,0.77V801.12L1998.49,801.11z"/>
						</g>
						<g>
							<path class="st12" d="M2025.32,801.07v97.42c-1.85,0.38-3.71,0.74-5.6,1.1v-98.51L2025.32,801.07z"/>
						</g>
						<g>
							<path class="st12" d="M2052.15,801.03v90.94c-1.83,0.53-3.7,1.05-5.6,1.56v-92.48L2052.15,801.03z"/>
						</g>
						<g>
							<path class="st12" d="M2078.98,800.99v81.52c-1.81,0.78-3.68,1.55-5.6,2.31V801L2078.98,800.99z"/>
						</g>
						<g>
							<path class="st12" d="M2105.81,800.95v65.38c-1.68,1.54-3.56,3.05-5.6,4.52v-69.89L2105.81,800.95z"/>
						</g>
					</g>
				</g>
				<g>
					<g>
						<g>
							<path class="st13" d="M2116.39,801.48c0,31.7-90.48,57.4-202.12,57.4c-15.25,0-30.11-0.48-44.4-1.39
								c-17.97-1.14-35.03-2.97-50.83-5.37c-14.11-2.14-27.22-4.75-39.07-7.75c-3.62-0.91-7.13-1.87-10.51-2.85
								c-14.86-4.33-27.33-9.33-36.79-14.82c-1.85-1.07-3.59-2.16-5.2-3.27c-9.87-6.76-15.32-14.18-15.32-21.95
								c0-0.71,0.05-1.42,0.16-2.13c3.92-30.71,92.84-55.27,201.96-55.27c26.85,0,52.48,1.49,75.91,4.19
								c4.53,0.52,8.97,1.09,13.33,1.7c19.04,2.66,36.38,6.16,51.45,10.31c3.32,0.91,6.53,1.86,9.63,2.84
								c11.01,3.48,20.54,7.33,28.32,11.5c8.02,4.29,14.18,8.91,18.17,13.76c2.91,3.54,4.67,7.22,5.15,10.98
								C2116.35,800.06,2116.39,800.77,2116.39,801.48z"/>
						</g>
						<g class="st14">
							<g>
								<path class="st10" d="M2111.08,788.37l-241.21,69.12c-17.97-1.14-35.03-2.97-50.83-5.37l273.87-77.52
									C2100.93,778.9,2107.09,783.52,2111.08,788.37z"/>
							</g>
						</g>
						<g class="st14">
							<g>
								<path class="st10" d="M2003.51,749.97l-270.85,76.74c-1.85-1.07-3.59-2.16-5.2-3.27l262.72-75.17
									C1994.71,748.79,1999.16,749.35,2003.51,749.97z"/>
							</g>
						</g>
						<g class="st14">
							<g>
								<path class="st10" d="M2064.59,763.11l-284.62,81.27c-3.62-0.91-7.13-1.87-10.51-2.85l285.51-81.25
									C2058.29,761.19,2061.49,762.13,2064.59,763.11z"/>
							</g>
						</g>
						<g>
							<path class="st12" d="M2075.82,801.48c0,0.7-0.07,1.41-0.16,2.11c-3.9,24.33-74.79,43.77-161.39,43.77
								c-86.6,0-157.49-19.45-161.39-43.77c-0.09-0.7-0.16-1.4-0.16-2.11c0-25.3,72.47-45.88,161.55-45.88
								C2003.35,755.61,2075.82,776.19,2075.82,801.48z"/>
						</g>
						<g>
							<path class="st11" d="M2075.66,803.59c-3.9,24.33-74.79,43.77-161.39,43.77c-1.94,0-3.86-0.01-5.77-0.03
								c-19.32-0.19-37.78-1.35-54.82-3.32c-17.04-1.97-32.64-4.73-46.21-8.14c-3.45-0.86-6.76-1.77-9.96-2.71
								c-14.47-4.31-26.06-9.4-33.79-15.05c-1.87-1.35-3.52-2.74-4.91-4.15c-3.34-3.32-5.34-6.8-5.93-10.38
								c3.9-24.33,74.79-43.78,161.39-43.78c10.95,0,21.66,0.31,32.03,0.91c5.27,0.3,10.48,0.68,15.58,1.13
								c20.8,1.82,39.83,4.81,56.13,8.7c3.52,0.84,6.92,1.72,10.19,2.65c12.69,3.58,23.31,7.76,31.26,12.38
								c7.75,4.5,12.98,9.4,15.19,14.57C2075.15,801.28,2075.48,802.43,2075.66,803.59z"/>
						</g>
						<g class="st15">
							<g>
								<path class="st10" d="M2074.65,800.15l-166.15,47.19c-19.32-0.19-37.78-1.35-54.82-3.32l205.77-58.44
									C2067.21,790.08,2072.44,794.98,2074.65,800.15z"/>
							</g>
						</g>
						<g class="st15">
							<g>
								<path class="st10" d="M1961.88,761.85l-198.16,56.27c-1.87-1.35-3.52-2.74-4.91-4.15l187.49-53.25
									C1951.58,761.02,1956.78,761.4,1961.88,761.85z"/>
							</g>
						</g>
						<g class="st15">
							<g>
								<path class="st10" d="M2028.19,773.2l-220.72,62.68c-3.45-0.86-6.76-1.77-9.96-2.71L2018,770.55
									C2021.52,771.38,2024.92,772.27,2028.19,773.2z"/>
							</g>
						</g>
						<g>
							<g>
								<g>
									<path class="st12" d="M1936.74,827.51v7.62h-34.09v-7.28c-24.18-0.41-47.63-2.27-62.14-4.81l18.38-11.81
										c15.96,2.68,37.24,4.39,55.86,4.39c16.2,0,22-0.96,22-2.61c0-6.04-93.58-1.17-93.58-19.09c0-7.76,19.83-14.29,59.48-15.86
										v-7.49h34.09v7.35c17.89,0.48,35.3,1.78,49.09,3.98l-17.17,11.74c-16.68-2.4-32.4-3.57-47.15-3.57
										c-16.68,0-22,1.37-22,3.02c0,5.77,93.58,0.96,93.58,18.68C1993.08,819.2,1974.22,825.66,1936.74,827.51z"/>
								</g>
							</g>
							<g>
								<g>
									<path class="st13" d="M1935.74,824.98v7.62h-34.09v-7.28c-24.18-0.41-47.64-2.27-62.14-4.81l18.38-11.81
										c15.96,2.68,37.24,4.39,55.86,4.39c16.2,0,22-0.96,22-2.61c0-6.04-93.58-1.17-93.58-19.09c0-7.76,19.83-14.28,59.48-15.86
										v-7.49h34.09v7.35c17.89,0.48,35.3,1.79,49.09,3.98l-17.17,11.74c-16.68-2.4-32.4-3.57-47.15-3.57
										c-16.68,0-22,1.37-22,3.02c0,5.77,93.58,0.96,93.58,18.68C1992.08,816.67,1973.22,823.12,1935.74,824.98z"/>
								</g>
							</g>
						</g>
					</g>
				</g>
			</g>
			<g>
				<g>
					<path class="st5" d="M1648.48,1072.11c-1.11,0-2.23-0.25-3.28-0.79c-3.59-1.82-5.03-6.2-3.21-9.79l274.96-543.7
						c1.81-3.59,6.2-5.03,9.79-3.21c3.59,1.82,5.03,6.2,3.21,9.79l-274.96,543.7C1653.71,1070.65,1651.14,1072.11,1648.48,1072.11z"
						/>
				</g>
			</g>
			<g>
				<g>
					<path class="st5" d="M2203.22,1073.25c-2.65,0-5.2-1.44-6.49-3.96l-279.76-544.85c-1.84-3.58-0.43-7.97,3.15-9.81
						c3.58-1.84,7.97-0.43,9.81,3.15l279.76,544.85c1.84,3.58,0.43,7.97-3.15,9.81C2205.48,1072.99,2204.34,1073.25,2203.22,1073.25
						z"/>
				</g>
			</g>
			<g>
				<g>
					<path class="st7" d="M1587.53,1059.13c238.5,48.05,465.57,54.48,675.94,0c0,0-46.9,233.07-337.97,233.07
						S1587.53,1059.13,1587.53,1059.13z"/>
				</g>
			</g>
		</g>
		<g>
			<g>
				<g>
					<path class="st5" d="M1966.45,521.12c0,6.16-1.36,12.01-3.81,17.25c-6.5,13.99-20.69,23.69-37.14,23.69
						c-12.7,0-24.05-5.79-31.57-14.87c-5.86-7.08-9.38-16.17-9.38-26.08c0-2.45,0.22-4.85,0.63-7.18
						c3.4-19.2,20.16-33.77,40.31-33.77c18.84,0,34.7,12.71,39.47,30.03C1965.94,513.68,1966.45,517.34,1966.45,521.12z"/>
				</g>
			</g>
			<g>
				<g>
					<path class="st8" d="M1925.5,547.75c-14.68,0-26.62-11.94-26.62-26.63c0-14.68,11.94-26.62,26.62-26.62
						c14.68,0,26.63,11.94,26.63,26.62C1952.13,535.8,1940.18,547.75,1925.5,547.75z"/>
				</g>
			</g>
		</g>
		<g>
			<g>
				<g>
					<circle class="st5" cx="778.8" cy="670.34" r="40.95"/>
				</g>
			</g>
			<g>
				<g>
					<path class="st8" d="M778.8,696.97c-14.68,0-26.63-11.94-26.63-26.63c0-14.68,11.94-26.62,26.63-26.62
						c14.68,0,26.63,11.94,26.63,26.62C805.42,685.03,793.48,696.97,778.8,696.97z"/>
				</g>
			</g>
		</g>
	</g>
</g>
<g id="kc5eA8.tif">
	<g>
		<path class="st16" d="M2346.91,321.02c-15.6,0-31.21,0.31-46.8-0.13c-7.71-0.22-11.96,2.75-13.58,10.14
			c-6.93,31.61-22.72,59.02-39.8,86.01c-17,26.85-20.78,56.98-12.81,86.98c12.95,48.75,45.93,79.16,95.45,86.88
			c47.48,7.4,87.12-10.78,113.43-51.11c27.56-42.25,26.34-86.34-0.84-129.08c-14.97-23.54-27.89-47.98-34.57-75.21
			c-2.59-10.57-7.05-15.75-18.91-14.75C2374.72,321.9,2360.78,321.01,2346.91,321.02z M2400.89,282.39
			c-34.3,0-68.14,0.11-101.99-0.07c-8.71-0.05-10.6,4.77-10.57,12.14c0.03,6.73,1.94,11.2,9.65,11.19
			c34.41-0.06,68.83-0.02,103.08-0.02C2403.63,297.56,2403.77,291.41,2400.89,282.39z M2197.4,470.8
			c-12.23-7.44-24.39-6.35-36.17-6.89c-3.63-0.16-6.79,2.23-7.33,6c-0.26,1.84,1.02,4.45,2.44,5.89
			C2162.59,482.1,2189.45,479.53,2197.4,470.8z M2522.37,468.87c-7.48,2.55-23.15-4.27-22.02,9.73c0.92,11.48,15.16,4.8,23.61,5.13
			c3.92,0.15,7.94-0.92,11.82-1.83c3.79-0.88,5.83-3.41,5.21-7.53c-0.5-3.32-2.9-5.09-5.82-5.4
			C2531.21,468.55,2527.18,468.87,2522.37,468.87z M2185.36,375.29c-0.15,6.87,27.24,26.22,33.24,23.62
			c5.86-2.53,5.79-7.44,1.67-10.82c-7.88-6.47-16.29-12.41-25.01-17.69C2190.5,367.52,2186.54,369.93,2185.36,375.29z
			 M2243.53,640.41c0.94,1.79,1.54,4.23,3.09,5.54c2.41,2.05,5.83,1.85,7.85-0.45c7.24-8.25,13.09-17.47,17.02-27.77
			c1.11-2.91,0.02-5.83-2.39-7.75c-2.53-2-6.08-2.1-7.87,0.25C2254.24,619.35,2247.91,628.93,2243.53,640.41z M2478.22,555.58
			c9.6,15.5,22.45,20.87,35.92,23.08c6.97,1.14,8.44-6.65,3.14-10.27C2506.95,561.33,2497.02,551.58,2478.22,555.58z M2207.09,548.2
			c-0.57,0.05-1.25-0.08-1.69,0.18c-10.15,6.07-22.96,8.08-29.94,18.89c-1.67,2.58,0.78,6.43,3.58,6.68
			c13.09,1.2,21.93-8.32,32.31-13.88c2.65-1.42,3.68-4.4,2.48-7.49C2212.67,549.58,2210.23,548.29,2207.09,548.2z M2471.89,397.69
			c0.48,5.39,4.35,8.75,9.14,6.03c9.41-5.33,18.46-11.59,26.66-18.63c3.84-3.3,2.82-8.74-3.1-10.71
			C2499.68,372.77,2472.4,392.09,2471.89,397.69z M2430.04,613.92c-5.6,0.42-7.48,3.71-6.4,7.18c3.39,10.98,9.75,20.51,16.98,29.27
			c2.26,2.74,6.55,2.42,8.94-0.93c3.18-4.47,1.41-9.11-1.58-12.66C2441.62,629.21,2440.44,617.23,2430.04,613.92z M2338.99,652.45
			c0,3.3-0.1,5.6,0.02,7.89c0.29,5.64-0.55,12.71,7.82,12.53c8.46-0.19,6.78-7.58,7.32-12.99c0.23-2.27,0.45-4.65,0.05-6.86
			c-1.37-7.63,4.52-21-7.87-20.75C2334,632.5,2341.08,646,2338.99,652.45z"/>
		<path class="st17" d="M2346.91,321.02c13.87-0.01,27.81,0.88,41.58-0.28c11.86-1,16.32,4.19,18.91,14.75
			c6.68,27.23,19.6,51.67,34.57,75.21c27.18,42.74,28.4,86.83,0.84,129.08c-26.31,40.33-65.95,58.51-113.43,51.11
			c-49.51-7.72-82.49-38.12-95.45-86.88c-7.97-30-4.19-60.12,12.81-86.98c17.08-26.98,32.87-54.39,39.8-86.01
			c1.62-7.39,5.87-10.36,13.58-10.14C2315.7,321.33,2331.31,321.02,2346.91,321.02z M2346.26,338.91c-8.08,0-16.26,0.83-24.21-0.19
			c-13.03-1.66-19.74,3-23.66,15.95c-7.21,23.87-19.12,45.61-32.84,66.56c-19.35,29.54-22.31,61.22-8.58,94.18
			c19.63,47.1,74.8,70.36,124.3,52.27c47.3-17.29,73.8-72.37,58.29-120.17c-8.49-26.16-30.06-45.71-37-72.12
			C2394.54,344.86,2379.16,329.2,2346.26,338.91z"/>
		<path class="st17" d="M2401.01,268.45c-34.57,0-69.51,0.19-104.45-0.14c-8.27-0.08-7.61-6.82-7.34-12.83
			c1.44-32.57,30.29-56.59,63.95-53.13C2384.14,205.54,2405.92,234.37,2401.01,268.45z"/>
		<path class="st17" d="M2400.89,282.39c2.88,9.03,2.74,15.17,0.18,23.23c-34.25,0-68.66-0.03-103.08,0.02
			c-7.72,0.01-9.63-4.46-9.65-11.19c-0.03-7.37,1.85-12.19,10.57-12.14C2332.74,282.49,2366.59,282.39,2400.89,282.39z"/>
		<path class="st17" d="M2197.4,470.8c-7.95,8.72-34.81,11.3-41.06,5c-1.42-1.43-2.71-4.05-2.44-5.89c0.54-3.77,3.7-6.16,7.33-6
			C2173,464.45,2185.17,463.36,2197.4,470.8z"/>
		<path class="st17" d="M2522.37,468.87c4.81,0,8.84-0.32,12.79,0.11c2.92,0.32,5.32,2.08,5.82,5.4c0.62,4.12-1.41,6.65-5.21,7.53
			c-3.88,0.9-7.9,1.98-11.82,1.83c-8.45-0.33-22.68,6.35-23.61-5.13C2499.22,464.6,2514.89,471.43,2522.37,468.87z"/>
		<path class="st17" d="M2185.36,375.29c1.18-5.36,5.13-7.77,9.89-4.89c8.72,5.28,17.13,11.22,25.01,17.69
			c4.12,3.38,4.19,8.29-1.67,10.82C2212.61,401.51,2185.21,382.16,2185.36,375.29z"/>
		<path class="st17" d="M2243.53,640.41c4.38-11.48,10.71-21.06,17.69-30.17c1.8-2.35,5.35-2.25,7.87-0.25
			c2.41,1.91,3.5,4.84,2.39,7.75c-3.92,10.3-9.77,19.52-17.02,27.77c-2.02,2.3-5.44,2.51-7.85,0.45
			C2245.07,644.64,2244.48,642.2,2243.53,640.41z"/>
		<path class="st17" d="M2478.22,555.58c18.8-4,28.73,5.75,39.06,12.81c5.3,3.62,3.83,11.41-3.14,10.27
			C2500.67,576.45,2487.82,571.08,2478.22,555.58z"/>
		<path class="st17" d="M2207.09,548.2c3.13,0.09,5.58,1.39,6.75,4.38c1.2,3.09,0.17,6.07-2.48,7.49
			c-10.38,5.57-19.23,15.08-32.31,13.88c-2.81-0.26-5.25-4.1-3.58-6.68c6.98-10.8,19.78-12.82,29.94-18.89
			C2205.84,548.12,2206.52,548.25,2207.09,548.2z"/>
		<path class="st17" d="M2471.89,397.69c0.51-5.6,27.8-24.92,32.69-23.3c5.93,1.96,6.95,7.41,3.1,10.71
			c-8.2,7.04-17.25,13.3-26.66,18.63C2476.23,406.44,2472.37,403.08,2471.89,397.69z"/>
		<path class="st17" d="M2430.04,613.92c10.39,3.31,11.57,15.28,17.94,22.86c2.98,3.56,4.75,8.2,1.58,12.66
			c-2.38,3.35-6.68,3.67-8.94,0.93c-7.23-8.76-13.59-18.29-16.98-29.27C2422.57,617.63,2424.45,614.34,2430.04,613.92z"/>
		<path class="st17" d="M2338.99,652.45c2.09-6.45-4.99-19.94,7.34-20.19c12.39-0.25,6.5,13.11,7.87,20.75
			c0.4,2.22,0.18,4.59-0.05,6.86c-0.54,5.41,1.14,12.8-7.32,12.99c-8.36,0.19-7.52-6.89-7.82-12.53
			C2338.89,658.05,2338.99,655.75,2338.99,652.45z"/>
		<path class="st16" d="M2346.26,338.91c32.9-9.71,48.28,5.95,56.3,36.49c6.94,26.41,28.51,45.96,37,72.12
			c15.51,47.8-10.99,102.88-58.29,120.17c-49.5,18.09-104.67-5.16-124.3-52.27c-13.74-32.96-10.77-64.64,8.58-94.18
			c13.72-20.94,25.63-42.69,32.84-66.56c3.91-12.95,10.63-17.61,23.66-15.95C2329.99,339.73,2338.18,338.91,2346.26,338.91z
			 M2425.69,494.06c-3.88-0.12-6.8,1.61-7.77,5.85c-4.08,17.82-17.56,28.39-30.07,39.63c-4.18,3.76-11.99,6.43-8.12,12.95
			c4.73,7.97,11.11,1.31,16.35-1.38c20.06-10.28,23.97-32.54,35.48-49.14C2434.23,498.13,2429.87,494.79,2425.69,494.06z"/>
		<path class="st16" d="M2381.24,252.79c-23.89,0-47.37,0-71.39,0c6.45-23.02,19.42-33.38,38.62-32.34
			C2365.22,221.36,2376.68,232.15,2381.24,252.79z"/>
		<path class="st18" d="M2425.69,494.06c4.18,0.72,8.54,4.06,5.87,7.91c-11.52,16.6-15.42,38.86-35.48,49.14
			c-5.24,2.69-11.62,9.34-16.35,1.38c-3.87-6.52,3.94-9.19,8.12-12.95c12.5-11.23,25.99-21.81,30.07-39.63
			C2418.89,495.67,2421.81,493.95,2425.69,494.06z"/>
	</g>
</g>
<g id="kc5eA8.tif_00000157287663304800894200000004991016085195062682_">
	<g>
		<path class="st16" d="M1064.9,756.51c-6.31,0-12.62,0.12-18.92-0.05c-3.12-0.09-4.84,1.11-5.49,4.1
			c-2.8,12.78-9.19,23.87-16.09,34.78c-6.87,10.86-8.4,23.04-5.18,35.17c5.24,19.72,18.57,32.01,38.6,35.13
			c19.2,2.99,35.23-4.36,45.87-20.67c11.15-17.09,10.65-34.92-0.34-52.2c-6.05-9.52-11.28-19.4-13.98-30.41
			c-1.05-4.27-2.85-6.37-7.65-5.97C1076.14,756.86,1070.51,756.51,1064.9,756.51z M1086.73,740.89c-13.87,0-27.56,0.04-41.24-0.03
			c-3.52-0.02-4.28,1.93-4.27,4.91c0.01,2.72,0.78,4.53,3.9,4.52c13.92-0.02,27.83-0.01,41.68-0.01
			C1087.83,747.02,1087.89,744.54,1086.73,740.89z M1004.44,817.08c-4.94-3.01-9.86-2.57-14.63-2.79c-1.47-0.07-2.74,0.9-2.96,2.43
			c-0.11,0.74,0.41,1.8,0.99,2.38C990.36,821.65,1001.22,820.61,1004.44,817.08z M1135.85,816.3c-3.02,1.03-9.36-1.73-8.91,3.94
			c0.37,4.64,6.13,1.94,9.55,2.07c1.58,0.06,3.21-0.37,4.78-0.74c1.53-0.36,2.36-1.38,2.1-3.04c-0.2-1.34-1.17-2.06-2.35-2.19
			C1139.42,816.17,1137.8,816.3,1135.85,816.3z M999.57,778.45c-0.06,2.78,11.02,10.6,13.44,9.55c2.37-1.02,2.34-3.01,0.67-4.38
			c-3.19-2.62-6.59-5.02-10.12-7.15C1001.65,775.31,1000.05,776.29,999.57,778.45z M1023.09,885.66c0.38,0.72,0.62,1.71,1.25,2.24
			c0.98,0.83,2.36,0.75,3.17-0.18c2.93-3.34,5.29-7.06,6.88-11.23c0.45-1.18,0.01-2.36-0.97-3.13c-1.02-0.81-2.46-0.85-3.18,0.1
			C1027.43,877.15,1024.86,881.02,1023.09,885.66z M1118,851.36c3.88,6.27,9.08,8.44,14.52,9.33c2.82,0.46,3.41-2.69,1.27-4.15
			C1129.61,853.69,1125.6,849.74,1118,851.36z M1008.36,848.38c-0.23,0.02-0.5-0.03-0.68,0.07c-4.11,2.45-9.28,3.27-12.11,7.64
			c-0.67,1.04,0.31,2.6,1.45,2.7c5.29,0.49,8.87-3.36,13.07-5.61c1.07-0.58,1.49-1.78,1-3.03
			C1010.62,848.94,1009.63,848.41,1008.36,848.38z M1115.44,787.51c0.2,2.18,1.76,3.54,3.7,2.44c3.8-2.15,7.46-4.69,10.78-7.53
			c1.55-1.33,1.14-3.54-1.26-4.33C1126.68,777.43,1115.64,785.25,1115.44,787.51z M1098.52,874.95c-2.26,0.17-3.02,1.5-2.59,2.9
			c1.37,4.44,3.94,8.29,6.87,11.84c0.91,1.11,2.65,0.98,3.61-0.38c1.28-1.81,0.57-3.68-0.64-5.12
			C1103.2,881.13,1102.72,876.29,1098.52,874.95z M1061.69,890.53c0,1.34-0.04,2.26,0.01,3.19c0.12,2.28-0.22,5.14,3.16,5.07
			c3.42-0.08,2.74-3.06,2.96-5.25c0.09-0.92,0.18-1.88,0.02-2.78c-0.55-3.09,1.83-8.49-3.18-8.39
			C1059.68,882.47,1062.54,887.92,1061.69,890.53z"/>
		<path class="st17" d="M1064.9,756.51c5.61,0,11.24,0.36,16.81-0.11c4.79-0.4,6.6,1.69,7.65,5.97c2.7,11.01,7.92,20.9,13.98,30.41
			c10.99,17.28,11.49,35.11,0.34,52.2c-10.64,16.31-26.67,23.66-45.87,20.67c-20.02-3.12-33.36-15.42-38.6-35.13
			c-3.22-12.13-1.7-24.31,5.18-35.17c6.91-10.91,13.29-22,16.09-34.78c0.65-2.99,2.38-4.19,5.49-4.1
			C1052.28,756.63,1058.59,756.51,1064.9,756.51z M1064.63,763.74c-3.27,0-6.58,0.33-9.79-0.08c-5.27-0.67-7.98,1.21-9.57,6.45
			c-2.92,9.65-7.73,18.45-13.28,26.92c-7.82,11.95-9.02,24.76-3.47,38.09c7.94,19.05,30.25,28.45,50.27,21.14
			c19.13-6.99,29.84-29.27,23.57-48.59c-3.43-10.58-12.15-18.48-14.96-29.16C1084.16,766.15,1077.94,759.82,1064.63,763.74z"/>
		<path class="st17" d="M1086.78,735.25c-13.98,0-28.11,0.08-42.24-0.06c-3.34-0.03-3.08-2.76-2.97-5.19
			c0.58-13.17,12.25-22.88,25.86-21.48C1079.95,709.81,1088.76,721.47,1086.78,735.25z"/>
		<path class="st17" d="M1086.73,740.89c1.16,3.65,1.11,6.14,0.07,9.39c-13.85,0-27.77-0.01-41.68,0.01
			c-3.12,0.01-3.89-1.8-3.9-4.52c-0.01-2.98,0.75-4.93,4.27-4.91C1059.17,740.93,1072.86,740.89,1086.73,740.89z"/>
		<path class="st17" d="M1004.44,817.08c-3.21,3.53-14.08,4.57-16.6,2.02c-0.57-0.58-1.1-1.64-0.99-2.38
			c0.22-1.52,1.5-2.49,2.96-2.43C994.57,814.51,999.49,814.07,1004.44,817.08z"/>
		<path class="st17" d="M1135.85,816.3c1.94,0,3.57-0.13,5.17,0.04c1.18,0.13,2.15,0.84,2.35,2.19c0.25,1.67-0.57,2.69-2.1,3.04
			c-1.57,0.37-3.2,0.8-4.78,0.74c-3.42-0.13-9.17,2.57-9.55-2.07C1126.49,814.57,1132.83,817.33,1135.85,816.3z"/>
		<path class="st17" d="M999.57,778.45c0.48-2.17,2.08-3.14,4-1.98c3.53,2.13,6.93,4.54,10.12,7.15c1.67,1.37,1.69,3.35-0.67,4.38
			C1010.59,789.06,999.51,781.23,999.57,778.45z"/>
		<path class="st17" d="M1023.09,885.66c1.77-4.64,4.33-8.52,7.15-12.2c0.73-0.95,2.16-0.91,3.18-0.1c0.98,0.77,1.41,1.96,0.97,3.13
			c-1.59,4.17-3.95,7.89-6.88,11.23c-0.82,0.93-2.2,1.01-3.17,0.18C1023.72,887.37,1023.48,886.39,1023.09,885.66z"/>
		<path class="st17" d="M1118,851.36c7.6-1.62,11.62,2.33,15.79,5.18c2.14,1.46,1.55,4.61-1.27,4.15
			C1127.07,859.8,1121.88,857.63,1118,851.36z"/>
		<path class="st17" d="M1008.36,848.37c1.27,0.04,2.26,0.56,2.73,1.77c0.49,1.25,0.07,2.45-1,3.03c-4.2,2.25-7.77,6.1-13.07,5.61
			c-1.14-0.1-2.12-1.66-1.45-2.7c2.82-4.37,8-5.18,12.11-7.64C1007.85,848.34,1008.13,848.4,1008.36,848.37z"/>
		<path class="st17" d="M1115.44,787.51c0.21-2.27,11.24-10.08,13.22-9.42c2.4,0.79,2.81,3,1.26,4.33
			c-3.32,2.85-6.98,5.38-10.78,7.53C1117.19,791.05,1115.63,789.69,1115.44,787.51z"/>
		<path class="st17" d="M1098.52,874.95c4.2,1.34,4.68,6.18,7.25,9.25c1.21,1.44,1.92,3.31,0.64,5.12c-0.96,1.36-2.7,1.48-3.61,0.38
			c-2.93-3.54-5.5-7.4-6.87-11.84C1095.49,876.45,1096.25,875.12,1098.52,874.95z"/>
		<path class="st17" d="M1061.69,890.53c0.85-2.61-2.02-8.06,2.97-8.16c5.01-0.1,2.63,5.3,3.18,8.39c0.16,0.9,0.07,1.86-0.02,2.78
			c-0.22,2.19,0.46,5.18-2.96,5.25c-3.38,0.08-3.04-2.78-3.16-5.07C1061.65,892.8,1061.69,891.87,1061.69,890.53z"/>
		<path class="st16" d="M1064.63,763.74c13.3-3.92,19.52,2.41,22.77,14.75c2.81,10.68,11.53,18.58,14.96,29.16
			c6.27,19.33-4.44,41.6-23.57,48.59c-20.02,7.32-42.33-2.09-50.27-21.14c-5.55-13.33-4.36-26.14,3.47-38.09
			c5.55-8.47,10.36-17.26,13.28-26.92c1.58-5.24,4.3-7.12,9.57-6.45C1058.06,764.08,1061.37,763.74,1064.63,763.74z M1096.75,826.48
			c-1.57-0.05-2.75,0.65-3.14,2.37c-1.65,7.2-7.1,11.48-12.16,16.03c-1.69,1.52-4.85,2.6-3.28,5.24c1.91,3.22,4.49,0.53,6.61-0.56
			c8.11-4.16,9.69-13.16,14.35-19.87C1100.21,828.13,1098.45,826.78,1096.75,826.48z"/>
		<path class="st16" d="M1078.78,728.92c-9.66,0-19.16,0-28.87,0c2.61-9.31,7.85-13.5,15.62-13.08
			C1072.3,716.21,1076.94,720.57,1078.78,728.92z"/>
		<path class="st18" d="M1096.75,826.48c1.69,0.29,3.45,1.64,2.37,3.2c-4.66,6.71-6.23,15.71-14.35,19.87
			c-2.12,1.09-4.7,3.78-6.61,0.56c-1.56-2.64,1.59-3.72,3.28-5.24c5.06-4.54,10.51-8.82,12.16-16.03
			C1094,827.13,1095.19,826.44,1096.75,826.48z"/>
	</g>
</g>
<g id="kc5eA8.tif_00000020372538164343921060000005441138747693625789_">
	<g>
		<path class="st16" d="M1542.82,1262.91c-7.9,0-15.81,0.16-23.71-0.07c-3.9-0.11-6.06,1.4-6.88,5.14
			c-3.51,16.02-11.51,29.91-20.16,43.58c-8.61,13.61-10.53,28.87-6.49,44.07c6.56,24.7,23.27,40.11,48.36,44.02
			c24.06,3.75,44.14-5.46,57.47-25.89c13.97-21.41,13.35-43.75-0.43-65.4c-7.59-11.93-14.13-24.31-17.51-38.11
			c-1.31-5.35-3.57-7.98-9.58-7.47C1556.91,1263.35,1549.84,1262.9,1542.82,1262.91z M1570.17,1243.33
			c-17.38,0-34.53,0.05-51.67-0.04c-4.41-0.02-5.37,2.42-5.35,6.15c0.01,3.41,0.98,5.67,4.89,5.67c17.44-0.03,34.87-0.01,52.23-0.01
			C1571.56,1251.02,1571.62,1247.9,1570.17,1243.33z M1467.06,1338.79c-6.19-3.77-12.36-3.22-18.33-3.49
			c-1.84-0.08-3.44,1.13-3.71,3.04c-0.13,0.93,0.52,2.26,1.24,2.98C1449.43,1344.52,1463.04,1343.21,1467.06,1338.79z
			 M1631.72,1337.82c-3.79,1.29-11.73-2.16-11.16,4.93c0.47,5.82,7.68,2.43,11.96,2.6c1.98,0.08,4.02-0.47,5.99-0.92
			c1.92-0.45,2.95-1.73,2.64-3.81c-0.25-1.68-1.47-2.58-2.95-2.74C1636.2,1337.65,1634.15,1337.82,1631.72,1337.82z M1460.97,1290.4
			c-0.08,3.48,13.8,13.28,16.84,11.97c2.97-1.28,2.93-3.77,0.84-5.48c-3.99-3.28-8.26-6.29-12.67-8.96
			C1463.57,1286.46,1461.57,1287.68,1460.97,1290.4z M1490.44,1424.73c0.48,0.91,0.78,2.14,1.56,2.81c1.22,1.04,2.95,0.94,3.98-0.23
			c3.67-4.18,6.63-8.85,8.62-14.07c0.56-1.47,0.01-2.96-1.21-3.92c-1.28-1.02-3.08-1.06-3.99,0.13
			C1495.87,1414.06,1492.66,1418.91,1490.44,1424.73z M1609.35,1381.75c4.86,7.85,11.37,10.57,18.2,11.69
			c3.53,0.58,4.27-3.37,1.59-5.2C1623.9,1384.66,1618.88,1379.72,1609.35,1381.75z M1471.97,1378.01c-0.29,0.03-0.63-0.04-0.86,0.09
			c-5.14,3.07-11.63,4.1-15.17,9.57c-0.84,1.31,0.39,3.26,1.82,3.39c6.63,0.61,11.11-4.21,16.37-7.03c1.34-0.72,1.87-2.23,1.26-3.8
			C1474.8,1378.71,1473.56,1378.05,1471.97,1378.01z M1606.14,1301.75c0.25,2.73,2.2,4.43,4.63,3.06c4.77-2.7,9.35-5.87,13.51-9.44
			c1.95-1.67,1.43-4.43-1.57-5.42C1620.22,1289.12,1606.4,1298.91,1606.14,1301.75z M1584.94,1411.31
			c-2.84,0.21-3.79,1.88-3.24,3.64c1.72,5.57,4.94,10.39,8.6,14.83c1.15,1.39,3.32,1.23,4.53-0.47c1.61-2.26,0.71-4.61-0.8-6.42
			C1590.8,1419.05,1590.21,1412.99,1584.94,1411.31z M1538.8,1430.83c0,1.67-0.05,2.84,0.01,4c0.15,2.86-0.28,6.44,3.96,6.35
			c4.29-0.1,3.43-3.84,3.71-6.58c0.12-1.15,0.23-2.35,0.02-3.48c-0.69-3.87,2.29-10.64-3.99-10.51
			C1536.27,1420.72,1539.86,1427.56,1538.8,1430.83z"/>
		<path class="st17" d="M1542.82,1262.9c7.03,0,14.09,0.45,21.07-0.14c6.01-0.5,8.27,2.12,9.58,7.47
			c3.38,13.8,9.93,26.18,17.51,38.11c13.77,21.65,14.39,43.99,0.43,65.4c-13.33,20.43-33.41,29.65-57.47,25.89
			c-25.09-3.91-41.8-19.32-48.36-44.02c-4.04-15.2-2.12-30.46,6.49-44.07c8.65-13.67,16.65-27.56,20.16-43.58
			c0.82-3.74,2.98-5.25,6.88-5.14C1527.01,1263.06,1534.91,1262.91,1542.82,1262.9z M1542.49,1271.97c-4.09,0-8.24,0.42-12.27-0.09
			c-6.6-0.84-10,1.52-11.99,8.08c-3.66,12.1-9.69,23.11-16.64,33.72c-9.8,14.97-11.31,31.02-4.35,47.72
			c9.95,23.87,37.9,35.65,62.98,26.48c23.97-8.76,37.39-36.67,29.53-60.89c-4.3-13.26-15.23-23.16-18.75-36.54
			C1566.95,1274.98,1559.16,1267.05,1542.49,1271.97z"/>
		<path class="st17" d="M1570.23,1236.27c-17.51,0-35.22,0.1-52.92-0.07c-4.19-0.04-3.85-3.46-3.72-6.5
			c0.73-16.5,15.35-28.67,32.4-26.92C1561.68,1204.39,1572.72,1219,1570.23,1236.27z"/>
		<path class="st17" d="M1570.17,1243.33c1.46,4.57,1.39,7.69,0.09,11.77c-17.35,0-34.79-0.02-52.23,0.01
			c-3.91,0.01-4.88-2.26-4.89-5.67c-0.02-3.73,0.94-6.17,5.35-6.15C1535.64,1243.38,1552.79,1243.33,1570.17,1243.33z"/>
		<path class="st17" d="M1467.06,1338.79c-4.03,4.42-17.64,5.72-20.8,2.53c-0.72-0.73-1.37-2.05-1.24-2.98
			c0.27-1.91,1.87-3.12,3.71-3.04C1454.7,1335.57,1460.87,1335.02,1467.06,1338.79z"/>
		<path class="st17" d="M1631.72,1337.82c2.44,0,4.48-0.16,6.48,0.05c1.48,0.16,2.69,1.06,2.95,2.74c0.32,2.09-0.72,3.37-2.64,3.81
			c-1.97,0.46-4,1-5.99,0.92c-4.28-0.17-11.49,3.22-11.96-2.6C1619.99,1335.65,1627.93,1339.11,1631.72,1337.82z"/>
		<path class="st17" d="M1460.97,1290.4c0.6-2.72,2.6-3.93,5.01-2.48c4.42,2.67,8.68,5.68,12.67,8.96c2.09,1.71,2.12,4.2-0.84,5.48
			C1474.77,1303.68,1460.89,1293.88,1460.97,1290.4z"/>
		<path class="st17" d="M1490.44,1424.73c2.22-5.82,5.43-10.67,8.96-15.29c0.91-1.19,2.71-1.14,3.99-0.13
			c1.22,0.97,1.77,2.45,1.21,3.92c-1.99,5.22-4.95,9.89-8.62,14.07c-1.02,1.17-2.75,1.27-3.98,0.23
			C1491.22,1426.87,1490.92,1425.64,1490.44,1424.73z"/>
		<path class="st17" d="M1609.35,1381.75c9.53-2.02,14.56,2.91,19.79,6.49c2.68,1.83,1.94,5.78-1.59,5.2
			C1620.72,1392.32,1614.21,1389.6,1609.35,1381.75z"/>
		<path class="st17" d="M1471.98,1378.01c1.59,0.05,2.83,0.7,3.42,2.22c0.61,1.57,0.09,3.08-1.26,3.8
			c-5.26,2.82-9.74,7.64-16.37,7.03c-1.42-0.13-2.66-2.08-1.82-3.39c3.54-5.47,10.02-6.5,15.17-9.57
			C1471.34,1377.97,1471.69,1378.04,1471.98,1378.01z"/>
		<path class="st17" d="M1606.14,1301.75c0.26-2.84,14.08-12.63,16.56-11.81c3,0.99,3.52,3.75,1.57,5.42
			c-4.16,3.57-8.74,6.74-13.51,9.44C1608.34,1306.18,1606.38,1304.48,1606.14,1301.75z"/>
		<path class="st17" d="M1584.94,1411.31c5.27,1.68,5.86,7.74,9.09,11.58c1.51,1.8,2.41,4.15,0.8,6.42
			c-1.21,1.7-3.38,1.86-4.53,0.47c-3.67-4.44-6.89-9.27-8.6-14.83C1581.15,1413.19,1582.1,1411.52,1584.94,1411.31z"/>
		<path class="st17" d="M1538.8,1430.83c1.06-3.27-2.53-10.1,3.72-10.23c6.28-0.13,3.29,6.64,3.99,10.51
			c0.2,1.12,0.09,2.33-0.02,3.48c-0.28,2.74,0.58,6.48-3.71,6.58c-4.24,0.09-3.81-3.49-3.96-6.35
			C1538.75,1433.66,1538.8,1432.5,1538.8,1430.83z"/>
		<path class="st16" d="M1542.49,1271.97c16.67-4.92,24.46,3.02,28.53,18.49c3.52,13.38,14.45,23.29,18.75,36.54
			c7.86,24.22-5.57,52.13-29.53,60.89c-25.08,9.17-53.04-2.62-62.98-26.48c-6.96-16.7-5.46-32.75,4.35-47.72
			c6.95-10.61,12.98-21.63,16.64-33.72c1.98-6.56,5.39-8.92,11.99-8.08C1534.25,1272.38,1538.39,1271.97,1542.49,1271.97z
			 M1582.73,1350.58c-1.96-0.06-3.45,0.81-3.94,2.96c-2.07,9.03-8.9,14.39-15.23,20.08c-2.12,1.9-6.07,3.26-4.11,6.56
			c2.39,4.04,5.63,0.66,8.28-0.7c10.17-5.21,12.14-16.49,17.98-24.9C1587.06,1352.64,1584.85,1350.95,1582.73,1350.58z"/>
		<path class="st16" d="M1560.21,1228.33c-12.11,0-24,0-36.17,0c3.27-11.66,9.84-16.91,19.57-16.39
			C1552.09,1212.41,1557.9,1217.88,1560.21,1228.33z"/>
		<path class="st18" d="M1582.73,1350.58c2.12,0.37,4.33,2.06,2.97,4.01c-5.83,8.41-7.81,19.69-17.98,24.9
			c-2.66,1.36-5.89,4.73-8.28,0.7c-1.96-3.3,2-4.66,4.11-6.56c6.34-5.69,13.17-11.05,15.23-20.08
			C1579.29,1351.39,1580.77,1350.52,1582.73,1350.58z"/>
	</g>
</g>
<g>
	<g>
		<g>
			<g>
				<g>
					<path class="st19" d="M2403.65,719.27c0,0-33.81,16.52-25.48,61.5c8.33,44.98,12.03,51.05,2.67,68.62
						c-9.36,17.57-20.43,92.54-12.02,106.76c8.41,14.21,104.17-62.4,117.48-126.71c13.31-64.31-8.37-92.93-16.03-103.59
						C2462.62,715.19,2433.5,704.15,2403.65,719.27z"/>
				</g>
			</g>
		</g>
	</g>
	<g>
		<g>
			<path class="st20" d="M2394.2,881.65c0,0-17.2,3.49-26.87,17.71c-6.73,9.89-7.28,31.87-8.26,36.01
				c-0.97,4.14-13.83,50.97-13.83,50.97l35.83,24.04L2394.2,881.65z"/>
		</g>
	</g>
	<g>
		<g>
			<path class="st21" d="M2261.65,1682.63c0,0-23.39,31.49-20.18,36.47c3.21,4.99,27.8,5.7,42.77,0c14.97-5.7,15.33-42.6,22.1-58.45
				c2.84-6.64-3.24-26.23-11.76-27.65c-8.53-1.42-17.81,2.75-17.81,2.75S2285.62,1658.08,2261.65,1682.63z"/>
		</g>
	</g>
	<g>
		<g>
			<g>
				<path class="st22" d="M2276.61,1635.49c0,0-4.92,13.41-6.72,26.21c-1.49,10.62-16.66,33.17-15.95,36.01
					c0.71,2.86,19.96,5.44,27.81-1.91c7.84-7.35,12.89-28.74,14.61-41.52c1.61-11.91,3.64-17.8,3.64-17.8
					S2284.1,1627.65,2276.61,1635.49z"/>
			</g>
		</g>
	</g>
	<g>
		<g>
			<path class="st21" d="M2465.22,1683.15c0,0-22.54,30.97-19.33,35.95c3.21,4.99,27.8,5.7,42.77,0c14.97-5.7,15.33-42.6,22.1-58.45
				c2.84-6.64-3.23-26.23-11.76-27.65c-8.53-1.42-18.54,3.05-18.54,3.05S2489.19,1658.6,2465.22,1683.15z"/>
		</g>
	</g>
	<g>
		<g>
			<g>
				<path class="st22" d="M2480.46,1636.05c0,0-1.78,14.62-4.63,24.95c-2.85,10.35-18.18,33.87-17.46,36.72
					c0.71,2.86,19.96,5.44,27.8-1.91c7.84-7.35,13.9-28.64,14.62-41.52c0.71-12.89-1.78-21.29-1.78-21.29
					S2487.94,1628.21,2480.46,1636.05z"/>
			</g>
		</g>
	</g>
	<g>
		<g>
			<g>
				<path class="st22" d="M2367.82,1123.45c0,0-20.12,93.35-24.74,116.85c-4.62,23.51-17.59,137.35-18.98,156.71
					c-1.39,19.36-20.99,92.3-20.07,99.21c0.92,6.91-29.08,145.79-29.08,145.79s10.22,8.23,20.99,0.75
					c5.54-3.84,65.72-129.99,65.74-164.56c0.02-47.78,35.39-110.14,39.96-120.83c42.41-99.29,34.08-129.66,39.62-136.11
					c5.53-6.45,6.01,3.99,9.23,18.28c3.22,14.29,10.06,137.82,14.2,153.5c4.14,15.68,0.89,68.68,3.18,95.41
					c2.29,26.73,12.34,147.66,12.34,147.66s7.83,12.29,18.83,0.33c2.37-2.57,19.05-134.69,19.53-166.5
					c0.48-31.8,0.99-75.66,1.89-89.42c8.61-131.78,29.6-150.6-3.4-243.89C2455.26,961.95,2367.82,1123.45,2367.82,1123.45z"/>
			</g>
		</g>
	</g>
	<g>
		<g>
			<path d="M2502.61,1097.43c0,0,57.13,80.05,32.43,250.26c0,0-135.63,18.38-208.26-21.45c0,0,30.14-175.49,41.04-202.79
				C2378.72,1096.13,2502.61,1097.43,2502.61,1097.43z"/>
		</g>
	</g>
	<g>
		<g>
			<polygon class="st21" points="2306.97,1657.88 2306.97,1690.85 2302.69,1690.85 2302.69,1665.37 			"/>
		</g>
	</g>
	<g>
		<g>
			<polygon class="st21" points="2511.39,1657.88 2511.39,1690.85 2507.11,1690.85 2507.11,1665.37 			"/>
		</g>
	</g>
	<g>
		<g>
			<path class="st23" d="M2426,869.99c0,0-21.07,9.94-28.39,11.4c-7.31,1.46-35.71,38.31-40.69,51.76
				c-4.98,13.46-0.02,33.64,10.21,57.34c10.23,23.7,0.57,31.6,5.24,55.3c4.67,23.7,8.74,73.88,7.85,87.04
				c-0.88,13.17,118.33,15.72,145.55-8.27c0,0-27.33-40.97-30.83-46.82c-3.51-5.86-0.57-37.74,2.66-45.93
				c3.22-8.2,24.68-77.84,24.68-77.84s17.55-53.49,1.73-65.79c-13.75-10.7-51.22-14.51-57.95-16.86
				C2459.32,868.98,2439.75,867.95,2426,869.99z"/>
		</g>
	</g>
	<g>
		<g>
			<path class="st24" d="M2419.24,916.94l-12.79-15l11.14-39.45C2417.59,862.49,2421.31,884.47,2419.24,916.94z"/>
		</g>
	</g>
	<g>
		<g>
			<path class="st22" d="M2415.95,845.68c0,0,0.57,5.28,1.25,12.58c0.29,3.24,0.62,6.87,0.92,10.62
				c0.85,10.64,1.54,22.16,1.13,28.02c0,0,21.88,21.95,46.8-25.58c0,0-10.46-19.6-2.57-46.3
				C2471.39,798.34,2415.95,845.68,2415.95,845.68z"/>
		</g>
	</g>
	<g>
		<g>
			<polygon class="st22" points="2419.22,896.9 2419.21,916.94 2444.41,898.13 			"/>
		</g>
	</g>
	<g>
		<g>
			<polygon class="st24" points="2419.24,916.94 2429.71,904 2464.96,868.91 2476.35,879.9 			"/>
		</g>
	</g>
	<g>
		<g>
			<path class="st25" d="M2469.85,872.27c0,0-29.59,44.86-31.01,64.6c-1.42,19.74,10.9,167.48,20.8,214.97
				c9.9,47.49,81.69-5.32,81.69-5.32s-48.17-78.07-29.63-140.54c18.54-62.48,25.28-87.46,25.28-87.46s-6.35-34.8-28.91-39.7
				C2488.27,874.51,2469.85,872.27,2469.85,872.27z"/>
		</g>
	</g>
	<g>
		<g>
			<path class="st26" d="M2354.97,939.14c0,0-5.34,18.86,15.41,60.59c0,0-0.36,53.38-0.95,70.05
				c-0.59,16.67-12.42,76.64-12.42,76.64l28.38,15.13c4.14,2.43,9.26-0.94,8.69-5.69c-5.79-48-24.62-230.04,16.29-278.95
				l-16.41,4.83C2393.96,881.74,2364.8,905.57,2354.97,939.14z"/>
		</g>
	</g>
	<g>
		<g>
			<polygon class="st27" points="2406.45,901.95 2390.32,906.4 2417.59,862.49 			"/>
		</g>
	</g>
	<g>
		<g>
			<polygon class="st27" points="2429.71,904 2444.43,923.32 2474.71,872.92 2464.96,868.91 			"/>
		</g>
	</g>
	<g>
		
			<rect x="2355.13" y="1002.48" transform="matrix(0.6205 -0.7842 0.7842 0.6205 117.5619 2253.2039)" class="st28" width="63.08" height="5.33"/>
	</g>
	<g>
		<path class="st22" d="M2410.74,1025.95c0,0-3.74,0.06-6.19-1.79c-4.25-3.19-5.77-11.08-13.26-10.51
			c-7.49,0.57-10.98,24.06-9.1,28.51c1.87,4.45,12.28,6.68,27.65,3.62C2425.21,1042.72,2410.74,1025.95,2410.74,1025.95z"/>
	</g>
	<g>
		<path class="st22" d="M2393.86,1013.8c0,0-10.77-3.68-23.2-6.37c-10.9-2.36-23.94-3.14-25.2-1.25
			c-1.41,2.11,10.62,3.93,21.31,6.97c9.83,2.8,7.49,3.82,7.49,3.82s0.65-0.32-10.58-1.38c-12.08-1.13-24.51-1.12-25.74,1.3
			c-0.6,1.18-0.18,1.97,4.17,3.07c-2.61-0.12-2.98,0.55-3.08,1.61c-0.52,5.44,17.09,9.78,24.09,11.5c-5.38-1.29-9.44-1.69-7.51,1.96
			c2.21,4.17,27.35,9.22,36.21,11.86C2401.47,1049.78,2393.86,1013.8,2393.86,1013.8z"/>
	</g>
	<g>
		<path class="st29" d="M2503.89,879.61c7.41-2.39,29.15,5.33,32.81,27.63c3.67,22.3,5.12,47.05,8.55,59.06
			c3.43,12.01,12.14,65.21,4.78,69.61c-7.36,4.41-21.28,8.43-40.8,8.42c-20.16-0.01-98.35,3.45-98.35,3.45l-4.89-27.78
			c0,0,29.7-1.52,45.08-3.84c13.7-2.07,32.68-7.89,55.03-10.33c0,0-4.72-32.96-8.15-42.26
			C2494.53,954.26,2470.56,890.37,2503.89,879.61z"/>
	</g>
	<g>
		<polygon class="st30" points="2360.81,1022.12 2357.14,1031.06 2364.99,1025.44 		"/>
	</g>
	<g>
		<g>
			<polygon class="st31" points="2403.81,1068.72 2325.06,1053.1 2266.65,928.12 2350.71,936.95 			"/>
		</g>
	</g>
	<g>
		<g>
			<g>
				<path class="st22" d="M2315.31,1031.86c0,0-4.32-4.01-8.16-9.63c-3.84-5.62-16.42-27.05-15.27-28.39
					c1.15-1.35,19.83-1.79,23.22,1.26c3.38,3.04-3.34,4.25-3.34,4.25s10.21,1.05,9.49,3.94c-0.73,2.89-6.88,2.08-6.88,2.08
					s8.22,1.58,6.98,4.11c-1.25,2.54-5.2,2.5-5.2,2.5s7.28,0.92,6.38,3.69s-12.43,5.37-10.89,7.67
					C2313.18,1025.63,2315.31,1031.86,2315.31,1031.86z"/>
			</g>
		</g>
	</g>
	<g>
		<g>
			<g>
				<g>
					<path class="st22" d="M2408.55,724.27c0,0-49.09,15.4-22.49,100.11c26.6,84.71,93.68-9.77,86.69-61.38
						C2465.77,711.39,2408.55,724.27,2408.55,724.27z"/>
				</g>
			</g>
		</g>
	</g>
	<g>
		<g>
			<g>
				<g>
					<path class="st19" d="M2381.08,773.67c0,0,24.37,23.95,65.19,26.96c0,0,15.67,18.4,16.87,25.62c0,0,36.45-62.05-8.3-99.28
						C2410.1,689.74,2364.63,758.33,2381.08,773.67z"/>
				</g>
			</g>
		</g>
	</g>
	<g>
		<g>
			<g>
				<g>
					<path class="st22" d="M2445.77,802.31c0.32-6.16,4.12-20.19,13.28-16.26c9.16,3.93-0.58,32.49-6.65,30.73
						C2452.4,816.79,2445.01,816.9,2445.77,802.31z"/>
				</g>
			</g>
		</g>
	</g>
	<g>
		<path class="st32" d="M2417.21,858.26c0.29,3.24,0.62,6.87,0.92,10.62h0.01c28.38-14,32.74-34.19,32.87-34.82
			C2430.77,860.17,2417.21,858.26,2417.21,858.26z"/>
	</g>
</g>
</svg>
